<?xml version="1.0" encoding="UTF-8" standalone="no"?>
<!DOCTYPE svg PUBLIC "-//W3C//DTD SVG 1.1//EN"
 "http://www.w3.org/Graphics/SVG/1.1/DTD/svg11.dtd">
<!-- Generated by graphviz version 2.38.0 (20140413.2041)
 -->
<!-- Title: Modules/MFT/src/BasicDigitQcTask.cxx Pages: 1 -->
<svg width="1249pt" height="330pt"
 viewBox="0.00 0.00 1248.50 330.00" xmlns="http://www.w3.org/2000/svg" xmlns:xlink="http://www.w3.org/1999/xlink">
<g id="graph0" class="graph" transform="scale(1 1) rotate(0) translate(4 326)">
<title>Modules/MFT/src/BasicDigitQcTask.cxx</title>
<!-- Node1 -->
<g id="node1" class="node"><title>Node1</title>
<polygon fill="#bfbfbf" stroke="black" points="146,-291.5 146,-321.5 287,-321.5 287,-291.5 146,-291.5"/>
<text text-anchor="start" x="154" y="-309.5" font-family="Helvetica,sans-Serif" font-size="10.00">Modules/MFT/src/BasicDigit</text>
<text text-anchor="middle" x="216.5" y="-298.5" font-family="Helvetica,sans-Serif" font-size="10.00">QcTask.cxx</text>
</g>
<!-- Node2 -->
<g id="node2" class="node"><title>Node2</title>
<polygon fill="none" stroke="#bfbfbf" points="0,-235.5 0,-254.5 65,-254.5 65,-235.5 0,-235.5"/>
<text text-anchor="middle" x="32.5" y="-242.5" font-family="Helvetica,sans-Serif" font-size="10.00">TCanvas.h</text>
</g>
<!-- Node1&#45;&gt;Node2 -->
<g id="edge1" class="edge"><title>Node1&#45;&gt;Node2</title>
<path fill="none" stroke="midnightblue" d="M172.895,-291.399C141.1,-281.118 98.5255,-267.351 68.6253,-257.682"/>
<polygon fill="midnightblue" stroke="midnightblue" points="69.5968,-254.318 59.005,-254.571 67.443,-260.978 69.5968,-254.318"/>
</g>
<!-- Node3 -->
<g id="node3" class="node"><title>Node3</title>
<polygon fill="none" stroke="#bfbfbf" points="83.5,-235.5 83.5,-254.5 127.5,-254.5 127.5,-235.5 83.5,-235.5"/>
<text text-anchor="middle" x="105.5" y="-242.5" font-family="Helvetica,sans-Serif" font-size="10.00">TH1.h</text>
</g>
<!-- Node1&#45;&gt;Node3 -->
<g id="edge2" class="edge"><title>Node1&#45;&gt;Node3</title>
<path fill="none" stroke="midnightblue" d="M190.195,-291.399C172.236,-281.773 148.576,-269.09 130.829,-259.577"/>
<polygon fill="midnightblue" stroke="midnightblue" points="132.119,-256.297 121.651,-254.658 128.812,-262.467 132.119,-256.297"/>
</g>
<!-- Node4 -->
<g id="node4" class="node"><title>Node4</title>
<polygon fill="none" stroke="#bfbfbf" points="146,-235.5 146,-254.5 287,-254.5 287,-235.5 146,-235.5"/>
<text text-anchor="middle" x="216.5" y="-242.5" font-family="Helvetica,sans-Serif" font-size="10.00">DataFormatsITSMFT/Digit.h</text>
</g>
<!-- Node1&#45;&gt;Node4 -->
<g id="edge3" class="edge"><title>Node1&#45;&gt;Node4</title>
<path fill="none" stroke="midnightblue" d="M216.5,-291.399C216.5,-283.466 216.5,-273.458 216.5,-264.858"/>
<polygon fill="midnightblue" stroke="midnightblue" points="220,-264.658 216.5,-254.658 213,-264.658 220,-264.658"/>
</g>
<!-- Node5 -->
<g id="node5" class="node"><title>Node5</title>
<g id="a_node5"><a xlink:href="QcInfoLogger_8h.html" target="_top" xlink:title="QualityControl/QcInfoLogger.h">
<polygon fill="none" stroke="black" points="305,-235.5 305,-254.5 454,-254.5 454,-235.5 305,-235.5"/>
<text text-anchor="middle" x="379.5" y="-242.5" font-family="Helvetica,sans-Serif" font-size="10.00">QualityControl/QcInfoLogger.h</text>
</a>
</g>
</g>
<!-- Node1&#45;&gt;Node5 -->
<g id="edge4" class="edge"><title>Node1&#45;&gt;Node5</title>
<path fill="none" stroke="midnightblue" d="M255.129,-291.399C282.844,-281.283 319.805,-267.791 346.217,-258.149"/>
<polygon fill="midnightblue" stroke="midnightblue" points="347.589,-261.375 355.782,-254.658 345.188,-254.799 347.589,-261.375"/>
</g>
<!-- Node7 -->
<g id="node7" class="node"><title>Node7</title>
<g id="a_node7"><a xlink:href="BasicDigitQcTask_8h.html" target="_top" xlink:title="MFT/BasicDigitQcTask.h">
<polygon fill="none" stroke="black" points="472.5,-235.5 472.5,-254.5 600.5,-254.5 600.5,-235.5 472.5,-235.5"/>
<text text-anchor="middle" x="536.5" y="-242.5" font-family="Helvetica,sans-Serif" font-size="10.00">MFT/BasicDigitQcTask.h</text>
</a>
</g>
</g>
<!-- Node1&#45;&gt;Node7 -->
<g id="edge6" class="edge"><title>Node1&#45;&gt;Node7</title>
<path fill="none" stroke="midnightblue" d="M287.122,-292.369C345.393,-281.534 426.952,-266.369 480.718,-256.372"/>
<polygon fill="midnightblue" stroke="midnightblue" points="481.562,-259.775 490.753,-254.506 480.282,-252.893 481.562,-259.775"/>
</g>
<!-- Node6 -->
<g id="node6" class="node"><title>Node6</title>
<polygon fill="none" stroke="#bfbfbf" points="313.5,-179.5 313.5,-198.5 443.5,-198.5 443.5,-179.5 313.5,-179.5"/>
<text text-anchor="middle" x="378.5" y="-186.5" font-family="Helvetica,sans-Serif" font-size="10.00">InfoLogger/InfoLogger.hxx</text>
</g>
<!-- Node5&#45;&gt;Node6 -->
<g id="edge5" class="edge"><title>Node5&#45;&gt;Node6</title>
<path fill="none" stroke="midnightblue" d="M379.335,-235.083C379.204,-228.006 379.016,-217.861 378.852,-208.986"/>
<polygon fill="midnightblue" stroke="midnightblue" points="382.347,-208.685 378.662,-198.751 375.348,-208.814 382.347,-208.685"/>
</g>
<!-- Node8 -->
<g id="node8" class="node"><title>Node8</title>
<polygon fill="none" stroke="#bfbfbf" points="629.5,-179.5 629.5,-198.5 679.5,-198.5 679.5,-179.5 629.5,-179.5"/>
<text text-anchor="middle" x="654.5" y="-186.5" font-family="Helvetica,sans-Serif" font-size="10.00">TH1F.h</text>
</g>
<!-- Node7&#45;&gt;Node8 -->
<g id="edge7" class="edge"><title>Node7&#45;&gt;Node8</title>
<path fill="none" stroke="midnightblue" d="M555.197,-235.444C574.444,-226.636 604.652,-212.812 626.7,-202.722"/>
<polygon fill="midnightblue" stroke="midnightblue" points="628.253,-205.86 635.89,-198.516 625.34,-199.495 628.253,-205.86"/>
</g>
<!-- Node9 -->
<g id="node9" class="node"><title>Node9</title>
<g id="a_node9"><a xlink:href="TaskInterface_8h.html" target="_top" xlink:title="QualityControl/TaskInterface.h">
<polygon fill="none" stroke="black" points="461.5,-179.5 461.5,-198.5 611.5,-198.5 611.5,-179.5 461.5,-179.5"/>
<text text-anchor="middle" x="536.5" y="-186.5" font-family="Helvetica,sans-Serif" font-size="10.00">QualityControl/TaskInterface.h</text>
</a>
</g>
</g>
<!-- Node7&#45;&gt;Node9 -->
<g id="edge8" class="edge"><title>Node7&#45;&gt;Node9</title>
<path fill="none" stroke="midnightblue" d="M536.5,-235.083C536.5,-228.006 536.5,-217.861 536.5,-208.986"/>
<polygon fill="midnightblue" stroke="midnightblue" points="540,-208.751 536.5,-198.751 533,-208.751 540,-208.751"/>
</g>
<!-- Node10 -->
<g id="node10" class="node"><title>Node10</title>
<polygon fill="none" stroke="#bfbfbf" points="561,-0.5 561,-19.5 596,-19.5 596,-0.5 561,-0.5"/>
<text text-anchor="middle" x="578.5" y="-7.5" font-family="Helvetica,sans-Serif" font-size="10.00">map</text>
</g>
<!-- Node9&#45;&gt;Node10 -->
<g id="edge9" class="edge"><title>Node9&#45;&gt;Node10</title>
<path fill="none" stroke="midnightblue" d="M493.433,-179.486C473.104,-173.074 450.677,-161.991 438.5,-143 417.629,-110.45 415.723,-87.246 438.5,-56 464.037,-20.9681 517.292,-12.611 550.259,-10.9548"/>
<polygon fill="midnightblue" stroke="midnightblue" points="550.71,-14.4422 560.592,-10.6212 550.484,-7.4458 550.71,-14.4422"/>
</g>
<!-- Node11 -->
<g id="node11" class="node"><title>Node11</title>
<polygon fill="none" stroke="#bfbfbf" points="491.5,-62 491.5,-81 543.5,-81 543.5,-62 491.5,-62"/>
<text text-anchor="middle" x="517.5" y="-69" font-family="Helvetica,sans-Serif" font-size="10.00">memory</text>
</g>
<!-- Node9&#45;&gt;Node11 -->
<g id="edge10" class="edge"><title>Node9&#45;&gt;Node11</title>
<path fill="none" stroke="midnightblue" d="M529.349,-179.364C522.727,-170.763 513.343,-156.873 509.5,-143 504.731,-125.783 507.933,-105.447 511.605,-91.0511"/>
<polygon fill="midnightblue" stroke="midnightblue" points="514.995,-91.9279 514.381,-81.3508 508.265,-90.0022 514.995,-91.9279"/>
</g>
<!-- Node12 -->
<g id="node12" class="node"><title>Node12</title>
<polygon fill="none" stroke="#bfbfbf" points="646,-0.5 646,-19.5 687,-19.5 687,-0.5 646,-0.5"/>
<text text-anchor="middle" x="666.5" y="-7.5" font-family="Helvetica,sans-Serif" font-size="10.00">string</text>
</g>
<!-- Node9&#45;&gt;Node12 -->
<g id="edge11" class="edge"><title>Node9&#45;&gt;Node12</title>
<path fill="none" stroke="midnightblue" d="M527.521,-179.452C505.164,-157.146 451.008,-96.1226 482.5,-56 492.002,-43.8943 585.983,-25.4328 635.822,-16.3824"/>
<polygon fill="midnightblue" stroke="midnightblue" points="636.517,-19.8136 645.74,-14.5997 635.279,-12.924 636.517,-19.8136"/>
</g>
<!-- Node13 -->
<g id="node13" class="node"><title>Node13</title>
<polygon fill="none" stroke="#bfbfbf" points="396,-0.5 396,-19.5 479,-19.5 479,-0.5 396,-0.5"/>
<text text-anchor="middle" x="437.5" y="-7.5" font-family="Helvetica,sans-Serif" font-size="10.00">unordered_map</text>
</g>
<!-- Node9&#45;&gt;Node13 -->
<g id="edge12" class="edge"><title>Node9&#45;&gt;Node13</title>
<path fill="none" stroke="midnightblue" d="M483.761,-179.473C461.908,-173.143 438.451,-162.133 424.5,-143 399.718,-109.013 416.92,-56.3226 428.81,-28.9237"/>
<polygon fill="midnightblue" stroke="midnightblue" points="432.028,-30.3022 433.008,-19.7528 425.663,-27.3886 432.028,-30.3022"/>
</g>
<!-- Node14 -->
<g id="node14" class="node"><title>Node14</title>
<polygon fill="none" stroke="#bfbfbf" points="519,-123.5 519,-142.5 644,-142.5 644,-123.5 519,-123.5"/>
<text text-anchor="middle" x="581.5" y="-130.5" font-family="Helvetica,sans-Serif" font-size="10.00">Framework/InitContext.h</text>
</g>
<!-- Node9&#45;&gt;Node14 -->
<g id="edge13" class="edge"><title>Node9&#45;&gt;Node14</title>
<path fill="none" stroke="midnightblue" d="M543.931,-179.083C550.353,-171.377 559.806,-160.033 567.622,-150.653"/>
<polygon fill="midnightblue" stroke="midnightblue" points="570.494,-152.674 574.207,-142.751 565.117,-148.193 570.494,-152.674"/>
</g>
<!-- Node15 -->
<g id="node15" class="node"><title>Node15</title>
<polygon fill="none" stroke="#bfbfbf" points="662.5,-123.5 662.5,-142.5 822.5,-142.5 822.5,-123.5 662.5,-123.5"/>
<text text-anchor="middle" x="742.5" y="-130.5" font-family="Helvetica,sans-Serif" font-size="10.00">Framework/ProcessingContext.h</text>
</g>
<!-- Node9&#45;&gt;Node15 -->
<g id="edge14" class="edge"><title>Node9&#45;&gt;Node15</title>
<path fill="none" stroke="midnightblue" d="M569.141,-179.444C604.55,-170.162 661.209,-155.309 700.053,-145.127"/>
<polygon fill="midnightblue" stroke="midnightblue" points="701.226,-148.438 710.011,-142.516 699.451,-141.667 701.226,-148.438"/>
</g>
<!-- Node16 -->
<g id="node16" class="node"><title>Node16</title>
<g id="a_node16"><a xlink:href="Activity_8h.html" target="_top" xlink:title="QualityControl/Activity.h">
<polygon fill="none" stroke="black" points="841,-123.5 841,-142.5 964,-142.5 964,-123.5 841,-123.5"/>
<text text-anchor="middle" x="902.5" y="-130.5" font-family="Helvetica,sans-Serif" font-size="10.00">QualityControl/Activity.h</text>
</a>
</g>
</g>
<!-- Node9&#45;&gt;Node16 -->
<g id="edge15" class="edge"><title>Node9&#45;&gt;Node16</title>
<path fill="none" stroke="midnightblue" d="M594.494,-179.444C659.814,-169.806 765.837,-154.163 834.87,-143.978"/>
<polygon fill="midnightblue" stroke="midnightblue" points="835.396,-147.439 844.778,-142.516 834.374,-140.514 835.396,-147.439"/>
</g>
<!-- Node17 -->
<g id="node17" class="node"><title>Node17</title>
<g id="a_node17"><a xlink:href="ObjectsManager_8h.html" target="_top" xlink:title="QualityControl/ObjectsManager.h">
<polygon fill="none" stroke="black" points="982,-123.5 982,-142.5 1143,-142.5 1143,-123.5 982,-123.5"/>
<text text-anchor="middle" x="1062.5" y="-130.5" font-family="Helvetica,sans-Serif" font-size="10.00">QualityControl/ObjectsManager.h</text>
</a>
</g>
</g>
<!-- Node9&#45;&gt;Node17 -->
<g id="edge16" class="edge"><title>Node9&#45;&gt;Node17</title>
<path fill="none" stroke="midnightblue" d="M611.604,-179.933C614.608,-179.617 617.583,-179.305 620.5,-179 686.338,-172.122 862.586,-154.238 971.593,-143.198"/>
<polygon fill="midnightblue" stroke="midnightblue" points="972.003,-146.675 981.6,-142.185 971.298,-139.71 972.003,-146.675"/>
</g>
<!-- Node17&#45;&gt;Node11 -->
<g id="edge30" class="edge"><title>Node17&#45;&gt;Node11</title>
<path fill="none" stroke="midnightblue" d="M981.975,-123.805C979.115,-123.531 976.283,-123.261 973.5,-123 789.174,-105.686 739.444,-126.178 558.5,-87 555.076,-86.2586 551.545,-85.3094 548.06,-84.2523"/>
<polygon fill="midnightblue" stroke="midnightblue" points="549.077,-80.902 538.483,-81.0698 546.869,-87.5448 549.077,-80.902"/>
</g>
<!-- Node17&#45;&gt;Node12 -->
<g id="edge29" class="edge"><title>Node17&#45;&gt;Node12</title>
<path fill="none" stroke="midnightblue" d="M989.637,-123.471C905.644,-113.301 776.408,-96.4916 755.5,-87 747.225,-83.2434 707.049,-47.6194 683.601,-26.5039"/>
<polygon fill="midnightblue" stroke="midnightblue" points="685.853,-23.8209 676.085,-19.7162 681.161,-29.016 685.853,-23.8209"/>
</g>
<!-- Node18 -->
<g id="node18" class="node"><title>Node18</title>
<g id="a_node18"><a xlink:href="MonitorObject_8h.html" target="_top" xlink:title="QualityControl/MonitorObject.h">
<polygon fill="none" stroke="black" points="764,-62 764,-81 915,-81 915,-62 764,-62"/>
<text text-anchor="middle" x="839.5" y="-69" font-family="Helvetica,sans-Serif" font-size="10.00">QualityControl/MonitorObject.h</text>
</a>
</g>
</g>
<!-- Node17&#45;&gt;Node18 -->
<g id="edge17" class="edge"><title>Node17&#45;&gt;Node18</title>
<path fill="none" stroke="midnightblue" d="M1030.55,-123.475C991.304,-113.004 924.622,-95.2118 881.327,-83.6601"/>
<polygon fill="midnightblue" stroke="midnightblue" points="881.956,-80.2054 871.391,-81.0091 880.151,-86.9688 881.956,-80.2054"/>
</g>
<!-- Node22 -->
<g id="node22" class="node"><title>Node22</title>
<g id="a_node22"><a xlink:href="MonitorObjectCollection_8h.html" target="_top" xlink:title="QualityControl/MonitorObject\lCollection.h">
<polygon fill="none" stroke="black" points="991,-56.5 991,-86.5 1134,-86.5 1134,-56.5 991,-56.5"/>
<text text-anchor="start" x="999" y="-74.5" font-family="Helvetica,sans-Serif" font-size="10.00">QualityControl/MonitorObject</text>
<text text-anchor="middle" x="1062.5" y="-63.5" font-family="Helvetica,sans-Serif" font-size="10.00">Collection.h</text>
</a>
</g>
</g>
<!-- Node17&#45;&gt;Node22 -->
<g id="edge23" class="edge"><title>Node17&#45;&gt;Node22</title>
<path fill="none" stroke="midnightblue" d="M1062.5,-123.475C1062.5,-116.471 1062.5,-106.192 1062.5,-96.6956"/>
<polygon fill="midnightblue" stroke="midnightblue" points="1066,-96.5229 1062.5,-86.523 1059,-96.523 1066,-96.5229"/>
</g>
<!-- Node25 -->
<g id="node25" class="node"><title>Node25</title>
<g id="a_node25"><a xlink:href="TaskConfig_8h.html" target="_top" xlink:title="QualityControl/TaskConfig.h">
<polygon fill="none" stroke="black" points="567.5,-62 567.5,-81 707.5,-81 707.5,-62 567.5,-62"/>
<text text-anchor="middle" x="637.5" y="-69" font-family="Helvetica,sans-Serif" font-size="10.00">QualityControl/TaskConfig.h</text>
</a>
</g>
</g>
<!-- Node17&#45;&gt;Node25 -->
<g id="edge26" class="edge"><title>Node17&#45;&gt;Node25</title>
<path fill="none" stroke="midnightblue" d="M991.523,-123.467C922.465,-114.969 814.627,-101.177 721.5,-87 712.89,-85.6893 703.799,-84.2149 694.904,-82.7213"/>
<polygon fill="midnightblue" stroke="midnightblue" points="695.425,-79.2598 684.98,-81.0346 694.252,-86.1608 695.425,-79.2598"/>
</g>
<!-- Node18&#45;&gt;Node10 -->
<g id="edge19" class="edge"><title>Node18&#45;&gt;Node10</title>
<path fill="none" stroke="midnightblue" d="M802.105,-61.9751C749.032,-49.8761 653.091,-28.0045 606.034,-17.277"/>
<polygon fill="midnightblue" stroke="midnightblue" points="606.764,-13.8536 596.236,-15.0433 605.208,-20.6785 606.764,-13.8536"/>
</g>
<!-- Node18&#45;&gt;Node12 -->
<g id="edge18" class="edge"><title>Node18&#45;&gt;Node12</title>
<path fill="none" stroke="midnightblue" d="M814.713,-61.9751C783.639,-51.2877 730.394,-32.975 696.895,-21.4536"/>
<polygon fill="midnightblue" stroke="midnightblue" points="697.773,-18.0547 687.179,-18.112 695.497,-24.6741 697.773,-18.0547"/>
</g>
<!-- Node19 -->
<g id="node19" class="node"><title>Node19</title>
<polygon fill="none" stroke="#bfbfbf" points="735.5,-0.5 735.5,-19.5 791.5,-19.5 791.5,-0.5 735.5,-0.5"/>
<text text-anchor="middle" x="763.5" y="-7.5" font-family="Helvetica,sans-Serif" font-size="10.00">Rtypes.h</text>
</g>
<!-- Node18&#45;&gt;Node19 -->
<g id="edge20" class="edge"><title>Node18&#45;&gt;Node19</title>
<path fill="none" stroke="midnightblue" d="M828.611,-61.9751C816.534,-52.5199 796.833,-37.0961 782.26,-25.6871"/>
<polygon fill="midnightblue" stroke="midnightblue" points="784.4,-22.9177 774.369,-19.5091 780.085,-28.4295 784.4,-22.9177"/>
</g>
<!-- Node20 -->
<g id="node20" class="node"><title>Node20</title>
<polygon fill="none" stroke="#bfbfbf" points="810,-0.5 810,-19.5 869,-19.5 869,-0.5 810,-0.5"/>
<text text-anchor="middle" x="839.5" y="-7.5" font-family="Helvetica,sans-Serif" font-size="10.00">TObject.h</text>
</g>
<!-- Node18&#45;&gt;Node20 -->
<g id="edge21" class="edge"><title>Node18&#45;&gt;Node20</title>
<path fill="none" stroke="midnightblue" d="M839.5,-61.9751C839.5,-53.5803 839.5,-40.4806 839.5,-29.6631"/>
<polygon fill="midnightblue" stroke="midnightblue" points="843,-29.5091 839.5,-19.5091 836,-29.5091 843,-29.5091"/>
</g>
<!-- Node21 -->
<g id="node21" class="node"><title>Node21</title>
<polygon fill="none" stroke="#bfbfbf" points="887.5,-0.5 887.5,-19.5 1003.5,-19.5 1003.5,-0.5 887.5,-0.5"/>
<text text-anchor="middle" x="945.5" y="-7.5" font-family="Helvetica,sans-Serif" font-size="10.00">Common/Exceptions.h</text>
</g>
<!-- Node18&#45;&gt;Node21 -->
<g id="edge22" class="edge"><title>Node18&#45;&gt;Node21</title>
<path fill="none" stroke="midnightblue" d="M854.687,-61.9751C872.162,-52.1664 901.079,-35.9346 921.583,-24.425"/>
<polygon fill="midnightblue" stroke="midnightblue" points="923.334,-27.456 930.341,-19.5091 919.908,-21.3519 923.334,-27.456"/>
</g>
<!-- Node23 -->
<g id="node23" class="node"><title>Node23</title>
<polygon fill="none" stroke="#bfbfbf" points="1025,-0.5 1025,-19.5 1094,-19.5 1094,-0.5 1025,-0.5"/>
<text text-anchor="middle" x="1059.5" y="-7.5" font-family="Helvetica,sans-Serif" font-size="10.00">TObjArray.h</text>
</g>
<!-- Node22&#45;&gt;Node23 -->
<g id="edge24" class="edge"><title>Node22&#45;&gt;Node23</title>
<path fill="none" stroke="midnightblue" d="M1061.79,-56.3993C1061.39,-48.4664 1060.88,-38.458 1060.45,-29.8583"/>
<polygon fill="midnightblue" stroke="midnightblue" points="1063.94,-29.4688 1059.94,-19.6578 1056.94,-29.8214 1063.94,-29.4688"/>
</g>
<!-- Node24 -->
<g id="node24" class="node"><title>Node24</title>
<polygon fill="none" stroke="#bfbfbf" points="1112.5,-0.5 1112.5,-19.5 1240.5,-19.5 1240.5,-0.5 1112.5,-0.5"/>
<text text-anchor="middle" x="1176.5" y="-7.5" font-family="Helvetica,sans-Serif" font-size="10.00">Mergers/MergeInterface.h</text>
</g>
<!-- Node22&#45;&gt;Node24 -->
<g id="edge25" class="edge"><title>Node22&#45;&gt;Node24</title>
<path fill="none" stroke="midnightblue" d="M1089.52,-56.3993C1108.13,-46.6837 1132.71,-33.8551 1150.99,-24.3137"/>
<polygon fill="midnightblue" stroke="midnightblue" points="1152.67,-27.3876 1159.91,-19.6578 1149.43,-21.182 1152.67,-27.3876"/>
</g>
<!-- Node25&#45;&gt;Node12 -->
<g id="edge27" class="edge"><title>Node25&#45;&gt;Node12</title>
<path fill="none" stroke="midnightblue" d="M641.655,-61.9751C645.876,-53.3152 652.537,-39.6486 657.9,-28.6453"/>
<polygon fill="midnightblue" stroke="midnightblue" points="661.118,-30.0317 662.353,-19.5091 654.825,-26.9648 661.118,-30.0317"/>
</g>
<!-- Node25&#45;&gt;Node13 -->
<g id="edge28" class="edge"><title>Node25&#45;&gt;Node13</title>
<path fill="none" stroke="midnightblue" d="M608.845,-61.9751C573.944,-51.592 514.85,-34.0116 476,-22.4538"/>
<polygon fill="midnightblue" stroke="midnightblue" points="476.685,-19.0059 466.102,-19.5091 474.689,-25.7153 476.685,-19.0059"/>
</g>
</g>
</svg>
