<?xml version="1.0" encoding="UTF-8" standalone="no"?>
<!DOCTYPE svg PUBLIC "-//W3C//DTD SVG 1.1//EN"
 "http://www.w3.org/Graphics/SVG/1.1/DTD/svg11.dtd">
<!-- Generated by graphviz version 2.38.0 (20140413.2041)
 -->
<!-- Title: Modules/MFT/src/BasicClusterQcTask.cxx Pages: 1 -->
<!--zoomable 330 -->
<svg id="main" version="1.1" xmlns="http://www.w3.org/2000/svg" xmlns:xlink="http://www.w3.org/1999/xlink" xml:space="preserve" onload="init(evt)">
<style type="text/css"><![CDATA[
.edge:hover path { stroke: red; }
.edge:hover polygon { stroke: red; fill: red; }
]]></style>
<script type="text/javascript"><![CDATA[
var edges = document.getElementsByTagName('g');
if (edges && edges.length) {
  for (var i=0;i<edges.length;i++) {
    if (edges[i].id.substr(0,4)=='edge') {
      edges[i].setAttribute('class','edge');
    }
  }
}
]]></script>
        <defs>
                <circle id="rim" cx="0" cy="0" r="7"/>
                <circle id="rim2" cx="0" cy="0" r="3.5"/>
                <g id="zoomPlus">
                        <use xlink:href="#rim" fill="#404040">
                                <set attributeName="fill" to="#808080" begin="zoomplus.mouseover" end="zoomplus.mouseout"/>
                        </use>
                        <path d="M-4,0h8M0,-4v8" fill="none" stroke="white" stroke-width="1.5" pointer-events="none"/>
                </g>
                <g id="zoomMin">
                        <use xlink:href="#rim" fill="#404040">
                                <set attributeName="fill" to="#808080" begin="zoomminus.mouseover" end="zoomminus.mouseout"/>
                        </use>
                        <path d="M-4,0h8" fill="none" stroke="white" stroke-width="1.5" pointer-events="none"/>
                </g>
                <g id="dirArrow">
                        <path fill="none" stroke="white" stroke-width="1.5" d="M0,-3.0v7 M-2.5,-0.5L0,-3.0L2.5,-0.5"/>
                </g>
               <g id="resetDef">
                       <use xlink:href="#rim2" fill="#404040">
                               <set attributeName="fill" to="#808080" begin="reset.mouseover" end="reset.mouseout"/>
                       </use>
               </g>
        </defs>

<script type="text/javascript">
var viewWidth = 1263;
var viewHeight = 330;
var sectionId = 'dynsection-0';
</script>
<script xlink:href="svgpan.js"/>
<svg id="graph" class="graph">
<g id="viewport">
<title>Modules/MFT/src/BasicClusterQcTask.cxx</title>
<!-- Node1 -->
<g id="node1" class="node"><title>Node1</title>
<polygon fill="#bfbfbf" stroke="black" points="145.5,-291.5 145.5,-321.5 297.5,-321.5 297.5,-291.5 145.5,-291.5"/>
<text text-anchor="start" x="153.5" y="-309.5" font-family="Helvetica,sans-Serif" font-size="10.00">Modules/MFT/src/BasicCluster</text>
<text text-anchor="middle" x="221.5" y="-298.5" font-family="Helvetica,sans-Serif" font-size="10.00">QcTask.cxx</text>
</g>
<!-- Node2 -->
<g id="node2" class="node"><title>Node2</title>
<polygon fill="none" stroke="#bfbfbf" points="0,-235.5 0,-254.5 65,-254.5 65,-235.5 0,-235.5"/>
<text text-anchor="middle" x="32.5" y="-242.5" font-family="Helvetica,sans-Serif" font-size="10.00">TCanvas.h</text>
</g>
<!-- Node1&#45;&gt;Node2 -->
<g id="edge1" class="edge"><title>Node1&#45;&gt;Node2</title>
<path fill="none" stroke="midnightblue" d="M176.71,-291.399C144.051,-281.118 100.32,-267.351 69.607,-257.682"/>
<polygon fill="midnightblue" stroke="midnightblue" points="70.3148,-254.235 59.7253,-254.571 68.2128,-260.912 70.3148,-254.235"/>
</g>
<!-- Node3 -->
<g id="node3" class="node"><title>Node3</title>
<polygon fill="none" stroke="#bfbfbf" points="83.5,-235.5 83.5,-254.5 127.5,-254.5 127.5,-235.5 83.5,-235.5"/>
<text text-anchor="middle" x="105.5" y="-242.5" font-family="Helvetica,sans-Serif" font-size="10.00">TH1.h</text>
</g>
<!-- Node1&#45;&gt;Node3 -->
<g id="edge2" class="edge"><title>Node1&#45;&gt;Node3</title>
<path fill="none" stroke="midnightblue" d="M194.01,-291.399C175.068,-281.684 150.058,-268.855 131.456,-259.314"/>
<polygon fill="midnightblue" stroke="midnightblue" points="132.874,-256.108 122.379,-254.658 129.679,-262.336 132.874,-256.108"/>
</g>
<!-- Node4 -->
<g id="node4" class="node"><title>Node4</title>
<polygon fill="none" stroke="#bfbfbf" points="145.5,-235.5 145.5,-254.5 297.5,-254.5 297.5,-235.5 145.5,-235.5"/>
<text text-anchor="middle" x="221.5" y="-242.5" font-family="Helvetica,sans-Serif" font-size="10.00">DataFormatsITSMFT/Cluster.h</text>
</g>
<!-- Node1&#45;&gt;Node4 -->
<g id="edge3" class="edge"><title>Node1&#45;&gt;Node4</title>
<path fill="none" stroke="midnightblue" d="M221.5,-291.399C221.5,-283.466 221.5,-273.458 221.5,-264.858"/>
<polygon fill="midnightblue" stroke="midnightblue" points="225,-264.658 221.5,-254.658 218,-264.658 225,-264.658"/>
</g>
<!-- Node5 -->
<g id="node5" class="node"><title>Node5</title>
<g id="a_node5"><a xlink:href="QcInfoLogger_8h.html" target="_top" xlink:title="QualityControl/QcInfoLogger.h">
<polygon fill="none" stroke="black" points="316,-235.5 316,-254.5 465,-254.5 465,-235.5 316,-235.5"/>
<text text-anchor="middle" x="390.5" y="-242.5" font-family="Helvetica,sans-Serif" font-size="10.00">QualityControl/QcInfoLogger.h</text>
</a>
</g>
</g>
<!-- Node1&#45;&gt;Node5 -->
<g id="edge4" class="edge"><title>Node1&#45;&gt;Node5</title>
<path fill="none" stroke="midnightblue" d="M261.551,-291.399C290.412,-281.238 328.945,-267.672 356.353,-258.022"/>
<polygon fill="midnightblue" stroke="midnightblue" points="357.639,-261.28 365.909,-254.658 355.314,-254.677 357.639,-261.28"/>
</g>
<!-- Node7 -->
<g id="node7" class="node"><title>Node7</title>
<g id="a_node7"><a xlink:href="BasicClusterQcTask_8h.html" target="_top" xlink:title="MFT/BasicClusterQcTask.h">
<polygon fill="none" stroke="black" points="483,-235.5 483,-254.5 622,-254.5 622,-235.5 483,-235.5"/>
<text text-anchor="middle" x="552.5" y="-242.5" font-family="Helvetica,sans-Serif" font-size="10.00">MFT/BasicClusterQcTask.h</text>
</a>
</g>
</g>
<!-- Node1&#45;&gt;Node7 -->
<g id="edge6" class="edge"><title>Node1&#45;&gt;Node7</title>
<path fill="none" stroke="midnightblue" d="M297.854,-291.775C358.065,-280.951 440.715,-266.094 495.317,-256.279"/>
<polygon fill="midnightblue" stroke="midnightblue" points="495.951,-259.721 505.174,-254.507 494.713,-252.832 495.951,-259.721"/>
</g>
<!-- Node6 -->
<g id="node6" class="node"><title>Node6</title>
<polygon fill="none" stroke="#bfbfbf" points="325.5,-179.5 325.5,-198.5 455.5,-198.5 455.5,-179.5 325.5,-179.5"/>
<text text-anchor="middle" x="390.5" y="-186.5" font-family="Helvetica,sans-Serif" font-size="10.00">InfoLogger/InfoLogger.hxx</text>
</g>
<!-- Node5&#45;&gt;Node6 -->
<g id="edge5" class="edge"><title>Node5&#45;&gt;Node6</title>
<path fill="none" stroke="midnightblue" d="M390.5,-235.083C390.5,-228.006 390.5,-217.861 390.5,-208.986"/>
<polygon fill="midnightblue" stroke="midnightblue" points="394,-208.751 390.5,-198.751 387,-208.751 394,-208.751"/>
</g>
<!-- Node8 -->
<g id="node8" class="node"><title>Node8</title>
<polygon fill="none" stroke="#bfbfbf" points="643.5,-179.5 643.5,-198.5 693.5,-198.5 693.5,-179.5 643.5,-179.5"/>
<text text-anchor="middle" x="668.5" y="-186.5" font-family="Helvetica,sans-Serif" font-size="10.00">TH1F.h</text>
</g>
<!-- Node7&#45;&gt;Node8 -->
<g id="edge7" class="edge"><title>Node7&#45;&gt;Node8</title>
<path fill="none" stroke="midnightblue" d="M570.881,-235.444C589.716,-226.675 619.231,-212.935 640.879,-202.858"/>
<polygon fill="midnightblue" stroke="midnightblue" points="642.617,-205.91 650.205,-198.516 639.662,-199.564 642.617,-205.91"/>
</g>
<!-- Node9 -->
<g id="node9" class="node"><title>Node9</title>
<g id="a_node9"><a xlink:href="TaskInterface_8h.html" target="_top" xlink:title="QualityControl/TaskInterface.h">
<polygon fill="none" stroke="black" points="475.5,-179.5 475.5,-198.5 625.5,-198.5 625.5,-179.5 475.5,-179.5"/>
<text text-anchor="middle" x="550.5" y="-186.5" font-family="Helvetica,sans-Serif" font-size="10.00">QualityControl/TaskInterface.h</text>
</a>
</g>
</g>
<!-- Node7&#45;&gt;Node9 -->
<g id="edge8" class="edge"><title>Node7&#45;&gt;Node9</title>
<path fill="none" stroke="midnightblue" d="M552.17,-235.083C551.908,-228.006 551.532,-217.861 551.203,-208.986"/>
<polygon fill="midnightblue" stroke="midnightblue" points="554.692,-208.615 550.824,-198.751 547.697,-208.874 554.692,-208.615"/>
</g>
<!-- Node10 -->
<g id="node10" class="node"><title>Node10</title>
<polygon fill="none" stroke="#bfbfbf" points="575,-0.5 575,-19.5 610,-19.5 610,-0.5 575,-0.5"/>
<text text-anchor="middle" x="592.5" y="-7.5" font-family="Helvetica,sans-Serif" font-size="10.00">map</text>
</g>
<!-- Node9&#45;&gt;Node10 -->
<g id="edge9" class="edge"><title>Node9&#45;&gt;Node10</title>
<path fill="none" stroke="midnightblue" d="M507.433,-179.486C487.104,-173.074 464.677,-161.991 452.5,-143 431.629,-110.45 429.723,-87.246 452.5,-56 478.037,-20.9681 531.292,-12.611 564.259,-10.9548"/>
<polygon fill="midnightblue" stroke="midnightblue" points="564.71,-14.4422 574.592,-10.6212 564.484,-7.4458 564.71,-14.4422"/>
</g>
<!-- Node11 -->
<g id="node11" class="node"><title>Node11</title>
<polygon fill="none" stroke="#bfbfbf" points="505.5,-62 505.5,-81 557.5,-81 557.5,-62 505.5,-62"/>
<text text-anchor="middle" x="531.5" y="-69" font-family="Helvetica,sans-Serif" font-size="10.00">memory</text>
</g>
<!-- Node9&#45;&gt;Node11 -->
<g id="edge10" class="edge"><title>Node9&#45;&gt;Node11</title>
<path fill="none" stroke="midnightblue" d="M543.349,-179.364C536.727,-170.763 527.343,-156.873 523.5,-143 518.731,-125.783 521.933,-105.447 525.605,-91.0511"/>
<polygon fill="midnightblue" stroke="midnightblue" points="528.995,-91.9279 528.381,-81.3508 522.265,-90.0022 528.995,-91.9279"/>
</g>
<!-- Node12 -->
<g id="node12" class="node"><title>Node12</title>
<polygon fill="none" stroke="#bfbfbf" points="660,-0.5 660,-19.5 701,-19.5 701,-0.5 660,-0.5"/>
<text text-anchor="middle" x="680.5" y="-7.5" font-family="Helvetica,sans-Serif" font-size="10.00">string</text>
</g>
<!-- Node9&#45;&gt;Node12 -->
<g id="edge11" class="edge"><title>Node9&#45;&gt;Node12</title>
<path fill="none" stroke="midnightblue" d="M541.521,-179.452C519.164,-157.146 465.008,-96.1226 496.5,-56 506.002,-43.8943 599.983,-25.4328 649.822,-16.3824"/>
<polygon fill="midnightblue" stroke="midnightblue" points="650.517,-19.8136 659.74,-14.5997 649.279,-12.924 650.517,-19.8136"/>
</g>
<!-- Node13 -->
<g id="node13" class="node"><title>Node13</title>
<polygon fill="none" stroke="#bfbfbf" points="410,-0.5 410,-19.5 493,-19.5 493,-0.5 410,-0.5"/>
<text text-anchor="middle" x="451.5" y="-7.5" font-family="Helvetica,sans-Serif" font-size="10.00">unordered_map</text>
</g>
<!-- Node9&#45;&gt;Node13 -->
<g id="edge12" class="edge"><title>Node9&#45;&gt;Node13</title>
<path fill="none" stroke="midnightblue" d="M497.761,-179.473C475.908,-173.143 452.451,-162.133 438.5,-143 413.718,-109.013 430.92,-56.3226 442.81,-28.9237"/>
<polygon fill="midnightblue" stroke="midnightblue" points="446.028,-30.3022 447.008,-19.7528 439.663,-27.3886 446.028,-30.3022"/>
</g>
<!-- Node14 -->
<g id="node14" class="node"><title>Node14</title>
<polygon fill="none" stroke="#bfbfbf" points="533,-123.5 533,-142.5 658,-142.5 658,-123.5 533,-123.5"/>
<text text-anchor="middle" x="595.5" y="-130.5" font-family="Helvetica,sans-Serif" font-size="10.00">Framework/InitContext.h</text>
</g>
<!-- Node9&#45;&gt;Node14 -->
<g id="edge13" class="edge"><title>Node9&#45;&gt;Node14</title>
<path fill="none" stroke="midnightblue" d="M557.931,-179.083C564.353,-171.377 573.806,-160.033 581.622,-150.653"/>
<polygon fill="midnightblue" stroke="midnightblue" points="584.494,-152.674 588.207,-142.751 579.117,-148.193 584.494,-152.674"/>
</g>
<!-- Node15 -->
<g id="node15" class="node"><title>Node15</title>
<polygon fill="none" stroke="#bfbfbf" points="676.5,-123.5 676.5,-142.5 836.5,-142.5 836.5,-123.5 676.5,-123.5"/>
<text text-anchor="middle" x="756.5" y="-130.5" font-family="Helvetica,sans-Serif" font-size="10.00">Framework/ProcessingContext.h</text>
</g>
<!-- Node9&#45;&gt;Node15 -->
<g id="edge14" class="edge"><title>Node9&#45;&gt;Node15</title>
<path fill="none" stroke="midnightblue" d="M583.141,-179.444C618.55,-170.162 675.209,-155.309 714.053,-145.127"/>
<polygon fill="midnightblue" stroke="midnightblue" points="715.226,-148.438 724.011,-142.516 713.451,-141.667 715.226,-148.438"/>
</g>
<!-- Node16 -->
<g id="node16" class="node"><title>Node16</title>
<g id="a_node16"><a xlink:href="Activity_8h.html" target="_top" xlink:title="QualityControl/Activity.h">
<polygon fill="none" stroke="black" points="855,-123.5 855,-142.5 978,-142.5 978,-123.5 855,-123.5"/>
<text text-anchor="middle" x="916.5" y="-130.5" font-family="Helvetica,sans-Serif" font-size="10.00">QualityControl/Activity.h</text>
</a>
</g>
</g>
<!-- Node9&#45;&gt;Node16 -->
<g id="edge15" class="edge"><title>Node9&#45;&gt;Node16</title>
<path fill="none" stroke="midnightblue" d="M608.494,-179.444C673.814,-169.806 779.837,-154.163 848.87,-143.978"/>
<polygon fill="midnightblue" stroke="midnightblue" points="849.396,-147.439 858.778,-142.516 848.374,-140.514 849.396,-147.439"/>
</g>
<!-- Node17 -->
<g id="node17" class="node"><title>Node17</title>
<g id="a_node17"><a xlink:href="ObjectsManager_8h.html" target="_top" xlink:title="QualityControl/ObjectsManager.h">
<polygon fill="none" stroke="black" points="996,-123.5 996,-142.5 1157,-142.5 1157,-123.5 996,-123.5"/>
<text text-anchor="middle" x="1076.5" y="-130.5" font-family="Helvetica,sans-Serif" font-size="10.00">QualityControl/ObjectsManager.h</text>
</a>
</g>
</g>
<!-- Node9&#45;&gt;Node17 -->
<g id="edge16" class="edge"><title>Node9&#45;&gt;Node17</title>
<path fill="none" stroke="midnightblue" d="M625.604,-179.933C628.608,-179.617 631.583,-179.305 634.5,-179 700.338,-172.122 876.586,-154.238 985.593,-143.198"/>
<polygon fill="midnightblue" stroke="midnightblue" points="986.003,-146.675 995.6,-142.185 985.298,-139.71 986.003,-146.675"/>
</g>
<!-- Node17&#45;&gt;Node11 -->
<g id="edge30" class="edge"><title>Node17&#45;&gt;Node11</title>
<path fill="none" stroke="midnightblue" d="M995.975,-123.805C993.115,-123.531 990.283,-123.261 987.5,-123 803.174,-105.686 753.444,-126.178 572.5,-87 569.076,-86.2586 565.545,-85.3094 562.06,-84.2523"/>
<polygon fill="midnightblue" stroke="midnightblue" points="563.077,-80.902 552.483,-81.0698 560.869,-87.5448 563.077,-80.902"/>
</g>
<!-- Node17&#45;&gt;Node12 -->
<g id="edge29" class="edge"><title>Node17&#45;&gt;Node12</title>
<path fill="none" stroke="midnightblue" d="M1003.64,-123.471C919.644,-113.301 790.408,-96.4916 769.5,-87 761.225,-83.2434 721.049,-47.6194 697.601,-26.5039"/>
<polygon fill="midnightblue" stroke="midnightblue" points="699.853,-23.8209 690.085,-19.7162 695.161,-29.016 699.853,-23.8209"/>
</g>
<!-- Node18 -->
<g id="node18" class="node"><title>Node18</title>
<g id="a_node18"><a xlink:href="MonitorObject_8h.html" target="_top" xlink:title="QualityControl/MonitorObject.h">
<polygon fill="none" stroke="black" points="778,-62 778,-81 929,-81 929,-62 778,-62"/>
<text text-anchor="middle" x="853.5" y="-69" font-family="Helvetica,sans-Serif" font-size="10.00">QualityControl/MonitorObject.h</text>
</a>
</g>
</g>
<!-- Node17&#45;&gt;Node18 -->
<g id="edge17" class="edge"><title>Node17&#45;&gt;Node18</title>
<path fill="none" stroke="midnightblue" d="M1044.55,-123.475C1005.3,-113.004 938.622,-95.2118 895.327,-83.6601"/>
<polygon fill="midnightblue" stroke="midnightblue" points="895.956,-80.2054 885.391,-81.0091 894.151,-86.9688 895.956,-80.2054"/>
</g>
<!-- Node22 -->
<g id="node22" class="node"><title>Node22</title>
<g id="a_node22"><a xlink:href="MonitorObjectCollection_8h.html" target="_top" xlink:title="QualityControl/MonitorObject\lCollection.h">
<polygon fill="none" stroke="black" points="1005,-56.5 1005,-86.5 1148,-86.5 1148,-56.5 1005,-56.5"/>
<text text-anchor="start" x="1013" y="-74.5" font-family="Helvetica,sans-Serif" font-size="10.00">QualityControl/MonitorObject</text>
<text text-anchor="middle" x="1076.5" y="-63.5" font-family="Helvetica,sans-Serif" font-size="10.00">Collection.h</text>
</a>
</g>
</g>
<!-- Node17&#45;&gt;Node22 -->
<g id="edge23" class="edge"><title>Node17&#45;&gt;Node22</title>
<path fill="none" stroke="midnightblue" d="M1076.5,-123.475C1076.5,-116.471 1076.5,-106.192 1076.5,-96.6956"/>
<polygon fill="midnightblue" stroke="midnightblue" points="1080,-96.5229 1076.5,-86.523 1073,-96.523 1080,-96.5229"/>
</g>
<!-- Node25 -->
<g id="node25" class="node"><title>Node25</title>
<g id="a_node25"><a xlink:href="TaskConfig_8h.html" target="_top" xlink:title="QualityControl/TaskConfig.h">
<polygon fill="none" stroke="black" points="581.5,-62 581.5,-81 721.5,-81 721.5,-62 581.5,-62"/>
<text text-anchor="middle" x="651.5" y="-69" font-family="Helvetica,sans-Serif" font-size="10.00">QualityControl/TaskConfig.h</text>
</a>
</g>
</g>
<!-- Node17&#45;&gt;Node25 -->
<g id="edge26" class="edge"><title>Node17&#45;&gt;Node25</title>
<path fill="none" stroke="midnightblue" d="M1005.52,-123.467C936.465,-114.969 828.627,-101.177 735.5,-87 726.89,-85.6893 717.799,-84.2149 708.904,-82.7213"/>
<polygon fill="midnightblue" stroke="midnightblue" points="709.425,-79.2598 698.98,-81.0346 708.252,-86.1608 709.425,-79.2598"/>
</g>
<!-- Node18&#45;&gt;Node10 -->
<g id="edge19" class="edge"><title>Node18&#45;&gt;Node10</title>
<path fill="none" stroke="midnightblue" d="M816.105,-61.9751C763.032,-49.8761 667.091,-28.0045 620.034,-17.277"/>
<polygon fill="midnightblue" stroke="midnightblue" points="620.764,-13.8536 610.236,-15.0433 619.208,-20.6785 620.764,-13.8536"/>
</g>
<!-- Node18&#45;&gt;Node12 -->
<g id="edge18" class="edge"><title>Node18&#45;&gt;Node12</title>
<path fill="none" stroke="midnightblue" d="M828.713,-61.9751C797.639,-51.2877 744.394,-32.975 710.895,-21.4536"/>
<polygon fill="midnightblue" stroke="midnightblue" points="711.773,-18.0547 701.179,-18.112 709.497,-24.6741 711.773,-18.0547"/>
</g>
<!-- Node19 -->
<g id="node19" class="node"><title>Node19</title>
<polygon fill="none" stroke="#bfbfbf" points="749.5,-0.5 749.5,-19.5 805.5,-19.5 805.5,-0.5 749.5,-0.5"/>
<text text-anchor="middle" x="777.5" y="-7.5" font-family="Helvetica,sans-Serif" font-size="10.00">Rtypes.h</text>
</g>
<!-- Node18&#45;&gt;Node19 -->
<g id="edge20" class="edge"><title>Node18&#45;&gt;Node19</title>
<path fill="none" stroke="midnightblue" d="M842.611,-61.9751C830.534,-52.5199 810.833,-37.0961 796.26,-25.6871"/>
<polygon fill="midnightblue" stroke="midnightblue" points="798.4,-22.9177 788.369,-19.5091 794.085,-28.4295 798.4,-22.9177"/>
</g>
<!-- Node20 -->
<g id="node20" class="node"><title>Node20</title>
<polygon fill="none" stroke="#bfbfbf" points="824,-0.5 824,-19.5 883,-19.5 883,-0.5 824,-0.5"/>
<text text-anchor="middle" x="853.5" y="-7.5" font-family="Helvetica,sans-Serif" font-size="10.00">TObject.h</text>
</g>
<!-- Node18&#45;&gt;Node20 -->
<g id="edge21" class="edge"><title>Node18&#45;&gt;Node20</title>
<path fill="none" stroke="midnightblue" d="M853.5,-61.9751C853.5,-53.5803 853.5,-40.4806 853.5,-29.6631"/>
<polygon fill="midnightblue" stroke="midnightblue" points="857,-29.5091 853.5,-19.5091 850,-29.5091 857,-29.5091"/>
</g>
<!-- Node21 -->
<g id="node21" class="node"><title>Node21</title>
<polygon fill="none" stroke="#bfbfbf" points="901.5,-0.5 901.5,-19.5 1017.5,-19.5 1017.5,-0.5 901.5,-0.5"/>
<text text-anchor="middle" x="959.5" y="-7.5" font-family="Helvetica,sans-Serif" font-size="10.00">Common/Exceptions.h</text>
</g>
<!-- Node18&#45;&gt;Node21 -->
<g id="edge22" class="edge"><title>Node18&#45;&gt;Node21</title>
<path fill="none" stroke="midnightblue" d="M868.687,-61.9751C886.162,-52.1664 915.079,-35.9346 935.583,-24.425"/>
<polygon fill="midnightblue" stroke="midnightblue" points="937.334,-27.456 944.341,-19.5091 933.908,-21.3519 937.334,-27.456"/>
</g>
<!-- Node23 -->
<g id="node23" class="node"><title>Node23</title>
<polygon fill="none" stroke="#bfbfbf" points="1039,-0.5 1039,-19.5 1108,-19.5 1108,-0.5 1039,-0.5"/>
<text text-anchor="middle" x="1073.5" y="-7.5" font-family="Helvetica,sans-Serif" font-size="10.00">TObjArray.h</text>
</g>
<!-- Node22&#45;&gt;Node23 -->
<g id="edge24" class="edge"><title>Node22&#45;&gt;Node23</title>
<path fill="none" stroke="midnightblue" d="M1075.79,-56.3993C1075.39,-48.4664 1074.88,-38.458 1074.45,-29.8583"/>
<polygon fill="midnightblue" stroke="midnightblue" points="1077.94,-29.4688 1073.94,-19.6578 1070.94,-29.8214 1077.94,-29.4688"/>
</g>
<!-- Node24 -->
<g id="node24" class="node"><title>Node24</title>
<polygon fill="none" stroke="#bfbfbf" points="1126.5,-0.5 1126.5,-19.5 1254.5,-19.5 1254.5,-0.5 1126.5,-0.5"/>
<text text-anchor="middle" x="1190.5" y="-7.5" font-family="Helvetica,sans-Serif" font-size="10.00">Mergers/MergeInterface.h</text>
</g>
<!-- Node22&#45;&gt;Node24 -->
<g id="edge25" class="edge"><title>Node22&#45;&gt;Node24</title>
<path fill="none" stroke="midnightblue" d="M1103.52,-56.3993C1122.13,-46.6837 1146.71,-33.8551 1164.99,-24.3137"/>
<polygon fill="midnightblue" stroke="midnightblue" points="1166.67,-27.3876 1173.91,-19.6578 1163.43,-21.182 1166.67,-27.3876"/>
</g>
<!-- Node25&#45;&gt;Node12 -->
<g id="edge27" class="edge"><title>Node25&#45;&gt;Node12</title>
<path fill="none" stroke="midnightblue" d="M655.655,-61.9751C659.876,-53.3152 666.537,-39.6486 671.9,-28.6453"/>
<polygon fill="midnightblue" stroke="midnightblue" points="675.118,-30.0317 676.353,-19.5091 668.825,-26.9648 675.118,-30.0317"/>
</g>
<!-- Node25&#45;&gt;Node13 -->
<g id="edge28" class="edge"><title>Node25&#45;&gt;Node13</title>
<path fill="none" stroke="midnightblue" d="M622.845,-61.9751C587.944,-51.592 528.85,-34.0116 490,-22.4538"/>
<polygon fill="midnightblue" stroke="midnightblue" points="490.685,-19.0059 480.102,-19.5091 488.689,-25.7153 490.685,-19.0059"/>
</g>
</g>
</svg>
        <g id="navigator" transform="translate(0 0)" fill="#404254">
                <rect fill="#f2f5e9" fill-opacity="0.5" stroke="#606060" stroke-width=".5" x="0" y="0" width="60" height="60"/>
                <use id="zoomplus" xlink:href="#zoomPlus" x="17" y="9" onmousedown="handleZoom(evt,'in')"/>
                <use id="zoomminus" xlink:href="#zoomMin" x="42" y="9" onmousedown="handleZoom(evt,'out')"/>
                <use id="reset" xlink:href="#resetDef" x="30" y="36" onmousedown="handleReset()"/>
                <g id="arrowUp" xlink:href="#dirArrow" transform="translate(30 24)" onmousedown="handlePan(0,-1)">
                  <use xlink:href="#rim" fill="#404040">
                        <set attributeName="fill" to="#808080" begin="arrowUp.mouseover" end="arrowUp.mouseout"/>
                  </use>
                  <path fill="none" stroke="white" stroke-width="1.5" d="M0,-3.0v7 M-2.5,-0.5L0,-3.0L2.5,-0.5"/>
                </g>
                <g id="arrowRight" xlink:href="#dirArrow" transform="rotate(90) translate(36 -43)" onmousedown="handlePan(1,0)">
                  <use xlink:href="#rim" fill="#404040">
                        <set attributeName="fill" to="#808080" begin="arrowRight.mouseover" end="arrowRight.mouseout"/>
                  </use>
                  <path fill="none" stroke="white" stroke-width="1.5" d="M0,-3.0v7 M-2.5,-0.5L0,-3.0L2.5,-0.5"/>
                </g>
                <g id="arrowDown" xlink:href="#dirArrow" transform="rotate(180) translate(-30 -48)" onmousedown="handlePan(0,1)">
                  <use xlink:href="#rim" fill="#404040">
                        <set attributeName="fill" to="#808080" begin="arrowDown.mouseover" end="arrowDown.mouseout"/>
                  </use>
                  <path fill="none" stroke="white" stroke-width="1.5" d="M0,-3.0v7 M-2.5,-0.5L0,-3.0L2.5,-0.5"/>
                </g>
                <g id="arrowLeft" xlink:href="#dirArrow" transform="rotate(270) translate(-36 17)" onmousedown="handlePan(-1,0)">
                  <use xlink:href="#rim" fill="#404040">
                        <set attributeName="fill" to="#808080" begin="arrowLeft.mouseover" end="arrowLeft.mouseout"/>
                  </use>
                  <path fill="none" stroke="white" stroke-width="1.5" d="M0,-3.0v7 M-2.5,-0.5L0,-3.0L2.5,-0.5"/>
                </g>
        </g>
        <svg viewBox="0 0 15 15" width="100%" height="30px" preserveAspectRatio="xMaxYMin meet">
         <g id="arrow_out" transform="scale(0.3 0.3)">
          <a xlink:href="BasicClusterQcTask_8cxx__incl_org.svg" target="_base">
           <rect id="button" ry="5" rx="5" y="6" x="6" height="38" width="38"
                fill="#f2f5e9" fill-opacity="0.5" stroke="#606060" stroke-width="1.0"/>
           <path id="arrow"
             d="M 11.500037,31.436501 C 11.940474,20.09759 22.043105,11.32322 32.158766,21.979434 L 37.068811,17.246167 C 37.068811,17.246167 37.088388,32 37.088388,32 L 22.160133,31.978069 C 22.160133,31.978069 26.997745,27.140456 26.997745,27.140456 C 18.528582,18.264221 13.291696,25.230495 11.500037,31.436501 z"
             style="fill:#404040;"/>
          </a>
         </g>
        </svg>
</svg>
