<?xml version="1.0" encoding="UTF-8" standalone="no"?>
<!DOCTYPE svg PUBLIC "-//W3C//DTD SVG 1.1//EN"
 "http://www.w3.org/Graphics/SVG/1.1/DTD/svg11.dtd">
<!-- Generated by graphviz version 2.38.0 (20140413.2041)
 -->
<!-- Title: Modules/MFT/src/BasicDigitQcCheck.cxx Pages: 1 -->
<svg width="515pt" height="263pt"
 viewBox="0.00 0.00 515.00 263.00" xmlns="http://www.w3.org/2000/svg" xmlns:xlink="http://www.w3.org/1999/xlink">
<g id="graph0" class="graph" transform="scale(1 1) rotate(0) translate(4 259)">
<title>Modules/MFT/src/BasicDigitQcCheck.cxx</title>
<!-- Node1 -->
<g id="node1" class="node"><title>Node1</title>
<polygon fill="#bfbfbf" stroke="black" points="143,-224.5 143,-254.5 284,-254.5 284,-224.5 143,-224.5"/>
<text text-anchor="start" x="151" y="-242.5" font-family="Helvetica,sans-Serif" font-size="10.00">Modules/MFT/src/BasicDigit</text>
<text text-anchor="middle" x="213.5" y="-231.5" font-family="Helvetica,sans-Serif" font-size="10.00">QcCheck.cxx</text>
</g>
<!-- Node2 -->
<g id="node2" class="node"><title>Node2</title>
<polygon fill="none" stroke="#bfbfbf" points="27,-168.5 27,-187.5 124,-187.5 124,-168.5 27,-168.5"/>
<text text-anchor="middle" x="75.5" y="-175.5" font-family="Helvetica,sans-Serif" font-size="10.00">fairlogger/Logger.h</text>
</g>
<!-- Node1&#45;&gt;Node2 -->
<g id="edge1" class="edge"><title>Node1&#45;&gt;Node2</title>
<path fill="none" stroke="midnightblue" d="M180.796,-224.399C157.745,-214.461 127.14,-201.265 104.868,-191.662"/>
<polygon fill="midnightblue" stroke="midnightblue" points="106.149,-188.403 95.5802,-187.658 103.377,-194.831 106.149,-188.403"/>
</g>
<!-- Node3 -->
<g id="node3" class="node"><title>Node3</title>
<polygon fill="none" stroke="#bfbfbf" points="141.5,-168.5 141.5,-187.5 185.5,-187.5 185.5,-168.5 141.5,-168.5"/>
<text text-anchor="middle" x="163.5" y="-175.5" font-family="Helvetica,sans-Serif" font-size="10.00">TH1.h</text>
</g>
<!-- Node1&#45;&gt;Node3 -->
<g id="edge2" class="edge"><title>Node1&#45;&gt;Node3</title>
<path fill="none" stroke="midnightblue" d="M201.651,-224.399C194.385,-215.753 185.048,-204.642 177.429,-195.576"/>
<polygon fill="midnightblue" stroke="midnightblue" points="179.888,-193.062 170.775,-187.658 174.529,-197.565 179.888,-193.062"/>
</g>
<!-- Node4 -->
<g id="node4" class="node"><title>Node4</title>
<g id="a_node4"><a xlink:href="BasicDigitQcCheck_8h.html" target="_top" xlink:title="MFT/BasicDigitQcCheck.h">
<polygon fill="none" stroke="black" points="247.5,-168.5 247.5,-187.5 381.5,-187.5 381.5,-168.5 247.5,-168.5"/>
<text text-anchor="middle" x="314.5" y="-175.5" font-family="Helvetica,sans-Serif" font-size="10.00">MFT/BasicDigitQcCheck.h</text>
</a>
</g>
</g>
<!-- Node1&#45;&gt;Node4 -->
<g id="edge3" class="edge"><title>Node1&#45;&gt;Node4</title>
<path fill="none" stroke="midnightblue" d="M237.436,-224.399C253.625,-214.862 274.907,-202.325 291.003,-192.842"/>
<polygon fill="midnightblue" stroke="midnightblue" points="292.964,-195.749 299.804,-187.658 289.411,-189.718 292.964,-195.749"/>
</g>
<!-- Node10 -->
<g id="node10" class="node"><title>Node10</title>
<g id="a_node10"><a xlink:href="MonitorObject_8h.html" target="_top" xlink:title="QualityControl/MonitorObject.h">
<polygon fill="none" stroke="black" points="140,-56.5 140,-75.5 291,-75.5 291,-56.5 140,-56.5"/>
<text text-anchor="middle" x="215.5" y="-63.5" font-family="Helvetica,sans-Serif" font-size="10.00">QualityControl/MonitorObject.h</text>
</a>
</g>
</g>
<!-- Node1&#45;&gt;Node10 -->
<g id="edge18" class="edge"><title>Node1&#45;&gt;Node10</title>
<path fill="none" stroke="midnightblue" d="M213.664,-224.465C214.022,-193.704 214.878,-120.329 215.282,-85.7003"/>
<polygon fill="midnightblue" stroke="midnightblue" points="218.783,-85.5999 215.4,-75.5597 211.784,-85.5182 218.783,-85.5999"/>
</g>
<!-- Node13 -->
<g id="node13" class="node"><title>Node13</title>
<g id="a_node13"><a xlink:href="Quality_8h.html" target="_top" xlink:title="QualityControl/Quality.h">
<polygon fill="none" stroke="black" points="386,-56.5 386,-75.5 507,-75.5 507,-56.5 386,-56.5"/>
<text text-anchor="middle" x="446.5" y="-63.5" font-family="Helvetica,sans-Serif" font-size="10.00">QualityControl/Quality.h</text>
</a>
</g>
</g>
<!-- Node1&#45;&gt;Node13 -->
<g id="edge19" class="edge"><title>Node1&#45;&gt;Node13</title>
<path fill="none" stroke="midnightblue" d="M284.303,-232.228C319.628,-225.895 360.996,-213.238 390.5,-188 422.052,-161.01 436.882,-112.437 442.932,-85.7777"/>
<polygon fill="midnightblue" stroke="midnightblue" points="446.394,-86.325 445.011,-75.8207 439.541,-84.8943 446.394,-86.325"/>
</g>
<!-- Node5 -->
<g id="node5" class="node"><title>Node5</title>
<g id="a_node5"><a xlink:href="CheckInterface_8h.html" target="_top" xlink:title="QualityControl/CheckInterface.h">
<polygon fill="none" stroke="black" points="242,-112.5 242,-131.5 399,-131.5 399,-112.5 242,-112.5"/>
<text text-anchor="middle" x="320.5" y="-119.5" font-family="Helvetica,sans-Serif" font-size="10.00">QualityControl/CheckInterface.h</text>
</a>
</g>
</g>
<!-- Node4&#45;&gt;Node5 -->
<g id="edge4" class="edge"><title>Node4&#45;&gt;Node5</title>
<path fill="none" stroke="midnightblue" d="M315.491,-168.083C316.286,-160.927 317.429,-150.635 318.423,-141.691"/>
<polygon fill="midnightblue" stroke="midnightblue" points="321.902,-142.076 319.528,-131.751 314.945,-141.303 321.902,-142.076"/>
</g>
<!-- Node6 -->
<g id="node6" class="node"><title>Node6</title>
<polygon fill="none" stroke="#bfbfbf" points="396,-0.5 396,-19.5 437,-19.5 437,-0.5 396,-0.5"/>
<text text-anchor="middle" x="416.5" y="-7.5" font-family="Helvetica,sans-Serif" font-size="10.00">string</text>
</g>
<!-- Node5&#45;&gt;Node6 -->
<g id="edge5" class="edge"><title>Node5&#45;&gt;Node6</title>
<path fill="none" stroke="midnightblue" d="M328.033,-112.368C344.016,-94.0547 381.548,-51.0489 402.22,-27.3624"/>
<polygon fill="midnightblue" stroke="midnightblue" points="405.064,-29.4271 409.002,-19.5914 399.79,-24.8243 405.064,-29.4271"/>
</g>
<!-- Node7 -->
<g id="node7" class="node"><title>Node7</title>
<polygon fill="none" stroke="#bfbfbf" points="57,-0.5 57,-19.5 92,-19.5 92,-0.5 57,-0.5"/>
<text text-anchor="middle" x="74.5" y="-7.5" font-family="Helvetica,sans-Serif" font-size="10.00">map</text>
</g>
<!-- Node5&#45;&gt;Node7 -->
<g id="edge6" class="edge"><title>Node5&#45;&gt;Node7</title>
<path fill="none" stroke="midnightblue" d="M241.889,-113.304C206.238,-107.134 164.724,-96.0197 131.5,-76 111.885,-64.1806 95.4037,-43.3605 85.2882,-28.4671"/>
<polygon fill="midnightblue" stroke="midnightblue" points="87.9716,-26.1725 79.5913,-19.6901 82.1,-29.9837 87.9716,-26.1725"/>
</g>
<!-- Node8 -->
<g id="node8" class="node"><title>Node8</title>
<polygon fill="none" stroke="#bfbfbf" points="0,-56.5 0,-75.5 83,-75.5 83,-56.5 0,-56.5"/>
<text text-anchor="middle" x="41.5" y="-63.5" font-family="Helvetica,sans-Serif" font-size="10.00">unordered_map</text>
</g>
<!-- Node5&#45;&gt;Node8 -->
<g id="edge7" class="edge"><title>Node5&#45;&gt;Node8</title>
<path fill="none" stroke="midnightblue" d="M276.292,-112.444C226.594,-102.825 145.99,-87.2238 93.3589,-77.0372"/>
<polygon fill="midnightblue" stroke="midnightblue" points="93.7061,-73.5395 83.2232,-75.0755 92.3759,-80.412 93.7061,-73.5395"/>
</g>
<!-- Node9 -->
<g id="node9" class="node"><title>Node9</title>
<polygon fill="none" stroke="#bfbfbf" points="321.5,-0.5 321.5,-19.5 377.5,-19.5 377.5,-0.5 321.5,-0.5"/>
<text text-anchor="middle" x="349.5" y="-7.5" font-family="Helvetica,sans-Serif" font-size="10.00">Rtypes.h</text>
</g>
<!-- Node5&#45;&gt;Node9 -->
<g id="edge8" class="edge"><title>Node5&#45;&gt;Node9</title>
<path fill="none" stroke="midnightblue" d="M322.776,-112.368C327.477,-94.5366 338.349,-53.2953 344.683,-29.2717"/>
<polygon fill="midnightblue" stroke="midnightblue" points="348.07,-30.1533 347.235,-19.5914 341.301,-28.3688 348.07,-30.1533"/>
</g>
<!-- Node5&#45;&gt;Node10 -->
<g id="edge9" class="edge"><title>Node5&#45;&gt;Node10</title>
<path fill="none" stroke="midnightblue" d="M303.63,-112.324C286.791,-103.664 260.693,-90.2424 241.262,-80.249"/>
<polygon fill="midnightblue" stroke="midnightblue" points="242.822,-77.1155 232.328,-75.6545 239.62,-83.3405 242.822,-77.1155"/>
</g>
<!-- Node5&#45;&gt;Node13 -->
<g id="edge15" class="edge"><title>Node5&#45;&gt;Node13</title>
<path fill="none" stroke="midnightblue" d="M340.465,-112.444C361.109,-103.596 393.563,-89.6875 417.132,-79.5865"/>
<polygon fill="midnightblue" stroke="midnightblue" points="418.816,-82.6727 426.628,-75.5164 416.058,-76.2387 418.816,-82.6727"/>
</g>
<!-- Node10&#45;&gt;Node6 -->
<g id="edge10" class="edge"><title>Node10&#45;&gt;Node6</title>
<path fill="none" stroke="midnightblue" d="M249.336,-56.4589C281.942,-48.1478 332.889,-34.9525 386.238,-20.0012"/>
<polygon fill="midnightblue" stroke="midnightblue" points="387.193,-23.3686 395.87,-17.2898 385.296,-16.6305 387.193,-23.3686"/>
</g>
<!-- Node10&#45;&gt;Node7 -->
<g id="edge11" class="edge"><title>Node10&#45;&gt;Node7</title>
<path fill="none" stroke="midnightblue" d="M193.158,-56.4435C168.37,-46.9502 128.367,-31.6297 101.756,-21.4385"/>
<polygon fill="midnightblue" stroke="midnightblue" points="102.863,-18.1147 92.2729,-17.8067 100.36,-24.6517 102.863,-18.1147"/>
</g>
<!-- Node10&#45;&gt;Node9 -->
<g id="edge12" class="edge"><title>Node10&#45;&gt;Node9</title>
<path fill="none" stroke="midnightblue" d="M236.733,-56.4435C258.884,-47.5171 293.819,-33.4387 318.936,-23.3168"/>
<polygon fill="midnightblue" stroke="midnightblue" points="320.4,-26.5006 328.367,-19.5164 317.783,-20.0079 320.4,-26.5006"/>
</g>
<!-- Node11 -->
<g id="node11" class="node"><title>Node11</title>
<polygon fill="none" stroke="#bfbfbf" points="110,-0.5 110,-19.5 169,-19.5 169,-0.5 110,-0.5"/>
<text text-anchor="middle" x="139.5" y="-7.5" font-family="Helvetica,sans-Serif" font-size="10.00">TObject.h</text>
</g>
<!-- Node10&#45;&gt;Node11 -->
<g id="edge13" class="edge"><title>Node10&#45;&gt;Node11</title>
<path fill="none" stroke="midnightblue" d="M203.289,-56.324C191.724,-48.1066 174.125,-35.6017 160.339,-25.8069"/>
<polygon fill="midnightblue" stroke="midnightblue" points="162.112,-22.7729 151.933,-19.8339 158.057,-28.4791 162.112,-22.7729"/>
</g>
<!-- Node12 -->
<g id="node12" class="node"><title>Node12</title>
<polygon fill="none" stroke="#bfbfbf" points="187.5,-0.5 187.5,-19.5 303.5,-19.5 303.5,-0.5 187.5,-0.5"/>
<text text-anchor="middle" x="245.5" y="-7.5" font-family="Helvetica,sans-Serif" font-size="10.00">Common/Exceptions.h</text>
</g>
<!-- Node10&#45;&gt;Node12 -->
<g id="edge14" class="edge"><title>Node10&#45;&gt;Node12</title>
<path fill="none" stroke="midnightblue" d="M220.454,-56.083C224.604,-48.6127 230.653,-37.7244 235.767,-28.5199"/>
<polygon fill="midnightblue" stroke="midnightblue" points="238.841,-30.1924 240.638,-19.7511 232.722,-26.7929 238.841,-30.1924"/>
</g>
<!-- Node13&#45;&gt;Node6 -->
<g id="edge17" class="edge"><title>Node13&#45;&gt;Node6</title>
<path fill="none" stroke="midnightblue" d="M441.546,-56.083C437.396,-48.6127 431.347,-37.7244 426.233,-28.5199"/>
<polygon fill="midnightblue" stroke="midnightblue" points="429.278,-26.7929 421.362,-19.7511 423.159,-30.1924 429.278,-26.7929"/>
</g>
<!-- Node13&#45;&gt;Node9 -->
<g id="edge16" class="edge"><title>Node13&#45;&gt;Node9</title>
<path fill="none" stroke="midnightblue" d="M430.915,-56.324C415.501,-47.7428 391.688,-34.486 373.79,-24.5224"/>
<polygon fill="midnightblue" stroke="midnightblue" points="375.486,-21.4606 365.046,-19.6545 372.081,-27.5767 375.486,-21.4606"/>
</g>
</g>
</svg>
