<?xml version="1.0" encoding="UTF-8" standalone="no"?>
<!DOCTYPE svg PUBLIC "-//W3C//DTD SVG 1.1//EN"
 "http://www.w3.org/Graphics/SVG/1.1/DTD/svg11.dtd">
<!-- Generated by graphviz version 2.38.0 (20140413.2041)
 -->
<!-- Title: Modules/MFT/src/BasicTrackQcTask.cxx Pages: 1 -->
<!--zoomable 330 -->
<svg id="main" version="1.1" xmlns="http://www.w3.org/2000/svg" xmlns:xlink="http://www.w3.org/1999/xlink" xml:space="preserve" onload="init(evt)">
<style type="text/css"><![CDATA[
.edge:hover path { stroke: red; }
.edge:hover polygon { stroke: red; fill: red; }
]]></style>
<script type="text/javascript"><![CDATA[
var edges = document.getElementsByTagName('g');
if (edges && edges.length) {
  for (var i=0;i<edges.length;i++) {
    if (edges[i].id.substr(0,4)=='edge') {
      edges[i].setAttribute('class','edge');
    }
  }
}
]]></script>
        <defs>
                <circle id="rim" cx="0" cy="0" r="7"/>
                <circle id="rim2" cx="0" cy="0" r="3.5"/>
                <g id="zoomPlus">
                        <use xlink:href="#rim" fill="#404040">
                                <set attributeName="fill" to="#808080" begin="zoomplus.mouseover" end="zoomplus.mouseout"/>
                        </use>
                        <path d="M-4,0h8M0,-4v8" fill="none" stroke="white" stroke-width="1.5" pointer-events="none"/>
                </g>
                <g id="zoomMin">
                        <use xlink:href="#rim" fill="#404040">
                                <set attributeName="fill" to="#808080" begin="zoomminus.mouseover" end="zoomminus.mouseout"/>
                        </use>
                        <path d="M-4,0h8" fill="none" stroke="white" stroke-width="1.5" pointer-events="none"/>
                </g>
                <g id="dirArrow">
                        <path fill="none" stroke="white" stroke-width="1.5" d="M0,-3.0v7 M-2.5,-0.5L0,-3.0L2.5,-0.5"/>
                </g>
               <g id="resetDef">
                       <use xlink:href="#rim2" fill="#404040">
                               <set attributeName="fill" to="#808080" begin="reset.mouseover" end="reset.mouseout"/>
                       </use>
               </g>
        </defs>

<script type="text/javascript">
var viewWidth = 1401;
var viewHeight = 330;
var sectionId = 'dynsection-0';
</script>
<script xlink:href="svgpan.js"/>
<svg id="graph" class="graph">
<g id="viewport">
<title>Modules/MFT/src/BasicTrackQcTask.cxx</title>
<!-- Node1 -->
<g id="node1" class="node"><title>Node1</title>
<polygon fill="#bfbfbf" stroke="black" points="224.5,-291.5 224.5,-321.5 370.5,-321.5 370.5,-291.5 224.5,-291.5"/>
<text text-anchor="start" x="232.5" y="-309.5" font-family="Helvetica,sans-Serif" font-size="10.00">Modules/MFT/src/BasicTrack</text>
<text text-anchor="middle" x="297.5" y="-298.5" font-family="Helvetica,sans-Serif" font-size="10.00">QcTask.cxx</text>
</g>
<!-- Node2 -->
<g id="node2" class="node"><title>Node2</title>
<polygon fill="none" stroke="#bfbfbf" points="0,-235.5 0,-254.5 65,-254.5 65,-235.5 0,-235.5"/>
<text text-anchor="middle" x="32.5" y="-242.5" font-family="Helvetica,sans-Serif" font-size="10.00">TCanvas.h</text>
</g>
<!-- Node1&#45;&gt;Node2 -->
<g id="edge1" class="edge"><title>Node1&#45;&gt;Node2</title>
<path fill="none" stroke="midnightblue" d="M235.034,-291.475C185.736,-280.406 118.286,-265.261 75.0478,-255.553"/>
<polygon fill="midnightblue" stroke="midnightblue" points="75.6612,-252.104 65.1374,-253.328 74.1277,-258.934 75.6612,-252.104"/>
</g>
<!-- Node3 -->
<g id="node3" class="node"><title>Node3</title>
<polygon fill="none" stroke="#bfbfbf" points="83.5,-235.5 83.5,-254.5 127.5,-254.5 127.5,-235.5 83.5,-235.5"/>
<text text-anchor="middle" x="105.5" y="-242.5" font-family="Helvetica,sans-Serif" font-size="10.00">TH1.h</text>
</g>
<!-- Node1&#45;&gt;Node3 -->
<g id="edge2" class="edge"><title>Node1&#45;&gt;Node3</title>
<path fill="none" stroke="midnightblue" d="M251.999,-291.399C216.73,-280.47 168.748,-265.6 137.457,-255.903"/>
<polygon fill="midnightblue" stroke="midnightblue" points="138.116,-252.443 127.528,-252.826 136.044,-259.13 138.116,-252.443"/>
</g>
<!-- Node4 -->
<g id="node4" class="node"><title>Node4</title>
<polygon fill="none" stroke="#bfbfbf" points="145.5,-235.5 145.5,-254.5 295.5,-254.5 295.5,-235.5 145.5,-235.5"/>
<text text-anchor="middle" x="220.5" y="-242.5" font-family="Helvetica,sans-Serif" font-size="10.00">DataFormatsMFT/TrackMFT.h</text>
</g>
<!-- Node1&#45;&gt;Node4 -->
<g id="edge3" class="edge"><title>Node1&#45;&gt;Node4</title>
<path fill="none" stroke="midnightblue" d="M279.252,-291.399C267.371,-282.218 251.893,-270.258 239.806,-260.918"/>
<polygon fill="midnightblue" stroke="midnightblue" points="241.757,-258.003 231.704,-254.658 237.477,-263.542 241.757,-258.003"/>
</g>
<!-- Node5 -->
<g id="node5" class="node"><title>Node5</title>
<polygon fill="none" stroke="#bfbfbf" points="313,-235.5 313,-254.5 438,-254.5 438,-235.5 313,-235.5"/>
<text text-anchor="middle" x="375.5" y="-242.5" font-family="Helvetica,sans-Serif" font-size="10.00">MFTTracking/TrackCA.h</text>
</g>
<!-- Node1&#45;&gt;Node5 -->
<g id="edge4" class="edge"><title>Node1&#45;&gt;Node5</title>
<path fill="none" stroke="midnightblue" d="M315.985,-291.399C328.02,-282.218 343.7,-270.258 355.943,-260.918"/>
<polygon fill="midnightblue" stroke="midnightblue" points="358.322,-263.506 364.15,-254.658 354.077,-257.94 358.322,-263.506"/>
</g>
<!-- Node6 -->
<g id="node6" class="node"><title>Node6</title>
<g id="a_node6"><a xlink:href="QcInfoLogger_8h.html" target="_top" xlink:title="QualityControl/QcInfoLogger.h">
<polygon fill="none" stroke="black" points="456,-235.5 456,-254.5 605,-254.5 605,-235.5 456,-235.5"/>
<text text-anchor="middle" x="530.5" y="-242.5" font-family="Helvetica,sans-Serif" font-size="10.00">QualityControl/QcInfoLogger.h</text>
</a>
</g>
</g>
<!-- Node1&#45;&gt;Node6 -->
<g id="edge5" class="edge"><title>Node1&#45;&gt;Node6</title>
<path fill="none" stroke="midnightblue" d="M352.423,-291.475C393.673,-280.941 449.378,-266.716 487.433,-256.998"/>
<polygon fill="midnightblue" stroke="midnightblue" points="488.366,-260.372 497.189,-254.506 486.634,-253.59 488.366,-260.372"/>
</g>
<!-- Node8 -->
<g id="node8" class="node"><title>Node8</title>
<g id="a_node8"><a xlink:href="BasicTrackQcTask_8h.html" target="_top" xlink:title="MFT/BasicTrackQcTask.h">
<polygon fill="none" stroke="black" points="623.5,-235.5 623.5,-254.5 755.5,-254.5 755.5,-235.5 623.5,-235.5"/>
<text text-anchor="middle" x="689.5" y="-242.5" font-family="Helvetica,sans-Serif" font-size="10.00">MFT/BasicTrackQcTask.h</text>
</a>
</g>
</g>
<!-- Node1&#45;&gt;Node8 -->
<g id="edge7" class="edge"><title>Node1&#45;&gt;Node8</title>
<path fill="none" stroke="midnightblue" d="M370.772,-294.378C443.324,-283.366 553.416,-266.656 623.372,-256.037"/>
<polygon fill="midnightblue" stroke="midnightblue" points="624.031,-259.477 633.393,-254.516 622.981,-252.557 624.031,-259.477"/>
</g>
<!-- Node7 -->
<g id="node7" class="node"><title>Node7</title>
<polygon fill="none" stroke="#bfbfbf" points="465.5,-179.5 465.5,-198.5 595.5,-198.5 595.5,-179.5 465.5,-179.5"/>
<text text-anchor="middle" x="530.5" y="-186.5" font-family="Helvetica,sans-Serif" font-size="10.00">InfoLogger/InfoLogger.hxx</text>
</g>
<!-- Node6&#45;&gt;Node7 -->
<g id="edge6" class="edge"><title>Node6&#45;&gt;Node7</title>
<path fill="none" stroke="midnightblue" d="M530.5,-235.083C530.5,-228.006 530.5,-217.861 530.5,-208.986"/>
<polygon fill="midnightblue" stroke="midnightblue" points="534,-208.751 530.5,-198.751 527,-208.751 534,-208.751"/>
</g>
<!-- Node9 -->
<g id="node9" class="node"><title>Node9</title>
<polygon fill="none" stroke="#bfbfbf" points="781.5,-179.5 781.5,-198.5 831.5,-198.5 831.5,-179.5 781.5,-179.5"/>
<text text-anchor="middle" x="806.5" y="-186.5" font-family="Helvetica,sans-Serif" font-size="10.00">TH1F.h</text>
</g>
<!-- Node8&#45;&gt;Node9 -->
<g id="edge8" class="edge"><title>Node8&#45;&gt;Node9</title>
<path fill="none" stroke="midnightblue" d="M708.039,-235.444C727.123,-226.636 757.075,-212.812 778.936,-202.722"/>
<polygon fill="midnightblue" stroke="midnightblue" points="780.435,-205.885 788.048,-198.516 777.501,-199.529 780.435,-205.885"/>
</g>
<!-- Node10 -->
<g id="node10" class="node"><title>Node10</title>
<g id="a_node10"><a xlink:href="TaskInterface_8h.html" target="_top" xlink:title="QualityControl/TaskInterface.h">
<polygon fill="none" stroke="black" points="613.5,-179.5 613.5,-198.5 763.5,-198.5 763.5,-179.5 613.5,-179.5"/>
<text text-anchor="middle" x="688.5" y="-186.5" font-family="Helvetica,sans-Serif" font-size="10.00">QualityControl/TaskInterface.h</text>
</a>
</g>
</g>
<!-- Node8&#45;&gt;Node10 -->
<g id="edge9" class="edge"><title>Node8&#45;&gt;Node10</title>
<path fill="none" stroke="midnightblue" d="M689.335,-235.083C689.204,-228.006 689.016,-217.861 688.852,-208.986"/>
<polygon fill="midnightblue" stroke="midnightblue" points="692.347,-208.685 688.662,-198.751 685.348,-208.814 692.347,-208.685"/>
</g>
<!-- Node11 -->
<g id="node11" class="node"><title>Node11</title>
<polygon fill="none" stroke="#bfbfbf" points="713,-0.5 713,-19.5 748,-19.5 748,-0.5 713,-0.5"/>
<text text-anchor="middle" x="730.5" y="-7.5" font-family="Helvetica,sans-Serif" font-size="10.00">map</text>
</g>
<!-- Node10&#45;&gt;Node11 -->
<g id="edge10" class="edge"><title>Node10&#45;&gt;Node11</title>
<path fill="none" stroke="midnightblue" d="M645.433,-179.486C625.104,-173.074 602.677,-161.991 590.5,-143 569.629,-110.45 567.723,-87.246 590.5,-56 616.037,-20.9681 669.292,-12.611 702.259,-10.9548"/>
<polygon fill="midnightblue" stroke="midnightblue" points="702.71,-14.4422 712.592,-10.6212 702.484,-7.4458 702.71,-14.4422"/>
</g>
<!-- Node12 -->
<g id="node12" class="node"><title>Node12</title>
<polygon fill="none" stroke="#bfbfbf" points="643.5,-62 643.5,-81 695.5,-81 695.5,-62 643.5,-62"/>
<text text-anchor="middle" x="669.5" y="-69" font-family="Helvetica,sans-Serif" font-size="10.00">memory</text>
</g>
<!-- Node10&#45;&gt;Node12 -->
<g id="edge11" class="edge"><title>Node10&#45;&gt;Node12</title>
<path fill="none" stroke="midnightblue" d="M681.61,-179.319C675.231,-170.684 666.192,-156.77 662.5,-143 657.88,-125.77 660.742,-105.435 664.09,-91.0438"/>
<polygon fill="midnightblue" stroke="midnightblue" points="667.482,-91.9073 666.63,-81.3467 660.711,-90.1336 667.482,-91.9073"/>
</g>
<!-- Node13 -->
<g id="node13" class="node"><title>Node13</title>
<polygon fill="none" stroke="#bfbfbf" points="798,-0.5 798,-19.5 839,-19.5 839,-0.5 798,-0.5"/>
<text text-anchor="middle" x="818.5" y="-7.5" font-family="Helvetica,sans-Serif" font-size="10.00">string</text>
</g>
<!-- Node10&#45;&gt;Node13 -->
<g id="edge12" class="edge"><title>Node10&#45;&gt;Node13</title>
<path fill="none" stroke="midnightblue" d="M679.521,-179.452C657.164,-157.146 603.008,-96.1226 634.5,-56 644.002,-43.8943 737.983,-25.4328 787.822,-16.3824"/>
<polygon fill="midnightblue" stroke="midnightblue" points="788.517,-19.8136 797.74,-14.5997 787.279,-12.924 788.517,-19.8136"/>
</g>
<!-- Node14 -->
<g id="node14" class="node"><title>Node14</title>
<polygon fill="none" stroke="#bfbfbf" points="548,-0.5 548,-19.5 631,-19.5 631,-0.5 548,-0.5"/>
<text text-anchor="middle" x="589.5" y="-7.5" font-family="Helvetica,sans-Serif" font-size="10.00">unordered_map</text>
</g>
<!-- Node10&#45;&gt;Node14 -->
<g id="edge13" class="edge"><title>Node10&#45;&gt;Node14</title>
<path fill="none" stroke="midnightblue" d="M635.761,-179.473C613.908,-173.143 590.451,-162.133 576.5,-143 551.718,-109.013 568.92,-56.3226 580.81,-28.9237"/>
<polygon fill="midnightblue" stroke="midnightblue" points="584.028,-30.3022 585.008,-19.7528 577.663,-27.3886 584.028,-30.3022"/>
</g>
<!-- Node15 -->
<g id="node15" class="node"><title>Node15</title>
<polygon fill="none" stroke="#bfbfbf" points="671,-123.5 671,-142.5 796,-142.5 796,-123.5 671,-123.5"/>
<text text-anchor="middle" x="733.5" y="-130.5" font-family="Helvetica,sans-Serif" font-size="10.00">Framework/InitContext.h</text>
</g>
<!-- Node10&#45;&gt;Node15 -->
<g id="edge14" class="edge"><title>Node10&#45;&gt;Node15</title>
<path fill="none" stroke="midnightblue" d="M695.931,-179.083C702.353,-171.377 711.806,-160.033 719.622,-150.653"/>
<polygon fill="midnightblue" stroke="midnightblue" points="722.494,-152.674 726.207,-142.751 717.117,-148.193 722.494,-152.674"/>
</g>
<!-- Node16 -->
<g id="node16" class="node"><title>Node16</title>
<polygon fill="none" stroke="#bfbfbf" points="814.5,-123.5 814.5,-142.5 974.5,-142.5 974.5,-123.5 814.5,-123.5"/>
<text text-anchor="middle" x="894.5" y="-130.5" font-family="Helvetica,sans-Serif" font-size="10.00">Framework/ProcessingContext.h</text>
</g>
<!-- Node10&#45;&gt;Node16 -->
<g id="edge15" class="edge"><title>Node10&#45;&gt;Node16</title>
<path fill="none" stroke="midnightblue" d="M721.141,-179.444C756.55,-170.162 813.209,-155.309 852.053,-145.127"/>
<polygon fill="midnightblue" stroke="midnightblue" points="853.226,-148.438 862.011,-142.516 851.451,-141.667 853.226,-148.438"/>
</g>
<!-- Node17 -->
<g id="node17" class="node"><title>Node17</title>
<g id="a_node17"><a xlink:href="Activity_8h.html" target="_top" xlink:title="QualityControl/Activity.h">
<polygon fill="none" stroke="black" points="993,-123.5 993,-142.5 1116,-142.5 1116,-123.5 993,-123.5"/>
<text text-anchor="middle" x="1054.5" y="-130.5" font-family="Helvetica,sans-Serif" font-size="10.00">QualityControl/Activity.h</text>
</a>
</g>
</g>
<!-- Node10&#45;&gt;Node17 -->
<g id="edge16" class="edge"><title>Node10&#45;&gt;Node17</title>
<path fill="none" stroke="midnightblue" d="M746.494,-179.444C811.814,-169.806 917.837,-154.163 986.87,-143.978"/>
<polygon fill="midnightblue" stroke="midnightblue" points="987.396,-147.439 996.778,-142.516 986.374,-140.514 987.396,-147.439"/>
</g>
<!-- Node18 -->
<g id="node18" class="node"><title>Node18</title>
<g id="a_node18"><a xlink:href="ObjectsManager_8h.html" target="_top" xlink:title="QualityControl/ObjectsManager.h">
<polygon fill="none" stroke="black" points="1134,-123.5 1134,-142.5 1295,-142.5 1295,-123.5 1134,-123.5"/>
<text text-anchor="middle" x="1214.5" y="-130.5" font-family="Helvetica,sans-Serif" font-size="10.00">QualityControl/ObjectsManager.h</text>
</a>
</g>
</g>
<!-- Node10&#45;&gt;Node18 -->
<g id="edge17" class="edge"><title>Node10&#45;&gt;Node18</title>
<path fill="none" stroke="midnightblue" d="M763.604,-179.933C766.608,-179.617 769.583,-179.305 772.5,-179 838.338,-172.122 1014.59,-154.238 1123.59,-143.198"/>
<polygon fill="midnightblue" stroke="midnightblue" points="1124,-146.675 1133.6,-142.185 1123.3,-139.71 1124,-146.675"/>
</g>
<!-- Node18&#45;&gt;Node12 -->
<g id="edge31" class="edge"><title>Node18&#45;&gt;Node12</title>
<path fill="none" stroke="midnightblue" d="M1133.97,-123.805C1131.11,-123.531 1128.28,-123.261 1125.5,-123 941.174,-105.686 891.444,-126.178 710.5,-87 707.076,-86.2586 703.545,-85.3094 700.06,-84.2523"/>
<polygon fill="midnightblue" stroke="midnightblue" points="701.077,-80.902 690.483,-81.0698 698.869,-87.5448 701.077,-80.902"/>
</g>
<!-- Node18&#45;&gt;Node13 -->
<g id="edge30" class="edge"><title>Node18&#45;&gt;Node13</title>
<path fill="none" stroke="midnightblue" d="M1141.64,-123.471C1057.64,-113.301 928.408,-96.4916 907.5,-87 899.225,-83.2434 859.049,-47.6194 835.601,-26.5039"/>
<polygon fill="midnightblue" stroke="midnightblue" points="837.853,-23.8209 828.085,-19.7162 833.161,-29.016 837.853,-23.8209"/>
</g>
<!-- Node19 -->
<g id="node19" class="node"><title>Node19</title>
<g id="a_node19"><a xlink:href="MonitorObject_8h.html" target="_top" xlink:title="QualityControl/MonitorObject.h">
<polygon fill="none" stroke="black" points="916,-62 916,-81 1067,-81 1067,-62 916,-62"/>
<text text-anchor="middle" x="991.5" y="-69" font-family="Helvetica,sans-Serif" font-size="10.00">QualityControl/MonitorObject.h</text>
</a>
</g>
</g>
<!-- Node18&#45;&gt;Node19 -->
<g id="edge18" class="edge"><title>Node18&#45;&gt;Node19</title>
<path fill="none" stroke="midnightblue" d="M1182.55,-123.475C1143.3,-113.004 1076.62,-95.2118 1033.33,-83.6601"/>
<polygon fill="midnightblue" stroke="midnightblue" points="1033.96,-80.2054 1023.39,-81.0091 1032.15,-86.9688 1033.96,-80.2054"/>
</g>
<!-- Node23 -->
<g id="node23" class="node"><title>Node23</title>
<g id="a_node23"><a xlink:href="MonitorObjectCollection_8h.html" target="_top" xlink:title="QualityControl/MonitorObject\lCollection.h">
<polygon fill="none" stroke="black" points="1143,-56.5 1143,-86.5 1286,-86.5 1286,-56.5 1143,-56.5"/>
<text text-anchor="start" x="1151" y="-74.5" font-family="Helvetica,sans-Serif" font-size="10.00">QualityControl/MonitorObject</text>
<text text-anchor="middle" x="1214.5" y="-63.5" font-family="Helvetica,sans-Serif" font-size="10.00">Collection.h</text>
</a>
</g>
</g>
<!-- Node18&#45;&gt;Node23 -->
<g id="edge24" class="edge"><title>Node18&#45;&gt;Node23</title>
<path fill="none" stroke="midnightblue" d="M1214.5,-123.475C1214.5,-116.471 1214.5,-106.192 1214.5,-96.6956"/>
<polygon fill="midnightblue" stroke="midnightblue" points="1218,-96.5229 1214.5,-86.523 1211,-96.523 1218,-96.5229"/>
</g>
<!-- Node26 -->
<g id="node26" class="node"><title>Node26</title>
<g id="a_node26"><a xlink:href="TaskConfig_8h.html" target="_top" xlink:title="QualityControl/TaskConfig.h">
<polygon fill="none" stroke="black" points="719.5,-62 719.5,-81 859.5,-81 859.5,-62 719.5,-62"/>
<text text-anchor="middle" x="789.5" y="-69" font-family="Helvetica,sans-Serif" font-size="10.00">QualityControl/TaskConfig.h</text>
</a>
</g>
</g>
<!-- Node18&#45;&gt;Node26 -->
<g id="edge27" class="edge"><title>Node18&#45;&gt;Node26</title>
<path fill="none" stroke="midnightblue" d="M1143.52,-123.467C1074.47,-114.969 966.627,-101.177 873.5,-87 864.89,-85.6893 855.799,-84.2149 846.904,-82.7213"/>
<polygon fill="midnightblue" stroke="midnightblue" points="847.425,-79.2598 836.98,-81.0346 846.252,-86.1608 847.425,-79.2598"/>
</g>
<!-- Node19&#45;&gt;Node11 -->
<g id="edge20" class="edge"><title>Node19&#45;&gt;Node11</title>
<path fill="none" stroke="midnightblue" d="M954.105,-61.9751C901.032,-49.8761 805.091,-28.0045 758.034,-17.277"/>
<polygon fill="midnightblue" stroke="midnightblue" points="758.764,-13.8536 748.236,-15.0433 757.208,-20.6785 758.764,-13.8536"/>
</g>
<!-- Node19&#45;&gt;Node13 -->
<g id="edge19" class="edge"><title>Node19&#45;&gt;Node13</title>
<path fill="none" stroke="midnightblue" d="M966.713,-61.9751C935.639,-51.2877 882.394,-32.975 848.895,-21.4536"/>
<polygon fill="midnightblue" stroke="midnightblue" points="849.773,-18.0547 839.179,-18.112 847.497,-24.6741 849.773,-18.0547"/>
</g>
<!-- Node20 -->
<g id="node20" class="node"><title>Node20</title>
<polygon fill="none" stroke="#bfbfbf" points="887.5,-0.5 887.5,-19.5 943.5,-19.5 943.5,-0.5 887.5,-0.5"/>
<text text-anchor="middle" x="915.5" y="-7.5" font-family="Helvetica,sans-Serif" font-size="10.00">Rtypes.h</text>
</g>
<!-- Node19&#45;&gt;Node20 -->
<g id="edge21" class="edge"><title>Node19&#45;&gt;Node20</title>
<path fill="none" stroke="midnightblue" d="M980.611,-61.9751C968.534,-52.5199 948.833,-37.0961 934.26,-25.6871"/>
<polygon fill="midnightblue" stroke="midnightblue" points="936.4,-22.9177 926.369,-19.5091 932.085,-28.4295 936.4,-22.9177"/>
</g>
<!-- Node21 -->
<g id="node21" class="node"><title>Node21</title>
<polygon fill="none" stroke="#bfbfbf" points="962,-0.5 962,-19.5 1021,-19.5 1021,-0.5 962,-0.5"/>
<text text-anchor="middle" x="991.5" y="-7.5" font-family="Helvetica,sans-Serif" font-size="10.00">TObject.h</text>
</g>
<!-- Node19&#45;&gt;Node21 -->
<g id="edge22" class="edge"><title>Node19&#45;&gt;Node21</title>
<path fill="none" stroke="midnightblue" d="M991.5,-61.9751C991.5,-53.5803 991.5,-40.4806 991.5,-29.6631"/>
<polygon fill="midnightblue" stroke="midnightblue" points="995,-29.5091 991.5,-19.5091 988,-29.5091 995,-29.5091"/>
</g>
<!-- Node22 -->
<g id="node22" class="node"><title>Node22</title>
<polygon fill="none" stroke="#bfbfbf" points="1039.5,-0.5 1039.5,-19.5 1155.5,-19.5 1155.5,-0.5 1039.5,-0.5"/>
<text text-anchor="middle" x="1097.5" y="-7.5" font-family="Helvetica,sans-Serif" font-size="10.00">Common/Exceptions.h</text>
</g>
<!-- Node19&#45;&gt;Node22 -->
<g id="edge23" class="edge"><title>Node19&#45;&gt;Node22</title>
<path fill="none" stroke="midnightblue" d="M1006.69,-61.9751C1024.16,-52.1664 1053.08,-35.9346 1073.58,-24.425"/>
<polygon fill="midnightblue" stroke="midnightblue" points="1075.33,-27.456 1082.34,-19.5091 1071.91,-21.3519 1075.33,-27.456"/>
</g>
<!-- Node24 -->
<g id="node24" class="node"><title>Node24</title>
<polygon fill="none" stroke="#bfbfbf" points="1177,-0.5 1177,-19.5 1246,-19.5 1246,-0.5 1177,-0.5"/>
<text text-anchor="middle" x="1211.5" y="-7.5" font-family="Helvetica,sans-Serif" font-size="10.00">TObjArray.h</text>
</g>
<!-- Node23&#45;&gt;Node24 -->
<g id="edge25" class="edge"><title>Node23&#45;&gt;Node24</title>
<path fill="none" stroke="midnightblue" d="M1213.79,-56.3993C1213.39,-48.4664 1212.88,-38.458 1212.45,-29.8583"/>
<polygon fill="midnightblue" stroke="midnightblue" points="1215.94,-29.4688 1211.94,-19.6578 1208.94,-29.8214 1215.94,-29.4688"/>
</g>
<!-- Node25 -->
<g id="node25" class="node"><title>Node25</title>
<polygon fill="none" stroke="#bfbfbf" points="1264.5,-0.5 1264.5,-19.5 1392.5,-19.5 1392.5,-0.5 1264.5,-0.5"/>
<text text-anchor="middle" x="1328.5" y="-7.5" font-family="Helvetica,sans-Serif" font-size="10.00">Mergers/MergeInterface.h</text>
</g>
<!-- Node23&#45;&gt;Node25 -->
<g id="edge26" class="edge"><title>Node23&#45;&gt;Node25</title>
<path fill="none" stroke="midnightblue" d="M1241.52,-56.3993C1260.13,-46.6837 1284.71,-33.8551 1302.99,-24.3137"/>
<polygon fill="midnightblue" stroke="midnightblue" points="1304.67,-27.3876 1311.91,-19.6578 1301.43,-21.182 1304.67,-27.3876"/>
</g>
<!-- Node26&#45;&gt;Node13 -->
<g id="edge28" class="edge"><title>Node26&#45;&gt;Node13</title>
<path fill="none" stroke="midnightblue" d="M793.655,-61.9751C797.876,-53.3152 804.537,-39.6486 809.9,-28.6453"/>
<polygon fill="midnightblue" stroke="midnightblue" points="813.118,-30.0317 814.353,-19.5091 806.825,-26.9648 813.118,-30.0317"/>
</g>
<!-- Node26&#45;&gt;Node14 -->
<g id="edge29" class="edge"><title>Node26&#45;&gt;Node14</title>
<path fill="none" stroke="midnightblue" d="M760.845,-61.9751C725.944,-51.592 666.85,-34.0116 628,-22.4538"/>
<polygon fill="midnightblue" stroke="midnightblue" points="628.685,-19.0059 618.102,-19.5091 626.689,-25.7153 628.685,-19.0059"/>
</g>
</g>
</svg>
        <g id="navigator" transform="translate(0 0)" fill="#404254">
                <rect fill="#f2f5e9" fill-opacity="0.5" stroke="#606060" stroke-width=".5" x="0" y="0" width="60" height="60"/>
                <use id="zoomplus" xlink:href="#zoomPlus" x="17" y="9" onmousedown="handleZoom(evt,'in')"/>
                <use id="zoomminus" xlink:href="#zoomMin" x="42" y="9" onmousedown="handleZoom(evt,'out')"/>
                <use id="reset" xlink:href="#resetDef" x="30" y="36" onmousedown="handleReset()"/>
                <g id="arrowUp" xlink:href="#dirArrow" transform="translate(30 24)" onmousedown="handlePan(0,-1)">
                  <use xlink:href="#rim" fill="#404040">
                        <set attributeName="fill" to="#808080" begin="arrowUp.mouseover" end="arrowUp.mouseout"/>
                  </use>
                  <path fill="none" stroke="white" stroke-width="1.5" d="M0,-3.0v7 M-2.5,-0.5L0,-3.0L2.5,-0.5"/>
                </g>
                <g id="arrowRight" xlink:href="#dirArrow" transform="rotate(90) translate(36 -43)" onmousedown="handlePan(1,0)">
                  <use xlink:href="#rim" fill="#404040">
                        <set attributeName="fill" to="#808080" begin="arrowRight.mouseover" end="arrowRight.mouseout"/>
                  </use>
                  <path fill="none" stroke="white" stroke-width="1.5" d="M0,-3.0v7 M-2.5,-0.5L0,-3.0L2.5,-0.5"/>
                </g>
                <g id="arrowDown" xlink:href="#dirArrow" transform="rotate(180) translate(-30 -48)" onmousedown="handlePan(0,1)">
                  <use xlink:href="#rim" fill="#404040">
                        <set attributeName="fill" to="#808080" begin="arrowDown.mouseover" end="arrowDown.mouseout"/>
                  </use>
                  <path fill="none" stroke="white" stroke-width="1.5" d="M0,-3.0v7 M-2.5,-0.5L0,-3.0L2.5,-0.5"/>
                </g>
                <g id="arrowLeft" xlink:href="#dirArrow" transform="rotate(270) translate(-36 17)" onmousedown="handlePan(-1,0)">
                  <use xlink:href="#rim" fill="#404040">
                        <set attributeName="fill" to="#808080" begin="arrowLeft.mouseover" end="arrowLeft.mouseout"/>
                  </use>
                  <path fill="none" stroke="white" stroke-width="1.5" d="M0,-3.0v7 M-2.5,-0.5L0,-3.0L2.5,-0.5"/>
                </g>
        </g>
        <svg viewBox="0 0 15 15" width="100%" height="30px" preserveAspectRatio="xMaxYMin meet">
         <g id="arrow_out" transform="scale(0.3 0.3)">
          <a xlink:href="BasicTrackQcTask_8cxx__incl_org.svg" target="_base">
           <rect id="button" ry="5" rx="5" y="6" x="6" height="38" width="38"
                fill="#f2f5e9" fill-opacity="0.5" stroke="#606060" stroke-width="1.0"/>
           <path id="arrow"
             d="M 11.500037,31.436501 C 11.940474,20.09759 22.043105,11.32322 32.158766,21.979434 L 37.068811,17.246167 C 37.068811,17.246167 37.088388,32 37.088388,32 L 22.160133,31.978069 C 22.160133,31.978069 26.997745,27.140456 26.997745,27.140456 C 18.528582,18.264221 13.291696,25.230495 11.500037,31.436501 z"
             style="fill:#404040;"/>
          </a>
         </g>
        </svg>
</svg>
