<?xml version="1.0" encoding="UTF-8" standalone="no"?>
<!DOCTYPE svg PUBLIC "-//W3C//DTD SVG 1.1//EN"
 "http://www.w3.org/Graphics/SVG/1.1/DTD/svg11.dtd">
<!-- Generated by graphviz version 2.38.0 (20140413.2041)
 -->
<!-- Title: Modules/MFT/include/MFT/BasicTrackQcTask.h Pages: 1 -->
<svg width="855pt" height="274pt"
 viewBox="0.00 0.00 855.00 274.00" xmlns="http://www.w3.org/2000/svg" xmlns:xlink="http://www.w3.org/1999/xlink">
<g id="graph0" class="graph" transform="scale(1 1) rotate(0) translate(4 270)">
<title>Modules/MFT/include/MFT/BasicTrackQcTask.h</title>
<!-- Node1 -->
<g id="node1" class="node"><title>Node1</title>
<polygon fill="#bfbfbf" stroke="black" points="16.5,-235.5 16.5,-265.5 151.5,-265.5 151.5,-235.5 16.5,-235.5"/>
<text text-anchor="start" x="24.5" y="-253.5" font-family="Helvetica,sans-Serif" font-size="10.00">Modules/MFT/include</text>
<text text-anchor="middle" x="84" y="-242.5" font-family="Helvetica,sans-Serif" font-size="10.00">/MFT/BasicTrackQcTask.h</text>
</g>
<!-- Node2 -->
<g id="node2" class="node"><title>Node2</title>
<polygon fill="none" stroke="#bfbfbf" points="0,-179.5 0,-198.5 50,-198.5 50,-179.5 0,-179.5"/>
<text text-anchor="middle" x="25" y="-186.5" font-family="Helvetica,sans-Serif" font-size="10.00">TH1F.h</text>
</g>
<!-- Node1&#45;&gt;Node2 -->
<g id="edge1" class="edge"><title>Node1&#45;&gt;Node2</title>
<path fill="none" stroke="midnightblue" d="M70.0178,-235.399C61.2677,-226.575 49.9711,-215.183 40.8832,-206.018"/>
<polygon fill="midnightblue" stroke="midnightblue" points="43.1115,-203.294 33.585,-198.658 38.1409,-208.223 43.1115,-203.294"/>
</g>
<!-- Node3 -->
<g id="node3" class="node"><title>Node3</title>
<g id="a_node3"><a xlink:href="TaskInterface_8h.html" target="_top" xlink:title="QualityControl/TaskInterface.h">
<polygon fill="none" stroke="black" points="68,-179.5 68,-198.5 218,-198.5 218,-179.5 68,-179.5"/>
<text text-anchor="middle" x="143" y="-186.5" font-family="Helvetica,sans-Serif" font-size="10.00">QualityControl/TaskInterface.h</text>
</a>
</g>
</g>
<!-- Node1&#45;&gt;Node3 -->
<g id="edge2" class="edge"><title>Node1&#45;&gt;Node3</title>
<path fill="none" stroke="midnightblue" d="M97.9822,-235.399C106.732,-226.575 118.029,-215.183 127.117,-206.018"/>
<polygon fill="midnightblue" stroke="midnightblue" points="129.859,-208.223 134.415,-198.658 124.888,-203.294 129.859,-208.223"/>
</g>
<!-- Node4 -->
<g id="node4" class="node"><title>Node4</title>
<polygon fill="none" stroke="#bfbfbf" points="167.5,-0.5 167.5,-19.5 202.5,-19.5 202.5,-0.5 167.5,-0.5"/>
<text text-anchor="middle" x="185" y="-7.5" font-family="Helvetica,sans-Serif" font-size="10.00">map</text>
</g>
<!-- Node3&#45;&gt;Node4 -->
<g id="edge3" class="edge"><title>Node3&#45;&gt;Node4</title>
<path fill="none" stroke="midnightblue" d="M99.9328,-179.486C79.6037,-173.074 57.1772,-161.991 45,-143 24.1288,-110.45 22.2229,-87.246 45,-56 70.5368,-20.9681 123.792,-12.611 156.759,-10.9548"/>
<polygon fill="midnightblue" stroke="midnightblue" points="157.21,-14.4422 167.092,-10.6212 156.984,-7.4458 157.21,-14.4422"/>
</g>
<!-- Node5 -->
<g id="node5" class="node"><title>Node5</title>
<polygon fill="none" stroke="#bfbfbf" points="98,-62 98,-81 150,-81 150,-62 98,-62"/>
<text text-anchor="middle" x="124" y="-69" font-family="Helvetica,sans-Serif" font-size="10.00">memory</text>
</g>
<!-- Node3&#45;&gt;Node5 -->
<g id="edge4" class="edge"><title>Node3&#45;&gt;Node5</title>
<path fill="none" stroke="midnightblue" d="M135.849,-179.364C129.227,-170.763 119.843,-156.873 116,-143 111.231,-125.783 114.433,-105.447 118.105,-91.0511"/>
<polygon fill="midnightblue" stroke="midnightblue" points="121.495,-91.9279 120.881,-81.3508 114.765,-90.0022 121.495,-91.9279"/>
</g>
<!-- Node6 -->
<g id="node6" class="node"><title>Node6</title>
<polygon fill="none" stroke="#bfbfbf" points="252.5,-0.5 252.5,-19.5 293.5,-19.5 293.5,-0.5 252.5,-0.5"/>
<text text-anchor="middle" x="273" y="-7.5" font-family="Helvetica,sans-Serif" font-size="10.00">string</text>
</g>
<!-- Node3&#45;&gt;Node6 -->
<g id="edge5" class="edge"><title>Node3&#45;&gt;Node6</title>
<path fill="none" stroke="midnightblue" d="M134.021,-179.452C111.664,-157.146 57.5075,-96.1226 89,-56 98.5019,-43.8943 192.483,-25.4328 242.322,-16.3824"/>
<polygon fill="midnightblue" stroke="midnightblue" points="243.017,-19.8136 252.24,-14.5997 241.779,-12.924 243.017,-19.8136"/>
</g>
<!-- Node7 -->
<g id="node7" class="node"><title>Node7</title>
<polygon fill="none" stroke="#bfbfbf" points="2.5,-0.5 2.5,-19.5 85.5,-19.5 85.5,-0.5 2.5,-0.5"/>
<text text-anchor="middle" x="44" y="-7.5" font-family="Helvetica,sans-Serif" font-size="10.00">unordered_map</text>
</g>
<!-- Node3&#45;&gt;Node7 -->
<g id="edge6" class="edge"><title>Node3&#45;&gt;Node7</title>
<path fill="none" stroke="midnightblue" d="M90.2607,-179.473C68.4081,-173.143 44.9512,-162.133 31,-143 6.21778,-109.013 23.42,-56.3226 35.3095,-28.9237"/>
<polygon fill="midnightblue" stroke="midnightblue" points="38.5277,-30.3022 39.5076,-19.7528 32.1629,-27.3886 38.5277,-30.3022"/>
</g>
<!-- Node8 -->
<g id="node8" class="node"><title>Node8</title>
<polygon fill="none" stroke="#bfbfbf" points="125.5,-123.5 125.5,-142.5 250.5,-142.5 250.5,-123.5 125.5,-123.5"/>
<text text-anchor="middle" x="188" y="-130.5" font-family="Helvetica,sans-Serif" font-size="10.00">Framework/InitContext.h</text>
</g>
<!-- Node3&#45;&gt;Node8 -->
<g id="edge7" class="edge"><title>Node3&#45;&gt;Node8</title>
<path fill="none" stroke="midnightblue" d="M150.431,-179.083C156.853,-171.377 166.306,-160.033 174.122,-150.653"/>
<polygon fill="midnightblue" stroke="midnightblue" points="176.994,-152.674 180.707,-142.751 171.617,-148.193 176.994,-152.674"/>
</g>
<!-- Node9 -->
<g id="node9" class="node"><title>Node9</title>
<polygon fill="none" stroke="#bfbfbf" points="269,-123.5 269,-142.5 429,-142.5 429,-123.5 269,-123.5"/>
<text text-anchor="middle" x="349" y="-130.5" font-family="Helvetica,sans-Serif" font-size="10.00">Framework/ProcessingContext.h</text>
</g>
<!-- Node3&#45;&gt;Node9 -->
<g id="edge8" class="edge"><title>Node3&#45;&gt;Node9</title>
<path fill="none" stroke="midnightblue" d="M175.641,-179.444C211.05,-170.162 267.709,-155.309 306.553,-145.127"/>
<polygon fill="midnightblue" stroke="midnightblue" points="307.726,-148.438 316.511,-142.516 305.951,-141.667 307.726,-148.438"/>
</g>
<!-- Node10 -->
<g id="node10" class="node"><title>Node10</title>
<g id="a_node10"><a xlink:href="Activity_8h.html" target="_top" xlink:title="QualityControl/Activity.h">
<polygon fill="none" stroke="black" points="447.5,-123.5 447.5,-142.5 570.5,-142.5 570.5,-123.5 447.5,-123.5"/>
<text text-anchor="middle" x="509" y="-130.5" font-family="Helvetica,sans-Serif" font-size="10.00">QualityControl/Activity.h</text>
</a>
</g>
</g>
<!-- Node3&#45;&gt;Node10 -->
<g id="edge9" class="edge"><title>Node3&#45;&gt;Node10</title>
<path fill="none" stroke="midnightblue" d="M200.994,-179.444C266.314,-169.806 372.337,-154.163 441.37,-143.978"/>
<polygon fill="midnightblue" stroke="midnightblue" points="441.896,-147.439 451.278,-142.516 440.874,-140.514 441.896,-147.439"/>
</g>
<!-- Node11 -->
<g id="node11" class="node"><title>Node11</title>
<g id="a_node11"><a xlink:href="ObjectsManager_8h.html" target="_top" xlink:title="QualityControl/ObjectsManager.h">
<polygon fill="none" stroke="black" points="588.5,-123.5 588.5,-142.5 749.5,-142.5 749.5,-123.5 588.5,-123.5"/>
<text text-anchor="middle" x="669" y="-130.5" font-family="Helvetica,sans-Serif" font-size="10.00">QualityControl/ObjectsManager.h</text>
</a>
</g>
</g>
<!-- Node3&#45;&gt;Node11 -->
<g id="edge10" class="edge"><title>Node3&#45;&gt;Node11</title>
<path fill="none" stroke="midnightblue" d="M218.083,-180.292C312.994,-170.548 476.249,-153.788 578.105,-143.331"/>
<polygon fill="midnightblue" stroke="midnightblue" points="578.481,-146.811 588.072,-142.308 577.766,-139.848 578.481,-146.811"/>
</g>
<!-- Node11&#45;&gt;Node5 -->
<g id="edge24" class="edge"><title>Node11&#45;&gt;Node5</title>
<path fill="none" stroke="midnightblue" d="M588.475,-123.805C585.615,-123.531 582.783,-123.261 580,-123 395.674,-105.686 345.944,-126.178 165,-87 161.576,-86.2586 158.045,-85.3094 154.56,-84.2523"/>
<polygon fill="midnightblue" stroke="midnightblue" points="155.577,-80.902 144.983,-81.0698 153.369,-87.5448 155.577,-80.902"/>
</g>
<!-- Node11&#45;&gt;Node6 -->
<g id="edge23" class="edge"><title>Node11&#45;&gt;Node6</title>
<path fill="none" stroke="midnightblue" d="M595.891,-123.499C511.616,-113.357 381.95,-96.5756 361,-87 356.856,-85.1057 314.769,-48.0657 290.332,-26.4071"/>
<polygon fill="midnightblue" stroke="midnightblue" points="292.604,-23.7443 282.802,-19.7247 287.958,-28.98 292.604,-23.7443"/>
</g>
<!-- Node12 -->
<g id="node12" class="node"><title>Node12</title>
<g id="a_node12"><a xlink:href="MonitorObject_8h.html" target="_top" xlink:title="QualityControl/MonitorObject.h">
<polygon fill="none" stroke="black" points="370.5,-62 370.5,-81 521.5,-81 521.5,-62 370.5,-62"/>
<text text-anchor="middle" x="446" y="-69" font-family="Helvetica,sans-Serif" font-size="10.00">QualityControl/MonitorObject.h</text>
</a>
</g>
</g>
<!-- Node11&#45;&gt;Node12 -->
<g id="edge11" class="edge"><title>Node11&#45;&gt;Node12</title>
<path fill="none" stroke="midnightblue" d="M637.05,-123.475C597.804,-113.004 531.122,-95.2118 487.827,-83.6601"/>
<polygon fill="midnightblue" stroke="midnightblue" points="488.456,-80.2054 477.891,-81.0091 486.651,-86.9688 488.456,-80.2054"/>
</g>
<!-- Node16 -->
<g id="node16" class="node"><title>Node16</title>
<g id="a_node16"><a xlink:href="MonitorObjectCollection_8h.html" target="_top" xlink:title="QualityControl/MonitorObject\lCollection.h">
<polygon fill="none" stroke="black" points="597.5,-56.5 597.5,-86.5 740.5,-86.5 740.5,-56.5 597.5,-56.5"/>
<text text-anchor="start" x="605.5" y="-74.5" font-family="Helvetica,sans-Serif" font-size="10.00">QualityControl/MonitorObject</text>
<text text-anchor="middle" x="669" y="-63.5" font-family="Helvetica,sans-Serif" font-size="10.00">Collection.h</text>
</a>
</g>
</g>
<!-- Node11&#45;&gt;Node16 -->
<g id="edge17" class="edge"><title>Node11&#45;&gt;Node16</title>
<path fill="none" stroke="midnightblue" d="M669,-123.475C669,-116.471 669,-106.192 669,-96.6956"/>
<polygon fill="midnightblue" stroke="midnightblue" points="672.5,-96.5229 669,-86.523 665.5,-96.523 672.5,-96.5229"/>
</g>
<!-- Node19 -->
<g id="node19" class="node"><title>Node19</title>
<g id="a_node19"><a xlink:href="TaskConfig_8h.html" target="_top" xlink:title="QualityControl/TaskConfig.h">
<polygon fill="none" stroke="black" points="174,-62 174,-81 314,-81 314,-62 174,-62"/>
<text text-anchor="middle" x="244" y="-69" font-family="Helvetica,sans-Serif" font-size="10.00">QualityControl/TaskConfig.h</text>
</a>
</g>
</g>
<!-- Node11&#45;&gt;Node19 -->
<g id="edge20" class="edge"><title>Node11&#45;&gt;Node19</title>
<path fill="none" stroke="midnightblue" d="M598.023,-123.467C528.965,-114.969 421.127,-101.177 328,-87 319.39,-85.6893 310.299,-84.2149 301.404,-82.7213"/>
<polygon fill="midnightblue" stroke="midnightblue" points="301.925,-79.2598 291.48,-81.0346 300.752,-86.1608 301.925,-79.2598"/>
</g>
<!-- Node12&#45;&gt;Node4 -->
<g id="edge13" class="edge"><title>Node12&#45;&gt;Node4</title>
<path fill="none" stroke="midnightblue" d="M408.605,-61.9751C355.532,-49.8761 259.591,-28.0045 212.534,-17.277"/>
<polygon fill="midnightblue" stroke="midnightblue" points="213.264,-13.8536 202.736,-15.0433 211.708,-20.6785 213.264,-13.8536"/>
</g>
<!-- Node12&#45;&gt;Node6 -->
<g id="edge12" class="edge"><title>Node12&#45;&gt;Node6</title>
<path fill="none" stroke="midnightblue" d="M421.213,-61.9751C390.139,-51.2877 336.894,-32.975 303.395,-21.4536"/>
<polygon fill="midnightblue" stroke="midnightblue" points="304.273,-18.0547 293.679,-18.112 301.997,-24.6741 304.273,-18.0547"/>
</g>
<!-- Node13 -->
<g id="node13" class="node"><title>Node13</title>
<polygon fill="none" stroke="#bfbfbf" points="342,-0.5 342,-19.5 398,-19.5 398,-0.5 342,-0.5"/>
<text text-anchor="middle" x="370" y="-7.5" font-family="Helvetica,sans-Serif" font-size="10.00">Rtypes.h</text>
</g>
<!-- Node12&#45;&gt;Node13 -->
<g id="edge14" class="edge"><title>Node12&#45;&gt;Node13</title>
<path fill="none" stroke="midnightblue" d="M435.111,-61.9751C423.034,-52.5199 403.333,-37.0961 388.76,-25.6871"/>
<polygon fill="midnightblue" stroke="midnightblue" points="390.9,-22.9177 380.869,-19.5091 386.585,-28.4295 390.9,-22.9177"/>
</g>
<!-- Node14 -->
<g id="node14" class="node"><title>Node14</title>
<polygon fill="none" stroke="#bfbfbf" points="416.5,-0.5 416.5,-19.5 475.5,-19.5 475.5,-0.5 416.5,-0.5"/>
<text text-anchor="middle" x="446" y="-7.5" font-family="Helvetica,sans-Serif" font-size="10.00">TObject.h</text>
</g>
<!-- Node12&#45;&gt;Node14 -->
<g id="edge15" class="edge"><title>Node12&#45;&gt;Node14</title>
<path fill="none" stroke="midnightblue" d="M446,-61.9751C446,-53.5803 446,-40.4806 446,-29.6631"/>
<polygon fill="midnightblue" stroke="midnightblue" points="449.5,-29.5091 446,-19.5091 442.5,-29.5091 449.5,-29.5091"/>
</g>
<!-- Node15 -->
<g id="node15" class="node"><title>Node15</title>
<polygon fill="none" stroke="#bfbfbf" points="494,-0.5 494,-19.5 610,-19.5 610,-0.5 494,-0.5"/>
<text text-anchor="middle" x="552" y="-7.5" font-family="Helvetica,sans-Serif" font-size="10.00">Common/Exceptions.h</text>
</g>
<!-- Node12&#45;&gt;Node15 -->
<g id="edge16" class="edge"><title>Node12&#45;&gt;Node15</title>
<path fill="none" stroke="midnightblue" d="M461.187,-61.9751C478.662,-52.1664 507.579,-35.9346 528.083,-24.425"/>
<polygon fill="midnightblue" stroke="midnightblue" points="529.834,-27.456 536.841,-19.5091 526.408,-21.3519 529.834,-27.456"/>
</g>
<!-- Node17 -->
<g id="node17" class="node"><title>Node17</title>
<polygon fill="none" stroke="#bfbfbf" points="631.5,-0.5 631.5,-19.5 700.5,-19.5 700.5,-0.5 631.5,-0.5"/>
<text text-anchor="middle" x="666" y="-7.5" font-family="Helvetica,sans-Serif" font-size="10.00">TObjArray.h</text>
</g>
<!-- Node16&#45;&gt;Node17 -->
<g id="edge18" class="edge"><title>Node16&#45;&gt;Node17</title>
<path fill="none" stroke="midnightblue" d="M668.289,-56.3993C667.889,-48.4664 667.384,-38.458 666.951,-29.8583"/>
<polygon fill="midnightblue" stroke="midnightblue" points="670.436,-29.4688 666.437,-19.6578 663.445,-29.8214 670.436,-29.4688"/>
</g>
<!-- Node18 -->
<g id="node18" class="node"><title>Node18</title>
<polygon fill="none" stroke="#bfbfbf" points="719,-0.5 719,-19.5 847,-19.5 847,-0.5 719,-0.5"/>
<text text-anchor="middle" x="783" y="-7.5" font-family="Helvetica,sans-Serif" font-size="10.00">Mergers/MergeInterface.h</text>
</g>
<!-- Node16&#45;&gt;Node18 -->
<g id="edge19" class="edge"><title>Node16&#45;&gt;Node18</title>
<path fill="none" stroke="midnightblue" d="M696.016,-56.3993C714.631,-46.6837 739.21,-33.8551 757.491,-24.3137"/>
<polygon fill="midnightblue" stroke="midnightblue" points="759.166,-27.3876 766.412,-19.6578 755.927,-21.182 759.166,-27.3876"/>
</g>
<!-- Node19&#45;&gt;Node6 -->
<g id="edge21" class="edge"><title>Node19&#45;&gt;Node6</title>
<path fill="none" stroke="midnightblue" d="M248.155,-61.9751C252.376,-53.3152 259.037,-39.6486 264.4,-28.6453"/>
<polygon fill="midnightblue" stroke="midnightblue" points="267.618,-30.0317 268.853,-19.5091 261.325,-26.9648 267.618,-30.0317"/>
</g>
<!-- Node19&#45;&gt;Node7 -->
<g id="edge22" class="edge"><title>Node19&#45;&gt;Node7</title>
<path fill="none" stroke="midnightblue" d="M215.345,-61.9751C180.444,-51.592 121.35,-34.0116 82.5003,-22.4538"/>
<polygon fill="midnightblue" stroke="midnightblue" points="83.1848,-19.0059 72.602,-19.5091 81.1888,-25.7153 83.1848,-19.0059"/>
</g>
</g>
</svg>
