<?xml version="1.0" encoding="UTF-8" standalone="no"?>
<!DOCTYPE svg PUBLIC "-//W3C//DTD SVG 1.1//EN"
 "http://www.w3.org/Graphics/SVG/1.1/DTD/svg11.dtd">
<!-- Generated by graphviz version 2.38.0 (20140413.2041)
 -->
<!-- Title: Modules/Example/src/BenchmarkTask.cxx Pages: 1 -->
<svg width="1282pt" height="341pt"
 viewBox="0.00 0.00 1282.00 341.00" xmlns="http://www.w3.org/2000/svg" xmlns:xlink="http://www.w3.org/1999/xlink">
<g id="graph0" class="graph" transform="scale(1 1) rotate(0) translate(4 337)">
<title>Modules/Example/src/BenchmarkTask.cxx</title>
<!-- Node1 -->
<g id="node1" class="node"><title>Node1</title>
<polygon fill="#bfbfbf" stroke="black" points="998.5,-302.5 998.5,-332.5 1109.5,-332.5 1109.5,-302.5 998.5,-302.5"/>
<text text-anchor="start" x="1006.5" y="-320.5" font-family="Helvetica,sans-Serif" font-size="10.00">Modules/Example/src</text>
<text text-anchor="middle" x="1054" y="-309.5" font-family="Helvetica,sans-Serif" font-size="10.00">/BenchmarkTask.cxx</text>
</g>
<!-- Node2 -->
<g id="node2" class="node"><title>Node2</title>
<g id="a_node2"><a xlink:href="BenchmarkTask_8h.html" target="_top" xlink:title="Example/BenchmarkTask.h">
<polygon fill="none" stroke="black" points="529.5,-241 529.5,-260 666.5,-260 666.5,-241 529.5,-241"/>
<text text-anchor="middle" x="598" y="-248" font-family="Helvetica,sans-Serif" font-size="10.00">Example/BenchmarkTask.h</text>
</a>
</g>
</g>
<!-- Node1&#45;&gt;Node2 -->
<g id="edge1" class="edge"><title>Node1&#45;&gt;Node2</title>
<path fill="none" stroke="midnightblue" d="M998.085,-308.53C914.875,-296.669 758.555,-274.386 667.905,-261.465"/>
<polygon fill="midnightblue" stroke="midnightblue" points="668.389,-257.998 657.995,-260.052 667.401,-264.928 668.389,-257.998"/>
</g>
<!-- Node21 -->
<g id="node21" class="node"><title>Node21</title>
<polygon fill="none" stroke="#bfbfbf" points="764.5,-235.5 764.5,-265.5 899.5,-265.5 899.5,-235.5 764.5,-235.5"/>
<text text-anchor="start" x="772.5" y="-253.5" font-family="Helvetica,sans-Serif" font-size="10.00">Configuration/Configuration</text>
<text text-anchor="middle" x="832" y="-242.5" font-family="Helvetica,sans-Serif" font-size="10.00">Factory.h</text>
</g>
<!-- Node1&#45;&gt;Node21 -->
<g id="edge28" class="edge"><title>Node1&#45;&gt;Node21</title>
<path fill="none" stroke="midnightblue" d="M1006.1,-302.476C972.082,-292.515 926.218,-279.086 890.104,-268.512"/>
<polygon fill="midnightblue" stroke="midnightblue" points="890.775,-265.062 880.194,-265.611 888.808,-271.78 890.775,-265.062"/>
</g>
<!-- Node22 -->
<g id="node22" class="node"><title>Node22</title>
<g id="a_node22"><a xlink:href="QcInfoLogger_8h.html" target="_top" xlink:title="QualityControl/QcInfoLogger.h">
<polygon fill="none" stroke="black" points="917.5,-241 917.5,-260 1066.5,-260 1066.5,-241 917.5,-241"/>
<text text-anchor="middle" x="992" y="-248" font-family="Helvetica,sans-Serif" font-size="10.00">QualityControl/QcInfoLogger.h</text>
</a>
</g>
</g>
<!-- Node1&#45;&gt;Node22 -->
<g id="edge29" class="edge"><title>Node1&#45;&gt;Node22</title>
<path fill="none" stroke="midnightblue" d="M1040.55,-302.396C1030.78,-292.161 1017.56,-278.296 1007.38,-267.622"/>
<polygon fill="midnightblue" stroke="midnightblue" points="1009.73,-265.015 1000.29,-260.195 1004.66,-269.846 1009.73,-265.015"/>
</g>
<!-- Node24 -->
<g id="node24" class="node"><title>Node24</title>
<polygon fill="none" stroke="#bfbfbf" points="1084.5,-241 1084.5,-260 1149.5,-260 1149.5,-241 1084.5,-241"/>
<text text-anchor="middle" x="1117" y="-248" font-family="Helvetica,sans-Serif" font-size="10.00">TCanvas.h</text>
</g>
<!-- Node1&#45;&gt;Node24 -->
<g id="edge31" class="edge"><title>Node1&#45;&gt;Node24</title>
<path fill="none" stroke="midnightblue" d="M1067.67,-302.396C1077.59,-292.161 1091.03,-278.296 1101.37,-267.622"/>
<polygon fill="midnightblue" stroke="midnightblue" points="1104.13,-269.811 1108.57,-260.195 1099.1,-264.939 1104.13,-269.811"/>
</g>
<!-- Node25 -->
<g id="node25" class="node"><title>Node25</title>
<polygon fill="none" stroke="#bfbfbf" points="1168,-241 1168,-260 1212,-260 1212,-241 1168,-241"/>
<text text-anchor="middle" x="1190" y="-248" font-family="Helvetica,sans-Serif" font-size="10.00">TH1.h</text>
</g>
<!-- Node1&#45;&gt;Node25 -->
<g id="edge32" class="edge"><title>Node1&#45;&gt;Node25</title>
<path fill="none" stroke="midnightblue" d="M1083.51,-302.396C1107.16,-291.092 1140.08,-275.361 1163.03,-264.39"/>
<polygon fill="midnightblue" stroke="midnightblue" points="1164.69,-267.477 1172.2,-260.007 1161.67,-261.161 1164.69,-267.477"/>
</g>
<!-- Node26 -->
<g id="node26" class="node"><title>Node26</title>
<polygon fill="none" stroke="#bfbfbf" points="1230,-241 1230,-260 1274,-260 1274,-241 1230,-241"/>
<text text-anchor="middle" x="1252" y="-248" font-family="Helvetica,sans-Serif" font-size="10.00">thread</text>
</g>
<!-- Node1&#45;&gt;Node26 -->
<g id="edge33" class="edge"><title>Node1&#45;&gt;Node26</title>
<path fill="none" stroke="midnightblue" d="M1107.31,-302.494C1140.43,-293.273 1183.66,-280.293 1221,-266 1222.42,-265.456 1223.87,-264.875 1225.32,-264.271"/>
<polygon fill="midnightblue" stroke="midnightblue" points="1227.08,-267.321 1234.81,-260.076 1224.25,-260.919 1227.08,-267.321"/>
</g>
<!-- Node3 -->
<g id="node3" class="node"><title>Node3</title>
<g id="a_node3"><a xlink:href="TaskInterface_8h.html" target="_top" xlink:title="QualityControl/TaskInterface.h">
<polygon fill="none" stroke="black" points="523,-179.5 523,-198.5 673,-198.5 673,-179.5 523,-179.5"/>
<text text-anchor="middle" x="598" y="-186.5" font-family="Helvetica,sans-Serif" font-size="10.00">QualityControl/TaskInterface.h</text>
</a>
</g>
</g>
<!-- Node2&#45;&gt;Node3 -->
<g id="edge2" class="edge"><title>Node2&#45;&gt;Node3</title>
<path fill="none" stroke="midnightblue" d="M598,-240.975C598,-232.58 598,-219.481 598,-208.663"/>
<polygon fill="midnightblue" stroke="midnightblue" points="601.5,-208.509 598,-198.509 594.5,-208.509 601.5,-208.509"/>
</g>
<!-- Node5 -->
<g id="node5" class="node"><title>Node5</title>
<polygon fill="none" stroke="#bfbfbf" points="0,-62 0,-81 52,-81 52,-62 0,-62"/>
<text text-anchor="middle" x="26" y="-69" font-family="Helvetica,sans-Serif" font-size="10.00">memory</text>
</g>
<!-- Node2&#45;&gt;Node5 -->
<g id="edge26" class="edge"><title>Node2&#45;&gt;Node5</title>
<path fill="none" stroke="midnightblue" d="M529.307,-247.051C392.17,-240.583 92.1002,-217.996 28,-143 15.9647,-128.919 17.4553,-106.861 20.6887,-91.1704"/>
<polygon fill="midnightblue" stroke="midnightblue" points="24.1818,-91.6238 23.1825,-81.0762 17.3861,-89.9448 24.1818,-91.6238"/>
</g>
<!-- Node6 -->
<g id="node6" class="node"><title>Node6</title>
<polygon fill="none" stroke="#bfbfbf" points="742.5,-0.5 742.5,-19.5 783.5,-19.5 783.5,-0.5 742.5,-0.5"/>
<text text-anchor="middle" x="763" y="-7.5" font-family="Helvetica,sans-Serif" font-size="10.00">string</text>
</g>
<!-- Node2&#45;&gt;Node6 -->
<g id="edge27" class="edge"><title>Node2&#45;&gt;Node6</title>
<path fill="none" stroke="midnightblue" d="M648.797,-240.982C723.845,-225.365 861.931,-184.328 922,-87 952.807,-37.0841 848.296,-19.3075 793.868,-13.5274"/>
<polygon fill="midnightblue" stroke="midnightblue" points="794,-10.0236 783.705,-12.5254 793.313,-16.9898 794,-10.0236"/>
</g>
<!-- Node20 -->
<g id="node20" class="node"><title>Node20</title>
<polygon fill="none" stroke="#bfbfbf" points="461,-179.5 461,-198.5 505,-198.5 505,-179.5 461,-179.5"/>
<text text-anchor="middle" x="483" y="-186.5" font-family="Helvetica,sans-Serif" font-size="10.00">vector</text>
</g>
<!-- Node2&#45;&gt;Node20 -->
<g id="edge25" class="edge"><title>Node2&#45;&gt;Node20</title>
<path fill="none" stroke="midnightblue" d="M581.523,-240.975C562.395,-231.078 530.627,-214.642 508.348,-203.115"/>
<polygon fill="midnightblue" stroke="midnightblue" points="509.936,-199.996 499.446,-198.509 506.719,-206.213 509.936,-199.996"/>
</g>
<!-- Node4 -->
<g id="node4" class="node"><title>Node4</title>
<polygon fill="none" stroke="#bfbfbf" points="689.5,-0.5 689.5,-19.5 724.5,-19.5 724.5,-0.5 689.5,-0.5"/>
<text text-anchor="middle" x="707" y="-7.5" font-family="Helvetica,sans-Serif" font-size="10.00">map</text>
</g>
<!-- Node3&#45;&gt;Node4 -->
<g id="edge3" class="edge"><title>Node3&#45;&gt;Node4</title>
<path fill="none" stroke="midnightblue" d="M631.424,-179.433C650.708,-172.727 673.701,-161.374 687,-143 711.496,-109.156 711.412,-57.5311 709.217,-29.9428"/>
<polygon fill="midnightblue" stroke="midnightblue" points="712.673,-29.323 708.213,-19.7128 705.707,-30.007 712.673,-29.323"/>
</g>
<!-- Node3&#45;&gt;Node5 -->
<g id="edge4" class="edge"><title>Node3&#45;&gt;Node5</title>
<path fill="none" stroke="midnightblue" d="M522.905,-179.841C519.898,-179.55 516.921,-179.269 514,-179 461.955,-174.216 85.2395,-176.352 45,-143 29.9334,-130.512 26.1287,-107.449 25.4824,-91.1053"/>
<polygon fill="midnightblue" stroke="midnightblue" points="28.9823,-91.062 25.4399,-81.0769 21.9824,-91.0917 28.9823,-91.062"/>
</g>
<!-- Node3&#45;&gt;Node6 -->
<g id="edge5" class="edge"><title>Node3&#45;&gt;Node6</title>
<path fill="none" stroke="midnightblue" d="M638.007,-179.485C660.704,-172.865 688.235,-161.584 707,-143 739.18,-111.131 753.904,-57.8907 759.731,-29.7514"/>
<polygon fill="midnightblue" stroke="midnightblue" points="763.218,-30.1503 761.655,-19.6714 756.342,-28.8379 763.218,-30.1503"/>
</g>
<!-- Node7 -->
<g id="node7" class="node"><title>Node7</title>
<polygon fill="none" stroke="#bfbfbf" points="850.5,-0.5 850.5,-19.5 933.5,-19.5 933.5,-0.5 850.5,-0.5"/>
<text text-anchor="middle" x="892" y="-7.5" font-family="Helvetica,sans-Serif" font-size="10.00">unordered_map</text>
</g>
<!-- Node3&#45;&gt;Node7 -->
<g id="edge6" class="edge"><title>Node3&#45;&gt;Node7</title>
<path fill="none" stroke="midnightblue" d="M649.475,-179.495C732.363,-164.633 889.44,-131.255 922,-87 935.458,-68.7078 920.351,-43.5719 907.143,-27.3058"/>
<polygon fill="midnightblue" stroke="midnightblue" points="909.755,-24.9744 900.571,-19.6914 904.456,-29.5484 909.755,-24.9744"/>
</g>
<!-- Node8 -->
<g id="node8" class="node"><title>Node8</title>
<polygon fill="none" stroke="#bfbfbf" points="54.5,-123.5 54.5,-142.5 179.5,-142.5 179.5,-123.5 54.5,-123.5"/>
<text text-anchor="middle" x="117" y="-130.5" font-family="Helvetica,sans-Serif" font-size="10.00">Framework/InitContext.h</text>
</g>
<!-- Node3&#45;&gt;Node8 -->
<g id="edge7" class="edge"><title>Node3&#45;&gt;Node8</title>
<path fill="none" stroke="midnightblue" d="M522.706,-179.851C427.276,-169.5 266.927,-152.027 190.094,-143.108"/>
<polygon fill="midnightblue" stroke="midnightblue" points="190.161,-139.592 179.822,-141.908 189.348,-146.545 190.161,-139.592"/>
</g>
<!-- Node9 -->
<g id="node9" class="node"><title>Node9</title>
<polygon fill="none" stroke="#bfbfbf" points="198,-123.5 198,-142.5 358,-142.5 358,-123.5 198,-123.5"/>
<text text-anchor="middle" x="278" y="-130.5" font-family="Helvetica,sans-Serif" font-size="10.00">Framework/ProcessingContext.h</text>
</g>
<!-- Node3&#45;&gt;Node9 -->
<g id="edge8" class="edge"><title>Node3&#45;&gt;Node9</title>
<path fill="none" stroke="midnightblue" d="M547.295,-179.444C490.653,-169.885 399.004,-154.419 338.621,-144.23"/>
<polygon fill="midnightblue" stroke="midnightblue" points="338.911,-140.729 328.468,-142.516 337.746,-147.632 338.911,-140.729"/>
</g>
<!-- Node10 -->
<g id="node10" class="node"><title>Node10</title>
<g id="a_node10"><a xlink:href="Activity_8h.html" target="_top" xlink:title="QualityControl/Activity.h">
<polygon fill="none" stroke="black" points="376.5,-123.5 376.5,-142.5 499.5,-142.5 499.5,-123.5 376.5,-123.5"/>
<text text-anchor="middle" x="438" y="-130.5" font-family="Helvetica,sans-Serif" font-size="10.00">QualityControl/Activity.h</text>
</a>
</g>
</g>
<!-- Node3&#45;&gt;Node10 -->
<g id="edge9" class="edge"><title>Node3&#45;&gt;Node10</title>
<path fill="none" stroke="midnightblue" d="M572.648,-179.444C545.731,-170.359 503.004,-155.939 472.913,-145.783"/>
<polygon fill="midnightblue" stroke="midnightblue" points="473.828,-142.398 463.234,-142.516 471.59,-149.031 473.828,-142.398"/>
</g>
<!-- Node11 -->
<g id="node11" class="node"><title>Node11</title>
<g id="a_node11"><a xlink:href="ObjectsManager_8h.html" target="_top" xlink:title="QualityControl/ObjectsManager.h">
<polygon fill="none" stroke="black" points="517.5,-123.5 517.5,-142.5 678.5,-142.5 678.5,-123.5 517.5,-123.5"/>
<text text-anchor="middle" x="598" y="-130.5" font-family="Helvetica,sans-Serif" font-size="10.00">QualityControl/ObjectsManager.h</text>
</a>
</g>
</g>
<!-- Node3&#45;&gt;Node11 -->
<g id="edge10" class="edge"><title>Node3&#45;&gt;Node11</title>
<path fill="none" stroke="midnightblue" d="M598,-179.083C598,-172.006 598,-161.861 598,-152.986"/>
<polygon fill="midnightblue" stroke="midnightblue" points="601.5,-152.751 598,-142.751 594.5,-152.751 601.5,-152.751"/>
</g>
<!-- Node11&#45;&gt;Node5 -->
<g id="edge24" class="edge"><title>Node11&#45;&gt;Node5</title>
<path fill="none" stroke="midnightblue" d="M517.26,-123.601C391.216,-110.49 152.754,-85.6851 62.1571,-76.2611"/>
<polygon fill="midnightblue" stroke="midnightblue" points="62.4159,-72.7692 52.1074,-75.2157 61.6916,-79.7316 62.4159,-72.7692"/>
</g>
<!-- Node11&#45;&gt;Node6 -->
<g id="edge23" class="edge"><title>Node11&#45;&gt;Node6</title>
<path fill="none" stroke="midnightblue" d="M609.602,-123.492C637.345,-103.147 707.803,-51.478 742.732,-25.8629"/>
<polygon fill="midnightblue" stroke="midnightblue" points="745.195,-28.3971 751.189,-19.661 741.056,-22.7523 745.195,-28.3971"/>
</g>
<!-- Node12 -->
<g id="node12" class="node"><title>Node12</title>
<g id="a_node12"><a xlink:href="MonitorObject_8h.html" target="_top" xlink:title="QualityControl/MonitorObject.h">
<polygon fill="none" stroke="black" points="489.5,-62 489.5,-81 640.5,-81 640.5,-62 489.5,-62"/>
<text text-anchor="middle" x="565" y="-69" font-family="Helvetica,sans-Serif" font-size="10.00">QualityControl/MonitorObject.h</text>
</a>
</g>
</g>
<!-- Node11&#45;&gt;Node12 -->
<g id="edge11" class="edge"><title>Node11&#45;&gt;Node12</title>
<path fill="none" stroke="midnightblue" d="M593.272,-123.475C588.42,-114.727 580.734,-100.869 574.6,-89.8093"/>
<polygon fill="midnightblue" stroke="midnightblue" points="577.63,-88.0566 569.719,-81.0091 571.509,-91.4517 577.63,-88.0566"/>
</g>
<!-- Node16 -->
<g id="node16" class="node"><title>Node16</title>
<g id="a_node16"><a xlink:href="MonitorObjectCollection_8h.html" target="_top" xlink:title="QualityControl/MonitorObject\lCollection.h">
<polygon fill="none" stroke="black" points="249.5,-56.5 249.5,-86.5 392.5,-86.5 392.5,-56.5 249.5,-56.5"/>
<text text-anchor="start" x="257.5" y="-74.5" font-family="Helvetica,sans-Serif" font-size="10.00">QualityControl/MonitorObject</text>
<text text-anchor="middle" x="321" y="-63.5" font-family="Helvetica,sans-Serif" font-size="10.00">Collection.h</text>
</a>
</g>
</g>
<!-- Node11&#45;&gt;Node16 -->
<g id="edge17" class="edge"><title>Node11&#45;&gt;Node16</title>
<path fill="none" stroke="midnightblue" d="M558.313,-123.475C516.151,-114.419 448.499,-99.8869 396.194,-88.6518"/>
<polygon fill="midnightblue" stroke="midnightblue" points="396.795,-85.2012 386.283,-86.523 395.325,-92.0451 396.795,-85.2012"/>
</g>
<!-- Node19 -->
<g id="node19" class="node"><title>Node19</title>
<g id="a_node19"><a xlink:href="TaskConfig_8h.html" target="_top" xlink:title="QualityControl/TaskConfig.h">
<polygon fill="none" stroke="black" points="773,-62 773,-81 913,-81 913,-62 773,-62"/>
<text text-anchor="middle" x="843" y="-69" font-family="Helvetica,sans-Serif" font-size="10.00">QualityControl/TaskConfig.h</text>
</a>
</g>
</g>
<!-- Node11&#45;&gt;Node19 -->
<g id="edge20" class="edge"><title>Node11&#45;&gt;Node19</title>
<path fill="none" stroke="midnightblue" d="M633.103,-123.475C676.493,-112.937 750.409,-94.9863 797.947,-83.4415"/>
<polygon fill="midnightblue" stroke="midnightblue" points="799.071,-86.7703 807.963,-81.0091 797.419,-79.968 799.071,-86.7703"/>
</g>
<!-- Node12&#45;&gt;Node4 -->
<g id="edge13" class="edge"><title>Node12&#45;&gt;Node4</title>
<path fill="none" stroke="midnightblue" d="M585.345,-61.9751C610.206,-51.5579 652.358,-33.8959 679.936,-22.34"/>
<polygon fill="midnightblue" stroke="midnightblue" points="681.508,-25.4763 689.379,-18.3836 678.803,-19.0202 681.508,-25.4763"/>
</g>
<!-- Node12&#45;&gt;Node6 -->
<g id="edge12" class="edge"><title>Node12&#45;&gt;Node6</title>
<path fill="none" stroke="midnightblue" d="M593.369,-61.9751C630.217,-50.9019 694.306,-31.6428 732.275,-20.233"/>
<polygon fill="midnightblue" stroke="midnightblue" points="733.678,-23.4662 742.247,-17.2363 731.663,-16.7623 733.678,-23.4662"/>
</g>
<!-- Node13 -->
<g id="node13" class="node"><title>Node13</title>
<polygon fill="none" stroke="#bfbfbf" points="615,-0.5 615,-19.5 671,-19.5 671,-0.5 615,-0.5"/>
<text text-anchor="middle" x="643" y="-7.5" font-family="Helvetica,sans-Serif" font-size="10.00">Rtypes.h</text>
</g>
<!-- Node12&#45;&gt;Node13 -->
<g id="edge14" class="edge"><title>Node12&#45;&gt;Node13</title>
<path fill="none" stroke="midnightblue" d="M576.175,-61.9751C588.571,-52.5199 608.79,-37.0961 623.746,-25.6871"/>
<polygon fill="midnightblue" stroke="midnightblue" points="626.017,-28.357 631.845,-19.5091 621.772,-22.7914 626.017,-28.357"/>
</g>
<!-- Node14 -->
<g id="node14" class="node"><title>Node14</title>
<polygon fill="none" stroke="#bfbfbf" points="403.5,-0.5 403.5,-19.5 462.5,-19.5 462.5,-0.5 403.5,-0.5"/>
<text text-anchor="middle" x="433" y="-7.5" font-family="Helvetica,sans-Serif" font-size="10.00">TObject.h</text>
</g>
<!-- Node12&#45;&gt;Node14 -->
<g id="edge15" class="edge"><title>Node12&#45;&gt;Node14</title>
<path fill="none" stroke="midnightblue" d="M546.088,-61.9751C523.837,-51.9455 486.688,-35.2002 461.074,-23.6546"/>
<polygon fill="midnightblue" stroke="midnightblue" points="462.432,-20.4277 451.877,-19.5091 459.556,-26.8094 462.432,-20.4277"/>
</g>
<!-- Node15 -->
<g id="node15" class="node"><title>Node15</title>
<polygon fill="none" stroke="#bfbfbf" points="481,-0.5 481,-19.5 597,-19.5 597,-0.5 481,-0.5"/>
<text text-anchor="middle" x="539" y="-7.5" font-family="Helvetica,sans-Serif" font-size="10.00">Common/Exceptions.h</text>
</g>
<!-- Node12&#45;&gt;Node15 -->
<g id="edge16" class="edge"><title>Node12&#45;&gt;Node15</title>
<path fill="none" stroke="midnightblue" d="M561.275,-61.9751C557.529,-53.4035 551.64,-39.9269 546.858,-28.983"/>
<polygon fill="midnightblue" stroke="midnightblue" points="549.93,-27.271 542.718,-19.5091 543.515,-30.0739 549.93,-27.271"/>
</g>
<!-- Node17 -->
<g id="node17" class="node"><title>Node17</title>
<polygon fill="none" stroke="#bfbfbf" points="169.5,-0.5 169.5,-19.5 238.5,-19.5 238.5,-0.5 169.5,-0.5"/>
<text text-anchor="middle" x="204" y="-7.5" font-family="Helvetica,sans-Serif" font-size="10.00">TObjArray.h</text>
</g>
<!-- Node16&#45;&gt;Node17 -->
<g id="edge18" class="edge"><title>Node16&#45;&gt;Node17</title>
<path fill="none" stroke="midnightblue" d="M293.273,-56.3993C274.168,-46.6837 248.942,-33.8551 230.18,-24.3137"/>
<polygon fill="midnightblue" stroke="midnightblue" points="231.525,-21.071 221.025,-19.6578 228.352,-27.3106 231.525,-21.071"/>
</g>
<!-- Node18 -->
<g id="node18" class="node"><title>Node18</title>
<polygon fill="none" stroke="#bfbfbf" points="257,-0.5 257,-19.5 385,-19.5 385,-0.5 257,-0.5"/>
<text text-anchor="middle" x="321" y="-7.5" font-family="Helvetica,sans-Serif" font-size="10.00">Mergers/MergeInterface.h</text>
</g>
<!-- Node16&#45;&gt;Node18 -->
<g id="edge19" class="edge"><title>Node16&#45;&gt;Node18</title>
<path fill="none" stroke="midnightblue" d="M321,-56.3993C321,-48.4664 321,-38.458 321,-29.8583"/>
<polygon fill="midnightblue" stroke="midnightblue" points="324.5,-29.6577 321,-19.6578 317.5,-29.6578 324.5,-29.6577"/>
</g>
<!-- Node19&#45;&gt;Node6 -->
<g id="edge21" class="edge"><title>Node19&#45;&gt;Node6</title>
<path fill="none" stroke="midnightblue" d="M831.538,-61.9751C818.825,-52.5199 798.087,-37.0961 782.747,-25.6871"/>
<polygon fill="midnightblue" stroke="midnightblue" points="784.554,-22.6686 774.441,-19.5091 780.376,-28.2854 784.554,-22.6686"/>
</g>
<!-- Node19&#45;&gt;Node7 -->
<g id="edge22" class="edge"><title>Node19&#45;&gt;Node7</title>
<path fill="none" stroke="midnightblue" d="M850.021,-61.9751C857.443,-52.9617 869.333,-38.5246 878.567,-27.3118"/>
<polygon fill="midnightblue" stroke="midnightblue" points="881.337,-29.4534 884.993,-19.5091 875.934,-25.0034 881.337,-29.4534"/>
</g>
<!-- Node23 -->
<g id="node23" class="node"><title>Node23</title>
<polygon fill="none" stroke="#bfbfbf" points="1007,-179.5 1007,-198.5 1137,-198.5 1137,-179.5 1007,-179.5"/>
<text text-anchor="middle" x="1072" y="-186.5" font-family="Helvetica,sans-Serif" font-size="10.00">InfoLogger/InfoLogger.hxx</text>
</g>
<!-- Node22&#45;&gt;Node23 -->
<g id="edge30" class="edge"><title>Node22&#45;&gt;Node23</title>
<path fill="none" stroke="midnightblue" d="M1003.46,-240.975C1016.17,-231.52 1036.91,-216.096 1052.25,-204.687"/>
<polygon fill="midnightblue" stroke="midnightblue" points="1054.62,-207.285 1060.56,-198.509 1050.45,-201.669 1054.62,-207.285"/>
</g>
</g>
</svg>
