<?xml version="1.0" encoding="UTF-8" standalone="no"?>
<!DOCTYPE svg PUBLIC "-//W3C//DTD SVG 1.1//EN"
 "http://www.w3.org/Graphics/SVG/1.1/DTD/svg11.dtd">
<!-- Generated by graphviz version 2.38.0 (20140413.2041)
 -->
<!-- Title: Modules/Example/include/Example/BenchmarkTask.h Pages: 1 -->
<svg width="1152pt" height="274pt"
 viewBox="0.00 0.00 1151.50 274.00" xmlns="http://www.w3.org/2000/svg" xmlns:xlink="http://www.w3.org/1999/xlink">
<g id="graph0" class="graph" transform="scale(1 1) rotate(0) translate(4 270)">
<title>Modules/Example/include/Example/BenchmarkTask.h</title>
<!-- Node1 -->
<g id="node1" class="node"><title>Node1</title>
<polygon fill="#bfbfbf" stroke="black" points="776.5,-235.5 776.5,-265.5 916.5,-265.5 916.5,-235.5 776.5,-235.5"/>
<text text-anchor="start" x="784.5" y="-253.5" font-family="Helvetica,sans-Serif" font-size="10.00">Modules/Example/include</text>
<text text-anchor="middle" x="846.5" y="-242.5" font-family="Helvetica,sans-Serif" font-size="10.00">/Example/BenchmarkTask.h</text>
</g>
<!-- Node2 -->
<g id="node2" class="node"><title>Node2</title>
<g id="a_node2"><a xlink:href="TaskInterface_8h.html" target="_top" xlink:title="QualityControl/TaskInterface.h">
<polygon fill="none" stroke="black" points="547.5,-179.5 547.5,-198.5 697.5,-198.5 697.5,-179.5 547.5,-179.5"/>
<text text-anchor="middle" x="622.5" y="-186.5" font-family="Helvetica,sans-Serif" font-size="10.00">QualityControl/TaskInterface.h</text>
</a>
</g>
</g>
<!-- Node1&#45;&gt;Node2 -->
<g id="edge1" class="edge"><title>Node1&#45;&gt;Node2</title>
<path fill="none" stroke="midnightblue" d="M793.699,-235.475C754.21,-224.986 700.944,-210.837 664.371,-201.122"/>
<polygon fill="midnightblue" stroke="midnightblue" points="665.087,-197.691 654.524,-198.506 663.29,-204.456 665.087,-197.691"/>
</g>
<!-- Node4 -->
<g id="node4" class="node"><title>Node4</title>
<polygon fill="none" stroke="#bfbfbf" points="279.5,-62 279.5,-81 331.5,-81 331.5,-62 279.5,-62"/>
<text text-anchor="middle" x="305.5" y="-69" font-family="Helvetica,sans-Serif" font-size="10.00">memory</text>
</g>
<!-- Node1&#45;&gt;Node4 -->
<g id="edge25" class="edge"><title>Node1&#45;&gt;Node4</title>
<path fill="none" stroke="midnightblue" d="M776.416,-245.654C646.238,-236.943 374.833,-210.908 314.5,-143 302.102,-129.045 301.214,-106.964 302.562,-91.2339"/>
<polygon fill="midnightblue" stroke="midnightblue" points="306.061,-91.4617 303.806,-81.1095 299.113,-90.6079 306.061,-91.4617"/>
</g>
<!-- Node5 -->
<g id="node5" class="node"><title>Node5</title>
<polygon fill="none" stroke="#bfbfbf" points="573,-0.5 573,-19.5 614,-19.5 614,-0.5 573,-0.5"/>
<text text-anchor="middle" x="593.5" y="-7.5" font-family="Helvetica,sans-Serif" font-size="10.00">string</text>
</g>
<!-- Node1&#45;&gt;Node5 -->
<g id="edge26" class="edge"><title>Node1&#45;&gt;Node5</title>
<path fill="none" stroke="midnightblue" d="M895.336,-235.466C957.606,-215.096 1052.78,-174.123 1013.5,-123 965.123,-60.0319 712.46,-24.9037 624.07,-14.3957"/>
<polygon fill="midnightblue" stroke="midnightblue" points="624.468,-10.9185 614.129,-13.236 623.657,-17.8713 624.468,-10.9185"/>
</g>
<!-- Node19 -->
<g id="node19" class="node"><title>Node19</title>
<polygon fill="none" stroke="#bfbfbf" points="1099.5,-179.5 1099.5,-198.5 1143.5,-198.5 1143.5,-179.5 1099.5,-179.5"/>
<text text-anchor="middle" x="1121.5" y="-186.5" font-family="Helvetica,sans-Serif" font-size="10.00">vector</text>
</g>
<!-- Node1&#45;&gt;Node19 -->
<g id="edge24" class="edge"><title>Node1&#45;&gt;Node19</title>
<path fill="none" stroke="midnightblue" d="M916.195,-235.477C963.947,-225.697 1028.68,-212.101 1085.5,-199 1086.77,-198.707 1088.07,-198.404 1089.37,-198.094"/>
<polygon fill="midnightblue" stroke="midnightblue" points="1090.55,-201.41 1099.45,-195.65 1088.9,-194.607 1090.55,-201.41"/>
</g>
<!-- Node3 -->
<g id="node3" class="node"><title>Node3</title>
<polygon fill="none" stroke="#bfbfbf" points="234,-0.5 234,-19.5 269,-19.5 269,-0.5 234,-0.5"/>
<text text-anchor="middle" x="251.5" y="-7.5" font-family="Helvetica,sans-Serif" font-size="10.00">map</text>
</g>
<!-- Node2&#45;&gt;Node3 -->
<g id="edge2" class="edge"><title>Node2&#45;&gt;Node3</title>
<path fill="none" stroke="midnightblue" d="M547.327,-183.4C469.17,-177.505 352.963,-165.276 314.5,-143 273.582,-119.302 258.858,-60.2394 253.871,-29.7978"/>
<polygon fill="midnightblue" stroke="midnightblue" points="257.3,-29.0599 252.402,-19.6656 250.373,-30.0643 257.3,-29.0599"/>
</g>
<!-- Node2&#45;&gt;Node4 -->
<g id="edge3" class="edge"><title>Node2&#45;&gt;Node4</title>
<path fill="none" stroke="midnightblue" d="M547.245,-184.765C472.539,-180.1 364.652,-168.974 332.5,-143 316.761,-130.285 310.186,-107.269 307.446,-90.9981"/>
<polygon fill="midnightblue" stroke="midnightblue" points="310.905,-90.4617 306.096,-81.0213 303.968,-91.4003 310.905,-90.4617"/>
</g>
<!-- Node2&#45;&gt;Node5 -->
<g id="edge4" class="edge"><title>Node2&#45;&gt;Node5</title>
<path fill="none" stroke="midnightblue" d="M596.996,-179.472C580.513,-172.478 560.361,-160.792 550.5,-143 529.179,-104.531 560.104,-53.8332 579.624,-27.8876"/>
<polygon fill="midnightblue" stroke="midnightblue" points="582.543,-29.8361 585.948,-19.8033 577.03,-25.5229 582.543,-29.8361"/>
</g>
<!-- Node6 -->
<g id="node6" class="node"><title>Node6</title>
<polygon fill="none" stroke="#bfbfbf" points="812,-0.5 812,-19.5 895,-19.5 895,-0.5 812,-0.5"/>
<text text-anchor="middle" x="853.5" y="-7.5" font-family="Helvetica,sans-Serif" font-size="10.00">unordered_map</text>
</g>
<!-- Node2&#45;&gt;Node6 -->
<g id="edge5" class="edge"><title>Node2&#45;&gt;Node6</title>
<path fill="none" stroke="midnightblue" d="M697.771,-184.642C805.469,-179.054 992.896,-166.111 1013.5,-143 1058.79,-92.2027 950.021,-44.4705 889.968,-22.9595"/>
<polygon fill="midnightblue" stroke="midnightblue" points="891.022,-19.62 880.427,-19.6148 888.706,-26.2259 891.022,-19.62"/>
</g>
<!-- Node7 -->
<g id="node7" class="node"><title>Node7</title>
<polygon fill="none" stroke="#bfbfbf" points="560,-123.5 560,-142.5 685,-142.5 685,-123.5 560,-123.5"/>
<text text-anchor="middle" x="622.5" y="-130.5" font-family="Helvetica,sans-Serif" font-size="10.00">Framework/InitContext.h</text>
</g>
<!-- Node2&#45;&gt;Node7 -->
<g id="edge6" class="edge"><title>Node2&#45;&gt;Node7</title>
<path fill="none" stroke="midnightblue" d="M622.5,-179.083C622.5,-172.006 622.5,-161.861 622.5,-152.986"/>
<polygon fill="midnightblue" stroke="midnightblue" points="626,-152.751 622.5,-142.751 619,-152.751 626,-152.751"/>
</g>
<!-- Node8 -->
<g id="node8" class="node"><title>Node8</title>
<polygon fill="none" stroke="#bfbfbf" points="703.5,-123.5 703.5,-142.5 863.5,-142.5 863.5,-123.5 703.5,-123.5"/>
<text text-anchor="middle" x="783.5" y="-130.5" font-family="Helvetica,sans-Serif" font-size="10.00">Framework/ProcessingContext.h</text>
</g>
<!-- Node2&#45;&gt;Node8 -->
<g id="edge7" class="edge"><title>Node2&#45;&gt;Node8</title>
<path fill="none" stroke="midnightblue" d="M648.011,-179.444C675.096,-170.359 718.09,-155.939 748.369,-145.783"/>
<polygon fill="midnightblue" stroke="midnightblue" points="749.74,-149.015 758.108,-142.516 747.514,-142.378 749.74,-149.015"/>
</g>
<!-- Node9 -->
<g id="node9" class="node"><title>Node9</title>
<g id="a_node9"><a xlink:href="Activity_8h.html" target="_top" xlink:title="QualityControl/Activity.h">
<polygon fill="none" stroke="black" points="882,-123.5 882,-142.5 1005,-142.5 1005,-123.5 882,-123.5"/>
<text text-anchor="middle" x="943.5" y="-130.5" font-family="Helvetica,sans-Serif" font-size="10.00">QualityControl/Activity.h</text>
</a>
</g>
</g>
<!-- Node2&#45;&gt;Node9 -->
<g id="edge8" class="edge"><title>Node2&#45;&gt;Node9</title>
<path fill="none" stroke="midnightblue" d="M673.363,-179.444C730.183,-169.885 822.117,-154.419 882.69,-144.23"/>
<polygon fill="midnightblue" stroke="midnightblue" points="883.594,-147.627 892.875,-142.516 882.432,-140.724 883.594,-147.627"/>
</g>
<!-- Node10 -->
<g id="node10" class="node"><title>Node10</title>
<g id="a_node10"><a xlink:href="ObjectsManager_8h.html" target="_top" xlink:title="QualityControl/ObjectsManager.h">
<polygon fill="none" stroke="black" points="342,-123.5 342,-142.5 503,-142.5 503,-123.5 342,-123.5"/>
<text text-anchor="middle" x="422.5" y="-130.5" font-family="Helvetica,sans-Serif" font-size="10.00">QualityControl/ObjectsManager.h</text>
</a>
</g>
</g>
<!-- Node2&#45;&gt;Node10 -->
<g id="edge9" class="edge"><title>Node2&#45;&gt;Node10</title>
<path fill="none" stroke="midnightblue" d="M590.809,-179.444C556.432,-170.162 501.423,-155.309 463.711,-145.127"/>
<polygon fill="midnightblue" stroke="midnightblue" points="464.609,-141.744 454.042,-142.516 462.784,-148.502 464.609,-141.744"/>
</g>
<!-- Node10&#45;&gt;Node4 -->
<g id="edge23" class="edge"><title>Node10&#45;&gt;Node4</title>
<path fill="none" stroke="midnightblue" d="M405.737,-123.475C386.275,-113.578 353.955,-97.1416 331.289,-85.6151"/>
<polygon fill="midnightblue" stroke="midnightblue" points="332.732,-82.4224 322.232,-81.0091 329.559,-88.6619 332.732,-82.4224"/>
</g>
<!-- Node10&#45;&gt;Node5 -->
<g id="edge22" class="edge"><title>Node10&#45;&gt;Node5</title>
<path fill="none" stroke="midnightblue" d="M442.68,-123.369C460.869,-115.178 487.981,-101.925 509.5,-87 535.609,-68.8921 562.219,-43.3699 578.299,-27.0041"/>
<polygon fill="midnightblue" stroke="midnightblue" points="580.855,-29.396 585.299,-19.7781 575.827,-24.5256 580.855,-29.396"/>
</g>
<!-- Node11 -->
<g id="node11" class="node"><title>Node11</title>
<g id="a_node11"><a xlink:href="MonitorObject_8h.html" target="_top" xlink:title="QualityControl/MonitorObject.h">
<polygon fill="none" stroke="black" points="350,-62 350,-81 501,-81 501,-62 350,-62"/>
<text text-anchor="middle" x="425.5" y="-69" font-family="Helvetica,sans-Serif" font-size="10.00">QualityControl/MonitorObject.h</text>
</a>
</g>
</g>
<!-- Node10&#45;&gt;Node11 -->
<g id="edge10" class="edge"><title>Node10&#45;&gt;Node11</title>
<path fill="none" stroke="midnightblue" d="M422.93,-123.475C423.353,-115.08 424.014,-101.981 424.559,-91.1631"/>
<polygon fill="midnightblue" stroke="midnightblue" points="428.063,-91.1727 425.071,-81.0091 421.072,-90.8201 428.063,-91.1727"/>
</g>
<!-- Node15 -->
<g id="node15" class="node"><title>Node15</title>
<g id="a_node15"><a xlink:href="MonitorObjectCollection_8h.html" target="_top" xlink:title="QualityControl/MonitorObject\lCollection.h">
<polygon fill="none" stroke="black" points="80,-56.5 80,-86.5 223,-86.5 223,-56.5 80,-56.5"/>
<text text-anchor="start" x="88" y="-74.5" font-family="Helvetica,sans-Serif" font-size="10.00">QualityControl/MonitorObject</text>
<text text-anchor="middle" x="151.5" y="-63.5" font-family="Helvetica,sans-Serif" font-size="10.00">Collection.h</text>
</a>
</g>
</g>
<!-- Node10&#45;&gt;Node15 -->
<g id="edge16" class="edge"><title>Node10&#45;&gt;Node15</title>
<path fill="none" stroke="midnightblue" d="M383.672,-123.475C342.51,-114.438 276.512,-99.9473 225.385,-88.7219"/>
<polygon fill="midnightblue" stroke="midnightblue" points="225.887,-85.249 215.369,-86.523 224.386,-92.0861 225.887,-85.249"/>
</g>
<!-- Node18 -->
<g id="node18" class="node"><title>Node18</title>
<g id="a_node18"><a xlink:href="TaskConfig_8h.html" target="_top" xlink:title="QualityControl/TaskConfig.h">
<polygon fill="none" stroke="black" points="595.5,-62 595.5,-81 735.5,-81 735.5,-62 595.5,-62"/>
<text text-anchor="middle" x="665.5" y="-69" font-family="Helvetica,sans-Serif" font-size="10.00">QualityControl/TaskConfig.h</text>
</a>
</g>
</g>
<!-- Node10&#45;&gt;Node18 -->
<g id="edge19" class="edge"><title>Node10&#45;&gt;Node18</title>
<path fill="none" stroke="midnightblue" d="M457.316,-123.475C500.352,-112.937 573.665,-94.9863 620.815,-83.4415"/>
<polygon fill="midnightblue" stroke="midnightblue" points="621.868,-86.787 630.749,-81.0091 620.203,-79.9879 621.868,-86.787"/>
</g>
<!-- Node11&#45;&gt;Node3 -->
<g id="edge12" class="edge"><title>Node11&#45;&gt;Node3</title>
<path fill="none" stroke="midnightblue" d="M400.57,-61.9751C368.38,-50.9674 312.533,-31.8704 279.095,-20.4363"/>
<polygon fill="midnightblue" stroke="midnightblue" points="280.083,-17.0752 269.489,-17.1513 277.818,-23.6987 280.083,-17.0752"/>
</g>
<!-- Node11&#45;&gt;Node5 -->
<g id="edge11" class="edge"><title>Node11&#45;&gt;Node5</title>
<path fill="none" stroke="midnightblue" d="M449.57,-61.9751C479.582,-51.346 530.89,-33.1744 563.45,-21.6426"/>
<polygon fill="midnightblue" stroke="midnightblue" points="564.651,-24.9303 572.909,-18.2926 562.314,-18.332 564.651,-24.9303"/>
</g>
<!-- Node12 -->
<g id="node12" class="node"><title>Node12</title>
<polygon fill="none" stroke="#bfbfbf" points="421.5,-0.5 421.5,-19.5 477.5,-19.5 477.5,-0.5 421.5,-0.5"/>
<text text-anchor="middle" x="449.5" y="-7.5" font-family="Helvetica,sans-Serif" font-size="10.00">Rtypes.h</text>
</g>
<!-- Node11&#45;&gt;Node12 -->
<g id="edge13" class="edge"><title>Node11&#45;&gt;Node12</title>
<path fill="none" stroke="midnightblue" d="M428.939,-61.9751C432.396,-53.4035 437.832,-39.9269 442.246,-28.983"/>
<polygon fill="midnightblue" stroke="midnightblue" points="445.573,-30.0924 446.068,-19.5091 439.081,-27.4738 445.573,-30.0924"/>
</g>
<!-- Node13 -->
<g id="node13" class="node"><title>Node13</title>
<polygon fill="none" stroke="#bfbfbf" points="496,-0.5 496,-19.5 555,-19.5 555,-0.5 496,-0.5"/>
<text text-anchor="middle" x="525.5" y="-7.5" font-family="Helvetica,sans-Serif" font-size="10.00">TObject.h</text>
</g>
<!-- Node11&#45;&gt;Node13 -->
<g id="edge14" class="edge"><title>Node11&#45;&gt;Node13</title>
<path fill="none" stroke="midnightblue" d="M439.828,-61.9751C456.164,-52.2548 483.102,-36.2266 502.412,-24.7372"/>
<polygon fill="midnightblue" stroke="midnightblue" points="504.395,-27.6303 511.199,-19.5091 500.815,-21.6146 504.395,-27.6303"/>
</g>
<!-- Node14 -->
<g id="node14" class="node"><title>Node14</title>
<polygon fill="none" stroke="#bfbfbf" points="287.5,-0.5 287.5,-19.5 403.5,-19.5 403.5,-0.5 287.5,-0.5"/>
<text text-anchor="middle" x="345.5" y="-7.5" font-family="Helvetica,sans-Serif" font-size="10.00">Common/Exceptions.h</text>
</g>
<!-- Node11&#45;&gt;Node14 -->
<g id="edge15" class="edge"><title>Node11&#45;&gt;Node14</title>
<path fill="none" stroke="midnightblue" d="M414.038,-61.9751C401.325,-52.5199 380.587,-37.0961 365.247,-25.6871"/>
<polygon fill="midnightblue" stroke="midnightblue" points="367.054,-22.6686 356.941,-19.5091 362.876,-28.2854 367.054,-22.6686"/>
</g>
<!-- Node16 -->
<g id="node16" class="node"><title>Node16</title>
<polygon fill="none" stroke="#bfbfbf" points="0,-0.5 0,-19.5 69,-19.5 69,-0.5 0,-0.5"/>
<text text-anchor="middle" x="34.5" y="-7.5" font-family="Helvetica,sans-Serif" font-size="10.00">TObjArray.h</text>
</g>
<!-- Node15&#45;&gt;Node16 -->
<g id="edge17" class="edge"><title>Node15&#45;&gt;Node16</title>
<path fill="none" stroke="midnightblue" d="M123.773,-56.3993C104.668,-46.6837 79.4419,-33.8551 60.6799,-24.3137"/>
<polygon fill="midnightblue" stroke="midnightblue" points="62.0247,-21.071 51.5245,-19.6578 58.8516,-27.3106 62.0247,-21.071"/>
</g>
<!-- Node17 -->
<g id="node17" class="node"><title>Node17</title>
<polygon fill="none" stroke="#bfbfbf" points="87.5,-0.5 87.5,-19.5 215.5,-19.5 215.5,-0.5 87.5,-0.5"/>
<text text-anchor="middle" x="151.5" y="-7.5" font-family="Helvetica,sans-Serif" font-size="10.00">Mergers/MergeInterface.h</text>
</g>
<!-- Node15&#45;&gt;Node17 -->
<g id="edge18" class="edge"><title>Node15&#45;&gt;Node17</title>
<path fill="none" stroke="midnightblue" d="M151.5,-56.3993C151.5,-48.4664 151.5,-38.458 151.5,-29.8583"/>
<polygon fill="midnightblue" stroke="midnightblue" points="155,-29.6577 151.5,-19.6578 148,-29.6578 155,-29.6577"/>
</g>
<!-- Node18&#45;&gt;Node5 -->
<g id="edge20" class="edge"><title>Node18&#45;&gt;Node5</title>
<path fill="none" stroke="midnightblue" d="M655.184,-61.9751C643.849,-52.6082 625.427,-37.3839 611.661,-26.0081"/>
<polygon fill="midnightblue" stroke="midnightblue" points="613.735,-23.1813 603.797,-19.5091 609.276,-28.5773 613.735,-23.1813"/>
</g>
<!-- Node18&#45;&gt;Node6 -->
<g id="edge21" class="edge"><title>Node18&#45;&gt;Node6</title>
<path fill="none" stroke="midnightblue" d="M692.436,-61.9751C725.103,-51.6362 780.319,-34.1611 816.843,-22.6017"/>
<polygon fill="midnightblue" stroke="midnightblue" points="818.136,-25.8634 826.614,-19.5091 816.024,-19.1897 818.136,-25.8634"/>
</g>
</g>
</svg>
