<?xml version="1.0" encoding="UTF-8" standalone="no"?>
<!DOCTYPE svg PUBLIC "-//W3C//DTD SVG 1.1//EN"
 "http://www.w3.org/Graphics/SVG/1.1/DTD/svg11.dtd">
<!-- Generated by graphviz version 2.38.0 (20140413.2041)
 -->
<!-- Title: Framework/src/CcdbDatabase.cxx Pages: 1 -->
<svg width="2292pt" height="319pt"
 viewBox="0.00 0.00 2292.00 319.00" xmlns="http://www.w3.org/2000/svg" xmlns:xlink="http://www.w3.org/1999/xlink">
<g id="graph0" class="graph" transform="scale(1 1) rotate(0) translate(4 315)">
<title>Framework/src/CcdbDatabase.cxx</title>
<!-- Node1 -->
<g id="node1" class="node"><title>Node1</title>
<polygon fill="#bfbfbf" stroke="black" points="1222,-291.5 1222,-310.5 1391,-310.5 1391,-291.5 1222,-291.5"/>
<text text-anchor="middle" x="1306.5" y="-298.5" font-family="Helvetica,sans-Serif" font-size="10.00">Framework/src/CcdbDatabase.cxx</text>
</g>
<!-- Node2 -->
<g id="node2" class="node"><title>Node2</title>
<g id="a_node2"><a xlink:href="CcdbDatabase_8h.html" target="_top" xlink:title="QualityControl/CcdbDatabase.h">
<polygon fill="none" stroke="black" points="121,-230 121,-249 276,-249 276,-230 121,-230"/>
<text text-anchor="middle" x="198.5" y="-237" font-family="Helvetica,sans-Serif" font-size="10.00">QualityControl/CcdbDatabase.h</text>
</a>
</g>
</g>
<!-- Node1&#45;&gt;Node2 -->
<g id="edge1" class="edge"><title>Node1&#45;&gt;Node2</title>
<path fill="none" stroke="midnightblue" d="M1221.85,-295.454C1016.77,-284.441 494.856,-256.414 286.431,-245.222"/>
<polygon fill="midnightblue" stroke="midnightblue" points="286.32,-241.711 276.146,-244.67 285.944,-248.701 286.32,-241.711"/>
</g>
<!-- Node13 -->
<g id="node13" class="node"><title>Node13</title>
<polygon fill="none" stroke="#bfbfbf" points="537.5,-56.5 537.5,-75.5 653.5,-75.5 653.5,-56.5 537.5,-56.5"/>
<text text-anchor="middle" x="595.5" y="-63.5" font-family="Helvetica,sans-Serif" font-size="10.00">Common/Exceptions.h</text>
</g>
<!-- Node1&#45;&gt;Node13 -->
<g id="edge26" class="edge"><title>Node1&#45;&gt;Node13</title>
<path fill="none" stroke="midnightblue" d="M1221.91,-300.251C1048.77,-299.938 666.601,-294.702 623.5,-255 575.989,-211.236 584.765,-124.479 591.528,-86.0663"/>
<polygon fill="midnightblue" stroke="midnightblue" points="595.051,-86.2786 593.497,-75.7983 588.176,-84.9599 595.051,-86.2786"/>
</g>
<!-- Node16 -->
<g id="node16" class="node"><title>Node16</title>
<g id="a_node16"><a xlink:href="MonitorObject_8h.html" target="_top" xlink:title="QualityControl/MonitorObject.h">
<polygon fill="none" stroke="black" points="425,-112.5 425,-131.5 576,-131.5 576,-112.5 425,-112.5"/>
<text text-anchor="middle" x="500.5" y="-119.5" font-family="Helvetica,sans-Serif" font-size="10.00">QualityControl/MonitorObject.h</text>
</a>
</g>
</g>
<!-- Node1&#45;&gt;Node16 -->
<g id="edge22" class="edge"><title>Node1&#45;&gt;Node16</title>
<path fill="none" stroke="midnightblue" d="M1221.82,-298.826C1044.1,-295.767 644.145,-285.542 590.5,-255 545.633,-229.455 518.431,-171.271 506.925,-141.418"/>
<polygon fill="midnightblue" stroke="midnightblue" points="510.13,-139.991 503.393,-131.814 503.56,-142.407 510.13,-139.991"/>
</g>
<!-- Node17 -->
<g id="node17" class="node"><title>Node17</title>
<polygon fill="none" stroke="#bfbfbf" points="633,-230 633,-249 756,-249 756,-230 633,-230"/>
<text text-anchor="middle" x="694.5" y="-237" font-family="Helvetica,sans-Serif" font-size="10.00">QualityControl/Version.h</text>
</g>
<!-- Node1&#45;&gt;Node17 -->
<g id="edge23" class="edge"><title>Node1&#45;&gt;Node17</title>
<path fill="none" stroke="midnightblue" d="M1221.81,-296.066C1115.02,-290.393 925.97,-277.977 765.5,-255 757.794,-253.897 749.666,-252.48 741.769,-250.965"/>
<polygon fill="midnightblue" stroke="midnightblue" points="742.43,-247.528 731.94,-249.01 741.065,-254.393 742.43,-247.528"/>
</g>
<!-- Node18 -->
<g id="node18" class="node"><title>Node18</title>
<g id="a_node18"><a xlink:href="QcInfoLogger_8h.html" target="_top" xlink:title="QualityControl/QcInfoLogger.h">
<polygon fill="none" stroke="black" points="774,-230 774,-249 923,-249 923,-230 774,-230"/>
<text text-anchor="middle" x="848.5" y="-237" font-family="Helvetica,sans-Serif" font-size="10.00">QualityControl/QcInfoLogger.h</text>
</a>
</g>
</g>
<!-- Node1&#45;&gt;Node18 -->
<g id="edge24" class="edge"><title>Node1&#45;&gt;Node18</title>
<path fill="none" stroke="midnightblue" d="M1224.77,-291.467C1148.69,-283.222 1032.21,-269.829 931.5,-255 922.878,-253.73 913.774,-252.266 904.878,-250.767"/>
<polygon fill="midnightblue" stroke="midnightblue" points="905.409,-247.307 894.961,-249.068 904.227,-254.207 905.409,-247.307"/>
</g>
<!-- Node20 -->
<g id="node20" class="node"><title>Node20</title>
<polygon fill="none" stroke="#bfbfbf" points="940.5,-230 940.5,-249 1024.5,-249 1024.5,-230 940.5,-230"/>
<text text-anchor="middle" x="982.5" y="-237" font-family="Helvetica,sans-Serif" font-size="10.00">TBufferJSON.h</text>
</g>
<!-- Node1&#45;&gt;Node20 -->
<g id="edge27" class="edge"><title>Node1&#45;&gt;Node20</title>
<path fill="none" stroke="midnightblue" d="M1242.12,-291.494C1186.54,-283.652 1104.28,-270.842 1033.5,-255 1029.14,-254.024 1024.6,-252.896 1020.1,-251.709"/>
<polygon fill="midnightblue" stroke="midnightblue" points="1020.98,-248.323 1010.41,-249.054 1019.13,-255.074 1020.98,-248.323"/>
</g>
<!-- Node21 -->
<g id="node21" class="node"><title>Node21</title>
<polygon fill="none" stroke="#bfbfbf" points="1042.5,-230 1042.5,-249 1092.5,-249 1092.5,-230 1042.5,-230"/>
<text text-anchor="middle" x="1067.5" y="-237" font-family="Helvetica,sans-Serif" font-size="10.00">TH1F.h</text>
</g>
<!-- Node1&#45;&gt;Node21 -->
<g id="edge28" class="edge"><title>Node1&#45;&gt;Node21</title>
<path fill="none" stroke="midnightblue" d="M1256.39,-291.491C1214.7,-283.807 1154.05,-271.224 1102.5,-255 1100.36,-254.326 1098.17,-253.574 1095.98,-252.777"/>
<polygon fill="midnightblue" stroke="midnightblue" points="1097.12,-249.467 1086.53,-249.095 1094.58,-255.988 1097.12,-249.467"/>
</g>
<!-- Node22 -->
<g id="node22" class="node"><title>Node22</title>
<polygon fill="none" stroke="#bfbfbf" points="1111,-230 1111,-249 1158,-249 1158,-230 1111,-230"/>
<text text-anchor="middle" x="1134.5" y="-237" font-family="Helvetica,sans-Serif" font-size="10.00">TFile.h</text>
</g>
<!-- Node1&#45;&gt;Node22 -->
<g id="edge29" class="edge"><title>Node1&#45;&gt;Node22</title>
<path fill="none" stroke="midnightblue" d="M1277.18,-291.45C1248.85,-282.965 1204.84,-269.206 1167.5,-255 1165.89,-254.388 1164.25,-253.74 1162.6,-253.071"/>
<polygon fill="midnightblue" stroke="midnightblue" points="1163.79,-249.775 1153.21,-249.113 1161.06,-256.225 1163.79,-249.775"/>
</g>
<!-- Node23 -->
<g id="node23" class="node"><title>Node23</title>
<polygon fill="none" stroke="#bfbfbf" points="1176,-230 1176,-249 1223,-249 1223,-230 1176,-230"/>
<text text-anchor="middle" x="1199.5" y="-237" font-family="Helvetica,sans-Serif" font-size="10.00">TList.h</text>
</g>
<!-- Node1&#45;&gt;Node23 -->
<g id="edge30" class="edge"><title>Node1&#45;&gt;Node23</title>
<path fill="none" stroke="midnightblue" d="M1291.17,-291.475C1273.53,-281.666 1244.34,-265.435 1223.64,-253.925"/>
<polygon fill="midnightblue" stroke="midnightblue" points="1225.24,-250.81 1214.8,-249.009 1221.84,-256.928 1225.24,-250.81"/>
</g>
<!-- Node24 -->
<g id="node24" class="node"><title>Node24</title>
<polygon fill="none" stroke="#bfbfbf" points="1241,-230 1241,-249 1300,-249 1300,-230 1241,-230"/>
<text text-anchor="middle" x="1270.5" y="-237" font-family="Helvetica,sans-Serif" font-size="10.00">TROOT.h</text>
</g>
<!-- Node1&#45;&gt;Node24 -->
<g id="edge31" class="edge"><title>Node1&#45;&gt;Node24</title>
<path fill="none" stroke="midnightblue" d="M1301.34,-291.475C1296.05,-282.727 1287.66,-268.869 1280.97,-257.809"/>
<polygon fill="midnightblue" stroke="midnightblue" points="1283.82,-255.753 1275.65,-249.009 1277.83,-259.377 1283.82,-255.753"/>
</g>
<!-- Node25 -->
<g id="node25" class="node"><title>Node25</title>
<polygon fill="none" stroke="#bfbfbf" points="1318.5,-230 1318.5,-249 1366.5,-249 1366.5,-230 1318.5,-230"/>
<text text-anchor="middle" x="1342.5" y="-237" font-family="Helvetica,sans-Serif" font-size="10.00">TKey.h</text>
</g>
<!-- Node1&#45;&gt;Node25 -->
<g id="edge32" class="edge"><title>Node1&#45;&gt;Node25</title>
<path fill="none" stroke="midnightblue" d="M1311.66,-291.475C1316.95,-282.727 1325.34,-268.869 1332.03,-257.809"/>
<polygon fill="midnightblue" stroke="midnightblue" points="1335.17,-259.377 1337.35,-249.009 1329.18,-255.753 1335.17,-259.377"/>
</g>
<!-- Node26 -->
<g id="node26" class="node"><title>Node26</title>
<polygon fill="none" stroke="#bfbfbf" points="1385,-230 1385,-249 1472,-249 1472,-230 1385,-230"/>
<text text-anchor="middle" x="1428.5" y="-237" font-family="Helvetica,sans-Serif" font-size="10.00">TStreamerInfo.h</text>
</g>
<!-- Node1&#45;&gt;Node26 -->
<g id="edge33" class="edge"><title>Node1&#45;&gt;Node26</title>
<path fill="none" stroke="midnightblue" d="M1323.98,-291.475C1344.36,-281.534 1378.28,-264.995 1401.92,-253.461"/>
<polygon fill="midnightblue" stroke="midnightblue" points="1403.6,-256.538 1411.05,-249.009 1400.53,-250.247 1403.6,-256.538"/>
</g>
<!-- Node27 -->
<g id="node27" class="node"><title>Node27</title>
<polygon fill="none" stroke="#bfbfbf" points="1490,-230 1490,-249 1555,-249 1555,-230 1490,-230"/>
<text text-anchor="middle" x="1522.5" y="-237" font-family="Helvetica,sans-Serif" font-size="10.00">TSystem.h</text>
</g>
<!-- Node1&#45;&gt;Node27 -->
<g id="edge34" class="edge"><title>Node1&#45;&gt;Node27</title>
<path fill="none" stroke="midnightblue" d="M1343.64,-291.457C1379.24,-283.03 1434.39,-269.358 1481.5,-255 1484.12,-254.202 1486.82,-253.34 1489.52,-252.446"/>
<polygon fill="midnightblue" stroke="midnightblue" points="1490.87,-255.684 1499.2,-249.14 1488.61,-249.06 1490.87,-255.684"/>
</g>
<!-- Node28 -->
<g id="node28" class="node"><title>Node28</title>
<polygon fill="none" stroke="#bfbfbf" points="1573.5,-230 1573.5,-249 1619.5,-249 1619.5,-230 1573.5,-230"/>
<text text-anchor="middle" x="1596.5" y="-237" font-family="Helvetica,sans-Serif" font-size="10.00">chrono</text>
</g>
<!-- Node1&#45;&gt;Node28 -->
<g id="edge35" class="edge"><title>Node1&#45;&gt;Node28</title>
<path fill="none" stroke="midnightblue" d="M1385.62,-291.464C1437.3,-284.61 1505.84,-273.085 1564.5,-255 1566.38,-254.42 1568.29,-253.757 1570.2,-253.039"/>
<polygon fill="midnightblue" stroke="midnightblue" points="1571.66,-256.226 1579.54,-249.146 1568.96,-249.765 1571.66,-256.226"/>
</g>
<!-- Node29 -->
<g id="node29" class="node"><title>Node29</title>
<polygon fill="none" stroke="#bfbfbf" points="1637.5,-230 1637.5,-249 1689.5,-249 1689.5,-230 1637.5,-230"/>
<text text-anchor="middle" x="1663.5" y="-237" font-family="Helvetica,sans-Serif" font-size="10.00">sstream</text>
</g>
<!-- Node1&#45;&gt;Node29 -->
<g id="edge36" class="edge"><title>Node1&#45;&gt;Node29</title>
<path fill="none" stroke="midnightblue" d="M1391.07,-294.082C1456.71,-288.081 1549.53,-276.5 1628.5,-255 1630.94,-254.335 1633.44,-253.542 1635.93,-252.674"/>
<polygon fill="midnightblue" stroke="midnightblue" points="1637.2,-255.933 1645.28,-249.073 1634.69,-249.401 1637.2,-255.933"/>
</g>
<!-- Node30 -->
<g id="node30" class="node"><title>Node30</title>
<polygon fill="none" stroke="#bfbfbf" points="1707.5,-230 1707.5,-249 1785.5,-249 1785.5,-230 1707.5,-230"/>
<text text-anchor="middle" x="1746.5" y="-237" font-family="Helvetica,sans-Serif" font-size="10.00">unordered_set</text>
</g>
<!-- Node1&#45;&gt;Node30 -->
<g id="edge37" class="edge"><title>Node1&#45;&gt;Node30</title>
<path fill="none" stroke="midnightblue" d="M1391.31,-294.667C1471.18,-288.61 1593.85,-276.632 1698.5,-255 1702.72,-254.128 1707.1,-253.051 1711.43,-251.881"/>
<polygon fill="midnightblue" stroke="midnightblue" points="1712.67,-255.166 1721.31,-249.034 1710.73,-248.439 1712.67,-255.166"/>
</g>
<!-- Node31 -->
<g id="node31" class="node"><title>Node31</title>
<polygon fill="none" stroke="#bfbfbf" points="1804,-230 1804,-249 1933,-249 1933,-230 1804,-230"/>
<text text-anchor="middle" x="1868.5" y="-237" font-family="Helvetica,sans-Serif" font-size="10.00">boost/algorithm/string.hpp</text>
</g>
<!-- Node1&#45;&gt;Node31 -->
<g id="edge38" class="edge"><title>Node1&#45;&gt;Node31</title>
<path fill="none" stroke="midnightblue" d="M1391,-294.823C1488.55,-288.241 1653.65,-275.241 1794.5,-255 1802.34,-253.874 1810.6,-252.471 1818.65,-250.984"/>
<polygon fill="midnightblue" stroke="midnightblue" points="1819.52,-254.382 1828.69,-249.072 1818.21,-247.506 1819.52,-254.382"/>
</g>
<!-- Node32 -->
<g id="node32" class="node"><title>Node32</title>
<polygon fill="none" stroke="#bfbfbf" points="1951,-224.5 1951,-254.5 2052,-254.5 2052,-224.5 1951,-224.5"/>
<text text-anchor="start" x="1959" y="-242.5" font-family="Helvetica,sans-Serif" font-size="10.00">boost/property_tree</text>
<text text-anchor="middle" x="2001.5" y="-231.5" font-family="Helvetica,sans-Serif" font-size="10.00">/json_parser.hpp</text>
</g>
<!-- Node1&#45;&gt;Node32 -->
<g id="edge39" class="edge"><title>Node1&#45;&gt;Node32</title>
<path fill="none" stroke="midnightblue" d="M1391.12,-298.587C1511.51,-295.561 1739.14,-286.081 1940.87,-255.091"/>
<polygon fill="midnightblue" stroke="midnightblue" points="1941.42,-258.548 1950.76,-253.551 1940.34,-251.631 1941.42,-258.548"/>
</g>
<!-- Node33 -->
<g id="node33" class="node"><title>Node33</title>
<polygon fill="none" stroke="#bfbfbf" points="2070,-224.5 2070,-254.5 2171,-254.5 2171,-224.5 2070,-224.5"/>
<text text-anchor="start" x="2078" y="-242.5" font-family="Helvetica,sans-Serif" font-size="10.00">boost/property_tree</text>
<text text-anchor="middle" x="2120.5" y="-231.5" font-family="Helvetica,sans-Serif" font-size="10.00">/ptree.hpp</text>
</g>
<!-- Node1&#45;&gt;Node33 -->
<g id="edge40" class="edge"><title>Node1&#45;&gt;Node33</title>
<path fill="none" stroke="midnightblue" d="M1391.1,-299.945C1529.42,-298.755 1812.59,-291.725 2059.88,-255.072"/>
<polygon fill="midnightblue" stroke="midnightblue" points="2060.4,-258.533 2069.77,-253.588 2059.36,-251.611 2060.4,-258.533"/>
</g>
<!-- Node34 -->
<g id="node34" class="node"><title>Node34</title>
<polygon fill="none" stroke="#bfbfbf" points="2189,-230 2189,-249 2284,-249 2284,-230 2189,-230"/>
<text text-anchor="middle" x="2236.5" y="-237" font-family="Helvetica,sans-Serif" font-size="10.00">boost/foreach.hpp</text>
</g>
<!-- Node1&#45;&gt;Node34 -->
<g id="edge41" class="edge"><title>Node1&#45;&gt;Node34</title>
<path fill="none" stroke="midnightblue" d="M1391.05,-297.823C1579.67,-292.612 2030.04,-278.109 2180.5,-255 2186.35,-254.101 2192.48,-252.848 2198.44,-251.451"/>
<polygon fill="midnightblue" stroke="midnightblue" points="2199.39,-254.821 2208.24,-249.001 2197.69,-248.03 2199.39,-254.821"/>
</g>
<!-- Node3 -->
<g id="node3" class="node"><title>Node3</title>
<polygon fill="none" stroke="#bfbfbf" points="0,-168.5 0,-187.5 95,-187.5 95,-168.5 0,-168.5"/>
<text text-anchor="middle" x="47.5" y="-175.5" font-family="Helvetica,sans-Serif" font-size="10.00">CCDB/CcdbApi.h</text>
</g>
<!-- Node2&#45;&gt;Node3 -->
<g id="edge2" class="edge"><title>Node2&#45;&gt;Node3</title>
<path fill="none" stroke="midnightblue" d="M176.865,-229.975C151.076,-219.813 107.789,-202.756 78.4603,-191.2"/>
<polygon fill="midnightblue" stroke="midnightblue" points="79.6814,-187.919 69.0945,-187.509 77.1151,-194.432 79.6814,-187.919"/>
</g>
<!-- Node4 -->
<g id="node4" class="node"><title>Node4</title>
<g id="a_node4"><a xlink:href="DatabaseInterface_8h.html" target="_top" xlink:title="QualityControl/DatabaseInterface.h">
<polygon fill="none" stroke="black" points="113.5,-168.5 113.5,-187.5 283.5,-187.5 283.5,-168.5 113.5,-168.5"/>
<text text-anchor="middle" x="198.5" y="-175.5" font-family="Helvetica,sans-Serif" font-size="10.00">QualityControl/DatabaseInterface.h</text>
</a>
</g>
</g>
<!-- Node2&#45;&gt;Node4 -->
<g id="edge3" class="edge"><title>Node2&#45;&gt;Node4</title>
<path fill="none" stroke="midnightblue" d="M198.5,-229.975C198.5,-221.58 198.5,-208.481 198.5,-197.663"/>
<polygon fill="midnightblue" stroke="midnightblue" points="202,-197.509 198.5,-187.509 195,-197.509 202,-197.509"/>
</g>
<!-- Node5 -->
<g id="node5" class="node"><title>Node5</title>
<polygon fill="none" stroke="#bfbfbf" points="232,-0.5 232,-19.5 273,-19.5 273,-0.5 232,-0.5"/>
<text text-anchor="middle" x="252.5" y="-7.5" font-family="Helvetica,sans-Serif" font-size="10.00">string</text>
</g>
<!-- Node4&#45;&gt;Node5 -->
<g id="edge4" class="edge"><title>Node4&#45;&gt;Node5</title>
<path fill="none" stroke="midnightblue" d="M126.578,-168.456C81.5168,-161.455 29.4272,-149.767 15.5,-132 10.0162,-125.004 11.0904,-119.718 15.5,-112 57.6221,-38.2744 167.606,-18.3516 221.637,-12.9782"/>
<polygon fill="midnightblue" stroke="midnightblue" points="222.01,-16.4589 231.661,-12.0859 221.39,-9.48648 222.01,-16.4589"/>
</g>
<!-- Node6 -->
<g id="node6" class="node"><title>Node6</title>
<polygon fill="none" stroke="#bfbfbf" points="24.5,-112.5 24.5,-131.5 76.5,-131.5 76.5,-112.5 24.5,-112.5"/>
<text text-anchor="middle" x="50.5" y="-119.5" font-family="Helvetica,sans-Serif" font-size="10.00">memory</text>
</g>
<!-- Node4&#45;&gt;Node6 -->
<g id="edge5" class="edge"><title>Node4&#45;&gt;Node6</title>
<path fill="none" stroke="midnightblue" d="M175.049,-168.444C150.367,-159.438 111.315,-145.189 83.5233,-135.049"/>
<polygon fill="midnightblue" stroke="midnightblue" points="84.4352,-131.656 73.8413,-131.516 82.0359,-138.232 84.4352,-131.656"/>
</g>
<!-- Node7 -->
<g id="node7" class="node"><title>Node7</title>
<polygon fill="none" stroke="#bfbfbf" points="94.5,-112.5 94.5,-131.5 138.5,-131.5 138.5,-112.5 94.5,-112.5"/>
<text text-anchor="middle" x="116.5" y="-119.5" font-family="Helvetica,sans-Serif" font-size="10.00">vector</text>
</g>
<!-- Node4&#45;&gt;Node7 -->
<g id="edge6" class="edge"><title>Node4&#45;&gt;Node7</title>
<path fill="none" stroke="midnightblue" d="M185.325,-168.324C172.653,-159.979 153.267,-147.212 138.294,-137.352"/>
<polygon fill="midnightblue" stroke="midnightblue" points="139.919,-134.231 129.642,-131.655 136.069,-140.078 139.919,-134.231"/>
</g>
<!-- Node8 -->
<g id="node8" class="node"><title>Node8</title>
<polygon fill="none" stroke="#bfbfbf" points="157,-112.5 157,-131.5 240,-131.5 240,-112.5 157,-112.5"/>
<text text-anchor="middle" x="198.5" y="-119.5" font-family="Helvetica,sans-Serif" font-size="10.00">unordered_map</text>
</g>
<!-- Node4&#45;&gt;Node8 -->
<g id="edge7" class="edge"><title>Node4&#45;&gt;Node8</title>
<path fill="none" stroke="midnightblue" d="M198.5,-168.083C198.5,-161.006 198.5,-150.861 198.5,-141.986"/>
<polygon fill="midnightblue" stroke="midnightblue" points="202,-141.751 198.5,-131.751 195,-141.751 202,-141.751"/>
</g>
<!-- Node9 -->
<g id="node9" class="node"><title>Node9</title>
<g id="a_node9"><a xlink:href="QualityObject_8h_source.html" target="_top" xlink:title="QualityControl/QualityObject.h">
<polygon fill="none" stroke="black" points="258,-112.5 258,-131.5 407,-131.5 407,-112.5 258,-112.5"/>
<text text-anchor="middle" x="332.5" y="-119.5" font-family="Helvetica,sans-Serif" font-size="10.00">QualityControl/QualityObject.h</text>
</a>
</g>
</g>
<!-- Node4&#45;&gt;Node9 -->
<g id="edge8" class="edge"><title>Node4&#45;&gt;Node9</title>
<path fill="none" stroke="midnightblue" d="M219.733,-168.444C241.884,-159.517 276.819,-145.439 301.936,-135.317"/>
<polygon fill="midnightblue" stroke="midnightblue" points="303.4,-138.501 311.367,-131.516 300.783,-132.008 303.4,-138.501"/>
</g>
<!-- Node4&#45;&gt;Node16 -->
<g id="edge16" class="edge"><title>Node4&#45;&gt;Node16</title>
<path fill="none" stroke="midnightblue" d="M246.353,-168.444C299.699,-158.905 385.945,-143.483 442.936,-133.293"/>
<polygon fill="midnightblue" stroke="midnightblue" points="443.643,-136.722 452.871,-131.516 442.411,-129.831 443.643,-136.722"/>
</g>
<!-- Node10 -->
<g id="node10" class="node"><title>Node10</title>
<polygon fill="none" stroke="#bfbfbf" points="119.5,-56.5 119.5,-75.5 173.5,-75.5 173.5,-56.5 119.5,-56.5"/>
<text text-anchor="middle" x="146.5" y="-63.5" font-family="Helvetica,sans-Serif" font-size="10.00">iostream</text>
</g>
<!-- Node9&#45;&gt;Node10 -->
<g id="edge9" class="edge"><title>Node9&#45;&gt;Node10</title>
<path fill="none" stroke="midnightblue" d="M303.028,-112.444C270.676,-103.051 218.678,-87.9549 183.581,-77.7654"/>
<polygon fill="midnightblue" stroke="midnightblue" points="184.296,-74.3285 173.716,-74.9015 182.344,-81.0509 184.296,-74.3285"/>
</g>
<!-- Node11 -->
<g id="node11" class="node"><title>Node11</title>
<polygon fill="none" stroke="#bfbfbf" points="331,-56.5 331,-75.5 366,-75.5 366,-56.5 331,-56.5"/>
<text text-anchor="middle" x="348.5" y="-63.5" font-family="Helvetica,sans-Serif" font-size="10.00">map</text>
</g>
<!-- Node9&#45;&gt;Node11 -->
<g id="edge10" class="edge"><title>Node9&#45;&gt;Node11</title>
<path fill="none" stroke="midnightblue" d="M335.142,-112.083C337.286,-104.849 340.379,-94.4087 343.049,-85.3968"/>
<polygon fill="midnightblue" stroke="midnightblue" points="346.422,-86.3334 345.907,-75.7511 339.71,-84.3447 346.422,-86.3334"/>
</g>
<!-- Node12 -->
<g id="node12" class="node"><title>Node12</title>
<polygon fill="none" stroke="#bfbfbf" points="384,-56.5 384,-75.5 443,-75.5 443,-56.5 384,-56.5"/>
<text text-anchor="middle" x="413.5" y="-63.5" font-family="Helvetica,sans-Serif" font-size="10.00">TObject.h</text>
</g>
<!-- Node9&#45;&gt;Node12 -->
<g id="edge11" class="edge"><title>Node9&#45;&gt;Node12</title>
<path fill="none" stroke="midnightblue" d="M345.514,-112.324C358.032,-103.979 377.182,-91.2122 391.971,-81.3524"/>
<polygon fill="midnightblue" stroke="midnightblue" points="394.139,-84.1137 400.518,-75.6545 390.256,-78.2894 394.139,-84.1137"/>
</g>
<!-- Node9&#45;&gt;Node13 -->
<g id="edge12" class="edge"><title>Node9&#45;&gt;Node13</title>
<path fill="none" stroke="midnightblue" d="M374.173,-112.444C420.245,-102.984 494.496,-87.7384 544.131,-77.5472"/>
<polygon fill="midnightblue" stroke="midnightblue" points="544.93,-80.9563 554.022,-75.5164 543.522,-74.0993 544.93,-80.9563"/>
</g>
<!-- Node14 -->
<g id="node14" class="node"><title>Node14</title>
<g id="a_node14"><a xlink:href="Quality_8h.html" target="_top" xlink:title="QualityControl/Quality.h">
<polygon fill="none" stroke="black" points="192,-56.5 192,-75.5 313,-75.5 313,-56.5 192,-56.5"/>
<text text-anchor="middle" x="252.5" y="-63.5" font-family="Helvetica,sans-Serif" font-size="10.00">QualityControl/Quality.h</text>
</a>
</g>
</g>
<!-- Node9&#45;&gt;Node14 -->
<g id="edge13" class="edge"><title>Node9&#45;&gt;Node14</title>
<path fill="none" stroke="midnightblue" d="M319.647,-112.324C307.284,-103.979 288.37,-91.2122 273.763,-81.3524"/>
<polygon fill="midnightblue" stroke="midnightblue" points="275.568,-78.3483 265.321,-75.6545 271.652,-84.1503 275.568,-78.3483"/>
</g>
<!-- Node14&#45;&gt;Node5 -->
<g id="edge15" class="edge"><title>Node14&#45;&gt;Node5</title>
<path fill="none" stroke="midnightblue" d="M252.5,-56.083C252.5,-49.0059 252.5,-38.8611 252.5,-29.9865"/>
<polygon fill="midnightblue" stroke="midnightblue" points="256,-29.751 252.5,-19.7511 249,-29.7511 256,-29.751"/>
</g>
<!-- Node15 -->
<g id="node15" class="node"><title>Node15</title>
<polygon fill="none" stroke="#bfbfbf" points="386.5,-0.5 386.5,-19.5 442.5,-19.5 442.5,-0.5 386.5,-0.5"/>
<text text-anchor="middle" x="414.5" y="-7.5" font-family="Helvetica,sans-Serif" font-size="10.00">Rtypes.h</text>
</g>
<!-- Node14&#45;&gt;Node15 -->
<g id="edge14" class="edge"><title>Node14&#45;&gt;Node15</title>
<path fill="none" stroke="midnightblue" d="M278.169,-56.4435C305.423,-47.3591 348.684,-32.9388 379.151,-22.7831"/>
<polygon fill="midnightblue" stroke="midnightblue" points="380.571,-25.9992 388.951,-19.5164 378.357,-19.3584 380.571,-25.9992"/>
</g>
<!-- Node16&#45;&gt;Node5 -->
<g id="edge17" class="edge"><title>Node16&#45;&gt;Node5</title>
<path fill="none" stroke="midnightblue" d="M496.465,-112.278C489.441,-98.1139 473.578,-70.2644 451.5,-56 399.088,-22.1377 324.575,-13.5703 283.198,-11.5199"/>
<polygon fill="midnightblue" stroke="midnightblue" points="283.314,-8.02186 273.182,-11.1202 283.034,-15.0163 283.314,-8.02186"/>
</g>
<!-- Node16&#45;&gt;Node11 -->
<g id="edge18" class="edge"><title>Node16&#45;&gt;Node11</title>
<path fill="none" stroke="midnightblue" d="M476.415,-112.444C449.128,-102.749 404.738,-86.9792 376.082,-76.799"/>
<polygon fill="midnightblue" stroke="midnightblue" points="376.893,-73.3726 366.298,-73.323 374.549,-79.9687 376.893,-73.3726"/>
</g>
<!-- Node16&#45;&gt;Node12 -->
<g id="edge20" class="edge"><title>Node16&#45;&gt;Node12</title>
<path fill="none" stroke="midnightblue" d="M486.522,-112.324C472.95,-103.9 452.12,-90.9709 436.175,-81.0741"/>
<polygon fill="midnightblue" stroke="midnightblue" points="437.786,-77.9544 427.443,-75.6545 434.094,-83.9019 437.786,-77.9544"/>
</g>
<!-- Node16&#45;&gt;Node13 -->
<g id="edge21" class="edge"><title>Node16&#45;&gt;Node13</title>
<path fill="none" stroke="midnightblue" d="M515.763,-112.324C530.721,-103.822 553.755,-90.7288 571.227,-80.7975"/>
<polygon fill="midnightblue" stroke="midnightblue" points="573.31,-83.639 580.274,-75.6545 569.851,-77.5534 573.31,-83.639"/>
</g>
<!-- Node16&#45;&gt;Node15 -->
<g id="edge19" class="edge"><title>Node16&#45;&gt;Node15</title>
<path fill="none" stroke="midnightblue" d="M500.519,-112.158C500.126,-98.7966 497.684,-73.1996 485.5,-56 475.604,-42.0309 459.87,-31.4152 445.725,-24.0127"/>
<polygon fill="midnightblue" stroke="midnightblue" points="447.257,-20.8658 436.737,-19.6093 444.177,-27.152 447.257,-20.8658"/>
</g>
<!-- Node19 -->
<g id="node19" class="node"><title>Node19</title>
<polygon fill="none" stroke="#bfbfbf" points="783.5,-168.5 783.5,-187.5 913.5,-187.5 913.5,-168.5 783.5,-168.5"/>
<text text-anchor="middle" x="848.5" y="-175.5" font-family="Helvetica,sans-Serif" font-size="10.00">InfoLogger/InfoLogger.hxx</text>
</g>
<!-- Node18&#45;&gt;Node19 -->
<g id="edge25" class="edge"><title>Node18&#45;&gt;Node19</title>
<path fill="none" stroke="midnightblue" d="M848.5,-229.975C848.5,-221.58 848.5,-208.481 848.5,-197.663"/>
<polygon fill="midnightblue" stroke="midnightblue" points="852,-197.509 848.5,-187.509 845,-197.509 852,-197.509"/>
</g>
</g>
</svg>
