<?xml version="1.0" encoding="UTF-8" standalone="no"?>
<!DOCTYPE svg PUBLIC "-//W3C//DTD SVG 1.1//EN"
 "http://www.w3.org/Graphics/SVG/1.1/DTD/svg11.dtd">
<!-- Generated by graphviz version 2.38.0 (20140413.2041)
 -->
<!-- Title: Framework/include/QualityControl/CheckConfig.h Pages: 1 -->
<svg width="2127pt" height="240pt"
 viewBox="0.00 0.00 2126.50 240.00" xmlns="http://www.w3.org/2000/svg" xmlns:xlink="http://www.w3.org/1999/xlink">
<g id="graph0" class="graph" transform="scale(1 1) rotate(0) translate(4 236)">
<title>Framework/include/QualityControl/CheckConfig.h</title>
<!-- Node1 -->
<g id="node1" class="node"><title>Node1</title>
<polygon fill="#bfbfbf" stroke="black" points="955,-201.5 955,-231.5 1088,-231.5 1088,-201.5 955,-201.5"/>
<text text-anchor="start" x="963" y="-219.5" font-family="Helvetica,sans-Serif" font-size="10.00">Framework/include/Quality</text>
<text text-anchor="middle" x="1021.5" y="-208.5" font-family="Helvetica,sans-Serif" font-size="10.00">Control/CheckConfig.h</text>
</g>
<!-- Node2 -->
<g id="node2" class="node"><title>Node2</title>
<g id="a_node2"><a xlink:href="Check_8h_source.html" target="_top" xlink:title="Framework/include/Quality\lControl/Check.h">
<polygon fill="none" stroke="black" points="955,-134.5 955,-164.5 1088,-164.5 1088,-134.5 955,-134.5"/>
<text text-anchor="start" x="963" y="-152.5" font-family="Helvetica,sans-Serif" font-size="10.00">Framework/include/Quality</text>
<text text-anchor="middle" x="1021.5" y="-141.5" font-family="Helvetica,sans-Serif" font-size="10.00">Control/Check.h</text>
</a>
</g>
</g>
<!-- Node1&#45;&gt;Node2 -->
<g id="edge1" class="edge"><title>Node1&#45;&gt;Node2</title>
<path fill="none" stroke="midnightblue" d="M1021.5,-191.108C1021.5,-182.154 1021.5,-172.323 1021.5,-164.577"/>
<polygon fill="midnightblue" stroke="midnightblue" points="1018,-191.396 1021.5,-201.396 1025,-191.396 1018,-191.396"/>
</g>
<!-- Node3 -->
<g id="node3" class="node"><title>Node3</title>
<g id="a_node3"><a xlink:href="CheckRunner_8h.html" target="_top" xlink:title="Framework/include/Quality\lControl/CheckRunner.h">
<polygon fill="none" stroke="black" points="955,-67.5 955,-97.5 1088,-97.5 1088,-67.5 955,-67.5"/>
<text text-anchor="start" x="963" y="-85.5" font-family="Helvetica,sans-Serif" font-size="10.00">Framework/include/Quality</text>
<text text-anchor="middle" x="1021.5" y="-74.5" font-family="Helvetica,sans-Serif" font-size="10.00">Control/CheckRunner.h</text>
</a>
</g>
</g>
<!-- Node2&#45;&gt;Node3 -->
<g id="edge2" class="edge"><title>Node2&#45;&gt;Node3</title>
<path fill="none" stroke="midnightblue" d="M1021.5,-124.108C1021.5,-115.154 1021.5,-105.323 1021.5,-97.5765"/>
<polygon fill="midnightblue" stroke="midnightblue" points="1018,-124.396 1021.5,-134.396 1025,-124.396 1018,-124.396"/>
</g>
<!-- Node6 -->
<g id="node6" class="node"><title>Node6</title>
<g id="a_node6"><a xlink:href="InfrastructureGenerator_8cxx.html" target="_top" xlink:title="Framework/src/Infrastructure\lGenerator.cxx">
<polygon fill="none" stroke="black" points="0,-0.5 0,-30.5 143,-30.5 143,-0.5 0,-0.5"/>
<text text-anchor="start" x="8" y="-18.5" font-family="Helvetica,sans-Serif" font-size="10.00">Framework/src/Infrastructure</text>
<text text-anchor="middle" x="71.5" y="-7.5" font-family="Helvetica,sans-Serif" font-size="10.00">Generator.cxx</text>
</a>
</g>
</g>
<!-- Node2&#45;&gt;Node6 -->
<g id="edge22" class="edge"><title>Node2&#45;&gt;Node6</title>
<path fill="none" stroke="midnightblue" d="M944.852,-140.518C857.687,-131.233 711.162,-114.993 585.5,-98 392.522,-71.9036 344.579,-63.0483 152.5,-31 149.4,-30.4828 146.234,-29.9473 143.038,-29.4007"/>
<polygon fill="midnightblue" stroke="midnightblue" points="944.608,-144.012 954.922,-141.588 945.348,-137.051 944.608,-144.012"/>
</g>
<!-- Node15 -->
<g id="node15" class="node"><title>Node15</title>
<g id="a_node15"><a xlink:href="CheckRunnerFactory_8h.html" target="_top" xlink:title="Framework/include/Quality\lControl/CheckRunnerFactory.h">
<polygon fill="none" stroke="black" points="594.5,-67.5 594.5,-97.5 746.5,-97.5 746.5,-67.5 594.5,-67.5"/>
<text text-anchor="start" x="602.5" y="-85.5" font-family="Helvetica,sans-Serif" font-size="10.00">Framework/include/Quality</text>
<text text-anchor="middle" x="670.5" y="-74.5" font-family="Helvetica,sans-Serif" font-size="10.00">Control/CheckRunnerFactory.h</text>
</a>
</g>
</g>
<!-- Node2&#45;&gt;Node15 -->
<g id="edge14" class="edge"><title>Node2&#45;&gt;Node15</title>
<path fill="none" stroke="midnightblue" d="M944.658,-134.27C885.749,-123.361 804.871,-108.384 746.238,-97.5256"/>
<polygon fill="midnightblue" stroke="midnightblue" points="944.183,-137.742 954.653,-136.121 945.458,-130.859 944.183,-137.742"/>
</g>
<!-- Node17 -->
<g id="node17" class="node"><title>Node17</title>
<polygon fill="none" stroke="#bfbfbf" points="1106.5,-73 1106.5,-92 1238.5,-92 1238.5,-73 1106.5,-73"/>
<text text-anchor="middle" x="1172.5" y="-80" font-family="Helvetica,sans-Serif" font-size="10.00">Framework/src/Check.cxx</text>
</g>
<!-- Node2&#45;&gt;Node17 -->
<g id="edge21" class="edge"><title>Node2&#45;&gt;Node17</title>
<path fill="none" stroke="midnightblue" d="M1063.79,-130.295C1092.91,-117.76 1130.26,-101.682 1152.74,-92.007"/>
<polygon fill="midnightblue" stroke="midnightblue" points="1062.07,-127.227 1054.26,-134.396 1064.83,-133.657 1062.07,-127.227"/>
</g>
<!-- Node18 -->
<g id="node18" class="node"><title>Node18</title>
<g id="a_node18"><a xlink:href="runITS_8cxx.html" target="_top" xlink:title="Modules/ITS/src/runITS.cxx">
<polygon fill="none" stroke="black" points="1256.5,-73 1256.5,-92 1396.5,-92 1396.5,-73 1256.5,-73"/>
<text text-anchor="middle" x="1326.5" y="-80" font-family="Helvetica,sans-Serif" font-size="10.00">Modules/ITS/src/runITS.cxx</text>
</a>
</g>
</g>
<!-- Node2&#45;&gt;Node18 -->
<g id="edge23" class="edge"><title>Node2&#45;&gt;Node18</title>
<path fill="none" stroke="midnightblue" d="M1097.11,-132.387C1157.07,-119.609 1238.5,-102.254 1286.48,-92.0287"/>
<polygon fill="midnightblue" stroke="midnightblue" points="1096.36,-128.968 1087.3,-134.476 1097.81,-135.815 1096.36,-128.968"/>
</g>
<!-- Node4 -->
<g id="node4" class="node"><title>Node4</title>
<g id="a_node4"><a xlink:href="CheckRunner_8cxx.html" target="_top" xlink:title="Framework/src/CheckRunner.cxx">
<polygon fill="none" stroke="black" points="1106.5,-6 1106.5,-25 1270.5,-25 1270.5,-6 1106.5,-6"/>
<text text-anchor="middle" x="1188.5" y="-13" font-family="Helvetica,sans-Serif" font-size="10.00">Framework/src/CheckRunner.cxx</text>
</a>
</g>
</g>
<!-- Node3&#45;&gt;Node4 -->
<g id="edge3" class="edge"><title>Node3&#45;&gt;Node4</title>
<path fill="none" stroke="midnightblue" d="M1067.43,-63.6214C1099.76,-51.0403 1141.57,-34.7661 1166.64,-25.007"/>
<polygon fill="midnightblue" stroke="midnightblue" points="1065.79,-60.5071 1057.74,-67.396 1068.33,-67.0304 1065.79,-60.5071"/>
</g>
<!-- Node5 -->
<g id="node5" class="node"><title>Node5</title>
<g id="a_node5"><a xlink:href="CheckRunnerFactory_8cxx.html" target="_top" xlink:title="Framework/src/CheckRunner\lFactory.cxx">
<polygon fill="none" stroke="black" points="792,-0.5 792,-30.5 937,-30.5 937,-0.5 792,-0.5"/>
<text text-anchor="start" x="800" y="-18.5" font-family="Helvetica,sans-Serif" font-size="10.00">Framework/src/CheckRunner</text>
<text text-anchor="middle" x="864.5" y="-7.5" font-family="Helvetica,sans-Serif" font-size="10.00">Factory.cxx</text>
</a>
</g>
</g>
<!-- Node3&#45;&gt;Node5 -->
<g id="edge4" class="edge"><title>Node3&#45;&gt;Node5</title>
<path fill="none" stroke="midnightblue" d="M978.13,-63.5442C953.007,-53.143 921.836,-40.238 898.5,-30.5765"/>
<polygon fill="midnightblue" stroke="midnightblue" points="976.855,-66.8045 987.433,-67.396 979.533,-60.3368 976.855,-66.8045"/>
</g>
<!-- Node3&#45;&gt;Node6 -->
<g id="edge5" class="edge"><title>Node3&#45;&gt;Node6</title>
<path fill="none" stroke="midnightblue" d="M944.659,-77.2839C739.451,-65.9913 191.472,-35.6041 152.5,-31 149.521,-30.648 146.485,-30.2562 143.422,-29.8335"/>
<polygon fill="midnightblue" stroke="midnightblue" points="944.578,-80.7847 954.755,-77.8393 944.962,-73.7952 944.578,-80.7847"/>
</g>
<!-- Node7 -->
<g id="node7" class="node"><title>Node7</title>
<g id="a_node7"><a xlink:href="runBasic_8cxx.html" target="_top" xlink:title="This is an executable showing QC Task&#39;s usage in Data Processing Layer. ">
<polygon fill="none" stroke="black" points="1288.5,-6 1288.5,-25 1430.5,-25 1430.5,-6 1288.5,-6"/>
<text text-anchor="middle" x="1359.5" y="-13" font-family="Helvetica,sans-Serif" font-size="10.00">Framework/src/runBasic.cxx</text>
</a>
</g>
</g>
<!-- Node3&#45;&gt;Node7 -->
<g id="edge6" class="edge"><title>Node3&#45;&gt;Node7</title>
<path fill="none" stroke="midnightblue" d="M1098.35,-66.721C1165.24,-53.8573 1259.88,-35.6585 1314.95,-25.0671"/>
<polygon fill="midnightblue" stroke="midnightblue" points="1097.44,-63.3325 1088.28,-68.6581 1098.76,-70.2066 1097.44,-63.3325"/>
</g>
<!-- Node8 -->
<g id="node8" class="node"><title>Node8</title>
<g id="a_node8"><a xlink:href="testCheckRunner_8cxx.html" target="_top" xlink:title="Framework/test/testCheck\lRunner.cxx">
<polygon fill="none" stroke="black" points="955,-0.5 955,-30.5 1088,-30.5 1088,-0.5 955,-0.5"/>
<text text-anchor="start" x="963" y="-18.5" font-family="Helvetica,sans-Serif" font-size="10.00">Framework/test/testCheck</text>
<text text-anchor="middle" x="1021.5" y="-7.5" font-family="Helvetica,sans-Serif" font-size="10.00">Runner.cxx</text>
</a>
</g>
</g>
<!-- Node3&#45;&gt;Node8 -->
<g id="edge7" class="edge"><title>Node3&#45;&gt;Node8</title>
<path fill="none" stroke="midnightblue" d="M1021.5,-57.1081C1021.5,-48.1539 1021.5,-38.3227 1021.5,-30.5765"/>
<polygon fill="midnightblue" stroke="midnightblue" points="1018,-57.3959 1021.5,-67.396 1025,-57.396 1018,-57.3959"/>
</g>
<!-- Node9 -->
<g id="node9" class="node"><title>Node9</title>
<g id="a_node9"><a xlink:href="testCheckWorkflow_8cxx.html" target="_top" xlink:title="Framework/test/testCheck\lWorkflow.cxx">
<polygon fill="none" stroke="black" points="1449,-0.5 1449,-30.5 1582,-30.5 1582,-0.5 1449,-0.5"/>
<text text-anchor="start" x="1457" y="-18.5" font-family="Helvetica,sans-Serif" font-size="10.00">Framework/test/testCheck</text>
<text text-anchor="middle" x="1515.5" y="-7.5" font-family="Helvetica,sans-Serif" font-size="10.00">Workflow.cxx</text>
</a>
</g>
</g>
<!-- Node3&#45;&gt;Node9 -->
<g id="edge8" class="edge"><title>Node3&#45;&gt;Node9</title>
<path fill="none" stroke="midnightblue" d="M1098.36,-66.9632C1250.45,-45.0174 1291.55,-52.8613 1439.5,-31 1442.56,-30.5484 1445.68,-30.0609 1448.83,-29.5476"/>
<polygon fill="midnightblue" stroke="midnightblue" points="1097.56,-63.5418 1088.17,-68.4524 1098.58,-70.4681 1097.56,-63.5418"/>
</g>
<!-- Node10 -->
<g id="node10" class="node"><title>Node10</title>
<g id="a_node10"><a xlink:href="testWorkflow_8cxx.html" target="_top" xlink:title="Framework/test/testWorkflow.cxx">
<polygon fill="none" stroke="black" points="1600.5,-6 1600.5,-25 1764.5,-25 1764.5,-6 1600.5,-6"/>
<text text-anchor="middle" x="1682.5" y="-13" font-family="Helvetica,sans-Serif" font-size="10.00">Framework/test/testWorkflow.cxx</text>
</a>
</g>
</g>
<!-- Node3&#45;&gt;Node10 -->
<g id="edge9" class="edge"><title>Node3&#45;&gt;Node10</title>
<path fill="none" stroke="midnightblue" d="M1098.38,-67.0003C1317.53,-38.8596 1376.14,-55.9594 1591.5,-31 1605.33,-29.3977 1620.26,-27.2098 1633.96,-25.0194"/>
<polygon fill="midnightblue" stroke="midnightblue" points="1097.62,-63.569 1088.16,-68.3302 1098.53,-70.5104 1097.62,-63.569"/>
</g>
<!-- Node11 -->
<g id="node11" class="node"><title>Node11</title>
<polygon fill="none" stroke="#bfbfbf" points="331.5,-6 331.5,-25 549.5,-25 549.5,-6 331.5,-6"/>
<text text-anchor="middle" x="440.5" y="-13" font-family="Helvetica,sans-Serif" font-size="10.00">Modules/EMCAL/src/runQCEMCALDigits.cxx</text>
</g>
<!-- Node3&#45;&gt;Node11 -->
<g id="edge10" class="edge"><title>Node3&#45;&gt;Node11</title>
<path fill="none" stroke="midnightblue" d="M944.715,-73.4486C852.837,-63.7398 694.369,-46.7568 558.5,-31 542.303,-29.1216 524.865,-27.0217 508.495,-25.0159"/>
<polygon fill="midnightblue" stroke="midnightblue" points="944.45,-76.94 954.762,-74.5094 945.185,-69.9787 944.45,-76.94"/>
</g>
<!-- Node12 -->
<g id="node12" class="node"><title>Node12</title>
<polygon fill="none" stroke="#bfbfbf" points="567.5,-6 567.5,-25 773.5,-25 773.5,-6 567.5,-6"/>
<text text-anchor="middle" x="670.5" y="-13" font-family="Helvetica,sans-Serif" font-size="10.00">Modules/PHOS/src/runQCPHOSDigits.cxx</text>
</g>
<!-- Node3&#45;&gt;Node12 -->
<g id="edge11" class="edge"><title>Node3&#45;&gt;Node12</title>
<path fill="none" stroke="midnightblue" d="M944.595,-67.2583C874.85,-54.3425 774.351,-35.7318 716.411,-25.002"/>
<polygon fill="midnightblue" stroke="midnightblue" points="944.183,-70.7415 954.653,-69.121 945.458,-63.8585 944.183,-70.7415"/>
</g>
<!-- Node13 -->
<g id="node13" class="node"><title>Node13</title>
<g id="a_node13"><a xlink:href="runTOF_8cxx.html" target="_top" xlink:title="This is an executable showing QC Task&#39;s usage in Data Processing Layer. ">
<polygon fill="none" stroke="black" points="1783,-6 1783,-25 1930,-25 1930,-6 1783,-6"/>
<text text-anchor="middle" x="1856.5" y="-13" font-family="Helvetica,sans-Serif" font-size="10.00">Modules/TOF/src/runTOF.cxx</text>
</a>
</g>
</g>
<!-- Node3&#45;&gt;Node13 -->
<g id="edge12" class="edge"><title>Node3&#45;&gt;Node13</title>
<path fill="none" stroke="midnightblue" d="M1098.44,-67.0183C1397.96,-31.4842 1477.91,-64.5683 1773.5,-31 1786.58,-29.5145 1800.72,-27.2813 1813.56,-25.0098"/>
<polygon fill="midnightblue" stroke="midnightblue" points="1097.66,-63.5869 1088.15,-68.2558 1098.49,-70.5368 1097.66,-63.5869"/>
</g>
<!-- Node14 -->
<g id="node14" class="node"><title>Node14</title>
<polygon fill="none" stroke="#bfbfbf" points="1948.5,-0.5 1948.5,-30.5 2118.5,-30.5 2118.5,-0.5 1948.5,-0.5"/>
<text text-anchor="start" x="1956.5" y="-18.5" font-family="Helvetica,sans-Serif" font-size="10.00">Modules/TPC/run/runTPCQCTrack</text>
<text text-anchor="middle" x="2033.5" y="-7.5" font-family="Helvetica,sans-Serif" font-size="10.00">Reader.cxx</text>
</g>
<!-- Node3&#45;&gt;Node14 -->
<g id="edge13" class="edge"><title>Node3&#45;&gt;Node14</title>
<path fill="none" stroke="midnightblue" d="M1098.13,-67.0647C1471.29,-24.5509 1570.01,-67.2855 1939.5,-31 1942.46,-30.7095 1945.46,-30.3882 1948.5,-30.0418"/>
<polygon fill="midnightblue" stroke="midnightblue" points="1097.68,-63.5942 1088.14,-68.2159 1098.48,-70.5482 1097.68,-63.5942"/>
</g>
<!-- Node15&#45;&gt;Node5 -->
<g id="edge15" class="edge"><title>Node15&#45;&gt;Node5</title>
<path fill="none" stroke="midnightblue" d="M722.457,-64.0917C753.774,-53.5988 793.143,-40.4082 822.487,-30.5765"/>
<polygon fill="midnightblue" stroke="midnightblue" points="720.965,-60.9003 712.595,-67.396 723.189,-67.5376 720.965,-60.9003"/>
</g>
<!-- Node15&#45;&gt;Node6 -->
<g id="edge16" class="edge"><title>Node15&#45;&gt;Node6</title>
<path fill="none" stroke="midnightblue" d="M584.314,-75.218C481.312,-67.221 303.875,-51.8937 152.5,-31 149.387,-30.5703 146.21,-30.1073 143.004,-29.62"/>
<polygon fill="midnightblue" stroke="midnightblue" points="584.113,-78.7128 594.352,-75.9924 584.651,-71.7335 584.113,-78.7128"/>
</g>
<!-- Node15&#45;&gt;Node8 -->
<g id="edge18" class="edge"><title>Node15&#45;&gt;Node8</title>
<path fill="none" stroke="midnightblue" d="M756.645,-65.9667C811.105,-56.0902 882.955,-42.9558 946.5,-31 949.237,-30.485 952.03,-29.957 954.85,-29.4215"/>
<polygon fill="midnightblue" stroke="midnightblue" points="755.9,-62.5446 746.685,-67.7719 757.149,-69.4324 755.9,-62.5446"/>
</g>
<!-- Node15&#45;&gt;Node11 -->
<g id="edge19" class="edge"><title>Node15&#45;&gt;Node11</title>
<path fill="none" stroke="midnightblue" d="M611.233,-64.7505C566.25,-52.038 506.263,-35.0851 470.678,-25.0287"/>
<polygon fill="midnightblue" stroke="midnightblue" points="610.302,-68.1244 620.877,-67.476 612.205,-61.3883 610.302,-68.1244"/>
</g>
<!-- Node15&#45;&gt;Node12 -->
<g id="edge20" class="edge"><title>Node15&#45;&gt;Node12</title>
<path fill="none" stroke="midnightblue" d="M670.5,-57.2495C670.5,-46.017 670.5,-33.3767 670.5,-25.1945"/>
<polygon fill="midnightblue" stroke="midnightblue" points="667,-57.3959 670.5,-67.396 674,-57.396 667,-57.3959"/>
</g>
<!-- Node16 -->
<g id="node16" class="node"><title>Node16</title>
<polygon fill="none" stroke="#bfbfbf" points="161.5,-6 161.5,-25 313.5,-25 313.5,-6 161.5,-6"/>
<text text-anchor="middle" x="237.5" y="-13" font-family="Helvetica,sans-Serif" font-size="10.00">Framework/test/testCheck.cxx</text>
</g>
<!-- Node15&#45;&gt;Node16 -->
<g id="edge17" class="edge"><title>Node15&#45;&gt;Node16</title>
<path fill="none" stroke="midnightblue" d="M584.222,-69.5875C513.748,-59.7107 411.588,-45.0605 322.5,-31 310.818,-29.1563 298.252,-27.0697 286.459,-25.0656"/>
<polygon fill="midnightblue" stroke="midnightblue" points="583.997,-73.0899 594.385,-71.0094 584.967,-66.1574 583.997,-73.0899"/>
</g>
</g>
</svg>
