<?xml version="1.0" encoding="UTF-8" standalone="no"?>
<!DOCTYPE svg PUBLIC "-//W3C//DTD SVG 1.1//EN"
 "http://www.w3.org/Graphics/SVG/1.1/DTD/svg11.dtd">
<!-- Generated by graphviz version 2.38.0 (20140413.2041)
 -->
<!-- Title: Framework/include/QualityControl/CheckInterface.h Pages: 1 -->
<svg width="496pt" height="151pt"
 viewBox="0.00 0.00 496.12 151.00" xmlns="http://www.w3.org/2000/svg" xmlns:xlink="http://www.w3.org/1999/xlink">
<g id="graph0" class="graph" transform="scale(1 1) rotate(0) translate(4 147)">
<title>Framework/include/QualityControl/CheckInterface.h</title>
<!-- Node1 -->
<g id="node1" class="node"><title>Node1</title>
<polygon fill="#bfbfbf" stroke="black" points="223,-112.5 223,-142.5 356,-142.5 356,-112.5 223,-112.5"/>
<text text-anchor="start" x="231" y="-130.5" font-family="Helvetica,sans-Serif" font-size="10.00">Framework/include/Quality</text>
<text text-anchor="middle" x="289.5" y="-119.5" font-family="Helvetica,sans-Serif" font-size="10.00">Control/CheckInterface.h</text>
</g>
<!-- Node2 -->
<g id="node2" class="node"><title>Node2</title>
<polygon fill="none" stroke="#bfbfbf" points="304,-0.5 304,-19.5 345,-19.5 345,-0.5 304,-0.5"/>
<text text-anchor="middle" x="324.5" y="-7.5" font-family="Helvetica,sans-Serif" font-size="10.00">string</text>
</g>
<!-- Node1&#45;&gt;Node2 -->
<g id="edge1" class="edge"><title>Node1&#45;&gt;Node2</title>
<path fill="none" stroke="midnightblue" d="M293.792,-112.337C300.127,-91.4325 311.982,-52.3096 318.964,-29.2696"/>
<polygon fill="midnightblue" stroke="midnightblue" points="322.322,-30.2548 321.873,-19.6695 315.623,-28.2247 322.322,-30.2548"/>
</g>
<!-- Node3 -->
<g id="node3" class="node"><title>Node3</title>
<polygon fill="none" stroke="#bfbfbf" points="0,-0.5 0,-19.5 35,-19.5 35,-0.5 0,-0.5"/>
<text text-anchor="middle" x="17.5" y="-7.5" font-family="Helvetica,sans-Serif" font-size="10.00">map</text>
</g>
<!-- Node1&#45;&gt;Node3 -->
<g id="edge2" class="edge"><title>Node1&#45;&gt;Node3</title>
<path fill="none" stroke="midnightblue" d="M222.984,-121.27C156.749,-114.708 61.1985,-101.135 34.5,-76 22.0355,-64.2653 18.2754,-44.6217 17.3359,-29.9945"/>
<polygon fill="midnightblue" stroke="midnightblue" points="20.8246,-29.4953 17.0748,-19.5862 13.8268,-29.6709 20.8246,-29.4953"/>
</g>
<!-- Node4 -->
<g id="node4" class="node"><title>Node4</title>
<polygon fill="none" stroke="#bfbfbf" points="213,-56.5 213,-75.5 296,-75.5 296,-56.5 213,-56.5"/>
<text text-anchor="middle" x="254.5" y="-63.5" font-family="Helvetica,sans-Serif" font-size="10.00">unordered_map</text>
</g>
<!-- Node1&#45;&gt;Node4 -->
<g id="edge3" class="edge"><title>Node1&#45;&gt;Node4</title>
<path fill="none" stroke="midnightblue" d="M281.205,-112.399C276.277,-104.021 269.986,-93.3269 264.749,-84.4229"/>
<polygon fill="midnightblue" stroke="midnightblue" points="267.68,-82.5025 259.593,-75.6578 261.646,-86.0517 267.68,-82.5025"/>
</g>
<!-- Node5 -->
<g id="node5" class="node"><title>Node5</title>
<polygon fill="none" stroke="#bfbfbf" points="385.5,-0.5 385.5,-19.5 441.5,-19.5 441.5,-0.5 385.5,-0.5"/>
<text text-anchor="middle" x="413.5" y="-7.5" font-family="Helvetica,sans-Serif" font-size="10.00">Rtypes.h</text>
</g>
<!-- Node1&#45;&gt;Node5 -->
<g id="edge4" class="edge"><title>Node1&#45;&gt;Node5</title>
<path fill="none" stroke="midnightblue" d="M356.046,-117.919C405.791,-109.978 467.802,-96.3072 483.5,-76 499.239,-55.6394 470.178,-36.0796 444.845,-23.8308"/>
<polygon fill="midnightblue" stroke="midnightblue" points="445.969,-20.4955 435.42,-19.5078 443.05,-26.8582 445.969,-20.4955"/>
</g>
<!-- Node6 -->
<g id="node6" class="node"><title>Node6</title>
<g id="a_node6"><a xlink:href="MonitorObject_8h.html" target="_top" xlink:title="QualityControl/MonitorObject.h">
<polygon fill="none" stroke="black" points="44,-56.5 44,-75.5 195,-75.5 195,-56.5 44,-56.5"/>
<text text-anchor="middle" x="119.5" y="-63.5" font-family="Helvetica,sans-Serif" font-size="10.00">QualityControl/MonitorObject.h</text>
</a>
</g>
</g>
<!-- Node1&#45;&gt;Node6 -->
<g id="edge5" class="edge"><title>Node1&#45;&gt;Node6</title>
<path fill="none" stroke="midnightblue" d="M249.212,-112.399C220.18,-102.238 181.419,-88.6716 153.849,-79.0221"/>
<polygon fill="midnightblue" stroke="midnightblue" points="154.831,-75.6578 144.237,-75.6578 152.519,-82.2649 154.831,-75.6578"/>
</g>
<!-- Node9 -->
<g id="node9" class="node"><title>Node9</title>
<g id="a_node9"><a xlink:href="Quality_8h.html" target="_top" xlink:title="QualityControl/Quality.h">
<polygon fill="none" stroke="black" points="353,-56.5 353,-75.5 474,-75.5 474,-56.5 353,-56.5"/>
<text text-anchor="middle" x="413.5" y="-63.5" font-family="Helvetica,sans-Serif" font-size="10.00">QualityControl/Quality.h</text>
</a>
</g>
</g>
<!-- Node1&#45;&gt;Node9 -->
<g id="edge11" class="edge"><title>Node1&#45;&gt;Node9</title>
<path fill="none" stroke="midnightblue" d="M318.886,-112.399C339.32,-102.595 366.36,-89.6194 386.299,-80.052"/>
<polygon fill="midnightblue" stroke="midnightblue" points="387.955,-83.1395 395.457,-75.6578 384.927,-76.8284 387.955,-83.1395"/>
</g>
<!-- Node6&#45;&gt;Node2 -->
<g id="edge6" class="edge"><title>Node6&#45;&gt;Node2</title>
<path fill="none" stroke="midnightblue" d="M151.983,-56.4435C190.888,-46.1953 255.573,-29.1565 293.711,-19.1103"/>
<polygon fill="midnightblue" stroke="midnightblue" points="294.942,-22.4055 303.721,-16.4736 293.159,-15.6364 294.942,-22.4055"/>
</g>
<!-- Node6&#45;&gt;Node3 -->
<g id="edge7" class="edge"><title>Node6&#45;&gt;Node3</title>
<path fill="none" stroke="midnightblue" d="M103.112,-56.324C86.8287,-47.7034 61.6325,-34.3643 42.7837,-24.3855"/>
<polygon fill="midnightblue" stroke="midnightblue" points="44.3229,-21.2402 33.8474,-19.6545 41.0477,-27.4267 44.3229,-21.2402"/>
</g>
<!-- Node6&#45;&gt;Node5 -->
<g id="edge8" class="edge"><title>Node6&#45;&gt;Node5</title>
<path fill="none" stroke="midnightblue" d="M166.085,-56.4435C223.919,-45.821 321.474,-27.9028 375.181,-18.0382"/>
<polygon fill="midnightblue" stroke="midnightblue" points="376.11,-21.4262 385.313,-16.1772 374.845,-14.5414 376.11,-21.4262"/>
</g>
<!-- Node7 -->
<g id="node7" class="node"><title>Node7</title>
<polygon fill="none" stroke="#bfbfbf" points="193,-0.5 193,-19.5 252,-19.5 252,-0.5 193,-0.5"/>
<text text-anchor="middle" x="222.5" y="-7.5" font-family="Helvetica,sans-Serif" font-size="10.00">TObject.h</text>
</g>
<!-- Node6&#45;&gt;Node7 -->
<g id="edge9" class="edge"><title>Node6&#45;&gt;Node7</title>
<path fill="none" stroke="midnightblue" d="M136.049,-56.324C152.492,-47.7034 177.935,-34.3643 196.968,-24.3855"/>
<polygon fill="midnightblue" stroke="midnightblue" points="198.761,-27.3977 205.992,-19.6545 195.511,-21.198 198.761,-27.3977"/>
</g>
<!-- Node8 -->
<g id="node8" class="node"><title>Node8</title>
<polygon fill="none" stroke="#bfbfbf" points="58.5,-0.5 58.5,-19.5 174.5,-19.5 174.5,-0.5 58.5,-0.5"/>
<text text-anchor="middle" x="116.5" y="-7.5" font-family="Helvetica,sans-Serif" font-size="10.00">Common/Exceptions.h</text>
</g>
<!-- Node6&#45;&gt;Node8 -->
<g id="edge10" class="edge"><title>Node6&#45;&gt;Node8</title>
<path fill="none" stroke="midnightblue" d="M119.005,-56.083C118.611,-49.0059 118.048,-38.8611 117.555,-29.9865"/>
<polygon fill="midnightblue" stroke="midnightblue" points="121.036,-29.5415 116.986,-19.7511 114.046,-29.9299 121.036,-29.5415"/>
</g>
<!-- Node9&#45;&gt;Node2 -->
<g id="edge13" class="edge"><title>Node9&#45;&gt;Node2</title>
<path fill="none" stroke="midnightblue" d="M399.201,-56.324C385.317,-47.9002 364.008,-34.9709 347.696,-25.0741"/>
<polygon fill="midnightblue" stroke="midnightblue" points="349.129,-21.8495 338.764,-19.6545 345.498,-27.8341 349.129,-21.8495"/>
</g>
<!-- Node9&#45;&gt;Node5 -->
<g id="edge12" class="edge"><title>Node9&#45;&gt;Node5</title>
<path fill="none" stroke="midnightblue" d="M413.5,-56.083C413.5,-49.0059 413.5,-38.8611 413.5,-29.9865"/>
<polygon fill="midnightblue" stroke="midnightblue" points="417,-29.751 413.5,-19.7511 410,-29.7511 417,-29.751"/>
</g>
</g>
</svg>
