<?xml version="1.0" encoding="UTF-8" standalone="no"?>
<!DOCTYPE svg PUBLIC "-//W3C//DTD SVG 1.1//EN"
 "http://www.w3.org/Graphics/SVG/1.1/DTD/svg11.dtd">
<!-- Generated by graphviz version 2.38.0 (20140413.2041)
 -->
<!-- Title: Framework/src/CheckRunnerFactory.cxx Pages: 1 -->
<svg width="1874pt" height="330pt"
 viewBox="0.00 0.00 1874.20 330.00" xmlns="http://www.w3.org/2000/svg" xmlns:xlink="http://www.w3.org/1999/xlink">
<g id="graph0" class="graph" transform="scale(1 1) rotate(0) translate(4 326)">
<title>Framework/src/CheckRunnerFactory.cxx</title>
<!-- Node1 -->
<g id="node1" class="node"><title>Node1</title>
<polygon fill="#bfbfbf" stroke="black" points="1178.2,-291.5 1178.2,-321.5 1323.2,-321.5 1323.2,-291.5 1178.2,-291.5"/>
<text text-anchor="start" x="1186.2" y="-309.5" font-family="Helvetica,sans-Serif" font-size="10.00">Framework/src/CheckRunner</text>
<text text-anchor="middle" x="1250.7" y="-298.5" font-family="Helvetica,sans-Serif" font-size="10.00">Factory.cxx</text>
</g>
<!-- Node2 -->
<g id="node2" class="node"><title>Node2</title>
<polygon fill="none" stroke="#bfbfbf" points="1388.7,-112.5 1388.7,-131.5 1432.7,-131.5 1432.7,-112.5 1388.7,-112.5"/>
<text text-anchor="middle" x="1410.7" y="-119.5" font-family="Helvetica,sans-Serif" font-size="10.00">vector</text>
</g>
<!-- Node1&#45;&gt;Node2 -->
<g id="edge1" class="edge"><title>Node1&#45;&gt;Node2</title>
<path fill="none" stroke="midnightblue" d="M1275.22,-291.451C1305.4,-274.426 1358.48,-245.369 1405.7,-224 1446.46,-205.558 1474.35,-224.859 1499.7,-188 1517.74,-161.785 1474.78,-142.2 1442.47,-131.693"/>
<polygon fill="midnightblue" stroke="midnightblue" points="1443.45,-128.333 1432.86,-128.727 1441.38,-135.021 1443.45,-128.333"/>
</g>
<!-- Node3 -->
<g id="node3" class="node"><title>Node3</title>
<polygon fill="none" stroke="#bfbfbf" points="264.703,-168.5 264.703,-187.5 342.703,-187.5 342.703,-168.5 264.703,-168.5"/>
<text text-anchor="middle" x="303.703" y="-175.5" font-family="Helvetica,sans-Serif" font-size="10.00">unordered_set</text>
</g>
<!-- Node1&#45;&gt;Node3 -->
<g id="edge2" class="edge"><title>Node1&#45;&gt;Node3</title>
<path fill="none" stroke="midnightblue" d="M1178.15,-296.901C1025.75,-278.632 661.269,-233.858 356.703,-188 355.431,-187.808 354.143,-187.612 352.843,-187.41"/>
<polygon fill="midnightblue" stroke="midnightblue" points="353.177,-183.919 342.751,-185.801 352.075,-190.832 353.177,-183.919"/>
</g>
<!-- Node4 -->
<g id="node4" class="node"><title>Node4</title>
<polygon fill="none" stroke="#bfbfbf" points="81.7032,-112.5 81.7032,-131.5 245.703,-131.5 245.703,-112.5 81.7032,-112.5"/>
<text text-anchor="middle" x="163.703" y="-119.5" font-family="Helvetica,sans-Serif" font-size="10.00">Framework/DataProcessorSpec.h</text>
</g>
<!-- Node1&#45;&gt;Node4 -->
<g id="edge3" class="edge"><title>Node1&#45;&gt;Node4</title>
<path fill="none" stroke="midnightblue" d="M1177.91,-302.121C977.758,-292.012 422.877,-258.253 255.703,-188 226.73,-175.824 197.878,-153.321 180.413,-138.254"/>
<polygon fill="midnightblue" stroke="midnightblue" points="182.615,-135.529 172.803,-131.533 177.981,-140.776 182.615,-135.529"/>
</g>
<!-- Node5 -->
<g id="node5" class="node"><title>Node5</title>
<polygon fill="none" stroke="#bfbfbf" points="1414.7,-230 1414.7,-249 1544.7,-249 1544.7,-230 1414.7,-230"/>
<text text-anchor="middle" x="1479.7" y="-237" font-family="Helvetica,sans-Serif" font-size="10.00">Framework/DeviceSpec.h</text>
</g>
<!-- Node1&#45;&gt;Node5 -->
<g id="edge4" class="edge"><title>Node1&#45;&gt;Node5</title>
<path fill="none" stroke="midnightblue" d="M1300.11,-291.476C1341.87,-279.622 1400.93,-262.858 1439.76,-251.838"/>
<polygon fill="midnightblue" stroke="midnightblue" points="1440.99,-255.126 1449.66,-249.029 1439.08,-248.392 1440.99,-255.126"/>
</g>
<!-- Node6 -->
<g id="node6" class="node"><title>Node6</title>
<polygon fill="none" stroke="#bfbfbf" points="1562.7,-230 1562.7,-249 1702.7,-249 1702.7,-230 1562.7,-230"/>
<text text-anchor="middle" x="1632.7" y="-237" font-family="Helvetica,sans-Serif" font-size="10.00">Framework/DataSpecUtils.h</text>
</g>
<!-- Node1&#45;&gt;Node6 -->
<g id="edge5" class="edge"><title>Node1&#45;&gt;Node6</title>
<path fill="none" stroke="midnightblue" d="M1323.31,-293.742C1384.73,-283.713 1475.04,-268.774 1553.7,-255 1561.15,-253.696 1568.99,-252.293 1576.72,-250.893"/>
<polygon fill="midnightblue" stroke="midnightblue" points="1577.56,-254.297 1586.77,-249.061 1576.31,-247.41 1577.56,-254.297"/>
</g>
<!-- Node7 -->
<g id="node7" class="node"><title>Node7</title>
<polygon fill="none" stroke="#bfbfbf" points="1721.2,-224.5 1721.2,-254.5 1866.2,-254.5 1866.2,-224.5 1721.2,-224.5"/>
<text text-anchor="start" x="1729.2" y="-242.5" font-family="Helvetica,sans-Serif" font-size="10.00">Framework/CompletionPolicy</text>
<text text-anchor="middle" x="1793.7" y="-231.5" font-family="Helvetica,sans-Serif" font-size="10.00">Helpers.h</text>
</g>
<!-- Node1&#45;&gt;Node7 -->
<g id="edge6" class="edge"><title>Node1&#45;&gt;Node7</title>
<path fill="none" stroke="midnightblue" d="M1323.55,-299.016C1412.44,-290.768 1567.53,-275.297 1710.59,-255.099"/>
<polygon fill="midnightblue" stroke="midnightblue" points="1711.46,-258.51 1720.87,-253.637 1710.47,-251.58 1711.46,-258.51"/>
</g>
<!-- Node8 -->
<g id="node8" class="node"><title>Node8</title>
<g id="a_node8"><a xlink:href="CheckRunner_8h.html" target="_top" xlink:title="QualityControl/CheckRunner.h">
<polygon fill="none" stroke="black" points="1039.7,-230 1039.7,-249 1189.7,-249 1189.7,-230 1039.7,-230"/>
<text text-anchor="middle" x="1114.7" y="-237" font-family="Helvetica,sans-Serif" font-size="10.00">QualityControl/CheckRunner.h</text>
</a>
</g>
</g>
<!-- Node1&#45;&gt;Node8 -->
<g id="edge7" class="edge"><title>Node1&#45;&gt;Node8</title>
<path fill="none" stroke="midnightblue" d="M1221.19,-291.396C1197.54,-280.092 1164.63,-264.361 1141.67,-253.39"/>
<polygon fill="midnightblue" stroke="midnightblue" points="1143.03,-250.161 1132.5,-249.007 1140.02,-256.477 1143.03,-250.161"/>
</g>
<!-- Node32 -->
<g id="node32" class="node"><title>Node32</title>
<g id="a_node32"><a xlink:href="CheckRunnerFactory_8h.html" target="_top" xlink:title="QualityControl/CheckRunner\lFactory.h">
<polygon fill="none" stroke="black" points="66.7032,-224.5 66.7032,-254.5 208.703,-254.5 208.703,-224.5 66.7032,-224.5"/>
<text text-anchor="start" x="74.7032" y="-242.5" font-family="Helvetica,sans-Serif" font-size="10.00">QualityControl/CheckRunner</text>
<text text-anchor="middle" x="137.703" y="-231.5" font-family="Helvetica,sans-Serif" font-size="10.00">Factory.h</text>
</a>
</g>
</g>
<!-- Node1&#45;&gt;Node32 -->
<g id="edge63" class="edge"><title>Node1&#45;&gt;Node32</title>
<path fill="none" stroke="midnightblue" d="M1178.18,-304.92C1009.85,-302.924 579.733,-294.08 222.703,-255 221.587,-254.878 220.463,-254.75 219.334,-254.618"/>
<polygon fill="midnightblue" stroke="midnightblue" points="219.399,-251.098 209.037,-253.307 218.515,-258.042 219.399,-251.098"/>
</g>
<!-- Node8&#45;&gt;Node2 -->
<g id="edge12" class="edge"><title>Node8&#45;&gt;Node2</title>
<path fill="none" stroke="midnightblue" d="M1125.2,-229.801C1145.88,-212.827 1191.45,-176.23 1209.7,-168 1277.22,-137.56 1302.69,-149.666 1378.41,-132.108"/>
<polygon fill="midnightblue" stroke="midnightblue" points="1379.51,-135.442 1388.41,-129.687 1377.86,-128.639 1379.51,-135.442"/>
</g>
<!-- Node8&#45;&gt;Node3 -->
<g id="edge13" class="edge"><title>Node8&#45;&gt;Node3</title>
<path fill="none" stroke="midnightblue" d="M1039.7,-236.032C903.344,-230.983 605.896,-217.382 356.703,-188 355.426,-187.849 354.132,-187.689 352.828,-187.52"/>
<polygon fill="midnightblue" stroke="midnightblue" points="353.105,-184.024 342.713,-186.087 352.123,-190.955 353.105,-184.024"/>
</g>
<!-- Node8&#45;&gt;Node4 -->
<g id="edge18" class="edge"><title>Node8&#45;&gt;Node4</title>
<path fill="none" stroke="midnightblue" d="M1039.65,-234.786C867.816,-226.061 455.898,-203.801 394.703,-188 374.295,-182.731 371.608,-174.932 351.703,-168 308.828,-153.067 258.767,-141.35 221.089,-133.62"/>
<polygon fill="midnightblue" stroke="midnightblue" points="221.301,-130.093 210.806,-131.547 219.917,-136.955 221.301,-130.093"/>
</g>
<!-- Node9 -->
<g id="node9" class="node"><title>Node9</title>
<polygon fill="none" stroke="#bfbfbf" points="1218.7,-168.5 1218.7,-187.5 1264.7,-187.5 1264.7,-168.5 1218.7,-168.5"/>
<text text-anchor="middle" x="1241.7" y="-175.5" font-family="Helvetica,sans-Serif" font-size="10.00">chrono</text>
</g>
<!-- Node8&#45;&gt;Node9 -->
<g id="edge8" class="edge"><title>Node8&#45;&gt;Node9</title>
<path fill="none" stroke="midnightblue" d="M1132.9,-229.975C1154.21,-219.99 1189.73,-203.348 1214.37,-191.807"/>
<polygon fill="midnightblue" stroke="midnightblue" points="1215.97,-194.921 1223.54,-187.509 1213,-188.582 1215.97,-194.921"/>
</g>
<!-- Node10 -->
<g id="node10" class="node"><title>Node10</title>
<polygon fill="none" stroke="#bfbfbf" points="1152.7,-112.5 1152.7,-131.5 1204.7,-131.5 1204.7,-112.5 1152.7,-112.5"/>
<text text-anchor="middle" x="1178.7" y="-119.5" font-family="Helvetica,sans-Serif" font-size="10.00">memory</text>
</g>
<!-- Node8&#45;&gt;Node10 -->
<g id="edge9" class="edge"><title>Node8&#45;&gt;Node10</title>
<path fill="none" stroke="midnightblue" d="M1116.49,-229.785C1119.57,-215.984 1126.73,-188.558 1138.7,-168 1144.86,-157.432 1153.74,-147.124 1161.58,-139.046"/>
<polygon fill="midnightblue" stroke="midnightblue" points="1164.27,-141.305 1168.92,-131.785 1159.35,-136.328 1164.27,-141.305"/>
</g>
<!-- Node11 -->
<g id="node11" class="node"><title>Node11</title>
<polygon fill="none" stroke="#bfbfbf" points="532.203,-0.5 532.203,-19.5 573.203,-19.5 573.203,-0.5 532.203,-0.5"/>
<text text-anchor="middle" x="552.703" y="-7.5" font-family="Helvetica,sans-Serif" font-size="10.00">string</text>
</g>
<!-- Node8&#45;&gt;Node11 -->
<g id="edge10" class="edge"><title>Node8&#45;&gt;Node11</title>
<path fill="none" stroke="midnightblue" d="M1039.57,-236.653C886.005,-232.277 541.137,-219.212 427.703,-188 408.539,-182.727 405.909,-175.976 387.703,-168 346.346,-149.88 318.357,-169.156 292.703,-132 233.956,-46.9138 441.63,-20.2471 522.127,-13.2114"/>
<polygon fill="midnightblue" stroke="midnightblue" points="522.489,-16.6935 532.165,-12.3789 521.91,-9.71746 522.489,-16.6935"/>
</g>
<!-- Node12 -->
<g id="node12" class="node"><title>Node12</title>
<polygon fill="none" stroke="#bfbfbf" points="931.203,-0.5 931.203,-19.5 966.203,-19.5 966.203,-0.5 931.203,-0.5"/>
<text text-anchor="middle" x="948.703" y="-7.5" font-family="Helvetica,sans-Serif" font-size="10.00">map</text>
</g>
<!-- Node8&#45;&gt;Node12 -->
<g id="edge11" class="edge"><title>Node8&#45;&gt;Node12</title>
<path fill="none" stroke="midnightblue" d="M1189.92,-234.297C1299.82,-227.377 1493.61,-211.922 1514.7,-188 1520.58,-181.333 1517.51,-176.433 1514.7,-168 1489.06,-91.0816 1448.13,-80.0717 1370.7,-56 1218.84,-8.78561 1172.62,-38.7463 1014.7,-20 1002.13,-18.5075 988.24,-16.6455 976.459,-15.003"/>
<polygon fill="midnightblue" stroke="midnightblue" points="976.721,-11.5054 966.33,-13.5732 975.743,-18.4367 976.721,-11.5054"/>
</g>
<!-- Node13 -->
<g id="node13" class="node"><title>Node13</title>
<polygon fill="none" stroke="#bfbfbf" points="1282.7,-168.5 1282.7,-187.5 1374.7,-187.5 1374.7,-168.5 1282.7,-168.5"/>
<text text-anchor="middle" x="1328.7" y="-175.5" font-family="Helvetica,sans-Serif" font-size="10.00">Common/Timer.h</text>
</g>
<!-- Node8&#45;&gt;Node13 -->
<g id="edge14" class="edge"><title>Node8&#45;&gt;Node13</title>
<path fill="none" stroke="midnightblue" d="M1145.36,-229.975C1182.95,-219.526 1246.75,-201.787 1288.3,-190.233"/>
<polygon fill="midnightblue" stroke="midnightblue" points="1289.4,-193.56 1298.1,-187.509 1287.53,-186.816 1289.4,-193.56"/>
</g>
<!-- Node14 -->
<g id="node14" class="node"><title>Node14</title>
<polygon fill="none" stroke="#bfbfbf" points="1392.7,-168.5 1392.7,-187.5 1490.7,-187.5 1490.7,-168.5 1392.7,-168.5"/>
<text text-anchor="middle" x="1441.7" y="-175.5" font-family="Helvetica,sans-Serif" font-size="10.00">Framework/Task.h</text>
</g>
<!-- Node8&#45;&gt;Node14 -->
<g id="edge15" class="edge"><title>Node8&#45;&gt;Node14</title>
<path fill="none" stroke="midnightblue" d="M1161.55,-229.975C1220.44,-219.261 1321.44,-200.882 1384.73,-189.366"/>
<polygon fill="midnightblue" stroke="midnightblue" points="1385.73,-192.743 1394.94,-187.509 1384.47,-185.856 1385.73,-192.743"/>
</g>
<!-- Node15 -->
<g id="node15" class="node"><title>Node15</title>
<polygon fill="none" stroke="#bfbfbf" points="574.203,-168.5 574.203,-187.5 691.203,-187.5 691.203,-168.5 574.203,-168.5"/>
<text text-anchor="middle" x="632.703" y="-175.5" font-family="Helvetica,sans-Serif" font-size="10.00">Headers/DataHeader.h</text>
</g>
<!-- Node8&#45;&gt;Node15 -->
<g id="edge16" class="edge"><title>Node8&#45;&gt;Node15</title>
<path fill="none" stroke="midnightblue" d="M1042.32,-229.969C961.669,-220.4 827.08,-204.246 701.69,-188.243"/>
<polygon fill="midnightblue" stroke="midnightblue" points="701.887,-184.74 691.524,-186.943 700.999,-191.683 701.887,-184.74"/>
</g>
<!-- Node16 -->
<g id="node16" class="node"><title>Node16</title>
<polygon fill="none" stroke="#bfbfbf" points="709.203,-168.5 709.203,-187.5 860.203,-187.5 860.203,-168.5 709.203,-168.5"/>
<text text-anchor="middle" x="784.703" y="-175.5" font-family="Helvetica,sans-Serif" font-size="10.00">Monitoring/MonitoringFactory.h</text>
</g>
<!-- Node8&#45;&gt;Node16 -->
<g id="edge17" class="edge"><title>Node8&#45;&gt;Node16</title>
<path fill="none" stroke="midnightblue" d="M1067.42,-229.975C1007.87,-219.239 905.646,-200.806 841.801,-189.295"/>
<polygon fill="midnightblue" stroke="midnightblue" points="842.359,-185.839 831.896,-187.509 841.117,-192.728 842.359,-185.839"/>
</g>
<!-- Node17 -->
<g id="node17" class="node"><title>Node17</title>
<g id="a_node17"><a xlink:href="CheckInterface_8h.html" target="_top" xlink:title="QualityControl/CheckInterface.h">
<polygon fill="none" stroke="black" points="659.203,-112.5 659.203,-131.5 816.203,-131.5 816.203,-112.5 659.203,-112.5"/>
<text text-anchor="middle" x="737.703" y="-119.5" font-family="Helvetica,sans-Serif" font-size="10.00">QualityControl/CheckInterface.h</text>
</a>
</g>
</g>
<!-- Node8&#45;&gt;Node17 -->
<g id="edge19" class="edge"><title>Node8&#45;&gt;Node17</title>
<path fill="none" stroke="midnightblue" d="M1066.06,-229.986C1023.49,-221.75 960.394,-207.627 907.703,-188 889.449,-181.2 886.627,-175.628 868.703,-168 838.095,-154.974 802.317,-142.886 775.892,-134.526"/>
<polygon fill="midnightblue" stroke="midnightblue" points="776.842,-131.156 766.253,-131.51 774.751,-137.837 776.842,-131.156"/>
</g>
<!-- Node20 -->
<g id="node20" class="node"><title>Node20</title>
<g id="a_node20"><a xlink:href="MonitorObject_8h.html" target="_top" xlink:title="QualityControl/MonitorObject.h">
<polygon fill="none" stroke="black" points="873.203,-56.5 873.203,-75.5 1024.2,-75.5 1024.2,-56.5 873.203,-56.5"/>
<text text-anchor="middle" x="948.703" y="-63.5" font-family="Helvetica,sans-Serif" font-size="10.00">QualityControl/MonitorObject.h</text>
</a>
</g>
</g>
<!-- Node8&#45;&gt;Node20 -->
<g id="edge45" class="edge"><title>Node8&#45;&gt;Node20</title>
<path fill="none" stroke="midnightblue" d="M1189.74,-233.91C1295.96,-226.636 1479.61,-210.898 1499.7,-188 1505.57,-181.318 1503.18,-176.182 1499.7,-168 1485.7,-135.017 1474.3,-126.87 1441.7,-112 1361.56,-75.4453 1139.26,-84.1615 1034.32,-75.9465"/>
<polygon fill="midnightblue" stroke="midnightblue" points="1034.51,-72.4493 1024.24,-75.0673 1033.9,-79.4229 1034.51,-72.4493"/>
</g>
<!-- Node24 -->
<g id="node24" class="node"><title>Node24</title>
<g id="a_node24"><a xlink:href="DatabaseInterface_8h.html" target="_top" xlink:title="QualityControl/DatabaseInterface.h">
<polygon fill="none" stroke="black" points="916.703,-168.5 916.703,-187.5 1086.7,-187.5 1086.7,-168.5 916.703,-168.5"/>
<text text-anchor="middle" x="1001.7" y="-175.5" font-family="Helvetica,sans-Serif" font-size="10.00">QualityControl/DatabaseInterface.h</text>
</a>
</g>
</g>
<!-- Node8&#45;&gt;Node24 -->
<g id="edge33" class="edge"><title>Node8&#45;&gt;Node24</title>
<path fill="none" stroke="midnightblue" d="M1098.51,-229.975C1079.8,-220.122 1048.78,-203.788 1026.9,-192.27"/>
<polygon fill="midnightblue" stroke="midnightblue" points="1028.34,-189.071 1017.86,-187.509 1025.08,-195.265 1028.34,-189.071"/>
</g>
<!-- Node27 -->
<g id="node27" class="node"><title>Node27</title>
<g id="a_node27"><a xlink:href="QcInfoLogger_8h.html" target="_top" xlink:title="QualityControl/QcInfoLogger.h">
<polygon fill="none" stroke="black" points="1222.2,-112.5 1222.2,-131.5 1371.2,-131.5 1371.2,-112.5 1222.2,-112.5"/>
<text text-anchor="middle" x="1296.7" y="-119.5" font-family="Helvetica,sans-Serif" font-size="10.00">QualityControl/QcInfoLogger.h</text>
</a>
</g>
</g>
<!-- Node8&#45;&gt;Node27 -->
<g id="edge46" class="edge"><title>Node8&#45;&gt;Node27</title>
<path fill="none" stroke="midnightblue" d="M1120.16,-229.904C1129.87,-215.268 1151.48,-185.406 1176.7,-168 1199.06,-152.573 1227.37,-141.627 1250.89,-134.396"/>
<polygon fill="midnightblue" stroke="midnightblue" points="1252.04,-137.706 1260.64,-131.522 1250.06,-130.992 1252.04,-137.706"/>
</g>
<!-- Node29 -->
<g id="node29" class="node"><title>Node29</title>
<g id="a_node29"><a xlink:href="Check_8h_source.html" target="_top" xlink:title="QualityControl/Check.h">
<polygon fill="none" stroke="black" points="437.203,-168.5 437.203,-187.5 556.203,-187.5 556.203,-168.5 437.203,-168.5"/>
<text text-anchor="middle" x="496.703" y="-175.5" font-family="Helvetica,sans-Serif" font-size="10.00">QualityControl/Check.h</text>
</a>
</g>
</g>
<!-- Node8&#45;&gt;Node29 -->
<g id="edge48" class="edge"><title>Node8&#45;&gt;Node29</title>
<path fill="none" stroke="midnightblue" d="M1039.43,-232.549C935.426,-224.111 741.641,-207.621 566.565,-188.173"/>
<polygon fill="midnightblue" stroke="midnightblue" points="566.717,-184.668 556.391,-187.037 565.941,-191.625 566.717,-184.668"/>
</g>
<!-- Node17&#45;&gt;Node11 -->
<g id="edge20" class="edge"><title>Node17&#45;&gt;Node11</title>
<path fill="none" stroke="midnightblue" d="M658.922,-115.988C628.179,-110.221 594.836,-98.6823 571.703,-76 559.515,-64.0492 555.04,-44.7469 553.45,-30.2757"/>
<polygon fill="midnightblue" stroke="midnightblue" points="556.915,-29.6594 552.701,-19.9385 549.933,-30.1654 556.915,-29.6594"/>
</g>
<!-- Node17&#45;&gt;Node12 -->
<g id="edge21" class="edge"><title>Node17&#45;&gt;Node12</title>
<path fill="none" stroke="midnightblue" d="M748.034,-112.494C764.643,-99.1232 798.675,-72.9673 830.703,-56 860.37,-40.2836 896.765,-27.2686 921.224,-19.3463"/>
<polygon fill="midnightblue" stroke="midnightblue" points="922.449,-22.63 930.922,-16.2698 920.332,-15.9577 922.449,-22.63"/>
</g>
<!-- Node18 -->
<g id="node18" class="node"><title>Node18</title>
<polygon fill="none" stroke="#bfbfbf" points="441.203,-56.5 441.203,-75.5 524.203,-75.5 524.203,-56.5 441.203,-56.5"/>
<text text-anchor="middle" x="482.703" y="-63.5" font-family="Helvetica,sans-Serif" font-size="10.00">unordered_map</text>
</g>
<!-- Node17&#45;&gt;Node18 -->
<g id="edge22" class="edge"><title>Node17&#45;&gt;Node18</title>
<path fill="none" stroke="midnightblue" d="M697.298,-112.444C652.72,-103.004 580.935,-87.802 532.811,-77.6111"/>
<polygon fill="midnightblue" stroke="midnightblue" points="533.428,-74.1641 522.92,-75.5164 531.978,-81.0123 533.428,-74.1641"/>
</g>
<!-- Node19 -->
<g id="node19" class="node"><title>Node19</title>
<polygon fill="none" stroke="#bfbfbf" points="702.703,-0.5 702.703,-19.5 758.703,-19.5 758.703,-0.5 702.703,-0.5"/>
<text text-anchor="middle" x="730.703" y="-7.5" font-family="Helvetica,sans-Serif" font-size="10.00">Rtypes.h</text>
</g>
<!-- Node17&#45;&gt;Node19 -->
<g id="edge23" class="edge"><title>Node17&#45;&gt;Node19</title>
<path fill="none" stroke="midnightblue" d="M737.154,-112.368C736.024,-94.617 733.418,-53.6664 731.887,-29.5974"/>
<polygon fill="midnightblue" stroke="midnightblue" points="735.378,-29.3489 731.25,-19.5914 728.392,-29.7935 735.378,-29.3489"/>
</g>
<!-- Node17&#45;&gt;Node20 -->
<g id="edge24" class="edge"><title>Node17&#45;&gt;Node20</title>
<path fill="none" stroke="midnightblue" d="M771.137,-112.444C807.559,-103.122 865.934,-88.1828 905.733,-77.9972"/>
<polygon fill="midnightblue" stroke="midnightblue" points="906.606,-81.3866 915.426,-75.5164 904.871,-74.6051 906.606,-81.3866"/>
</g>
<!-- Node23 -->
<g id="node23" class="node"><title>Node23</title>
<g id="a_node23"><a xlink:href="Quality_8h.html" target="_top" xlink:title="QualityControl/Quality.h">
<polygon fill="none" stroke="black" points="581.203,-56.5 581.203,-75.5 702.203,-75.5 702.203,-56.5 581.203,-56.5"/>
<text text-anchor="middle" x="641.703" y="-63.5" font-family="Helvetica,sans-Serif" font-size="10.00">QualityControl/Quality.h</text>
</a>
</g>
</g>
<!-- Node17&#45;&gt;Node23 -->
<g id="edge30" class="edge"><title>Node17&#45;&gt;Node23</title>
<path fill="none" stroke="midnightblue" d="M722.279,-112.324C707.164,-103.822 683.888,-90.7288 666.232,-80.7975"/>
<polygon fill="midnightblue" stroke="midnightblue" points="667.521,-77.5066 657.089,-75.6545 664.089,-83.6077 667.521,-77.5066"/>
</g>
<!-- Node20&#45;&gt;Node11 -->
<g id="edge25" class="edge"><title>Node20&#45;&gt;Node11</title>
<path fill="none" stroke="midnightblue" d="M885.956,-56.4435C799.809,-44.6962 648.229,-24.0263 583.456,-15.1936"/>
<polygon fill="midnightblue" stroke="midnightblue" points="583.853,-11.7154 573.472,-13.8321 582.907,-18.6512 583.853,-11.7154"/>
</g>
<!-- Node20&#45;&gt;Node12 -->
<g id="edge26" class="edge"><title>Node20&#45;&gt;Node12</title>
<path fill="none" stroke="midnightblue" d="M948.703,-56.083C948.703,-49.0059 948.703,-38.8611 948.703,-29.9865"/>
<polygon fill="midnightblue" stroke="midnightblue" points="952.203,-29.751 948.703,-19.7511 945.203,-29.7511 952.203,-29.751"/>
</g>
<!-- Node20&#45;&gt;Node19 -->
<g id="edge27" class="edge"><title>Node20&#45;&gt;Node19</title>
<path fill="none" stroke="midnightblue" d="M914.16,-56.4435C874.537,-46.6286 809.769,-30.5852 768.736,-20.421"/>
<polygon fill="midnightblue" stroke="midnightblue" points="769.394,-16.9781 758.845,-17.971 767.71,-23.7728 769.394,-16.9781"/>
</g>
<!-- Node21 -->
<g id="node21" class="node"><title>Node21</title>
<polygon fill="none" stroke="#bfbfbf" points="1024.2,-0.5 1024.2,-19.5 1083.2,-19.5 1083.2,-0.5 1024.2,-0.5"/>
<text text-anchor="middle" x="1053.7" y="-7.5" font-family="Helvetica,sans-Serif" font-size="10.00">TObject.h</text>
</g>
<!-- Node20&#45;&gt;Node21 -->
<g id="edge28" class="edge"><title>Node20&#45;&gt;Node21</title>
<path fill="none" stroke="midnightblue" d="M965.573,-56.324C982.412,-47.6641 1008.51,-34.2424 1027.94,-24.249"/>
<polygon fill="midnightblue" stroke="midnightblue" points="1029.58,-27.3405 1036.88,-19.6545 1026.38,-21.1155 1029.58,-27.3405"/>
</g>
<!-- Node22 -->
<g id="node22" class="node"><title>Node22</title>
<polygon fill="none" stroke="#bfbfbf" points="1121.7,-0.5 1121.7,-19.5 1237.7,-19.5 1237.7,-0.5 1121.7,-0.5"/>
<text text-anchor="middle" x="1179.7" y="-7.5" font-family="Helvetica,sans-Serif" font-size="10.00">Common/Exceptions.h</text>
</g>
<!-- Node20&#45;&gt;Node22 -->
<g id="edge29" class="edge"><title>Node20&#45;&gt;Node22</title>
<path fill="none" stroke="midnightblue" d="M985.306,-56.4435C1025.43,-47.0629 1089.9,-31.9926 1133.49,-21.8036"/>
<polygon fill="midnightblue" stroke="midnightblue" points="1134.33,-25.2009 1143.27,-19.5164 1132.74,-18.3847 1134.33,-25.2009"/>
</g>
<!-- Node23&#45;&gt;Node11 -->
<g id="edge32" class="edge"><title>Node23&#45;&gt;Node11</title>
<path fill="none" stroke="midnightblue" d="M627.404,-56.324C613.52,-47.9002 592.211,-34.9709 575.9,-25.0741"/>
<polygon fill="midnightblue" stroke="midnightblue" points="577.332,-21.8495 566.967,-19.6545 573.701,-27.8341 577.332,-21.8495"/>
</g>
<!-- Node23&#45;&gt;Node19 -->
<g id="edge31" class="edge"><title>Node23&#45;&gt;Node19</title>
<path fill="none" stroke="midnightblue" d="M656.003,-56.324C669.886,-47.9002 691.196,-34.9709 707.507,-25.0741"/>
<polygon fill="midnightblue" stroke="midnightblue" points="709.705,-27.8341 716.439,-19.6545 706.074,-21.8495 709.705,-27.8341"/>
</g>
<!-- Node24&#45;&gt;Node2 -->
<g id="edge36" class="edge"><title>Node24&#45;&gt;Node2</title>
<path fill="none" stroke="midnightblue" d="M1086.78,-170.884C1161.48,-164.595 1273.12,-152.97 1378.6,-131.929"/>
<polygon fill="midnightblue" stroke="midnightblue" points="1379.36,-135.348 1388.46,-129.931 1377.97,-128.487 1379.36,-135.348"/>
</g>
<!-- Node24&#45;&gt;Node10 -->
<g id="edge35" class="edge"><title>Node24&#45;&gt;Node10</title>
<path fill="none" stroke="midnightblue" d="M1029.75,-168.444C1060.32,-159.118 1109.31,-144.171 1142.7,-133.985"/>
<polygon fill="midnightblue" stroke="midnightblue" points="1143.98,-137.254 1152.52,-130.988 1141.93,-130.559 1143.98,-137.254"/>
</g>
<!-- Node24&#45;&gt;Node11 -->
<g id="edge34" class="edge"><title>Node24&#45;&gt;Node11</title>
<path fill="none" stroke="midnightblue" d="M983.271,-168.449C937.704,-147.507 815.829,-92.6863 710.703,-56 667.154,-40.8025 615.574,-26.8482 583.489,-18.6311"/>
<polygon fill="midnightblue" stroke="midnightblue" points="583.948,-15.1368 573.395,-16.0708 582.227,-21.922 583.948,-15.1368"/>
</g>
<!-- Node24&#45;&gt;Node18 -->
<g id="edge37" class="edge"><title>Node24&#45;&gt;Node18</title>
<path fill="none" stroke="midnightblue" d="M916.695,-171.965C844.719,-166.321 739.262,-154.789 649.703,-132 598.88,-119.068 542.582,-94.985 510.054,-80.0426"/>
<polygon fill="midnightblue" stroke="midnightblue" points="511.298,-76.7613 500.754,-75.7212 508.348,-83.1094 511.298,-76.7613"/>
</g>
<!-- Node24&#45;&gt;Node20 -->
<g id="edge44" class="edge"><title>Node24&#45;&gt;Node20</title>
<path fill="none" stroke="midnightblue" d="M996.455,-168.175C991.2,-159.203 983.012,-144.833 976.703,-132 969.004,-116.339 961.229,-98.0475 955.832,-84.8655"/>
<polygon fill="midnightblue" stroke="midnightblue" points="959.054,-83.4962 952.061,-75.5369 952.564,-86.1198 959.054,-83.4962"/>
</g>
<!-- Node25 -->
<g id="node25" class="node"><title>Node25</title>
<g id="a_node25"><a xlink:href="QualityObject_8h_source.html" target="_top" xlink:title="QualityControl/QualityObject.h">
<polygon fill="none" stroke="black" points="986.203,-112.5 986.203,-131.5 1135.2,-131.5 1135.2,-112.5 986.203,-112.5"/>
<text text-anchor="middle" x="1060.7" y="-119.5" font-family="Helvetica,sans-Serif" font-size="10.00">QualityControl/QualityObject.h</text>
</a>
</g>
</g>
<!-- Node24&#45;&gt;Node25 -->
<g id="edge38" class="edge"><title>Node24&#45;&gt;Node25</title>
<path fill="none" stroke="midnightblue" d="M1011.18,-168.324C1019.9,-160.341 1033.05,-148.313 1043.6,-138.653"/>
<polygon fill="midnightblue" stroke="midnightblue" points="1046.04,-141.167 1051.05,-131.834 1041.31,-136.004 1046.04,-141.167"/>
</g>
<!-- Node25&#45;&gt;Node12 -->
<g id="edge40" class="edge"><title>Node25&#45;&gt;Node12</title>
<path fill="none" stroke="midnightblue" d="M1074.18,-112.432C1092.28,-99.8495 1120.57,-75.7297 1105.7,-56 1090.16,-35.3695 1017.2,-21.3093 976.436,-14.9182"/>
<polygon fill="midnightblue" stroke="midnightblue" points="976.755,-11.4267 966.343,-13.3894 975.706,-18.3477 976.755,-11.4267"/>
</g>
<!-- Node25&#45;&gt;Node21 -->
<g id="edge41" class="edge"><title>Node25&#45;&gt;Node21</title>
<path fill="none" stroke="midnightblue" d="M1086.93,-112.424C1115.15,-101.674 1154.07,-81.5214 1138.7,-56 1128.7,-39.3786 1110.26,-28.575 1093.11,-21.7323"/>
<polygon fill="midnightblue" stroke="midnightblue" points="1093.83,-18.2697 1083.24,-18.147 1091.44,-24.8495 1093.83,-18.2697"/>
</g>
<!-- Node25&#45;&gt;Node22 -->
<g id="edge42" class="edge"><title>Node25&#45;&gt;Node22</title>
<path fill="none" stroke="midnightblue" d="M1092.74,-112.369C1112.9,-105.476 1138.13,-93.9427 1154.7,-76 1166.61,-63.1051 1173.06,-43.9296 1176.4,-29.745"/>
<polygon fill="midnightblue" stroke="midnightblue" points="1179.89,-30.1532 1178.47,-19.6546 1173.03,-28.7502 1179.89,-30.1532"/>
</g>
<!-- Node25&#45;&gt;Node23 -->
<g id="edge43" class="edge"><title>Node25&#45;&gt;Node23</title>
<path fill="none" stroke="midnightblue" d="M994.311,-112.444C917.459,-102.539 791.391,-86.2915 712.653,-76.1439"/>
<polygon fill="midnightblue" stroke="midnightblue" points="712.708,-72.6221 702.343,-74.8151 711.813,-79.5647 712.708,-72.6221"/>
</g>
<!-- Node26 -->
<g id="node26" class="node"><title>Node26</title>
<polygon fill="none" stroke="#bfbfbf" points="1042.7,-56.5 1042.7,-75.5 1096.7,-75.5 1096.7,-56.5 1042.7,-56.5"/>
<text text-anchor="middle" x="1069.7" y="-63.5" font-family="Helvetica,sans-Serif" font-size="10.00">iostream</text>
</g>
<!-- Node25&#45;&gt;Node26 -->
<g id="edge39" class="edge"><title>Node25&#45;&gt;Node26</title>
<path fill="none" stroke="midnightblue" d="M1062.19,-112.083C1063.38,-104.927 1065.1,-94.6353 1066.59,-85.6911"/>
<polygon fill="midnightblue" stroke="midnightblue" points="1070.05,-86.1904 1068.24,-75.7511 1063.15,-85.0396 1070.05,-86.1904"/>
</g>
<!-- Node28 -->
<g id="node28" class="node"><title>Node28</title>
<polygon fill="none" stroke="#bfbfbf" points="1231.7,-56.5 1231.7,-75.5 1361.7,-75.5 1361.7,-56.5 1231.7,-56.5"/>
<text text-anchor="middle" x="1296.7" y="-63.5" font-family="Helvetica,sans-Serif" font-size="10.00">InfoLogger/InfoLogger.hxx</text>
</g>
<!-- Node27&#45;&gt;Node28 -->
<g id="edge47" class="edge"><title>Node27&#45;&gt;Node28</title>
<path fill="none" stroke="midnightblue" d="M1296.7,-112.083C1296.7,-105.006 1296.7,-94.8611 1296.7,-85.9865"/>
<polygon fill="midnightblue" stroke="midnightblue" points="1300.2,-85.751 1296.7,-75.7511 1293.2,-85.7511 1300.2,-85.751"/>
</g>
<!-- Node29&#45;&gt;Node2 -->
<g id="edge51" class="edge"><title>Node29&#45;&gt;Node2</title>
<path fill="none" stroke="midnightblue" d="M556.375,-168.802C559.188,-168.51 561.975,-168.24 564.703,-168 922.529,-136.478 1020.15,-189.954 1378.37,-131.797"/>
<polygon fill="midnightblue" stroke="midnightblue" points="1379.2,-135.208 1388.5,-130.134 1378.06,-128.3 1379.2,-135.208"/>
</g>
<!-- Node29&#45;&gt;Node4 -->
<g id="edge54" class="edge"><title>Node29&#45;&gt;Node4</title>
<path fill="none" stroke="midnightblue" d="M443.938,-168.444C384.873,-158.865 289.229,-143.356 226.398,-133.167"/>
<polygon fill="midnightblue" stroke="midnightblue" points="226.653,-129.662 216.221,-131.516 225.532,-136.572 226.653,-129.662"/>
</g>
<!-- Node29&#45;&gt;Node10 -->
<g id="edge52" class="edge"><title>Node29&#45;&gt;Node10</title>
<path fill="none" stroke="midnightblue" d="M556.38,-168.863C559.192,-168.555 561.977,-168.265 564.703,-168 818.068,-143.387 887.29,-171.553 1142.5,-131.886"/>
<polygon fill="midnightblue" stroke="midnightblue" points="1143.11,-135.335 1152.44,-130.322 1142.02,-128.42 1143.11,-135.335"/>
</g>
<!-- Node29&#45;&gt;Node12 -->
<g id="edge50" class="edge"><title>Node29&#45;&gt;Node12</title>
<path fill="none" stroke="midnightblue" d="M556.558,-168.963C650.809,-156.283 823.34,-132.966 824.703,-132 855.679,-110.049 837.03,-83.0167 863.703,-56 879.936,-39.5582 903.455,-27.7433 921.64,-20.3571"/>
<polygon fill="midnightblue" stroke="midnightblue" points="923.041,-23.5684 931.114,-16.708 920.525,-17.0362 923.041,-23.5684"/>
</g>
<!-- Node29&#45;&gt;Node17 -->
<g id="edge58" class="edge"><title>Node29&#45;&gt;Node17</title>
<path fill="none" stroke="midnightblue" d="M534.89,-168.444C576.844,-159.043 644.297,-143.929 689.774,-133.739"/>
<polygon fill="midnightblue" stroke="midnightblue" points="690.702,-137.118 699.695,-131.516 689.171,-130.288 690.702,-137.118"/>
</g>
<!-- Node29&#45;&gt;Node18 -->
<g id="edge53" class="edge"><title>Node29&#45;&gt;Node18</title>
<path fill="none" stroke="midnightblue" d="M507.83,-168.468C522.226,-156.32 544.376,-133.162 534.703,-112 528.926,-99.3602 517.651,-88.911 507.073,-81.2737"/>
<polygon fill="midnightblue" stroke="midnightblue" points="508.745,-78.1817 498.487,-75.5333 504.854,-84.0009 508.745,-78.1817"/>
</g>
<!-- Node29&#45;&gt;Node20 -->
<g id="edge57" class="edge"><title>Node29&#45;&gt;Node20</title>
<path fill="none" stroke="midnightblue" d="M556.403,-169.065C559.209,-168.703 561.986,-168.346 564.703,-168 695.29,-151.363 736.144,-180.053 858.703,-132 887.694,-120.633 915.939,-97.7247 932.832,-82.3698"/>
<polygon fill="midnightblue" stroke="midnightblue" points="935.246,-84.9049 940.167,-75.5224 930.469,-79.788 935.246,-84.9049"/>
</g>
<!-- Node29&#45;&gt;Node23 -->
<g id="edge55" class="edge"><title>Node29&#45;&gt;Node23</title>
<path fill="none" stroke="midnightblue" d="M508.081,-168.368C532.751,-149.653 591.413,-105.151 622.151,-81.8324"/>
<polygon fill="midnightblue" stroke="midnightblue" points="624.527,-84.4237 630.378,-75.5914 620.296,-78.8469 624.527,-84.4237"/>
</g>
<!-- Node29&#45;&gt;Node25 -->
<g id="edge56" class="edge"><title>Node29&#45;&gt;Node25</title>
<path fill="none" stroke="midnightblue" d="M556.39,-168.959C559.199,-168.625 561.981,-168.303 564.703,-168 708.7,-151.946 876.702,-137.628 975.586,-129.652"/>
<polygon fill="midnightblue" stroke="midnightblue" points="976.133,-133.119 985.82,-128.829 975.572,-126.142 976.133,-133.119"/>
</g>
<!-- Node29&#45;&gt;Node27 -->
<g id="edge59" class="edge"><title>Node29&#45;&gt;Node27</title>
<path fill="none" stroke="midnightblue" d="M556.378,-168.84C559.19,-168.538 561.976,-168.256 564.703,-168 848.959,-141.344 924.028,-155.244 1211.74,-132.119"/>
<polygon fill="midnightblue" stroke="midnightblue" points="1212.38,-135.579 1222.06,-131.281 1211.81,-128.602 1212.38,-135.579"/>
</g>
<!-- Node30 -->
<g id="node30" class="node"><title>Node30</title>
<polygon fill="none" stroke="#bfbfbf" points="467.203,-112.5 467.203,-131.5 526.203,-131.5 526.203,-112.5 467.203,-112.5"/>
<text text-anchor="middle" x="496.703" y="-119.5" font-family="Helvetica,sans-Serif" font-size="10.00">functional</text>
</g>
<!-- Node29&#45;&gt;Node30 -->
<g id="edge49" class="edge"><title>Node29&#45;&gt;Node30</title>
<path fill="none" stroke="midnightblue" d="M496.703,-168.083C496.703,-161.006 496.703,-150.861 496.703,-141.986"/>
<polygon fill="midnightblue" stroke="midnightblue" points="500.203,-141.751 496.703,-131.751 493.203,-141.751 500.203,-141.751"/>
</g>
<!-- Node31 -->
<g id="node31" class="node"><title>Node31</title>
<g id="a_node31"><a xlink:href="CheckConfig_8h.html" target="_top" xlink:title="QualityControl/CheckConfig.h">
<polygon fill="none" stroke="black" points="302.203,-112.5 302.203,-131.5 449.203,-131.5 449.203,-112.5 302.203,-112.5"/>
<text text-anchor="middle" x="375.703" y="-119.5" font-family="Helvetica,sans-Serif" font-size="10.00">QualityControl/CheckConfig.h</text>
</a>
</g>
</g>
<!-- Node29&#45;&gt;Node31 -->
<g id="edge60" class="edge"><title>Node29&#45;&gt;Node31</title>
<path fill="none" stroke="midnightblue" d="M477.53,-168.444C457.794,-159.636 426.818,-145.812 404.21,-135.722"/>
<polygon fill="midnightblue" stroke="midnightblue" points="405.345,-132.396 394.786,-131.516 402.492,-138.788 405.345,-132.396"/>
</g>
<!-- Node31&#45;&gt;Node11 -->
<g id="edge61" class="edge"><title>Node31&#45;&gt;Node11</title>
<path fill="none" stroke="midnightblue" d="M381.162,-112.182C390.118,-98.3835 409.205,-71.6522 431.703,-56 459.354,-36.7627 496.243,-24.6032 521.992,-17.8414"/>
<polygon fill="midnightblue" stroke="midnightblue" points="523.097,-21.173 531.948,-15.3496 521.397,-14.3825 523.097,-21.173"/>
</g>
<!-- Node31&#45;&gt;Node18 -->
<g id="edge62" class="edge"><title>Node31&#45;&gt;Node18</title>
<path fill="none" stroke="midnightblue" d="M392.895,-112.324C410.054,-103.664 436.649,-90.2424 456.451,-80.249"/>
<polygon fill="midnightblue" stroke="midnightblue" points="458.204,-83.2847 465.554,-75.6545 455.05,-77.0354 458.204,-83.2847"/>
</g>
<!-- Node32&#45;&gt;Node4 -->
<g id="edge65" class="edge"><title>Node32&#45;&gt;Node4</title>
<path fill="none" stroke="midnightblue" d="M153.734,-224.321C162.973,-215.036 173.718,-202.049 178.703,-188 184.204,-172.498 178.984,-154.189 173.246,-140.96"/>
<polygon fill="midnightblue" stroke="midnightblue" points="176.224,-139.078 168.728,-131.59 169.918,-142.118 176.224,-139.078"/>
</g>
<!-- Node32&#45;&gt;Node11 -->
<g id="edge64" class="edge"><title>Node32&#45;&gt;Node11</title>
<path fill="none" stroke="midnightblue" d="M66.6074,-227.247C43.977,-219.937 21.309,-207.882 7.70323,-188 -21.1502,-145.838 42.3286,-128.636 72.7032,-112 226.073,-28.0024 442.229,-13.7741 521.772,-11.4321"/>
<polygon fill="midnightblue" stroke="midnightblue" points="522.158,-14.9236 532.068,-11.1745 521.983,-7.9258 522.158,-14.9236"/>
</g>
<!-- Node32&#45;&gt;Node29 -->
<g id="edge67" class="edge"><title>Node32&#45;&gt;Node29</title>
<path fill="none" stroke="midnightblue" d="M209.059,-226.674C275.111,-215.726 372.309,-199.617 435.064,-189.216"/>
<polygon fill="midnightblue" stroke="midnightblue" points="435.92,-192.622 445.213,-187.534 434.775,-185.716 435.92,-192.622"/>
</g>
<!-- Node33 -->
<g id="node33" class="node"><title>Node33</title>
<polygon fill="none" stroke="#bfbfbf" points="17.2032,-168.5 17.2032,-187.5 170.203,-187.5 170.203,-168.5 17.2032,-168.5"/>
<text text-anchor="middle" x="93.7032" y="-175.5" font-family="Helvetica,sans-Serif" font-size="10.00">Framework/CompletionPolicy.h</text>
</g>
<!-- Node32&#45;&gt;Node33 -->
<g id="edge66" class="edge"><title>Node32&#45;&gt;Node33</title>
<path fill="none" stroke="midnightblue" d="M127.276,-224.399C120.948,-215.842 112.835,-204.871 106.169,-195.857"/>
<polygon fill="midnightblue" stroke="midnightblue" points="108.866,-193.617 100.106,-187.658 103.237,-197.779 108.866,-193.617"/>
</g>
</g>
</svg>
