<?xml version="1.0" encoding="UTF-8" standalone="no"?>
<!DOCTYPE svg PUBLIC "-//W3C//DTD SVG 1.1//EN"
 "http://www.w3.org/Graphics/SVG/1.1/DTD/svg11.dtd">
<!-- Generated by graphviz version 2.38.0 (20140413.2041)
 -->
<!-- Title: Framework/include/QualityControl/CheckRunnerFactory.h Pages: 1 -->
<!--zoomable 263 -->
<svg id="main" version="1.1" xmlns="http://www.w3.org/2000/svg" xmlns:xlink="http://www.w3.org/1999/xlink" xml:space="preserve" onload="init(evt)">
<style type="text/css"><![CDATA[
.edge:hover path { stroke: red; }
.edge:hover polygon { stroke: red; fill: red; }
]]></style>
<script type="text/javascript"><![CDATA[
var edges = document.getElementsByTagName('g');
if (edges && edges.length) {
  for (var i=0;i<edges.length;i++) {
    if (edges[i].id.substr(0,4)=='edge') {
      edges[i].setAttribute('class','edge');
    }
  }
}
]]></script>
        <defs>
                <circle id="rim" cx="0" cy="0" r="7"/>
                <circle id="rim2" cx="0" cy="0" r="3.5"/>
                <g id="zoomPlus">
                        <use xlink:href="#rim" fill="#404040">
                                <set attributeName="fill" to="#808080" begin="zoomplus.mouseover" end="zoomplus.mouseout"/>
                        </use>
                        <path d="M-4,0h8M0,-4v8" fill="none" stroke="white" stroke-width="1.5" pointer-events="none"/>
                </g>
                <g id="zoomMin">
                        <use xlink:href="#rim" fill="#404040">
                                <set attributeName="fill" to="#808080" begin="zoomminus.mouseover" end="zoomminus.mouseout"/>
                        </use>
                        <path d="M-4,0h8" fill="none" stroke="white" stroke-width="1.5" pointer-events="none"/>
                </g>
                <g id="dirArrow">
                        <path fill="none" stroke="white" stroke-width="1.5" d="M0,-3.0v7 M-2.5,-0.5L0,-3.0L2.5,-0.5"/>
                </g>
               <g id="resetDef">
                       <use xlink:href="#rim2" fill="#404040">
                               <set attributeName="fill" to="#808080" begin="reset.mouseover" end="reset.mouseout"/>
                       </use>
               </g>
        </defs>

<script type="text/javascript">
var viewWidth = 1262;
var viewHeight = 263;
var sectionId = 'dynsection-0';
</script>
<script xlink:href="svgpan.js"/>
<svg id="graph" class="graph">
<g id="viewport">
<title>Framework/include/QualityControl/CheckRunnerFactory.h</title>
<!-- Node1 -->
<g id="node1" class="node"><title>Node1</title>
<polygon fill="#bfbfbf" stroke="black" points="538.296,-224.5 538.296,-254.5 690.296,-254.5 690.296,-224.5 538.296,-224.5"/>
<text text-anchor="start" x="546.296" y="-242.5" font-family="Helvetica,sans-Serif" font-size="10.00">Framework/include/Quality</text>
<text text-anchor="middle" x="614.296" y="-231.5" font-family="Helvetica,sans-Serif" font-size="10.00">Control/CheckRunnerFactory.h</text>
</g>
<!-- Node2 -->
<g id="node2" class="node"><title>Node2</title>
<polygon fill="none" stroke="#bfbfbf" points="138.796,-0.5 138.796,-19.5 179.796,-19.5 179.796,-0.5 138.796,-0.5"/>
<text text-anchor="middle" x="159.296" y="-7.5" font-family="Helvetica,sans-Serif" font-size="10.00">string</text>
</g>
<!-- Node1&#45;&gt;Node2 -->
<g id="edge1" class="edge"><title>Node1&#45;&gt;Node2</title>
<path fill="none" stroke="midnightblue" d="M538.064,-236.849C390.281,-231.867 73.4158,-211.899 6.29606,-132 -11.7129,-110.562 13.0313,-72.8284 31.2961,-56 58.3315,-31.0906 99.9737,-19.8281 128.366,-14.8309"/>
<polygon fill="midnightblue" stroke="midnightblue" points="129.218,-18.2394 138.541,-13.207 128.114,-11.3269 129.218,-18.2394"/>
</g>
<!-- Node3 -->
<g id="node3" class="node"><title>Node3</title>
<polygon fill="none" stroke="#bfbfbf" points="1090.3,-112.5 1090.3,-131.5 1254.3,-131.5 1254.3,-112.5 1090.3,-112.5"/>
<text text-anchor="middle" x="1172.3" y="-119.5" font-family="Helvetica,sans-Serif" font-size="10.00">Framework/DataProcessorSpec.h</text>
</g>
<!-- Node1&#45;&gt;Node3 -->
<g id="edge2" class="edge"><title>Node1&#45;&gt;Node3</title>
<path fill="none" stroke="midnightblue" d="M622.406,-224.216C632.759,-207.501 652.358,-180.521 677.296,-168 755.06,-128.957 975.908,-139.612 1080.04,-131.914"/>
<polygon fill="midnightblue" stroke="midnightblue" points="1080.37,-135.399 1090.04,-131.081 1079.78,-128.423 1080.37,-135.399"/>
</g>
<!-- Node4 -->
<g id="node4" class="node"><title>Node4</title>
<polygon fill="none" stroke="#bfbfbf" points="686.796,-168.5 686.796,-187.5 839.796,-187.5 839.796,-168.5 686.796,-168.5"/>
<text text-anchor="middle" x="763.296" y="-175.5" font-family="Helvetica,sans-Serif" font-size="10.00">Framework/CompletionPolicy.h</text>
</g>
<!-- Node1&#45;&gt;Node4 -->
<g id="edge3" class="edge"><title>Node1&#45;&gt;Node4</title>
<path fill="none" stroke="midnightblue" d="M649.607,-224.399C674.718,-214.372 708.134,-201.028 732.231,-191.405"/>
<polygon fill="midnightblue" stroke="midnightblue" points="733.626,-194.617 741.615,-187.658 731.03,-188.116 733.626,-194.617"/>
</g>
<!-- Node5 -->
<g id="node5" class="node"><title>Node5</title>
<g id="a_node5"><a xlink:href="Check_8h_source.html" target="_top" xlink:title="QualityControl/Check.h">
<polygon fill="none" stroke="black" points="510.796,-168.5 510.796,-187.5 629.796,-187.5 629.796,-168.5 510.796,-168.5"/>
<text text-anchor="middle" x="570.296" y="-175.5" font-family="Helvetica,sans-Serif" font-size="10.00">QualityControl/Check.h</text>
</a>
</g>
</g>
<!-- Node1&#45;&gt;Node5 -->
<g id="edge4" class="edge"><title>Node1&#45;&gt;Node5</title>
<path fill="none" stroke="midnightblue" d="M603.869,-224.399C597.541,-215.842 589.427,-204.871 582.762,-195.857"/>
<polygon fill="midnightblue" stroke="midnightblue" points="585.458,-193.617 576.698,-187.658 579.83,-197.779 585.458,-193.617"/>
</g>
<!-- Node5&#45;&gt;Node3 -->
<g id="edge10" class="edge"><title>Node5&#45;&gt;Node3</title>
<path fill="none" stroke="midnightblue" d="M630.048,-169.532C634.866,-168.991 639.661,-168.473 644.296,-168 834.517,-148.587 884.981,-149.432 1080.04,-132.007"/>
<polygon fill="midnightblue" stroke="midnightblue" points="1080.4,-135.489 1090.04,-131.109 1079.77,-128.517 1080.4,-135.489"/>
</g>
<!-- Node6 -->
<g id="node6" class="node"><title>Node6</title>
<polygon fill="none" stroke="#bfbfbf" points="713.796,-112.5 713.796,-131.5 772.796,-131.5 772.796,-112.5 713.796,-112.5"/>
<text text-anchor="middle" x="743.296" y="-119.5" font-family="Helvetica,sans-Serif" font-size="10.00">functional</text>
</g>
<!-- Node5&#45;&gt;Node6 -->
<g id="edge5" class="edge"><title>Node5&#45;&gt;Node6</title>
<path fill="none" stroke="midnightblue" d="M597.708,-168.444C627.065,-159.28 673.816,-144.688 706.392,-134.519"/>
<polygon fill="midnightblue" stroke="midnightblue" points="707.509,-137.837 716.012,-131.516 705.423,-131.155 707.509,-137.837"/>
</g>
<!-- Node7 -->
<g id="node7" class="node"><title>Node7</title>
<polygon fill="none" stroke="#bfbfbf" points="476.796,-0.5 476.796,-19.5 511.796,-19.5 511.796,-0.5 476.796,-0.5"/>
<text text-anchor="middle" x="494.296" y="-7.5" font-family="Helvetica,sans-Serif" font-size="10.00">map</text>
</g>
<!-- Node5&#45;&gt;Node7 -->
<g id="edge6" class="edge"><title>Node5&#45;&gt;Node7</title>
<path fill="none" stroke="midnightblue" d="M561.276,-168.34C553.224,-159.932 541.998,-146.363 537.296,-132 534.531,-123.552 534.561,-120.458 537.296,-112 543.368,-93.2208 557.224,-94.7792 563.296,-76 566.031,-67.5423 567.53,-63.8158 563.296,-56 554.411,-39.5983 536.669,-28.2285 521.401,-21.0207"/>
<polygon fill="midnightblue" stroke="midnightblue" points="522.41,-17.6433 511.843,-16.8742 519.624,-24.065 522.41,-17.6433"/>
</g>
<!-- Node8 -->
<g id="node8" class="node"><title>Node8</title>
<polygon fill="none" stroke="#bfbfbf" points="791.296,-112.5 791.296,-131.5 835.296,-131.5 835.296,-112.5 791.296,-112.5"/>
<text text-anchor="middle" x="813.296" y="-119.5" font-family="Helvetica,sans-Serif" font-size="10.00">vector</text>
</g>
<!-- Node5&#45;&gt;Node8 -->
<g id="edge7" class="edge"><title>Node5&#45;&gt;Node8</title>
<path fill="none" stroke="midnightblue" d="M614.534,-168.423C655.266,-160.334 717.571,-147.478 781.164,-131.898"/>
<polygon fill="midnightblue" stroke="midnightblue" points="782.096,-135.273 790.965,-129.477 780.417,-128.477 782.096,-135.273"/>
</g>
<!-- Node9 -->
<g id="node9" class="node"><title>Node9</title>
<polygon fill="none" stroke="#bfbfbf" points="853.296,-112.5 853.296,-131.5 905.296,-131.5 905.296,-112.5 853.296,-112.5"/>
<text text-anchor="middle" x="879.296" y="-119.5" font-family="Helvetica,sans-Serif" font-size="10.00">memory</text>
</g>
<!-- Node5&#45;&gt;Node9 -->
<g id="edge8" class="edge"><title>Node5&#45;&gt;Node9</title>
<path fill="none" stroke="midnightblue" d="M629.908,-168.771C683.319,-161.044 763.988,-148.505 842.872,-132.153"/>
<polygon fill="midnightblue" stroke="midnightblue" points="843.912,-135.511 852.982,-130.034 842.476,-128.66 843.912,-135.511"/>
</g>
<!-- Node10 -->
<g id="node10" class="node"><title>Node10</title>
<polygon fill="none" stroke="#bfbfbf" points="47.7961,-56.5 47.7961,-75.5 130.796,-75.5 130.796,-56.5 47.7961,-56.5"/>
<text text-anchor="middle" x="89.2961" y="-63.5" font-family="Helvetica,sans-Serif" font-size="10.00">unordered_map</text>
</g>
<!-- Node5&#45;&gt;Node10 -->
<g id="edge9" class="edge"><title>Node5&#45;&gt;Node10</title>
<path fill="none" stroke="midnightblue" d="M510.648,-172.908C445.911,-167.471 339.919,-155.657 251.296,-132 202.155,-118.882 147.817,-95.0263 116.219,-80.1505"/>
<polygon fill="midnightblue" stroke="midnightblue" points="117.327,-76.8017 106.794,-75.6612 114.317,-83.1214 117.327,-76.8017"/>
</g>
<!-- Node11 -->
<g id="node11" class="node"><title>Node11</title>
<g id="a_node11"><a xlink:href="Quality_8h.html" target="_top" xlink:title="QualityControl/Quality.h">
<polygon fill="none" stroke="black" points="187.796,-56.5 187.796,-75.5 308.796,-75.5 308.796,-56.5 187.796,-56.5"/>
<text text-anchor="middle" x="248.296" y="-63.5" font-family="Helvetica,sans-Serif" font-size="10.00">QualityControl/Quality.h</text>
</a>
</g>
</g>
<!-- Node5&#45;&gt;Node11 -->
<g id="edge11" class="edge"><title>Node5&#45;&gt;Node11</title>
<path fill="none" stroke="midnightblue" d="M510.687,-175.585C432.93,-172.516 302.625,-162.794 267.296,-132 254.16,-120.55 249.866,-100.569 248.578,-85.7747"/>
<polygon fill="midnightblue" stroke="midnightblue" points="252.07,-85.5152 248.083,-75.699 245.078,-85.8588 252.07,-85.5152"/>
</g>
<!-- Node13 -->
<g id="node13" class="node"><title>Node13</title>
<g id="a_node13"><a xlink:href="QualityObject_8h_source.html" target="_top" xlink:title="QualityControl/QualityObject.h">
<polygon fill="none" stroke="black" points="546.796,-112.5 546.796,-131.5 695.796,-131.5 695.796,-112.5 546.796,-112.5"/>
<text text-anchor="middle" x="621.296" y="-119.5" font-family="Helvetica,sans-Serif" font-size="10.00">QualityControl/QualityObject.h</text>
</a>
</g>
</g>
<!-- Node5&#45;&gt;Node13 -->
<g id="edge14" class="edge"><title>Node5&#45;&gt;Node13</title>
<path fill="none" stroke="midnightblue" d="M578.718,-168.083C586.144,-160.22 597.148,-148.569 606.108,-139.081"/>
<polygon fill="midnightblue" stroke="midnightblue" points="608.709,-141.424 613.031,-131.751 603.62,-136.618 608.709,-141.424"/>
</g>
<!-- Node17 -->
<g id="node17" class="node"><title>Node17</title>
<g id="a_node17"><a xlink:href="MonitorObject_8h.html" target="_top" xlink:title="QualityControl/MonitorObject.h">
<polygon fill="none" stroke="black" points="403.796,-56.5 403.796,-75.5 554.796,-75.5 554.796,-56.5 403.796,-56.5"/>
<text text-anchor="middle" x="479.296" y="-63.5" font-family="Helvetica,sans-Serif" font-size="10.00">QualityControl/MonitorObject.h</text>
</a>
</g>
</g>
<!-- Node5&#45;&gt;Node17 -->
<g id="edge20" class="edge"><title>Node5&#45;&gt;Node17</title>
<path fill="none" stroke="midnightblue" d="M552.402,-168.369C537.97,-160.613 518.042,-147.993 505.296,-132 494.418,-118.35 487.562,-99.5598 483.64,-85.6918"/>
<polygon fill="midnightblue" stroke="midnightblue" points="486.981,-84.6313 481.102,-75.8174 480.201,-86.3739 486.981,-84.6313"/>
</g>
<!-- Node18 -->
<g id="node18" class="node"><title>Node18</title>
<g id="a_node18"><a xlink:href="CheckInterface_8h.html" target="_top" xlink:title="QualityControl/CheckInterface.h">
<polygon fill="none" stroke="black" points="276.796,-112.5 276.796,-131.5 433.796,-131.5 433.796,-112.5 276.796,-112.5"/>
<text text-anchor="middle" x="355.296" y="-119.5" font-family="Helvetica,sans-Serif" font-size="10.00">QualityControl/CheckInterface.h</text>
</a>
</g>
</g>
<!-- Node5&#45;&gt;Node18 -->
<g id="edge26" class="edge"><title>Node5&#45;&gt;Node18</title>
<path fill="none" stroke="midnightblue" d="M536.229,-168.444C499.116,-159.122 439.635,-144.183 399.081,-133.997"/>
<polygon fill="midnightblue" stroke="midnightblue" points="399.755,-130.558 389.204,-131.516 398.05,-137.347 399.755,-130.558"/>
</g>
<!-- Node19 -->
<g id="node19" class="node"><title>Node19</title>
<g id="a_node19"><a xlink:href="QcInfoLogger_8h.html" target="_top" xlink:title="QualityControl/QcInfoLogger.h">
<polygon fill="none" stroke="black" points="922.796,-112.5 922.796,-131.5 1071.8,-131.5 1071.8,-112.5 922.796,-112.5"/>
<text text-anchor="middle" x="997.296" y="-119.5" font-family="Helvetica,sans-Serif" font-size="10.00">QualityControl/QcInfoLogger.h</text>
</a>
</g>
</g>
<!-- Node5&#45;&gt;Node19 -->
<g id="edge33" class="edge"><title>Node5&#45;&gt;Node19</title>
<path fill="none" stroke="midnightblue" d="M630.118,-169.435C705.803,-159.863 836.299,-143.36 919.613,-132.824"/>
<polygon fill="midnightblue" stroke="midnightblue" points="920.303,-136.265 929.784,-131.538 919.424,-129.32 920.303,-136.265"/>
</g>
<!-- Node21 -->
<g id="node21" class="node"><title>Node21</title>
<g id="a_node21"><a xlink:href="CheckConfig_8h.html" target="_top" xlink:title="QualityControl/CheckConfig.h">
<polygon fill="none" stroke="black" points="15.7961,-112.5 15.7961,-131.5 162.796,-131.5 162.796,-112.5 15.7961,-112.5"/>
<text text-anchor="middle" x="89.2961" y="-119.5" font-family="Helvetica,sans-Serif" font-size="10.00">QualityControl/CheckConfig.h</text>
</a>
</g>
</g>
<!-- Node5&#45;&gt;Node21 -->
<g id="edge35" class="edge"><title>Node5&#45;&gt;Node21</title>
<path fill="none" stroke="midnightblue" d="M510.35,-170.27C425.341,-160.726 269.408,-143.22 173.019,-132.399"/>
<polygon fill="midnightblue" stroke="midnightblue" points="173.344,-128.914 163.016,-131.276 172.563,-135.87 173.344,-128.914"/>
</g>
<!-- Node11&#45;&gt;Node2 -->
<g id="edge13" class="edge"><title>Node11&#45;&gt;Node2</title>
<path fill="none" stroke="midnightblue" d="M233.997,-56.324C220.113,-47.9002 198.804,-34.9709 182.492,-25.0741"/>
<polygon fill="midnightblue" stroke="midnightblue" points="183.925,-21.8495 173.56,-19.6545 180.294,-27.8341 183.925,-21.8495"/>
</g>
<!-- Node12 -->
<g id="node12" class="node"><title>Node12</title>
<polygon fill="none" stroke="#bfbfbf" points="309.296,-0.5 309.296,-19.5 365.296,-19.5 365.296,-0.5 309.296,-0.5"/>
<text text-anchor="middle" x="337.296" y="-7.5" font-family="Helvetica,sans-Serif" font-size="10.00">Rtypes.h</text>
</g>
<!-- Node11&#45;&gt;Node12 -->
<g id="edge12" class="edge"><title>Node11&#45;&gt;Node12</title>
<path fill="none" stroke="midnightblue" d="M262.595,-56.324C276.479,-47.9002 297.788,-34.9709 314.1,-25.0741"/>
<polygon fill="midnightblue" stroke="midnightblue" points="316.298,-27.8341 323.032,-19.6545 312.667,-21.8495 316.298,-27.8341"/>
</g>
<!-- Node13&#45;&gt;Node7 -->
<g id="edge16" class="edge"><title>Node13&#45;&gt;Node7</title>
<path fill="none" stroke="midnightblue" d="M620.273,-112.288C618.238,-98.6353 612.485,-72.0999 597.296,-56 577.09,-34.5823 544.92,-22.779 521.91,-16.697"/>
<polygon fill="midnightblue" stroke="midnightblue" points="522.602,-13.2635 512.058,-14.2912 520.942,-20.0636 522.602,-13.2635"/>
</g>
<!-- Node13&#45;&gt;Node11 -->
<g id="edge19" class="edge"><title>Node13&#45;&gt;Node11</title>
<path fill="none" stroke="midnightblue" d="M562.193,-112.444C495.624,-102.806 387.573,-87.1635 317.22,-76.9782"/>
<polygon fill="midnightblue" stroke="midnightblue" points="317.521,-73.4854 307.123,-75.5164 316.518,-80.4132 317.521,-73.4854"/>
</g>
<!-- Node14 -->
<g id="node14" class="node"><title>Node14</title>
<polygon fill="none" stroke="#bfbfbf" points="649.296,-56.5 649.296,-75.5 703.296,-75.5 703.296,-56.5 649.296,-56.5"/>
<text text-anchor="middle" x="676.296" y="-63.5" font-family="Helvetica,sans-Serif" font-size="10.00">iostream</text>
</g>
<!-- Node13&#45;&gt;Node14 -->
<g id="edge15" class="edge"><title>Node13&#45;&gt;Node14</title>
<path fill="none" stroke="midnightblue" d="M630.378,-112.083C638.467,-104.141 650.491,-92.3354 660.206,-82.7973"/>
<polygon fill="midnightblue" stroke="midnightblue" points="662.699,-85.2545 667.383,-75.7511 657.795,-80.2595 662.699,-85.2545"/>
</g>
<!-- Node15 -->
<g id="node15" class="node"><title>Node15</title>
<polygon fill="none" stroke="#bfbfbf" points="588.796,-0.5 588.796,-19.5 647.796,-19.5 647.796,-0.5 588.796,-0.5"/>
<text text-anchor="middle" x="618.296" y="-7.5" font-family="Helvetica,sans-Serif" font-size="10.00">TObject.h</text>
</g>
<!-- Node13&#45;&gt;Node15 -->
<g id="edge17" class="edge"><title>Node13&#45;&gt;Node15</title>
<path fill="none" stroke="midnightblue" d="M654.09,-112.474C686.632,-102.272 729.371,-83.1048 712.296,-56 700.334,-37.0107 677.894,-25.8584 657.94,-19.4068"/>
<polygon fill="midnightblue" stroke="midnightblue" points="658.682,-15.9772 648.101,-16.5243 656.713,-22.6948 658.682,-15.9772"/>
</g>
<!-- Node16 -->
<g id="node16" class="node"><title>Node16</title>
<polygon fill="none" stroke="#bfbfbf" points="696.296,-0.5 696.296,-19.5 812.296,-19.5 812.296,-0.5 696.296,-0.5"/>
<text text-anchor="middle" x="754.296" y="-7.5" font-family="Helvetica,sans-Serif" font-size="10.00">Common/Exceptions.h</text>
</g>
<!-- Node13&#45;&gt;Node16 -->
<g id="edge18" class="edge"><title>Node13&#45;&gt;Node16</title>
<path fill="none" stroke="midnightblue" d="M660.717,-112.455C683.049,-105.825 710.076,-94.5434 728.296,-76 740.663,-63.413 747.366,-44.1961 750.851,-29.9181"/>
<polygon fill="midnightblue" stroke="midnightblue" points="754.357,-30.2551 753.002,-19.7472 747.508,-28.8062 754.357,-30.2551"/>
</g>
<!-- Node17&#45;&gt;Node2 -->
<g id="edge21" class="edge"><title>Node17&#45;&gt;Node2</title>
<path fill="none" stroke="midnightblue" d="M428.591,-56.4435C361.512,-45.124 245.34,-25.5199 190.139,-16.2047"/>
<polygon fill="midnightblue" stroke="midnightblue" points="190.387,-12.6972 179.944,-14.4843 189.222,-19.5996 190.387,-12.6972"/>
</g>
<!-- Node17&#45;&gt;Node7 -->
<g id="edge22" class="edge"><title>Node17&#45;&gt;Node7</title>
<path fill="none" stroke="midnightblue" d="M481.773,-56.083C483.783,-48.8486 486.683,-38.4087 489.186,-29.3968"/>
<polygon fill="midnightblue" stroke="midnightblue" points="492.561,-30.323 491.865,-19.7511 485.816,-28.4495 492.561,-30.323"/>
</g>
<!-- Node17&#45;&gt;Node12 -->
<g id="edge23" class="edge"><title>Node17&#45;&gt;Node12</title>
<path fill="none" stroke="midnightblue" d="M456.796,-56.4435C433.219,-47.4776 395.974,-33.314 369.332,-23.1827"/>
<polygon fill="midnightblue" stroke="midnightblue" points="370.282,-19.7995 359.691,-19.5164 367.794,-26.3424 370.282,-19.7995"/>
</g>
<!-- Node17&#45;&gt;Node15 -->
<g id="edge24" class="edge"><title>Node17&#45;&gt;Node15</title>
<path fill="none" stroke="midnightblue" d="M501.321,-56.4435C524.4,-47.4776 560.858,-33.314 586.937,-23.1827"/>
<polygon fill="midnightblue" stroke="midnightblue" points="588.32,-26.4002 596.374,-19.5164 585.785,-19.8753 588.32,-26.4002"/>
</g>
<!-- Node17&#45;&gt;Node16 -->
<g id="edge25" class="edge"><title>Node17&#45;&gt;Node16</title>
<path fill="none" stroke="midnightblue" d="M522.871,-56.4435C571.145,-46.9641 649.008,-31.6747 700.908,-21.4835"/>
<polygon fill="midnightblue" stroke="midnightblue" points="701.787,-24.8778 710.925,-19.5164 700.438,-18.0089 701.787,-24.8778"/>
</g>
<!-- Node18&#45;&gt;Node2 -->
<g id="edge27" class="edge"><title>Node18&#45;&gt;Node2</title>
<path fill="none" stroke="midnightblue" d="M276.789,-118.062C242.581,-112.873 204.418,-101.212 178.296,-76 165.881,-64.0168 161.456,-44.4096 159.94,-29.8588"/>
<polygon fill="midnightblue" stroke="midnightblue" points="163.408,-29.2609 159.252,-19.5156 156.424,-29.7261 163.408,-29.2609"/>
</g>
<!-- Node18&#45;&gt;Node7 -->
<g id="edge28" class="edge"><title>Node18&#45;&gt;Node7</title>
<path fill="none" stroke="midnightblue" d="M358.521,-112.285C363.968,-98.628 376.197,-72.0868 394.296,-56 415.302,-37.3293 445.334,-25.2279 466.997,-18.328"/>
<polygon fill="midnightblue" stroke="midnightblue" points="468.027,-21.6732 476.591,-15.4356 466.006,-14.9711 468.027,-21.6732"/>
</g>
<!-- Node18&#45;&gt;Node10 -->
<g id="edge29" class="edge"><title>Node18&#45;&gt;Node10</title>
<path fill="none" stroke="midnightblue" d="M313.148,-112.444C266.413,-102.956 191.01,-87.6487 140.809,-77.4574"/>
<polygon fill="midnightblue" stroke="midnightblue" points="141.306,-73.9871 130.809,-75.4275 139.913,-80.8471 141.306,-73.9871"/>
</g>
<!-- Node18&#45;&gt;Node11 -->
<g id="edge32" class="edge"><title>Node18&#45;&gt;Node11</title>
<path fill="none" stroke="midnightblue" d="M338.105,-112.324C320.945,-103.664 294.35,-90.2424 274.549,-80.249"/>
<polygon fill="midnightblue" stroke="midnightblue" points="275.949,-77.0354 265.445,-75.6545 272.795,-83.2847 275.949,-77.0354"/>
</g>
<!-- Node18&#45;&gt;Node12 -->
<g id="edge30" class="edge"><title>Node18&#45;&gt;Node12</title>
<path fill="none" stroke="midnightblue" d="M353.884,-112.368C350.979,-94.617 344.278,-53.6664 340.339,-29.5974"/>
<polygon fill="midnightblue" stroke="midnightblue" points="343.771,-28.8949 338.702,-19.5914 336.863,-30.0254 343.771,-28.8949"/>
</g>
<!-- Node18&#45;&gt;Node17 -->
<g id="edge31" class="edge"><title>Node18&#45;&gt;Node17</title>
<path fill="none" stroke="midnightblue" d="M374.944,-112.444C395.261,-103.596 427.199,-89.6875 450.394,-79.5865"/>
<polygon fill="midnightblue" stroke="midnightblue" points="451.969,-82.7181 459.74,-75.5164 449.174,-76.3002 451.969,-82.7181"/>
</g>
<!-- Node20 -->
<g id="node20" class="node"><title>Node20</title>
<polygon fill="none" stroke="#bfbfbf" points="932.296,-56.5 932.296,-75.5 1062.3,-75.5 1062.3,-56.5 932.296,-56.5"/>
<text text-anchor="middle" x="997.296" y="-63.5" font-family="Helvetica,sans-Serif" font-size="10.00">InfoLogger/InfoLogger.hxx</text>
</g>
<!-- Node19&#45;&gt;Node20 -->
<g id="edge34" class="edge"><title>Node19&#45;&gt;Node20</title>
<path fill="none" stroke="midnightblue" d="M997.296,-112.083C997.296,-105.006 997.296,-94.8611 997.296,-85.9865"/>
<polygon fill="midnightblue" stroke="midnightblue" points="1000.8,-85.751 997.296,-75.7511 993.796,-85.7511 1000.8,-85.751"/>
</g>
<!-- Node21&#45;&gt;Node2 -->
<g id="edge36" class="edge"><title>Node21&#45;&gt;Node2</title>
<path fill="none" stroke="midnightblue" d="M73.9194,-112.413C54.0731,-100.201 23.7248,-76.9654 38.2961,-56 58.4851,-26.9516 99.7749,-16.6168 128.472,-12.9621"/>
<polygon fill="midnightblue" stroke="midnightblue" points="129.21,-16.4033 138.783,-11.8634 128.469,-9.44266 129.21,-16.4033"/>
</g>
<!-- Node21&#45;&gt;Node10 -->
<g id="edge37" class="edge"><title>Node21&#45;&gt;Node10</title>
<path fill="none" stroke="midnightblue" d="M89.2961,-112.083C89.2961,-105.006 89.2961,-94.8611 89.2961,-85.9865"/>
<polygon fill="midnightblue" stroke="midnightblue" points="92.7962,-85.751 89.2961,-75.7511 85.7962,-85.7511 92.7962,-85.751"/>
</g>
</g>
</svg>
        <g id="navigator" transform="translate(0 0)" fill="#404254">
                <rect fill="#f2f5e9" fill-opacity="0.5" stroke="#606060" stroke-width=".5" x="0" y="0" width="60" height="60"/>
                <use id="zoomplus" xlink:href="#zoomPlus" x="17" y="9" onmousedown="handleZoom(evt,'in')"/>
                <use id="zoomminus" xlink:href="#zoomMin" x="42" y="9" onmousedown="handleZoom(evt,'out')"/>
                <use id="reset" xlink:href="#resetDef" x="30" y="36" onmousedown="handleReset()"/>
                <g id="arrowUp" xlink:href="#dirArrow" transform="translate(30 24)" onmousedown="handlePan(0,-1)">
                  <use xlink:href="#rim" fill="#404040">
                        <set attributeName="fill" to="#808080" begin="arrowUp.mouseover" end="arrowUp.mouseout"/>
                  </use>
                  <path fill="none" stroke="white" stroke-width="1.5" d="M0,-3.0v7 M-2.5,-0.5L0,-3.0L2.5,-0.5"/>
                </g>
                <g id="arrowRight" xlink:href="#dirArrow" transform="rotate(90) translate(36 -43)" onmousedown="handlePan(1,0)">
                  <use xlink:href="#rim" fill="#404040">
                        <set attributeName="fill" to="#808080" begin="arrowRight.mouseover" end="arrowRight.mouseout"/>
                  </use>
                  <path fill="none" stroke="white" stroke-width="1.5" d="M0,-3.0v7 M-2.5,-0.5L0,-3.0L2.5,-0.5"/>
                </g>
                <g id="arrowDown" xlink:href="#dirArrow" transform="rotate(180) translate(-30 -48)" onmousedown="handlePan(0,1)">
                  <use xlink:href="#rim" fill="#404040">
                        <set attributeName="fill" to="#808080" begin="arrowDown.mouseover" end="arrowDown.mouseout"/>
                  </use>
                  <path fill="none" stroke="white" stroke-width="1.5" d="M0,-3.0v7 M-2.5,-0.5L0,-3.0L2.5,-0.5"/>
                </g>
                <g id="arrowLeft" xlink:href="#dirArrow" transform="rotate(270) translate(-36 17)" onmousedown="handlePan(-1,0)">
                  <use xlink:href="#rim" fill="#404040">
                        <set attributeName="fill" to="#808080" begin="arrowLeft.mouseover" end="arrowLeft.mouseout"/>
                  </use>
                  <path fill="none" stroke="white" stroke-width="1.5" d="M0,-3.0v7 M-2.5,-0.5L0,-3.0L2.5,-0.5"/>
                </g>
        </g>
        <svg viewBox="0 0 15 15" width="100%" height="30px" preserveAspectRatio="xMaxYMin meet">
         <g id="arrow_out" transform="scale(0.3 0.3)">
          <a xlink:href="CheckRunnerFactory_8h__incl_org.svg" target="_base">
           <rect id="button" ry="5" rx="5" y="6" x="6" height="38" width="38"
                fill="#f2f5e9" fill-opacity="0.5" stroke="#606060" stroke-width="1.0"/>
           <path id="arrow"
             d="M 11.500037,31.436501 C 11.940474,20.09759 22.043105,11.32322 32.158766,21.979434 L 37.068811,17.246167 C 37.068811,17.246167 37.088388,32 37.088388,32 L 22.160133,31.978069 C 22.160133,31.978069 26.997745,27.140456 26.997745,27.140456 C 18.528582,18.264221 13.291696,25.230495 11.500037,31.436501 z"
             style="fill:#404040;"/>
          </a>
         </g>
        </svg>
</svg>
