<?xml version="1.0" encoding="UTF-8" standalone="no"?>
<!DOCTYPE svg PUBLIC "-//W3C//DTD SVG 1.1//EN"
 "http://www.w3.org/Graphics/SVG/1.1/DTD/svg11.dtd">
<!-- Generated by graphviz version 2.38.0 (20140413.2041)
 -->
<!-- Title: Framework/include/QualityControl/CheckRunner.h Pages: 1 -->
<!--zoomable 263 -->
<svg id="main" version="1.1" xmlns="http://www.w3.org/2000/svg" xmlns:xlink="http://www.w3.org/1999/xlink" xml:space="preserve" onload="init(evt)">
<style type="text/css"><![CDATA[
.edge:hover path { stroke: red; }
.edge:hover polygon { stroke: red; fill: red; }
]]></style>
<script type="text/javascript"><![CDATA[
var edges = document.getElementsByTagName('g');
if (edges && edges.length) {
  for (var i=0;i<edges.length;i++) {
    if (edges[i].id.substr(0,4)=='edge') {
      edges[i].setAttribute('class','edge');
    }
  }
}
]]></script>
        <defs>
                <circle id="rim" cx="0" cy="0" r="7"/>
                <circle id="rim2" cx="0" cy="0" r="3.5"/>
                <g id="zoomPlus">
                        <use xlink:href="#rim" fill="#404040">
                                <set attributeName="fill" to="#808080" begin="zoomplus.mouseover" end="zoomplus.mouseout"/>
                        </use>
                        <path d="M-4,0h8M0,-4v8" fill="none" stroke="white" stroke-width="1.5" pointer-events="none"/>
                </g>
                <g id="zoomMin">
                        <use xlink:href="#rim" fill="#404040">
                                <set attributeName="fill" to="#808080" begin="zoomminus.mouseover" end="zoomminus.mouseout"/>
                        </use>
                        <path d="M-4,0h8" fill="none" stroke="white" stroke-width="1.5" pointer-events="none"/>
                </g>
                <g id="dirArrow">
                        <path fill="none" stroke="white" stroke-width="1.5" d="M0,-3.0v7 M-2.5,-0.5L0,-3.0L2.5,-0.5"/>
                </g>
               <g id="resetDef">
                       <use xlink:href="#rim2" fill="#404040">
                               <set attributeName="fill" to="#808080" begin="reset.mouseover" end="reset.mouseout"/>
                       </use>
               </g>
        </defs>

<script type="text/javascript">
var viewWidth = 1708;
var viewHeight = 263;
var sectionId = 'dynsection-0';
</script>
<script xlink:href="svgpan.js"/>
<svg id="graph" class="graph">
<g id="viewport">
<title>Framework/include/QualityControl/CheckRunner.h</title>
<!-- Node1 -->
<g id="node1" class="node"><title>Node1</title>
<polygon fill="#bfbfbf" stroke="black" points="901.5,-224.5 901.5,-254.5 1034.5,-254.5 1034.5,-224.5 901.5,-224.5"/>
<text text-anchor="start" x="909.5" y="-242.5" font-family="Helvetica,sans-Serif" font-size="10.00">Framework/include/Quality</text>
<text text-anchor="middle" x="968" y="-231.5" font-family="Helvetica,sans-Serif" font-size="10.00">Control/CheckRunner.h</text>
</g>
<!-- Node2 -->
<g id="node2" class="node"><title>Node2</title>
<polygon fill="none" stroke="#bfbfbf" points="0,-168.5 0,-187.5 46,-187.5 46,-168.5 0,-168.5"/>
<text text-anchor="middle" x="23" y="-175.5" font-family="Helvetica,sans-Serif" font-size="10.00">chrono</text>
</g>
<!-- Node1&#45;&gt;Node2 -->
<g id="edge1" class="edge"><title>Node1&#45;&gt;Node2</title>
<path fill="none" stroke="midnightblue" d="M901.219,-238.951C750.382,-239.063 372.16,-234.248 60,-188 58.7493,-187.815 57.479,-187.607 56.199,-187.381"/>
<polygon fill="midnightblue" stroke="midnightblue" points="56.8592,-183.944 46.3604,-185.366 55.455,-190.801 56.8592,-183.944"/>
</g>
<!-- Node3 -->
<g id="node3" class="node"><title>Node3</title>
<polygon fill="none" stroke="#bfbfbf" points="216,-112.5 216,-131.5 268,-131.5 268,-112.5 216,-112.5"/>
<text text-anchor="middle" x="242" y="-119.5" font-family="Helvetica,sans-Serif" font-size="10.00">memory</text>
</g>
<!-- Node1&#45;&gt;Node3 -->
<g id="edge2" class="edge"><title>Node1&#45;&gt;Node3</title>
<path fill="none" stroke="midnightblue" d="M901.478,-237.765C736.105,-235.373 316.062,-225.621 266,-188 251.746,-177.289 245.953,-157.191 243.601,-142.167"/>
<polygon fill="midnightblue" stroke="midnightblue" points="247.038,-141.428 242.39,-131.907 240.086,-142.248 247.038,-141.428"/>
</g>
<!-- Node4 -->
<g id="node4" class="node"><title>Node4</title>
<polygon fill="none" stroke="#bfbfbf" points="435.5,-0.5 435.5,-19.5 476.5,-19.5 476.5,-0.5 435.5,-0.5"/>
<text text-anchor="middle" x="456" y="-7.5" font-family="Helvetica,sans-Serif" font-size="10.00">string</text>
</g>
<!-- Node1&#45;&gt;Node4 -->
<g id="edge3" class="edge"><title>Node1&#45;&gt;Node4</title>
<path fill="none" stroke="midnightblue" d="M901.462,-238.081C727.005,-236.423 266.016,-228.242 211,-188 163.108,-152.969 180.801,-87.6364 231,-56 263.069,-35.7893 371.805,-20.7587 425.495,-14.3759"/>
<polygon fill="midnightblue" stroke="midnightblue" points="425.932,-17.8488 435.46,-13.2157 425.122,-10.8957 425.932,-17.8488"/>
</g>
<!-- Node5 -->
<g id="node5" class="node"><title>Node5</title>
<polygon fill="none" stroke="#bfbfbf" points="970.5,-0.5 970.5,-19.5 1005.5,-19.5 1005.5,-0.5 970.5,-0.5"/>
<text text-anchor="middle" x="988" y="-7.5" font-family="Helvetica,sans-Serif" font-size="10.00">map</text>
</g>
<!-- Node1&#45;&gt;Node5 -->
<g id="edge4" class="edge"><title>Node1&#45;&gt;Node5</title>
<path fill="none" stroke="midnightblue" d="M990.073,-224.49C1021.78,-204.415 1077,-169.68 1082,-168 1162.83,-140.862 1406.61,-195.056 1464,-132 1477.58,-117.078 1477.74,-77.8988 1454,-56 1421.68,-26.1811 1110.99,-14.6193 1015.67,-11.7564"/>
<polygon fill="midnightblue" stroke="midnightblue" points="1015.73,-8.25685 1005.64,-11.4636 1015.53,-15.2539 1015.73,-8.25685"/>
</g>
<!-- Node6 -->
<g id="node6" class="node"><title>Node6</title>
<polygon fill="none" stroke="#bfbfbf" points="490,-112.5 490,-131.5 534,-131.5 534,-112.5 490,-112.5"/>
<text text-anchor="middle" x="512" y="-119.5" font-family="Helvetica,sans-Serif" font-size="10.00">vector</text>
</g>
<!-- Node1&#45;&gt;Node6 -->
<g id="edge5" class="edge"><title>Node1&#45;&gt;Node6</title>
<path fill="none" stroke="midnightblue" d="M903.918,-224.485C821.693,-206.082 674.604,-171.745 543.849,-133.376"/>
<polygon fill="midnightblue" stroke="midnightblue" points="544.646,-129.962 534.064,-130.488 542.664,-136.676 544.646,-129.962"/>
</g>
<!-- Node7 -->
<g id="node7" class="node"><title>Node7</title>
<polygon fill="none" stroke="#bfbfbf" points="1091,-168.5 1091,-187.5 1169,-187.5 1169,-168.5 1091,-168.5"/>
<text text-anchor="middle" x="1130" y="-175.5" font-family="Helvetica,sans-Serif" font-size="10.00">unordered_set</text>
</g>
<!-- Node1&#45;&gt;Node7 -->
<g id="edge6" class="edge"><title>Node1&#45;&gt;Node7</title>
<path fill="none" stroke="midnightblue" d="M1006.39,-224.399C1033.94,-214.283 1070.67,-200.791 1096.92,-191.149"/>
<polygon fill="midnightblue" stroke="midnightblue" points="1098.25,-194.391 1106.43,-187.658 1095.83,-187.82 1098.25,-194.391"/>
</g>
<!-- Node8 -->
<g id="node8" class="node"><title>Node8</title>
<polygon fill="none" stroke="#bfbfbf" points="1187,-168.5 1187,-187.5 1279,-187.5 1279,-168.5 1187,-168.5"/>
<text text-anchor="middle" x="1233" y="-175.5" font-family="Helvetica,sans-Serif" font-size="10.00">Common/Timer.h</text>
</g>
<!-- Node1&#45;&gt;Node8 -->
<g id="edge7" class="edge"><title>Node1&#45;&gt;Node8</title>
<path fill="none" stroke="midnightblue" d="M1030.47,-224.475C1077.78,-213.851 1141.82,-199.473 1185.12,-189.751"/>
<polygon fill="midnightblue" stroke="midnightblue" points="1186.12,-193.112 1195.11,-187.506 1184.59,-186.282 1186.12,-193.112"/>
</g>
<!-- Node9 -->
<g id="node9" class="node"><title>Node9</title>
<polygon fill="none" stroke="#bfbfbf" points="1297,-168.5 1297,-187.5 1395,-187.5 1395,-168.5 1297,-168.5"/>
<text text-anchor="middle" x="1346" y="-175.5" font-family="Helvetica,sans-Serif" font-size="10.00">Framework/Task.h</text>
</g>
<!-- Node1&#45;&gt;Node9 -->
<g id="edge8" class="edge"><title>Node1&#45;&gt;Node9</title>
<path fill="none" stroke="midnightblue" d="M1034.71,-228C1106.07,-216.766 1218.21,-199.116 1286.62,-188.347"/>
<polygon fill="midnightblue" stroke="midnightblue" points="1287.46,-191.757 1296.8,-186.745 1286.38,-184.842 1287.46,-191.757"/>
</g>
<!-- Node10 -->
<g id="node10" class="node"><title>Node10</title>
<polygon fill="none" stroke="#bfbfbf" points="1413.5,-168.5 1413.5,-187.5 1530.5,-187.5 1530.5,-168.5 1413.5,-168.5"/>
<text text-anchor="middle" x="1472" y="-175.5" font-family="Helvetica,sans-Serif" font-size="10.00">Headers/DataHeader.h</text>
</g>
<!-- Node1&#45;&gt;Node10 -->
<g id="edge9" class="edge"><title>Node1&#45;&gt;Node10</title>
<path fill="none" stroke="midnightblue" d="M1034.52,-231.136C1117.97,-221.821 1265.74,-205.076 1403.11,-188.092"/>
<polygon fill="midnightblue" stroke="midnightblue" points="1403.91,-191.52 1413.4,-186.817 1403.05,-184.573 1403.91,-191.52"/>
</g>
<!-- Node11 -->
<g id="node11" class="node"><title>Node11</title>
<polygon fill="none" stroke="#bfbfbf" points="1548.5,-168.5 1548.5,-187.5 1699.5,-187.5 1699.5,-168.5 1548.5,-168.5"/>
<text text-anchor="middle" x="1624" y="-175.5" font-family="Helvetica,sans-Serif" font-size="10.00">Monitoring/MonitoringFactory.h</text>
</g>
<!-- Node1&#45;&gt;Node11 -->
<g id="edge10" class="edge"><title>Node1&#45;&gt;Node11</title>
<path fill="none" stroke="midnightblue" d="M1034.53,-233.032C1139.35,-224.327 1349.63,-206.503 1538.34,-188.148"/>
<polygon fill="midnightblue" stroke="midnightblue" points="1538.84,-191.616 1548.45,-187.162 1538.16,-184.649 1538.84,-191.616"/>
</g>
<!-- Node12 -->
<g id="node12" class="node"><title>Node12</title>
<polygon fill="none" stroke="#bfbfbf" points="1123,-112.5 1123,-131.5 1287,-131.5 1287,-112.5 1123,-112.5"/>
<text text-anchor="middle" x="1205" y="-119.5" font-family="Helvetica,sans-Serif" font-size="10.00">Framework/DataProcessorSpec.h</text>
</g>
<!-- Node1&#45;&gt;Node12 -->
<g id="edge11" class="edge"><title>Node1&#45;&gt;Node12</title>
<path fill="none" stroke="midnightblue" d="M972.828,-224.235C979.058,-208.057 991.475,-182.102 1011,-168 1030.95,-153.589 1088.72,-141.289 1136.06,-133.209"/>
<polygon fill="midnightblue" stroke="midnightblue" points="1136.7,-136.65 1145.99,-131.55 1135.55,-129.746 1136.7,-136.65"/>
</g>
<!-- Node13 -->
<g id="node13" class="node"><title>Node13</title>
<g id="a_node13"><a xlink:href="CheckInterface_8h.html" target="_top" xlink:title="QualityControl/CheckInterface.h">
<polygon fill="none" stroke="black" points="909.5,-112.5 909.5,-131.5 1066.5,-131.5 1066.5,-112.5 909.5,-112.5"/>
<text text-anchor="middle" x="988" y="-119.5" font-family="Helvetica,sans-Serif" font-size="10.00">QualityControl/CheckInterface.h</text>
</a>
</g>
</g>
<!-- Node1&#45;&gt;Node13 -->
<g id="edge12" class="edge"><title>Node1&#45;&gt;Node13</title>
<path fill="none" stroke="midnightblue" d="M967.967,-224.317C968.175,-209.981 969.171,-187.256 973,-168 974.787,-159.014 977.853,-149.34 980.75,-141.273"/>
<polygon fill="midnightblue" stroke="midnightblue" points="984.074,-142.378 984.338,-131.786 977.527,-139.901 984.074,-142.378"/>
</g>
<!-- Node16 -->
<g id="node16" class="node"><title>Node16</title>
<g id="a_node16"><a xlink:href="MonitorObject_8h.html" target="_top" xlink:title="QualityControl/MonitorObject.h">
<polygon fill="none" stroke="black" points="300.5,-56.5 300.5,-75.5 451.5,-75.5 451.5,-56.5 300.5,-56.5"/>
<text text-anchor="middle" x="376" y="-63.5" font-family="Helvetica,sans-Serif" font-size="10.00">QualityControl/MonitorObject.h</text>
</a>
</g>
</g>
<!-- Node1&#45;&gt;Node16 -->
<g id="edge38" class="edge"><title>Node1&#45;&gt;Node16</title>
<path fill="none" stroke="midnightblue" d="M901.459,-236.647C734.292,-231.594 305.903,-216.046 248,-188 211.39,-170.268 171.987,-144.079 197,-112 209.723,-95.6825 255.164,-84.3763 297.075,-77.1779"/>
<polygon fill="midnightblue" stroke="midnightblue" points="297.773,-80.6101 307.067,-75.5253 296.63,-73.7039 297.773,-80.6101"/>
</g>
<!-- Node20 -->
<g id="node20" class="node"><title>Node20</title>
<g id="a_node20"><a xlink:href="DatabaseInterface_8h.html" target="_top" xlink:title="QualityControl/DatabaseInterface.h">
<polygon fill="none" stroke="black" points="275,-168.5 275,-187.5 445,-187.5 445,-168.5 275,-168.5"/>
<text text-anchor="middle" x="360" y="-175.5" font-family="Helvetica,sans-Serif" font-size="10.00">QualityControl/DatabaseInterface.h</text>
</a>
</g>
</g>
<!-- Node1&#45;&gt;Node20 -->
<g id="edge26" class="edge"><title>Node1&#45;&gt;Node20</title>
<path fill="none" stroke="midnightblue" d="M901.485,-231.991C793.517,-221.425 579.716,-200.502 455.509,-188.347"/>
<polygon fill="midnightblue" stroke="midnightblue" points="455.544,-184.834 445.251,-187.343 454.862,-191.8 455.544,-184.834"/>
</g>
<!-- Node23 -->
<g id="node23" class="node"><title>Node23</title>
<g id="a_node23"><a xlink:href="QcInfoLogger_8h.html" target="_top" xlink:title="QualityControl/QcInfoLogger.h">
<polygon fill="none" stroke="black" points="1305.5,-112.5 1305.5,-131.5 1454.5,-131.5 1454.5,-112.5 1305.5,-112.5"/>
<text text-anchor="middle" x="1380" y="-119.5" font-family="Helvetica,sans-Serif" font-size="10.00">QualityControl/QcInfoLogger.h</text>
</a>
</g>
</g>
<!-- Node1&#45;&gt;Node23 -->
<g id="edge39" class="edge"><title>Node1&#45;&gt;Node23</title>
<path fill="none" stroke="midnightblue" d="M979.509,-224.408C993.887,-207.882 1020.14,-181.087 1049,-168 1060.34,-162.859 1205.44,-144.363 1299.72,-132.745"/>
<polygon fill="midnightblue" stroke="midnightblue" points="1300.32,-136.198 1309.81,-131.503 1299.46,-129.25 1300.32,-136.198"/>
</g>
<!-- Node25 -->
<g id="node25" class="node"><title>Node25</title>
<g id="a_node25"><a xlink:href="Check_8h_source.html" target="_top" xlink:title="QualityControl/Check.h">
<polygon fill="none" stroke="black" points="763.5,-168.5 763.5,-187.5 882.5,-187.5 882.5,-168.5 763.5,-168.5"/>
<text text-anchor="middle" x="823" y="-175.5" font-family="Helvetica,sans-Serif" font-size="10.00">QualityControl/Check.h</text>
</a>
</g>
</g>
<!-- Node1&#45;&gt;Node25 -->
<g id="edge41" class="edge"><title>Node1&#45;&gt;Node25</title>
<path fill="none" stroke="midnightblue" d="M933.637,-224.399C909.309,-214.416 876.971,-201.147 853.544,-191.534"/>
<polygon fill="midnightblue" stroke="midnightblue" points="854.679,-188.216 844.099,-187.658 852.021,-194.692 854.679,-188.216"/>
</g>
<!-- Node13&#45;&gt;Node4 -->
<g id="edge13" class="edge"><title>Node13&#45;&gt;Node4</title>
<path fill="none" stroke="midnightblue" d="M974.362,-112.358C948.733,-96.2774 894.07,-62.7718 873,-56 836.445,-44.251 577.043,-21.314 486.83,-13.6012"/>
<polygon fill="midnightblue" stroke="midnightblue" points="486.955,-10.0992 476.694,-12.7379 486.361,-17.074 486.955,-10.0992"/>
</g>
<!-- Node13&#45;&gt;Node5 -->
<g id="edge14" class="edge"><title>Node13&#45;&gt;Node5</title>
<path fill="none" stroke="midnightblue" d="M988,-112.368C988,-94.617 988,-53.6664 988,-29.5974"/>
<polygon fill="midnightblue" stroke="midnightblue" points="991.5,-29.5914 988,-19.5914 984.5,-29.5915 991.5,-29.5914"/>
</g>
<!-- Node14 -->
<g id="node14" class="node"><title>Node14</title>
<polygon fill="none" stroke="#bfbfbf" points="781.5,-56.5 781.5,-75.5 864.5,-75.5 864.5,-56.5 781.5,-56.5"/>
<text text-anchor="middle" x="823" y="-63.5" font-family="Helvetica,sans-Serif" font-size="10.00">unordered_map</text>
</g>
<!-- Node13&#45;&gt;Node14 -->
<g id="edge15" class="edge"><title>Node13&#45;&gt;Node14</title>
<path fill="none" stroke="midnightblue" d="M961.855,-112.444C933.977,-103.32 889.652,-88.8133 858.6,-78.6509"/>
<polygon fill="midnightblue" stroke="midnightblue" points="859.615,-75.3005 849.022,-75.5164 857.438,-81.9533 859.615,-75.3005"/>
</g>
<!-- Node15 -->
<g id="node15" class="node"><title>Node15</title>
<polygon fill="none" stroke="#bfbfbf" points="575,-0.5 575,-19.5 631,-19.5 631,-0.5 575,-0.5"/>
<text text-anchor="middle" x="603" y="-7.5" font-family="Helvetica,sans-Serif" font-size="10.00">Rtypes.h</text>
</g>
<!-- Node13&#45;&gt;Node15 -->
<g id="edge16" class="edge"><title>Node13&#45;&gt;Node15</title>
<path fill="none" stroke="midnightblue" d="M981.406,-112.057C970.178,-97.5766 945.841,-69.282 918,-56 869.765,-32.9884 714.504,-19.0557 641.551,-13.6231"/>
<polygon fill="midnightblue" stroke="midnightblue" points="641.635,-10.1201 631.407,-12.8832 641.126,-17.1015 641.635,-10.1201"/>
</g>
<!-- Node13&#45;&gt;Node16 -->
<g id="edge17" class="edge"><title>Node13&#45;&gt;Node16</title>
<path fill="none" stroke="midnightblue" d="M909.384,-114.788C808.466,-106.702 627.658,-91.8349 461.925,-76.0697"/>
<polygon fill="midnightblue" stroke="midnightblue" points="461.823,-72.5442 451.536,-75.0783 461.158,-79.5125 461.823,-72.5442"/>
</g>
<!-- Node19 -->
<g id="node19" class="node"><title>Node19</title>
<g id="a_node19"><a xlink:href="Quality_8h.html" target="_top" xlink:title="QualityControl/Quality.h">
<polygon fill="none" stroke="black" points="542.5,-56.5 542.5,-75.5 663.5,-75.5 663.5,-56.5 542.5,-56.5"/>
<text text-anchor="middle" x="603" y="-63.5" font-family="Helvetica,sans-Serif" font-size="10.00">QualityControl/Quality.h</text>
</a>
</g>
</g>
<!-- Node13&#45;&gt;Node19 -->
<g id="edge23" class="edge"><title>Node13&#45;&gt;Node19</title>
<path fill="none" stroke="midnightblue" d="M926.996,-112.444C858.144,-102.786 746.301,-87.0993 673.695,-76.9157"/>
<polygon fill="midnightblue" stroke="midnightblue" points="674.108,-73.4394 663.719,-75.5164 673.136,-80.3716 674.108,-73.4394"/>
</g>
<!-- Node16&#45;&gt;Node4 -->
<g id="edge18" class="edge"><title>Node16&#45;&gt;Node4</title>
<path fill="none" stroke="midnightblue" d="M388.853,-56.324C401.216,-47.979 420.13,-35.2122 434.737,-25.3524"/>
<polygon fill="midnightblue" stroke="midnightblue" points="436.848,-28.1503 443.179,-19.6545 432.932,-22.3483 436.848,-28.1503"/>
</g>
<!-- Node16&#45;&gt;Node5 -->
<g id="edge19" class="edge"><title>Node16&#45;&gt;Node5</title>
<path fill="none" stroke="midnightblue" d="M451.536,-56.9217C454.733,-56.6052 457.898,-56.2966 461,-56 651.757,-37.7588 881.71,-19.3542 960.196,-13.174"/>
<polygon fill="midnightblue" stroke="midnightblue" points="960.55,-16.6571 970.246,-12.3844 960.002,-9.67858 960.55,-16.6571"/>
</g>
<!-- Node16&#45;&gt;Node15 -->
<g id="edge20" class="edge"><title>Node16&#45;&gt;Node15</title>
<path fill="none" stroke="midnightblue" d="M411.969,-56.4435C453.662,-46.5254 522.091,-30.2471 564.736,-20.1023"/>
<polygon fill="midnightblue" stroke="midnightblue" points="565.811,-23.4444 574.73,-17.7251 564.191,-16.6344 565.811,-23.4444"/>
</g>
<!-- Node17 -->
<g id="node17" class="node"><title>Node17</title>
<polygon fill="none" stroke="#bfbfbf" points="294.5,-0.5 294.5,-19.5 353.5,-19.5 353.5,-0.5 294.5,-0.5"/>
<text text-anchor="middle" x="324" y="-7.5" font-family="Helvetica,sans-Serif" font-size="10.00">TObject.h</text>
</g>
<!-- Node16&#45;&gt;Node17 -->
<g id="edge21" class="edge"><title>Node16&#45;&gt;Node17</title>
<path fill="none" stroke="midnightblue" d="M367.413,-56.083C359.841,-48.2195 348.622,-36.5688 339.486,-27.0813"/>
<polygon fill="midnightblue" stroke="midnightblue" points="341.885,-24.5266 332.427,-19.7511 336.842,-29.3821 341.885,-24.5266"/>
</g>
<!-- Node18 -->
<g id="node18" class="node"><title>Node18</title>
<polygon fill="none" stroke="#bfbfbf" points="95,-0.5 95,-19.5 211,-19.5 211,-0.5 95,-0.5"/>
<text text-anchor="middle" x="153" y="-7.5" font-family="Helvetica,sans-Serif" font-size="10.00">Common/Exceptions.h</text>
</g>
<!-- Node16&#45;&gt;Node18 -->
<g id="edge22" class="edge"><title>Node16&#45;&gt;Node18</title>
<path fill="none" stroke="midnightblue" d="M340.665,-56.4435C302.089,-47.1024 240.215,-32.1194 198.147,-21.9326"/>
<polygon fill="midnightblue" stroke="midnightblue" points="198.713,-18.4683 188.17,-19.5164 197.065,-25.2717 198.713,-18.4683"/>
</g>
<!-- Node19&#45;&gt;Node4 -->
<g id="edge25" class="edge"><title>Node19&#45;&gt;Node4</title>
<path fill="none" stroke="midnightblue" d="M579.707,-56.4435C554.472,-47.1732 514.11,-32.3464 486.394,-22.1652"/>
<polygon fill="midnightblue" stroke="midnightblue" points="487.4,-18.8062 476.807,-18.6433 484.987,-25.3769 487.4,-18.8062"/>
</g>
<!-- Node19&#45;&gt;Node15 -->
<g id="edge24" class="edge"><title>Node19&#45;&gt;Node15</title>
<path fill="none" stroke="midnightblue" d="M603,-56.083C603,-49.0059 603,-38.8611 603,-29.9865"/>
<polygon fill="midnightblue" stroke="midnightblue" points="606.5,-29.751 603,-19.7511 599.5,-29.7511 606.5,-29.751"/>
</g>
<!-- Node20&#45;&gt;Node3 -->
<g id="edge28" class="edge"><title>Node20&#45;&gt;Node3</title>
<path fill="none" stroke="midnightblue" d="M341.303,-168.444C322.056,-159.636 291.848,-145.812 269.8,-135.722"/>
<polygon fill="midnightblue" stroke="midnightblue" points="271.16,-132.495 260.61,-131.516 268.247,-138.86 271.16,-132.495"/>
</g>
<!-- Node20&#45;&gt;Node4 -->
<g id="edge27" class="edge"><title>Node20&#45;&gt;Node4</title>
<path fill="none" stroke="midnightblue" d="M274.792,-171.599C225.217,-164.586 176.228,-148.553 197,-112 221.026,-69.7201 246.243,-75.0164 291,-56 336.003,-36.8793 391.384,-23.7373 425.17,-16.7942"/>
<polygon fill="midnightblue" stroke="midnightblue" points="426.221,-20.1532 435.34,-14.7581 424.847,-13.2894 426.221,-20.1532"/>
</g>
<!-- Node20&#45;&gt;Node6 -->
<g id="edge29" class="edge"><title>Node20&#45;&gt;Node6</title>
<path fill="none" stroke="midnightblue" d="M384.085,-168.444C409.994,-159.239 451.323,-144.556 479.96,-134.383"/>
<polygon fill="midnightblue" stroke="midnightblue" points="481.263,-137.634 489.514,-130.988 478.92,-131.038 481.263,-137.634"/>
</g>
<!-- Node20&#45;&gt;Node14 -->
<g id="edge30" class="edge"><title>Node20&#45;&gt;Node14</title>
<path fill="none" stroke="midnightblue" d="M375.873,-168.377C408.058,-150.907 478.206,-112.901 481,-112 487.85,-109.791 677.369,-85.5113 771.273,-73.5633"/>
<polygon fill="midnightblue" stroke="midnightblue" points="771.937,-77.0071 781.415,-72.2735 771.054,-70.0631 771.937,-77.0071"/>
</g>
<!-- Node20&#45;&gt;Node16 -->
<g id="edge37" class="edge"><title>Node20&#45;&gt;Node16</title>
<path fill="none" stroke="midnightblue" d="M277.237,-168.474C229.254,-160.059 182.686,-143.635 207,-112 219.222,-96.0984 263.834,-84.625 304.153,-77.2443"/>
<polygon fill="midnightblue" stroke="midnightblue" points="304.779,-80.6879 314.018,-75.5019 303.562,-73.7946 304.779,-80.6879"/>
</g>
<!-- Node21 -->
<g id="node21" class="node"><title>Node21</title>
<g id="a_node21"><a xlink:href="QualityObject_8h_source.html" target="_top" xlink:title="QualityControl/QualityObject.h">
<polygon fill="none" stroke="black" points="285.5,-112.5 285.5,-131.5 434.5,-131.5 434.5,-112.5 285.5,-112.5"/>
<text text-anchor="middle" x="360" y="-119.5" font-family="Helvetica,sans-Serif" font-size="10.00">QualityControl/QualityObject.h</text>
</a>
</g>
</g>
<!-- Node20&#45;&gt;Node21 -->
<g id="edge31" class="edge"><title>Node20&#45;&gt;Node21</title>
<path fill="none" stroke="midnightblue" d="M360,-168.083C360,-161.006 360,-150.861 360,-141.986"/>
<polygon fill="midnightblue" stroke="midnightblue" points="363.5,-141.751 360,-131.751 356.5,-141.751 363.5,-141.751"/>
</g>
<!-- Node21&#45;&gt;Node5 -->
<g id="edge33" class="edge"><title>Node21&#45;&gt;Node5</title>
<path fill="none" stroke="midnightblue" d="M427.131,-112.495C490.44,-104.195 587.901,-90.7008 672,-76 700.47,-71.0234 888.452,-31.8174 960.22,-16.8132"/>
<polygon fill="midnightblue" stroke="midnightblue" points="961.245,-20.1747 970.317,-14.7018 959.812,-13.3229 961.245,-20.1747"/>
</g>
<!-- Node21&#45;&gt;Node17 -->
<g id="edge34" class="edge"><title>Node21&#45;&gt;Node17</title>
<path fill="none" stroke="midnightblue" d="M336.212,-112.499C320.279,-105.413 300.537,-93.6052 291,-76 282.114,-59.5967 294.403,-40.5327 306.427,-27.3107"/>
<polygon fill="midnightblue" stroke="midnightblue" points="309.183,-29.4987 313.688,-19.9091 304.186,-24.5966 309.183,-29.4987"/>
</g>
<!-- Node21&#45;&gt;Node18 -->
<g id="edge35" class="edge"><title>Node21&#45;&gt;Node18</title>
<path fill="none" stroke="midnightblue" d="M343.757,-112.368C307.782,-93.2515 221.176,-47.229 178.143,-24.361"/>
<polygon fill="midnightblue" stroke="midnightblue" points="179.641,-21.1933 169.167,-19.5914 176.356,-27.3748 179.641,-21.1933"/>
</g>
<!-- Node21&#45;&gt;Node19 -->
<g id="edge36" class="edge"><title>Node21&#45;&gt;Node19</title>
<path fill="none" stroke="midnightblue" d="M398.504,-112.444C440.806,-103.043 508.819,-87.9291 554.673,-77.7393"/>
<polygon fill="midnightblue" stroke="midnightblue" points="555.673,-81.1025 564.676,-75.5164 554.155,-74.2692 555.673,-81.1025"/>
</g>
<!-- Node22 -->
<g id="node22" class="node"><title>Node22</title>
<polygon fill="none" stroke="#bfbfbf" points="470,-56.5 470,-75.5 524,-75.5 524,-56.5 470,-56.5"/>
<text text-anchor="middle" x="497" y="-63.5" font-family="Helvetica,sans-Serif" font-size="10.00">iostream</text>
</g>
<!-- Node21&#45;&gt;Node22 -->
<g id="edge32" class="edge"><title>Node21&#45;&gt;Node22</title>
<path fill="none" stroke="midnightblue" d="M381.708,-112.444C404.355,-103.517 440.072,-89.4387 465.752,-79.3168"/>
<polygon fill="midnightblue" stroke="midnightblue" points="467.374,-82.4397 475.394,-75.5164 464.807,-75.9273 467.374,-82.4397"/>
</g>
<!-- Node24 -->
<g id="node24" class="node"><title>Node24</title>
<polygon fill="none" stroke="#bfbfbf" points="1315,-56.5 1315,-75.5 1445,-75.5 1445,-56.5 1315,-56.5"/>
<text text-anchor="middle" x="1380" y="-63.5" font-family="Helvetica,sans-Serif" font-size="10.00">InfoLogger/InfoLogger.hxx</text>
</g>
<!-- Node23&#45;&gt;Node24 -->
<g id="edge40" class="edge"><title>Node23&#45;&gt;Node24</title>
<path fill="none" stroke="midnightblue" d="M1380,-112.083C1380,-105.006 1380,-94.8611 1380,-85.9865"/>
<polygon fill="midnightblue" stroke="midnightblue" points="1383.5,-85.751 1380,-75.7511 1376.5,-85.7511 1383.5,-85.751"/>
</g>
<!-- Node25&#45;&gt;Node3 -->
<g id="edge45" class="edge"><title>Node25&#45;&gt;Node3</title>
<path fill="none" stroke="midnightblue" d="M763.479,-175.541C664.356,-172.361 459.189,-162.583 278.22,-132.142"/>
<polygon fill="midnightblue" stroke="midnightblue" points="278.703,-128.674 268.256,-130.441 277.525,-135.574 278.703,-128.674"/>
</g>
<!-- Node25&#45;&gt;Node5 -->
<g id="edge43" class="edge"><title>Node25&#45;&gt;Node5</title>
<path fill="none" stroke="midnightblue" d="M882.708,-174.936C949.589,-171.221 1051.83,-160.854 1076,-132 1106.93,-95.0801 1046.88,-48.161 1011.43,-25.0986"/>
<polygon fill="midnightblue" stroke="midnightblue" points="1012.92,-21.8988 1002.59,-19.5116 1009.17,-27.8149 1012.92,-21.8988"/>
</g>
<!-- Node25&#45;&gt;Node6 -->
<g id="edge44" class="edge"><title>Node25&#45;&gt;Node6</title>
<path fill="none" stroke="midnightblue" d="M763.463,-168.711C707.586,-160.588 621.793,-147.234 548,-132 546.722,-131.736 545.422,-131.458 544.109,-131.169"/>
<polygon fill="midnightblue" stroke="midnightblue" points="544.553,-127.678 534.019,-128.811 542.96,-134.495 544.553,-127.678"/>
</g>
<!-- Node25&#45;&gt;Node12 -->
<g id="edge47" class="edge"><title>Node25&#45;&gt;Node12</title>
<path fill="none" stroke="midnightblue" d="M882.688,-168.562C950.928,-158.916 1062.51,-143.142 1134.85,-132.917"/>
<polygon fill="midnightblue" stroke="midnightblue" points="1135.38,-136.377 1144.79,-131.512 1134.4,-129.446 1135.38,-136.377"/>
</g>
<!-- Node25&#45;&gt;Node13 -->
<g id="edge51" class="edge"><title>Node25&#45;&gt;Node13</title>
<path fill="none" stroke="midnightblue" d="M849.145,-168.444C877.023,-159.32 921.348,-144.813 952.4,-134.651"/>
<polygon fill="midnightblue" stroke="midnightblue" points="953.562,-137.953 961.978,-131.516 951.385,-131.3 953.562,-137.953"/>
</g>
<!-- Node25&#45;&gt;Node14 -->
<g id="edge46" class="edge"><title>Node25&#45;&gt;Node14</title>
<path fill="none" stroke="midnightblue" d="M834.129,-168.254C847.978,-156.227 868.902,-133.606 861,-112 856.943,-100.908 848.812,-90.6651 841.109,-82.7625"/>
<polygon fill="midnightblue" stroke="midnightblue" points="843.362,-80.0747 833.714,-75.6955 838.525,-85.1351 843.362,-80.0747"/>
</g>
<!-- Node25&#45;&gt;Node16 -->
<g id="edge50" class="edge"><title>Node25&#45;&gt;Node16</title>
<path fill="none" stroke="midnightblue" d="M773.483,-168.494C728.849,-160.433 661.583,-147.302 604,-132 576.426,-124.672 570.34,-120.159 543,-112 501.409,-99.588 453.544,-86.8459 419.749,-78.1036"/>
<polygon fill="midnightblue" stroke="midnightblue" points="420.293,-74.6293 409.736,-75.5237 418.546,-81.408 420.293,-74.6293"/>
</g>
<!-- Node25&#45;&gt;Node19 -->
<g id="edge48" class="edge"><title>Node25&#45;&gt;Node19</title>
<path fill="none" stroke="midnightblue" d="M763.455,-170.842C710.798,-164.187 639.277,-151.791 619,-132 606.794,-120.086 603.325,-100.469 602.586,-85.8968"/>
<polygon fill="midnightblue" stroke="midnightblue" points="606.082,-85.4936 602.465,-75.5353 599.082,-85.5757 606.082,-85.4936"/>
</g>
<!-- Node25&#45;&gt;Node21 -->
<g id="edge49" class="edge"><title>Node25&#45;&gt;Node21</title>
<path fill="none" stroke="midnightblue" d="M763.419,-170.051C681.966,-160.551 535.464,-143.464 443.212,-132.705"/>
<polygon fill="midnightblue" stroke="midnightblue" points="443.41,-129.205 433.072,-131.522 442.6,-136.157 443.41,-129.205"/>
</g>
<!-- Node25&#45;&gt;Node23 -->
<g id="edge52" class="edge"><title>Node25&#45;&gt;Node23</title>
<path fill="none" stroke="midnightblue" d="M882.756,-171.544C970.583,-163.475 1139.98,-147.719 1295.15,-132.075"/>
<polygon fill="midnightblue" stroke="midnightblue" points="1295.75,-135.532 1305.35,-131.045 1295.05,-128.568 1295.75,-135.532"/>
</g>
<!-- Node26 -->
<g id="node26" class="node"><title>Node26</title>
<polygon fill="none" stroke="#bfbfbf" points="793.5,-112.5 793.5,-131.5 852.5,-131.5 852.5,-112.5 793.5,-112.5"/>
<text text-anchor="middle" x="823" y="-119.5" font-family="Helvetica,sans-Serif" font-size="10.00">functional</text>
</g>
<!-- Node25&#45;&gt;Node26 -->
<g id="edge42" class="edge"><title>Node25&#45;&gt;Node26</title>
<path fill="none" stroke="midnightblue" d="M823,-168.083C823,-161.006 823,-150.861 823,-141.986"/>
<polygon fill="midnightblue" stroke="midnightblue" points="826.5,-141.751 823,-131.751 819.5,-141.751 826.5,-141.751"/>
</g>
<!-- Node27 -->
<g id="node27" class="node"><title>Node27</title>
<g id="a_node27"><a xlink:href="CheckConfig_8h.html" target="_top" xlink:title="QualityControl/CheckConfig.h">
<polygon fill="none" stroke="black" points="628.5,-112.5 628.5,-131.5 775.5,-131.5 775.5,-112.5 628.5,-112.5"/>
<text text-anchor="middle" x="702" y="-119.5" font-family="Helvetica,sans-Serif" font-size="10.00">QualityControl/CheckConfig.h</text>
</a>
</g>
</g>
<!-- Node25&#45;&gt;Node27 -->
<g id="edge53" class="edge"><title>Node25&#45;&gt;Node27</title>
<path fill="none" stroke="midnightblue" d="M803.827,-168.444C784.091,-159.636 753.115,-145.812 730.507,-135.722"/>
<polygon fill="midnightblue" stroke="midnightblue" points="731.641,-132.396 721.083,-131.516 728.789,-138.788 731.641,-132.396"/>
</g>
<!-- Node27&#45;&gt;Node4 -->
<g id="edge54" class="edge"><title>Node27&#45;&gt;Node4</title>
<path fill="none" stroke="midnightblue" d="M700.556,-112.306C697.731,-98.1825 690.093,-70.3898 672,-56 643.672,-33.47 539.46,-19.6809 486.836,-14.0052"/>
<polygon fill="midnightblue" stroke="midnightblue" points="487.046,-10.5082 476.736,-12.9475 486.317,-17.4701 487.046,-10.5082"/>
</g>
<!-- Node27&#45;&gt;Node14 -->
<g id="edge55" class="edge"><title>Node27&#45;&gt;Node14</title>
<path fill="none" stroke="midnightblue" d="M721.173,-112.444C740.909,-103.636 771.885,-89.8116 794.493,-79.722"/>
<polygon fill="midnightblue" stroke="midnightblue" points="796.211,-82.788 803.917,-75.5164 793.359,-76.3957 796.211,-82.788"/>
</g>
</g>
</svg>
        <g id="navigator" transform="translate(0 0)" fill="#404254">
                <rect fill="#f2f5e9" fill-opacity="0.5" stroke="#606060" stroke-width=".5" x="0" y="0" width="60" height="60"/>
                <use id="zoomplus" xlink:href="#zoomPlus" x="17" y="9" onmousedown="handleZoom(evt,'in')"/>
                <use id="zoomminus" xlink:href="#zoomMin" x="42" y="9" onmousedown="handleZoom(evt,'out')"/>
                <use id="reset" xlink:href="#resetDef" x="30" y="36" onmousedown="handleReset()"/>
                <g id="arrowUp" xlink:href="#dirArrow" transform="translate(30 24)" onmousedown="handlePan(0,-1)">
                  <use xlink:href="#rim" fill="#404040">
                        <set attributeName="fill" to="#808080" begin="arrowUp.mouseover" end="arrowUp.mouseout"/>
                  </use>
                  <path fill="none" stroke="white" stroke-width="1.5" d="M0,-3.0v7 M-2.5,-0.5L0,-3.0L2.5,-0.5"/>
                </g>
                <g id="arrowRight" xlink:href="#dirArrow" transform="rotate(90) translate(36 -43)" onmousedown="handlePan(1,0)">
                  <use xlink:href="#rim" fill="#404040">
                        <set attributeName="fill" to="#808080" begin="arrowRight.mouseover" end="arrowRight.mouseout"/>
                  </use>
                  <path fill="none" stroke="white" stroke-width="1.5" d="M0,-3.0v7 M-2.5,-0.5L0,-3.0L2.5,-0.5"/>
                </g>
                <g id="arrowDown" xlink:href="#dirArrow" transform="rotate(180) translate(-30 -48)" onmousedown="handlePan(0,1)">
                  <use xlink:href="#rim" fill="#404040">
                        <set attributeName="fill" to="#808080" begin="arrowDown.mouseover" end="arrowDown.mouseout"/>
                  </use>
                  <path fill="none" stroke="white" stroke-width="1.5" d="M0,-3.0v7 M-2.5,-0.5L0,-3.0L2.5,-0.5"/>
                </g>
                <g id="arrowLeft" xlink:href="#dirArrow" transform="rotate(270) translate(-36 17)" onmousedown="handlePan(-1,0)">
                  <use xlink:href="#rim" fill="#404040">
                        <set attributeName="fill" to="#808080" begin="arrowLeft.mouseover" end="arrowLeft.mouseout"/>
                  </use>
                  <path fill="none" stroke="white" stroke-width="1.5" d="M0,-3.0v7 M-2.5,-0.5L0,-3.0L2.5,-0.5"/>
                </g>
        </g>
        <svg viewBox="0 0 15 15" width="100%" height="30px" preserveAspectRatio="xMaxYMin meet">
         <g id="arrow_out" transform="scale(0.3 0.3)">
          <a xlink:href="CheckRunner_8h__incl_org.svg" target="_base">
           <rect id="button" ry="5" rx="5" y="6" x="6" height="38" width="38"
                fill="#f2f5e9" fill-opacity="0.5" stroke="#606060" stroke-width="1.0"/>
           <path id="arrow"
             d="M 11.500037,31.436501 C 11.940474,20.09759 22.043105,11.32322 32.158766,21.979434 L 37.068811,17.246167 C 37.068811,17.246167 37.088388,32 37.088388,32 L 22.160133,31.978069 C 22.160133,31.978069 26.997745,27.140456 26.997745,27.140456 C 18.528582,18.264221 13.291696,25.230495 11.500037,31.436501 z"
             style="fill:#404040;"/>
          </a>
         </g>
        </svg>
</svg>
