<?xml version="1.0" encoding="UTF-8" standalone="no"?>
<!DOCTYPE svg PUBLIC "-//W3C//DTD SVG 1.1//EN"
 "http://www.w3.org/Graphics/SVG/1.1/DTD/svg11.dtd">
<!-- Generated by graphviz version 2.38.0 (20140413.2041)
 -->
<!-- Title: o2::quality_control_modules::tof::TOFCheckRawsMulti Pages: 1 -->
<svg width="269pt" height="507pt"
 viewBox="0.00 0.00 269.00 507.00" xmlns="http://www.w3.org/2000/svg" xmlns:xlink="http://www.w3.org/1999/xlink">
<g id="graph0" class="graph" transform="scale(1 1) rotate(0) translate(4 503)">
<title>o2::quality_control_modules::tof::TOFCheckRawsMulti</title>
<!-- Node1 -->
<g id="node1" class="node"><title>Node1</title>
<polygon fill="#bfbfbf" stroke="black" points="67.5,-0.5 67.5,-134.5 222.5,-134.5 222.5,-0.5 67.5,-0.5"/>
<text text-anchor="start" x="75.5" y="-122.5" font-family="Helvetica,sans-Serif" font-size="10.00">o2::quality_control</text>
<text text-anchor="start" x="75.5" y="-111.5" font-family="Helvetica,sans-Serif" font-size="10.00">_modules::tof::TOFCheckRaws</text>
<text text-anchor="middle" x="145" y="-100.5" font-family="Helvetica,sans-Serif" font-size="10.00">Multi</text>
<polyline fill="none" stroke="black" points="67.5,-93.5 222.5,-93.5 "/>
<text text-anchor="middle" x="145" y="-81.5" font-family="Helvetica,sans-Serif" font-size="10.00"> </text>
<polyline fill="none" stroke="black" points="67.5,-74.5 222.5,-74.5 "/>
<text text-anchor="start" x="75.5" y="-62.5" font-family="Helvetica,sans-Serif" font-size="10.00">+ TOFCheckRawsMulti()</text>
<text text-anchor="start" x="75.5" y="-51.5" font-family="Helvetica,sans-Serif" font-size="10.00">+ ~TOFCheckRawsMulti()</text>
<text text-anchor="start" x="75.5" y="-40.5" font-family="Helvetica,sans-Serif" font-size="10.00">+ configure()</text>
<text text-anchor="start" x="75.5" y="-29.5" font-family="Helvetica,sans-Serif" font-size="10.00">+ check()</text>
<text text-anchor="start" x="75.5" y="-18.5" font-family="Helvetica,sans-Serif" font-size="10.00">+ beautify()</text>
<text text-anchor="start" x="75.5" y="-7.5" font-family="Helvetica,sans-Serif" font-size="10.00">+ getAcceptedType()</text>
</g>
<!-- Node2 -->
<g id="node2" class="node"><title>Node2</title>
<g id="a_node2"><a xlink:href="classo2_1_1quality__control_1_1checker_1_1CheckInterface.html" target="_top" xlink:title="Skeleton of a check. ">
<polygon fill="none" stroke="black" points="0,-226.5 0,-382.5 130,-382.5 130,-226.5 0,-226.5"/>
<text text-anchor="start" x="8" y="-370.5" font-family="Helvetica,sans-Serif" font-size="10.00">o2::quality_control</text>
<text text-anchor="middle" x="65" y="-359.5" font-family="Helvetica,sans-Serif" font-size="10.00">::checker::CheckInterface</text>
<polyline fill="none" stroke="black" points="0,-352.5 130,-352.5 "/>
<text text-anchor="middle" x="65" y="-340.5" font-family="Helvetica,sans-Serif" font-size="10.00"> </text>
<polyline fill="none" stroke="black" points="0,-333.5 130,-333.5 "/>
<text text-anchor="start" x="8" y="-321.5" font-family="Helvetica,sans-Serif" font-size="10.00">+ CheckInterface()</text>
<text text-anchor="start" x="8" y="-310.5" font-family="Helvetica,sans-Serif" font-size="10.00">+ ~CheckInterface()</text>
<text text-anchor="start" x="8" y="-299.5" font-family="Helvetica,sans-Serif" font-size="10.00">+ configure()</text>
<text text-anchor="start" x="8" y="-288.5" font-family="Helvetica,sans-Serif" font-size="10.00">+ check()</text>
<text text-anchor="start" x="8" y="-277.5" font-family="Helvetica,sans-Serif" font-size="10.00">+ beautify()</text>
<text text-anchor="start" x="8" y="-266.5" font-family="Helvetica,sans-Serif" font-size="10.00">+ getAcceptedType()</text>
<text text-anchor="start" x="8" y="-255.5" font-family="Helvetica,sans-Serif" font-size="10.00">+ isObjectCheckable()</text>
<text text-anchor="start" x="8" y="-244.5" font-family="Helvetica,sans-Serif" font-size="10.00">+ isObjectCheckable()</text>
<text text-anchor="start" x="8" y="-233.5" font-family="Helvetica,sans-Serif" font-size="10.00">+ setCustomParameters()</text>
</a>
</g>
</g>
<!-- Node2&#45;&gt;Node1 -->
<g id="edge1" class="edge"><title>Node2&#45;&gt;Node1</title>
<path fill="none" stroke="midnightblue" d="M94.5306,-216.754C103.752,-189.666 113.772,-160.233 122.435,-134.785"/>
<polygon fill="none" stroke="midnightblue" points="91.2152,-215.632 91.3058,-226.227 97.8418,-217.888 91.2152,-215.632"/>
</g>
<!-- Node3 -->
<g id="node3" class="node"><title>Node3</title>
<polygon fill="none" stroke="#bfbfbf" points="12,-430.5 12,-498.5 118,-498.5 118,-430.5 12,-430.5"/>
<text text-anchor="start" x="20" y="-486.5" font-family="Helvetica,sans-Serif" font-size="10.00">unordered_map&lt; std</text>
<text text-anchor="middle" x="65" y="-475.5" font-family="Helvetica,sans-Serif" font-size="10.00">::string, std::string &gt;</text>
<polyline fill="none" stroke="#bfbfbf" points="12,-468.5 118,-468.5 "/>
<text text-anchor="middle" x="65" y="-456.5" font-family="Helvetica,sans-Serif" font-size="10.00"> </text>
<polyline fill="none" stroke="#bfbfbf" points="12,-449.5 118,-449.5 "/>
<text text-anchor="middle" x="65" y="-437.5" font-family="Helvetica,sans-Serif" font-size="10.00"> </text>
</g>
<!-- Node3&#45;&gt;Node2 -->
<g id="edge2" class="edge"><title>Node3&#45;&gt;Node2</title>
<path fill="none" stroke="#404040" d="M65,-430.378C65,-419.749 65,-407.424 65,-394.742"/>
<polygon fill="none" stroke="#404040" points="65.0001,-394.516 61,-388.516 65,-382.516 69,-388.516 65.0001,-394.516"/>
<text text-anchor="middle" x="116" y="-404" font-family="Helvetica,sans-Serif" font-size="10.00"> #mCustomParameters</text>
</g>
<!-- Node4 -->
<g id="node4" class="node"><title>Node4</title>
<polygon fill="none" stroke="#bfbfbf" points="148.5,-276 148.5,-333 195.5,-333 195.5,-276 148.5,-276"/>
<text text-anchor="middle" x="172" y="-321" font-family="Helvetica,sans-Serif" font-size="10.00">Float_t</text>
<polyline fill="none" stroke="#bfbfbf" points="148.5,-314 195.5,-314 "/>
<text text-anchor="middle" x="172" y="-302" font-family="Helvetica,sans-Serif" font-size="10.00"> </text>
<polyline fill="none" stroke="#bfbfbf" points="148.5,-295 195.5,-295 "/>
<text text-anchor="middle" x="172" y="-283" font-family="Helvetica,sans-Serif" font-size="10.00"> </text>
</g>
<!-- Node4&#45;&gt;Node1 -->
<g id="edge3" class="edge"><title>Node4&#45;&gt;Node1</title>
<path fill="none" stroke="#404040" d="M168.797,-275.62C165.163,-243.991 159.078,-191.032 153.971,-146.584"/>
<polygon fill="none" stroke="#404040" points="153.964,-146.517 149.305,-141.013 152.594,-134.596 157.253,-140.1 153.964,-146.517"/>
<text text-anchor="middle" x="211" y="-200" font-family="Helvetica,sans-Serif" font-size="10.00"> +maxTOFrawhits</text>
<text text-anchor="middle" x="211" y="-189" font-family="Helvetica,sans-Serif" font-size="10.00">+maxTOFrawhitsPbPb</text>
<text text-anchor="middle" x="211" y="-178" font-family="Helvetica,sans-Serif" font-size="10.00">+fracAtZeroMult</text>
<text text-anchor="middle" x="211" y="-167" font-family="Helvetica,sans-Serif" font-size="10.00">+minTOFrawhits</text>
<text text-anchor="middle" x="211" y="-156" font-family="Helvetica,sans-Serif" font-size="10.00">+fracAtLowMult</text>
</g>
</g>
</svg>
