<?xml version="1.0" encoding="UTF-8" standalone="no"?>
<!DOCTYPE svg PUBLIC "-//W3C//DTD SVG 1.1//EN"
 "http://www.w3.org/Graphics/SVG/1.1/DTD/svg11.dtd">
<!-- Generated by graphviz version 2.38.0 (20140413.2041)
 -->
<!-- Title: o2::quality_control_modules::tof::TOFDecoderCompressed Pages: 1 -->
<svg width="270pt" height="215pt"
 viewBox="0.00 0.00 270.00 215.00" xmlns="http://www.w3.org/2000/svg" xmlns:xlink="http://www.w3.org/1999/xlink">
<g id="graph0" class="graph" transform="scale(1 1) rotate(0) translate(4 211)">
<title>o2::quality_control_modules::tof::TOFDecoderCompressed</title>
<!-- Node1 -->
<g id="node1" class="node"><title>Node1</title>
<polygon fill="#bfbfbf" stroke="black" points="54,-0.5 54,-90.5 248,-90.5 248,-0.5 54,-0.5"/>
<text text-anchor="start" x="62" y="-78.5" font-family="Helvetica,sans-Serif" font-size="10.00">o2::quality_control</text>
<text text-anchor="middle" x="151" y="-67.5" font-family="Helvetica,sans-Serif" font-size="10.00">_modules::tof::TOFDecoderCompressed</text>
<polyline fill="none" stroke="black" points="54,-60.5 248,-60.5 "/>
<text text-anchor="middle" x="151" y="-48.5" font-family="Helvetica,sans-Serif" font-size="10.00"> </text>
<polyline fill="none" stroke="black" points="54,-41.5 248,-41.5 "/>
<text text-anchor="start" x="62" y="-29.5" font-family="Helvetica,sans-Serif" font-size="10.00">+ TOFDecoderCompressed()</text>
<text text-anchor="start" x="62" y="-18.5" font-family="Helvetica,sans-Serif" font-size="10.00">+ ~TOFDecoderCompressed()</text>
<text text-anchor="start" x="62" y="-7.5" font-family="Helvetica,sans-Serif" font-size="10.00">+ decode()</text>
</g>
<!-- Node2 -->
<g id="node2" class="node"><title>Node2</title>
<g id="a_node2"><a xlink:href="classDecoderBase.html" target="_top" xlink:title="{DecoderBase\n||}">
<polygon fill="none" stroke="black" points="0,-144 0,-201 76,-201 76,-144 0,-144"/>
<text text-anchor="middle" x="38" y="-189" font-family="Helvetica,sans-Serif" font-size="10.00">DecoderBase</text>
<polyline fill="none" stroke="black" points="0,-182 76,-182 "/>
<text text-anchor="middle" x="38" y="-170" font-family="Helvetica,sans-Serif" font-size="10.00"> </text>
<polyline fill="none" stroke="black" points="0,-163 76,-163 "/>
<text text-anchor="middle" x="38" y="-151" font-family="Helvetica,sans-Serif" font-size="10.00"> </text>
</a>
</g>
</g>
<!-- Node2&#45;&gt;Node1 -->
<g id="edge1" class="edge"><title>Node2&#45;&gt;Node1</title>
<path fill="none" stroke="midnightblue" d="M69.9182,-136.192C82.6522,-122.106 97.4556,-105.731 110.902,-90.8562"/>
<polygon fill="none" stroke="midnightblue" points="67.1881,-133.993 63.0784,-143.758 72.3808,-138.687 67.1881,-133.993"/>
</g>
<!-- Node3 -->
<g id="node3" class="node"><title>Node3</title>
<polygon fill="none" stroke="#bfbfbf" points="94,-138.5 94,-206.5 208,-206.5 208,-138.5 94,-138.5"/>
<text text-anchor="start" x="102" y="-194.5" font-family="Helvetica,sans-Serif" font-size="10.00">map&lt; std::string, std</text>
<text text-anchor="middle" x="151" y="-183.5" font-family="Helvetica,sans-Serif" font-size="10.00">::shared_ptr&lt; TH1 &gt; &gt;</text>
<polyline fill="none" stroke="#bfbfbf" points="94,-176.5 208,-176.5 "/>
<text text-anchor="middle" x="151" y="-164.5" font-family="Helvetica,sans-Serif" font-size="10.00"> </text>
<polyline fill="none" stroke="#bfbfbf" points="94,-157.5 208,-157.5 "/>
<text text-anchor="middle" x="151" y="-145.5" font-family="Helvetica,sans-Serif" font-size="10.00"> </text>
</g>
<!-- Node3&#45;&gt;Node1 -->
<g id="edge2" class="edge"><title>Node3&#45;&gt;Node1</title>
<path fill="none" stroke="#404040" d="M151,-138.33C151,-127.373 151,-114.86 151,-102.671"/>
<polygon fill="none" stroke="#404040" points="151,-102.66 147,-96.6597 151,-90.6596 155,-96.6596 151,-102.66"/>
<text text-anchor="middle" x="174" y="-112" font-family="Helvetica,sans-Serif" font-size="10.00"> +mHistos</text>
</g>
<!-- Node4 -->
<g id="node4" class="node"><title>Node4</title>
<polygon fill="none" stroke="#bfbfbf" points="226,-144 226,-201 262,-201 262,-144 226,-144"/>
<text text-anchor="middle" x="244" y="-189" font-family="Helvetica,sans-Serif" font-size="10.00">Int_t</text>
<polyline fill="none" stroke="#bfbfbf" points="226,-182 262,-182 "/>
<text text-anchor="middle" x="244" y="-170" font-family="Helvetica,sans-Serif" font-size="10.00"> </text>
<polyline fill="none" stroke="#bfbfbf" points="226,-163 262,-163 "/>
<text text-anchor="middle" x="244" y="-151" font-family="Helvetica,sans-Serif" font-size="10.00"> </text>
</g>
<!-- Node4&#45;&gt;Node1 -->
<g id="edge3" class="edge"><title>Node4&#45;&gt;Node1</title>
<path fill="none" stroke="#404040" d="M225.794,-144.128C218.292,-133.09 209.401,-120.315 201,-109 198.833,-106.082 196.587,-103.108 194.301,-100.119"/>
<polygon fill="none" stroke="#404040" points="194.258,-100.064 187.422,-97.7703 186.909,-90.5775 193.746,-92.8709 194.258,-100.064"/>
<text text-anchor="middle" x="229" y="-112" font-family="Helvetica,sans-Serif" font-size="10.00"> +rdhread</text>
</g>
</g>
</svg>
