<?xml version="1.0" encoding="UTF-8" standalone="no"?>
<!DOCTYPE svg PUBLIC "-//W3C//DTD SVG 1.1//EN"
 "http://www.w3.org/Graphics/SVG/1.1/DTD/svg11.dtd">
<!-- Generated by graphviz version 2.38.0 (20140413.2041)
 -->
<!-- Title: o2::quality_control_modules::tof::Diagnostics Pages: 1 -->
<svg width="708pt" height="562pt"
 viewBox="0.00 0.00 708.00 562.00" xmlns="http://www.w3.org/2000/svg" xmlns:xlink="http://www.w3.org/1999/xlink">
<g id="graph0" class="graph" transform="scale(1 1) rotate(0) translate(4 558)">
<title>o2::quality_control_modules::tof::Diagnostics</title>
<!-- Node1 -->
<g id="node1" class="node"><title>Node1</title>
<polygon fill="#bfbfbf" stroke="black" points="287,-0.5 287,-90.5 421,-90.5 421,-0.5 287,-0.5"/>
<text text-anchor="start" x="295" y="-78.5" font-family="Helvetica,sans-Serif" font-size="10.00">o2::quality_control</text>
<text text-anchor="middle" x="354" y="-67.5" font-family="Helvetica,sans-Serif" font-size="10.00">_modules::tof::Diagnostics</text>
<polyline fill="none" stroke="black" points="287,-60.5 421,-60.5 "/>
<text text-anchor="middle" x="354" y="-48.5" font-family="Helvetica,sans-Serif" font-size="10.00"> </text>
<polyline fill="none" stroke="black" points="287,-41.5 421,-41.5 "/>
<text text-anchor="start" x="295" y="-29.5" font-family="Helvetica,sans-Serif" font-size="10.00">+ Diagnostics()</text>
<text text-anchor="start" x="295" y="-18.5" font-family="Helvetica,sans-Serif" font-size="10.00">+ ~Diagnostics()</text>
<text text-anchor="start" x="295" y="-7.5" font-family="Helvetica,sans-Serif" font-size="10.00">+ decode()</text>
</g>
<!-- Node2 -->
<g id="node2" class="node"><title>Node2</title>
<g id="a_node2"><a xlink:href="classDecoderBase.html" target="_top" xlink:title="{DecoderBase\n||}">
<polygon fill="none" stroke="black" points="0,-221 0,-278 76,-278 76,-221 0,-221"/>
<text text-anchor="middle" x="38" y="-266" font-family="Helvetica,sans-Serif" font-size="10.00">DecoderBase</text>
<polyline fill="none" stroke="black" points="0,-259 76,-259 "/>
<text text-anchor="middle" x="38" y="-247" font-family="Helvetica,sans-Serif" font-size="10.00"> </text>
<polyline fill="none" stroke="black" points="0,-240 76,-240 "/>
<text text-anchor="middle" x="38" y="-228" font-family="Helvetica,sans-Serif" font-size="10.00"> </text>
</a>
</g>
</g>
<!-- Node2&#45;&gt;Node1 -->
<g id="edge1" class="edge"><title>Node2&#45;&gt;Node1</title>
<path fill="none" stroke="midnightblue" d="M51.1698,-211.372C58.8463,-193.984 70.0098,-174.057 85,-160 141.848,-106.691 227.441,-76.4754 286.746,-60.8429"/>
<polygon fill="none" stroke="midnightblue" points="47.891,-210.14 47.2616,-220.716 54.349,-212.841 47.891,-210.14"/>
</g>
<!-- Node3 -->
<g id="node3" class="node"><title>Node3</title>
<g id="a_node3"><a xlink:href="classo2_1_1quality__control__modules_1_1tof_1_1Counter.html" target="_top" xlink:title="{o2::quality_control\l_modules::tof::Counter\l\&lt; o2::quality_control\l_modules::tof::counters\l::ETRMCounter_t \&gt;\n||+ Counter()\l+ ~Counter()\l+ Count()\l+ Reset()\l+ HowMany()\l+ MakeHistogram()\l+ FillHistogram()\l+ Size()\l}">
<polygon fill="none" stroke="black" points="94.5,-160.5 94.5,-338.5 213.5,-338.5 213.5,-160.5 94.5,-160.5"/>
<text text-anchor="start" x="102.5" y="-326.5" font-family="Helvetica,sans-Serif" font-size="10.00">o2::quality_control</text>
<text text-anchor="start" x="102.5" y="-315.5" font-family="Helvetica,sans-Serif" font-size="10.00">_modules::tof::Counter</text>
<text text-anchor="start" x="102.5" y="-304.5" font-family="Helvetica,sans-Serif" font-size="10.00">&lt; o2::quality_control</text>
<text text-anchor="start" x="102.5" y="-293.5" font-family="Helvetica,sans-Serif" font-size="10.00">_modules::tof::counters</text>
<text text-anchor="middle" x="154" y="-282.5" font-family="Helvetica,sans-Serif" font-size="10.00">::ETRMCounter_t &gt;</text>
<polyline fill="none" stroke="black" points="94.5,-275.5 213.5,-275.5 "/>
<text text-anchor="middle" x="154" y="-263.5" font-family="Helvetica,sans-Serif" font-size="10.00"> </text>
<polyline fill="none" stroke="black" points="94.5,-256.5 213.5,-256.5 "/>
<text text-anchor="start" x="102.5" y="-244.5" font-family="Helvetica,sans-Serif" font-size="10.00">+ Counter()</text>
<text text-anchor="start" x="102.5" y="-233.5" font-family="Helvetica,sans-Serif" font-size="10.00">+ ~Counter()</text>
<text text-anchor="start" x="102.5" y="-222.5" font-family="Helvetica,sans-Serif" font-size="10.00">+ Count()</text>
<text text-anchor="start" x="102.5" y="-211.5" font-family="Helvetica,sans-Serif" font-size="10.00">+ Reset()</text>
<text text-anchor="start" x="102.5" y="-200.5" font-family="Helvetica,sans-Serif" font-size="10.00">+ HowMany()</text>
<text text-anchor="start" x="102.5" y="-189.5" font-family="Helvetica,sans-Serif" font-size="10.00">+ MakeHistogram()</text>
<text text-anchor="start" x="102.5" y="-178.5" font-family="Helvetica,sans-Serif" font-size="10.00">+ FillHistogram()</text>
<text text-anchor="start" x="102.5" y="-167.5" font-family="Helvetica,sans-Serif" font-size="10.00">+ Size()</text>
</a>
</g>
</g>
<!-- Node3&#45;&gt;Node1 -->
<g id="edge2" class="edge"><title>Node3&#45;&gt;Node1</title>
<path fill="none" stroke="#404040" d="M188.569,-160.428C198.667,-141.901 211.094,-123.578 226,-109 240.129,-95.182 257.91,-83.9005 275.686,-74.9185"/>
<polygon fill="none" stroke="#404040" points="275.903,-74.8144 279.581,-68.6117 286.721,-69.621 283.043,-75.8237 275.903,-74.8144"/>
<text text-anchor="middle" x="263" y="-123" font-family="Helvetica,sans-Serif" font-size="10.00"> +mTRMCounter</text>
</g>
<!-- Node4 -->
<g id="node4" class="node"><title>Node4</title>
<g id="a_node4"><a xlink:href="classo2_1_1quality__control__modules_1_1tof_1_1Counter.html" target="_top" xlink:title="Class to count events. ">
<polygon fill="none" stroke="black" points="289,-408.5 289,-553.5 435,-553.5 435,-408.5 289,-408.5"/>
<text text-anchor="start" x="297" y="-541.5" font-family="Helvetica,sans-Serif" font-size="10.00">o2::quality_control</text>
<text text-anchor="middle" x="362" y="-530.5" font-family="Helvetica,sans-Serif" font-size="10.00">_modules::tof::Counter&lt; Tc &gt;</text>
<polyline fill="none" stroke="black" points="289,-523.5 435,-523.5 "/>
<text text-anchor="middle" x="362" y="-511.5" font-family="Helvetica,sans-Serif" font-size="10.00"> </text>
<polyline fill="none" stroke="black" points="289,-504.5 435,-504.5 "/>
<text text-anchor="start" x="297" y="-492.5" font-family="Helvetica,sans-Serif" font-size="10.00">+ Counter()</text>
<text text-anchor="start" x="297" y="-481.5" font-family="Helvetica,sans-Serif" font-size="10.00">+ ~Counter()</text>
<text text-anchor="start" x="297" y="-470.5" font-family="Helvetica,sans-Serif" font-size="10.00">+ Count()</text>
<text text-anchor="start" x="297" y="-459.5" font-family="Helvetica,sans-Serif" font-size="10.00">+ Reset()</text>
<text text-anchor="start" x="297" y="-448.5" font-family="Helvetica,sans-Serif" font-size="10.00">+ HowMany()</text>
<text text-anchor="start" x="297" y="-437.5" font-family="Helvetica,sans-Serif" font-size="10.00">+ MakeHistogram()</text>
<text text-anchor="start" x="297" y="-426.5" font-family="Helvetica,sans-Serif" font-size="10.00">+ FillHistogram()</text>
<text text-anchor="start" x="297" y="-415.5" font-family="Helvetica,sans-Serif" font-size="10.00">+ Size()</text>
</a>
</g>
</g>
<!-- Node4&#45;&gt;Node3 -->
<g id="edge3" class="edge"><title>Node4&#45;&gt;Node3</title>
<path fill="none" stroke="orange" d="M279.366,-453.43C247.251,-439.278 212.781,-418.717 190,-390 178.264,-375.206 170.319,-357.004 164.95,-338.692"/>
<polygon fill="orange" stroke="orange" points="278.222,-456.746 288.794,-457.435 280.959,-450.304 278.222,-456.746"/>
<text text-anchor="start" x="190" y="-382" font-family="Helvetica,sans-Serif" font-size="10.00"> &lt; o2::quality_control</text>
<text text-anchor="start" x="190" y="-371" font-family="Helvetica,sans-Serif" font-size="10.00">_modules::tof::counters</text>
<text text-anchor="middle" x="241.5" y="-360" font-family="Helvetica,sans-Serif" font-size="10.00">::ETRMCounter_t &gt;</text>
</g>
<!-- Node6 -->
<g id="node6" class="node"><title>Node6</title>
<g id="a_node6"><a xlink:href="classo2_1_1quality__control__modules_1_1tof_1_1Counter.html" target="_top" xlink:title="{o2::quality_control\l_modules::tof::Counter\l\&lt; o2::quality_control\l_modules::tof::counters\l::EDRMCounter_t \&gt;\n||+ Counter()\l+ ~Counter()\l+ Count()\l+ Reset()\l+ HowMany()\l+ MakeHistogram()\l+ FillHistogram()\l+ Size()\l}">
<polygon fill="none" stroke="black" points="231.5,-160.5 231.5,-338.5 350.5,-338.5 350.5,-160.5 231.5,-160.5"/>
<text text-anchor="start" x="239.5" y="-326.5" font-family="Helvetica,sans-Serif" font-size="10.00">o2::quality_control</text>
<text text-anchor="start" x="239.5" y="-315.5" font-family="Helvetica,sans-Serif" font-size="10.00">_modules::tof::Counter</text>
<text text-anchor="start" x="239.5" y="-304.5" font-family="Helvetica,sans-Serif" font-size="10.00">&lt; o2::quality_control</text>
<text text-anchor="start" x="239.5" y="-293.5" font-family="Helvetica,sans-Serif" font-size="10.00">_modules::tof::counters</text>
<text text-anchor="middle" x="291" y="-282.5" font-family="Helvetica,sans-Serif" font-size="10.00">::EDRMCounter_t &gt;</text>
<polyline fill="none" stroke="black" points="231.5,-275.5 350.5,-275.5 "/>
<text text-anchor="middle" x="291" y="-263.5" font-family="Helvetica,sans-Serif" font-size="10.00"> </text>
<polyline fill="none" stroke="black" points="231.5,-256.5 350.5,-256.5 "/>
<text text-anchor="start" x="239.5" y="-244.5" font-family="Helvetica,sans-Serif" font-size="10.00">+ Counter()</text>
<text text-anchor="start" x="239.5" y="-233.5" font-family="Helvetica,sans-Serif" font-size="10.00">+ ~Counter()</text>
<text text-anchor="start" x="239.5" y="-222.5" font-family="Helvetica,sans-Serif" font-size="10.00">+ Count()</text>
<text text-anchor="start" x="239.5" y="-211.5" font-family="Helvetica,sans-Serif" font-size="10.00">+ Reset()</text>
<text text-anchor="start" x="239.5" y="-200.5" font-family="Helvetica,sans-Serif" font-size="10.00">+ HowMany()</text>
<text text-anchor="start" x="239.5" y="-189.5" font-family="Helvetica,sans-Serif" font-size="10.00">+ MakeHistogram()</text>
<text text-anchor="start" x="239.5" y="-178.5" font-family="Helvetica,sans-Serif" font-size="10.00">+ FillHistogram()</text>
<text text-anchor="start" x="239.5" y="-167.5" font-family="Helvetica,sans-Serif" font-size="10.00">+ Size()</text>
</a>
</g>
</g>
<!-- Node4&#45;&gt;Node6 -->
<g id="edge6" class="edge"><title>Node4&#45;&gt;Node6</title>
<path fill="none" stroke="orange" d="M307.542,-399.21C306.251,-396.149 305.062,-393.075 304,-390 298.4,-373.792 294.898,-355.932 292.764,-338.558"/>
<polygon fill="orange" stroke="orange" points="304.371,-400.691 311.706,-408.335 310.739,-397.785 304.371,-400.691"/>
<text text-anchor="start" x="304" y="-382" font-family="Helvetica,sans-Serif" font-size="10.00"> &lt; o2::quality_control</text>
<text text-anchor="start" x="304" y="-371" font-family="Helvetica,sans-Serif" font-size="10.00">_modules::tof::counters</text>
<text text-anchor="middle" x="355.5" y="-360" font-family="Helvetica,sans-Serif" font-size="10.00">::EDRMCounter_t &gt;</text>
</g>
<!-- Node7 -->
<g id="node7" class="node"><title>Node7</title>
<g id="a_node7"><a xlink:href="classo2_1_1quality__control__modules_1_1tof_1_1Counter.html" target="_top" xlink:title="{o2::quality_control\l_modules::tof::Counter\l\&lt; o2::quality_control\l_modules::tof::counters\l::ETRMChainCounter_t \&gt;\n||+ Counter()\l+ ~Counter()\l+ Count()\l+ Reset()\l+ HowMany()\l+ MakeHistogram()\l+ FillHistogram()\l+ Size()\l}">
<polygon fill="none" stroke="black" points="369,-160.5 369,-338.5 497,-338.5 497,-160.5 369,-160.5"/>
<text text-anchor="start" x="377" y="-326.5" font-family="Helvetica,sans-Serif" font-size="10.00">o2::quality_control</text>
<text text-anchor="start" x="377" y="-315.5" font-family="Helvetica,sans-Serif" font-size="10.00">_modules::tof::Counter</text>
<text text-anchor="start" x="377" y="-304.5" font-family="Helvetica,sans-Serif" font-size="10.00">&lt; o2::quality_control</text>
<text text-anchor="start" x="377" y="-293.5" font-family="Helvetica,sans-Serif" font-size="10.00">_modules::tof::counters</text>
<text text-anchor="middle" x="433" y="-282.5" font-family="Helvetica,sans-Serif" font-size="10.00">::ETRMChainCounter_t &gt;</text>
<polyline fill="none" stroke="black" points="369,-275.5 497,-275.5 "/>
<text text-anchor="middle" x="433" y="-263.5" font-family="Helvetica,sans-Serif" font-size="10.00"> </text>
<polyline fill="none" stroke="black" points="369,-256.5 497,-256.5 "/>
<text text-anchor="start" x="377" y="-244.5" font-family="Helvetica,sans-Serif" font-size="10.00">+ Counter()</text>
<text text-anchor="start" x="377" y="-233.5" font-family="Helvetica,sans-Serif" font-size="10.00">+ ~Counter()</text>
<text text-anchor="start" x="377" y="-222.5" font-family="Helvetica,sans-Serif" font-size="10.00">+ Count()</text>
<text text-anchor="start" x="377" y="-211.5" font-family="Helvetica,sans-Serif" font-size="10.00">+ Reset()</text>
<text text-anchor="start" x="377" y="-200.5" font-family="Helvetica,sans-Serif" font-size="10.00">+ HowMany()</text>
<text text-anchor="start" x="377" y="-189.5" font-family="Helvetica,sans-Serif" font-size="10.00">+ MakeHistogram()</text>
<text text-anchor="start" x="377" y="-178.5" font-family="Helvetica,sans-Serif" font-size="10.00">+ FillHistogram()</text>
<text text-anchor="start" x="377" y="-167.5" font-family="Helvetica,sans-Serif" font-size="10.00">+ Size()</text>
</a>
</g>
</g>
<!-- Node4&#45;&gt;Node7 -->
<g id="edge8" class="edge"><title>Node4&#45;&gt;Node7</title>
<path fill="none" stroke="orange" d="M403.83,-398.841C404.955,-395.881 406.017,-392.928 407,-390 412.489,-373.652 416.921,-355.814 420.462,-338.524"/>
<polygon fill="orange" stroke="orange" points="400.511,-397.714 400.04,-408.298 407.008,-400.318 400.511,-397.714"/>
<text text-anchor="start" x="416" y="-382" font-family="Helvetica,sans-Serif" font-size="10.00"> &lt; o2::quality_control</text>
<text text-anchor="start" x="416" y="-371" font-family="Helvetica,sans-Serif" font-size="10.00">_modules::tof::counters</text>
<text text-anchor="middle" x="472" y="-360" font-family="Helvetica,sans-Serif" font-size="10.00">::ETRMChainCounter_t &gt;</text>
</g>
<!-- Node8 -->
<g id="node8" class="node"><title>Node8</title>
<g id="a_node8"><a xlink:href="classo2_1_1quality__control__modules_1_1tof_1_1Counter.html" target="_top" xlink:title="{o2::quality_control\l_modules::tof::Counter\l\&lt; o2::quality_control\l_modules::tof::counters\l::ERDHCounter_t \&gt;\n||+ Counter()\l+ ~Counter()\l+ Count()\l+ Reset()\l+ HowMany()\l+ MakeHistogram()\l+ FillHistogram()\l+ Size()\l}">
<polygon fill="none" stroke="black" points="515.5,-160.5 515.5,-338.5 634.5,-338.5 634.5,-160.5 515.5,-160.5"/>
<text text-anchor="start" x="523.5" y="-326.5" font-family="Helvetica,sans-Serif" font-size="10.00">o2::quality_control</text>
<text text-anchor="start" x="523.5" y="-315.5" font-family="Helvetica,sans-Serif" font-size="10.00">_modules::tof::Counter</text>
<text text-anchor="start" x="523.5" y="-304.5" font-family="Helvetica,sans-Serif" font-size="10.00">&lt; o2::quality_control</text>
<text text-anchor="start" x="523.5" y="-293.5" font-family="Helvetica,sans-Serif" font-size="10.00">_modules::tof::counters</text>
<text text-anchor="middle" x="575" y="-282.5" font-family="Helvetica,sans-Serif" font-size="10.00">::ERDHCounter_t &gt;</text>
<polyline fill="none" stroke="black" points="515.5,-275.5 634.5,-275.5 "/>
<text text-anchor="middle" x="575" y="-263.5" font-family="Helvetica,sans-Serif" font-size="10.00"> </text>
<polyline fill="none" stroke="black" points="515.5,-256.5 634.5,-256.5 "/>
<text text-anchor="start" x="523.5" y="-244.5" font-family="Helvetica,sans-Serif" font-size="10.00">+ Counter()</text>
<text text-anchor="start" x="523.5" y="-233.5" font-family="Helvetica,sans-Serif" font-size="10.00">+ ~Counter()</text>
<text text-anchor="start" x="523.5" y="-222.5" font-family="Helvetica,sans-Serif" font-size="10.00">+ Count()</text>
<text text-anchor="start" x="523.5" y="-211.5" font-family="Helvetica,sans-Serif" font-size="10.00">+ Reset()</text>
<text text-anchor="start" x="523.5" y="-200.5" font-family="Helvetica,sans-Serif" font-size="10.00">+ HowMany()</text>
<text text-anchor="start" x="523.5" y="-189.5" font-family="Helvetica,sans-Serif" font-size="10.00">+ MakeHistogram()</text>
<text text-anchor="start" x="523.5" y="-178.5" font-family="Helvetica,sans-Serif" font-size="10.00">+ FillHistogram()</text>
<text text-anchor="start" x="523.5" y="-167.5" font-family="Helvetica,sans-Serif" font-size="10.00">+ Size()</text>
</a>
</g>
</g>
<!-- Node4&#45;&gt;Node8 -->
<g id="edge10" class="edge"><title>Node4&#45;&gt;Node8</title>
<path fill="none" stroke="orange" d="M444.226,-452.158C475.529,-437.915 509.13,-417.628 532,-390 544.201,-375.261 552.945,-357.082 559.211,-338.774"/>
<polygon fill="orange" stroke="orange" points="442.78,-448.97 435.036,-456.2 445.598,-455.377 442.78,-448.97"/>
<text text-anchor="start" x="551" y="-382" font-family="Helvetica,sans-Serif" font-size="10.00"> &lt; o2::quality_control</text>
<text text-anchor="start" x="551" y="-371" font-family="Helvetica,sans-Serif" font-size="10.00">_modules::tof::counters</text>
<text text-anchor="middle" x="602.5" y="-360" font-family="Helvetica,sans-Serif" font-size="10.00">::ERDHCounter_t &gt;</text>
</g>
<!-- Node5 -->
<g id="node5" class="node"><title>Node5</title>
<polygon fill="none" stroke="#bfbfbf" points="652.5,-221 652.5,-278 681.5,-278 681.5,-221 652.5,-221"/>
<text text-anchor="middle" x="667" y="-266" font-family="Helvetica,sans-Serif" font-size="10.00">int</text>
<polyline fill="none" stroke="#bfbfbf" points="652.5,-259 681.5,-259 "/>
<text text-anchor="middle" x="667" y="-247" font-family="Helvetica,sans-Serif" font-size="10.00"> </text>
<polyline fill="none" stroke="#bfbfbf" points="652.5,-240 681.5,-240 "/>
<text text-anchor="middle" x="667" y="-228" font-family="Helvetica,sans-Serif" font-size="10.00"> </text>
</g>
<!-- Node5&#45;&gt;Node1 -->
<g id="edge4" class="edge"><title>Node5&#45;&gt;Node1</title>
<path fill="none" stroke="#404040" d="M664.512,-220.918C659.952,-188.257 647.098,-135.016 611,-109 559.138,-71.6219 487.676,-56.414 433.271,-50.3173"/>
<polygon fill="none" stroke="#404040" points="433.173,-50.3074 426.796,-53.6752 421.235,-49.0847 427.611,-45.7169 433.173,-50.3074"/>
<text text-anchor="middle" x="670" y="-134" font-family="Helvetica,sans-Serif" font-size="10.00"> +ntrms</text>
<text text-anchor="middle" x="670" y="-123" font-family="Helvetica,sans-Serif" font-size="10.00">+ntrmschains</text>
<text text-anchor="middle" x="670" y="-112" font-family="Helvetica,sans-Serif" font-size="10.00">+ncrates</text>
</g>
<!-- Node6&#45;&gt;Node1 -->
<g id="edge5" class="edge"><title>Node6&#45;&gt;Node1</title>
<path fill="none" stroke="#404040" d="M299.106,-160.311C302.308,-142.948 306.774,-125.125 313,-109 313.969,-106.492 315.049,-103.98 316.216,-101.482"/>
<polygon fill="none" stroke="#404040" points="316.298,-101.324 315.507,-94.1564 321.82,-90.6695 322.61,-97.8372 316.298,-101.324"/>
<text text-anchor="middle" x="351" y="-123" font-family="Helvetica,sans-Serif" font-size="10.00"> +mDRMCounter</text>
</g>
<!-- Node7&#45;&gt;Node1 -->
<g id="edge7" class="edge"><title>Node7&#45;&gt;Node1</title>
<path fill="none" stroke="#404040" d="M408.241,-160.428C402.539,-143.141 396.053,-125.317 389,-109 387.938,-106.542 386.806,-104.056 385.625,-101.563"/>
<polygon fill="none" stroke="#404040" points="385.543,-101.398 379.286,-97.8142 380.187,-90.6596 386.445,-94.2435 385.543,-101.398"/>
<text text-anchor="middle" x="451" y="-123" font-family="Helvetica,sans-Serif" font-size="10.00"> +mTRMChainCounter</text>
</g>
<!-- Node8&#45;&gt;Node1 -->
<g id="edge9" class="edge"><title>Node8&#45;&gt;Node1</title>
<path fill="none" stroke="#404040" d="M542.792,-160.471C532.861,-141.727 520.379,-123.3 505,-109 484.73,-90.1513 457.98,-76.5919 432.632,-67.0277"/>
<polygon fill="none" stroke="#404040" points="432.413,-66.9494 425.416,-68.6962 421.113,-62.9099 428.109,-61.163 432.413,-66.9494"/>
<text text-anchor="middle" x="569.5" y="-123" font-family="Helvetica,sans-Serif" font-size="10.00"> +mRDHCounter</text>
</g>
</g>
</svg>
