<?xml version="1.0" encoding="UTF-8" standalone="no"?>
<!DOCTYPE svg PUBLIC "-//W3C//DTD SVG 1.1//EN"
 "http://www.w3.org/Graphics/SVG/1.1/DTD/svg11.dtd">
<!-- Generated by graphviz version 2.38.0 (20140413.2041)
 -->
<!-- Title: o2::quality_control_modules::tof::TOFTask Pages: 1 -->
<svg width="422pt" height="672pt"
 viewBox="0.00 0.00 422.00 672.00" xmlns="http://www.w3.org/2000/svg" xmlns:xlink="http://www.w3.org/1999/xlink">
<g id="graph0" class="graph" transform="scale(1 1) rotate(0) translate(4 668)">
<title>o2::quality_control_modules::tof::TOFTask</title>
<!-- Node1 -->
<g id="node1" class="node"><title>Node1</title>
<polygon fill="#bfbfbf" stroke="black" points="110.5,-0.5 110.5,-156.5 233.5,-156.5 233.5,-0.5 110.5,-0.5"/>
<text text-anchor="start" x="118.5" y="-144.5" font-family="Helvetica,sans-Serif" font-size="10.00">o2::quality_control</text>
<text text-anchor="middle" x="172" y="-133.5" font-family="Helvetica,sans-Serif" font-size="10.00">_modules::tof::TOFTask</text>
<polyline fill="none" stroke="black" points="110.5,-126.5 233.5,-126.5 "/>
<text text-anchor="middle" x="172" y="-114.5" font-family="Helvetica,sans-Serif" font-size="10.00"> </text>
<polyline fill="none" stroke="black" points="110.5,-107.5 233.5,-107.5 "/>
<text text-anchor="start" x="118.5" y="-95.5" font-family="Helvetica,sans-Serif" font-size="10.00">+ TOFTask()</text>
<text text-anchor="start" x="118.5" y="-84.5" font-family="Helvetica,sans-Serif" font-size="10.00">+ ~TOFTask()</text>
<text text-anchor="start" x="118.5" y="-73.5" font-family="Helvetica,sans-Serif" font-size="10.00">+ initialize()</text>
<text text-anchor="start" x="118.5" y="-62.5" font-family="Helvetica,sans-Serif" font-size="10.00">+ startOfActivity()</text>
<text text-anchor="start" x="118.5" y="-51.5" font-family="Helvetica,sans-Serif" font-size="10.00">+ startOfCycle()</text>
<text text-anchor="start" x="118.5" y="-40.5" font-family="Helvetica,sans-Serif" font-size="10.00">+ monitorData()</text>
<text text-anchor="start" x="118.5" y="-29.5" font-family="Helvetica,sans-Serif" font-size="10.00">+ endOfCycle()</text>
<text text-anchor="start" x="118.5" y="-18.5" font-family="Helvetica,sans-Serif" font-size="10.00">+ endOfActivity()</text>
<text text-anchor="start" x="118.5" y="-7.5" font-family="Helvetica,sans-Serif" font-size="10.00">+ reset()</text>
</g>
<!-- Node2 -->
<g id="node2" class="node"><title>Node2</title>
<g id="a_node2"><a xlink:href="classo2_1_1quality__control_1_1core_1_1TaskInterface.html" target="_top" xlink:title="Skeleton of a QC task. ">
<polygon fill="none" stroke="black" points="0,-259.5 0,-547.5 130,-547.5 130,-259.5 0,-259.5"/>
<text text-anchor="start" x="8" y="-535.5" font-family="Helvetica,sans-Serif" font-size="10.00">o2::quality_control</text>
<text text-anchor="middle" x="65" y="-524.5" font-family="Helvetica,sans-Serif" font-size="10.00">::core::TaskInterface</text>
<polyline fill="none" stroke="black" points="0,-517.5 130,-517.5 "/>
<text text-anchor="middle" x="65" y="-505.5" font-family="Helvetica,sans-Serif" font-size="10.00"> </text>
<polyline fill="none" stroke="black" points="0,-498.5 130,-498.5 "/>
<text text-anchor="start" x="8" y="-486.5" font-family="Helvetica,sans-Serif" font-size="10.00">+ TaskInterface()</text>
<text text-anchor="start" x="8" y="-475.5" font-family="Helvetica,sans-Serif" font-size="10.00">+ TaskInterface()</text>
<text text-anchor="start" x="8" y="-464.5" font-family="Helvetica,sans-Serif" font-size="10.00">+ ~TaskInterface()</text>
<text text-anchor="start" x="8" y="-453.5" font-family="Helvetica,sans-Serif" font-size="10.00">+ TaskInterface()</text>
<text text-anchor="start" x="8" y="-442.5" font-family="Helvetica,sans-Serif" font-size="10.00">+ TaskInterface()</text>
<text text-anchor="start" x="8" y="-431.5" font-family="Helvetica,sans-Serif" font-size="10.00">+ operator=()</text>
<text text-anchor="start" x="8" y="-420.5" font-family="Helvetica,sans-Serif" font-size="10.00">+ operator=()</text>
<text text-anchor="start" x="8" y="-409.5" font-family="Helvetica,sans-Serif" font-size="10.00">+ loadCcdb()</text>
<text text-anchor="start" x="8" y="-398.5" font-family="Helvetica,sans-Serif" font-size="10.00">+ initialize()</text>
<text text-anchor="start" x="8" y="-387.5" font-family="Helvetica,sans-Serif" font-size="10.00">+ startOfActivity()</text>
<text text-anchor="start" x="8" y="-376.5" font-family="Helvetica,sans-Serif" font-size="10.00">+ startOfCycle()</text>
<text text-anchor="start" x="8" y="-365.5" font-family="Helvetica,sans-Serif" font-size="10.00">+ monitorData()</text>
<text text-anchor="start" x="8" y="-354.5" font-family="Helvetica,sans-Serif" font-size="10.00">+ endOfCycle()</text>
<text text-anchor="start" x="8" y="-343.5" font-family="Helvetica,sans-Serif" font-size="10.00">+ endOfActivity()</text>
<text text-anchor="start" x="8" y="-332.5" font-family="Helvetica,sans-Serif" font-size="10.00">+ reset()</text>
<text text-anchor="start" x="8" y="-321.5" font-family="Helvetica,sans-Serif" font-size="10.00">+ setObjectsManager()</text>
<text text-anchor="start" x="8" y="-310.5" font-family="Helvetica,sans-Serif" font-size="10.00">+ setName()</text>
<text text-anchor="start" x="8" y="-299.5" font-family="Helvetica,sans-Serif" font-size="10.00">+ setCustomParameters()</text>
<text text-anchor="start" x="8" y="-288.5" font-family="Helvetica,sans-Serif" font-size="10.00">+ getName()</text>
<text text-anchor="start" x="8" y="-277.5" font-family="Helvetica,sans-Serif" font-size="10.00"># getObjectsManager()</text>
<text text-anchor="start" x="8" y="-266.5" font-family="Helvetica,sans-Serif" font-size="10.00"># retrieveCondition()</text>
</a>
</g>
</g>
<!-- Node2&#45;&gt;Node1 -->
<g id="edge1" class="edge"><title>Node2&#45;&gt;Node1</title>
<path fill="none" stroke="midnightblue" d="M115.556,-249.888C126.237,-217.645 137.075,-184.928 146.36,-156.899"/>
<polygon fill="none" stroke="midnightblue" points="112.221,-248.824 112.399,-259.417 118.866,-251.025 112.221,-248.824"/>
</g>
<!-- Node3 -->
<g id="node3" class="node"><title>Node3</title>
<polygon fill="none" stroke="#bfbfbf" points="12,-595.5 12,-663.5 118,-663.5 118,-595.5 12,-595.5"/>
<text text-anchor="start" x="20" y="-651.5" font-family="Helvetica,sans-Serif" font-size="10.00">unordered_map&lt; std</text>
<text text-anchor="middle" x="65" y="-640.5" font-family="Helvetica,sans-Serif" font-size="10.00">::string, std::string &gt;</text>
<polyline fill="none" stroke="#bfbfbf" points="12,-633.5 118,-633.5 "/>
<text text-anchor="middle" x="65" y="-621.5" font-family="Helvetica,sans-Serif" font-size="10.00"> </text>
<polyline fill="none" stroke="#bfbfbf" points="12,-614.5 118,-614.5 "/>
<text text-anchor="middle" x="65" y="-602.5" font-family="Helvetica,sans-Serif" font-size="10.00"> </text>
</g>
<!-- Node3&#45;&gt;Node2 -->
<g id="edge2" class="edge"><title>Node3&#45;&gt;Node2</title>
<path fill="none" stroke="#404040" d="M65,-595.448C65,-585.106 65,-572.936 65,-559.83"/>
<polygon fill="none" stroke="#404040" points="65.0001,-559.557 61,-553.557 65,-547.557 69,-553.557 65.0001,-559.557"/>
<text text-anchor="middle" x="116" y="-569" font-family="Helvetica,sans-Serif" font-size="10.00"> #mCustomParameters</text>
</g>
<!-- Node4 -->
<g id="node4" class="node"><title>Node4</title>
<polygon fill="none" stroke="#bfbfbf" points="148.5,-375 148.5,-432 195.5,-432 195.5,-375 148.5,-375"/>
<text text-anchor="middle" x="172" y="-420" font-family="Helvetica,sans-Serif" font-size="10.00">Float_t</text>
<polyline fill="none" stroke="#bfbfbf" points="148.5,-413 195.5,-413 "/>
<text text-anchor="middle" x="172" y="-401" font-family="Helvetica,sans-Serif" font-size="10.00"> </text>
<polyline fill="none" stroke="#bfbfbf" points="148.5,-394 195.5,-394 "/>
<text text-anchor="middle" x="172" y="-382" font-family="Helvetica,sans-Serif" font-size="10.00"> </text>
</g>
<!-- Node4&#45;&gt;Node1 -->
<g id="edge3" class="edge"><title>Node4&#45;&gt;Node1</title>
<path fill="none" stroke="#404040" d="M172,-374.961C172,-329.843 172,-238.267 172,-168.957"/>
<polygon fill="none" stroke="#404040" points="172,-168.729 168,-162.729 172,-156.729 176,-162.729 172,-168.729"/>
<text text-anchor="middle" x="220" y="-216.5" font-family="Helvetica,sans-Serif" font-size="10.00"> +fgkNbinsWidthTime</text>
<text text-anchor="middle" x="220" y="-205.5" font-family="Helvetica,sans-Serif" font-size="10.00">+fgRangeMinTime</text>
<text text-anchor="middle" x="220" y="-194.5" font-family="Helvetica,sans-Serif" font-size="10.00">+fgRangeMaxTime</text>
</g>
<!-- Node5 -->
<g id="node5" class="node"><title>Node5</title>
<polygon fill="none" stroke="#bfbfbf" points="273,-375 273,-432 309,-432 309,-375 273,-375"/>
<text text-anchor="middle" x="291" y="-420" font-family="Helvetica,sans-Serif" font-size="10.00">Int_t</text>
<polyline fill="none" stroke="#bfbfbf" points="273,-413 309,-413 "/>
<text text-anchor="middle" x="291" y="-401" font-family="Helvetica,sans-Serif" font-size="10.00"> </text>
<polyline fill="none" stroke="#bfbfbf" points="273,-394 309,-394 "/>
<text text-anchor="middle" x="291" y="-382" font-family="Helvetica,sans-Serif" font-size="10.00"> </text>
</g>
<!-- Node5&#45;&gt;Node1 -->
<g id="edge4" class="edge"><title>Node5&#45;&gt;Node1</title>
<path fill="none" stroke="#404040" d="M294.182,-374.639C298.023,-330.082 300.501,-241.087 269,-175 262.315,-160.975 252.667,-147.856 242.017,-136.101"/>
<polygon fill="none" stroke="#404040" points="241.99,-136.073 234.955,-134.489 233.711,-127.386 240.747,-128.97 241.99,-136.073"/>
<text text-anchor="middle" x="352" y="-233" font-family="Helvetica,sans-Serif" font-size="10.00"> +fgCutNmaxFiredMacropad</text>
<text text-anchor="middle" x="352" y="-222" font-family="Helvetica,sans-Serif" font-size="10.00">+fgRangeMaxMultiplicity</text>
<text text-anchor="middle" x="352" y="-211" font-family="Helvetica,sans-Serif" font-size="10.00">+fgRangeMinMultiplicity</text>
<text text-anchor="middle" x="352" y="-200" font-family="Helvetica,sans-Serif" font-size="10.00">+fgkFiredMacropadLimit</text>
<text text-anchor="middle" x="352" y="-189" font-family="Helvetica,sans-Serif" font-size="10.00">+fgNbinsTime</text>
<text text-anchor="middle" x="352" y="-178" font-family="Helvetica,sans-Serif" font-size="10.00">+fgNbinsMultiplicity</text>
</g>
</g>
</svg>
