<?xml version="1.0" encoding="UTF-8" standalone="no"?>
<!DOCTYPE svg PUBLIC "-//W3C//DTD SVG 1.1//EN"
 "http://www.w3.org/Graphics/SVG/1.1/DTD/svg11.dtd">
<!-- Generated by graphviz version 2.38.0 (20140413.2041)
 -->
<!-- Title: o2::quality_control::postprocessing::Reductor Pages: 1 -->
<svg width="688pt" height="380pt"
 viewBox="0.00 0.00 687.50 380.00" xmlns="http://www.w3.org/2000/svg" xmlns:xlink="http://www.w3.org/1999/xlink">
<g id="graph0" class="graph" transform="scale(1 1) rotate(0) translate(4 376)">
<title>o2::quality_control::postprocessing::Reductor</title>
<!-- Node1 -->
<g id="node1" class="node"><title>Node1</title>
<polygon fill="#bfbfbf" stroke="black" points="248,-259.5 248,-371.5 382,-371.5 382,-259.5 248,-259.5"/>
<text text-anchor="start" x="256" y="-359.5" font-family="Helvetica,sans-Serif" font-size="10.00">o2::quality_control</text>
<text text-anchor="middle" x="315" y="-348.5" font-family="Helvetica,sans-Serif" font-size="10.00">::postprocessing::Reductor</text>
<polyline fill="none" stroke="black" points="248,-341.5 382,-341.5 "/>
<text text-anchor="middle" x="315" y="-329.5" font-family="Helvetica,sans-Serif" font-size="10.00"> </text>
<polyline fill="none" stroke="black" points="248,-322.5 382,-322.5 "/>
<text text-anchor="start" x="256" y="-310.5" font-family="Helvetica,sans-Serif" font-size="10.00">+ Reductor()</text>
<text text-anchor="start" x="256" y="-299.5" font-family="Helvetica,sans-Serif" font-size="10.00">+ ~Reductor()</text>
<text text-anchor="start" x="256" y="-288.5" font-family="Helvetica,sans-Serif" font-size="10.00">+ getBranchAddress()</text>
<text text-anchor="start" x="256" y="-277.5" font-family="Helvetica,sans-Serif" font-size="10.00">+ getBranchLeafList()</text>
<text text-anchor="start" x="256" y="-266.5" font-family="Helvetica,sans-Serif" font-size="10.00">+ update()</text>
</g>
<!-- Node2 -->
<g id="node2" class="node"><title>Node2</title>
<g id="a_node2"><a xlink:href="classMyReductor.html" target="_top" xlink:title="{MyReductor\n|+ integral\l|+ MyReductor()\l+ ~MyReductor()\l+ getBranchAddress()\l+ getBranchLeafList()\l+ update()\l}">
<polygon fill="none" stroke="black" points="0,-61 0,-162 112,-162 112,-61 0,-61"/>
<text text-anchor="middle" x="56" y="-150" font-family="Helvetica,sans-Serif" font-size="10.00">MyReductor</text>
<polyline fill="none" stroke="black" points="0,-143 112,-143 "/>
<text text-anchor="start" x="8" y="-131" font-family="Helvetica,sans-Serif" font-size="10.00">+ integral</text>
<polyline fill="none" stroke="black" points="0,-124 112,-124 "/>
<text text-anchor="start" x="8" y="-112" font-family="Helvetica,sans-Serif" font-size="10.00">+ MyReductor()</text>
<text text-anchor="start" x="8" y="-101" font-family="Helvetica,sans-Serif" font-size="10.00">+ ~MyReductor()</text>
<text text-anchor="start" x="8" y="-90" font-family="Helvetica,sans-Serif" font-size="10.00">+ getBranchAddress()</text>
<text text-anchor="start" x="8" y="-79" font-family="Helvetica,sans-Serif" font-size="10.00">+ getBranchLeafList()</text>
<text text-anchor="start" x="8" y="-68" font-family="Helvetica,sans-Serif" font-size="10.00">+ update()</text>
</a>
</g>
</g>
<!-- Node1&#45;&gt;Node2 -->
<g id="edge1" class="edge"><title>Node1&#45;&gt;Node2</title>
<path fill="none" stroke="midnightblue" d="M238.029,-290.429C199.607,-275.565 154.34,-253.436 121,-223 102.59,-206.193 87.8471,-182.942 77.0867,-162.102"/>
<polygon fill="none" stroke="midnightblue" points="237.047,-293.799 247.639,-294.052 239.516,-287.249 237.047,-293.799"/>
</g>
<!-- Node3 -->
<g id="node3" class="node"><title>Node3</title>
<g id="a_node3"><a xlink:href="classo2_1_1quality__control__modules_1_1common_1_1QualityReductor.html" target="_top" xlink:title="A Reductor of QualityObjects, stores a name and level of a Quality. ">
<polygon fill="none" stroke="black" points="130.5,-44.5 130.5,-178.5 309.5,-178.5 309.5,-44.5 130.5,-44.5"/>
<text text-anchor="start" x="138.5" y="-166.5" font-family="Helvetica,sans-Serif" font-size="10.00">o2::quality_control</text>
<text text-anchor="middle" x="220" y="-155.5" font-family="Helvetica,sans-Serif" font-size="10.00">_modules::common::QualityReductor</text>
<polyline fill="none" stroke="black" points="130.5,-148.5 309.5,-148.5 "/>
<text text-anchor="start" x="138.5" y="-136.5" font-family="Helvetica,sans-Serif" font-size="10.00">+ level</text>
<text text-anchor="start" x="138.5" y="-125.5" font-family="Helvetica,sans-Serif" font-size="10.00">+ name</text>
<text text-anchor="start" x="138.5" y="-114.5" font-family="Helvetica,sans-Serif" font-size="10.00">+ NAME_SIZE</text>
<polyline fill="none" stroke="black" points="130.5,-107.5 309.5,-107.5 "/>
<text text-anchor="start" x="138.5" y="-95.5" font-family="Helvetica,sans-Serif" font-size="10.00">+ QualityReductor()</text>
<text text-anchor="start" x="138.5" y="-84.5" font-family="Helvetica,sans-Serif" font-size="10.00">+ ~QualityReductor()</text>
<text text-anchor="start" x="138.5" y="-73.5" font-family="Helvetica,sans-Serif" font-size="10.00">+ getBranchAddress()</text>
<text text-anchor="start" x="138.5" y="-62.5" font-family="Helvetica,sans-Serif" font-size="10.00">+ getBranchLeafList()</text>
<text text-anchor="start" x="138.5" y="-51.5" font-family="Helvetica,sans-Serif" font-size="10.00">+ update()</text>
</a>
</g>
</g>
<!-- Node1&#45;&gt;Node3 -->
<g id="edge2" class="edge"><title>Node1&#45;&gt;Node3</title>
<path fill="none" stroke="midnightblue" d="M284.699,-250.071C273.994,-227.307 261.94,-201.678 251.164,-178.765"/>
<polygon fill="none" stroke="midnightblue" points="281.618,-251.743 289.041,-259.303 287.952,-248.764 281.618,-251.743"/>
</g>
<!-- Node4 -->
<g id="node4" class="node"><title>Node4</title>
<g id="a_node4"><a xlink:href="classo2_1_1quality__control__modules_1_1common_1_1TH1Reductor.html" target="_top" xlink:title="A Reductor which obtains the most popular characteristics of TH1. ">
<polygon fill="none" stroke="black" points="327.5,-44.5 327.5,-178.5 494.5,-178.5 494.5,-44.5 327.5,-44.5"/>
<text text-anchor="start" x="335.5" y="-166.5" font-family="Helvetica,sans-Serif" font-size="10.00">o2::quality_control</text>
<text text-anchor="middle" x="411" y="-155.5" font-family="Helvetica,sans-Serif" font-size="10.00">_modules::common::TH1Reductor</text>
<polyline fill="none" stroke="black" points="327.5,-148.5 494.5,-148.5 "/>
<text text-anchor="start" x="335.5" y="-136.5" font-family="Helvetica,sans-Serif" font-size="10.00">+ mean</text>
<text text-anchor="start" x="335.5" y="-125.5" font-family="Helvetica,sans-Serif" font-size="10.00">+ stddev</text>
<text text-anchor="start" x="335.5" y="-114.5" font-family="Helvetica,sans-Serif" font-size="10.00">+ entries</text>
<polyline fill="none" stroke="black" points="327.5,-107.5 494.5,-107.5 "/>
<text text-anchor="start" x="335.5" y="-95.5" font-family="Helvetica,sans-Serif" font-size="10.00">+ TH1Reductor()</text>
<text text-anchor="start" x="335.5" y="-84.5" font-family="Helvetica,sans-Serif" font-size="10.00">+ ~TH1Reductor()</text>
<text text-anchor="start" x="335.5" y="-73.5" font-family="Helvetica,sans-Serif" font-size="10.00">+ getBranchAddress()</text>
<text text-anchor="start" x="335.5" y="-62.5" font-family="Helvetica,sans-Serif" font-size="10.00">+ getBranchLeafList()</text>
<text text-anchor="start" x="335.5" y="-51.5" font-family="Helvetica,sans-Serif" font-size="10.00">+ update()</text>
</a>
</g>
</g>
<!-- Node1&#45;&gt;Node4 -->
<g id="edge3" class="edge"><title>Node1&#45;&gt;Node4</title>
<path fill="none" stroke="midnightblue" d="M345.62,-250.071C356.438,-227.307 368.618,-201.678 379.508,-178.765"/>
<polygon fill="none" stroke="midnightblue" points="342.364,-248.768 341.232,-259.303 348.686,-251.773 342.364,-248.768"/>
</g>
<!-- Node5 -->
<g id="node5" class="node"><title>Node5</title>
<g id="a_node5"><a xlink:href="classo2_1_1quality__control__modules_1_1common_1_1TH2Reductor.html" target="_top" xlink:title="A Reductor which obtains the most popular characteristics of TH2. ">
<polygon fill="none" stroke="black" points="512.5,-0.5 512.5,-222.5 679.5,-222.5 679.5,-0.5 512.5,-0.5"/>
<text text-anchor="start" x="520.5" y="-210.5" font-family="Helvetica,sans-Serif" font-size="10.00">o2::quality_control</text>
<text text-anchor="middle" x="596" y="-199.5" font-family="Helvetica,sans-Serif" font-size="10.00">_modules::common::TH2Reductor</text>
<polyline fill="none" stroke="black" points="512.5,-192.5 679.5,-192.5 "/>
<text text-anchor="start" x="520.5" y="-180.5" font-family="Helvetica,sans-Serif" font-size="10.00">+ sumw</text>
<text text-anchor="start" x="520.5" y="-169.5" font-family="Helvetica,sans-Serif" font-size="10.00">+ sumw2</text>
<text text-anchor="start" x="520.5" y="-158.5" font-family="Helvetica,sans-Serif" font-size="10.00">+ sumwx</text>
<text text-anchor="start" x="520.5" y="-147.5" font-family="Helvetica,sans-Serif" font-size="10.00">+ sumwx2</text>
<text text-anchor="start" x="520.5" y="-136.5" font-family="Helvetica,sans-Serif" font-size="10.00">+ sumwy</text>
<text text-anchor="start" x="520.5" y="-125.5" font-family="Helvetica,sans-Serif" font-size="10.00">+ sumwy2</text>
<text text-anchor="start" x="520.5" y="-114.5" font-family="Helvetica,sans-Serif" font-size="10.00">+ sumwxy</text>
<text text-anchor="start" x="520.5" y="-103.5" font-family="Helvetica,sans-Serif" font-size="10.00">+ named</text>
<text text-anchor="start" x="520.5" y="-92.5" font-family="Helvetica,sans-Serif" font-size="10.00">+ array</text>
<text text-anchor="start" x="520.5" y="-81.5" font-family="Helvetica,sans-Serif" font-size="10.00">+ sums</text>
<text text-anchor="start" x="520.5" y="-70.5" font-family="Helvetica,sans-Serif" font-size="10.00">+ entries</text>
<polyline fill="none" stroke="black" points="512.5,-63.5 679.5,-63.5 "/>
<text text-anchor="start" x="520.5" y="-51.5" font-family="Helvetica,sans-Serif" font-size="10.00">+ TH2Reductor()</text>
<text text-anchor="start" x="520.5" y="-40.5" font-family="Helvetica,sans-Serif" font-size="10.00">+ ~TH2Reductor()</text>
<text text-anchor="start" x="520.5" y="-29.5" font-family="Helvetica,sans-Serif" font-size="10.00">+ getBranchAddress()</text>
<text text-anchor="start" x="520.5" y="-18.5" font-family="Helvetica,sans-Serif" font-size="10.00">+ getBranchLeafList()</text>
<text text-anchor="start" x="520.5" y="-7.5" font-family="Helvetica,sans-Serif" font-size="10.00">+ update()</text>
</a>
</g>
</g>
<!-- Node1&#45;&gt;Node5 -->
<g id="edge4" class="edge"><title>Node1&#45;&gt;Node5</title>
<path fill="none" stroke="midnightblue" d="M391.897,-286.122C428.006,-270.661 470.389,-249.284 504,-223 506.851,-220.77 509.675,-218.439 512.464,-216.024"/>
<polygon fill="none" stroke="midnightblue" points="390.24,-283.022 382.378,-290.125 392.953,-289.475 390.24,-283.022"/>
</g>
</g>
</svg>
