<?xml version="1.0" encoding="UTF-8" standalone="no"?>
<!DOCTYPE svg PUBLIC "-//W3C//DTD SVG 1.1//EN"
 "http://www.w3.org/Graphics/SVG/1.1/DTD/svg11.dtd">
<!-- Generated by graphviz version 2.38.0 (20140413.2041)
 -->
<!-- Title: o2::quality_control::core::Quality Pages: 1 -->
<svg width="180pt" height="248pt"
 viewBox="0.00 0.00 179.50 248.00" xmlns="http://www.w3.org/2000/svg" xmlns:xlink="http://www.w3.org/1999/xlink">
<g id="graph0" class="graph" transform="scale(1 1) rotate(0) translate(4 244)">
<title>o2::quality_control::core::Quality</title>
<!-- Node1 -->
<g id="node1" class="node"><title>Node1</title>
<polygon fill="#bfbfbf" stroke="black" points="13.5,-0.5 13.5,-134.5 109.5,-134.5 109.5,-0.5 13.5,-0.5"/>
<text text-anchor="start" x="21.5" y="-122.5" font-family="Helvetica,sans-Serif" font-size="10.00">o2::quality_control</text>
<text text-anchor="middle" x="61.5" y="-111.5" font-family="Helvetica,sans-Serif" font-size="10.00">::core::Quality</text>
<polyline fill="none" stroke="black" points="13.5,-104.5 109.5,-104.5 "/>
<text text-anchor="middle" x="61.5" y="-92.5" font-family="Helvetica,sans-Serif" font-size="10.00"> </text>
<polyline fill="none" stroke="black" points="13.5,-85.5 109.5,-85.5 "/>
<text text-anchor="start" x="21.5" y="-73.5" font-family="Helvetica,sans-Serif" font-size="10.00">+ Quality()</text>
<text text-anchor="start" x="21.5" y="-62.5" font-family="Helvetica,sans-Serif" font-size="10.00">+ ~Quality()</text>
<text text-anchor="start" x="21.5" y="-51.5" font-family="Helvetica,sans-Serif" font-size="10.00">+ Quality()</text>
<text text-anchor="start" x="21.5" y="-40.5" font-family="Helvetica,sans-Serif" font-size="10.00">+ getLevel()</text>
<text text-anchor="start" x="21.5" y="-29.5" font-family="Helvetica,sans-Serif" font-size="10.00">+ getName()</text>
<text text-anchor="start" x="21.5" y="-18.5" font-family="Helvetica,sans-Serif" font-size="10.00">+ isWorstThan()</text>
<text text-anchor="start" x="21.5" y="-7.5" font-family="Helvetica,sans-Serif" font-size="10.00">+ isBetterThan()</text>
</g>
<!-- Node1&#45;&gt;Node1 -->
<g id="edge2" class="edge"><title>Node1&#45;&gt;Node1</title>
<path fill="none" stroke="#404040" d="M109.554,-83.8765C119.956,-82.2752 127.5,-76.8164 127.5,-67.5 127.5,-62.114 124.979,-58.0172 120.841,-55.2098"/>
<polygon fill="none" stroke="#404040" points="120.838,-55.2085 113.834,-56.9271 109.554,-51.1235 116.558,-49.4049 120.838,-55.2085"/>
<text text-anchor="middle" x="149.5" y="-81.5" font-family="Helvetica,sans-Serif" font-size="10.00"> +Medium</text>
<text text-anchor="middle" x="149.5" y="-70.5" font-family="Helvetica,sans-Serif" font-size="10.00">+Good</text>
<text text-anchor="middle" x="149.5" y="-59.5" font-family="Helvetica,sans-Serif" font-size="10.00">+Bad</text>
<text text-anchor="middle" x="149.5" y="-48.5" font-family="Helvetica,sans-Serif" font-size="10.00">+Null</text>
</g>
<!-- Node2 -->
<g id="node2" class="node"><title>Node2</title>
<polygon fill="none" stroke="#bfbfbf" points="0,-182.5 0,-239.5 123,-239.5 123,-182.5 0,-182.5"/>
<text text-anchor="middle" x="61.5" y="-227.5" font-family="Helvetica,sans-Serif" font-size="10.00">static const unsigned int</text>
<polyline fill="none" stroke="#bfbfbf" points="0,-220.5 123,-220.5 "/>
<text text-anchor="middle" x="61.5" y="-208.5" font-family="Helvetica,sans-Serif" font-size="10.00"> </text>
<polyline fill="none" stroke="#bfbfbf" points="0,-201.5 123,-201.5 "/>
<text text-anchor="middle" x="61.5" y="-189.5" font-family="Helvetica,sans-Serif" font-size="10.00"> </text>
</g>
<!-- Node2&#45;&gt;Node1 -->
<g id="edge1" class="edge"><title>Node2&#45;&gt;Node1</title>
<path fill="none" stroke="#404040" d="M61.5,-182.381C61.5,-172.02 61.5,-159.663 61.5,-146.97"/>
<polygon fill="none" stroke="#404040" points="61.5001,-146.753 57.5,-140.753 61.5,-134.753 65.5,-140.753 61.5001,-146.753"/>
<text text-anchor="middle" x="86.5" y="-156" font-family="Helvetica,sans-Serif" font-size="10.00"> +NullLevel</text>
</g>
</g>
</svg>
