<?xml version="1.0" encoding="UTF-8" standalone="no"?>
<!DOCTYPE svg PUBLIC "-//W3C//DTD SVG 1.1//EN"
 "http://www.w3.org/Graphics/SVG/1.1/DTD/svg11.dtd">
<!-- Generated by graphviz version 2.38.0 (20140413.2041)
 -->
<!-- Title: o2::quality_control_modules::tof::TOFCheckRawsTime Pages: 1 -->
<svg width="252pt" height="463pt"
 viewBox="0.00 0.00 252.00 463.00" xmlns="http://www.w3.org/2000/svg" xmlns:xlink="http://www.w3.org/1999/xlink">
<g id="graph0" class="graph" transform="scale(1 1) rotate(0) translate(4 459)">
<title>o2::quality_control_modules::tof::TOFCheckRawsTime</title>
<!-- Node1 -->
<g id="node1" class="node"><title>Node1</title>
<polygon fill="#bfbfbf" stroke="black" points="56.5,-0.5 56.5,-123.5 233.5,-123.5 233.5,-0.5 56.5,-0.5"/>
<text text-anchor="start" x="64.5" y="-111.5" font-family="Helvetica,sans-Serif" font-size="10.00">o2::quality_control</text>
<text text-anchor="middle" x="145" y="-100.5" font-family="Helvetica,sans-Serif" font-size="10.00">_modules::tof::TOFCheckRawsTime</text>
<polyline fill="none" stroke="black" points="56.5,-93.5 233.5,-93.5 "/>
<text text-anchor="middle" x="145" y="-81.5" font-family="Helvetica,sans-Serif" font-size="10.00"> </text>
<polyline fill="none" stroke="black" points="56.5,-74.5 233.5,-74.5 "/>
<text text-anchor="start" x="64.5" y="-62.5" font-family="Helvetica,sans-Serif" font-size="10.00">+ TOFCheckRawsTime()</text>
<text text-anchor="start" x="64.5" y="-51.5" font-family="Helvetica,sans-Serif" font-size="10.00">+ ~TOFCheckRawsTime()</text>
<text text-anchor="start" x="64.5" y="-40.5" font-family="Helvetica,sans-Serif" font-size="10.00">+ configure()</text>
<text text-anchor="start" x="64.5" y="-29.5" font-family="Helvetica,sans-Serif" font-size="10.00">+ check()</text>
<text text-anchor="start" x="64.5" y="-18.5" font-family="Helvetica,sans-Serif" font-size="10.00">+ beautify()</text>
<text text-anchor="start" x="64.5" y="-7.5" font-family="Helvetica,sans-Serif" font-size="10.00">+ getAcceptedType()</text>
</g>
<!-- Node2 -->
<g id="node2" class="node"><title>Node2</title>
<g id="a_node2"><a xlink:href="classo2_1_1quality__control_1_1checker_1_1CheckInterface.html" target="_top" xlink:title="Skeleton of a check. ">
<polygon fill="none" stroke="black" points="0,-182.5 0,-338.5 130,-338.5 130,-182.5 0,-182.5"/>
<text text-anchor="start" x="8" y="-326.5" font-family="Helvetica,sans-Serif" font-size="10.00">o2::quality_control</text>
<text text-anchor="middle" x="65" y="-315.5" font-family="Helvetica,sans-Serif" font-size="10.00">::checker::CheckInterface</text>
<polyline fill="none" stroke="black" points="0,-308.5 130,-308.5 "/>
<text text-anchor="middle" x="65" y="-296.5" font-family="Helvetica,sans-Serif" font-size="10.00"> </text>
<polyline fill="none" stroke="black" points="0,-289.5 130,-289.5 "/>
<text text-anchor="start" x="8" y="-277.5" font-family="Helvetica,sans-Serif" font-size="10.00">+ CheckInterface()</text>
<text text-anchor="start" x="8" y="-266.5" font-family="Helvetica,sans-Serif" font-size="10.00">+ ~CheckInterface()</text>
<text text-anchor="start" x="8" y="-255.5" font-family="Helvetica,sans-Serif" font-size="10.00">+ configure()</text>
<text text-anchor="start" x="8" y="-244.5" font-family="Helvetica,sans-Serif" font-size="10.00">+ check()</text>
<text text-anchor="start" x="8" y="-233.5" font-family="Helvetica,sans-Serif" font-size="10.00">+ beautify()</text>
<text text-anchor="start" x="8" y="-222.5" font-family="Helvetica,sans-Serif" font-size="10.00">+ getAcceptedType()</text>
<text text-anchor="start" x="8" y="-211.5" font-family="Helvetica,sans-Serif" font-size="10.00">+ isObjectCheckable()</text>
<text text-anchor="start" x="8" y="-200.5" font-family="Helvetica,sans-Serif" font-size="10.00">+ isObjectCheckable()</text>
<text text-anchor="start" x="8" y="-189.5" font-family="Helvetica,sans-Serif" font-size="10.00">+ setCustomParameters()</text>
</a>
</g>
</g>
<!-- Node2&#45;&gt;Node1 -->
<g id="edge1" class="edge"><title>Node2&#45;&gt;Node1</title>
<path fill="none" stroke="midnightblue" d="M100.321,-172.744C107.044,-156.23 113.946,-139.277 120.253,-123.785"/>
<polygon fill="none" stroke="midnightblue" points="96.9176,-171.82 96.3885,-182.402 103.401,-174.46 96.9176,-171.82"/>
</g>
<!-- Node3 -->
<g id="node3" class="node"><title>Node3</title>
<polygon fill="none" stroke="#bfbfbf" points="12,-386.5 12,-454.5 118,-454.5 118,-386.5 12,-386.5"/>
<text text-anchor="start" x="20" y="-442.5" font-family="Helvetica,sans-Serif" font-size="10.00">unordered_map&lt; std</text>
<text text-anchor="middle" x="65" y="-431.5" font-family="Helvetica,sans-Serif" font-size="10.00">::string, std::string &gt;</text>
<polyline fill="none" stroke="#bfbfbf" points="12,-424.5 118,-424.5 "/>
<text text-anchor="middle" x="65" y="-412.5" font-family="Helvetica,sans-Serif" font-size="10.00"> </text>
<polyline fill="none" stroke="#bfbfbf" points="12,-405.5 118,-405.5 "/>
<text text-anchor="middle" x="65" y="-393.5" font-family="Helvetica,sans-Serif" font-size="10.00"> </text>
</g>
<!-- Node3&#45;&gt;Node2 -->
<g id="edge2" class="edge"><title>Node3&#45;&gt;Node2</title>
<path fill="none" stroke="#404040" d="M65,-386.378C65,-375.749 65,-363.424 65,-350.742"/>
<polygon fill="none" stroke="#404040" points="65.0001,-350.516 61,-344.516 65,-338.516 69,-344.516 65.0001,-350.516"/>
<text text-anchor="middle" x="116" y="-360" font-family="Helvetica,sans-Serif" font-size="10.00"> #mCustomParameters</text>
</g>
<!-- Node4 -->
<g id="node4" class="node"><title>Node4</title>
<polygon fill="none" stroke="#bfbfbf" points="148.5,-232 148.5,-289 195.5,-289 195.5,-232 148.5,-232"/>
<text text-anchor="middle" x="172" y="-277" font-family="Helvetica,sans-Serif" font-size="10.00">Float_t</text>
<polyline fill="none" stroke="#bfbfbf" points="148.5,-270 195.5,-270 "/>
<text text-anchor="middle" x="172" y="-258" font-family="Helvetica,sans-Serif" font-size="10.00"> </text>
<polyline fill="none" stroke="#bfbfbf" points="148.5,-251 195.5,-251 "/>
<text text-anchor="middle" x="172" y="-239" font-family="Helvetica,sans-Serif" font-size="10.00"> </text>
</g>
<!-- Node4&#45;&gt;Node1 -->
<g id="edge3" class="edge"><title>Node4&#45;&gt;Node1</title>
<path fill="none" stroke="#404040" d="M168.189,-231.763C164.771,-206.889 159.602,-169.27 155.011,-135.858"/>
<polygon fill="none" stroke="#404040" points="154.984,-135.658 150.204,-130.258 153.35,-123.769 158.13,-129.169 154.984,-135.658"/>
<text text-anchor="middle" x="201.5" y="-156" font-family="Helvetica,sans-Serif" font-size="10.00"> +maxTOFrawTime</text>
<text text-anchor="middle" x="201.5" y="-145" font-family="Helvetica,sans-Serif" font-size="10.00">+minTOFrawTime</text>
</g>
</g>
</svg>
