<?xml version="1.0" encoding="UTF-8" standalone="no"?>
<!DOCTYPE svg PUBLIC "-//W3C//DTD SVG 1.1//EN"
 "http://www.w3.org/Graphics/SVG/1.1/DTD/svg11.dtd">
<!-- Generated by graphviz version 2.38.0 (20140413.2041)
 -->
<!-- Title: o2::quality_control_modules::tof::TOFDecoderCompressed Pages: 1 -->
<svg width="202pt" height="204pt"
 viewBox="0.00 0.00 202.00 204.00" xmlns="http://www.w3.org/2000/svg" xmlns:xlink="http://www.w3.org/1999/xlink">
<g id="graph0" class="graph" transform="scale(1 1) rotate(0) translate(4 200)">
<title>o2::quality_control_modules::tof::TOFDecoderCompressed</title>
<!-- Node1 -->
<g id="node1" class="node"><title>Node1</title>
<polygon fill="#bfbfbf" stroke="black" points="-1.42109e-14,-0.5 -1.42109e-14,-101.5 194,-101.5 194,-0.5 -1.42109e-14,-0.5"/>
<text text-anchor="start" x="8" y="-89.5" font-family="Helvetica,sans-Serif" font-size="10.00">o2::quality_control</text>
<text text-anchor="middle" x="97" y="-78.5" font-family="Helvetica,sans-Serif" font-size="10.00">_modules::tof::TOFDecoderCompressed</text>
<polyline fill="none" stroke="black" points="-1.42109e-14,-71.5 194,-71.5 "/>
<text text-anchor="start" x="8" y="-59.5" font-family="Helvetica,sans-Serif" font-size="10.00">+ mHistos</text>
<text text-anchor="start" x="8" y="-48.5" font-family="Helvetica,sans-Serif" font-size="10.00">+ rdhread</text>
<polyline fill="none" stroke="black" points="-1.42109e-14,-41.5 194,-41.5 "/>
<text text-anchor="start" x="8" y="-29.5" font-family="Helvetica,sans-Serif" font-size="10.00">+ TOFDecoderCompressed()</text>
<text text-anchor="start" x="8" y="-18.5" font-family="Helvetica,sans-Serif" font-size="10.00">+ ~TOFDecoderCompressed()</text>
<text text-anchor="start" x="8" y="-7.5" font-family="Helvetica,sans-Serif" font-size="10.00">+ decode()</text>
</g>
<!-- Node2 -->
<g id="node2" class="node"><title>Node2</title>
<g id="a_node2"><a xlink:href="classDecoderBase.html" target="_top" xlink:title="{DecoderBase\n||}">
<polygon fill="none" stroke="black" points="59,-138.5 59,-195.5 135,-195.5 135,-138.5 59,-138.5"/>
<text text-anchor="middle" x="97" y="-183.5" font-family="Helvetica,sans-Serif" font-size="10.00">DecoderBase</text>
<polyline fill="none" stroke="black" points="59,-176.5 135,-176.5 "/>
<text text-anchor="middle" x="97" y="-164.5" font-family="Helvetica,sans-Serif" font-size="10.00"> </text>
<polyline fill="none" stroke="black" points="59,-157.5 135,-157.5 "/>
<text text-anchor="middle" x="97" y="-145.5" font-family="Helvetica,sans-Serif" font-size="10.00"> </text>
</a>
</g>
</g>
<!-- Node2&#45;&gt;Node1 -->
<g id="edge1" class="edge"><title>Node2&#45;&gt;Node1</title>
<path fill="none" stroke="midnightblue" d="M97,-128.354C97,-119.796 97,-110.578 97,-101.608"/>
<polygon fill="none" stroke="midnightblue" points="93.5001,-128.404 97,-138.404 100.5,-128.404 93.5001,-128.404"/>
</g>
</g>
</svg>
