<?xml version="1.0" encoding="UTF-8" standalone="no"?>
<!DOCTYPE svg PUBLIC "-//W3C//DTD SVG 1.1//EN"
 "http://www.w3.org/Graphics/SVG/1.1/DTD/svg11.dtd">
<!-- Generated by graphviz version 2.38.0 (20140413.2041)
 -->
<!-- Title: o2::quality_control_modules::tof::Diagnostics Pages: 1 -->
<svg width="142pt" height="259pt"
 viewBox="0.00 0.00 142.00 259.00" xmlns="http://www.w3.org/2000/svg" xmlns:xlink="http://www.w3.org/1999/xlink">
<g id="graph0" class="graph" transform="scale(1 1) rotate(0) translate(4 255)">
<title>o2::quality_control_modules::tof::Diagnostics</title>
<!-- Node1 -->
<g id="node1" class="node"><title>Node1</title>
<polygon fill="#bfbfbf" stroke="black" points="0,-0.5 0,-156.5 134,-156.5 134,-0.5 0,-0.5"/>
<text text-anchor="start" x="8" y="-144.5" font-family="Helvetica,sans-Serif" font-size="10.00">o2::quality_control</text>
<text text-anchor="middle" x="67" y="-133.5" font-family="Helvetica,sans-Serif" font-size="10.00">_modules::tof::Diagnostics</text>
<polyline fill="none" stroke="black" points="0,-126.5 134,-126.5 "/>
<text text-anchor="start" x="8" y="-114.5" font-family="Helvetica,sans-Serif" font-size="10.00">+ mRDHCounter</text>
<text text-anchor="start" x="8" y="-103.5" font-family="Helvetica,sans-Serif" font-size="10.00">+ mDRMCounter</text>
<text text-anchor="start" x="8" y="-92.5" font-family="Helvetica,sans-Serif" font-size="10.00">+ mTRMCounter</text>
<text text-anchor="start" x="8" y="-81.5" font-family="Helvetica,sans-Serif" font-size="10.00">+ mTRMChainCounter</text>
<text text-anchor="start" x="8" y="-70.5" font-family="Helvetica,sans-Serif" font-size="10.00">+ ncrates</text>
<text text-anchor="start" x="8" y="-59.5" font-family="Helvetica,sans-Serif" font-size="10.00">+ ntrms</text>
<text text-anchor="start" x="8" y="-48.5" font-family="Helvetica,sans-Serif" font-size="10.00">+ ntrmschains</text>
<polyline fill="none" stroke="black" points="0,-41.5 134,-41.5 "/>
<text text-anchor="start" x="8" y="-29.5" font-family="Helvetica,sans-Serif" font-size="10.00">+ Diagnostics()</text>
<text text-anchor="start" x="8" y="-18.5" font-family="Helvetica,sans-Serif" font-size="10.00">+ ~Diagnostics()</text>
<text text-anchor="start" x="8" y="-7.5" font-family="Helvetica,sans-Serif" font-size="10.00">+ decode()</text>
</g>
<!-- Node2 -->
<g id="node2" class="node"><title>Node2</title>
<g id="a_node2"><a xlink:href="classDecoderBase.html" target="_top" xlink:title="{DecoderBase\n||}">
<polygon fill="none" stroke="black" points="29,-193.5 29,-250.5 105,-250.5 105,-193.5 29,-193.5"/>
<text text-anchor="middle" x="67" y="-238.5" font-family="Helvetica,sans-Serif" font-size="10.00">DecoderBase</text>
<polyline fill="none" stroke="black" points="29,-231.5 105,-231.5 "/>
<text text-anchor="middle" x="67" y="-219.5" font-family="Helvetica,sans-Serif" font-size="10.00"> </text>
<polyline fill="none" stroke="black" points="29,-212.5 105,-212.5 "/>
<text text-anchor="middle" x="67" y="-200.5" font-family="Helvetica,sans-Serif" font-size="10.00"> </text>
</a>
</g>
</g>
<!-- Node2&#45;&gt;Node1 -->
<g id="edge1" class="edge"><title>Node2&#45;&gt;Node1</title>
<path fill="none" stroke="midnightblue" d="M67,-183.34C67,-175.044 67,-165.964 67,-156.736"/>
<polygon fill="none" stroke="midnightblue" points="63.5001,-183.381 67,-193.381 70.5001,-183.382 63.5001,-183.381"/>
</g>
</g>
</svg>
