<?xml version="1.0" encoding="UTF-8" standalone="no"?>
<!DOCTYPE svg PUBLIC "-//W3C//DTD SVG 1.1//EN"
 "http://www.w3.org/Graphics/SVG/1.1/DTD/svg11.dtd">
<!-- Generated by graphviz version 2.38.0 (20140413.2041)
 -->
<!-- Title: DecoderBase Pages: 1 -->
<svg width="354pt" height="259pt"
 viewBox="0.00 0.00 354.00 259.00" xmlns="http://www.w3.org/2000/svg" xmlns:xlink="http://www.w3.org/1999/xlink">
<g id="graph0" class="graph" transform="scale(1 1) rotate(0) translate(4 255)">
<title>DecoderBase</title>
<!-- Node1 -->
<g id="node1" class="node"><title>Node1</title>
<polygon fill="#bfbfbf" stroke="black" points="120,-193.5 120,-250.5 196,-250.5 196,-193.5 120,-193.5"/>
<text text-anchor="middle" x="158" y="-238.5" font-family="Helvetica,sans-Serif" font-size="10.00">DecoderBase</text>
<polyline fill="none" stroke="black" points="120,-231.5 196,-231.5 "/>
<text text-anchor="middle" x="158" y="-219.5" font-family="Helvetica,sans-Serif" font-size="10.00"> </text>
<polyline fill="none" stroke="black" points="120,-212.5 196,-212.5 "/>
<text text-anchor="middle" x="158" y="-200.5" font-family="Helvetica,sans-Serif" font-size="10.00"> </text>
</g>
<!-- Node2 -->
<g id="node2" class="node"><title>Node2</title>
<g id="a_node2"><a xlink:href="classo2_1_1quality__control__modules_1_1tof_1_1Diagnostics.html" target="_top" xlink:title="TOF Quality Control class for Decoding Compressed data for TOF Compressed data QC Task...">
<polygon fill="none" stroke="black" points="0,-0.5 0,-156.5 134,-156.5 134,-0.5 0,-0.5"/>
<text text-anchor="start" x="8" y="-144.5" font-family="Helvetica,sans-Serif" font-size="10.00">o2::quality_control</text>
<text text-anchor="middle" x="67" y="-133.5" font-family="Helvetica,sans-Serif" font-size="10.00">_modules::tof::Diagnostics</text>
<polyline fill="none" stroke="black" points="0,-126.5 134,-126.5 "/>
<text text-anchor="start" x="8" y="-114.5" font-family="Helvetica,sans-Serif" font-size="10.00">+ mRDHCounter</text>
<text text-anchor="start" x="8" y="-103.5" font-family="Helvetica,sans-Serif" font-size="10.00">+ mDRMCounter</text>
<text text-anchor="start" x="8" y="-92.5" font-family="Helvetica,sans-Serif" font-size="10.00">+ mTRMCounter</text>
<text text-anchor="start" x="8" y="-81.5" font-family="Helvetica,sans-Serif" font-size="10.00">+ mTRMChainCounter</text>
<text text-anchor="start" x="8" y="-70.5" font-family="Helvetica,sans-Serif" font-size="10.00">+ ncrates</text>
<text text-anchor="start" x="8" y="-59.5" font-family="Helvetica,sans-Serif" font-size="10.00">+ ntrms</text>
<text text-anchor="start" x="8" y="-48.5" font-family="Helvetica,sans-Serif" font-size="10.00">+ ntrmschains</text>
<polyline fill="none" stroke="black" points="0,-41.5 134,-41.5 "/>
<text text-anchor="start" x="8" y="-29.5" font-family="Helvetica,sans-Serif" font-size="10.00">+ Diagnostics()</text>
<text text-anchor="start" x="8" y="-18.5" font-family="Helvetica,sans-Serif" font-size="10.00">+ ~Diagnostics()</text>
<text text-anchor="start" x="8" y="-7.5" font-family="Helvetica,sans-Serif" font-size="10.00">+ decode()</text>
</a>
</g>
</g>
<!-- Node1&#45;&gt;Node2 -->
<g id="edge1" class="edge"><title>Node1&#45;&gt;Node2</title>
<path fill="none" stroke="midnightblue" d="M134.665,-184.715C129.094,-176.052 122.936,-166.477 116.671,-156.736"/>
<polygon fill="none" stroke="midnightblue" points="131.885,-186.864 140.238,-193.381 137.773,-183.077 131.885,-186.864"/>
</g>
<!-- Node3 -->
<g id="node3" class="node"><title>Node3</title>
<g id="a_node3"><a xlink:href="classo2_1_1quality__control__modules_1_1tof_1_1TOFDecoderCompressed.html" target="_top" xlink:title="TOF Quality Control class for Decoding Compressed data for TOF Compressed data QC Task...">
<polygon fill="none" stroke="black" points="152,-28 152,-129 346,-129 346,-28 152,-28"/>
<text text-anchor="start" x="160" y="-117" font-family="Helvetica,sans-Serif" font-size="10.00">o2::quality_control</text>
<text text-anchor="middle" x="249" y="-106" font-family="Helvetica,sans-Serif" font-size="10.00">_modules::tof::TOFDecoderCompressed</text>
<polyline fill="none" stroke="black" points="152,-99 346,-99 "/>
<text text-anchor="start" x="160" y="-87" font-family="Helvetica,sans-Serif" font-size="10.00">+ mHistos</text>
<text text-anchor="start" x="160" y="-76" font-family="Helvetica,sans-Serif" font-size="10.00">+ rdhread</text>
<polyline fill="none" stroke="black" points="152,-69 346,-69 "/>
<text text-anchor="start" x="160" y="-57" font-family="Helvetica,sans-Serif" font-size="10.00">+ TOFDecoderCompressed()</text>
<text text-anchor="start" x="160" y="-46" font-family="Helvetica,sans-Serif" font-size="10.00">+ ~TOFDecoderCompressed()</text>
<text text-anchor="start" x="160" y="-35" font-family="Helvetica,sans-Serif" font-size="10.00">+ decode()</text>
</a>
</g>
</g>
<!-- Node1&#45;&gt;Node3 -->
<g id="edge2" class="edge"><title>Node1&#45;&gt;Node3</title>
<path fill="none" stroke="midnightblue" d="M181.235,-184.871C192.131,-167.928 205.288,-147.469 217.099,-129.104"/>
<polygon fill="none" stroke="midnightblue" points="178.227,-183.077 175.762,-193.381 184.115,-186.864 178.227,-183.077"/>
</g>
</g>
</svg>
