<?xml version="1.0" encoding="UTF-8" standalone="no"?>
<!DOCTYPE svg PUBLIC "-//W3C//DTD SVG 1.1//EN"
 "http://www.w3.org/Graphics/SVG/1.1/DTD/svg11.dtd">
<!-- Generated by graphviz version 2.38.0 (20140413.2041)
 -->
<!-- Title: Framework/src/DatabaseFactory.cxx Pages: 1 -->
<svg width="912pt" height="308pt"
 viewBox="0.00 0.00 911.50 308.00" xmlns="http://www.w3.org/2000/svg" xmlns:xlink="http://www.w3.org/1999/xlink">
<g id="graph0" class="graph" transform="scale(1 1) rotate(0) translate(4 304)">
<title>Framework/src/DatabaseFactory.cxx</title>
<!-- Node1 -->
<g id="node1" class="node"><title>Node1</title>
<polygon fill="#bfbfbf" stroke="black" points="380.5,-280.5 380.5,-299.5 559.5,-299.5 559.5,-280.5 380.5,-280.5"/>
<text text-anchor="middle" x="470" y="-287.5" font-family="Helvetica,sans-Serif" font-size="10.00">Framework/src/DatabaseFactory.cxx</text>
</g>
<!-- Node2 -->
<g id="node2" class="node"><title>Node2</title>
<g id="a_node2"><a xlink:href="CcdbDatabase_8h.html" target="_top" xlink:title="QualityControl/CcdbDatabase.h">
<polygon fill="none" stroke="black" points="213.5,-224.5 213.5,-243.5 368.5,-243.5 368.5,-224.5 213.5,-224.5"/>
<text text-anchor="middle" x="291" y="-231.5" font-family="Helvetica,sans-Serif" font-size="10.00">QualityControl/CcdbDatabase.h</text>
</a>
</g>
</g>
<!-- Node1&#45;&gt;Node2 -->
<g id="edge1" class="edge"><title>Node1&#45;&gt;Node2</title>
<path fill="none" stroke="midnightblue" d="M441.637,-280.444C411.262,-271.28 362.89,-256.688 329.184,-246.519"/>
<polygon fill="midnightblue" stroke="midnightblue" points="329.815,-243.054 319.23,-243.516 327.793,-249.756 329.815,-243.054"/>
</g>
<!-- Node13 -->
<g id="node13" class="node"><title>Node13</title>
<polygon fill="none" stroke="#bfbfbf" points="0,-56.5 0,-75.5 116,-75.5 116,-56.5 0,-56.5"/>
<text text-anchor="middle" x="58" y="-63.5" font-family="Helvetica,sans-Serif" font-size="10.00">Common/Exceptions.h</text>
</g>
<!-- Node1&#45;&gt;Node13 -->
<g id="edge22" class="edge"><title>Node1&#45;&gt;Node13</title>
<path fill="none" stroke="midnightblue" d="M380.44,-287.863C326.58,-283.872 258.197,-272.762 204,-244 134.529,-207.132 85.3733,-121.85 66.519,-84.7619"/>
<polygon fill="midnightblue" stroke="midnightblue" points="69.5861,-83.0685 62.0129,-75.6593 63.3127,-86.1741 69.5861,-83.0685"/>
</g>
<!-- Node17 -->
<g id="node17" class="node"><title>Node17</title>
<g id="a_node17"><a xlink:href="DummyDatabase_8h.html" target="_top" xlink:title="QualityControl/DummyDatabase.h">
<polygon fill="none" stroke="black" points="386.5,-224.5 386.5,-243.5 553.5,-243.5 553.5,-224.5 386.5,-224.5"/>
<text text-anchor="middle" x="470" y="-231.5" font-family="Helvetica,sans-Serif" font-size="10.00">QualityControl/DummyDatabase.h</text>
</a>
</g>
</g>
<!-- Node1&#45;&gt;Node17 -->
<g id="edge23" class="edge"><title>Node1&#45;&gt;Node17</title>
<path fill="none" stroke="midnightblue" d="M470,-280.083C470,-273.006 470,-262.861 470,-253.986"/>
<polygon fill="midnightblue" stroke="midnightblue" points="473.5,-253.751 470,-243.751 466.5,-253.751 473.5,-253.751"/>
</g>
<!-- Node18 -->
<g id="node18" class="node"><title>Node18</title>
<g id="a_node18"><a xlink:href="DatabaseFactory_8h.html" target="_top" xlink:title="QualityControl/DatabaseFactory.h">
<polygon fill="none" stroke="black" points="571.5,-224.5 571.5,-243.5 736.5,-243.5 736.5,-224.5 571.5,-224.5"/>
<text text-anchor="middle" x="654" y="-231.5" font-family="Helvetica,sans-Serif" font-size="10.00">QualityControl/DatabaseFactory.h</text>
</a>
</g>
</g>
<!-- Node1&#45;&gt;Node18 -->
<g id="edge25" class="edge"><title>Node1&#45;&gt;Node18</title>
<path fill="none" stroke="midnightblue" d="M499.155,-280.444C530.513,-271.241 580.531,-256.562 615.197,-246.388"/>
<polygon fill="midnightblue" stroke="midnightblue" points="616.371,-249.691 624.981,-243.516 614.4,-242.974 616.371,-249.691"/>
</g>
<!-- Node19 -->
<g id="node19" class="node"><title>Node19</title>
<g id="a_node19"><a xlink:href="QcInfoLogger_8h.html" target="_top" xlink:title="QualityControl/QcInfoLogger.h">
<polygon fill="none" stroke="black" points="754.5,-224.5 754.5,-243.5 903.5,-243.5 903.5,-224.5 754.5,-224.5"/>
<text text-anchor="middle" x="829" y="-231.5" font-family="Helvetica,sans-Serif" font-size="10.00">QualityControl/QcInfoLogger.h</text>
</a>
</g>
</g>
<!-- Node1&#45;&gt;Node19 -->
<g id="edge28" class="edge"><title>Node1&#45;&gt;Node19</title>
<path fill="none" stroke="midnightblue" d="M526.885,-280.444C590.824,-270.826 694.524,-255.228 762.247,-245.041"/>
<polygon fill="midnightblue" stroke="midnightblue" points="763.013,-248.465 772.382,-243.516 761.972,-241.543 763.013,-248.465"/>
</g>
<!-- Node3 -->
<g id="node3" class="node"><title>Node3</title>
<polygon fill="none" stroke="#bfbfbf" points="243.5,-168.5 243.5,-187.5 338.5,-187.5 338.5,-168.5 243.5,-168.5"/>
<text text-anchor="middle" x="291" y="-175.5" font-family="Helvetica,sans-Serif" font-size="10.00">CCDB/CcdbApi.h</text>
</g>
<!-- Node2&#45;&gt;Node3 -->
<g id="edge2" class="edge"><title>Node2&#45;&gt;Node3</title>
<path fill="none" stroke="midnightblue" d="M291,-224.083C291,-217.006 291,-206.861 291,-197.986"/>
<polygon fill="midnightblue" stroke="midnightblue" points="294.5,-197.751 291,-187.751 287.5,-197.751 294.5,-197.751"/>
</g>
<!-- Node4 -->
<g id="node4" class="node"><title>Node4</title>
<g id="a_node4"><a xlink:href="DatabaseInterface_8h.html" target="_top" xlink:title="QualityControl/DatabaseInterface.h">
<polygon fill="none" stroke="black" points="385,-168.5 385,-187.5 555,-187.5 555,-168.5 385,-168.5"/>
<text text-anchor="middle" x="470" y="-175.5" font-family="Helvetica,sans-Serif" font-size="10.00">QualityControl/DatabaseInterface.h</text>
</a>
</g>
</g>
<!-- Node2&#45;&gt;Node4 -->
<g id="edge3" class="edge"><title>Node2&#45;&gt;Node4</title>
<path fill="none" stroke="midnightblue" d="M319.363,-224.444C349.738,-215.28 398.11,-200.688 431.816,-190.519"/>
<polygon fill="midnightblue" stroke="midnightblue" points="433.207,-193.756 441.77,-187.516 431.185,-187.054 433.207,-193.756"/>
</g>
<!-- Node5 -->
<g id="node5" class="node"><title>Node5</title>
<polygon fill="none" stroke="#bfbfbf" points="453.5,-0.5 453.5,-19.5 494.5,-19.5 494.5,-0.5 453.5,-0.5"/>
<text text-anchor="middle" x="474" y="-7.5" font-family="Helvetica,sans-Serif" font-size="10.00">string</text>
</g>
<!-- Node4&#45;&gt;Node5 -->
<g id="edge4" class="edge"><title>Node4&#45;&gt;Node5</title>
<path fill="none" stroke="midnightblue" d="M489.775,-168.375C504.415,-160.919 523.561,-148.701 534,-132 547.362,-110.624 540.994,-101.128 543,-76 543.707,-67.1393 547.234,-63.8158 543,-56 534.674,-40.6299 518.57,-29.6786 504.012,-22.4303"/>
<polygon fill="midnightblue" stroke="midnightblue" points="505.315,-19.1776 494.767,-18.1927 502.399,-25.5411 505.315,-19.1776"/>
</g>
<!-- Node6 -->
<g id="node6" class="node"><title>Node6</title>
<polygon fill="none" stroke="#bfbfbf" points="648,-112.5 648,-131.5 700,-131.5 700,-112.5 648,-112.5"/>
<text text-anchor="middle" x="674" y="-119.5" font-family="Helvetica,sans-Serif" font-size="10.00">memory</text>
</g>
<!-- Node4&#45;&gt;Node6 -->
<g id="edge5" class="edge"><title>Node4&#45;&gt;Node6</title>
<path fill="none" stroke="midnightblue" d="M502.324,-168.444C539.349,-158.643 599.835,-142.632 638.242,-132.465"/>
<polygon fill="midnightblue" stroke="midnightblue" points="639.205,-135.831 647.976,-129.889 637.414,-129.064 639.205,-135.831"/>
</g>
<!-- Node7 -->
<g id="node7" class="node"><title>Node7</title>
<polygon fill="none" stroke="#bfbfbf" points="586,-112.5 586,-131.5 630,-131.5 630,-112.5 586,-112.5"/>
<text text-anchor="middle" x="608" y="-119.5" font-family="Helvetica,sans-Serif" font-size="10.00">vector</text>
</g>
<!-- Node4&#45;&gt;Node7 -->
<g id="edge6" class="edge"><title>Node4&#45;&gt;Node7</title>
<path fill="none" stroke="midnightblue" d="M491.867,-168.444C514.779,-159.478 550.975,-145.314 576.866,-135.183"/>
<polygon fill="midnightblue" stroke="midnightblue" points="578.199,-138.42 586.236,-131.516 575.648,-131.901 578.199,-138.42"/>
</g>
<!-- Node8 -->
<g id="node8" class="node"><title>Node8</title>
<polygon fill="none" stroke="#bfbfbf" points="275.5,-112.5 275.5,-131.5 358.5,-131.5 358.5,-112.5 275.5,-112.5"/>
<text text-anchor="middle" x="317" y="-119.5" font-family="Helvetica,sans-Serif" font-size="10.00">unordered_map</text>
</g>
<!-- Node4&#45;&gt;Node8 -->
<g id="edge7" class="edge"><title>Node4&#45;&gt;Node8</title>
<path fill="none" stroke="midnightblue" d="M445.757,-168.444C420.129,-159.399 379.515,-145.064 350.762,-134.916"/>
<polygon fill="midnightblue" stroke="midnightblue" points="351.725,-131.544 341.13,-131.516 349.395,-138.145 351.725,-131.544"/>
</g>
<!-- Node9 -->
<g id="node9" class="node"><title>Node9</title>
<g id="a_node9"><a xlink:href="QualityObject_8h_source.html" target="_top" xlink:title="QualityControl/QualityObject.h">
<polygon fill="none" stroke="black" points="376.5,-112.5 376.5,-131.5 525.5,-131.5 525.5,-112.5 376.5,-112.5"/>
<text text-anchor="middle" x="451" y="-119.5" font-family="Helvetica,sans-Serif" font-size="10.00">QualityControl/QualityObject.h</text>
</a>
</g>
</g>
<!-- Node4&#45;&gt;Node9 -->
<g id="edge8" class="edge"><title>Node4&#45;&gt;Node9</title>
<path fill="none" stroke="midnightblue" d="M466.863,-168.083C464.317,-160.849 460.644,-150.409 457.473,-141.397"/>
<polygon fill="midnightblue" stroke="midnightblue" points="460.7,-140.023 454.079,-131.751 454.097,-142.346 460.7,-140.023"/>
</g>
<!-- Node16 -->
<g id="node16" class="node"><title>Node16</title>
<g id="a_node16"><a xlink:href="MonitorObject_8h.html" target="_top" xlink:title="QualityControl/MonitorObject.h">
<polygon fill="none" stroke="black" points="106.5,-112.5 106.5,-131.5 257.5,-131.5 257.5,-112.5 106.5,-112.5"/>
<text text-anchor="middle" x="182" y="-119.5" font-family="Helvetica,sans-Serif" font-size="10.00">QualityControl/MonitorObject.h</text>
</a>
</g>
</g>
<!-- Node4&#45;&gt;Node16 -->
<g id="edge16" class="edge"><title>Node4&#45;&gt;Node16</title>
<path fill="none" stroke="midnightblue" d="M424.366,-168.444C373.703,-158.944 291.925,-143.611 237.572,-133.42"/>
<polygon fill="midnightblue" stroke="midnightblue" points="237.895,-129.919 227.421,-131.516 236.605,-136.799 237.895,-129.919"/>
</g>
<!-- Node10 -->
<g id="node10" class="node"><title>Node10</title>
<polygon fill="none" stroke="#bfbfbf" points="341,-56.5 341,-75.5 395,-75.5 395,-56.5 341,-56.5"/>
<text text-anchor="middle" x="368" y="-63.5" font-family="Helvetica,sans-Serif" font-size="10.00">iostream</text>
</g>
<!-- Node9&#45;&gt;Node10 -->
<g id="edge9" class="edge"><title>Node9&#45;&gt;Node10</title>
<path fill="none" stroke="midnightblue" d="M437.665,-112.324C424.838,-103.979 405.215,-91.2122 390.06,-81.3524"/>
<polygon fill="midnightblue" stroke="midnightblue" points="391.593,-78.1742 381.302,-75.6545 387.776,-84.0417 391.593,-78.1742"/>
</g>
<!-- Node11 -->
<g id="node11" class="node"><title>Node11</title>
<polygon fill="none" stroke="#bfbfbf" points="287.5,-56.5 287.5,-75.5 322.5,-75.5 322.5,-56.5 287.5,-56.5"/>
<text text-anchor="middle" x="305" y="-63.5" font-family="Helvetica,sans-Serif" font-size="10.00">map</text>
</g>
<!-- Node9&#45;&gt;Node11 -->
<g id="edge10" class="edge"><title>Node9&#45;&gt;Node11</title>
<path fill="none" stroke="midnightblue" d="M427.866,-112.444C401.799,-102.802 359.483,-87.1514 331.946,-76.9664"/>
<polygon fill="midnightblue" stroke="midnightblue" points="333.12,-73.669 322.527,-73.4826 330.692,-80.2343 333.12,-73.669"/>
</g>
<!-- Node12 -->
<g id="node12" class="node"><title>Node12</title>
<polygon fill="none" stroke="#bfbfbf" points="210.5,-56.5 210.5,-75.5 269.5,-75.5 269.5,-56.5 210.5,-56.5"/>
<text text-anchor="middle" x="240" y="-63.5" font-family="Helvetica,sans-Serif" font-size="10.00">TObject.h</text>
</g>
<!-- Node9&#45;&gt;Node12 -->
<g id="edge11" class="edge"><title>Node9&#45;&gt;Node12</title>
<path fill="none" stroke="midnightblue" d="M417.566,-112.444C380.045,-102.841 319.228,-87.2763 279.421,-77.0887"/>
<polygon fill="midnightblue" stroke="midnightblue" points="280.088,-73.6467 269.532,-74.558 278.352,-80.4281 280.088,-73.6467"/>
</g>
<!-- Node9&#45;&gt;Node13 -->
<g id="edge12" class="edge"><title>Node9&#45;&gt;Node13</title>
<path fill="none" stroke="midnightblue" d="M388.728,-112.444C317.205,-102.616 200.235,-86.5438 126.278,-76.3817"/>
<polygon fill="midnightblue" stroke="midnightblue" points="126.521,-72.8822 116.137,-74.9883 125.568,-79.8171 126.521,-72.8822"/>
</g>
<!-- Node14 -->
<g id="node14" class="node"><title>Node14</title>
<g id="a_node14"><a xlink:href="Quality_8h.html" target="_top" xlink:title="QualityControl/Quality.h">
<polygon fill="none" stroke="black" points="413.5,-56.5 413.5,-75.5 534.5,-75.5 534.5,-56.5 413.5,-56.5"/>
<text text-anchor="middle" x="474" y="-63.5" font-family="Helvetica,sans-Serif" font-size="10.00">QualityControl/Quality.h</text>
</a>
</g>
</g>
<!-- Node9&#45;&gt;Node14 -->
<g id="edge13" class="edge"><title>Node9&#45;&gt;Node14</title>
<path fill="none" stroke="midnightblue" d="M454.798,-112.083C457.913,-104.77 462.423,-94.1814 466.289,-85.1034"/>
<polygon fill="midnightblue" stroke="midnightblue" points="469.574,-86.3229 470.273,-75.7511 463.134,-83.5798 469.574,-86.3229"/>
</g>
<!-- Node14&#45;&gt;Node5 -->
<g id="edge15" class="edge"><title>Node14&#45;&gt;Node5</title>
<path fill="none" stroke="midnightblue" d="M474,-56.083C474,-49.0059 474,-38.8611 474,-29.9865"/>
<polygon fill="midnightblue" stroke="midnightblue" points="477.5,-29.751 474,-19.7511 470.5,-29.7511 477.5,-29.751"/>
</g>
<!-- Node15 -->
<g id="node15" class="node"><title>Node15</title>
<polygon fill="none" stroke="#bfbfbf" points="248,-0.5 248,-19.5 304,-19.5 304,-0.5 248,-0.5"/>
<text text-anchor="middle" x="276" y="-7.5" font-family="Helvetica,sans-Serif" font-size="10.00">Rtypes.h</text>
</g>
<!-- Node14&#45;&gt;Node15 -->
<g id="edge14" class="edge"><title>Node14&#45;&gt;Node15</title>
<path fill="none" stroke="midnightblue" d="M442.626,-56.4435C407.741,-46.9293 351.395,-31.5622 314.028,-21.3713"/>
<polygon fill="midnightblue" stroke="midnightblue" points="314.594,-17.8979 304.026,-18.6433 312.752,-24.6512 314.594,-17.8979"/>
</g>
<!-- Node16&#45;&gt;Node5 -->
<g id="edge17" class="edge"><title>Node16&#45;&gt;Node5</title>
<path fill="none" stroke="midnightblue" d="M181.813,-112.33C182.018,-98.2425 184.63,-70.4996 201,-56 236.436,-24.6122 379.132,-14.8817 442.921,-12.0656"/>
<polygon fill="midnightblue" stroke="midnightblue" points="443.316,-15.5524 453.163,-11.6435 443.028,-8.55834 443.316,-15.5524"/>
</g>
<!-- Node16&#45;&gt;Node11 -->
<g id="edge18" class="edge"><title>Node16&#45;&gt;Node11</title>
<path fill="none" stroke="midnightblue" d="M201.49,-112.444C222.116,-103.388 254.82,-89.0302 277.94,-78.8799"/>
<polygon fill="midnightblue" stroke="midnightblue" points="279.449,-82.0398 287.199,-74.8151 276.636,-75.6303 279.449,-82.0398"/>
</g>
<!-- Node16&#45;&gt;Node12 -->
<g id="edge20" class="edge"><title>Node16&#45;&gt;Node12</title>
<path fill="none" stroke="midnightblue" d="M191.319,-112.324C199.893,-104.341 212.812,-92.3128 223.188,-82.6529"/>
<polygon fill="midnightblue" stroke="midnightblue" points="225.578,-85.2098 230.512,-75.8339 220.808,-80.0865 225.578,-85.2098"/>
</g>
<!-- Node16&#45;&gt;Node13 -->
<g id="edge21" class="edge"><title>Node16&#45;&gt;Node13</title>
<path fill="none" stroke="midnightblue" d="M162.352,-112.444C142.035,-103.596 110.097,-89.6875 86.9023,-79.5865"/>
<polygon fill="midnightblue" stroke="midnightblue" points="88.1221,-76.3002 77.5562,-75.5164 85.3271,-82.7181 88.1221,-76.3002"/>
</g>
<!-- Node16&#45;&gt;Node15 -->
<g id="edge19" class="edge"><title>Node16&#45;&gt;Node15</title>
<path fill="none" stroke="midnightblue" d="M176.246,-112.228C168.339,-98.9591 156.346,-73.4807 168,-56 183.479,-32.7822 213.445,-21.5244 237.893,-16.0765"/>
<polygon fill="midnightblue" stroke="midnightblue" points="238.845,-19.456 247.974,-14.0795 237.485,-12.5894 238.845,-19.456"/>
</g>
<!-- Node17&#45;&gt;Node4 -->
<g id="edge24" class="edge"><title>Node17&#45;&gt;Node4</title>
<path fill="none" stroke="midnightblue" d="M470,-224.083C470,-217.006 470,-206.861 470,-197.986"/>
<polygon fill="midnightblue" stroke="midnightblue" points="473.5,-197.751 470,-187.751 466.5,-197.751 473.5,-197.751"/>
</g>
<!-- Node18&#45;&gt;Node4 -->
<g id="edge27" class="edge"><title>Node18&#45;&gt;Node4</title>
<path fill="none" stroke="midnightblue" d="M624.845,-224.444C593.487,-215.241 543.469,-200.562 508.803,-190.388"/>
<polygon fill="midnightblue" stroke="midnightblue" points="509.6,-186.974 499.019,-187.516 507.629,-193.691 509.6,-186.974"/>
</g>
<!-- Node18&#45;&gt;Node6 -->
<g id="edge26" class="edge"><title>Node18&#45;&gt;Node6</title>
<path fill="none" stroke="midnightblue" d="M655.569,-224.368C658.797,-206.617 666.242,-165.666 670.619,-141.597"/>
<polygon fill="midnightblue" stroke="midnightblue" points="674.093,-142.056 672.438,-131.591 667.205,-140.804 674.093,-142.056"/>
</g>
<!-- Node20 -->
<g id="node20" class="node"><title>Node20</title>
<polygon fill="none" stroke="#bfbfbf" points="764,-168.5 764,-187.5 894,-187.5 894,-168.5 764,-168.5"/>
<text text-anchor="middle" x="829" y="-175.5" font-family="Helvetica,sans-Serif" font-size="10.00">InfoLogger/InfoLogger.hxx</text>
</g>
<!-- Node19&#45;&gt;Node20 -->
<g id="edge29" class="edge"><title>Node19&#45;&gt;Node20</title>
<path fill="none" stroke="midnightblue" d="M829,-224.083C829,-217.006 829,-206.861 829,-197.986"/>
<polygon fill="midnightblue" stroke="midnightblue" points="832.5,-197.751 829,-187.751 825.5,-197.751 832.5,-197.751"/>
</g>
</g>
</svg>
