<?xml version="1.0" encoding="UTF-8" standalone="no"?>
<!DOCTYPE svg PUBLIC "-//W3C//DTD SVG 1.1//EN"
 "http://www.w3.org/Graphics/SVG/1.1/DTD/svg11.dtd">
<!-- Generated by graphviz version 2.38.0 (20140413.2041)
 -->
<!-- Title: Framework/include/QualityControl/DatabaseInterface.h Pages: 1 -->
<svg width="4539pt" height="173pt"
 viewBox="0.00 0.00 4539.00 173.00" xmlns="http://www.w3.org/2000/svg" xmlns:xlink="http://www.w3.org/1999/xlink">
<g id="graph0" class="graph" transform="scale(1 1) rotate(0) translate(4 169)">
<title>Framework/include/QualityControl/DatabaseInterface.h</title>
<!-- Node1 -->
<g id="node1" class="node"><title>Node1</title>
<polygon fill="#bfbfbf" stroke="black" points="2448,-134.5 2448,-164.5 2588,-164.5 2588,-134.5 2448,-134.5"/>
<text text-anchor="start" x="2456" y="-152.5" font-family="Helvetica,sans-Serif" font-size="10.00">Framework/include/Quality</text>
<text text-anchor="middle" x="2518" y="-141.5" font-family="Helvetica,sans-Serif" font-size="10.00">Control/DatabaseInterface.h</text>
</g>
<!-- Node2 -->
<g id="node2" class="node"><title>Node2</title>
<g id="a_node2"><a xlink:href="CcdbDatabase_8h.html" target="_top" xlink:title="Framework/include/Quality\lControl/CcdbDatabase.h">
<polygon fill="none" stroke="black" points="771.5,-67.5 771.5,-97.5 904.5,-97.5 904.5,-67.5 771.5,-67.5"/>
<text text-anchor="start" x="779.5" y="-85.5" font-family="Helvetica,sans-Serif" font-size="10.00">Framework/include/Quality</text>
<text text-anchor="middle" x="838" y="-74.5" font-family="Helvetica,sans-Serif" font-size="10.00">Control/CcdbDatabase.h</text>
</a>
</g>
</g>
<!-- Node1&#45;&gt;Node2 -->
<g id="edge1" class="edge"><title>Node1&#45;&gt;Node2</title>
<path fill="none" stroke="midnightblue" d="M2437.97,-145.75C2228.12,-138.49 1644.67,-117.992 1159,-98 1071.07,-94.3805 969.62,-89.7158 904.698,-86.6685"/>
<polygon fill="midnightblue" stroke="midnightblue" points="2437.86,-149.248 2447.97,-146.096 2438.1,-142.252 2437.86,-149.248"/>
</g>
<!-- Node8 -->
<g id="node8" class="node"><title>Node8</title>
<g id="a_node8"><a xlink:href="CheckRunner_8h.html" target="_top" xlink:title="Framework/include/Quality\lControl/CheckRunner.h">
<polygon fill="none" stroke="black" points="2332.5,-67.5 2332.5,-97.5 2465.5,-97.5 2465.5,-67.5 2332.5,-67.5"/>
<text text-anchor="start" x="2340.5" y="-85.5" font-family="Helvetica,sans-Serif" font-size="10.00">Framework/include/Quality</text>
<text text-anchor="middle" x="2399" y="-74.5" font-family="Helvetica,sans-Serif" font-size="10.00">Control/CheckRunner.h</text>
</a>
</g>
</g>
<!-- Node1&#45;&gt;Node8 -->
<g id="edge7" class="edge"><title>Node1&#45;&gt;Node8</title>
<path fill="none" stroke="midnightblue" d="M2483.35,-129.575C2464.63,-119.35 2441.91,-106.94 2424.77,-97.5765"/>
<polygon fill="midnightblue" stroke="midnightblue" points="2481.72,-132.674 2492.18,-134.396 2485.08,-126.531 2481.72,-132.674"/>
</g>
<!-- Node20 -->
<g id="node20" class="node"><title>Node20</title>
<g id="a_node20"><a xlink:href="DatabaseFactory_8h.html" target="_top" xlink:title="Framework/include/Quality\lControl/DatabaseFactory.h">
<polygon fill="none" stroke="black" points="1168,-67.5 1168,-97.5 1302,-97.5 1302,-67.5 1168,-67.5"/>
<text text-anchor="start" x="1176" y="-85.5" font-family="Helvetica,sans-Serif" font-size="10.00">Framework/include/Quality</text>
<text text-anchor="middle" x="1235" y="-74.5" font-family="Helvetica,sans-Serif" font-size="10.00">Control/DatabaseFactory.h</text>
</a>
</g>
</g>
<!-- Node1&#45;&gt;Node20 -->
<g id="edge19" class="edge"><title>Node1&#45;&gt;Node20</title>
<path fill="none" stroke="midnightblue" d="M2437.46,-144.42C2202.26,-132.504 1519.35,-97.906 1302.16,-86.9024"/>
<polygon fill="midnightblue" stroke="midnightblue" points="2437.49,-147.925 2447.65,-144.936 2437.84,-140.934 2437.49,-147.925"/>
</g>
<!-- Node24 -->
<g id="node24" class="node"><title>Node24</title>
<g id="a_node24"><a xlink:href="DummyDatabase_8h.html" target="_top" xlink:title="Framework/include/Quality\lControl/DummyDatabase.h">
<polygon fill="none" stroke="black" points="410,-67.5 410,-97.5 546,-97.5 546,-67.5 410,-67.5"/>
<text text-anchor="start" x="418" y="-85.5" font-family="Helvetica,sans-Serif" font-size="10.00">Framework/include/Quality</text>
<text text-anchor="middle" x="478" y="-74.5" font-family="Helvetica,sans-Serif" font-size="10.00">Control/DummyDatabase.h</text>
</a>
</g>
</g>
<!-- Node1&#45;&gt;Node24 -->
<g id="edge28" class="edge"><title>Node1&#45;&gt;Node24</title>
<path fill="none" stroke="midnightblue" d="M2437.68,-146.827C2188.78,-141.504 1408.24,-123.787 762,-98 688.251,-95.0572 603.784,-90.6065 546.268,-87.4126"/>
<polygon fill="midnightblue" stroke="midnightblue" points="2437.65,-150.327 2447.72,-147.041 2437.8,-143.328 2437.65,-150.327"/>
</g>
<!-- Node26 -->
<g id="node26" class="node"><title>Node26</title>
<g id="a_node26"><a xlink:href="MySqlDatabase_8h.html" target="_top" xlink:title="Framework/include/Quality\lControl/MySqlDatabase.h">
<polygon fill="none" stroke="black" points="2571.5,-67.5 2571.5,-97.5 2704.5,-97.5 2704.5,-67.5 2571.5,-67.5"/>
<text text-anchor="start" x="2579.5" y="-85.5" font-family="Helvetica,sans-Serif" font-size="10.00">Framework/include/Quality</text>
<text text-anchor="middle" x="2638" y="-74.5" font-family="Helvetica,sans-Serif" font-size="10.00">Control/MySqlDatabase.h</text>
</a>
</g>
</g>
<!-- Node1&#45;&gt;Node26 -->
<g id="edge32" class="edge"><title>Node1&#45;&gt;Node26</title>
<path fill="none" stroke="midnightblue" d="M2552.94,-129.575C2571.82,-119.35 2594.73,-106.94 2612.01,-97.5765"/>
<polygon fill="midnightblue" stroke="midnightblue" points="2551.16,-126.556 2544.04,-134.396 2554.5,-132.711 2551.16,-126.556"/>
</g>
<!-- Node28 -->
<g id="node28" class="node"><title>Node28</title>
<g id="a_node28"><a xlink:href="PostProcessingRunner_8h.html" target="_top" xlink:title="Framework/include/Quality\lControl/PostProcessingRunner.h">
<polygon fill="none" stroke="black" points="2768,-67.5 2768,-97.5 2928,-97.5 2928,-67.5 2768,-67.5"/>
<text text-anchor="start" x="2776" y="-85.5" font-family="Helvetica,sans-Serif" font-size="10.00">Framework/include/Quality</text>
<text text-anchor="middle" x="2848" y="-74.5" font-family="Helvetica,sans-Serif" font-size="10.00">Control/PostProcessingRunner.h</text>
</a>
</g>
</g>
<!-- Node1&#45;&gt;Node28 -->
<g id="edge34" class="edge"><title>Node1&#45;&gt;Node28</title>
<path fill="none" stroke="midnightblue" d="M2598.37,-132.67C2652.92,-121.926 2724.38,-107.849 2776.87,-97.5111"/>
<polygon fill="midnightblue" stroke="midnightblue" points="2597.52,-129.269 2588.39,-134.636 2598.88,-136.137 2597.52,-129.269"/>
</g>
<!-- Node32 -->
<g id="node32" class="node"><title>Node32</title>
<g id="a_node32"><a xlink:href="RepositoryBenchmark_8h.html" target="_top" xlink:title="Framework/src/Repository\lBenchmark.h">
<polygon fill="none" stroke="black" points="2946,-67.5 2946,-97.5 3078,-97.5 3078,-67.5 2946,-67.5"/>
<text text-anchor="start" x="2954" y="-85.5" font-family="Helvetica,sans-Serif" font-size="10.00">Framework/src/Repository</text>
<text text-anchor="middle" x="3012" y="-74.5" font-family="Helvetica,sans-Serif" font-size="10.00">Benchmark.h</text>
</a>
</g>
</g>
<!-- Node1&#45;&gt;Node32 -->
<g id="edge39" class="edge"><title>Node1&#45;&gt;Node32</title>
<path fill="none" stroke="midnightblue" d="M2598.31,-140.533C2682.83,-131.75 2819.62,-116.396 2937,-98 2939.88,-97.5482 2942.82,-97.067 2945.79,-96.5648"/>
<polygon fill="midnightblue" stroke="midnightblue" points="2597.86,-137.062 2588.27,-141.572 2598.58,-144.025 2597.86,-137.062"/>
</g>
<!-- Node34 -->
<g id="node34" class="node"><title>Node34</title>
<g id="a_node34"><a xlink:href="TrendingTask_8cxx.html" target="_top" xlink:title="Framework/src/TrendingTask.cxx">
<polygon fill="none" stroke="black" points="3096.5,-73 3096.5,-92 3259.5,-92 3259.5,-73 3096.5,-73"/>
<text text-anchor="middle" x="3178" y="-80" font-family="Helvetica,sans-Serif" font-size="10.00">Framework/src/TrendingTask.cxx</text>
</a>
</g>
</g>
<!-- Node1&#45;&gt;Node34 -->
<g id="edge42" class="edge"><title>Node1&#45;&gt;Node34</title>
<path fill="none" stroke="midnightblue" d="M2598.3,-143.14C2708.66,-135.37 2913.3,-119.521 3087,-98 3100.5,-96.328 3115.06,-94.1678 3128.5,-92.0279"/>
<polygon fill="midnightblue" stroke="midnightblue" points="2597.98,-139.654 2588.24,-143.844 2598.46,-146.637 2597.98,-139.654"/>
</g>
<!-- Node3 -->
<g id="node3" class="node"><title>Node3</title>
<g id="a_node3"><a xlink:href="CcdbDatabase_8cxx.html" target="_top" xlink:title="Framework/src/CcdbDatabase.cxx">
<polygon fill="none" stroke="black" points="395.5,-6 395.5,-25 564.5,-25 564.5,-6 395.5,-6"/>
<text text-anchor="middle" x="480" y="-13" font-family="Helvetica,sans-Serif" font-size="10.00">Framework/src/CcdbDatabase.cxx</text>
</a>
</g>
</g>
<!-- Node2&#45;&gt;Node3 -->
<g id="edge2" class="edge"><title>Node2&#45;&gt;Node3</title>
<path fill="none" stroke="midnightblue" d="M760.828,-67.4883C689.679,-54.5702 586.368,-35.8126 526.907,-25.0167"/>
<polygon fill="midnightblue" stroke="midnightblue" points="760.618,-71.0074 771.083,-69.3502 761.869,-64.12 760.618,-71.0074"/>
</g>
<!-- Node4 -->
<g id="node4" class="node"><title>Node4</title>
<g id="a_node4"><a xlink:href="DatabaseFactory_8cxx.html" target="_top" xlink:title="Framework/src/DatabaseFactory.cxx">
<polygon fill="none" stroke="black" points="198.5,-6 198.5,-25 377.5,-25 377.5,-6 198.5,-6"/>
<text text-anchor="middle" x="288" y="-13" font-family="Helvetica,sans-Serif" font-size="10.00">Framework/src/DatabaseFactory.cxx</text>
</a>
</g>
</g>
<!-- Node2&#45;&gt;Node4 -->
<g id="edge3" class="edge"><title>Node2&#45;&gt;Node4</title>
<path fill="none" stroke="midnightblue" d="M761.162,-73.7577C671.145,-64.4925 517.569,-48.0777 386,-31 372.099,-29.1957 357.117,-27.0706 343.15,-25.0119"/>
<polygon fill="midnightblue" stroke="midnightblue" points="760.976,-77.257 771.281,-74.7967 761.691,-70.2936 760.976,-77.257"/>
</g>
<!-- Node5 -->
<g id="node5" class="node"><title>Node5</title>
<g id="a_node5"><a xlink:href="testCcdbDatabase_8cxx.html" target="_top" xlink:title="Framework/test/testCcdbDatabase.cxx">
<polygon fill="none" stroke="black" points="958,-6 958,-25 1146,-25 1146,-6 958,-6"/>
<text text-anchor="middle" x="1052" y="-13" font-family="Helvetica,sans-Serif" font-size="10.00">Framework/test/testCcdbDatabase.cxx</text>
</a>
</g>
</g>
<!-- Node2&#45;&gt;Node5 -->
<g id="edge4" class="edge"><title>Node2&#45;&gt;Node5</title>
<path fill="none" stroke="midnightblue" d="M893.936,-64.5102C935.699,-51.8251 991.02,-35.0219 1023.92,-25.0287"/>
<polygon fill="midnightblue" stroke="midnightblue" points="892.722,-61.2207 884.171,-67.476 894.757,-67.9186 892.722,-61.2207"/>
</g>
<!-- Node6 -->
<g id="node6" class="node"><title>Node6</title>
<polygon fill="none" stroke="#bfbfbf" points="770,-0.5 770,-30.5 940,-30.5 940,-0.5 770,-0.5"/>
<text text-anchor="start" x="778" y="-18.5" font-family="Helvetica,sans-Serif" font-size="10.00">Framework/test/testCcdbDatabase</text>
<text text-anchor="middle" x="855" y="-7.5" font-family="Helvetica,sans-Serif" font-size="10.00">Extra.cxx</text>
</g>
<!-- Node2&#45;&gt;Node6 -->
<g id="edge5" class="edge"><title>Node2&#45;&gt;Node6</title>
<path fill="none" stroke="midnightblue" d="M844.225,-57.6971C846.608,-48.5871 849.248,-38.4929 851.318,-30.5765"/>
<polygon fill="midnightblue" stroke="midnightblue" points="840.833,-56.8358 841.689,-67.396 847.605,-58.607 840.833,-56.8358"/>
</g>
<!-- Node7 -->
<g id="node7" class="node"><title>Node7</title>
<g id="a_node7"><a xlink:href="testDbFactory_8cxx.html" target="_top" xlink:title="Framework/test/testDbFactory.cxx">
<polygon fill="none" stroke="black" points="582.5,-6 582.5,-25 751.5,-25 751.5,-6 582.5,-6"/>
<text text-anchor="middle" x="667" y="-13" font-family="Helvetica,sans-Serif" font-size="10.00">Framework/test/testDbFactory.cxx</text>
</a>
</g>
</g>
<!-- Node2&#45;&gt;Node7 -->
<g id="edge6" class="edge"><title>Node2&#45;&gt;Node7</title>
<path fill="none" stroke="midnightblue" d="M791.393,-63.7838C758.237,-51.1807 715.165,-34.8082 689.38,-25.007"/>
<polygon fill="midnightblue" stroke="midnightblue" points="790.304,-67.1144 800.896,-67.396 792.792,-60.5712 790.304,-67.1144"/>
</g>
<!-- Node9 -->
<g id="node9" class="node"><title>Node9</title>
<g id="a_node9"><a xlink:href="CheckRunner_8cxx.html" target="_top" xlink:title="Framework/src/CheckRunner.cxx">
<polygon fill="none" stroke="black" points="1324,-6 1324,-25 1488,-25 1488,-6 1324,-6"/>
<text text-anchor="middle" x="1406" y="-13" font-family="Helvetica,sans-Serif" font-size="10.00">Framework/src/CheckRunner.cxx</text>
</a>
</g>
</g>
<!-- Node8&#45;&gt;Node9 -->
<g id="edge8" class="edge"><title>Node8&#45;&gt;Node9</title>
<path fill="none" stroke="midnightblue" d="M2321.9,-79.8352C2165.8,-75.8801 1801.31,-63.6774 1497,-31 1482.84,-29.4798 1467.53,-27.2641 1453.58,-25.0202"/>
<polygon fill="midnightblue" stroke="midnightblue" points="2322.25,-83.3448 2332.33,-80.0949 2322.42,-76.3469 2322.25,-83.3448"/>
</g>
<!-- Node10 -->
<g id="node10" class="node"><title>Node10</title>
<g id="a_node10"><a xlink:href="CheckRunnerFactory_8cxx.html" target="_top" xlink:title="Framework/src/CheckRunner\lFactory.cxx">
<polygon fill="none" stroke="black" points="3450.5,-0.5 3450.5,-30.5 3595.5,-30.5 3595.5,-0.5 3450.5,-0.5"/>
<text text-anchor="start" x="3458.5" y="-18.5" font-family="Helvetica,sans-Serif" font-size="10.00">Framework/src/CheckRunner</text>
<text text-anchor="middle" x="3523" y="-7.5" font-family="Helvetica,sans-Serif" font-size="10.00">Factory.cxx</text>
</a>
</g>
</g>
<!-- Node8&#45;&gt;Node10 -->
<g id="edge9" class="edge"><title>Node8&#45;&gt;Node10</title>
<path fill="none" stroke="midnightblue" d="M2475.8,-73.9077C2503,-71.4197 2533.84,-68.8278 2562,-67 2952.17,-41.6703 3052.28,-73.1362 3441,-31 3444.02,-30.6728 3447.09,-30.3018 3450.2,-29.8962"/>
<polygon fill="midnightblue" stroke="midnightblue" points="2475.2,-70.4482 2465.56,-74.8544 2475.84,-77.4185 2475.2,-70.4482"/>
</g>
<!-- Node11 -->
<g id="node11" class="node"><title>Node11</title>
<g id="a_node11"><a xlink:href="InfrastructureGenerator_8cxx.html" target="_top" xlink:title="Framework/src/Infrastructure\lGenerator.cxx">
<polygon fill="none" stroke="black" points="1506.5,-0.5 1506.5,-30.5 1649.5,-30.5 1649.5,-0.5 1506.5,-0.5"/>
<text text-anchor="start" x="1514.5" y="-18.5" font-family="Helvetica,sans-Serif" font-size="10.00">Framework/src/Infrastructure</text>
<text text-anchor="middle" x="1578" y="-7.5" font-family="Helvetica,sans-Serif" font-size="10.00">Generator.cxx</text>
</a>
</g>
</g>
<!-- Node8&#45;&gt;Node11 -->
<g id="edge10" class="edge"><title>Node8&#45;&gt;Node11</title>
<path fill="none" stroke="midnightblue" d="M2322.22,-79.0187C2187.52,-74.051 1900.02,-60.7072 1659,-31 1656.02,-30.633 1652.99,-30.2286 1649.93,-29.7955"/>
<polygon fill="midnightblue" stroke="midnightblue" points="2322.31,-82.5243 2332.44,-79.3901 2322.57,-75.529 2322.31,-82.5243"/>
</g>
<!-- Node12 -->
<g id="node12" class="node"><title>Node12</title>
<g id="a_node12"><a xlink:href="runBasic_8cxx.html" target="_top" xlink:title="This is an executable showing QC Task&#39;s usage in Data Processing Layer. ">
<polygon fill="none" stroke="black" points="1904,-6 1904,-25 2046,-25 2046,-6 1904,-6"/>
<text text-anchor="middle" x="1975" y="-13" font-family="Helvetica,sans-Serif" font-size="10.00">Framework/src/runBasic.cxx</text>
</a>
</g>
</g>
<!-- Node8&#45;&gt;Node12 -->
<g id="edge11" class="edge"><title>Node8&#45;&gt;Node12</title>
<path fill="none" stroke="midnightblue" d="M2322.28,-70.9882C2252.49,-61.2477 2146.69,-46.0354 2055,-31 2043.86,-29.1727 2031.87,-27.0715 2020.64,-25.046"/>
<polygon fill="midnightblue" stroke="midnightblue" points="2321.92,-74.4721 2332.31,-72.3849 2322.89,-67.539 2321.92,-74.4721"/>
</g>
<!-- Node13 -->
<g id="node13" class="node"><title>Node13</title>
<g id="a_node13"><a xlink:href="testCheckRunner_8cxx.html" target="_top" xlink:title="Framework/test/testCheck\lRunner.cxx">
<polygon fill="none" stroke="black" points="2794.5,-0.5 2794.5,-30.5 2927.5,-30.5 2927.5,-0.5 2794.5,-0.5"/>
<text text-anchor="start" x="2802.5" y="-18.5" font-family="Helvetica,sans-Serif" font-size="10.00">Framework/test/testCheck</text>
<text text-anchor="middle" x="2861" y="-7.5" font-family="Helvetica,sans-Serif" font-size="10.00">Runner.cxx</text>
</a>
</g>
</g>
<!-- Node8&#45;&gt;Node13 -->
<g id="edge12" class="edge"><title>Node8&#45;&gt;Node13</title>
<path fill="none" stroke="midnightblue" d="M2476,-72.7693C2554.05,-63.6043 2678.19,-48.1608 2785,-31 2788.05,-30.5099 2791.17,-29.9908 2794.31,-29.4519"/>
<polygon fill="midnightblue" stroke="midnightblue" points="2475.3,-69.3274 2465.77,-73.9653 2476.11,-76.2801 2475.3,-69.3274"/>
</g>
<!-- Node14 -->
<g id="node14" class="node"><title>Node14</title>
<g id="a_node14"><a xlink:href="testCheckWorkflow_8cxx.html" target="_top" xlink:title="Framework/test/testCheck\lWorkflow.cxx">
<polygon fill="none" stroke="black" points="2288.5,-0.5 2288.5,-30.5 2421.5,-30.5 2421.5,-0.5 2288.5,-0.5"/>
<text text-anchor="start" x="2296.5" y="-18.5" font-family="Helvetica,sans-Serif" font-size="10.00">Framework/test/testCheck</text>
<text text-anchor="middle" x="2355" y="-7.5" font-family="Helvetica,sans-Serif" font-size="10.00">Workflow.cxx</text>
</a>
</g>
</g>
<!-- Node8&#45;&gt;Node14 -->
<g id="edge13" class="edge"><title>Node8&#45;&gt;Node14</title>
<path fill="none" stroke="midnightblue" d="M2383.68,-58.8669C2377.31,-49.4594 2370.12,-38.8334 2364.53,-30.5765"/>
<polygon fill="midnightblue" stroke="midnightblue" points="2380.95,-61.0769 2389.45,-67.396 2386.75,-57.1529 2380.95,-61.0769"/>
</g>
<!-- Node15 -->
<g id="node15" class="node"><title>Node15</title>
<g id="a_node15"><a xlink:href="testWorkflow_8cxx.html" target="_top" xlink:title="Framework/test/testWorkflow.cxx">
<polygon fill="none" stroke="black" points="2440,-6 2440,-25 2604,-25 2604,-6 2440,-6"/>
<text text-anchor="middle" x="2522" y="-13" font-family="Helvetica,sans-Serif" font-size="10.00">Framework/test/testWorkflow.cxx</text>
</a>
</g>
</g>
<!-- Node8&#45;&gt;Node15 -->
<g id="edge14" class="edge"><title>Node8&#45;&gt;Node15</title>
<path fill="none" stroke="midnightblue" d="M2434.69,-62.638C2458.22,-50.2028 2487.91,-34.5137 2505.9,-25.007"/>
<polygon fill="midnightblue" stroke="midnightblue" points="2432.9,-59.6292 2425.69,-67.396 2436.17,-65.8181 2432.9,-59.6292"/>
</g>
<!-- Node16 -->
<g id="node16" class="node"><title>Node16</title>
<polygon fill="none" stroke="#bfbfbf" points="1668,-6 1668,-25 1886,-25 1886,-6 1668,-6"/>
<text text-anchor="middle" x="1777" y="-13" font-family="Helvetica,sans-Serif" font-size="10.00">Modules/EMCAL/src/runQCEMCALDigits.cxx</text>
</g>
<!-- Node8&#45;&gt;Node16 -->
<g id="edge15" class="edge"><title>Node8&#45;&gt;Node16</title>
<path fill="none" stroke="midnightblue" d="M2321.89,-74.3153C2222.97,-64.973 2046.09,-47.8507 1895,-31 1878.49,-29.1584 1860.69,-27.0412 1844.05,-25.0038"/>
<polygon fill="midnightblue" stroke="midnightblue" points="2321.81,-77.8232 2332.1,-75.2775 2322.47,-70.8542 2321.81,-77.8232"/>
</g>
<!-- Node17 -->
<g id="node17" class="node"><title>Node17</title>
<polygon fill="none" stroke="#bfbfbf" points="2064,-6 2064,-25 2270,-25 2270,-6 2064,-6"/>
<text text-anchor="middle" x="2167" y="-13" font-family="Helvetica,sans-Serif" font-size="10.00">Modules/PHOS/src/runQCPHOSDigits.cxx</text>
</g>
<!-- Node8&#45;&gt;Node17 -->
<g id="edge16" class="edge"><title>Node8&#45;&gt;Node17</title>
<path fill="none" stroke="midnightblue" d="M2339.22,-64.7505C2293.84,-52.038 2233.33,-35.0851 2197.44,-25.0287"/>
<polygon fill="midnightblue" stroke="midnightblue" points="2338.37,-68.1483 2348.95,-67.476 2340.26,-61.4079 2338.37,-68.1483"/>
</g>
<!-- Node18 -->
<g id="node18" class="node"><title>Node18</title>
<g id="a_node18"><a xlink:href="runTOF_8cxx.html" target="_top" xlink:title="This is an executable showing QC Task&#39;s usage in Data Processing Layer. ">
<polygon fill="none" stroke="black" points="3096.5,-6 3096.5,-25 3243.5,-25 3243.5,-6 3096.5,-6"/>
<text text-anchor="middle" x="3170" y="-13" font-family="Helvetica,sans-Serif" font-size="10.00">Modules/TOF/src/runTOF.cxx</text>
</a>
</g>
</g>
<!-- Node8&#45;&gt;Node18 -->
<g id="edge17" class="edge"><title>Node8&#45;&gt;Node18</title>
<path fill="none" stroke="midnightblue" d="M2475.83,-74.3431C2503.04,-71.8939 2533.87,-69.2152 2562,-67 2795.16,-48.6373 2854.82,-59.163 3087,-31 3099.78,-29.4499 3113.58,-27.2522 3126.19,-25.0351"/>
<polygon fill="midnightblue" stroke="midnightblue" points="2475.24,-70.8824 2465.59,-75.2691 2475.87,-77.8539 2475.24,-70.8824"/>
</g>
<!-- Node19 -->
<g id="node19" class="node"><title>Node19</title>
<polygon fill="none" stroke="#bfbfbf" points="3262,-0.5 3262,-30.5 3432,-30.5 3432,-0.5 3262,-0.5"/>
<text text-anchor="start" x="3270" y="-18.5" font-family="Helvetica,sans-Serif" font-size="10.00">Modules/TPC/run/runTPCQCTrack</text>
<text text-anchor="middle" x="3347" y="-7.5" font-family="Helvetica,sans-Serif" font-size="10.00">Reader.cxx</text>
</g>
<!-- Node8&#45;&gt;Node19 -->
<g id="edge18" class="edge"><title>Node8&#45;&gt;Node19</title>
<path fill="none" stroke="midnightblue" d="M2475.81,-74.0836C2503.02,-71.6113 2533.85,-68.9843 2562,-67 2868.77,-45.3718 2947.09,-62.4818 3253,-31 3255.96,-30.6957 3258.96,-30.3626 3262,-30.0061"/>
<polygon fill="midnightblue" stroke="midnightblue" points="2475.21,-70.6236 2465.57,-75.0219 2475.85,-77.5944 2475.21,-70.6236"/>
</g>
<!-- Node20&#45;&gt;Node4 -->
<g id="edge21" class="edge"><title>Node20&#45;&gt;Node4</title>
<path fill="none" stroke="midnightblue" d="M1157.62,-77.7669C977.523,-68.9379 534.397,-46.362 386,-31 370.945,-29.4415 354.661,-27.2411 339.77,-25.0243"/>
<polygon fill="midnightblue" stroke="midnightblue" points="1157.64,-81.2724 1167.8,-78.2654 1157.99,-74.2807 1157.64,-81.2724"/>
</g>
<!-- Node20&#45;&gt;Node5 -->
<g id="edge24" class="edge"><title>Node20&#45;&gt;Node5</title>
<path fill="none" stroke="midnightblue" d="M1185.58,-63.9459C1150.04,-51.3213 1103.66,-34.8502 1075.95,-25.007"/>
<polygon fill="midnightblue" stroke="midnightblue" points="1184.7,-67.347 1195.29,-67.396 1187.04,-60.7507 1184.7,-67.347"/>
</g>
<!-- Node20&#45;&gt;Node6 -->
<g id="edge25" class="edge"><title>Node20&#45;&gt;Node6</title>
<path fill="none" stroke="midnightblue" d="M1157.87,-68.307C1093.65,-57.3223 1002.45,-41.7218 936.933,-30.5148"/>
<polygon fill="midnightblue" stroke="midnightblue" points="1157.49,-71.7927 1167.94,-70.0289 1158.67,-64.8929 1157.49,-71.7927"/>
</g>
<!-- Node20&#45;&gt;Node7 -->
<g id="edge26" class="edge"><title>Node20&#45;&gt;Node7</title>
<path fill="none" stroke="midnightblue" d="M1157.78,-74.3957C1063.86,-65.4953 900.552,-49.1871 761,-31 747.573,-29.2502 733.104,-27.1336 719.637,-25.0648"/>
<polygon fill="midnightblue" stroke="midnightblue" points="1157.48,-77.8829 1167.77,-75.3388 1158.14,-70.914 1157.48,-77.8829"/>
</g>
<!-- Node20&#45;&gt;Node9 -->
<g id="edge20" class="edge"><title>Node20&#45;&gt;Node9</title>
<path fill="none" stroke="midnightblue" d="M1281.61,-63.7838C1314.76,-51.1807 1357.84,-34.8082 1383.62,-25.007"/>
<polygon fill="midnightblue" stroke="midnightblue" points="1280.21,-60.5712 1272.1,-67.396 1282.7,-67.1144 1280.21,-60.5712"/>
</g>
<!-- Node21 -->
<g id="node21" class="node"><title>Node21</title>
<polygon fill="none" stroke="#bfbfbf" points="2622,-0.5 2622,-30.5 2776,-30.5 2776,-0.5 2622,-0.5"/>
<text text-anchor="start" x="2630" y="-18.5" font-family="Helvetica,sans-Serif" font-size="10.00">Framework/src/PostProcessing</text>
<text text-anchor="middle" x="2699" y="-7.5" font-family="Helvetica,sans-Serif" font-size="10.00">Runner.cxx</text>
</g>
<!-- Node20&#45;&gt;Node21 -->
<g id="edge22" class="edge"><title>Node20&#45;&gt;Node21</title>
<path fill="none" stroke="midnightblue" d="M1312.55,-82.1926C1522.57,-83.305 2119.71,-81.4072 2613,-31 2615.86,-30.7076 2618.77,-30.3786 2621.71,-30.0203"/>
<polygon fill="midnightblue" stroke="midnightblue" points="1312.27,-78.691 1302.25,-82.1339 1312.23,-85.6909 1312.27,-78.691"/>
</g>
<!-- Node22 -->
<g id="node22" class="node"><title>Node22</title>
<g id="a_node22"><a xlink:href="RepositoryBenchmark_8cxx.html" target="_top" xlink:title="Framework/src/Repository\lBenchmark.cxx">
<polygon fill="none" stroke="black" points="2946,-0.5 2946,-30.5 3078,-30.5 3078,-0.5 2946,-0.5"/>
<text text-anchor="start" x="2954" y="-18.5" font-family="Helvetica,sans-Serif" font-size="10.00">Framework/src/Repository</text>
<text text-anchor="middle" x="3012" y="-7.5" font-family="Helvetica,sans-Serif" font-size="10.00">Benchmark.cxx</text>
</a>
</g>
</g>
<!-- Node20&#45;&gt;Node22 -->
<g id="edge23" class="edge"><title>Node20&#45;&gt;Node22</title>
<path fill="none" stroke="midnightblue" d="M1312.47,-80.8355C1601.24,-78.104 2614.89,-66.1728 2936,-31 2939.2,-30.649 2942.48,-30.2363 2945.77,-29.7767"/>
<polygon fill="midnightblue" stroke="midnightblue" points="1312.06,-77.339 1302.09,-80.9326 1312.13,-84.3387 1312.06,-77.339"/>
</g>
<!-- Node23 -->
<g id="node23" class="node"><title>Node23</title>
<g id="a_node23"><a xlink:href="testTrendingTask_8cxx.html" target="_top" xlink:title="Framework/test/testTrending\lTask.cxx">
<polygon fill="none" stroke="black" points="1164,-0.5 1164,-30.5 1306,-30.5 1306,-0.5 1164,-0.5"/>
<text text-anchor="start" x="1172" y="-18.5" font-family="Helvetica,sans-Serif" font-size="10.00">Framework/test/testTrending</text>
<text text-anchor="middle" x="1235" y="-7.5" font-family="Helvetica,sans-Serif" font-size="10.00">Task.cxx</text>
</a>
</g>
</g>
<!-- Node20&#45;&gt;Node23 -->
<g id="edge27" class="edge"><title>Node20&#45;&gt;Node23</title>
<path fill="none" stroke="midnightblue" d="M1235,-57.1081C1235,-48.1539 1235,-38.3227 1235,-30.5765"/>
<polygon fill="midnightblue" stroke="midnightblue" points="1231.5,-57.3959 1235,-67.396 1238.5,-57.396 1231.5,-57.3959"/>
</g>
<!-- Node24&#45;&gt;Node4 -->
<g id="edge29" class="edge"><title>Node24&#45;&gt;Node4</title>
<path fill="none" stroke="midnightblue" d="M427.161,-64.1075C390.197,-51.4622 341.762,-34.8923 312.867,-25.007"/>
<polygon fill="midnightblue" stroke="midnightblue" points="426.178,-67.4706 436.773,-67.396 428.444,-60.8474 426.178,-67.4706"/>
</g>
<!-- Node24&#45;&gt;Node7 -->
<g id="edge31" class="edge"><title>Node24&#45;&gt;Node7</title>
<path fill="none" stroke="midnightblue" d="M528.572,-64.1075C565.341,-51.4622 613.521,-34.8923 642.264,-25.007"/>
<polygon fill="midnightblue" stroke="midnightblue" points="527.328,-60.834 519.01,-67.396 529.605,-67.4534 527.328,-60.834"/>
</g>
<!-- Node25 -->
<g id="node25" class="node"><title>Node25</title>
<g id="a_node25"><a xlink:href="DummyDatabase_8cxx.html" target="_top" xlink:title="Framework/src/DummyDatabase.cxx">
<polygon fill="none" stroke="black" points="0,-6 0,-25 180,-25 180,-6 0,-6"/>
<text text-anchor="middle" x="90" y="-13" font-family="Helvetica,sans-Serif" font-size="10.00">Framework/src/DummyDatabase.cxx</text>
</a>
</g>
</g>
<!-- Node24&#45;&gt;Node25 -->
<g id="edge30" class="edge"><title>Node24&#45;&gt;Node25</title>
<path fill="none" stroke="midnightblue" d="M399.819,-68.4026C322.65,-55.4748 206.913,-36.0859 140.919,-25.0302"/>
<polygon fill="midnightblue" stroke="midnightblue" points="399.531,-71.9031 409.972,-70.1035 400.687,-64.9993 399.531,-71.9031"/>
</g>
<!-- Node27 -->
<g id="node27" class="node"><title>Node27</title>
<g id="a_node27"><a xlink:href="MySqlDatabase_8cxx.html" target="_top" xlink:title="Framework/src/MySqlDatabase.cxx">
<polygon fill="none" stroke="black" points="3613.5,-6 3613.5,-25 3786.5,-25 3786.5,-6 3613.5,-6"/>
<text text-anchor="middle" x="3700" y="-13" font-family="Helvetica,sans-Serif" font-size="10.00">Framework/src/MySqlDatabase.cxx</text>
</a>
</g>
</g>
<!-- Node26&#45;&gt;Node27 -->
<g id="edge33" class="edge"><title>Node26&#45;&gt;Node27</title>
<path fill="none" stroke="midnightblue" d="M2714.82,-71.3951C2729.47,-69.7234 2744.69,-68.1599 2759,-67 3134.11,-36.5885 3230.43,-67.4459 3605,-31 3619.95,-29.5458 3636.12,-27.322 3650.82,-25.0494"/>
<polygon fill="midnightblue" stroke="midnightblue" points="2714.32,-67.9301 2704.79,-72.5661 2715.13,-74.8828 2714.32,-67.9301"/>
</g>
<!-- Node28&#45;&gt;Node21 -->
<g id="edge35" class="edge"><title>Node28&#45;&gt;Node21</title>
<path fill="none" stroke="midnightblue" d="M2806.21,-63.2687C2782.48,-52.9159 2753.22,-40.1528 2731.27,-30.5765"/>
<polygon fill="midnightblue" stroke="midnightblue" points="2805.1,-66.6054 2815.67,-67.396 2807.9,-60.1894 2805.1,-66.6054"/>
</g>
<!-- Node29 -->
<g id="node29" class="node"><title>Node29</title>
<g id="a_node29"><a xlink:href="runPostProcessing_8cxx.html" target="_top" xlink:title="This is a standalone executable to run postprocessing. ">
<polygon fill="none" stroke="black" points="3805,-6 3805,-25 3991,-25 3991,-6 3805,-6"/>
<text text-anchor="middle" x="3898" y="-13" font-family="Helvetica,sans-Serif" font-size="10.00">Framework/src/runPostProcessing.cxx</text>
</a>
</g>
</g>
<!-- Node28&#45;&gt;Node29 -->
<g id="edge36" class="edge"><title>Node28&#45;&gt;Node29</title>
<path fill="none" stroke="midnightblue" d="M2938.65,-66.9168C3318.89,-28.866 3418.83,-65.6257 3796,-31 3812.03,-29.5283 3829.4,-27.2993 3845.18,-25.0273"/>
<polygon fill="midnightblue" stroke="midnightblue" points="2938.07,-63.458 2928.47,-67.9467 2938.77,-70.4224 2938.07,-63.458"/>
</g>
<!-- Node30 -->
<g id="node30" class="node"><title>Node30</title>
<g id="a_node30"><a xlink:href="runPostProcessingOCC_8cxx.html" target="_top" xlink:title="This is an OCC executable to run postprocessing. ">
<polygon fill="none" stroke="black" points="4008.5,-0.5 4008.5,-30.5 4175.5,-30.5 4175.5,-0.5 4008.5,-0.5"/>
<text text-anchor="start" x="4016.5" y="-18.5" font-family="Helvetica,sans-Serif" font-size="10.00">Framework/src/runPostProcessing</text>
<text text-anchor="middle" x="4092" y="-7.5" font-family="Helvetica,sans-Serif" font-size="10.00">OCC.cxx</text>
</a>
</g>
</g>
<!-- Node28&#45;&gt;Node30 -->
<g id="edge37" class="edge"><title>Node28&#45;&gt;Node30</title>
<path fill="none" stroke="midnightblue" d="M2938.59,-66.9341C3409.21,-21.6731 3532.75,-75.5641 4000,-31 4002.74,-30.739 4005.52,-30.4488 4008.32,-30.1342"/>
<polygon fill="midnightblue" stroke="midnightblue" points="2938.08,-63.4667 2928.47,-67.9175 2938.76,-70.4339 2938.08,-63.4667"/>
</g>
<!-- Node31 -->
<g id="node31" class="node"><title>Node31</title>
<g id="a_node31"><a xlink:href="testPostProcessingRunner_8cxx.html" target="_top" xlink:title="Framework/test/testPostProcessing\lRunner.cxx">
<polygon fill="none" stroke="black" points="4193.5,-0.5 4193.5,-30.5 4366.5,-30.5 4366.5,-0.5 4193.5,-0.5"/>
<text text-anchor="start" x="4201.5" y="-18.5" font-family="Helvetica,sans-Serif" font-size="10.00">Framework/test/testPostProcessing</text>
<text text-anchor="middle" x="4280" y="-7.5" font-family="Helvetica,sans-Serif" font-size="10.00">Runner.cxx</text>
</a>
</g>
</g>
<!-- Node28&#45;&gt;Node31 -->
<g id="edge38" class="edge"><title>Node28&#45;&gt;Node31</title>
<path fill="none" stroke="midnightblue" d="M2938.69,-66.9307C3491.15,-15.0796 3635.73,-80.6516 4185,-31 4187.74,-30.7522 4190.52,-30.476 4193.33,-30.1763"/>
<polygon fill="midnightblue" stroke="midnightblue" points="2938.09,-63.4717 2928.47,-67.8993 2938.75,-70.4405 2938.09,-63.4717"/>
</g>
<!-- Node32&#45;&gt;Node22 -->
<g id="edge40" class="edge"><title>Node32&#45;&gt;Node22</title>
<path fill="none" stroke="midnightblue" d="M3012,-57.1081C3012,-48.1539 3012,-38.3227 3012,-30.5765"/>
<polygon fill="midnightblue" stroke="midnightblue" points="3008.5,-57.3959 3012,-67.396 3015.5,-57.396 3008.5,-57.3959"/>
</g>
<!-- Node33 -->
<g id="node33" class="node"><title>Node33</title>
<g id="a_node33"><a xlink:href="runRepositoryBenchmark_8cxx.html" target="_top" xlink:title="Framework/src/runRepository\lBenchmark.cxx">
<polygon fill="none" stroke="black" points="4385,-0.5 4385,-30.5 4531,-30.5 4531,-0.5 4385,-0.5"/>
<text text-anchor="start" x="4393" y="-18.5" font-family="Helvetica,sans-Serif" font-size="10.00">Framework/src/runRepository</text>
<text text-anchor="middle" x="4458" y="-7.5" font-family="Helvetica,sans-Serif" font-size="10.00">Benchmark.cxx</text>
</a>
</g>
</g>
<!-- Node32&#45;&gt;Node33 -->
<g id="edge41" class="edge"><title>Node32&#45;&gt;Node33</title>
<path fill="none" stroke="midnightblue" d="M3088.36,-67.1227C3659.08,-6.11718 3809.62,-88.6756 4376,-31 4378.88,-30.7071 4381.8,-30.3714 4384.76,-30.0015"/>
<polygon fill="midnightblue" stroke="midnightblue" points="3087.79,-63.6637 3078.22,-68.2164 3088.54,-70.6233 3087.79,-63.6637"/>
</g>
</g>
</svg>
