<?xml version="1.0" encoding="UTF-8" standalone="no"?>
<!DOCTYPE svg PUBLIC "-//W3C//DTD SVG 1.1//EN"
 "http://www.w3.org/Graphics/SVG/1.1/DTD/svg11.dtd">
<!-- Generated by graphviz version 2.38.0 (20140413.2041)
 -->
<!-- Title: Framework/include/QualityControl/DatabaseFactory.h Pages: 1 -->
<svg width="1434pt" height="106pt"
 viewBox="0.00 0.00 1434.00 106.00" xmlns="http://www.w3.org/2000/svg" xmlns:xlink="http://www.w3.org/1999/xlink">
<g id="graph0" class="graph" transform="scale(1 1) rotate(0) translate(4 102)">
<title>Framework/include/QualityControl/DatabaseFactory.h</title>
<!-- Node1 -->
<g id="node1" class="node"><title>Node1</title>
<polygon fill="#bfbfbf" stroke="black" points="640,-67.5 640,-97.5 774,-97.5 774,-67.5 640,-67.5"/>
<text text-anchor="start" x="648" y="-85.5" font-family="Helvetica,sans-Serif" font-size="10.00">Framework/include/Quality</text>
<text text-anchor="middle" x="707" y="-74.5" font-family="Helvetica,sans-Serif" font-size="10.00">Control/DatabaseFactory.h</text>
</g>
<!-- Node2 -->
<g id="node2" class="node"><title>Node2</title>
<g id="a_node2"><a xlink:href="CheckRunner_8cxx.html" target="_top" xlink:title="Framework/src/CheckRunner.cxx">
<polygon fill="none" stroke="black" points="0,-6 0,-25 164,-25 164,-6 0,-6"/>
<text text-anchor="middle" x="82" y="-13" font-family="Helvetica,sans-Serif" font-size="10.00">Framework/src/CheckRunner.cxx</text>
</a>
</g>
</g>
<!-- Node1&#45;&gt;Node2 -->
<g id="edge1" class="edge"><title>Node1&#45;&gt;Node2</title>
<path fill="none" stroke="midnightblue" d="M629.734,-75.747C525.733,-67.6486 335.046,-51.5514 173,-31 159.669,-29.3092 145.288,-27.1669 131.983,-25.0513"/>
<polygon fill="midnightblue" stroke="midnightblue" points="629.59,-79.2462 639.83,-76.5292 630.131,-72.2671 629.59,-79.2462"/>
</g>
<!-- Node3 -->
<g id="node3" class="node"><title>Node3</title>
<g id="a_node3"><a xlink:href="DatabaseFactory_8cxx.html" target="_top" xlink:title="Framework/src/DatabaseFactory.cxx">
<polygon fill="none" stroke="black" points="182.5,-6 182.5,-25 361.5,-25 361.5,-6 182.5,-6"/>
<text text-anchor="middle" x="272" y="-13" font-family="Helvetica,sans-Serif" font-size="10.00">Framework/src/DatabaseFactory.cxx</text>
</a>
</g>
</g>
<!-- Node1&#45;&gt;Node3 -->
<g id="edge2" class="edge"><title>Node1&#45;&gt;Node3</title>
<path fill="none" stroke="midnightblue" d="M629.994,-69.9933C543.787,-57.1118 406.105,-36.5387 329.027,-25.0212"/>
<polygon fill="midnightblue" stroke="midnightblue" points="629.577,-73.4698 639.985,-71.4862 630.612,-66.5467 629.577,-73.4698"/>
</g>
<!-- Node4 -->
<g id="node4" class="node"><title>Node4</title>
<polygon fill="none" stroke="#bfbfbf" points="380,-0.5 380,-30.5 534,-30.5 534,-0.5 380,-0.5"/>
<text text-anchor="start" x="388" y="-18.5" font-family="Helvetica,sans-Serif" font-size="10.00">Framework/src/PostProcessing</text>
<text text-anchor="middle" x="457" y="-7.5" font-family="Helvetica,sans-Serif" font-size="10.00">Runner.cxx</text>
</g>
<!-- Node1&#45;&gt;Node4 -->
<g id="edge3" class="edge"><title>Node1&#45;&gt;Node4</title>
<path fill="none" stroke="midnightblue" d="M643.22,-64.9171C602.423,-54.3099 550.072,-40.6988 511.273,-30.6109"/>
<polygon fill="midnightblue" stroke="midnightblue" points="642.503,-68.347 653.062,-67.476 644.264,-61.5722 642.503,-68.347"/>
</g>
<!-- Node5 -->
<g id="node5" class="node"><title>Node5</title>
<g id="a_node5"><a xlink:href="RepositoryBenchmark_8cxx.html" target="_top" xlink:title="Framework/src/Repository\lBenchmark.cxx">
<polygon fill="none" stroke="black" points="552,-0.5 552,-30.5 684,-30.5 684,-0.5 552,-0.5"/>
<text text-anchor="start" x="560" y="-18.5" font-family="Helvetica,sans-Serif" font-size="10.00">Framework/src/Repository</text>
<text text-anchor="middle" x="618" y="-7.5" font-family="Helvetica,sans-Serif" font-size="10.00">Benchmark.cxx</text>
</a>
</g>
</g>
<!-- Node1&#45;&gt;Node5 -->
<g id="edge4" class="edge"><title>Node1&#45;&gt;Node5</title>
<path fill="none" stroke="midnightblue" d="M679.548,-61.4511C665.857,-51.4517 649.629,-39.5995 637.274,-30.5765"/>
<polygon fill="midnightblue" stroke="midnightblue" points="677.548,-64.3245 687.688,-67.396 681.677,-58.6716 677.548,-64.3245"/>
</g>
<!-- Node6 -->
<g id="node6" class="node"><title>Node6</title>
<g id="a_node6"><a xlink:href="testCcdbDatabase_8cxx.html" target="_top" xlink:title="Framework/test/testCcdbDatabase.cxx">
<polygon fill="none" stroke="black" points="702,-6 702,-25 890,-25 890,-6 702,-6"/>
<text text-anchor="middle" x="796" y="-13" font-family="Helvetica,sans-Serif" font-size="10.00">Framework/test/testCcdbDatabase.cxx</text>
</a>
</g>
</g>
<!-- Node1&#45;&gt;Node6 -->
<g id="edge5" class="edge"><title>Node1&#45;&gt;Node6</title>
<path fill="none" stroke="midnightblue" d="M734.651,-61.3056C751.363,-49.0999 771.796,-34.1772 784.352,-25.007"/>
<polygon fill="midnightblue" stroke="midnightblue" points="732.323,-58.6716 726.312,-67.396 736.452,-64.3245 732.323,-58.6716"/>
</g>
<!-- Node7 -->
<g id="node7" class="node"><title>Node7</title>
<polygon fill="none" stroke="#bfbfbf" points="908,-0.5 908,-30.5 1078,-30.5 1078,-0.5 908,-0.5"/>
<text text-anchor="start" x="916" y="-18.5" font-family="Helvetica,sans-Serif" font-size="10.00">Framework/test/testCcdbDatabase</text>
<text text-anchor="middle" x="993" y="-7.5" font-family="Helvetica,sans-Serif" font-size="10.00">Extra.cxx</text>
</g>
<!-- Node1&#45;&gt;Node7 -->
<g id="edge6" class="edge"><title>Node1&#45;&gt;Node7</title>
<path fill="none" stroke="midnightblue" d="M778.489,-65.2525C825.369,-54.598 886.056,-40.8054 930.912,-30.6109"/>
<polygon fill="midnightblue" stroke="midnightblue" points="777.681,-61.8467 768.706,-67.476 779.233,-68.6727 777.681,-61.8467"/>
</g>
<!-- Node8 -->
<g id="node8" class="node"><title>Node8</title>
<g id="a_node8"><a xlink:href="testDbFactory_8cxx.html" target="_top" xlink:title="Framework/test/testDbFactory.cxx">
<polygon fill="none" stroke="black" points="1096.5,-6 1096.5,-25 1265.5,-25 1265.5,-6 1096.5,-6"/>
<text text-anchor="middle" x="1181" y="-13" font-family="Helvetica,sans-Serif" font-size="10.00">Framework/test/testDbFactory.cxx</text>
</a>
</g>
</g>
<!-- Node1&#45;&gt;Node8 -->
<g id="edge7" class="edge"><title>Node1&#45;&gt;Node8</title>
<path fill="none" stroke="midnightblue" d="M784.404,-71.6954C861.238,-61.8495 982.343,-46.0244 1087,-31 1099.91,-29.1463 1113.81,-27.0558 1126.85,-25.0513"/>
<polygon fill="midnightblue" stroke="midnightblue" points="783.803,-68.2437 774.328,-72.9848 784.692,-75.1871 783.803,-68.2437"/>
</g>
<!-- Node9 -->
<g id="node9" class="node"><title>Node9</title>
<g id="a_node9"><a xlink:href="testTrendingTask_8cxx.html" target="_top" xlink:title="Framework/test/testTrending\lTask.cxx">
<polygon fill="none" stroke="black" points="1284,-0.5 1284,-30.5 1426,-30.5 1426,-0.5 1284,-0.5"/>
<text text-anchor="start" x="1292" y="-18.5" font-family="Helvetica,sans-Serif" font-size="10.00">Framework/test/testTrending</text>
<text text-anchor="middle" x="1355" y="-7.5" font-family="Helvetica,sans-Serif" font-size="10.00">Task.cxx</text>
</a>
</g>
</g>
<!-- Node1&#45;&gt;Node9 -->
<g id="edge8" class="edge"><title>Node1&#45;&gt;Node9</title>
<path fill="none" stroke="midnightblue" d="M784.405,-76.8496C893.955,-69.7614 1100.35,-54.5421 1275,-31 1277.94,-30.604 1280.93,-30.1754 1283.95,-29.7222"/>
<polygon fill="midnightblue" stroke="midnightblue" points="783.866,-73.3769 774.11,-77.5102 784.314,-80.3626 783.866,-73.3769"/>
</g>
</g>
</svg>
