<?xml version="1.0" encoding="UTF-8" standalone="no"?>
<!DOCTYPE svg PUBLIC "-//W3C//DTD SVG 1.1//EN"
 "http://www.w3.org/Graphics/SVG/1.1/DTD/svg11.dtd">
<!-- Generated by graphviz version 2.38.0 (20140413.2041)
 -->
<!-- Title: Framework/src/DataDumpGui.cxx Pages: 1 -->
<svg width="1354pt" height="162pt"
 viewBox="0.00 0.00 1353.50 162.00" xmlns="http://www.w3.org/2000/svg" xmlns:xlink="http://www.w3.org/1999/xlink">
<g id="graph0" class="graph" transform="scale(1 1) rotate(0) translate(4 158)">
<title>Framework/src/DataDumpGui.cxx</title>
<!-- Node1 -->
<g id="node1" class="node"><title>Node1</title>
<polygon fill="#bfbfbf" stroke="black" points="758.5,-134.5 758.5,-153.5 924.5,-153.5 924.5,-134.5 758.5,-134.5"/>
<text text-anchor="middle" x="841.5" y="-141.5" font-family="Helvetica,sans-Serif" font-size="10.00">Framework/src/DataDumpGui.cxx</text>
</g>
<!-- Node2 -->
<g id="node2" class="node"><title>Node2</title>
<g id="a_node2"><a xlink:href="DataDumpGui_8h.html" target="_top" xlink:title="QualityControl/DataDumpGui.h">
<polygon fill="none" stroke="black" points="28.5,-67.5 28.5,-86.5 180.5,-86.5 180.5,-67.5 28.5,-67.5"/>
<text text-anchor="middle" x="104.5" y="-74.5" font-family="Helvetica,sans-Serif" font-size="10.00">QualityControl/DataDumpGui.h</text>
</a>
</g>
</g>
<!-- Node1&#45;&gt;Node2 -->
<g id="edge1" class="edge"><title>Node1&#45;&gt;Node2</title>
<path fill="none" stroke="midnightblue" d="M758.315,-141.488C634.087,-138.275 393.011,-128.349 190.5,-98 175.739,-95.7879 159.766,-92.3654 145.638,-88.9731"/>
<polygon fill="midnightblue" stroke="midnightblue" points="146.268,-85.5236 135.721,-86.5261 144.591,-92.3198 146.268,-85.5236"/>
</g>
<!-- Node5 -->
<g id="node5" class="node"><title>Node5</title>
<g id="a_node5"><a xlink:href="QcInfoLogger_8h.html" target="_top" xlink:title="QualityControl/QcInfoLogger.h">
<polygon fill="none" stroke="black" points="199,-67.5 199,-86.5 348,-86.5 348,-67.5 199,-67.5"/>
<text text-anchor="middle" x="273.5" y="-74.5" font-family="Helvetica,sans-Serif" font-size="10.00">QualityControl/QcInfoLogger.h</text>
</a>
</g>
</g>
<!-- Node1&#45;&gt;Node5 -->
<g id="edge4" class="edge"><title>Node1&#45;&gt;Node5</title>
<path fill="none" stroke="midnightblue" d="M758.403,-138.845C661.626,-133.183 497.183,-121.005 357.5,-98 343.473,-95.6899 328.312,-92.347 314.782,-89.0534"/>
<polygon fill="midnightblue" stroke="midnightblue" points="315.349,-85.5876 304.799,-86.5623 313.654,-92.3793 315.349,-85.5876"/>
</g>
<!-- Node7 -->
<g id="node7" class="node"><title>Node7</title>
<polygon fill="none" stroke="#bfbfbf" points="366,-67.5 366,-86.5 455,-86.5 455,-67.5 366,-67.5"/>
<text text-anchor="middle" x="410.5" y="-74.5" font-family="Helvetica,sans-Serif" font-size="10.00">imgui/BaseGui.h</text>
</g>
<!-- Node1&#45;&gt;Node7 -->
<g id="edge6" class="edge"><title>Node1&#45;&gt;Node7</title>
<path fill="none" stroke="midnightblue" d="M758.137,-138.704C681.075,-133.406 563.82,-121.964 464.5,-98 456.3,-96.0215 447.639,-93.1746 439.712,-90.2467"/>
<polygon fill="midnightblue" stroke="midnightblue" points="440.743,-86.8929 430.154,-86.5539 438.221,-93.4225 440.743,-86.8929"/>
</g>
<!-- Node8 -->
<g id="node8" class="node"><title>Node8</title>
<polygon fill="none" stroke="#bfbfbf" points="473,-67.5 473,-86.5 532,-86.5 532,-67.5 473,-67.5"/>
<text text-anchor="middle" x="502.5" y="-74.5" font-family="Helvetica,sans-Serif" font-size="10.00">functional</text>
</g>
<!-- Node1&#45;&gt;Node8 -->
<g id="edge7" class="edge"><title>Node1&#45;&gt;Node8</title>
<path fill="none" stroke="midnightblue" d="M758.363,-137.807C697.207,-132.251 612.69,-120.912 541.5,-98 536.203,-96.2953 530.75,-93.9326 525.663,-91.427"/>
<polygon fill="midnightblue" stroke="midnightblue" points="526.943,-88.145 516.466,-86.5677 523.673,-94.3342 526.943,-88.145"/>
</g>
<!-- Node9 -->
<g id="node9" class="node"><title>Node9</title>
<polygon fill="none" stroke="#bfbfbf" points="550.5,-67.5 550.5,-86.5 624.5,-86.5 624.5,-67.5 550.5,-67.5"/>
<text text-anchor="middle" x="587.5" y="-74.5" font-family="Helvetica,sans-Serif" font-size="10.00">imgui/imgui.h</text>
</g>
<!-- Node1&#45;&gt;Node9 -->
<g id="edge8" class="edge"><title>Node1&#45;&gt;Node9</title>
<path fill="none" stroke="midnightblue" d="M789.324,-134.469C747.034,-126.887 686.19,-114.455 634.5,-98 628.067,-95.9523 621.305,-93.3539 614.977,-90.7135"/>
<polygon fill="midnightblue" stroke="midnightblue" points="616.067,-87.3716 605.501,-86.6026 613.281,-93.7933 616.067,-87.3716"/>
</g>
<!-- Node10 -->
<g id="node10" class="node"><title>Node10</title>
<polygon fill="none" stroke="#bfbfbf" points="643,-56.5 643,-97.5 802,-97.5 802,-56.5 643,-56.5"/>
<text text-anchor="start" x="651" y="-85.5" font-family="Helvetica,sans-Serif" font-size="10.00">/home/travis/build</text>
<text text-anchor="start" x="651" y="-74.5" font-family="Helvetica,sans-Serif" font-size="10.00">/AliceO2Group/QualityControl</text>
<text text-anchor="middle" x="722.5" y="-63.5" font-family="Helvetica,sans-Serif" font-size="10.00">/Framework/src/imgui/imconfig.h</text>
</g>
<!-- Node1&#45;&gt;Node10 -->
<g id="edge9" class="edge"><title>Node1&#45;&gt;Node10</title>
<path fill="none" stroke="midnightblue" d="M825.451,-134.234C810.53,-126.084 787.593,-113.555 767.153,-102.39"/>
<polygon fill="midnightblue" stroke="midnightblue" points="768.731,-99.2642 758.277,-97.5421 765.375,-105.407 768.731,-99.2642"/>
</g>
<!-- Node11 -->
<g id="node11" class="node"><title>Node11</title>
<polygon fill="none" stroke="#bfbfbf" points="819.5,-67.5 819.5,-86.5 863.5,-86.5 863.5,-67.5 819.5,-67.5"/>
<text text-anchor="middle" x="841.5" y="-74.5" font-family="Helvetica,sans-Serif" font-size="10.00">float.h</text>
</g>
<!-- Node1&#45;&gt;Node11 -->
<g id="edge10" class="edge"><title>Node1&#45;&gt;Node11</title>
<path fill="none" stroke="midnightblue" d="M841.5,-134.234C841.5,-124.683 841.5,-109.118 841.5,-96.7829"/>
<polygon fill="midnightblue" stroke="midnightblue" points="845,-96.6273 841.5,-86.6273 838,-96.6273 845,-96.6273"/>
</g>
<!-- Node12 -->
<g id="node12" class="node"><title>Node12</title>
<polygon fill="none" stroke="#bfbfbf" points="881.5,-67.5 881.5,-86.5 933.5,-86.5 933.5,-67.5 881.5,-67.5"/>
<text text-anchor="middle" x="907.5" y="-74.5" font-family="Helvetica,sans-Serif" font-size="10.00">stdarg.h</text>
</g>
<!-- Node1&#45;&gt;Node12 -->
<g id="edge11" class="edge"><title>Node1&#45;&gt;Node12</title>
<path fill="none" stroke="midnightblue" d="M850.401,-134.234C860.891,-123.903 878.524,-106.537 891.425,-93.8315"/>
<polygon fill="midnightblue" stroke="midnightblue" points="894.071,-96.1379 898.74,-86.6273 889.159,-91.1505 894.071,-96.1379"/>
</g>
<!-- Node13 -->
<g id="node13" class="node"><title>Node13</title>
<polygon fill="none" stroke="#bfbfbf" points="951.5,-67.5 951.5,-86.5 1003.5,-86.5 1003.5,-67.5 951.5,-67.5"/>
<text text-anchor="middle" x="977.5" y="-74.5" font-family="Helvetica,sans-Serif" font-size="10.00">stddef.h</text>
</g>
<!-- Node1&#45;&gt;Node13 -->
<g id="edge12" class="edge"><title>Node1&#45;&gt;Node13</title>
<path fill="none" stroke="midnightblue" d="M862.287,-134.458C882.907,-125.817 915.275,-111.8 942.5,-98 946.433,-96.0066 950.549,-93.783 954.521,-91.5634"/>
<polygon fill="midnightblue" stroke="midnightblue" points="956.429,-94.5043 963.372,-86.5013 952.954,-88.4279 956.429,-94.5043"/>
</g>
<!-- Node14 -->
<g id="node14" class="node"><title>Node14</title>
<polygon fill="none" stroke="#bfbfbf" points="1022,-67.5 1022,-86.5 1071,-86.5 1071,-67.5 1022,-67.5"/>
<text text-anchor="middle" x="1046.5" y="-74.5" font-family="Helvetica,sans-Serif" font-size="10.00">string.h</text>
</g>
<!-- Node1&#45;&gt;Node14 -->
<g id="edge13" class="edge"><title>Node1&#45;&gt;Node14</title>
<path fill="none" stroke="midnightblue" d="M887.619,-134.453C922.686,-127.106 971.69,-114.991 1012.5,-98 1016.63,-96.2824 1020.86,-94.1411 1024.87,-91.9037"/>
<polygon fill="midnightblue" stroke="midnightblue" points="1026.89,-94.7782 1033.7,-86.6625 1023.31,-88.7597 1026.89,-94.7782"/>
</g>
<!-- Node15 -->
<g id="node15" class="node"><title>Node15</title>
<polygon fill="none" stroke="#bfbfbf" points="1089.5,-67.5 1089.5,-86.5 1141.5,-86.5 1141.5,-67.5 1089.5,-67.5"/>
<text text-anchor="middle" x="1115.5" y="-74.5" font-family="Helvetica,sans-Serif" font-size="10.00">assert.h</text>
</g>
<!-- Node1&#45;&gt;Node15 -->
<g id="edge14" class="edge"><title>Node1&#45;&gt;Node15</title>
<path fill="none" stroke="midnightblue" d="M922.961,-134.499C970.031,-127.915 1029.78,-116.665 1080.5,-98 1084.98,-96.3511 1089.56,-94.1608 1093.86,-91.8347"/>
<polygon fill="midnightblue" stroke="midnightblue" points="1095.83,-94.7402 1102.71,-86.6831 1092.31,-88.6912 1095.83,-94.7402"/>
</g>
<!-- Node16 -->
<g id="node16" class="node"><title>Node16</title>
<polygon fill="none" stroke="#bfbfbf" points="1160,-67.5 1160,-86.5 1277,-86.5 1277,-67.5 1160,-67.5"/>
<text text-anchor="middle" x="1218.5" y="-74.5" font-family="Helvetica,sans-Serif" font-size="10.00">Headers/DataHeader.h</text>
</g>
<!-- Node1&#45;&gt;Node16 -->
<g id="edge15" class="edge"><title>Node1&#45;&gt;Node16</title>
<path fill="none" stroke="midnightblue" d="M921.766,-134.468C984.468,-127.044 1073.58,-114.825 1150.5,-98 1161.16,-95.6687 1172.59,-92.5532 1182.98,-89.4763"/>
<polygon fill="midnightblue" stroke="midnightblue" points="1184.02,-92.8203 1192.57,-86.565 1181.98,-86.1224 1184.02,-92.8203"/>
</g>
<!-- Node17 -->
<g id="node17" class="node"><title>Node17</title>
<polygon fill="none" stroke="#bfbfbf" points="1295.5,-67.5 1295.5,-86.5 1345.5,-86.5 1345.5,-67.5 1295.5,-67.5"/>
<text text-anchor="middle" x="1320.5" y="-74.5" font-family="Helvetica,sans-Serif" font-size="10.00">iomanip</text>
</g>
<!-- Node1&#45;&gt;Node17 -->
<g id="edge16" class="edge"><title>Node1&#45;&gt;Node17</title>
<path fill="none" stroke="midnightblue" d="M924.749,-138.842C1034.52,-132.628 1221.37,-119.312 1286.5,-98 1291.09,-96.4978 1295.73,-94.3052 1300.05,-91.9166"/>
<polygon fill="midnightblue" stroke="midnightblue" points="1302.11,-94.7579 1308.83,-86.5668 1298.47,-88.7796 1302.11,-94.7579"/>
</g>
<!-- Node3 -->
<g id="node3" class="node"><title>Node3</title>
<polygon fill="none" stroke="#bfbfbf" points="0,-0.5 0,-19.5 41,-19.5 41,-0.5 0,-0.5"/>
<text text-anchor="middle" x="20.5" y="-7.5" font-family="Helvetica,sans-Serif" font-size="10.00">string</text>
</g>
<!-- Node2&#45;&gt;Node3 -->
<g id="edge2" class="edge"><title>Node2&#45;&gt;Node3</title>
<path fill="none" stroke="midnightblue" d="M93.1714,-67.2338C79.4429,-56.6106 56.1012,-38.5485 39.5799,-25.7642"/>
<polygon fill="midnightblue" stroke="midnightblue" points="41.6998,-22.9791 31.6491,-19.6273 37.4159,-28.5152 41.6998,-22.9791"/>
</g>
<!-- Node4 -->
<g id="node4" class="node"><title>Node4</title>
<polygon fill="none" stroke="#bfbfbf" points="59.5,-0.5 59.5,-19.5 177.5,-19.5 177.5,-0.5 59.5,-0.5"/>
<text text-anchor="middle" x="118.5" y="-7.5" font-family="Helvetica,sans-Serif" font-size="10.00">fairmq/FairMQDevice.h</text>
</g>
<!-- Node2&#45;&gt;Node4 -->
<g id="edge3" class="edge"><title>Node2&#45;&gt;Node4</title>
<path fill="none" stroke="midnightblue" d="M106.388,-67.2338C108.466,-57.5852 111.866,-41.8001 114.536,-29.4063"/>
<polygon fill="midnightblue" stroke="midnightblue" points="117.958,-30.1401 116.642,-19.6273 111.115,-28.6661 117.958,-30.1401"/>
</g>
<!-- Node6 -->
<g id="node6" class="node"><title>Node6</title>
<polygon fill="none" stroke="#bfbfbf" points="208.5,-0.5 208.5,-19.5 338.5,-19.5 338.5,-0.5 208.5,-0.5"/>
<text text-anchor="middle" x="273.5" y="-7.5" font-family="Helvetica,sans-Serif" font-size="10.00">InfoLogger/InfoLogger.hxx</text>
</g>
<!-- Node5&#45;&gt;Node6 -->
<g id="edge5" class="edge"><title>Node5&#45;&gt;Node6</title>
<path fill="none" stroke="midnightblue" d="M273.5,-67.2338C273.5,-57.6826 273.5,-42.1183 273.5,-29.7829"/>
<polygon fill="midnightblue" stroke="midnightblue" points="277,-29.6273 273.5,-19.6273 270,-29.6273 277,-29.6273"/>
</g>
</g>
</svg>
