<?xml version="1.0" encoding="UTF-8" standalone="no"?>
<!DOCTYPE svg PUBLIC "-//W3C//DTD SVG 1.1//EN"
 "http://www.w3.org/Graphics/SVG/1.1/DTD/svg11.dtd">
<!-- Generated by graphviz version 2.38.0 (20140413.2041)
 -->
<!-- Title: Framework/include/QualityControl/DataProducer.h Pages: 1 -->
<svg width="693pt" height="95pt"
 viewBox="0.00 0.00 692.50 95.00" xmlns="http://www.w3.org/2000/svg" xmlns:xlink="http://www.w3.org/1999/xlink">
<g id="graph0" class="graph" transform="scale(1 1) rotate(0) translate(4 91)">
<title>Framework/include/QualityControl/DataProducer.h</title>
<!-- Node1 -->
<g id="node1" class="node"><title>Node1</title>
<polygon fill="#bfbfbf" stroke="black" points="275.5,-56.5 275.5,-86.5 408.5,-86.5 408.5,-56.5 275.5,-56.5"/>
<text text-anchor="start" x="283.5" y="-74.5" font-family="Helvetica,sans-Serif" font-size="10.00">Framework/include/Quality</text>
<text text-anchor="middle" x="342" y="-63.5" font-family="Helvetica,sans-Serif" font-size="10.00">Control/DataProducer.h</text>
</g>
<!-- Node2 -->
<g id="node2" class="node"><title>Node2</title>
<g id="a_node2"><a xlink:href="DataProducer_8cxx.html" target="_top" xlink:title="Framework/src/DataProducer.cxx">
<polygon fill="none" stroke="black" points="0,-0.5 0,-19.5 164,-19.5 164,-0.5 0,-0.5"/>
<text text-anchor="middle" x="82" y="-7.5" font-family="Helvetica,sans-Serif" font-size="10.00">Framework/src/DataProducer.cxx</text>
</a>
</g>
</g>
<!-- Node1&#45;&gt;Node2 -->
<g id="edge1" class="edge"><title>Node1&#45;&gt;Node2</title>
<path fill="none" stroke="midnightblue" d="M270.791,-54.2041C221.751,-42.9814 158.57,-28.5228 119.171,-19.5064"/>
<polygon fill="midnightblue" stroke="midnightblue" points="270.184,-57.6556 280.713,-56.4747 271.746,-50.832 270.184,-57.6556"/>
</g>
<!-- Node3 -->
<g id="node3" class="node"><title>Node3</title>
<g id="a_node3"><a xlink:href="runBasic_8cxx.html" target="_top" xlink:title="This is an executable showing QC Task&#39;s usage in Data Processing Layer. ">
<polygon fill="none" stroke="black" points="182,-0.5 182,-19.5 324,-19.5 324,-0.5 182,-0.5"/>
<text text-anchor="middle" x="253" y="-7.5" font-family="Helvetica,sans-Serif" font-size="10.00">Framework/src/runBasic.cxx</text>
</a>
</g>
</g>
<!-- Node1&#45;&gt;Node3 -->
<g id="edge2" class="edge"><title>Node1&#45;&gt;Node3</title>
<path fill="none" stroke="midnightblue" d="M312.497,-50.7764C296.724,-40.2315 278.105,-27.7834 265.95,-19.6578"/>
<polygon fill="midnightblue" stroke="midnightblue" points="310.65,-53.7512 320.908,-56.3993 314.54,-47.9318 310.65,-53.7512"/>
</g>
<!-- Node4 -->
<g id="node4" class="node"><title>Node4</title>
<g id="a_node4"><a xlink:href="runDataProducer_8cxx.html" target="_top" xlink:title="This is an executable with a basic data producer in Data Processing Layer. ">
<polygon fill="none" stroke="black" points="342.5,-0.5 342.5,-19.5 519.5,-19.5 519.5,-0.5 342.5,-0.5"/>
<text text-anchor="middle" x="431" y="-7.5" font-family="Helvetica,sans-Serif" font-size="10.00">Framework/src/runDataProducer.cxx</text>
</a>
</g>
</g>
<!-- Node1&#45;&gt;Node4 -->
<g id="edge3" class="edge"><title>Node1&#45;&gt;Node4</title>
<path fill="none" stroke="midnightblue" d="M371.503,-50.7764C387.276,-40.2315 405.895,-27.7834 418.05,-19.6578"/>
<polygon fill="midnightblue" stroke="midnightblue" points="369.46,-47.9318 363.092,-56.3993 373.35,-53.7512 369.46,-47.9318"/>
</g>
<!-- Node5 -->
<g id="node5" class="node"><title>Node5</title>
<g id="a_node5"><a xlink:href="runTOF_8cxx.html" target="_top" xlink:title="This is an executable showing QC Task&#39;s usage in Data Processing Layer. ">
<polygon fill="none" stroke="black" points="537.5,-0.5 537.5,-19.5 684.5,-19.5 684.5,-0.5 537.5,-0.5"/>
<text text-anchor="middle" x="611" y="-7.5" font-family="Helvetica,sans-Serif" font-size="10.00">Modules/TOF/src/runTOF.cxx</text>
</a>
</g>
</g>
<!-- Node1&#45;&gt;Node5 -->
<g id="edge4" class="edge"><title>Node1&#45;&gt;Node5</title>
<path fill="none" stroke="midnightblue" d="M415.356,-54.2743C466.139,-43.0418 531.694,-28.5416 572.543,-19.5064"/>
<polygon fill="midnightblue" stroke="midnightblue" points="414.417,-50.8975 405.409,-56.4747 415.929,-57.7323 414.417,-50.8975"/>
</g>
</g>
</svg>
