<?xml version="1.0" encoding="UTF-8" standalone="no"?>
<!DOCTYPE svg PUBLIC "-//W3C//DTD SVG 1.1//EN"
 "http://www.w3.org/Graphics/SVG/1.1/DTD/svg11.dtd">
<!-- Generated by graphviz version 2.38.0 (20140413.2041)
 -->
<!-- Title: Framework/include/QualityControl/DatabaseFactory.h Pages: 1 -->
<svg width="814pt" height="263pt"
 viewBox="0.00 0.00 814.00 263.00" xmlns="http://www.w3.org/2000/svg" xmlns:xlink="http://www.w3.org/1999/xlink">
<g id="graph0" class="graph" transform="scale(1 1) rotate(0) translate(4 259)">
<title>Framework/include/QualityControl/DatabaseFactory.h</title>
<!-- Node1 -->
<g id="node1" class="node"><title>Node1</title>
<polygon fill="#bfbfbf" stroke="black" points="42,-224.5 42,-254.5 176,-254.5 176,-224.5 42,-224.5"/>
<text text-anchor="start" x="50" y="-242.5" font-family="Helvetica,sans-Serif" font-size="10.00">Framework/include/Quality</text>
<text text-anchor="middle" x="109" y="-231.5" font-family="Helvetica,sans-Serif" font-size="10.00">Control/DatabaseFactory.h</text>
</g>
<!-- Node2 -->
<g id="node2" class="node"><title>Node2</title>
<polygon fill="none" stroke="#bfbfbf" points="0,-112.5 0,-131.5 52,-131.5 52,-112.5 0,-112.5"/>
<text text-anchor="middle" x="26" y="-119.5" font-family="Helvetica,sans-Serif" font-size="10.00">memory</text>
</g>
<!-- Node1&#45;&gt;Node2 -->
<g id="edge1" class="edge"><title>Node1&#45;&gt;Node2</title>
<path fill="none" stroke="midnightblue" d="M98.8226,-224.337C83.5281,-203.054 54.6637,-162.887 38.2413,-140.035"/>
<polygon fill="midnightblue" stroke="midnightblue" points="40.9079,-137.748 32.23,-131.669 35.2234,-141.833 40.9079,-137.748"/>
</g>
<!-- Node3 -->
<g id="node3" class="node"><title>Node3</title>
<g id="a_node3"><a xlink:href="DatabaseInterface_8h.html" target="_top" xlink:title="QualityControl/DatabaseInterface.h">
<polygon fill="none" stroke="black" points="89,-168.5 89,-187.5 259,-187.5 259,-168.5 89,-168.5"/>
<text text-anchor="middle" x="174" y="-175.5" font-family="Helvetica,sans-Serif" font-size="10.00">QualityControl/DatabaseInterface.h</text>
</a>
</g>
</g>
<!-- Node1&#45;&gt;Node3 -->
<g id="edge2" class="edge"><title>Node1&#45;&gt;Node3</title>
<path fill="none" stroke="midnightblue" d="M124.404,-224.399C134.239,-215.397 146.993,-203.721 157.105,-194.465"/>
<polygon fill="midnightblue" stroke="midnightblue" points="159.529,-196.992 164.542,-187.658 154.802,-191.828 159.529,-196.992"/>
</g>
<!-- Node3&#45;&gt;Node2 -->
<g id="edge4" class="edge"><title>Node3&#45;&gt;Node2</title>
<path fill="none" stroke="midnightblue" d="M150.549,-168.444C125.867,-159.438 86.8147,-145.189 59.0233,-135.049"/>
<polygon fill="midnightblue" stroke="midnightblue" points="59.9352,-131.656 49.3413,-131.516 57.5359,-138.232 59.9352,-131.656"/>
</g>
<!-- Node4 -->
<g id="node4" class="node"><title>Node4</title>
<polygon fill="none" stroke="#bfbfbf" points="261.5,-0.5 261.5,-19.5 302.5,-19.5 302.5,-0.5 261.5,-0.5"/>
<text text-anchor="middle" x="282" y="-7.5" font-family="Helvetica,sans-Serif" font-size="10.00">string</text>
</g>
<!-- Node3&#45;&gt;Node4 -->
<g id="edge3" class="edge"><title>Node3&#45;&gt;Node4</title>
<path fill="none" stroke="midnightblue" d="M185.931,-168.442C196.905,-160.105 213.084,-146.586 224,-132 248.683,-99.0195 266.94,-53.8682 275.872,-29.0962"/>
<polygon fill="midnightblue" stroke="midnightblue" points="279.215,-30.1379 279.215,-19.543 272.608,-27.8257 279.215,-30.1379"/>
</g>
<!-- Node5 -->
<g id="node5" class="node"><title>Node5</title>
<polygon fill="none" stroke="#bfbfbf" points="70,-112.5 70,-131.5 114,-131.5 114,-112.5 70,-112.5"/>
<text text-anchor="middle" x="92" y="-119.5" font-family="Helvetica,sans-Serif" font-size="10.00">vector</text>
</g>
<!-- Node3&#45;&gt;Node5 -->
<g id="edge5" class="edge"><title>Node3&#45;&gt;Node5</title>
<path fill="none" stroke="midnightblue" d="M160.825,-168.324C148.153,-159.979 128.767,-147.212 113.794,-137.352"/>
<polygon fill="midnightblue" stroke="midnightblue" points="115.419,-134.231 105.142,-131.655 111.569,-140.078 115.419,-134.231"/>
</g>
<!-- Node6 -->
<g id="node6" class="node"><title>Node6</title>
<polygon fill="none" stroke="#bfbfbf" points="132.5,-112.5 132.5,-131.5 215.5,-131.5 215.5,-112.5 132.5,-112.5"/>
<text text-anchor="middle" x="174" y="-119.5" font-family="Helvetica,sans-Serif" font-size="10.00">unordered_map</text>
</g>
<!-- Node3&#45;&gt;Node6 -->
<g id="edge6" class="edge"><title>Node3&#45;&gt;Node6</title>
<path fill="none" stroke="midnightblue" d="M174,-168.083C174,-161.006 174,-150.861 174,-141.986"/>
<polygon fill="midnightblue" stroke="midnightblue" points="177.5,-141.751 174,-131.751 170.5,-141.751 177.5,-141.751"/>
</g>
<!-- Node7 -->
<g id="node7" class="node"><title>Node7</title>
<g id="a_node7"><a xlink:href="QualityObject_8h_source.html" target="_top" xlink:title="QualityControl/QualityObject.h">
<polygon fill="none" stroke="black" points="478.5,-112.5 478.5,-131.5 627.5,-131.5 627.5,-112.5 478.5,-112.5"/>
<text text-anchor="middle" x="553" y="-119.5" font-family="Helvetica,sans-Serif" font-size="10.00">QualityControl/QualityObject.h</text>
</a>
</g>
</g>
<!-- Node3&#45;&gt;Node7 -->
<g id="edge7" class="edge"><title>Node3&#45;&gt;Node7</title>
<path fill="none" stroke="midnightblue" d="M234.054,-168.444C301.694,-158.806 411.482,-143.163 482.968,-132.978"/>
<polygon fill="midnightblue" stroke="midnightblue" points="483.821,-136.392 493.227,-131.516 482.834,-129.462 483.821,-136.392"/>
</g>
<!-- Node14 -->
<g id="node14" class="node"><title>Node14</title>
<g id="a_node14"><a xlink:href="MonitorObject_8h.html" target="_top" xlink:title="QualityControl/MonitorObject.h">
<polygon fill="none" stroke="black" points="296.5,-112.5 296.5,-131.5 447.5,-131.5 447.5,-112.5 296.5,-112.5"/>
<text text-anchor="middle" x="372" y="-119.5" font-family="Helvetica,sans-Serif" font-size="10.00">QualityControl/MonitorObject.h</text>
</a>
</g>
</g>
<!-- Node3&#45;&gt;Node14 -->
<g id="edge15" class="edge"><title>Node3&#45;&gt;Node14</title>
<path fill="none" stroke="midnightblue" d="M205.374,-168.444C239.263,-159.201 293.403,-144.436 330.724,-134.257"/>
<polygon fill="midnightblue" stroke="midnightblue" points="332.046,-137.524 340.773,-131.516 330.205,-130.771 332.046,-137.524"/>
</g>
<!-- Node8 -->
<g id="node8" class="node"><title>Node8</title>
<polygon fill="none" stroke="#bfbfbf" points="752,-56.5 752,-75.5 806,-75.5 806,-56.5 752,-56.5"/>
<text text-anchor="middle" x="779" y="-63.5" font-family="Helvetica,sans-Serif" font-size="10.00">iostream</text>
</g>
<!-- Node7&#45;&gt;Node8 -->
<g id="edge8" class="edge"><title>Node7&#45;&gt;Node8</title>
<path fill="none" stroke="midnightblue" d="M589.812,-112.424C626.092,-103.941 683.365,-90.4638 742.068,-76.2056"/>
<polygon fill="midnightblue" stroke="midnightblue" points="742.993,-79.5827 751.882,-73.8178 741.338,-72.7812 742.993,-79.5827"/>
</g>
<!-- Node9 -->
<g id="node9" class="node"><title>Node9</title>
<polygon fill="none" stroke="#bfbfbf" points="482.5,-56.5 482.5,-75.5 517.5,-75.5 517.5,-56.5 482.5,-56.5"/>
<text text-anchor="middle" x="500" y="-63.5" font-family="Helvetica,sans-Serif" font-size="10.00">map</text>
</g>
<!-- Node7&#45;&gt;Node9 -->
<g id="edge9" class="edge"><title>Node7&#45;&gt;Node9</title>
<path fill="none" stroke="midnightblue" d="M544.248,-112.083C536.53,-104.22 525.095,-92.5688 515.783,-83.0813"/>
<polygon fill="midnightblue" stroke="midnightblue" points="518.092,-80.4363 508.589,-75.7511 513.096,-85.3396 518.092,-80.4363"/>
</g>
<!-- Node10 -->
<g id="node10" class="node"><title>Node10</title>
<polygon fill="none" stroke="#bfbfbf" points="535.5,-56.5 535.5,-75.5 594.5,-75.5 594.5,-56.5 535.5,-56.5"/>
<text text-anchor="middle" x="565" y="-63.5" font-family="Helvetica,sans-Serif" font-size="10.00">TObject.h</text>
</g>
<!-- Node7&#45;&gt;Node10 -->
<g id="edge10" class="edge"><title>Node7&#45;&gt;Node10</title>
<path fill="none" stroke="midnightblue" d="M554.982,-112.083C556.572,-104.927 558.859,-94.6353 560.846,-85.6911"/>
<polygon fill="midnightblue" stroke="midnightblue" points="564.303,-86.2722 563.055,-75.7511 557.469,-84.7537 564.303,-86.2722"/>
</g>
<!-- Node11 -->
<g id="node11" class="node"><title>Node11</title>
<polygon fill="none" stroke="#bfbfbf" points="348,-56.5 348,-75.5 464,-75.5 464,-56.5 348,-56.5"/>
<text text-anchor="middle" x="406" y="-63.5" font-family="Helvetica,sans-Serif" font-size="10.00">Common/Exceptions.h</text>
</g>
<!-- Node7&#45;&gt;Node11 -->
<g id="edge11" class="edge"><title>Node7&#45;&gt;Node11</title>
<path fill="none" stroke="midnightblue" d="M529.707,-112.444C505.193,-103.438 466.404,-89.1891 438.8,-79.049"/>
<polygon fill="midnightblue" stroke="midnightblue" points="439.777,-75.6793 429.184,-75.5164 437.363,-82.25 439.777,-75.6793"/>
</g>
<!-- Node12 -->
<g id="node12" class="node"><title>Node12</title>
<g id="a_node12"><a xlink:href="Quality_8h.html" target="_top" xlink:title="QualityControl/Quality.h">
<polygon fill="none" stroke="black" points="612.5,-56.5 612.5,-75.5 733.5,-75.5 733.5,-56.5 612.5,-56.5"/>
<text text-anchor="middle" x="673" y="-63.5" font-family="Helvetica,sans-Serif" font-size="10.00">QualityControl/Quality.h</text>
</a>
</g>
</g>
<!-- Node7&#45;&gt;Node12 -->
<g id="edge12" class="edge"><title>Node7&#45;&gt;Node12</title>
<path fill="none" stroke="midnightblue" d="M572.014,-112.444C591.588,-103.636 622.308,-89.8116 644.729,-79.722"/>
<polygon fill="midnightblue" stroke="midnightblue" points="646.392,-82.8119 654.075,-75.5164 643.519,-76.4284 646.392,-82.8119"/>
</g>
<!-- Node12&#45;&gt;Node4 -->
<g id="edge14" class="edge"><title>Node12&#45;&gt;Node4</title>
<path fill="none" stroke="midnightblue" d="M612.335,-56.6217C527.605,-44.9199 376.993,-24.1192 312.588,-15.2244"/>
<polygon fill="midnightblue" stroke="midnightblue" points="313.044,-11.7543 302.659,-13.8532 312.086,-18.6885 313.044,-11.7543"/>
</g>
<!-- Node13 -->
<g id="node13" class="node"><title>Node13</title>
<polygon fill="none" stroke="#bfbfbf" points="483,-0.5 483,-19.5 539,-19.5 539,-0.5 483,-0.5"/>
<text text-anchor="middle" x="511" y="-7.5" font-family="Helvetica,sans-Serif" font-size="10.00">Rtypes.h</text>
</g>
<!-- Node12&#45;&gt;Node13 -->
<g id="edge13" class="edge"><title>Node12&#45;&gt;Node13</title>
<path fill="none" stroke="midnightblue" d="M647.331,-56.4435C620.077,-47.3591 576.816,-32.9388 546.349,-22.7831"/>
<polygon fill="midnightblue" stroke="midnightblue" points="547.143,-19.3584 536.549,-19.5164 544.929,-25.9992 547.143,-19.3584"/>
</g>
<!-- Node14&#45;&gt;Node4 -->
<g id="edge16" class="edge"><title>Node14&#45;&gt;Node4</title>
<path fill="none" stroke="midnightblue" d="M353.417,-112.368C338.719,-104.689 318.633,-92.1763 306,-76 295.367,-62.3849 289.111,-43.5903 285.667,-29.7118"/>
<polygon fill="midnightblue" stroke="midnightblue" points="289.058,-28.8352 283.479,-19.8284 282.224,-30.3487 289.058,-28.8352"/>
</g>
<!-- Node14&#45;&gt;Node9 -->
<g id="edge17" class="edge"><title>Node14&#45;&gt;Node9</title>
<path fill="none" stroke="midnightblue" d="M392.282,-112.444C414.091,-103.243 448.873,-88.5691 472.988,-78.3957"/>
<polygon fill="midnightblue" stroke="midnightblue" points="474.433,-81.5849 482.286,-74.473 471.712,-75.1353 474.433,-81.5849"/>
</g>
<!-- Node14&#45;&gt;Node10 -->
<g id="edge19" class="edge"><title>Node14&#45;&gt;Node10</title>
<path fill="none" stroke="midnightblue" d="M402.581,-112.444C435.809,-103.147 489.009,-88.2617 525.406,-78.0781"/>
<polygon fill="midnightblue" stroke="midnightblue" points="526.509,-81.4041 535.196,-75.339 524.623,-74.663 526.509,-81.4041"/>
</g>
<!-- Node14&#45;&gt;Node11 -->
<g id="edge20" class="edge"><title>Node14&#45;&gt;Node11</title>
<path fill="none" stroke="midnightblue" d="M377.614,-112.083C382.367,-104.534 389.318,-93.4948 395.152,-84.2298"/>
<polygon fill="midnightblue" stroke="midnightblue" points="398.124,-86.0783 400.49,-75.7511 392.2,-82.3486 398.124,-86.0783"/>
</g>
<!-- Node14&#45;&gt;Node13 -->
<g id="edge18" class="edge"><title>Node14&#45;&gt;Node13</title>
<path fill="none" stroke="midnightblue" d="M361.794,-112.417C347.542,-99.3936 324.924,-74.2322 339,-56 355.187,-35.0334 426.98,-21.9536 472.543,-15.6095"/>
<polygon fill="midnightblue" stroke="midnightblue" points="473.229,-19.0489 482.674,-14.2491 472.297,-12.1112 473.229,-19.0489"/>
</g>
</g>
</svg>
