<?xml version="1.0" encoding="UTF-8" standalone="no"?>
<!DOCTYPE svg PUBLIC "-//W3C//DTD SVG 1.1//EN"
 "http://www.w3.org/Graphics/SVG/1.1/DTD/svg11.dtd">
<!-- Generated by graphviz version 2.38.0 (20140413.2041)
 -->
<!-- Title: Modules/MUON/MCH/src/Decoding.cxx Pages: 1 -->
<!--zoomable 397 -->
<svg id="main" version="1.1" xmlns="http://www.w3.org/2000/svg" xmlns:xlink="http://www.w3.org/1999/xlink" xml:space="preserve" onload="init(evt)">
<style type="text/css"><![CDATA[
.edge:hover path { stroke: red; }
.edge:hover polygon { stroke: red; fill: red; }
]]></style>
<script type="text/javascript"><![CDATA[
var edges = document.getElementsByTagName('g');
if (edges && edges.length) {
  for (var i=0;i<edges.length;i++) {
    if (edges[i].id.substr(0,4)=='edge') {
      edges[i].setAttribute('class','edge');
    }
  }
}
]]></script>
        <defs>
                <circle id="rim" cx="0" cy="0" r="7"/>
                <circle id="rim2" cx="0" cy="0" r="3.5"/>
                <g id="zoomPlus">
                        <use xlink:href="#rim" fill="#404040">
                                <set attributeName="fill" to="#808080" begin="zoomplus.mouseover" end="zoomplus.mouseout"/>
                        </use>
                        <path d="M-4,0h8M0,-4v8" fill="none" stroke="white" stroke-width="1.5" pointer-events="none"/>
                </g>
                <g id="zoomMin">
                        <use xlink:href="#rim" fill="#404040">
                                <set attributeName="fill" to="#808080" begin="zoomminus.mouseover" end="zoomminus.mouseout"/>
                        </use>
                        <path d="M-4,0h8" fill="none" stroke="white" stroke-width="1.5" pointer-events="none"/>
                </g>
                <g id="dirArrow">
                        <path fill="none" stroke="white" stroke-width="1.5" d="M0,-3.0v7 M-2.5,-0.5L0,-3.0L2.5,-0.5"/>
                </g>
               <g id="resetDef">
                       <use xlink:href="#rim2" fill="#404040">
                               <set attributeName="fill" to="#808080" begin="reset.mouseover" end="reset.mouseout"/>
                       </use>
               </g>
        </defs>

<script type="text/javascript">
var viewWidth = 1176;
var viewHeight = 397;
var sectionId = 'dynsection-0';
</script>
<script xlink:href="svgpan.js"/>
<svg id="graph" class="graph">
<g id="viewport">
<title>Modules/MUON/MCH/src/Decoding.cxx</title>
<!-- Node1 -->
<g id="node1" class="node"><title>Node1</title>
<polygon fill="#bfbfbf" stroke="black" points="294.5,-358.5 294.5,-388.5 424.5,-388.5 424.5,-358.5 294.5,-358.5"/>
<text text-anchor="start" x="302.5" y="-376.5" font-family="Helvetica,sans-Serif" font-size="10.00">Modules/MUON/MCH/src</text>
<text text-anchor="middle" x="359.5" y="-365.5" font-family="Helvetica,sans-Serif" font-size="10.00">/Decoding.cxx</text>
</g>
<!-- Node2 -->
<g id="node2" class="node"><title>Node2</title>
<polygon fill="none" stroke="#bfbfbf" points="0,-302.5 0,-321.5 65,-321.5 65,-302.5 0,-302.5"/>
<text text-anchor="middle" x="32.5" y="-309.5" font-family="Helvetica,sans-Serif" font-size="10.00">TCanvas.h</text>
</g>
<!-- Node1&#45;&gt;Node2 -->
<g id="edge1" class="edge"><title>Node1&#45;&gt;Node2</title>
<path fill="none" stroke="midnightblue" d="M294.292,-361.627C238.706,-352.203 156.437,-337.888 74.9656,-322.033"/>
<polygon fill="midnightblue" stroke="midnightblue" points="75.5215,-318.575 65.0358,-320.092 74.1786,-325.445 75.5215,-318.575"/>
</g>
<!-- Node3 -->
<g id="node3" class="node"><title>Node3</title>
<polygon fill="none" stroke="#bfbfbf" points="83.5,-302.5 83.5,-321.5 127.5,-321.5 127.5,-302.5 83.5,-302.5"/>
<text text-anchor="middle" x="105.5" y="-309.5" font-family="Helvetica,sans-Serif" font-size="10.00">TH1.h</text>
</g>
<!-- Node1&#45;&gt;Node3 -->
<g id="edge2" class="edge"><title>Node1&#45;&gt;Node3</title>
<path fill="none" stroke="midnightblue" d="M294.362,-358.825C252.111,-349.706 195.676,-337.061 137.532,-322.159"/>
<polygon fill="midnightblue" stroke="midnightblue" points="138.364,-318.759 127.807,-319.649 136.615,-325.537 138.364,-318.759"/>
</g>
<!-- Node4 -->
<g id="node4" class="node"><title>Node4</title>
<polygon fill="none" stroke="#bfbfbf" points="145.5,-302.5 145.5,-321.5 189.5,-321.5 189.5,-302.5 145.5,-302.5"/>
<text text-anchor="middle" x="167.5" y="-309.5" font-family="Helvetica,sans-Serif" font-size="10.00">TH2.h</text>
</g>
<!-- Node1&#45;&gt;Node4 -->
<g id="edge3" class="edge"><title>Node1&#45;&gt;Node4</title>
<path fill="none" stroke="midnightblue" d="M313.999,-358.399C278.73,-347.47 230.748,-332.6 199.457,-322.903"/>
<polygon fill="midnightblue" stroke="midnightblue" points="200.116,-319.443 189.528,-319.826 198.044,-326.13 200.116,-319.443"/>
</g>
<!-- Node5 -->
<g id="node5" class="node"><title>Node5</title>
<polygon fill="none" stroke="#bfbfbf" points="208,-302.5 208,-321.5 349,-321.5 349,-302.5 208,-302.5"/>
<text text-anchor="middle" x="278.5" y="-309.5" font-family="Helvetica,sans-Serif" font-size="10.00">Headers/RAWDataHeader.h</text>
</g>
<!-- Node1&#45;&gt;Node5 -->
<g id="edge4" class="edge"><title>Node1&#45;&gt;Node5</title>
<path fill="none" stroke="midnightblue" d="M340.304,-358.399C327.684,-349.129 311.207,-337.025 298.439,-327.647"/>
<polygon fill="midnightblue" stroke="midnightblue" points="300.418,-324.757 290.286,-321.658 296.273,-330.399 300.418,-324.757"/>
</g>
<!-- Node6 -->
<g id="node6" class="node"><title>Node6</title>
<g id="a_node6"><a xlink:href="QcInfoLogger_8h.html" target="_top" xlink:title="QualityControl/QcInfoLogger.h">
<polygon fill="none" stroke="black" points="367,-302.5 367,-321.5 516,-321.5 516,-302.5 367,-302.5"/>
<text text-anchor="middle" x="441.5" y="-309.5" font-family="Helvetica,sans-Serif" font-size="10.00">QualityControl/QcInfoLogger.h</text>
</a>
</g>
</g>
<!-- Node1&#45;&gt;Node6 -->
<g id="edge5" class="edge"><title>Node1&#45;&gt;Node6</title>
<path fill="none" stroke="midnightblue" d="M378.933,-358.399C391.708,-349.129 408.389,-337.025 421.314,-327.647"/>
<polygon fill="midnightblue" stroke="midnightblue" points="423.53,-330.364 429.568,-321.658 419.419,-324.698 423.53,-330.364"/>
</g>
<!-- Node8 -->
<g id="node8" class="node"><title>Node8</title>
<g id="a_node8"><a xlink:href="Decoding_8h.html" target="_top" xlink:title="MCH/Decoding.h">
<polygon fill="none" stroke="black" points="534.5,-302.5 534.5,-321.5 626.5,-321.5 626.5,-302.5 534.5,-302.5"/>
<text text-anchor="middle" x="580.5" y="-309.5" font-family="Helvetica,sans-Serif" font-size="10.00">MCH/Decoding.h</text>
</a>
</g>
</g>
<!-- Node1&#45;&gt;Node8 -->
<g id="edge7" class="edge"><title>Node1&#45;&gt;Node8</title>
<path fill="none" stroke="midnightblue" d="M411.594,-358.475C450.554,-347.986 503.106,-333.837 539.189,-324.122"/>
<polygon fill="midnightblue" stroke="midnightblue" points="540.159,-327.486 548.905,-321.506 538.339,-320.727 540.159,-327.486"/>
</g>
<!-- Node29 -->
<g id="node29" class="node"><title>Node29</title>
<polygon fill="none" stroke="#bfbfbf" points="701.5,-246.5 701.5,-265.5 795.5,-265.5 795.5,-246.5 701.5,-246.5"/>
<text text-anchor="middle" x="748.5" y="-253.5" font-family="Helvetica,sans-Serif" font-size="10.00">MCHBase/Digit.h</text>
</g>
<!-- Node1&#45;&gt;Node29 -->
<g id="edge36" class="edge"><title>Node1&#45;&gt;Node29</title>
<path fill="none" stroke="midnightblue" d="M424.724,-366.89C481.718,-360.516 565.984,-347.492 635.5,-322 644.888,-318.557 695.162,-288.894 725.401,-270.851"/>
<polygon fill="midnightblue" stroke="midnightblue" points="727.287,-273.801 734.074,-265.666 723.695,-267.792 727.287,-273.801"/>
</g>
<!-- Node30 -->
<g id="node30" class="node"><title>Node30</title>
<polygon fill="none" stroke="#bfbfbf" points="682.5,-302.5 682.5,-321.5 738.5,-321.5 738.5,-302.5 682.5,-302.5"/>
<text text-anchor="middle" x="710.5" y="-309.5" font-family="Helvetica,sans-Serif" font-size="10.00">cinttypes</text>
</g>
<!-- Node1&#45;&gt;Node30 -->
<g id="edge37" class="edge"><title>Node1&#45;&gt;Node30</title>
<path fill="none" stroke="midnightblue" d="M424.768,-362.785C487.42,-353.236 584.639,-337.828 668.5,-322 669.737,-321.767 670.993,-321.525 672.26,-321.277"/>
<polygon fill="midnightblue" stroke="midnightblue" points="672.966,-324.705 682.072,-319.289 671.576,-317.845 672.966,-324.705"/>
</g>
<!-- Node7 -->
<g id="node7" class="node"><title>Node7</title>
<polygon fill="none" stroke="#bfbfbf" points="276.5,-246.5 276.5,-265.5 406.5,-265.5 406.5,-246.5 276.5,-246.5"/>
<text text-anchor="middle" x="341.5" y="-253.5" font-family="Helvetica,sans-Serif" font-size="10.00">InfoLogger/InfoLogger.hxx</text>
</g>
<!-- Node6&#45;&gt;Node7 -->
<g id="edge6" class="edge"><title>Node6&#45;&gt;Node7</title>
<path fill="none" stroke="midnightblue" d="M425.433,-302.324C409.542,-293.743 384.993,-280.486 366.542,-270.522"/>
<polygon fill="midnightblue" stroke="midnightblue" points="367.989,-267.326 357.527,-265.655 364.663,-273.486 367.989,-267.326"/>
</g>
<!-- Node9 -->
<g id="node9" class="node"><title>Node9</title>
<g id="a_node9"><a xlink:href="TaskInterface_8h.html" target="_top" xlink:title="QualityControl/TaskInterface.h">
<polygon fill="none" stroke="black" points="387.5,-185 387.5,-204 537.5,-204 537.5,-185 387.5,-185"/>
<text text-anchor="middle" x="462.5" y="-192" font-family="Helvetica,sans-Serif" font-size="10.00">QualityControl/TaskInterface.h</text>
</a>
</g>
</g>
<!-- Node8&#45;&gt;Node9 -->
<g id="edge8" class="edge"><title>Node8&#45;&gt;Node9</title>
<path fill="none" stroke="midnightblue" d="M542.3,-302.465C509.157,-294.194 464.903,-280.762 454.5,-266 443.776,-250.783 448.502,-228.964 454.173,-213.64"/>
<polygon fill="midnightblue" stroke="midnightblue" points="457.478,-214.808 458.072,-204.23 451.011,-212.128 457.478,-214.808"/>
</g>
<!-- Node26 -->
<g id="node26" class="node"><title>Node26</title>
<g id="a_node26"><a xlink:href="sampa__header_8h_source.html" target="_top" xlink:title="MCH/sampa_header.h">
<polygon fill="none" stroke="black" points="463,-246.5 463,-265.5 578,-265.5 578,-246.5 463,-246.5"/>
<text text-anchor="middle" x="520.5" y="-253.5" font-family="Helvetica,sans-Serif" font-size="10.00">MCH/sampa_header.h</text>
</a>
</g>
</g>
<!-- Node8&#45;&gt;Node26 -->
<g id="edge31" class="edge"><title>Node8&#45;&gt;Node26</title>
<path fill="none" stroke="midnightblue" d="M570.86,-302.324C561.99,-294.341 548.625,-282.313 537.892,-272.653"/>
<polygon fill="midnightblue" stroke="midnightblue" points="540.09,-269.922 530.315,-265.834 535.407,-275.125 540.09,-269.922"/>
</g>
<!-- Node27 -->
<g id="node27" class="node"><title>Node27</title>
<g id="a_node27"><a xlink:href="Mapping_8h_source.html" target="_top" xlink:title="MCH/Mapping.h">
<polygon fill="none" stroke="black" points="595.5,-246.5 595.5,-265.5 683.5,-265.5 683.5,-246.5 595.5,-246.5"/>
<text text-anchor="middle" x="639.5" y="-253.5" font-family="Helvetica,sans-Serif" font-size="10.00">MCH/Mapping.h</text>
</a>
</g>
</g>
<!-- Node8&#45;&gt;Node27 -->
<g id="edge32" class="edge"><title>Node8&#45;&gt;Node27</title>
<path fill="none" stroke="midnightblue" d="M589.979,-302.324C598.701,-294.341 611.843,-282.313 622.398,-272.653"/>
<polygon fill="midnightblue" stroke="midnightblue" points="624.834,-275.167 629.848,-265.834 620.108,-270.004 624.834,-275.167"/>
</g>
<!-- Node8&#45;&gt;Node29 -->
<g id="edge35" class="edge"><title>Node8&#45;&gt;Node29</title>
<path fill="none" stroke="midnightblue" d="M607.12,-302.444C635.506,-293.32 680.637,-278.813 712.253,-268.651"/>
<polygon fill="midnightblue" stroke="midnightblue" points="713.555,-271.909 722.004,-265.516 711.413,-265.244 713.555,-271.909"/>
</g>
<!-- Node10 -->
<g id="node10" class="node"><title>Node10</title>
<polygon fill="none" stroke="#bfbfbf" points="488,-0.5 488,-19.5 523,-19.5 523,-0.5 488,-0.5"/>
<text text-anchor="middle" x="505.5" y="-7.5" font-family="Helvetica,sans-Serif" font-size="10.00">map</text>
</g>
<!-- Node9&#45;&gt;Node10 -->
<g id="edge9" class="edge"><title>Node9&#45;&gt;Node10</title>
<path fill="none" stroke="midnightblue" d="M426.4,-184.843C404.656,-177.567 378.698,-164.75 365.5,-143 345.441,-109.943 342.723,-87.246 365.5,-56 391.037,-20.9681 444.292,-12.611 477.259,-10.9548"/>
<polygon fill="midnightblue" stroke="midnightblue" points="477.71,-14.4422 487.592,-10.6212 477.484,-7.4458 477.71,-14.4422"/>
</g>
<!-- Node11 -->
<g id="node11" class="node"><title>Node11</title>
<polygon fill="none" stroke="#bfbfbf" points="418.5,-62 418.5,-81 470.5,-81 470.5,-62 418.5,-62"/>
<text text-anchor="middle" x="444.5" y="-69" font-family="Helvetica,sans-Serif" font-size="10.00">memory</text>
</g>
<!-- Node9&#45;&gt;Node11 -->
<g id="edge10" class="edge"><title>Node9&#45;&gt;Node11</title>
<path fill="none" stroke="midnightblue" d="M456.551,-184.674C450.387,-174.954 441.155,-158.622 437.5,-143 433.476,-125.801 436.169,-105.712 439.31,-91.3889"/>
<polygon fill="midnightblue" stroke="midnightblue" points="442.801,-91.8508 441.805,-81.3029 436.006,-90.1698 442.801,-91.8508"/>
</g>
<!-- Node12 -->
<g id="node12" class="node"><title>Node12</title>
<polygon fill="none" stroke="#bfbfbf" points="573,-0.5 573,-19.5 614,-19.5 614,-0.5 573,-0.5"/>
<text text-anchor="middle" x="593.5" y="-7.5" font-family="Helvetica,sans-Serif" font-size="10.00">string</text>
</g>
<!-- Node9&#45;&gt;Node12 -->
<g id="edge11" class="edge"><title>Node9&#45;&gt;Node12</title>
<path fill="none" stroke="midnightblue" d="M453.824,-184.895C431.636,-161.848 376.802,-97.6581 409.5,-56 419.002,-43.8943 512.983,-25.4328 562.822,-16.3824"/>
<polygon fill="midnightblue" stroke="midnightblue" points="563.517,-19.8136 572.74,-14.5997 562.279,-12.924 563.517,-19.8136"/>
</g>
<!-- Node13 -->
<g id="node13" class="node"><title>Node13</title>
<polygon fill="none" stroke="#bfbfbf" points="323,-0.5 323,-19.5 406,-19.5 406,-0.5 323,-0.5"/>
<text text-anchor="middle" x="364.5" y="-7.5" font-family="Helvetica,sans-Serif" font-size="10.00">unordered_map</text>
</g>
<!-- Node9&#45;&gt;Node13 -->
<g id="edge12" class="edge"><title>Node9&#45;&gt;Node13</title>
<path fill="none" stroke="midnightblue" d="M419.308,-184.999C395.351,-177.933 367.29,-165.284 351.5,-143 327.182,-108.679 344.186,-56.1314 355.924,-28.8415"/>
<polygon fill="midnightblue" stroke="midnightblue" points="359.123,-30.2624 360.067,-19.7097 352.748,-27.3698 359.123,-30.2624"/>
</g>
<!-- Node14 -->
<g id="node14" class="node"><title>Node14</title>
<polygon fill="none" stroke="#bfbfbf" points="446,-123.5 446,-142.5 571,-142.5 571,-123.5 446,-123.5"/>
<text text-anchor="middle" x="508.5" y="-130.5" font-family="Helvetica,sans-Serif" font-size="10.00">Framework/InitContext.h</text>
</g>
<!-- Node9&#45;&gt;Node14 -->
<g id="edge13" class="edge"><title>Node9&#45;&gt;Node14</title>
<path fill="none" stroke="midnightblue" d="M469.091,-184.975C475.991,-176.05 487.002,-161.807 495.634,-150.643"/>
<polygon fill="midnightblue" stroke="midnightblue" points="498.574,-152.561 501.922,-142.509 493.036,-148.28 498.574,-152.561"/>
</g>
<!-- Node15 -->
<g id="node15" class="node"><title>Node15</title>
<polygon fill="none" stroke="#bfbfbf" points="589.5,-123.5 589.5,-142.5 749.5,-142.5 749.5,-123.5 589.5,-123.5"/>
<text text-anchor="middle" x="669.5" y="-130.5" font-family="Helvetica,sans-Serif" font-size="10.00">Framework/ProcessingContext.h</text>
</g>
<!-- Node9&#45;&gt;Node15 -->
<g id="edge14" class="edge"><title>Node9&#45;&gt;Node15</title>
<path fill="none" stroke="midnightblue" d="M492.158,-184.975C528.434,-174.548 589.964,-156.862 630.164,-145.307"/>
<polygon fill="midnightblue" stroke="midnightblue" points="631.253,-148.635 639.897,-142.509 629.319,-141.908 631.253,-148.635"/>
</g>
<!-- Node16 -->
<g id="node16" class="node"><title>Node16</title>
<g id="a_node16"><a xlink:href="Activity_8h.html" target="_top" xlink:title="QualityControl/Activity.h">
<polygon fill="none" stroke="black" points="768,-123.5 768,-142.5 891,-142.5 891,-123.5 768,-123.5"/>
<text text-anchor="middle" x="829.5" y="-130.5" font-family="Helvetica,sans-Serif" font-size="10.00">QualityControl/Activity.h</text>
</a>
</g>
</g>
<!-- Node9&#45;&gt;Node16 -->
<g id="edge15" class="edge"><title>Node9&#45;&gt;Node16</title>
<path fill="none" stroke="midnightblue" d="M515.082,-184.975C581.578,-174.194 695.934,-155.654 766.875,-144.153"/>
<polygon fill="midnightblue" stroke="midnightblue" points="767.704,-147.564 777.015,-142.509 766.584,-140.655 767.704,-147.564"/>
</g>
<!-- Node17 -->
<g id="node17" class="node"><title>Node17</title>
<g id="a_node17"><a xlink:href="ObjectsManager_8h.html" target="_top" xlink:title="QualityControl/ObjectsManager.h">
<polygon fill="none" stroke="black" points="909,-123.5 909,-142.5 1070,-142.5 1070,-123.5 909,-123.5"/>
<text text-anchor="middle" x="989.5" y="-130.5" font-family="Helvetica,sans-Serif" font-size="10.00">QualityControl/ObjectsManager.h</text>
</a>
</g>
</g>
<!-- Node9&#45;&gt;Node17 -->
<g id="edge16" class="edge"><title>Node9&#45;&gt;Node17</title>
<path fill="none" stroke="midnightblue" d="M525.865,-184.976C541.433,-182.95 558.062,-180.843 573.5,-179 685.442,-165.636 814.541,-151.937 898.857,-143.221"/>
<polygon fill="midnightblue" stroke="midnightblue" points="899.325,-146.692 908.913,-142.183 898.607,-139.729 899.325,-146.692"/>
</g>
<!-- Node17&#45;&gt;Node11 -->
<g id="edge30" class="edge"><title>Node17&#45;&gt;Node11</title>
<path fill="none" stroke="midnightblue" d="M908.975,-123.805C906.115,-123.531 903.283,-123.261 900.5,-123 716.174,-105.686 666.444,-126.178 485.5,-87 482.076,-86.2586 478.545,-85.3094 475.06,-84.2523"/>
<polygon fill="midnightblue" stroke="midnightblue" points="476.077,-80.902 465.483,-81.0698 473.869,-87.5448 476.077,-80.902"/>
</g>
<!-- Node17&#45;&gt;Node12 -->
<g id="edge29" class="edge"><title>Node17&#45;&gt;Node12</title>
<path fill="none" stroke="midnightblue" d="M916.637,-123.471C832.644,-113.301 703.408,-96.4916 682.5,-87 674.225,-83.2434 634.049,-47.6194 610.601,-26.5039"/>
<polygon fill="midnightblue" stroke="midnightblue" points="612.853,-23.8209 603.085,-19.7162 608.161,-29.016 612.853,-23.8209"/>
</g>
<!-- Node18 -->
<g id="node18" class="node"><title>Node18</title>
<g id="a_node18"><a xlink:href="MonitorObject_8h.html" target="_top" xlink:title="QualityControl/MonitorObject.h">
<polygon fill="none" stroke="black" points="691,-62 691,-81 842,-81 842,-62 691,-62"/>
<text text-anchor="middle" x="766.5" y="-69" font-family="Helvetica,sans-Serif" font-size="10.00">QualityControl/MonitorObject.h</text>
</a>
</g>
</g>
<!-- Node17&#45;&gt;Node18 -->
<g id="edge17" class="edge"><title>Node17&#45;&gt;Node18</title>
<path fill="none" stroke="midnightblue" d="M957.55,-123.475C918.304,-113.004 851.622,-95.2118 808.327,-83.6601"/>
<polygon fill="midnightblue" stroke="midnightblue" points="808.956,-80.2054 798.391,-81.0091 807.151,-86.9688 808.956,-80.2054"/>
</g>
<!-- Node22 -->
<g id="node22" class="node"><title>Node22</title>
<g id="a_node22"><a xlink:href="MonitorObjectCollection_8h.html" target="_top" xlink:title="QualityControl/MonitorObject\lCollection.h">
<polygon fill="none" stroke="black" points="918,-56.5 918,-86.5 1061,-86.5 1061,-56.5 918,-56.5"/>
<text text-anchor="start" x="926" y="-74.5" font-family="Helvetica,sans-Serif" font-size="10.00">QualityControl/MonitorObject</text>
<text text-anchor="middle" x="989.5" y="-63.5" font-family="Helvetica,sans-Serif" font-size="10.00">Collection.h</text>
</a>
</g>
</g>
<!-- Node17&#45;&gt;Node22 -->
<g id="edge23" class="edge"><title>Node17&#45;&gt;Node22</title>
<path fill="none" stroke="midnightblue" d="M989.5,-123.475C989.5,-116.471 989.5,-106.192 989.5,-96.6956"/>
<polygon fill="midnightblue" stroke="midnightblue" points="993,-96.5229 989.5,-86.523 986,-96.523 993,-96.5229"/>
</g>
<!-- Node25 -->
<g id="node25" class="node"><title>Node25</title>
<g id="a_node25"><a xlink:href="TaskConfig_8h.html" target="_top" xlink:title="QualityControl/TaskConfig.h">
<polygon fill="none" stroke="black" points="494.5,-62 494.5,-81 634.5,-81 634.5,-62 494.5,-62"/>
<text text-anchor="middle" x="564.5" y="-69" font-family="Helvetica,sans-Serif" font-size="10.00">QualityControl/TaskConfig.h</text>
</a>
</g>
</g>
<!-- Node17&#45;&gt;Node25 -->
<g id="edge26" class="edge"><title>Node17&#45;&gt;Node25</title>
<path fill="none" stroke="midnightblue" d="M918.523,-123.467C849.465,-114.969 741.627,-101.177 648.5,-87 639.89,-85.6893 630.799,-84.2149 621.904,-82.7213"/>
<polygon fill="midnightblue" stroke="midnightblue" points="622.425,-79.2598 611.98,-81.0346 621.252,-86.1608 622.425,-79.2598"/>
</g>
<!-- Node18&#45;&gt;Node10 -->
<g id="edge19" class="edge"><title>Node18&#45;&gt;Node10</title>
<path fill="none" stroke="midnightblue" d="M729.105,-61.9751C676.032,-49.8761 580.091,-28.0045 533.034,-17.277"/>
<polygon fill="midnightblue" stroke="midnightblue" points="533.764,-13.8536 523.236,-15.0433 532.208,-20.6785 533.764,-13.8536"/>
</g>
<!-- Node18&#45;&gt;Node12 -->
<g id="edge18" class="edge"><title>Node18&#45;&gt;Node12</title>
<path fill="none" stroke="midnightblue" d="M741.713,-61.9751C710.639,-51.2877 657.394,-32.975 623.895,-21.4536"/>
<polygon fill="midnightblue" stroke="midnightblue" points="624.773,-18.0547 614.179,-18.112 622.497,-24.6741 624.773,-18.0547"/>
</g>
<!-- Node19 -->
<g id="node19" class="node"><title>Node19</title>
<polygon fill="none" stroke="#bfbfbf" points="662.5,-0.5 662.5,-19.5 718.5,-19.5 718.5,-0.5 662.5,-0.5"/>
<text text-anchor="middle" x="690.5" y="-7.5" font-family="Helvetica,sans-Serif" font-size="10.00">Rtypes.h</text>
</g>
<!-- Node18&#45;&gt;Node19 -->
<g id="edge20" class="edge"><title>Node18&#45;&gt;Node19</title>
<path fill="none" stroke="midnightblue" d="M755.611,-61.9751C743.534,-52.5199 723.833,-37.0961 709.26,-25.6871"/>
<polygon fill="midnightblue" stroke="midnightblue" points="711.4,-22.9177 701.369,-19.5091 707.085,-28.4295 711.4,-22.9177"/>
</g>
<!-- Node20 -->
<g id="node20" class="node"><title>Node20</title>
<polygon fill="none" stroke="#bfbfbf" points="737,-0.5 737,-19.5 796,-19.5 796,-0.5 737,-0.5"/>
<text text-anchor="middle" x="766.5" y="-7.5" font-family="Helvetica,sans-Serif" font-size="10.00">TObject.h</text>
</g>
<!-- Node18&#45;&gt;Node20 -->
<g id="edge21" class="edge"><title>Node18&#45;&gt;Node20</title>
<path fill="none" stroke="midnightblue" d="M766.5,-61.9751C766.5,-53.5803 766.5,-40.4806 766.5,-29.6631"/>
<polygon fill="midnightblue" stroke="midnightblue" points="770,-29.5091 766.5,-19.5091 763,-29.5091 770,-29.5091"/>
</g>
<!-- Node21 -->
<g id="node21" class="node"><title>Node21</title>
<polygon fill="none" stroke="#bfbfbf" points="814.5,-0.5 814.5,-19.5 930.5,-19.5 930.5,-0.5 814.5,-0.5"/>
<text text-anchor="middle" x="872.5" y="-7.5" font-family="Helvetica,sans-Serif" font-size="10.00">Common/Exceptions.h</text>
</g>
<!-- Node18&#45;&gt;Node21 -->
<g id="edge22" class="edge"><title>Node18&#45;&gt;Node21</title>
<path fill="none" stroke="midnightblue" d="M781.687,-61.9751C799.162,-52.1664 828.079,-35.9346 848.583,-24.425"/>
<polygon fill="midnightblue" stroke="midnightblue" points="850.334,-27.456 857.341,-19.5091 846.908,-21.3519 850.334,-27.456"/>
</g>
<!-- Node23 -->
<g id="node23" class="node"><title>Node23</title>
<polygon fill="none" stroke="#bfbfbf" points="952,-0.5 952,-19.5 1021,-19.5 1021,-0.5 952,-0.5"/>
<text text-anchor="middle" x="986.5" y="-7.5" font-family="Helvetica,sans-Serif" font-size="10.00">TObjArray.h</text>
</g>
<!-- Node22&#45;&gt;Node23 -->
<g id="edge24" class="edge"><title>Node22&#45;&gt;Node23</title>
<path fill="none" stroke="midnightblue" d="M988.789,-56.3993C988.389,-48.4664 987.884,-38.458 987.451,-29.8583"/>
<polygon fill="midnightblue" stroke="midnightblue" points="990.936,-29.4688 986.937,-19.6578 983.945,-29.8214 990.936,-29.4688"/>
</g>
<!-- Node24 -->
<g id="node24" class="node"><title>Node24</title>
<polygon fill="none" stroke="#bfbfbf" points="1039.5,-0.5 1039.5,-19.5 1167.5,-19.5 1167.5,-0.5 1039.5,-0.5"/>
<text text-anchor="middle" x="1103.5" y="-7.5" font-family="Helvetica,sans-Serif" font-size="10.00">Mergers/MergeInterface.h</text>
</g>
<!-- Node22&#45;&gt;Node24 -->
<g id="edge25" class="edge"><title>Node22&#45;&gt;Node24</title>
<path fill="none" stroke="midnightblue" d="M1016.52,-56.3993C1035.13,-46.6837 1059.71,-33.8551 1077.99,-24.3137"/>
<polygon fill="midnightblue" stroke="midnightblue" points="1079.67,-27.3876 1086.91,-19.6578 1076.43,-21.182 1079.67,-27.3876"/>
</g>
<!-- Node25&#45;&gt;Node12 -->
<g id="edge27" class="edge"><title>Node25&#45;&gt;Node12</title>
<path fill="none" stroke="midnightblue" d="M568.655,-61.9751C572.876,-53.3152 579.537,-39.6486 584.9,-28.6453"/>
<polygon fill="midnightblue" stroke="midnightblue" points="588.118,-30.0317 589.353,-19.5091 581.825,-26.9648 588.118,-30.0317"/>
</g>
<!-- Node25&#45;&gt;Node13 -->
<g id="edge28" class="edge"><title>Node25&#45;&gt;Node13</title>
<path fill="none" stroke="midnightblue" d="M535.845,-61.9751C500.944,-51.592 441.85,-34.0116 403,-22.4538"/>
<polygon fill="midnightblue" stroke="midnightblue" points="403.685,-19.0059 393.102,-19.5091 401.689,-25.7153 403.685,-19.0059"/>
</g>
<!-- Node27&#45;&gt;Node9 -->
<g id="edge34" class="edge"><title>Node27&#45;&gt;Node9</title>
<path fill="none" stroke="midnightblue" d="M614.14,-246.475C583.516,-236.18 531.843,-218.81 497.454,-207.25"/>
<polygon fill="midnightblue" stroke="midnightblue" points="498.407,-203.878 487.813,-204.009 496.176,-210.513 498.407,-203.878"/>
</g>
<!-- Node28 -->
<g id="node28" class="node"><title>Node28</title>
<polygon fill="none" stroke="#bfbfbf" points="582,-179.5 582,-209.5 697,-209.5 697,-179.5 582,-179.5"/>
<text text-anchor="start" x="590" y="-197.5" font-family="Helvetica,sans-Serif" font-size="10.00">MCHMappingInterface</text>
<text text-anchor="middle" x="639.5" y="-186.5" font-family="Helvetica,sans-Serif" font-size="10.00">/Segmentation.h</text>
</g>
<!-- Node27&#45;&gt;Node28 -->
<g id="edge33" class="edge"><title>Node27&#45;&gt;Node28</title>
<path fill="none" stroke="midnightblue" d="M639.5,-246.475C639.5,-239.471 639.5,-229.192 639.5,-219.696"/>
<polygon fill="midnightblue" stroke="midnightblue" points="643,-219.523 639.5,-209.523 636,-219.523 643,-219.523"/>
</g>
</g>
</svg>
        <g id="navigator" transform="translate(0 0)" fill="#404254">
                <rect fill="#f2f5e9" fill-opacity="0.5" stroke="#606060" stroke-width=".5" x="0" y="0" width="60" height="60"/>
                <use id="zoomplus" xlink:href="#zoomPlus" x="17" y="9" onmousedown="handleZoom(evt,'in')"/>
                <use id="zoomminus" xlink:href="#zoomMin" x="42" y="9" onmousedown="handleZoom(evt,'out')"/>
                <use id="reset" xlink:href="#resetDef" x="30" y="36" onmousedown="handleReset()"/>
                <g id="arrowUp" xlink:href="#dirArrow" transform="translate(30 24)" onmousedown="handlePan(0,-1)">
                  <use xlink:href="#rim" fill="#404040">
                        <set attributeName="fill" to="#808080" begin="arrowUp.mouseover" end="arrowUp.mouseout"/>
                  </use>
                  <path fill="none" stroke="white" stroke-width="1.5" d="M0,-3.0v7 M-2.5,-0.5L0,-3.0L2.5,-0.5"/>
                </g>
                <g id="arrowRight" xlink:href="#dirArrow" transform="rotate(90) translate(36 -43)" onmousedown="handlePan(1,0)">
                  <use xlink:href="#rim" fill="#404040">
                        <set attributeName="fill" to="#808080" begin="arrowRight.mouseover" end="arrowRight.mouseout"/>
                  </use>
                  <path fill="none" stroke="white" stroke-width="1.5" d="M0,-3.0v7 M-2.5,-0.5L0,-3.0L2.5,-0.5"/>
                </g>
                <g id="arrowDown" xlink:href="#dirArrow" transform="rotate(180) translate(-30 -48)" onmousedown="handlePan(0,1)">
                  <use xlink:href="#rim" fill="#404040">
                        <set attributeName="fill" to="#808080" begin="arrowDown.mouseover" end="arrowDown.mouseout"/>
                  </use>
                  <path fill="none" stroke="white" stroke-width="1.5" d="M0,-3.0v7 M-2.5,-0.5L0,-3.0L2.5,-0.5"/>
                </g>
                <g id="arrowLeft" xlink:href="#dirArrow" transform="rotate(270) translate(-36 17)" onmousedown="handlePan(-1,0)">
                  <use xlink:href="#rim" fill="#404040">
                        <set attributeName="fill" to="#808080" begin="arrowLeft.mouseover" end="arrowLeft.mouseout"/>
                  </use>
                  <path fill="none" stroke="white" stroke-width="1.5" d="M0,-3.0v7 M-2.5,-0.5L0,-3.0L2.5,-0.5"/>
                </g>
        </g>
        <svg viewBox="0 0 15 15" width="100%" height="30px" preserveAspectRatio="xMaxYMin meet">
         <g id="arrow_out" transform="scale(0.3 0.3)">
          <a xlink:href="Decoding_8cxx__incl_org.svg" target="_base">
           <rect id="button" ry="5" rx="5" y="6" x="6" height="38" width="38"
                fill="#f2f5e9" fill-opacity="0.5" stroke="#606060" stroke-width="1.0"/>
           <path id="arrow"
             d="M 11.500037,31.436501 C 11.940474,20.09759 22.043105,11.32322 32.158766,21.979434 L 37.068811,17.246167 C 37.068811,17.246167 37.088388,32 37.088388,32 L 22.160133,31.978069 C 22.160133,31.978069 26.997745,27.140456 26.997745,27.140456 C 18.528582,18.264221 13.291696,25.230495 11.500037,31.436501 z"
             style="fill:#404040;"/>
          </a>
         </g>
        </svg>
</svg>
