<?xml version="1.0" encoding="UTF-8" standalone="no"?>
<!DOCTYPE svg PUBLIC "-//W3C//DTD SVG 1.1//EN"
 "http://www.w3.org/Graphics/SVG/1.1/DTD/svg11.dtd">
<!-- Generated by graphviz version 2.38.0 (20140413.2041)
 -->
<!-- Title: Modules/MUON/MCH/include/MCH/Decoding.h Pages: 1 -->
<svg width="469pt" height="173pt"
 viewBox="0.00 0.00 468.50 173.00" xmlns="http://www.w3.org/2000/svg" xmlns:xlink="http://www.w3.org/1999/xlink">
<g id="graph0" class="graph" transform="scale(1 1) rotate(0) translate(4 169)">
<title>Modules/MUON/MCH/include/MCH/Decoding.h</title>
<!-- Node1 -->
<g id="node1" class="node"><title>Node1</title>
<polygon fill="#bfbfbf" stroke="black" points="165,-134.5 165,-164.5 312,-164.5 312,-134.5 165,-134.5"/>
<text text-anchor="start" x="173" y="-152.5" font-family="Helvetica,sans-Serif" font-size="10.00">Modules/MUON/MCH/include</text>
<text text-anchor="middle" x="238.5" y="-141.5" font-family="Helvetica,sans-Serif" font-size="10.00">/MCH/Decoding.h</text>
</g>
<!-- Node2 -->
<g id="node2" class="node"><title>Node2</title>
<g id="a_node2"><a xlink:href="PedestalsTask_8h.html" target="_top" xlink:title="Modules/MUON/MCH/include\l/MCH/PedestalsTask.h">
<polygon fill="none" stroke="black" points="0,-67.5 0,-97.5 147,-97.5 147,-67.5 0,-67.5"/>
<text text-anchor="start" x="8" y="-85.5" font-family="Helvetica,sans-Serif" font-size="10.00">Modules/MUON/MCH/include</text>
<text text-anchor="middle" x="73.5" y="-74.5" font-family="Helvetica,sans-Serif" font-size="10.00">/MCH/PedestalsTask.h</text>
</a>
</g>
</g>
<!-- Node1&#45;&gt;Node2 -->
<g id="edge1" class="edge"><title>Node1&#45;&gt;Node2</title>
<path fill="none" stroke="midnightblue" d="M193.268,-130.682C166.806,-120.257 133.866,-107.281 109.233,-97.5765"/>
<polygon fill="midnightblue" stroke="midnightblue" points="192.111,-133.987 202.697,-134.396 194.676,-127.474 192.111,-133.987"/>
</g>
<!-- Node4 -->
<g id="node4" class="node"><title>Node4</title>
<g id="a_node4"><a xlink:href="PhysicsTask_8h.html" target="_top" xlink:title="Modules/MUON/MCH/include\l/MCH/PhysicsTask.h">
<polygon fill="none" stroke="black" points="165,-67.5 165,-97.5 312,-97.5 312,-67.5 165,-67.5"/>
<text text-anchor="start" x="173" y="-85.5" font-family="Helvetica,sans-Serif" font-size="10.00">Modules/MUON/MCH/include</text>
<text text-anchor="middle" x="238.5" y="-74.5" font-family="Helvetica,sans-Serif" font-size="10.00">/MCH/PhysicsTask.h</text>
</a>
</g>
</g>
<!-- Node1&#45;&gt;Node4 -->
<g id="edge3" class="edge"><title>Node1&#45;&gt;Node4</title>
<path fill="none" stroke="midnightblue" d="M238.5,-124.108C238.5,-115.154 238.5,-105.323 238.5,-97.5765"/>
<polygon fill="midnightblue" stroke="midnightblue" points="235,-124.396 238.5,-134.396 242,-124.396 235,-124.396"/>
</g>
<!-- Node6 -->
<g id="node6" class="node"><title>Node6</title>
<g id="a_node6"><a xlink:href="Decoding_8cxx.html" target="_top" xlink:title="Modules/MUON/MCH/src\l/Decoding.cxx">
<polygon fill="none" stroke="black" points="330.5,-67.5 330.5,-97.5 460.5,-97.5 460.5,-67.5 330.5,-67.5"/>
<text text-anchor="start" x="338.5" y="-85.5" font-family="Helvetica,sans-Serif" font-size="10.00">Modules/MUON/MCH/src</text>
<text text-anchor="middle" x="395.5" y="-74.5" font-family="Helvetica,sans-Serif" font-size="10.00">/Decoding.cxx</text>
</a>
</g>
</g>
<!-- Node1&#45;&gt;Node6 -->
<g id="edge5" class="edge"><title>Node1&#45;&gt;Node6</title>
<path fill="none" stroke="midnightblue" d="M281.87,-130.544C306.993,-120.143 338.164,-107.238 361.5,-97.5765"/>
<polygon fill="midnightblue" stroke="midnightblue" points="280.467,-127.337 272.567,-134.396 283.145,-133.804 280.467,-127.337"/>
</g>
<!-- Node3 -->
<g id="node3" class="node"><title>Node3</title>
<g id="a_node3"><a xlink:href="PedestalsTask_8cxx.html" target="_top" xlink:title="Modules/MUON/MCH/src\l/PedestalsTask.cxx">
<polygon fill="none" stroke="black" points="8.5,-0.5 8.5,-30.5 138.5,-30.5 138.5,-0.5 8.5,-0.5"/>
<text text-anchor="start" x="16.5" y="-18.5" font-family="Helvetica,sans-Serif" font-size="10.00">Modules/MUON/MCH/src</text>
<text text-anchor="middle" x="73.5" y="-7.5" font-family="Helvetica,sans-Serif" font-size="10.00">/PedestalsTask.cxx</text>
</a>
</g>
</g>
<!-- Node2&#45;&gt;Node3 -->
<g id="edge2" class="edge"><title>Node2&#45;&gt;Node3</title>
<path fill="none" stroke="midnightblue" d="M73.5,-57.1081C73.5,-48.1539 73.5,-38.3227 73.5,-30.5765"/>
<polygon fill="midnightblue" stroke="midnightblue" points="70.0001,-57.3959 73.5,-67.396 77.0001,-57.396 70.0001,-57.3959"/>
</g>
<!-- Node5 -->
<g id="node5" class="node"><title>Node5</title>
<g id="a_node5"><a xlink:href="PhysicsTask_8cxx.html" target="_top" xlink:title="Modules/MUON/MCH/src\l/PhysicsTask.cxx">
<polygon fill="none" stroke="black" points="173.5,-0.5 173.5,-30.5 303.5,-30.5 303.5,-0.5 173.5,-0.5"/>
<text text-anchor="start" x="181.5" y="-18.5" font-family="Helvetica,sans-Serif" font-size="10.00">Modules/MUON/MCH/src</text>
<text text-anchor="middle" x="238.5" y="-7.5" font-family="Helvetica,sans-Serif" font-size="10.00">/PhysicsTask.cxx</text>
</a>
</g>
</g>
<!-- Node4&#45;&gt;Node5 -->
<g id="edge4" class="edge"><title>Node4&#45;&gt;Node5</title>
<path fill="none" stroke="midnightblue" d="M238.5,-57.1081C238.5,-48.1539 238.5,-38.3227 238.5,-30.5765"/>
<polygon fill="midnightblue" stroke="midnightblue" points="235,-57.3959 238.5,-67.396 242,-57.396 235,-57.3959"/>
</g>
</g>
</svg>
