<?xml version="1.0" encoding="UTF-8" standalone="no"?>
<!DOCTYPE svg PUBLIC "-//W3C//DTD SVG 1.1//EN"
 "http://www.w3.org/Graphics/SVG/1.1/DTD/svg11.dtd">
<!-- Generated by graphviz version 2.38.0 (20140413.2041)
 -->
<!-- Title: Modules/TOF/include/TOF/Diagnostics.h Pages: 1 -->
<svg width="570pt" height="218pt"
 viewBox="0.00 0.00 569.50 218.00" xmlns="http://www.w3.org/2000/svg" xmlns:xlink="http://www.w3.org/1999/xlink">
<g id="graph0" class="graph" transform="scale(1 1) rotate(0) translate(4 214)">
<title>Modules/TOF/include/TOF/Diagnostics.h</title>
<!-- Node1 -->
<g id="node1" class="node"><title>Node1</title>
<polygon fill="#bfbfbf" stroke="black" points="181,-179.5 181,-209.5 291,-209.5 291,-179.5 181,-179.5"/>
<text text-anchor="start" x="189" y="-197.5" font-family="Helvetica,sans-Serif" font-size="10.00">Modules/TOF/include</text>
<text text-anchor="middle" x="236" y="-186.5" font-family="Helvetica,sans-Serif" font-size="10.00">/TOF/Diagnostics.h</text>
</g>
<!-- Node2 -->
<g id="node2" class="node"><title>Node2</title>
<polygon fill="none" stroke="#bfbfbf" points="0,-112.5 0,-142.5 142,-142.5 142,-112.5 0,-112.5"/>
<text text-anchor="start" x="8" y="-130.5" font-family="Helvetica,sans-Serif" font-size="10.00">TOFReconstruction/Decoder</text>
<text text-anchor="middle" x="71" y="-119.5" font-family="Helvetica,sans-Serif" font-size="10.00">Base.h</text>
</g>
<!-- Node1&#45;&gt;Node2 -->
<g id="edge1" class="edge"><title>Node1&#45;&gt;Node2</title>
<path fill="none" stroke="midnightblue" d="M200.197,-179.396C175.548,-169.686 142.607,-156.709 116.157,-146.289"/>
<polygon fill="midnightblue" stroke="midnightblue" points="117.32,-142.985 106.733,-142.577 114.754,-149.498 117.32,-142.985"/>
</g>
<!-- Node3 -->
<g id="node3" class="node"><title>Node3</title>
<polygon fill="none" stroke="#bfbfbf" points="160,-112.5 160,-142.5 312,-142.5 312,-112.5 160,-112.5"/>
<text text-anchor="start" x="168" y="-130.5" font-family="Helvetica,sans-Serif" font-size="10.00">DataFormatsTOF/Compressed</text>
<text text-anchor="middle" x="236" y="-119.5" font-family="Helvetica,sans-Serif" font-size="10.00">DataFormat.h</text>
</g>
<!-- Node1&#45;&gt;Node3 -->
<g id="edge2" class="edge"><title>Node1&#45;&gt;Node3</title>
<path fill="none" stroke="midnightblue" d="M236,-179.396C236,-171.645 236,-161.812 236,-152.86"/>
<polygon fill="midnightblue" stroke="midnightblue" points="239.5,-152.576 236,-142.577 232.5,-152.577 239.5,-152.576"/>
</g>
<!-- Node4 -->
<g id="node4" class="node"><title>Node4</title>
<g id="a_node4"><a xlink:href="Counter_8h.html" target="_top" xlink:title="Base/Counter.h">
<polygon fill="none" stroke="black" points="330.5,-118 330.5,-137 415.5,-137 415.5,-118 330.5,-118"/>
<text text-anchor="middle" x="373" y="-125" font-family="Helvetica,sans-Serif" font-size="10.00">Base/Counter.h</text>
</a>
</g>
</g>
<!-- Node1&#45;&gt;Node4 -->
<g id="edge3" class="edge"><title>Node1&#45;&gt;Node4</title>
<path fill="none" stroke="midnightblue" d="M265.727,-179.396C289.552,-168.092 322.709,-152.361 345.831,-141.39"/>
<polygon fill="midnightblue" stroke="midnightblue" points="347.535,-144.456 355.07,-137.007 344.535,-138.131 347.535,-144.456"/>
</g>
<!-- Node5 -->
<g id="node5" class="node"><title>Node5</title>
<polygon fill="none" stroke="#bfbfbf" points="273.5,-56.5 273.5,-75.5 332.5,-75.5 332.5,-56.5 273.5,-56.5"/>
<text text-anchor="middle" x="303" y="-63.5" font-family="Helvetica,sans-Serif" font-size="10.00">TObject.h</text>
</g>
<!-- Node4&#45;&gt;Node5 -->
<g id="edge4" class="edge"><title>Node4&#45;&gt;Node5</title>
<path fill="none" stroke="midnightblue" d="M362.971,-117.975C351.951,-108.608 334.04,-93.3839 320.657,-82.0081"/>
<polygon fill="midnightblue" stroke="midnightblue" points="322.897,-79.3188 313.011,-75.5091 318.363,-84.6524 322.897,-79.3188"/>
</g>
<!-- Node6 -->
<g id="node6" class="node"><title>Node6</title>
<polygon fill="none" stroke="#bfbfbf" points="351,-56.5 351,-75.5 395,-75.5 395,-56.5 351,-56.5"/>
<text text-anchor="middle" x="373" y="-63.5" font-family="Helvetica,sans-Serif" font-size="10.00">TH1.h</text>
</g>
<!-- Node4&#45;&gt;Node6 -->
<g id="edge5" class="edge"><title>Node4&#45;&gt;Node6</title>
<path fill="none" stroke="midnightblue" d="M373,-117.975C373,-109.58 373,-96.4806 373,-85.6631"/>
<polygon fill="midnightblue" stroke="midnightblue" points="376.5,-85.5091 373,-75.5091 369.5,-85.5091 376.5,-85.5091"/>
</g>
<!-- Node7 -->
<g id="node7" class="node"><title>Node7</title>
<g id="a_node7"><a xlink:href="QcInfoLogger_8h.html" target="_top" xlink:title="QualityControl/QcInfoLogger.h">
<polygon fill="none" stroke="black" points="412.5,-56.5 412.5,-75.5 561.5,-75.5 561.5,-56.5 412.5,-56.5"/>
<text text-anchor="middle" x="487" y="-63.5" font-family="Helvetica,sans-Serif" font-size="10.00">QualityControl/QcInfoLogger.h</text>
</a>
</g>
</g>
<!-- Node4&#45;&gt;Node7 -->
<g id="edge6" class="edge"><title>Node4&#45;&gt;Node7</title>
<path fill="none" stroke="midnightblue" d="M389.333,-117.975C408.211,-108.122 439.507,-91.7883 461.576,-80.2697"/>
<polygon fill="midnightblue" stroke="midnightblue" points="463.451,-83.2389 470.697,-75.5091 460.212,-77.0333 463.451,-83.2389"/>
</g>
<!-- Node8 -->
<g id="node8" class="node"><title>Node8</title>
<polygon fill="none" stroke="#bfbfbf" points="422,-0.5 422,-19.5 552,-19.5 552,-0.5 422,-0.5"/>
<text text-anchor="middle" x="487" y="-7.5" font-family="Helvetica,sans-Serif" font-size="10.00">InfoLogger/InfoLogger.hxx</text>
</g>
<!-- Node7&#45;&gt;Node8 -->
<g id="edge7" class="edge"><title>Node7&#45;&gt;Node8</title>
<path fill="none" stroke="midnightblue" d="M487,-56.083C487,-49.0059 487,-38.8611 487,-29.9865"/>
<polygon fill="midnightblue" stroke="midnightblue" points="490.5,-29.751 487,-19.7511 483.5,-29.7511 490.5,-29.751"/>
</g>
</g>
</svg>
