<?xml version="1.0" encoding="UTF-8" standalone="no"?>
<!DOCTYPE svg PUBLIC "-//W3C//DTD SVG 1.1//EN"
 "http://www.w3.org/Graphics/SVG/1.1/DTD/svg11.dtd">
<!-- Generated by graphviz version 2.38.0 (20140413.2041)
 -->
<!-- Title: Modules/TOF/include/TOF/Diagnostics.h Pages: 1 -->
<svg width="348pt" height="162pt"
 viewBox="0.00 0.00 348.00 162.00" xmlns="http://www.w3.org/2000/svg" xmlns:xlink="http://www.w3.org/1999/xlink">
<g id="graph0" class="graph" transform="scale(1 1) rotate(0) translate(4 158)">
<title>Modules/TOF/include/TOF/Diagnostics.h</title>
<!-- Node1 -->
<g id="node1" class="node"><title>Node1</title>
<polygon fill="#bfbfbf" stroke="black" points="120,-123.5 120,-153.5 230,-153.5 230,-123.5 120,-123.5"/>
<text text-anchor="start" x="128" y="-141.5" font-family="Helvetica,sans-Serif" font-size="10.00">Modules/TOF/include</text>
<text text-anchor="middle" x="175" y="-130.5" font-family="Helvetica,sans-Serif" font-size="10.00">/TOF/Diagnostics.h</text>
</g>
<!-- Node2 -->
<g id="node2" class="node"><title>Node2</title>
<g id="a_node2"><a xlink:href="TaskDiagnostics_8h.html" target="_top" xlink:title="Modules/TOF/include\l/TOF/TaskDiagnostics.h">
<polygon fill="none" stroke="black" points="32,-56.5 32,-86.5 156,-86.5 156,-56.5 32,-56.5"/>
<text text-anchor="start" x="40" y="-74.5" font-family="Helvetica,sans-Serif" font-size="10.00">Modules/TOF/include</text>
<text text-anchor="middle" x="94" y="-63.5" font-family="Helvetica,sans-Serif" font-size="10.00">/TOF/TaskDiagnostics.h</text>
</a>
</g>
</g>
<!-- Node1&#45;&gt;Node2 -->
<g id="edge1" class="edge"><title>Node1&#45;&gt;Node2</title>
<path fill="none" stroke="midnightblue" d="M149.308,-116.883C136.999,-107.005 122.573,-95.4293 111.541,-86.5765"/>
<polygon fill="midnightblue" stroke="midnightblue" points="147.434,-119.867 157.424,-123.396 151.815,-114.407 147.434,-119.867"/>
</g>
<!-- Node4 -->
<g id="node4" class="node"><title>Node4</title>
<g id="a_node4"><a xlink:href="Diagnostics_8cxx.html" target="_top" xlink:title="Modules/TOF/src/Diagnostics.cxx">
<polygon fill="none" stroke="black" points="174,-62 174,-81 340,-81 340,-62 174,-62"/>
<text text-anchor="middle" x="257" y="-69" font-family="Helvetica,sans-Serif" font-size="10.00">Modules/TOF/src/Diagnostics.cxx</text>
</a>
</g>
</g>
<!-- Node1&#45;&gt;Node4 -->
<g id="edge3" class="edge"><title>Node1&#45;&gt;Node4</title>
<path fill="none" stroke="midnightblue" d="M200.851,-117.008C216.074,-104.941 234.539,-90.3046 246.032,-81.1945"/>
<polygon fill="midnightblue" stroke="midnightblue" points="198.455,-114.441 192.793,-123.396 202.804,-119.927 198.455,-114.441"/>
</g>
<!-- Node3 -->
<g id="node3" class="node"><title>Node3</title>
<g id="a_node3"><a xlink:href="TaskDiagnostics_8cxx.html" target="_top" xlink:title="Modules/TOF/src/TaskDiagnostics.cxx">
<polygon fill="none" stroke="black" points="0,-0.5 0,-19.5 188,-19.5 188,-0.5 0,-0.5"/>
<text text-anchor="middle" x="94" y="-7.5" font-family="Helvetica,sans-Serif" font-size="10.00">Modules/TOF/src/TaskDiagnostics.cxx</text>
</a>
</g>
</g>
<!-- Node2&#45;&gt;Node3 -->
<g id="edge2" class="edge"><title>Node2&#45;&gt;Node3</title>
<path fill="none" stroke="midnightblue" d="M94,-46.2892C94,-36.857 94,-26.6548 94,-19.6578"/>
<polygon fill="midnightblue" stroke="midnightblue" points="90.5001,-46.3993 94,-56.3993 97.5001,-46.3994 90.5001,-46.3993"/>
</g>
</g>
</svg>
