<?xml version="1.0" encoding="UTF-8" standalone="no"?>
<!DOCTYPE svg PUBLIC "-//W3C//DTD SVG 1.1//EN"
 "http://www.w3.org/Graphics/SVG/1.1/DTD/svg11.dtd">
<!-- Generated by graphviz version 2.38.0 (20140413.2041)
 -->
<!-- Title: Modules/TOF/src/Diagnostics.cxx Pages: 1 -->
<svg width="777pt" height="263pt"
 viewBox="0.00 0.00 776.76 263.00" xmlns="http://www.w3.org/2000/svg" xmlns:xlink="http://www.w3.org/1999/xlink">
<g id="graph0" class="graph" transform="scale(1 1) rotate(0) translate(4 259)">
<title>Modules/TOF/src/Diagnostics.cxx</title>
<!-- Node1 -->
<g id="node1" class="node"><title>Node1</title>
<polygon fill="#bfbfbf" stroke="black" points="240.259,-235.5 240.259,-254.5 406.259,-254.5 406.259,-235.5 240.259,-235.5"/>
<text text-anchor="middle" x="323.259" y="-242.5" font-family="Helvetica,sans-Serif" font-size="10.00">Modules/TOF/src/Diagnostics.cxx</text>
</g>
<!-- Node2 -->
<g id="node2" class="node"><title>Node2</title>
<polygon fill="none" stroke="#bfbfbf" points="331.259,-112.5 331.259,-142.5 483.259,-142.5 483.259,-112.5 331.259,-112.5"/>
<text text-anchor="start" x="339.259" y="-130.5" font-family="Helvetica,sans-Serif" font-size="10.00">DataFormatsTOF/Compressed</text>
<text text-anchor="middle" x="407.259" y="-119.5" font-family="Helvetica,sans-Serif" font-size="10.00">DataFormat.h</text>
</g>
<!-- Node1&#45;&gt;Node2 -->
<g id="edge1" class="edge"><title>Node1&#45;&gt;Node2</title>
<path fill="none" stroke="midnightblue" d="M406.648,-238.523C432.797,-232.387 459.038,-220.719 475.259,-199 489.273,-180.236 468.529,-161.258 446.369,-147.726"/>
<polygon fill="midnightblue" stroke="midnightblue" points="447.959,-144.602 437.547,-142.638 444.461,-150.666 447.959,-144.602"/>
</g>
<!-- Node3 -->
<g id="node3" class="node"><title>Node3</title>
<polygon fill="none" stroke="#bfbfbf" points="23.2591,-179.5 23.2591,-198.5 157.259,-198.5 157.259,-179.5 23.2591,-179.5"/>
<text text-anchor="middle" x="90.2591" y="-186.5" font-family="Helvetica,sans-Serif" font-size="10.00">Framework/DataRefUtils.h</text>
</g>
<!-- Node1&#45;&gt;Node3 -->
<g id="edge2" class="edge"><title>Node1&#45;&gt;Node3</title>
<path fill="none" stroke="midnightblue" d="M286.34,-235.444C245.864,-226.063 180.838,-210.993 136.875,-200.804"/>
<polygon fill="midnightblue" stroke="midnightblue" points="137.538,-197.365 127.006,-198.516 135.957,-204.184 137.538,-197.365"/>
</g>
<!-- Node4 -->
<g id="node4" class="node"><title>Node4</title>
<polygon fill="none" stroke="#bfbfbf" points="175.759,-179.5 175.759,-198.5 316.759,-198.5 316.759,-179.5 175.759,-179.5"/>
<text text-anchor="middle" x="246.259" y="-186.5" font-family="Helvetica,sans-Serif" font-size="10.00">Headers/RAWDataHeader.h</text>
</g>
<!-- Node1&#45;&gt;Node4 -->
<g id="edge3" class="edge"><title>Node1&#45;&gt;Node4</title>
<path fill="none" stroke="midnightblue" d="M310.888,-235.324C299.101,-227.058 281.127,-214.453 267.124,-204.632"/>
<polygon fill="midnightblue" stroke="midnightblue" points="268.797,-201.531 258.6,-198.655 264.777,-207.262 268.797,-201.531"/>
</g>
<!-- Node5 -->
<g id="node5" class="node"><title>Node5</title>
<polygon fill="none" stroke="#bfbfbf" points="334.759,-179.5 334.759,-198.5 465.759,-198.5 465.759,-179.5 334.759,-179.5"/>
<text text-anchor="middle" x="400.259" y="-186.5" font-family="Helvetica,sans-Serif" font-size="10.00">DetectorsRaw/HBFUtils.h</text>
</g>
<!-- Node1&#45;&gt;Node5 -->
<g id="edge4" class="edge"><title>Node1&#45;&gt;Node5</title>
<path fill="none" stroke="midnightblue" d="M335.63,-235.324C347.418,-227.058 365.391,-214.453 379.395,-204.632"/>
<polygon fill="midnightblue" stroke="midnightblue" points="381.741,-207.262 387.918,-198.655 377.721,-201.531 381.741,-207.262"/>
</g>
<!-- Node6 -->
<g id="node6" class="node"><title>Node6</title>
<g id="a_node6"><a xlink:href="QcInfoLogger_8h.html" target="_top" xlink:title="QualityControl/QcInfoLogger.h">
<polygon fill="none" stroke="black" points="218.759,-56.5 218.759,-75.5 367.759,-75.5 367.759,-56.5 218.759,-56.5"/>
<text text-anchor="middle" x="293.259" y="-63.5" font-family="Helvetica,sans-Serif" font-size="10.00">QualityControl/QcInfoLogger.h</text>
</a>
</g>
</g>
<!-- Node1&#45;&gt;Node6 -->
<g id="edge5" class="edge"><title>Node1&#45;&gt;Node6</title>
<path fill="none" stroke="midnightblue" d="M240.112,-243.677C158.736,-241.382 42.9405,-232.161 14.2591,-199 -47.0592,-128.105 105.685,-92.4645 208.584,-77.0004"/>
<polygon fill="midnightblue" stroke="midnightblue" points="209.299,-80.433 218.687,-75.5221 208.286,-73.5067 209.299,-80.433"/>
</g>
<!-- Node8 -->
<g id="node8" class="node"><title>Node8</title>
<g id="a_node8"><a xlink:href="Diagnostics_8h.html" target="_top" xlink:title="TOF/Diagnostics.h">
<polygon fill="none" stroke="black" points="522.759,-179.5 522.759,-198.5 621.759,-198.5 621.759,-179.5 522.759,-179.5"/>
<text text-anchor="middle" x="572.259" y="-186.5" font-family="Helvetica,sans-Serif" font-size="10.00">TOF/Diagnostics.h</text>
</a>
</g>
</g>
<!-- Node1&#45;&gt;Node8 -->
<g id="edge7" class="edge"><title>Node1&#45;&gt;Node8</title>
<path fill="none" stroke="midnightblue" d="M362.714,-235.444C406.151,-226.023 476.045,-210.866 523.035,-200.675"/>
<polygon fill="midnightblue" stroke="midnightblue" points="523.958,-204.056 532.989,-198.516 522.474,-197.215 523.958,-204.056"/>
</g>
<!-- Node7 -->
<g id="node7" class="node"><title>Node7</title>
<polygon fill="none" stroke="#bfbfbf" points="228.259,-0.5 228.259,-19.5 358.259,-19.5 358.259,-0.5 228.259,-0.5"/>
<text text-anchor="middle" x="293.259" y="-7.5" font-family="Helvetica,sans-Serif" font-size="10.00">InfoLogger/InfoLogger.hxx</text>
</g>
<!-- Node6&#45;&gt;Node7 -->
<g id="edge6" class="edge"><title>Node6&#45;&gt;Node7</title>
<path fill="none" stroke="midnightblue" d="M293.259,-56.083C293.259,-49.0059 293.259,-38.8611 293.259,-29.9865"/>
<polygon fill="midnightblue" stroke="midnightblue" points="296.759,-29.751 293.259,-19.7511 289.759,-29.7511 296.759,-29.751"/>
</g>
<!-- Node8&#45;&gt;Node2 -->
<g id="edge9" class="edge"><title>Node8&#45;&gt;Node2</title>
<path fill="none" stroke="midnightblue" d="M548.619,-179.475C524.496,-170.776 486.366,-157.026 455.783,-145.998"/>
<polygon fill="midnightblue" stroke="midnightblue" points="456.741,-142.623 446.146,-142.523 454.366,-149.208 456.741,-142.623"/>
</g>
<!-- Node9 -->
<g id="node9" class="node"><title>Node9</title>
<polygon fill="none" stroke="#bfbfbf" points="501.259,-112.5 501.259,-142.5 643.259,-142.5 643.259,-112.5 501.259,-112.5"/>
<text text-anchor="start" x="509.259" y="-130.5" font-family="Helvetica,sans-Serif" font-size="10.00">TOFReconstruction/Decoder</text>
<text text-anchor="middle" x="572.259" y="-119.5" font-family="Helvetica,sans-Serif" font-size="10.00">Base.h</text>
</g>
<!-- Node8&#45;&gt;Node9 -->
<g id="edge8" class="edge"><title>Node8&#45;&gt;Node9</title>
<path fill="none" stroke="midnightblue" d="M572.259,-179.475C572.259,-172.471 572.259,-162.192 572.259,-152.696"/>
<polygon fill="midnightblue" stroke="midnightblue" points="575.759,-152.523 572.259,-142.523 568.759,-152.523 575.759,-152.523"/>
</g>
<!-- Node10 -->
<g id="node10" class="node"><title>Node10</title>
<g id="a_node10"><a xlink:href="Counter_8h.html" target="_top" xlink:title="Base/Counter.h">
<polygon fill="none" stroke="black" points="661.759,-118 661.759,-137 746.759,-137 746.759,-118 661.759,-118"/>
<text text-anchor="middle" x="704.259" y="-125" font-family="Helvetica,sans-Serif" font-size="10.00">Base/Counter.h</text>
</a>
</g>
</g>
<!-- Node8&#45;&gt;Node10 -->
<g id="edge10" class="edge"><title>Node8&#45;&gt;Node10</title>
<path fill="none" stroke="midnightblue" d="M591.171,-179.475C613.422,-169.445 650.571,-152.7 676.185,-141.155"/>
<polygon fill="midnightblue" stroke="midnightblue" points="677.703,-144.309 685.382,-137.009 674.827,-137.928 677.703,-144.309"/>
</g>
<!-- Node10&#45;&gt;Node6 -->
<g id="edge13" class="edge"><title>Node10&#45;&gt;Node6</title>
<path fill="none" stroke="midnightblue" d="M676.646,-117.986C668.819,-115.796 660.253,-113.606 652.259,-112 559.329,-93.3248 451.216,-81.0303 378.11,-74.0831"/>
<polygon fill="midnightblue" stroke="midnightblue" points="378.315,-70.5871 368.032,-73.1382 377.662,-77.5565 378.315,-70.5871"/>
</g>
<!-- Node11 -->
<g id="node11" class="node"><title>Node11</title>
<polygon fill="none" stroke="#bfbfbf" points="709.759,-56.5 709.759,-75.5 768.759,-75.5 768.759,-56.5 709.759,-56.5"/>
<text text-anchor="middle" x="739.259" y="-63.5" font-family="Helvetica,sans-Serif" font-size="10.00">TObject.h</text>
</g>
<!-- Node10&#45;&gt;Node11 -->
<g id="edge11" class="edge"><title>Node10&#45;&gt;Node11</title>
<path fill="none" stroke="midnightblue" d="M709.274,-117.975C714.42,-109.227 722.571,-95.3691 729.077,-84.3093"/>
<polygon fill="midnightblue" stroke="midnightblue" points="732.2,-85.903 734.254,-75.5091 726.167,-82.3539 732.2,-85.903"/>
</g>
<!-- Node12 -->
<g id="node12" class="node"><title>Node12</title>
<polygon fill="none" stroke="#bfbfbf" points="647.259,-56.5 647.259,-75.5 691.259,-75.5 691.259,-56.5 647.259,-56.5"/>
<text text-anchor="middle" x="669.259" y="-63.5" font-family="Helvetica,sans-Serif" font-size="10.00">TH1.h</text>
</g>
<!-- Node10&#45;&gt;Node12 -->
<g id="edge12" class="edge"><title>Node10&#45;&gt;Node12</title>
<path fill="none" stroke="midnightblue" d="M699.244,-117.975C694.098,-109.227 685.947,-95.3691 679.441,-84.3093"/>
<polygon fill="midnightblue" stroke="midnightblue" points="682.351,-82.3539 674.264,-75.5091 676.318,-85.903 682.351,-82.3539"/>
</g>
</g>
</svg>
