<?xml version="1.0" encoding="UTF-8" standalone="no"?>
<!DOCTYPE svg PUBLIC "-//W3C//DTD SVG 1.1//EN"
 "http://www.w3.org/Graphics/SVG/1.1/DTD/svg11.dtd">
<!-- Generated by graphviz version 2.38.0 (20140413.2041)
 -->
<!-- Title: Modules Pages: 1 -->
<!--zoomable 132 -->
<svg id="main" version="1.1" xmlns="http://www.w3.org/2000/svg" xmlns:xlink="http://www.w3.org/1999/xlink" xml:space="preserve" onload="init(evt)">
<style type="text/css"><![CDATA[
.edge:hover path { stroke: red; }
.edge:hover polygon { stroke: red; fill: red; }
]]></style>
<script type="text/javascript"><![CDATA[
var edges = document.getElementsByTagName('g');
if (edges && edges.length) {
  for (var i=0;i<edges.length;i++) {
    if (edges[i].id.substr(0,4)=='edge') {
      edges[i].setAttribute('class','edge');
    }
  }
}
]]></script>
        <defs>
                <circle id="rim" cx="0" cy="0" r="7"/>
                <circle id="rim2" cx="0" cy="0" r="3.5"/>
                <g id="zoomPlus">
                        <use xlink:href="#rim" fill="#404040">
                                <set attributeName="fill" to="#808080" begin="zoomplus.mouseover" end="zoomplus.mouseout"/>
                        </use>
                        <path d="M-4,0h8M0,-4v8" fill="none" stroke="white" stroke-width="1.5" pointer-events="none"/>
                </g>
                <g id="zoomMin">
                        <use xlink:href="#rim" fill="#404040">
                                <set attributeName="fill" to="#808080" begin="zoomminus.mouseover" end="zoomminus.mouseout"/>
                        </use>
                        <path d="M-4,0h8" fill="none" stroke="white" stroke-width="1.5" pointer-events="none"/>
                </g>
                <g id="dirArrow">
                        <path fill="none" stroke="white" stroke-width="1.5" d="M0,-3.0v7 M-2.5,-0.5L0,-3.0L2.5,-0.5"/>
                </g>
               <g id="resetDef">
                       <use xlink:href="#rim2" fill="#404040">
                               <set attributeName="fill" to="#808080" begin="reset.mouseover" end="reset.mouseout"/>
                       </use>
               </g>
        </defs>

<script type="text/javascript">
var viewWidth = 892;
var viewHeight = 132;
var sectionId = 'dynsection-0';
</script>
<script xlink:href="svgpan.js"/>
<svg id="graph" class="graph">
<g id="viewport">
<title>Modules</title>
<g id="clust1" class="cluster"><title>clusterdir_f2541a3b18981391fa76fac5599e978a</title>
<g id="a_clust1"><a xlink:href="dir_f2541a3b18981391fa76fac5599e978a.html" target="_top">
<polygon fill="#eeeeff" stroke="black" points="8,-64 8,-116 876,-116 876,-64 8,-64"/>
</a>
</g>
</g>
<!-- dir_f2541a3b18981391fa76fac5599e978a -->
<g id="node1" class="node"><title>dir_f2541a3b18981391fa76fac5599e978a</title>
<text text-anchor="middle" x="841" y="-87.5" font-family="Helvetica,sans-Serif" font-size="10.00">Modules</text>
</g>
<!-- dir_6b8bd6c02904bc94839ef977dfbf16fd -->
<g id="node2" class="node"><title>dir_6b8bd6c02904bc94839ef977dfbf16fd</title>
<g id="a_node2"><a xlink:href="dir_6b8bd6c02904bc94839ef977dfbf16fd.html" target="_top" xlink:title="Common">
<polygon fill="white" stroke="red" points="796,-108 740,-108 740,-72 796,-72 796,-108"/>
<text text-anchor="middle" x="768" y="-87.5" font-family="Helvetica,sans-Serif" font-size="10.00">Common</text>
</a>
</g>
</g>
<!-- dir_bcbb2cf9a3d3d83e5515c82071a07177 -->
<g id="node13" class="node"><title>dir_bcbb2cf9a3d3d83e5515c82071a07177</title>
<g id="a_node13"><a xlink:href="dir_bcbb2cf9a3d3d83e5515c82071a07177.html" target="_top" xlink:title="Framework">
<polygon fill="none" stroke="red" points="437.5,-36 372.5,-36 372.5,-0 437.5,-0 437.5,-36"/>
<text text-anchor="middle" x="405" y="-15.5" font-family="Helvetica,sans-Serif" font-size="10.00">Framework</text>
</a>
</g>
</g>
<!-- dir_6b8bd6c02904bc94839ef977dfbf16fd&#45;&gt;dir_bcbb2cf9a3d3d83e5515c82071a07177 -->
<g id="edge9" class="edge"><title>dir_6b8bd6c02904bc94839ef977dfbf16fd&#45;&gt;dir_bcbb2cf9a3d3d83e5515c82071a07177</title>
<path fill="none" stroke="black" d="M746.213,-71.9137C741.42,-68.8468 736.213,-65.996 731,-64 634.464,-27.035 511.546,-19.8427 447.757,-18.8033"/>
<polygon fill="black" stroke="black" points="447.709,-15.3025 437.668,-18.6828 447.625,-22.302 447.709,-15.3025"/>
<g id="a_edge9&#45;headlabel"><a xlink:href="dir_000004_000000.html" target="_top" xlink:title="12">
<text text-anchor="middle" x="451.337" y="-10.0063" font-family="Helvetica,sans-Serif" font-size="10.00">12</text>
</a>
</g>
</g>
<!-- dir_b4be303506ebb37c6dc24696436a6ab8 -->
<g id="node3" class="node"><title>dir_b4be303506ebb37c6dc24696436a6ab8</title>
<g id="a_node3"><a xlink:href="dir_b4be303506ebb37c6dc24696436a6ab8.html" target="_top" xlink:title="Daq">
<polygon fill="white" stroke="red" points="722,-108 668,-108 668,-72 722,-72 722,-108"/>
<text text-anchor="middle" x="695" y="-87.5" font-family="Helvetica,sans-Serif" font-size="10.00">Daq</text>
</a>
</g>
</g>
<!-- dir_b4be303506ebb37c6dc24696436a6ab8&#45;&gt;dir_bcbb2cf9a3d3d83e5515c82071a07177 -->
<g id="edge11" class="edge"><title>dir_b4be303506ebb37c6dc24696436a6ab8&#45;&gt;dir_bcbb2cf9a3d3d83e5515c82071a07177</title>
<path fill="none" stroke="black" d="M673.401,-71.8015C668.847,-68.8202 663.924,-66.0308 659,-64 588.506,-34.9271 499.421,-24.6208 447.661,-20.9785"/>
<polygon fill="black" stroke="black" points="447.719,-17.4749 437.513,-20.3166 447.264,-24.4601 447.719,-17.4749"/>
<g id="a_edge11&#45;headlabel"><a xlink:href="dir_000007_000000.html" target="_top" xlink:title="6">
<text text-anchor="middle" x="451.491" y="-12.3755" font-family="Helvetica,sans-Serif" font-size="10.00">6</text>
</a>
</g>
</g>
<!-- dir_ed80be2c367d80462ec6a6a3f0ad67d1 -->
<g id="node4" class="node"><title>dir_ed80be2c367d80462ec6a6a3f0ad67d1</title>
<g id="a_node4"><a xlink:href="dir_ed80be2c367d80462ec6a6a3f0ad67d1.html" target="_top" xlink:title="EMCAL">
<polygon fill="white" stroke="red" points="650,-108 596,-108 596,-72 650,-72 650,-108"/>
<text text-anchor="middle" x="623" y="-87.5" font-family="Helvetica,sans-Serif" font-size="10.00">EMCAL</text>
</a>
</g>
</g>
<!-- dir_ed80be2c367d80462ec6a6a3f0ad67d1&#45;&gt;dir_bcbb2cf9a3d3d83e5515c82071a07177 -->
<g id="edge4" class="edge"><title>dir_ed80be2c367d80462ec6a6a3f0ad67d1&#45;&gt;dir_bcbb2cf9a3d3d83e5515c82071a07177</title>
<path fill="none" stroke="black" d="M600.899,-71.8041C596.465,-68.8953 591.715,-66.132 587,-64 541.729,-43.5278 485.736,-31.4702 447.904,-25.0711"/>
<polygon fill="black" stroke="black" points="448.172,-21.5687 437.739,-23.414 447.045,-28.4775 448.172,-21.5687"/>
<g id="a_edge4&#45;headlabel"><a xlink:href="dir_000010_000000.html" target="_top" xlink:title="15">
<text text-anchor="middle" x="452.176" y="-16.8447" font-family="Helvetica,sans-Serif" font-size="10.00">15</text>
</a>
</g>
</g>
<!-- dir_5273b6b5b4e75477d91e3579fb65d936 -->
<g id="node5" class="node"><title>dir_5273b6b5b4e75477d91e3579fb65d936</title>
<g id="a_node5"><a xlink:href="dir_5273b6b5b4e75477d91e3579fb65d936.html" target="_top" xlink:title="Example">
<polygon fill="white" stroke="red" points="577.5,-108 522.5,-108 522.5,-72 577.5,-72 577.5,-108"/>
<text text-anchor="middle" x="550" y="-87.5" font-family="Helvetica,sans-Serif" font-size="10.00">Example</text>
</a>
</g>
</g>
<!-- dir_5273b6b5b4e75477d91e3579fb65d936&#45;&gt;dir_bcbb2cf9a3d3d83e5515c82071a07177 -->
<g id="edge5" class="edge"><title>dir_5273b6b5b4e75477d91e3579fb65d936&#45;&gt;dir_bcbb2cf9a3d3d83e5515c82071a07177</title>
<path fill="none" stroke="black" d="M526.151,-71.8799C521.863,-69.0946 517.367,-66.3547 513,-64 492.104,-52.733 467.777,-42.3744 447.507,-34.443"/>
<polygon fill="black" stroke="black" points="448.506,-31.0769 437.916,-30.7511 445.991,-37.6097 448.506,-31.0769"/>
<g id="a_edge5&#45;headlabel"><a xlink:href="dir_000013_000000.html" target="_top" xlink:title="11">
<text text-anchor="middle" x="452.88" y="-27.2183" font-family="Helvetica,sans-Serif" font-size="10.00">11</text>
</a>
</g>
</g>
<!-- dir_48a8cb84b7ebf8a30d1487d6c616d7f4 -->
<g id="node6" class="node"><title>dir_48a8cb84b7ebf8a30d1487d6c616d7f4</title>
<g id="a_node6"><a xlink:href="dir_48a8cb84b7ebf8a30d1487d6c616d7f4.html" target="_top" xlink:title="ITS">
<polygon fill="white" stroke="red" points="504,-108 450,-108 450,-72 504,-72 504,-108"/>
<text text-anchor="middle" x="477" y="-87.5" font-family="Helvetica,sans-Serif" font-size="10.00">ITS</text>
</a>
</g>
</g>
<!-- dir_48a8cb84b7ebf8a30d1487d6c616d7f4&#45;&gt;dir_bcbb2cf9a3d3d83e5515c82071a07177 -->
<g id="edge2" class="edge"><title>dir_48a8cb84b7ebf8a30d1487d6c616d7f4&#45;&gt;dir_bcbb2cf9a3d3d83e5515c82071a07177</title>
<path fill="none" stroke="black" d="M459.202,-71.6966C450.396,-63.135 439.618,-52.6562 429.999,-43.3045"/>
<polygon fill="black" stroke="black" points="432.203,-40.5657 422.593,-36.1043 427.323,-45.5846 432.203,-40.5657"/>
<g id="a_edge2&#45;headlabel"><a xlink:href="dir_000016_000000.html" target="_top" xlink:title="6">
<text text-anchor="middle" x="436.759" y="-38.5356" font-family="Helvetica,sans-Serif" font-size="10.00">6</text>
</a>
</g>
</g>
<!-- dir_83d1d206e08935b361e68569931943ec -->
<g id="node7" class="node"><title>dir_83d1d206e08935b361e68569931943ec</title>
<g id="a_node7"><a xlink:href="dir_83d1d206e08935b361e68569931943ec.html" target="_top" xlink:title="MFT">
<polygon fill="white" stroke="red" points="432,-108 378,-108 378,-72 432,-72 432,-108"/>
<text text-anchor="middle" x="405" y="-87.5" font-family="Helvetica,sans-Serif" font-size="10.00">MFT</text>
</a>
</g>
</g>
<!-- dir_83d1d206e08935b361e68569931943ec&#45;&gt;dir_bcbb2cf9a3d3d83e5515c82071a07177 -->
<g id="edge8" class="edge"><title>dir_83d1d206e08935b361e68569931943ec&#45;&gt;dir_bcbb2cf9a3d3d83e5515c82071a07177</title>
<path fill="none" stroke="black" d="M405,-71.6966C405,-63.9827 405,-54.7125 405,-46.1124"/>
<polygon fill="black" stroke="black" points="408.5,-46.1043 405,-36.1043 401.5,-46.1044 408.5,-46.1043"/>
<g id="a_edge8&#45;headlabel"><a xlink:href="dir_000019_000000.html" target="_top" xlink:title="16">
<text text-anchor="middle" x="411.339" y="-47.199" font-family="Helvetica,sans-Serif" font-size="10.00">16</text>
</a>
</g>
</g>
<!-- dir_d3f38a47912c447ca68cc325fcb37be5 -->
<g id="node8" class="node"><title>dir_d3f38a47912c447ca68cc325fcb37be5</title>
<g id="a_node8"><a xlink:href="dir_d3f38a47912c447ca68cc325fcb37be5.html" target="_top" xlink:title="MUON">
<polygon fill="white" stroke="red" points="360,-108 306,-108 306,-72 360,-72 360,-108"/>
<text text-anchor="middle" x="333" y="-87.5" font-family="Helvetica,sans-Serif" font-size="10.00">MUON</text>
</a>
</g>
</g>
<!-- dir_d3f38a47912c447ca68cc325fcb37be5&#45;&gt;dir_bcbb2cf9a3d3d83e5515c82071a07177 -->
<g id="edge7" class="edge"><title>dir_d3f38a47912c447ca68cc325fcb37be5&#45;&gt;dir_bcbb2cf9a3d3d83e5515c82071a07177</title>
<path fill="none" stroke="black" d="M350.798,-71.6966C359.604,-63.135 370.382,-52.6562 380.001,-43.3045"/>
<polygon fill="black" stroke="black" points="382.677,-45.5846 387.407,-36.1043 377.797,-40.5657 382.677,-45.5846"/>
<g id="a_edge7&#45;headlabel"><a xlink:href="dir_000022_000000.html" target="_top" xlink:title="12">
<text text-anchor="middle" x="382.079" y="-47.6261" font-family="Helvetica,sans-Serif" font-size="10.00">12</text>
</a>
</g>
</g>
<!-- dir_e5d84f0709a9c6ad9e00d771422a7ef2 -->
<g id="node9" class="node"><title>dir_e5d84f0709a9c6ad9e00d771422a7ef2</title>
<g id="a_node9"><a xlink:href="dir_e5d84f0709a9c6ad9e00d771422a7ef2.html" target="_top" xlink:title="PHOS">
<polygon fill="white" stroke="red" points="288,-108 234,-108 234,-72 288,-72 288,-108"/>
<text text-anchor="middle" x="261" y="-87.5" font-family="Helvetica,sans-Serif" font-size="10.00">PHOS</text>
</a>
</g>
</g>
<!-- dir_e5d84f0709a9c6ad9e00d771422a7ef2&#45;&gt;dir_bcbb2cf9a3d3d83e5515c82071a07177 -->
<g id="edge3" class="edge"><title>dir_e5d84f0709a9c6ad9e00d771422a7ef2&#45;&gt;dir_bcbb2cf9a3d3d83e5515c82071a07177</title>
<path fill="none" stroke="black" d="M284.167,-71.8526C288.342,-69.0703 292.728,-66.3386 297,-64 317.824,-52.5998 342.144,-42.2295 362.428,-34.325"/>
<polygon fill="black" stroke="black" points="363.942,-37.4934 372.029,-30.6489 361.438,-30.9563 363.942,-37.4934"/>
<g id="a_edge3&#45;headlabel"><a xlink:href="dir_000026_000000.html" target="_top" xlink:title="14">
<text text-anchor="middle" x="361.6" y="-38.9303" font-family="Helvetica,sans-Serif" font-size="10.00">14</text>
</a>
</g>
</g>
<!-- dir_cc72967e88078b463843b5977855e60d -->
<g id="node10" class="node"><title>dir_cc72967e88078b463843b5977855e60d</title>
<g id="a_node10"><a xlink:href="dir_cc72967e88078b463843b5977855e60d.html" target="_top" xlink:title="Skeleton">
<polygon fill="white" stroke="red" points="215.5,-108 160.5,-108 160.5,-72 215.5,-72 215.5,-108"/>
<text text-anchor="middle" x="188" y="-87.5" font-family="Helvetica,sans-Serif" font-size="10.00">Skeleton</text>
</a>
</g>
</g>
<!-- dir_cc72967e88078b463843b5977855e60d&#45;&gt;dir_bcbb2cf9a3d3d83e5515c82071a07177 -->
<g id="edge6" class="edge"><title>dir_cc72967e88078b463843b5977855e60d&#45;&gt;dir_bcbb2cf9a3d3d83e5515c82071a07177</title>
<path fill="none" stroke="black" d="M210.766,-71.8294C215.318,-68.9183 220.186,-66.1476 225,-64 269.771,-44.0282 324.926,-31.8986 362.296,-25.3453"/>
<polygon fill="black" stroke="black" points="363.066,-28.7648 372.341,-23.643 361.897,-21.8632 363.066,-28.7648"/>
<g id="a_edge6&#45;headlabel"><a xlink:href="dir_000029_000000.html" target="_top" xlink:title="9">
<text text-anchor="middle" x="359.997" y="-29.6647" font-family="Helvetica,sans-Serif" font-size="10.00">9</text>
</a>
</g>
</g>
<!-- dir_d97bc60669e70ebe18802fd5c1c1d939 -->
<g id="node11" class="node"><title>dir_d97bc60669e70ebe18802fd5c1c1d939</title>
<g id="a_node11"><a xlink:href="dir_d97bc60669e70ebe18802fd5c1c1d939.html" target="_top" xlink:title="TOF">
<polygon fill="white" stroke="red" points="142,-108 88,-108 88,-72 142,-72 142,-108"/>
<text text-anchor="middle" x="115" y="-87.5" font-family="Helvetica,sans-Serif" font-size="10.00">TOF</text>
</a>
</g>
</g>
<!-- dir_d97bc60669e70ebe18802fd5c1c1d939&#45;&gt;dir_bcbb2cf9a3d3d83e5515c82071a07177 -->
<g id="edge10" class="edge"><title>dir_d97bc60669e70ebe18802fd5c1c1d939&#45;&gt;dir_bcbb2cf9a3d3d83e5515c82071a07177</title>
<path fill="none" stroke="black" d="M137.249,-71.814C141.925,-68.8316 146.971,-66.0387 152,-64 222.205,-35.5417 310.585,-25.0377 362.143,-21.1905"/>
<polygon fill="black" stroke="black" points="362.524,-24.6725 372.257,-20.4865 362.038,-17.6894 362.524,-24.6725"/>
<g id="a_edge10&#45;headlabel"><a xlink:href="dir_000032_000000.html" target="_top" xlink:title="36">
<text text-anchor="middle" x="359.135" y="-25.2545" font-family="Helvetica,sans-Serif" font-size="10.00">36</text>
</a>
</g>
</g>
<!-- dir_1daf86e93d49a76fe0702a1348efb120 -->
<g id="node12" class="node"><title>dir_1daf86e93d49a76fe0702a1348efb120</title>
<g id="a_node12"><a xlink:href="dir_1daf86e93d49a76fe0702a1348efb120.html" target="_top" xlink:title="TPC">
<polygon fill="white" stroke="red" points="70,-108 16,-108 16,-72 70,-72 70,-108"/>
<text text-anchor="middle" x="43" y="-87.5" font-family="Helvetica,sans-Serif" font-size="10.00">TPC</text>
</a>
</g>
</g>
<!-- dir_1daf86e93d49a76fe0702a1348efb120&#45;&gt;dir_bcbb2cf9a3d3d83e5515c82071a07177 -->
<g id="edge1" class="edge"><title>dir_1daf86e93d49a76fe0702a1348efb120&#45;&gt;dir_bcbb2cf9a3d3d83e5515c82071a07177</title>
<path fill="none" stroke="black" d="M64.149,-71.9071C68.8157,-68.8407 73.8962,-65.9918 79,-64 175.298,-26.4192 298.314,-19.4815 362.182,-18.6444"/>
<polygon fill="black" stroke="black" points="362.314,-22.1435 372.284,-18.5571 362.254,-15.1437 362.314,-22.1435"/>
<g id="a_edge1&#45;headlabel"><a xlink:href="dir_000035_000000.html" target="_top" xlink:title="14">
<text text-anchor="middle" x="358.744" y="-22.5136" font-family="Helvetica,sans-Serif" font-size="10.00">14</text>
</a>
</g>
</g>
</g>
</svg>
        <g id="navigator" transform="translate(0 0)" fill="#404254">
                <rect fill="#f2f5e9" fill-opacity="0.5" stroke="#606060" stroke-width=".5" x="0" y="0" width="60" height="60"/>
                <use id="zoomplus" xlink:href="#zoomPlus" x="17" y="9" onmousedown="handleZoom(evt,'in')"/>
                <use id="zoomminus" xlink:href="#zoomMin" x="42" y="9" onmousedown="handleZoom(evt,'out')"/>
                <use id="reset" xlink:href="#resetDef" x="30" y="36" onmousedown="handleReset()"/>
                <g id="arrowUp" xlink:href="#dirArrow" transform="translate(30 24)" onmousedown="handlePan(0,-1)">
                  <use xlink:href="#rim" fill="#404040">
                        <set attributeName="fill" to="#808080" begin="arrowUp.mouseover" end="arrowUp.mouseout"/>
                  </use>
                  <path fill="none" stroke="white" stroke-width="1.5" d="M0,-3.0v7 M-2.5,-0.5L0,-3.0L2.5,-0.5"/>
                </g>
                <g id="arrowRight" xlink:href="#dirArrow" transform="rotate(90) translate(36 -43)" onmousedown="handlePan(1,0)">
                  <use xlink:href="#rim" fill="#404040">
                        <set attributeName="fill" to="#808080" begin="arrowRight.mouseover" end="arrowRight.mouseout"/>
                  </use>
                  <path fill="none" stroke="white" stroke-width="1.5" d="M0,-3.0v7 M-2.5,-0.5L0,-3.0L2.5,-0.5"/>
                </g>
                <g id="arrowDown" xlink:href="#dirArrow" transform="rotate(180) translate(-30 -48)" onmousedown="handlePan(0,1)">
                  <use xlink:href="#rim" fill="#404040">
                        <set attributeName="fill" to="#808080" begin="arrowDown.mouseover" end="arrowDown.mouseout"/>
                  </use>
                  <path fill="none" stroke="white" stroke-width="1.5" d="M0,-3.0v7 M-2.5,-0.5L0,-3.0L2.5,-0.5"/>
                </g>
                <g id="arrowLeft" xlink:href="#dirArrow" transform="rotate(270) translate(-36 17)" onmousedown="handlePan(-1,0)">
                  <use xlink:href="#rim" fill="#404040">
                        <set attributeName="fill" to="#808080" begin="arrowLeft.mouseover" end="arrowLeft.mouseout"/>
                  </use>
                  <path fill="none" stroke="white" stroke-width="1.5" d="M0,-3.0v7 M-2.5,-0.5L0,-3.0L2.5,-0.5"/>
                </g>
        </g>
        <svg viewBox="0 0 15 15" width="100%" height="30px" preserveAspectRatio="xMaxYMin meet">
         <g id="arrow_out" transform="scale(0.3 0.3)">
          <a xlink:href="dir_f2541a3b18981391fa76fac5599e978a_dep_org.svg" target="_base">
           <rect id="button" ry="5" rx="5" y="6" x="6" height="38" width="38"
                fill="#f2f5e9" fill-opacity="0.5" stroke="#606060" stroke-width="1.0"/>
           <path id="arrow"
             d="M 11.500037,31.436501 C 11.940474,20.09759 22.043105,11.32322 32.158766,21.979434 L 37.068811,17.246167 C 37.068811,17.246167 37.088388,32 37.088388,32 L 22.160133,31.978069 C 22.160133,31.978069 26.997745,27.140456 26.997745,27.140456 C 18.528582,18.264221 13.291696,25.230495 11.500037,31.436501 z"
             style="fill:#404040;"/>
          </a>
         </g>
        </svg>
</svg>
