<?xml version="1.0" encoding="UTF-8" standalone="no"?>
<!DOCTYPE svg PUBLIC "-//W3C//DTD SVG 1.1//EN"
 "http://www.w3.org/Graphics/SVG/1.1/DTD/svg11.dtd">
<!-- Generated by graphviz version 2.38.0 (20140413.2041)
 -->
<!-- Title: Framework/src/DummyDatabase.cxx Pages: 1 -->
<!--zoomable 308 -->
<svg id="main" version="1.1" xmlns="http://www.w3.org/2000/svg" xmlns:xlink="http://www.w3.org/1999/xlink" xml:space="preserve" onload="init(evt)">
<style type="text/css"><![CDATA[
.edge:hover path { stroke: red; }
.edge:hover polygon { stroke: red; fill: red; }
]]></style>
<script type="text/javascript"><![CDATA[
var edges = document.getElementsByTagName('g');
if (edges && edges.length) {
  for (var i=0;i<edges.length;i++) {
    if (edges[i].id.substr(0,4)=='edge') {
      edges[i].setAttribute('class','edge');
    }
  }
}
]]></script>
        <defs>
                <circle id="rim" cx="0" cy="0" r="7"/>
                <circle id="rim2" cx="0" cy="0" r="3.5"/>
                <g id="zoomPlus">
                        <use xlink:href="#rim" fill="#404040">
                                <set attributeName="fill" to="#808080" begin="zoomplus.mouseover" end="zoomplus.mouseout"/>
                        </use>
                        <path d="M-4,0h8M0,-4v8" fill="none" stroke="white" stroke-width="1.5" pointer-events="none"/>
                </g>
                <g id="zoomMin">
                        <use xlink:href="#rim" fill="#404040">
                                <set attributeName="fill" to="#808080" begin="zoomminus.mouseover" end="zoomminus.mouseout"/>
                        </use>
                        <path d="M-4,0h8" fill="none" stroke="white" stroke-width="1.5" pointer-events="none"/>
                </g>
                <g id="dirArrow">
                        <path fill="none" stroke="white" stroke-width="1.5" d="M0,-3.0v7 M-2.5,-0.5L0,-3.0L2.5,-0.5"/>
                </g>
               <g id="resetDef">
                       <use xlink:href="#rim2" fill="#404040">
                               <set attributeName="fill" to="#808080" begin="reset.mouseover" end="reset.mouseout"/>
                       </use>
               </g>
        </defs>

<script type="text/javascript">
var viewWidth = 619;
var viewHeight = 308;
var sectionId = 'dynsection-0';
</script>
<script xlink:href="svgpan.js"/>
<svg id="graph" class="graph">
<g id="viewport">
<title>Framework/src/DummyDatabase.cxx</title>
<!-- Node1 -->
<g id="node1" class="node"><title>Node1</title>
<polygon fill="#bfbfbf" stroke="black" points="272.5,-280.5 272.5,-299.5 452.5,-299.5 452.5,-280.5 272.5,-280.5"/>
<text text-anchor="middle" x="362.5" y="-287.5" font-family="Helvetica,sans-Serif" font-size="10.00">Framework/src/DummyDatabase.cxx</text>
</g>
<!-- Node2 -->
<g id="node2" class="node"><title>Node2</title>
<g id="a_node2"><a xlink:href="DummyDatabase_8h.html" target="_top" xlink:title="QualityControl/DummyDatabase.h">
<polygon fill="none" stroke="black" points="279,-224.5 279,-243.5 446,-243.5 446,-224.5 279,-224.5"/>
<text text-anchor="middle" x="362.5" y="-231.5" font-family="Helvetica,sans-Serif" font-size="10.00">QualityControl/DummyDatabase.h</text>
</a>
</g>
</g>
<!-- Node1&#45;&gt;Node2 -->
<g id="edge1" class="edge"><title>Node1&#45;&gt;Node2</title>
<path fill="none" stroke="midnightblue" d="M362.5,-280.083C362.5,-273.006 362.5,-262.861 362.5,-253.986"/>
<polygon fill="midnightblue" stroke="midnightblue" points="366,-253.751 362.5,-243.751 359,-253.751 366,-253.751"/>
</g>
<!-- Node3 -->
<g id="node3" class="node"><title>Node3</title>
<g id="a_node3"><a xlink:href="DatabaseInterface_8h.html" target="_top" xlink:title="QualityControl/DatabaseInterface.h">
<polygon fill="none" stroke="black" points="277.5,-168.5 277.5,-187.5 447.5,-187.5 447.5,-168.5 277.5,-168.5"/>
<text text-anchor="middle" x="362.5" y="-175.5" font-family="Helvetica,sans-Serif" font-size="10.00">QualityControl/DatabaseInterface.h</text>
</a>
</g>
</g>
<!-- Node2&#45;&gt;Node3 -->
<g id="edge2" class="edge"><title>Node2&#45;&gt;Node3</title>
<path fill="none" stroke="midnightblue" d="M362.5,-224.083C362.5,-217.006 362.5,-206.861 362.5,-197.986"/>
<polygon fill="midnightblue" stroke="midnightblue" points="366,-197.751 362.5,-187.751 359,-197.751 366,-197.751"/>
</g>
<!-- Node4 -->
<g id="node4" class="node"><title>Node4</title>
<polygon fill="none" stroke="#bfbfbf" points="0,-0.5 0,-19.5 41,-19.5 41,-0.5 0,-0.5"/>
<text text-anchor="middle" x="20.5" y="-7.5" font-family="Helvetica,sans-Serif" font-size="10.00">string</text>
</g>
<!-- Node3&#45;&gt;Node4 -->
<g id="edge3" class="edge"><title>Node3&#45;&gt;Node4</title>
<path fill="none" stroke="midnightblue" d="M277.477,-175.155C196.723,-171.61 82.9639,-161.376 50.5,-132 21.5733,-105.825 18.5085,-56.5228 19.2275,-29.6378"/>
<polygon fill="midnightblue" stroke="midnightblue" points="22.7248,-29.7756 19.7029,-19.6209 15.7326,-29.4437 22.7248,-29.7756"/>
</g>
<!-- Node5 -->
<g id="node5" class="node"><title>Node5</title>
<polygon fill="none" stroke="#bfbfbf" points="395.5,-112.5 395.5,-131.5 447.5,-131.5 447.5,-112.5 395.5,-112.5"/>
<text text-anchor="middle" x="421.5" y="-119.5" font-family="Helvetica,sans-Serif" font-size="10.00">memory</text>
</g>
<!-- Node3&#45;&gt;Node5 -->
<g id="edge4" class="edge"><title>Node3&#45;&gt;Node5</title>
<path fill="none" stroke="midnightblue" d="M371.979,-168.324C380.701,-160.341 393.843,-148.313 404.398,-138.653"/>
<polygon fill="midnightblue" stroke="midnightblue" points="406.834,-141.167 411.848,-131.834 402.108,-136.004 406.834,-141.167"/>
</g>
<!-- Node6 -->
<g id="node6" class="node"><title>Node6</title>
<polygon fill="none" stroke="#bfbfbf" points="465.5,-112.5 465.5,-131.5 509.5,-131.5 509.5,-112.5 465.5,-112.5"/>
<text text-anchor="middle" x="487.5" y="-119.5" font-family="Helvetica,sans-Serif" font-size="10.00">vector</text>
</g>
<!-- Node3&#45;&gt;Node6 -->
<g id="edge5" class="edge"><title>Node3&#45;&gt;Node6</title>
<path fill="none" stroke="midnightblue" d="M382.307,-168.444C402.787,-159.596 434.983,-145.687 458.365,-135.586"/>
<polygon fill="midnightblue" stroke="midnightblue" points="459.994,-138.695 467.786,-131.516 457.218,-132.269 459.994,-138.695"/>
</g>
<!-- Node7 -->
<g id="node7" class="node"><title>Node7</title>
<polygon fill="none" stroke="#bfbfbf" points="528,-112.5 528,-131.5 611,-131.5 611,-112.5 528,-112.5"/>
<text text-anchor="middle" x="569.5" y="-119.5" font-family="Helvetica,sans-Serif" font-size="10.00">unordered_map</text>
</g>
<!-- Node3&#45;&gt;Node7 -->
<g id="edge6" class="edge"><title>Node3&#45;&gt;Node7</title>
<path fill="none" stroke="midnightblue" d="M395.3,-168.444C430.88,-159.162 487.814,-144.309 526.847,-134.127"/>
<polygon fill="midnightblue" stroke="midnightblue" points="528.061,-137.427 536.854,-131.516 526.294,-130.654 528.061,-137.427"/>
</g>
<!-- Node8 -->
<g id="node8" class="node"><title>Node8</title>
<g id="a_node8"><a xlink:href="QualityObject_8h_source.html" target="_top" xlink:title="QualityControl/QualityObject.h">
<polygon fill="none" stroke="black" points="229,-112.5 229,-131.5 378,-131.5 378,-112.5 229,-112.5"/>
<text text-anchor="middle" x="303.5" y="-119.5" font-family="Helvetica,sans-Serif" font-size="10.00">QualityControl/QualityObject.h</text>
</a>
</g>
</g>
<!-- Node3&#45;&gt;Node8 -->
<g id="edge7" class="edge"><title>Node3&#45;&gt;Node8</title>
<path fill="none" stroke="midnightblue" d="M353.021,-168.324C344.299,-160.341 331.157,-148.313 320.602,-138.653"/>
<polygon fill="midnightblue" stroke="midnightblue" points="322.892,-136.004 313.152,-131.834 318.166,-141.167 322.892,-136.004"/>
</g>
<!-- Node15 -->
<g id="node15" class="node"><title>Node15</title>
<g id="a_node15"><a xlink:href="MonitorObject_8h.html" target="_top" xlink:title="QualityControl/MonitorObject.h">
<polygon fill="none" stroke="black" points="60,-112.5 60,-131.5 211,-131.5 211,-112.5 60,-112.5"/>
<text text-anchor="middle" x="135.5" y="-119.5" font-family="Helvetica,sans-Serif" font-size="10.00">QualityControl/MonitorObject.h</text>
</a>
</g>
</g>
<!-- Node3&#45;&gt;Node15 -->
<g id="edge15" class="edge"><title>Node3&#45;&gt;Node15</title>
<path fill="none" stroke="midnightblue" d="M326.531,-168.444C287.181,-159.083 224.013,-144.056 181.186,-133.868"/>
<polygon fill="midnightblue" stroke="midnightblue" points="181.839,-130.426 171.301,-131.516 180.219,-137.236 181.839,-130.426"/>
</g>
<!-- Node9 -->
<g id="node9" class="node"><title>Node9</title>
<polygon fill="none" stroke="#bfbfbf" points="490.5,-56.5 490.5,-75.5 544.5,-75.5 544.5,-56.5 490.5,-56.5"/>
<text text-anchor="middle" x="517.5" y="-63.5" font-family="Helvetica,sans-Serif" font-size="10.00">iostream</text>
</g>
<!-- Node8&#45;&gt;Node9 -->
<g id="edge8" class="edge"><title>Node8&#45;&gt;Node9</title>
<path fill="none" stroke="midnightblue" d="M337.409,-112.444C376.414,-102.601 440.24,-86.4955 480.502,-76.336"/>
<polygon fill="midnightblue" stroke="midnightblue" points="481.361,-79.729 490.201,-73.8886 479.648,-72.9417 481.361,-79.729"/>
</g>
<!-- Node10 -->
<g id="node10" class="node"><title>Node10</title>
<polygon fill="none" stroke="#bfbfbf" points="221,-56.5 221,-75.5 256,-75.5 256,-56.5 221,-56.5"/>
<text text-anchor="middle" x="238.5" y="-63.5" font-family="Helvetica,sans-Serif" font-size="10.00">map</text>
</g>
<!-- Node8&#45;&gt;Node10 -->
<g id="edge9" class="edge"><title>Node8&#45;&gt;Node10</title>
<path fill="none" stroke="midnightblue" d="M293.057,-112.324C283.354,-104.263 268.685,-92.0765 257,-82.3695"/>
<polygon fill="midnightblue" stroke="midnightblue" points="259.062,-79.532 249.133,-75.8339 254.589,-84.9163 259.062,-79.532"/>
</g>
<!-- Node11 -->
<g id="node11" class="node"><title>Node11</title>
<polygon fill="none" stroke="#bfbfbf" points="274,-56.5 274,-75.5 333,-75.5 333,-56.5 274,-56.5"/>
<text text-anchor="middle" x="303.5" y="-63.5" font-family="Helvetica,sans-Serif" font-size="10.00">TObject.h</text>
</g>
<!-- Node8&#45;&gt;Node11 -->
<g id="edge10" class="edge"><title>Node8&#45;&gt;Node11</title>
<path fill="none" stroke="midnightblue" d="M303.5,-112.083C303.5,-105.006 303.5,-94.8611 303.5,-85.9865"/>
<polygon fill="midnightblue" stroke="midnightblue" points="307,-85.751 303.5,-75.7511 300,-85.7511 307,-85.751"/>
</g>
<!-- Node12 -->
<g id="node12" class="node"><title>Node12</title>
<polygon fill="none" stroke="#bfbfbf" points="86.5,-56.5 86.5,-75.5 202.5,-75.5 202.5,-56.5 86.5,-56.5"/>
<text text-anchor="middle" x="144.5" y="-63.5" font-family="Helvetica,sans-Serif" font-size="10.00">Common/Exceptions.h</text>
</g>
<!-- Node8&#45;&gt;Node12 -->
<g id="edge11" class="edge"><title>Node8&#45;&gt;Node12</title>
<path fill="none" stroke="midnightblue" d="M278.306,-112.444C251.557,-103.359 209.097,-88.9388 179.195,-78.7831"/>
<polygon fill="midnightblue" stroke="midnightblue" points="180.171,-75.4182 169.576,-75.5164 177.919,-82.0464 180.171,-75.4182"/>
</g>
<!-- Node13 -->
<g id="node13" class="node"><title>Node13</title>
<g id="a_node13"><a xlink:href="Quality_8h.html" target="_top" xlink:title="QualityControl/Quality.h">
<polygon fill="none" stroke="black" points="351,-56.5 351,-75.5 472,-75.5 472,-56.5 351,-56.5"/>
<text text-anchor="middle" x="411.5" y="-63.5" font-family="Helvetica,sans-Serif" font-size="10.00">QualityControl/Quality.h</text>
</a>
</g>
</g>
<!-- Node8&#45;&gt;Node13 -->
<g id="edge12" class="edge"><title>Node8&#45;&gt;Node13</title>
<path fill="none" stroke="midnightblue" d="M320.852,-112.324C338.172,-103.664 365.015,-90.2424 385.002,-80.249"/>
<polygon fill="midnightblue" stroke="midnightblue" points="386.812,-83.2572 394.191,-75.6545 383.681,-76.9962 386.812,-83.2572"/>
</g>
<!-- Node13&#45;&gt;Node4 -->
<g id="edge14" class="edge"><title>Node13&#45;&gt;Node4</title>
<path fill="none" stroke="midnightblue" d="M350.835,-56.6217C266.105,-44.9199 115.493,-24.1192 51.0879,-15.2244"/>
<polygon fill="midnightblue" stroke="midnightblue" points="51.5442,-11.7543 41.1593,-13.8532 50.5864,-18.6885 51.5442,-11.7543"/>
</g>
<!-- Node14 -->
<g id="node14" class="node"><title>Node14</title>
<polygon fill="none" stroke="#bfbfbf" points="221.5,-0.5 221.5,-19.5 277.5,-19.5 277.5,-0.5 221.5,-0.5"/>
<text text-anchor="middle" x="249.5" y="-7.5" font-family="Helvetica,sans-Serif" font-size="10.00">Rtypes.h</text>
</g>
<!-- Node13&#45;&gt;Node14 -->
<g id="edge13" class="edge"><title>Node13&#45;&gt;Node14</title>
<path fill="none" stroke="midnightblue" d="M385.831,-56.4435C358.577,-47.3591 315.316,-32.9388 284.849,-22.7831"/>
<polygon fill="midnightblue" stroke="midnightblue" points="285.643,-19.3584 275.049,-19.5164 283.429,-25.9992 285.643,-19.3584"/>
</g>
<!-- Node15&#45;&gt;Node4 -->
<g id="edge16" class="edge"><title>Node15&#45;&gt;Node4</title>
<path fill="none" stroke="midnightblue" d="M120.051,-112.441C105.97,-104.202 85.0568,-90.8343 69.5,-76 54.3761,-61.5785 40.3749,-42.1296 31.2457,-28.2733"/>
<polygon fill="midnightblue" stroke="midnightblue" points="34.0947,-26.2323 25.7499,-19.7044 28.2025,-30.0115 34.0947,-26.2323"/>
</g>
<!-- Node15&#45;&gt;Node10 -->
<g id="edge17" class="edge"><title>Node15&#45;&gt;Node10</title>
<path fill="none" stroke="midnightblue" d="M152.049,-112.324C168.492,-103.703 193.935,-90.3643 212.968,-80.3855"/>
<polygon fill="midnightblue" stroke="midnightblue" points="214.761,-83.3977 221.992,-75.6545 211.511,-77.198 214.761,-83.3977"/>
</g>
<!-- Node15&#45;&gt;Node11 -->
<g id="edge19" class="edge"><title>Node15&#45;&gt;Node11</title>
<path fill="none" stroke="midnightblue" d="M162.12,-112.444C190.506,-103.32 235.637,-88.8133 267.253,-78.6509"/>
<polygon fill="midnightblue" stroke="midnightblue" points="268.555,-81.9087 277.004,-75.5164 266.413,-75.2445 268.555,-81.9087"/>
</g>
<!-- Node15&#45;&gt;Node12 -->
<g id="edge20" class="edge"><title>Node15&#45;&gt;Node12</title>
<path fill="none" stroke="midnightblue" d="M136.986,-112.083C138.179,-104.927 139.894,-94.6353 141.385,-85.6911"/>
<polygon fill="midnightblue" stroke="midnightblue" points="144.85,-86.1904 143.041,-75.7511 137.945,-85.0396 144.85,-86.1904"/>
</g>
<!-- Node15&#45;&gt;Node14 -->
<g id="edge18" class="edge"><title>Node15&#45;&gt;Node14</title>
<path fill="none" stroke="midnightblue" d="M117.665,-112.304C95.1299,-100.151 61.141,-77.1896 77.5,-56 93.6868,-35.0334 165.48,-21.9536 211.043,-15.6095"/>
<polygon fill="midnightblue" stroke="midnightblue" points="211.729,-19.0489 221.174,-14.2491 210.797,-12.1112 211.729,-19.0489"/>
</g>
</g>
</svg>
        <g id="navigator" transform="translate(0 0)" fill="#404254">
                <rect fill="#f2f5e9" fill-opacity="0.5" stroke="#606060" stroke-width=".5" x="0" y="0" width="60" height="60"/>
                <use id="zoomplus" xlink:href="#zoomPlus" x="17" y="9" onmousedown="handleZoom(evt,'in')"/>
                <use id="zoomminus" xlink:href="#zoomMin" x="42" y="9" onmousedown="handleZoom(evt,'out')"/>
                <use id="reset" xlink:href="#resetDef" x="30" y="36" onmousedown="handleReset()"/>
                <g id="arrowUp" xlink:href="#dirArrow" transform="translate(30 24)" onmousedown="handlePan(0,-1)">
                  <use xlink:href="#rim" fill="#404040">
                        <set attributeName="fill" to="#808080" begin="arrowUp.mouseover" end="arrowUp.mouseout"/>
                  </use>
                  <path fill="none" stroke="white" stroke-width="1.5" d="M0,-3.0v7 M-2.5,-0.5L0,-3.0L2.5,-0.5"/>
                </g>
                <g id="arrowRight" xlink:href="#dirArrow" transform="rotate(90) translate(36 -43)" onmousedown="handlePan(1,0)">
                  <use xlink:href="#rim" fill="#404040">
                        <set attributeName="fill" to="#808080" begin="arrowRight.mouseover" end="arrowRight.mouseout"/>
                  </use>
                  <path fill="none" stroke="white" stroke-width="1.5" d="M0,-3.0v7 M-2.5,-0.5L0,-3.0L2.5,-0.5"/>
                </g>
                <g id="arrowDown" xlink:href="#dirArrow" transform="rotate(180) translate(-30 -48)" onmousedown="handlePan(0,1)">
                  <use xlink:href="#rim" fill="#404040">
                        <set attributeName="fill" to="#808080" begin="arrowDown.mouseover" end="arrowDown.mouseout"/>
                  </use>
                  <path fill="none" stroke="white" stroke-width="1.5" d="M0,-3.0v7 M-2.5,-0.5L0,-3.0L2.5,-0.5"/>
                </g>
                <g id="arrowLeft" xlink:href="#dirArrow" transform="rotate(270) translate(-36 17)" onmousedown="handlePan(-1,0)">
                  <use xlink:href="#rim" fill="#404040">
                        <set attributeName="fill" to="#808080" begin="arrowLeft.mouseover" end="arrowLeft.mouseout"/>
                  </use>
                  <path fill="none" stroke="white" stroke-width="1.5" d="M0,-3.0v7 M-2.5,-0.5L0,-3.0L2.5,-0.5"/>
                </g>
        </g>
        <svg viewBox="0 0 15 15" width="100%" height="30px" preserveAspectRatio="xMaxYMin meet">
         <g id="arrow_out" transform="scale(0.3 0.3)">
          <a xlink:href="DummyDatabase_8cxx__incl_org.svg" target="_base">
           <rect id="button" ry="5" rx="5" y="6" x="6" height="38" width="38"
                fill="#f2f5e9" fill-opacity="0.5" stroke="#606060" stroke-width="1.0"/>
           <path id="arrow"
             d="M 11.500037,31.436501 C 11.940474,20.09759 22.043105,11.32322 32.158766,21.979434 L 37.068811,17.246167 C 37.068811,17.246167 37.088388,32 37.088388,32 L 22.160133,31.978069 C 22.160133,31.978069 26.997745,27.140456 26.997745,27.140456 C 18.528582,18.264221 13.291696,25.230495 11.500037,31.436501 z"
             style="fill:#404040;"/>
          </a>
         </g>
        </svg>
</svg>
