<?xml version="1.0" encoding="UTF-8" standalone="no"?>
<!DOCTYPE svg PUBLIC "-//W3C//DTD SVG 1.1//EN"
 "http://www.w3.org/Graphics/SVG/1.1/DTD/svg11.dtd">
<!-- Generated by graphviz version 2.38.0 (20140413.2041)
 -->
<!-- Title: Modules/Daq/include/Daq/EverIncreasingGraph.h Pages: 1 -->
<svg width="496pt" height="207pt"
 viewBox="0.00 0.00 496.25 207.00" xmlns="http://www.w3.org/2000/svg" xmlns:xlink="http://www.w3.org/1999/xlink">
<g id="graph0" class="graph" transform="scale(1 1) rotate(0) translate(4 203)">
<title>Modules/Daq/include/Daq/EverIncreasingGraph.h</title>
<!-- Node1 -->
<g id="node1" class="node"><title>Node1</title>
<polygon fill="#bfbfbf" stroke="black" points="142.5,-168.5 142.5,-198.5 282.5,-198.5 282.5,-168.5 142.5,-168.5"/>
<text text-anchor="start" x="150.5" y="-186.5" font-family="Helvetica,sans-Serif" font-size="10.00">Modules/Daq/include</text>
<text text-anchor="middle" x="212.5" y="-175.5" font-family="Helvetica,sans-Serif" font-size="10.00">/Daq/EverIncreasingGraph.h</text>
</g>
<!-- Node2 -->
<g id="node2" class="node"><title>Node2</title>
<polygon fill="none" stroke="#bfbfbf" points="80,-112.5 80,-131.5 193,-131.5 193,-112.5 80,-112.5"/>
<text text-anchor="middle" x="136.5" y="-119.5" font-family="Helvetica,sans-Serif" font-size="10.00">Common/DataBlock.h</text>
</g>
<!-- Node1&#45;&gt;Node2 -->
<g id="edge1" class="edge"><title>Node1&#45;&gt;Node2</title>
<path fill="none" stroke="midnightblue" d="M194.489,-168.399C182.762,-159.218 167.485,-147.258 155.555,-137.918"/>
<polygon fill="midnightblue" stroke="midnightblue" points="157.59,-135.066 147.559,-131.658 153.275,-140.578 157.59,-135.066"/>
</g>
<!-- Node3 -->
<g id="node3" class="node"><title>Node3</title>
<g id="a_node3"><a xlink:href="CheckInterface_8h.html" target="_top" xlink:title="QualityControl/CheckInterface.h">
<polygon fill="none" stroke="black" points="211,-112.5 211,-131.5 368,-131.5 368,-112.5 211,-112.5"/>
<text text-anchor="middle" x="289.5" y="-119.5" font-family="Helvetica,sans-Serif" font-size="10.00">QualityControl/CheckInterface.h</text>
</a>
</g>
</g>
<!-- Node1&#45;&gt;Node3 -->
<g id="edge2" class="edge"><title>Node1&#45;&gt;Node3</title>
<path fill="none" stroke="midnightblue" d="M230.748,-168.399C242.629,-159.218 258.107,-147.258 270.194,-137.918"/>
<polygon fill="midnightblue" stroke="midnightblue" points="272.523,-140.542 278.296,-131.658 268.243,-135.003 272.523,-140.542"/>
</g>
<!-- Node4 -->
<g id="node4" class="node"><title>Node4</title>
<polygon fill="none" stroke="#bfbfbf" points="304,-0.5 304,-19.5 345,-19.5 345,-0.5 304,-0.5"/>
<text text-anchor="middle" x="324.5" y="-7.5" font-family="Helvetica,sans-Serif" font-size="10.00">string</text>
</g>
<!-- Node3&#45;&gt;Node4 -->
<g id="edge3" class="edge"><title>Node3&#45;&gt;Node4</title>
<path fill="none" stroke="midnightblue" d="M292.435,-112.393C295.503,-103.35 300.429,-88.7044 304.5,-76 309.511,-60.3644 314.979,-42.5355 318.93,-29.5099"/>
<polygon fill="midnightblue" stroke="midnightblue" points="322.306,-30.4367 321.848,-19.8518 315.605,-28.4122 322.306,-30.4367"/>
</g>
<!-- Node5 -->
<g id="node5" class="node"><title>Node5</title>
<polygon fill="none" stroke="#bfbfbf" points="0,-0.5 0,-19.5 35,-19.5 35,-0.5 0,-0.5"/>
<text text-anchor="middle" x="17.5" y="-7.5" font-family="Helvetica,sans-Serif" font-size="10.00">map</text>
</g>
<!-- Node3&#45;&gt;Node5 -->
<g id="edge4" class="edge"><title>Node3&#45;&gt;Node5</title>
<path fill="none" stroke="midnightblue" d="M218.973,-112.499C148.278,-103.357 48.0096,-88.4556 34.5,-76 21.7893,-64.2809 18.0984,-44.3429 17.2436,-29.6316"/>
<polygon fill="midnightblue" stroke="midnightblue" points="20.7427,-29.5501 17.0403,-19.6233 13.7442,-29.6924 20.7427,-29.5501"/>
</g>
<!-- Node6 -->
<g id="node6" class="node"><title>Node6</title>
<polygon fill="none" stroke="#bfbfbf" points="213,-56.5 213,-75.5 296,-75.5 296,-56.5 213,-56.5"/>
<text text-anchor="middle" x="254.5" y="-63.5" font-family="Helvetica,sans-Serif" font-size="10.00">unordered_map</text>
</g>
<!-- Node3&#45;&gt;Node6 -->
<g id="edge5" class="edge"><title>Node3&#45;&gt;Node6</title>
<path fill="none" stroke="midnightblue" d="M283.72,-112.083C278.828,-104.534 271.673,-93.4948 265.667,-84.2298"/>
<polygon fill="midnightblue" stroke="midnightblue" points="268.548,-82.239 260.172,-75.7511 262.674,-86.0463 268.548,-82.239"/>
</g>
<!-- Node7 -->
<g id="node7" class="node"><title>Node7</title>
<polygon fill="none" stroke="#bfbfbf" points="385.5,-0.5 385.5,-19.5 441.5,-19.5 441.5,-0.5 385.5,-0.5"/>
<text text-anchor="middle" x="413.5" y="-7.5" font-family="Helvetica,sans-Serif" font-size="10.00">Rtypes.h</text>
</g>
<!-- Node3&#45;&gt;Node7 -->
<g id="edge6" class="edge"><title>Node3&#45;&gt;Node7</title>
<path fill="none" stroke="midnightblue" d="M368.037,-112.703C415.234,-105.915 468.901,-94.3735 483.5,-76 499.58,-55.7628 470.134,-36.074 444.635,-23.7671"/>
<polygon fill="midnightblue" stroke="midnightblue" points="446.06,-20.57 435.512,-19.5797 443.14,-26.932 446.06,-20.57"/>
</g>
<!-- Node8 -->
<g id="node8" class="node"><title>Node8</title>
<g id="a_node8"><a xlink:href="MonitorObject_8h.html" target="_top" xlink:title="QualityControl/MonitorObject.h">
<polygon fill="none" stroke="black" points="44,-56.5 44,-75.5 195,-75.5 195,-56.5 44,-56.5"/>
<text text-anchor="middle" x="119.5" y="-63.5" font-family="Helvetica,sans-Serif" font-size="10.00">QualityControl/MonitorObject.h</text>
</a>
</g>
</g>
<!-- Node3&#45;&gt;Node8 -->
<g id="edge7" class="edge"><title>Node3&#45;&gt;Node8</title>
<path fill="none" stroke="midnightblue" d="M262.563,-112.444C233.84,-103.32 188.171,-88.8133 156.179,-78.6509"/>
<polygon fill="midnightblue" stroke="midnightblue" points="156.901,-75.2081 146.311,-75.5164 154.782,-81.8797 156.901,-75.2081"/>
</g>
<!-- Node11 -->
<g id="node11" class="node"><title>Node11</title>
<g id="a_node11"><a xlink:href="Quality_8h.html" target="_top" xlink:title="QualityControl/Quality.h">
<polygon fill="none" stroke="black" points="353,-56.5 353,-75.5 474,-75.5 474,-56.5 353,-56.5"/>
<text text-anchor="middle" x="413.5" y="-63.5" font-family="Helvetica,sans-Serif" font-size="10.00">QualityControl/Quality.h</text>
</a>
</g>
</g>
<!-- Node3&#45;&gt;Node11 -->
<g id="edge13" class="edge"><title>Node3&#45;&gt;Node11</title>
<path fill="none" stroke="midnightblue" d="M309.148,-112.444C329.465,-103.596 361.403,-89.6875 384.598,-79.5865"/>
<polygon fill="midnightblue" stroke="midnightblue" points="386.173,-82.7181 393.944,-75.5164 383.378,-76.3002 386.173,-82.7181"/>
</g>
<!-- Node8&#45;&gt;Node4 -->
<g id="edge8" class="edge"><title>Node8&#45;&gt;Node4</title>
<path fill="none" stroke="midnightblue" d="M151.983,-56.4435C190.888,-46.1953 255.573,-29.1565 293.711,-19.1103"/>
<polygon fill="midnightblue" stroke="midnightblue" points="294.942,-22.4055 303.721,-16.4736 293.159,-15.6364 294.942,-22.4055"/>
</g>
<!-- Node8&#45;&gt;Node5 -->
<g id="edge9" class="edge"><title>Node8&#45;&gt;Node5</title>
<path fill="none" stroke="midnightblue" d="M103.112,-56.324C86.8287,-47.7034 61.6325,-34.3643 42.7837,-24.3855"/>
<polygon fill="midnightblue" stroke="midnightblue" points="44.3229,-21.2402 33.8474,-19.6545 41.0477,-27.4267 44.3229,-21.2402"/>
</g>
<!-- Node8&#45;&gt;Node7 -->
<g id="edge10" class="edge"><title>Node8&#45;&gt;Node7</title>
<path fill="none" stroke="midnightblue" d="M166.085,-56.4435C223.919,-45.821 321.474,-27.9028 375.181,-18.0382"/>
<polygon fill="midnightblue" stroke="midnightblue" points="376.11,-21.4262 385.313,-16.1772 374.845,-14.5414 376.11,-21.4262"/>
</g>
<!-- Node9 -->
<g id="node9" class="node"><title>Node9</title>
<polygon fill="none" stroke="#bfbfbf" points="193,-0.5 193,-19.5 252,-19.5 252,-0.5 193,-0.5"/>
<text text-anchor="middle" x="222.5" y="-7.5" font-family="Helvetica,sans-Serif" font-size="10.00">TObject.h</text>
</g>
<!-- Node8&#45;&gt;Node9 -->
<g id="edge11" class="edge"><title>Node8&#45;&gt;Node9</title>
<path fill="none" stroke="midnightblue" d="M136.049,-56.324C152.492,-47.7034 177.935,-34.3643 196.968,-24.3855"/>
<polygon fill="midnightblue" stroke="midnightblue" points="198.761,-27.3977 205.992,-19.6545 195.511,-21.198 198.761,-27.3977"/>
</g>
<!-- Node10 -->
<g id="node10" class="node"><title>Node10</title>
<polygon fill="none" stroke="#bfbfbf" points="58.5,-0.5 58.5,-19.5 174.5,-19.5 174.5,-0.5 58.5,-0.5"/>
<text text-anchor="middle" x="116.5" y="-7.5" font-family="Helvetica,sans-Serif" font-size="10.00">Common/Exceptions.h</text>
</g>
<!-- Node8&#45;&gt;Node10 -->
<g id="edge12" class="edge"><title>Node8&#45;&gt;Node10</title>
<path fill="none" stroke="midnightblue" d="M119.005,-56.083C118.611,-49.0059 118.048,-38.8611 117.555,-29.9865"/>
<polygon fill="midnightblue" stroke="midnightblue" points="121.036,-29.5415 116.986,-19.7511 114.046,-29.9299 121.036,-29.5415"/>
</g>
<!-- Node11&#45;&gt;Node4 -->
<g id="edge15" class="edge"><title>Node11&#45;&gt;Node4</title>
<path fill="none" stroke="midnightblue" d="M399.201,-56.324C385.317,-47.9002 364.008,-34.9709 347.696,-25.0741"/>
<polygon fill="midnightblue" stroke="midnightblue" points="349.129,-21.8495 338.764,-19.6545 345.498,-27.8341 349.129,-21.8495"/>
</g>
<!-- Node11&#45;&gt;Node7 -->
<g id="edge14" class="edge"><title>Node11&#45;&gt;Node7</title>
<path fill="none" stroke="midnightblue" d="M413.5,-56.083C413.5,-49.0059 413.5,-38.8611 413.5,-29.9865"/>
<polygon fill="midnightblue" stroke="midnightblue" points="417,-29.751 413.5,-19.7511 410,-29.7511 417,-29.751"/>
</g>
</g>
</svg>
