<?xml version="1.0" encoding="UTF-8" standalone="no"?>
<!DOCTYPE svg PUBLIC "-//W3C//DTD SVG 1.1//EN"
 "http://www.w3.org/Graphics/SVG/1.1/DTD/svg11.dtd">
<!-- Generated by graphviz version 2.38.0 (20140413.2041)
 -->
<!-- Title: Graphical Class Hierarchy Pages: 1 -->
<svg width="314pt" height="88pt"
 viewBox="0.00 0.00 314.00 88.00" xmlns="http://www.w3.org/2000/svg" xmlns:xlink="http://www.w3.org/1999/xlink">
<g id="graph0" class="graph" transform="scale(1 1) rotate(0) translate(4 84)">
<title>Graphical Class Hierarchy</title>
<!-- Node1 -->
<g id="node1" class="node"><title>Node1</title>
<g id="a_node1"><a xlink:href="classDecoderBase.html" target="_top" xlink:title="DecoderBase">
<polygon fill="none" stroke="black" points="0,-30 0,-49 76,-49 76,-30 0,-30"/>
<text text-anchor="middle" x="38" y="-37" font-family="Helvetica,sans-Serif" font-size="10.00">DecoderBase</text>
</a>
</g>
</g>
<!-- Node2 -->
<g id="node2" class="node"><title>Node2</title>
<g id="a_node2"><a xlink:href="classo2_1_1quality__control__modules_1_1tof_1_1Diagnostics.html" target="_top" xlink:title="TOF Quality Control class for Decoding Compressed data for TOF Compressed data QC Task...">
<polygon fill="none" stroke="black" points="142,-49.5 142,-79.5 276,-79.5 276,-49.5 142,-49.5"/>
<text text-anchor="start" x="150" y="-67.5" font-family="Helvetica,sans-Serif" font-size="10.00">o2::quality_control</text>
<text text-anchor="middle" x="209" y="-56.5" font-family="Helvetica,sans-Serif" font-size="10.00">_modules::tof::Diagnostics</text>
</a>
</g>
</g>
<!-- Node1&#45;&gt;Node2 -->
<g id="edge1" class="edge"><title>Node1&#45;&gt;Node2</title>
<path fill="none" stroke="midnightblue" d="M86.4036,-46.5124C103.553,-49.0493 123.247,-51.9625 141.72,-54.6953"/>
<polygon fill="midnightblue" stroke="midnightblue" points="86.4923,-42.9875 76.0878,-44.9864 85.4679,-49.9121 86.4923,-42.9875"/>
</g>
<!-- Node3 -->
<g id="node3" class="node"><title>Node3</title>
<g id="a_node3"><a xlink:href="classo2_1_1quality__control__modules_1_1tof_1_1TOFDecoderCompressed.html" target="_top" xlink:title="TOF Quality Control class for Decoding Compressed data for TOF Compressed data QC Task...">
<polygon fill="none" stroke="black" points="112,-0.5 112,-30.5 306,-30.5 306,-0.5 112,-0.5"/>
<text text-anchor="start" x="120" y="-18.5" font-family="Helvetica,sans-Serif" font-size="10.00">o2::quality_control</text>
<text text-anchor="middle" x="209" y="-7.5" font-family="Helvetica,sans-Serif" font-size="10.00">_modules::tof::TOFDecoderCompressed</text>
</a>
</g>
</g>
<!-- Node1&#45;&gt;Node3 -->
<g id="edge2" class="edge"><title>Node1&#45;&gt;Node3</title>
<path fill="none" stroke="midnightblue" d="M86.0656,-32.8161C94.2127,-31.6591 102.942,-30.4195 111.847,-29.1549"/>
<polygon fill="midnightblue" stroke="midnightblue" points="85.4963,-29.3618 76.0878,-34.2331 86.4806,-36.2922 85.4963,-29.3618"/>
</g>
</g>
</svg>
