<?xml version="1.0" encoding="UTF-8" standalone="no"?>
<!DOCTYPE svg PUBLIC "-//W3C//DTD SVG 1.1//EN"
 "http://www.w3.org/Graphics/SVG/1.1/DTD/svg11.dtd">
<!-- Generated by graphviz version 2.38.0 (20140413.2041)
 -->
<!-- Title: Graphical Class Hierarchy Pages: 1 -->
<svg width="357pt" height="176pt"
 viewBox="0.00 0.00 357.00 175.50" xmlns="http://www.w3.org/2000/svg" xmlns:xlink="http://www.w3.org/1999/xlink">
<g id="graph0" class="graph" transform="scale(1 1) rotate(0) translate(4 171.5)">
<title>Graphical Class Hierarchy</title>
<!-- Node1 -->
<g id="node1" class="node"><title>Node1</title>
<g id="a_node1"><a xlink:href="classo2_1_1quality__control_1_1postprocessing_1_1Reductor.html" target="_top" xlink:title="An interface for storing data derived from QC objects into a TTree. ">
<polygon fill="none" stroke="black" points="0,-73.5 0,-103.5 134,-103.5 134,-73.5 0,-73.5"/>
<text text-anchor="start" x="8" y="-91.5" font-family="Helvetica,sans-Serif" font-size="10.00">o2::quality_control</text>
<text text-anchor="middle" x="67" y="-80.5" font-family="Helvetica,sans-Serif" font-size="10.00">::postprocessing::Reductor</text>
</a>
</g>
</g>
<!-- Node2 -->
<g id="node2" class="node"><title>Node2</title>
<g id="a_node2"><a xlink:href="classMyReductor.html" target="_top" xlink:title="MyReductor">
<polygon fill="none" stroke="black" points="224.5,-148 224.5,-167 294.5,-167 294.5,-148 224.5,-148"/>
<text text-anchor="middle" x="259.5" y="-155" font-family="Helvetica,sans-Serif" font-size="10.00">MyReductor</text>
</a>
</g>
</g>
<!-- Node1&#45;&gt;Node2 -->
<g id="edge1" class="edge"><title>Node1&#45;&gt;Node2</title>
<path fill="none" stroke="midnightblue" d="M103.479,-108.559C122.682,-118.725 147.1,-130.563 170,-138.5 187.521,-144.572 207.693,-149.084 224.349,-152.183"/>
<polygon fill="midnightblue" stroke="midnightblue" points="104.965,-105.384 94.5007,-103.727 101.648,-111.548 104.965,-105.384"/>
</g>
<!-- Node3 -->
<g id="node3" class="node"><title>Node3</title>
<g id="a_node3"><a xlink:href="classo2_1_1quality__control__modules_1_1common_1_1QualityReductor.html" target="_top" xlink:title="A Reductor of QualityObjects, stores a name and level of a Quality. ">
<polygon fill="none" stroke="black" points="170,-98.5 170,-128.5 349,-128.5 349,-98.5 170,-98.5"/>
<text text-anchor="start" x="178" y="-116.5" font-family="Helvetica,sans-Serif" font-size="10.00">o2::quality_control</text>
<text text-anchor="middle" x="259.5" y="-105.5" font-family="Helvetica,sans-Serif" font-size="10.00">_modules::common::QualityReductor</text>
</a>
</g>
</g>
<!-- Node1&#45;&gt;Node3 -->
<g id="edge2" class="edge"><title>Node1&#45;&gt;Node3</title>
<path fill="none" stroke="midnightblue" d="M144.203,-98.5004C152.59,-99.6011 161.183,-100.729 169.706,-101.847"/>
<polygon fill="midnightblue" stroke="midnightblue" points="144.463,-95.0046 134.093,-97.1736 143.553,-101.945 144.463,-95.0046"/>
</g>
<!-- Node4 -->
<g id="node4" class="node"><title>Node4</title>
<g id="a_node4"><a xlink:href="classo2_1_1quality__control__modules_1_1common_1_1TH1Reductor.html" target="_top" xlink:title="A Reductor which obtains the most popular characteristics of TH1. ">
<polygon fill="none" stroke="black" points="176,-49.5 176,-79.5 343,-79.5 343,-49.5 176,-49.5"/>
<text text-anchor="start" x="184" y="-67.5" font-family="Helvetica,sans-Serif" font-size="10.00">o2::quality_control</text>
<text text-anchor="middle" x="259.5" y="-56.5" font-family="Helvetica,sans-Serif" font-size="10.00">_modules::common::TH1Reductor</text>
</a>
</g>
</g>
<!-- Node1&#45;&gt;Node4 -->
<g id="edge3" class="edge"><title>Node1&#45;&gt;Node4</title>
<path fill="none" stroke="midnightblue" d="M144.309,-78.8862C154.648,-77.5837 165.297,-76.2422 175.742,-74.9263"/>
<polygon fill="midnightblue" stroke="midnightblue" points="143.577,-75.4507 134.093,-80.1733 144.452,-82.3958 143.577,-75.4507"/>
</g>
<!-- Node5 -->
<g id="node5" class="node"><title>Node5</title>
<g id="a_node5"><a xlink:href="classo2_1_1quality__control__modules_1_1common_1_1TH2Reductor.html" target="_top" xlink:title="A Reductor which obtains the most popular characteristics of TH2. ">
<polygon fill="none" stroke="black" points="176,-0.5 176,-30.5 343,-30.5 343,-0.5 176,-0.5"/>
<text text-anchor="start" x="184" y="-18.5" font-family="Helvetica,sans-Serif" font-size="10.00">o2::quality_control</text>
<text text-anchor="middle" x="259.5" y="-7.5" font-family="Helvetica,sans-Serif" font-size="10.00">_modules::common::TH2Reductor</text>
</a>
</g>
</g>
<!-- Node1&#45;&gt;Node5 -->
<g id="edge4" class="edge"><title>Node1&#45;&gt;Node5</title>
<path fill="none" stroke="midnightblue" d="M106.079,-68.7527C124.984,-59.4228 148.357,-48.5868 170,-40.5 179.572,-36.9236 189.889,-33.5729 199.981,-30.5586"/>
<polygon fill="midnightblue" stroke="midnightblue" points="104.292,-65.7328 96.9097,-73.332 107.42,-71.9952 104.292,-65.7328"/>
</g>
</g>
</svg>
