<?xml version="1.0" encoding="UTF-8" standalone="no"?>
<!DOCTYPE svg PUBLIC "-//W3C//DTD SVG 1.1//EN"
 "http://www.w3.org/Graphics/SVG/1.1/DTD/svg11.dtd">
<!-- Generated by graphviz version 2.38.0 (20140413.2041)
 -->
<!-- Title: Graphical Class Hierarchy Pages: 1 -->
<svg width="237pt" height="127pt"
 viewBox="0.00 0.00 237.00 126.50" xmlns="http://www.w3.org/2000/svg" xmlns:xlink="http://www.w3.org/1999/xlink">
<g id="graph0" class="graph" transform="scale(1 1) rotate(0) translate(4 122.5)">
<title>Graphical Class Hierarchy</title>
<!-- Node1 -->
<g id="node1" class="node"><title>Node1</title>
<polygon fill="none" stroke="#bfbfbf" points="0,-44.5 0,-63.5 38,-63.5 38,-44.5 0,-44.5"/>
<text text-anchor="middle" x="19" y="-51.5" font-family="Helvetica,sans-Serif" font-size="10.00">Task</text>
</g>
<!-- Node2 -->
<g id="node2" class="node"><title>Node2</title>
<g id="a_node2"><a xlink:href="classo2_1_1quality__control_1_1checker_1_1CheckRunner.html" target="_top" xlink:title="The class in charge of running the checks on a MonitorObject. ">
<polygon fill="none" stroke="black" points="90,-88 90,-118 213,-118 213,-88 90,-88"/>
<text text-anchor="start" x="98" y="-106" font-family="Helvetica,sans-Serif" font-size="10.00">o2::quality_control</text>
<text text-anchor="middle" x="151.5" y="-95" font-family="Helvetica,sans-Serif" font-size="10.00">::checker::CheckRunner</text>
</a>
</g>
</g>
<!-- Node1&#45;&gt;Node2 -->
<g id="edge1" class="edge"><title>Node1&#45;&gt;Node2</title>
<path fill="none" stroke="midnightblue" d="M47.3007,-67.4746C55.7603,-71.4226 65.1782,-75.5906 74,-79 82.0498,-82.111 90.6876,-85.1229 99.1564,-87.9011"/>
<polygon fill="midnightblue" stroke="midnightblue" points="48.7733,-64.2993 38.2396,-63.1627 45.7654,-70.6202 48.7733,-64.2993"/>
</g>
<!-- Node3 -->
<g id="node3" class="node"><title>Node3</title>
<g id="a_node3"><a xlink:href="classo2_1_1quality__control_1_1example_1_1ExamplePrinterSpec.html" target="_top" xlink:title="Example DPL task to be plugged after a QC task. ">
<polygon fill="none" stroke="black" points="74,-39 74,-69 229,-69 229,-39 74,-39"/>
<text text-anchor="start" x="82" y="-57" font-family="Helvetica,sans-Serif" font-size="10.00">o2::quality_control</text>
<text text-anchor="middle" x="151.5" y="-46" font-family="Helvetica,sans-Serif" font-size="10.00">::example::ExamplePrinterSpec</text>
</a>
</g>
</g>
<!-- Node1&#45;&gt;Node3 -->
<g id="edge2" class="edge"><title>Node1&#45;&gt;Node3</title>
<path fill="none" stroke="midnightblue" d="M48.3449,-54C56.1023,-54 64.8966,-54 73.9919,-54"/>
<polygon fill="midnightblue" stroke="midnightblue" points="48.1455,-50.5001 38.1455,-54 48.1454,-57.5001 48.1455,-50.5001"/>
</g>
<!-- Node4 -->
<g id="node4" class="node"><title>Node4</title>
<g id="a_node4"><a xlink:href="classReceiver.html" target="_top" xlink:title="Receiver">
<polygon fill="none" stroke="black" points="123.5,-0.5 123.5,-19.5 179.5,-19.5 179.5,-0.5 123.5,-0.5"/>
<text text-anchor="middle" x="151.5" y="-7.5" font-family="Helvetica,sans-Serif" font-size="10.00">Receiver</text>
</a>
</g>
</g>
<!-- Node1&#45;&gt;Node4 -->
<g id="edge3" class="edge"><title>Node1&#45;&gt;Node4</title>
<path fill="none" stroke="midnightblue" d="M47.5218,-40.7342C55.909,-36.9738 65.2315,-33.0719 74,-30 90.065,-24.372 108.515,-19.5037 123.271,-15.9796"/>
<polygon fill="midnightblue" stroke="midnightblue" points="45.8167,-37.6659 38.1949,-45.0252 48.7424,-44.0252 45.8167,-37.6659"/>
</g>
</g>
</svg>
