<?xml version="1.0" encoding="UTF-8" standalone="no"?>
<!DOCTYPE svg PUBLIC "-//W3C//DTD SVG 1.1//EN"
 "http://www.w3.org/Graphics/SVG/1.1/DTD/svg11.dtd">
<!-- Generated by graphviz version 2.38.0 (20140413.2041)
 -->
<!-- Title: Graphical Class Hierarchy Pages: 1 -->
<svg width="359pt" height="1152pt"
 viewBox="0.00 0.00 359.00 1151.50" xmlns="http://www.w3.org/2000/svg" xmlns:xlink="http://www.w3.org/1999/xlink">
<g id="graph0" class="graph" transform="scale(1 1) rotate(0) translate(4 1147.5)">
<title>Graphical Class Hierarchy</title>
<!-- Node1 -->
<g id="node1" class="node"><title>Node1</title>
<g id="a_node1"><a xlink:href="classo2_1_1quality__control_1_1checker_1_1CheckInterface.html" target="_top" xlink:title="Skeleton of a check. ">
<polygon fill="none" stroke="black" points="0,-548 0,-578 130,-578 130,-548 0,-548"/>
<text text-anchor="start" x="8" y="-566" font-family="Helvetica,sans-Serif" font-size="10.00">o2::quality_control</text>
<text text-anchor="middle" x="65" y="-555" font-family="Helvetica,sans-Serif" font-size="10.00">::checker::CheckInterface</text>
</a>
</g>
</g>
<!-- Node2 -->
<g id="node2" class="node"><title>Node2</title>
<g id="a_node2"><a xlink:href="classo2_1_1quality__control_1_1test_1_1TestCheck.html" target="_top" xlink:title="o2::quality_control\l::test::TestCheck">
<polygon fill="none" stroke="black" points="210.5,-1113 210.5,-1143 306.5,-1143 306.5,-1113 210.5,-1113"/>
<text text-anchor="start" x="218.5" y="-1131" font-family="Helvetica,sans-Serif" font-size="10.00">o2::quality_control</text>
<text text-anchor="middle" x="258.5" y="-1120" font-family="Helvetica,sans-Serif" font-size="10.00">::test::TestCheck</text>
</a>
</g>
</g>
<!-- Node1&#45;&gt;Node2 -->
<g id="edge1" class="edge"><title>Node1&#45;&gt;Node2</title>
<path fill="none" stroke="midnightblue" d="M67.1806,-588.415C72.177,-684.943 94.7181,-1027.26 166,-1104 177.4,-1116.27 194.242,-1122.58 210.379,-1125.72"/>
<polygon fill="midnightblue" stroke="midnightblue" points="70.6618,-587.95 66.6677,-578.137 63.6705,-588.299 70.6618,-587.95"/>
</g>
<!-- Node3 -->
<g id="node3" class="node"><title>Node3</title>
<g id="a_node3"><a xlink:href="classo2_1_1quality__control__modules_1_1common_1_1MeanIsAbove.html" target="_top" xlink:title="Check whether the mean of the plot is above a certain limit. ">
<polygon fill="none" stroke="black" points="174.5,-1064 174.5,-1094 342.5,-1094 342.5,-1064 174.5,-1064"/>
<text text-anchor="start" x="182.5" y="-1082" font-family="Helvetica,sans-Serif" font-size="10.00">o2::quality_control</text>
<text text-anchor="middle" x="258.5" y="-1071" font-family="Helvetica,sans-Serif" font-size="10.00">_modules::common::MeanIsAbove</text>
</a>
</g>
</g>
<!-- Node1&#45;&gt;Node3 -->
<g id="edge2" class="edge"><title>Node1&#45;&gt;Node3</title>
<path fill="none" stroke="midnightblue" d="M67.6923,-588.449C74.2452,-679.334 100.897,-986.145 166,-1055 169.159,-1058.34 172.722,-1061.24 176.562,-1063.75"/>
<polygon fill="midnightblue" stroke="midnightblue" points="71.1672,-587.967 66.976,-578.237 64.1844,-588.457 71.1672,-587.967"/>
</g>
<!-- Node4 -->
<g id="node4" class="node"><title>Node4</title>
<g id="a_node4"><a xlink:href="classo2_1_1quality__control__modules_1_1common_1_1NonEmpty.html" target="_top" xlink:title="Check whether a plot is empty or not. ">
<polygon fill="none" stroke="black" points="181,-1015 181,-1045 336,-1045 336,-1015 181,-1015"/>
<text text-anchor="start" x="189" y="-1033" font-family="Helvetica,sans-Serif" font-size="10.00">o2::quality_control</text>
<text text-anchor="middle" x="258.5" y="-1022" font-family="Helvetica,sans-Serif" font-size="10.00">_modules::common::NonEmpty</text>
</a>
</g>
</g>
<!-- Node1&#45;&gt;Node4 -->
<g id="edge3" class="edge"><title>Node1&#45;&gt;Node4</title>
<path fill="none" stroke="midnightblue" d="M68.2786,-588.106C76.4466,-672.617 106.959,-944.885 166,-1006 170.336,-1010.49 175.401,-1014.17 180.883,-1017.19"/>
<polygon fill="midnightblue" stroke="midnightblue" points="71.7592,-587.734 67.3328,-578.108 64.7903,-588.394 71.7592,-587.734"/>
</g>
<!-- Node5 -->
<g id="node5" class="node"><title>Node5</title>
<g id="a_node5"><a xlink:href="classo2_1_1quality__control__modules_1_1daq_1_1EverIncreasingGraph.html" target="_top" xlink:title="Check whether a plot is empty or not. ">
<polygon fill="none" stroke="black" points="182.5,-955.5 182.5,-996.5 334.5,-996.5 334.5,-955.5 182.5,-955.5"/>
<text text-anchor="start" x="190.5" y="-984.5" font-family="Helvetica,sans-Serif" font-size="10.00">o2::quality_control</text>
<text text-anchor="start" x="190.5" y="-973.5" font-family="Helvetica,sans-Serif" font-size="10.00">_modules::daq::EverIncreasing</text>
<text text-anchor="middle" x="258.5" y="-962.5" font-family="Helvetica,sans-Serif" font-size="10.00">Graph</text>
</a>
</g>
</g>
<!-- Node1&#45;&gt;Node5 -->
<g id="edge4" class="edge"><title>Node1&#45;&gt;Node5</title>
<path fill="none" stroke="midnightblue" d="M69.381,-588.361C80.1166,-665.298 115.712,-894.018 166,-947 170.704,-951.956 176.247,-956.068 182.242,-959.479"/>
<polygon fill="midnightblue" stroke="midnightblue" points="72.8067,-587.581 67.9786,-578.15 65.8718,-588.534 72.8067,-587.581"/>
</g>
<!-- Node6 -->
<g id="node6" class="node"><title>Node6</title>
<g id="a_node6"><a xlink:href="classo2_1_1quality__control__modules_1_1emcal_1_1DigitCheck.html" target="_top" xlink:title="Check whether a plot is empty or not. ">
<polygon fill="none" stroke="black" points="185.5,-907 185.5,-937 331.5,-937 331.5,-907 185.5,-907"/>
<text text-anchor="start" x="193.5" y="-925" font-family="Helvetica,sans-Serif" font-size="10.00">o2::quality_control</text>
<text text-anchor="middle" x="258.5" y="-914" font-family="Helvetica,sans-Serif" font-size="10.00">_modules::emcal::DigitCheck</text>
</a>
</g>
</g>
<!-- Node1&#45;&gt;Node6 -->
<g id="edge5" class="edge"><title>Node1&#45;&gt;Node6</title>
<path fill="none" stroke="midnightblue" d="M65.6864,-588.411C66.3631,-650.676 77.0917,-812.027 166,-898 171.549,-903.366 178.144,-907.57 185.215,-910.859"/>
<polygon fill="midnightblue" stroke="midnightblue" points="69.1862,-588.296 65.6585,-578.305 62.1862,-588.315 69.1862,-588.296"/>
</g>
<!-- Node7 -->
<g id="node7" class="node"><title>Node7</title>
<g id="a_node7"><a xlink:href="classo2_1_1quality__control__modules_1_1emcal_1_1RawCheck.html" target="_top" xlink:title="EMCAL raw data check It is final because there is no reason to derive from it. Just remove it if need...">
<polygon fill="none" stroke="black" points="185.5,-858 185.5,-888 331.5,-888 331.5,-858 185.5,-858"/>
<text text-anchor="start" x="193.5" y="-876" font-family="Helvetica,sans-Serif" font-size="10.00">o2::quality_control</text>
<text text-anchor="middle" x="258.5" y="-865" font-family="Helvetica,sans-Serif" font-size="10.00">_modules::emcal::RawCheck</text>
</a>
</g>
</g>
<!-- Node1&#45;&gt;Node7 -->
<g id="edge6" class="edge"><title>Node1&#45;&gt;Node7</title>
<path fill="none" stroke="midnightblue" d="M67.1842,-588.085C71.202,-643.639 88.8228,-777.752 166,-849 171.671,-854.236 178.345,-858.358 185.46,-861.599"/>
<polygon fill="midnightblue" stroke="midnightblue" points="70.6747,-587.822 66.5484,-578.064 63.6887,-588.266 70.6747,-587.822"/>
</g>
<!-- Node8 -->
<g id="node8" class="node"><title>Node8</title>
<g id="a_node8"><a xlink:href="classo2_1_1quality__control__modules_1_1example_1_1FakeCheck.html" target="_top" xlink:title="Check whether a plot is empty or not. ">
<polygon fill="none" stroke="black" points="179.5,-809 179.5,-839 337.5,-839 337.5,-809 179.5,-809"/>
<text text-anchor="start" x="187.5" y="-827" font-family="Helvetica,sans-Serif" font-size="10.00">o2::quality_control</text>
<text text-anchor="middle" x="258.5" y="-816" font-family="Helvetica,sans-Serif" font-size="10.00">_modules::example::FakeCheck</text>
</a>
</g>
</g>
<!-- Node1&#45;&gt;Node8 -->
<g id="edge7" class="edge"><title>Node1&#45;&gt;Node8</title>
<path fill="none" stroke="midnightblue" d="M69.253,-588.107C76.8966,-636.59 100.579,-743.31 166,-800 170.096,-803.549 174.656,-806.582 179.493,-809.173"/>
<polygon fill="midnightblue" stroke="midnightblue" points="72.7064,-587.534 67.7828,-578.152 65.7815,-588.556 72.7064,-587.534"/>
</g>
<!-- Node9 -->
<g id="node9" class="node"><title>Node9</title>
<g id="a_node9"><a xlink:href="classo2_1_1quality__control__modules_1_1mft_1_1BasicClusterQcCheck.html" target="_top" xlink:title="MFT Cluster Check. ">
<polygon fill="none" stroke="black" points="188,-749.5 188,-790.5 329,-790.5 329,-749.5 188,-749.5"/>
<text text-anchor="start" x="196" y="-778.5" font-family="Helvetica,sans-Serif" font-size="10.00">o2::quality_control</text>
<text text-anchor="start" x="196" y="-767.5" font-family="Helvetica,sans-Serif" font-size="10.00">_modules::mft::BasicCluster</text>
<text text-anchor="middle" x="258.5" y="-756.5" font-family="Helvetica,sans-Serif" font-size="10.00">QcCheck</text>
</a>
</g>
</g>
<!-- Node1&#45;&gt;Node9 -->
<g id="edge8" class="edge"><title>Node1&#45;&gt;Node9</title>
<path fill="none" stroke="midnightblue" d="M73.5152,-587.812C86.3255,-625.985 115.976,-698.992 166,-740 172.464,-745.299 179.894,-749.673 187.665,-753.28"/>
<polygon fill="midnightblue" stroke="midnightblue" points="76.7564,-586.46 70.3457,-578.025 70.0968,-588.616 76.7564,-586.46"/>
</g>
<!-- Node10 -->
<g id="node10" class="node"><title>Node10</title>
<g id="a_node10"><a xlink:href="classo2_1_1quality__control__modules_1_1mft_1_1BasicDigitQcCheck.html" target="_top" xlink:title="MFT Digit Check. ">
<polygon fill="none" stroke="black" points="187,-689.5 187,-730.5 330,-730.5 330,-689.5 187,-689.5"/>
<text text-anchor="start" x="195" y="-718.5" font-family="Helvetica,sans-Serif" font-size="10.00">o2::quality_control</text>
<text text-anchor="start" x="195" y="-707.5" font-family="Helvetica,sans-Serif" font-size="10.00">_modules::mft::BasicDigitQc</text>
<text text-anchor="middle" x="258.5" y="-696.5" font-family="Helvetica,sans-Serif" font-size="10.00">Check</text>
</a>
</g>
</g>
<!-- Node1&#45;&gt;Node10 -->
<g id="edge9" class="edge"><title>Node1&#45;&gt;Node10</title>
<path fill="none" stroke="midnightblue" d="M80.6043,-586.879C97.8973,-613.255 129.062,-655.257 166,-680 172.389,-684.28 179.436,-687.99 186.699,-691.197"/>
<polygon fill="midnightblue" stroke="midnightblue" points="83.421,-584.787 75.0794,-578.255 77.5269,-588.564 83.421,-584.787"/>
</g>
<!-- Node11 -->
<g id="node11" class="node"><title>Node11</title>
<g id="a_node11"><a xlink:href="classo2_1_1quality__control__modules_1_1mft_1_1BasicTrackQcCheck.html" target="_top" xlink:title="MFT Track Check. ">
<polygon fill="none" stroke="black" points="185,-629.5 185,-670.5 332,-670.5 332,-629.5 185,-629.5"/>
<text text-anchor="start" x="193" y="-658.5" font-family="Helvetica,sans-Serif" font-size="10.00">o2::quality_control</text>
<text text-anchor="start" x="193" y="-647.5" font-family="Helvetica,sans-Serif" font-size="10.00">_modules::mft::BasicTrackQc</text>
<text text-anchor="middle" x="258.5" y="-636.5" font-family="Helvetica,sans-Serif" font-size="10.00">Check</text>
</a>
</g>
</g>
<!-- Node1&#45;&gt;Node11 -->
<g id="edge10" class="edge"><title>Node1&#45;&gt;Node11</title>
<path fill="none" stroke="midnightblue" d="M98.1814,-583.551C117.372,-595.24 142.503,-609.579 166,-620 173.488,-623.321 181.462,-626.47 189.461,-629.391"/>
<polygon fill="midnightblue" stroke="midnightblue" points="99.8897,-580.492 89.5407,-578.223 96.2156,-586.45 99.8897,-580.492"/>
</g>
<!-- Node12 -->
<g id="node12" class="node"><title>Node12</title>
<g id="a_node12"><a xlink:href="classo2_1_1quality__control__modules_1_1muonchambers_1_1PedestalsCheck.html" target="_top" xlink:title="Check whether a plot is empty or not. ">
<polygon fill="none" stroke="black" points="193,-569.5 193,-610.5 324,-610.5 324,-569.5 193,-569.5"/>
<text text-anchor="start" x="201" y="-598.5" font-family="Helvetica,sans-Serif" font-size="10.00">o2::quality_control</text>
<text text-anchor="start" x="201" y="-587.5" font-family="Helvetica,sans-Serif" font-size="10.00">_modules::muonchambers</text>
<text text-anchor="middle" x="258.5" y="-576.5" font-family="Helvetica,sans-Serif" font-size="10.00">::PedestalsCheck</text>
</a>
</g>
</g>
<!-- Node1&#45;&gt;Node12 -->
<g id="edge11" class="edge"><title>Node1&#45;&gt;Node12</title>
<path fill="none" stroke="midnightblue" d="M140.14,-573.453C157.535,-575.906 175.934,-578.5 192.874,-580.888"/>
<polygon fill="midnightblue" stroke="midnightblue" points="140.424,-569.959 130.033,-572.028 139.446,-576.89 140.424,-569.959"/>
</g>
<!-- Node13 -->
<g id="node13" class="node"><title>Node13</title>
<g id="a_node13"><a xlink:href="classo2_1_1quality__control__modules_1_1phos_1_1DigitCheck.html" target="_top" xlink:title="Check mos: appearence of dead regions in occupancy plots, mean and RMS etc. ">
<polygon fill="none" stroke="black" points="188.5,-521 188.5,-551 328.5,-551 328.5,-521 188.5,-521"/>
<text text-anchor="start" x="196.5" y="-539" font-family="Helvetica,sans-Serif" font-size="10.00">o2::quality_control</text>
<text text-anchor="middle" x="258.5" y="-528" font-family="Helvetica,sans-Serif" font-size="10.00">_modules::phos::DigitCheck</text>
</a>
</g>
</g>
<!-- Node1&#45;&gt;Node13 -->
<g id="edge12" class="edge"><title>Node1&#45;&gt;Node13</title>
<path fill="none" stroke="midnightblue" d="M140.271,-552.528C156.061,-550.302 172.672,-547.96 188.265,-545.762"/>
<polygon fill="midnightblue" stroke="midnightblue" points="139.446,-549.11 130.033,-553.972 140.424,-556.041 139.446,-549.11"/>
</g>
<!-- Node14 -->
<g id="node14" class="node"><title>Node14</title>
<g id="a_node14"><a xlink:href="classo2_1_1quality__control__modules_1_1phos_1_1RawCheck.html" target="_top" xlink:title="PHOS raw data check It is final because there is no reason to derive from it. Just remove it if neede...">
<polygon fill="none" stroke="black" points="188.5,-472 188.5,-502 328.5,-502 328.5,-472 188.5,-472"/>
<text text-anchor="start" x="196.5" y="-490" font-family="Helvetica,sans-Serif" font-size="10.00">o2::quality_control</text>
<text text-anchor="middle" x="258.5" y="-479" font-family="Helvetica,sans-Serif" font-size="10.00">_modules::phos::RawCheck</text>
</a>
</g>
</g>
<!-- Node1&#45;&gt;Node14 -->
<g id="edge13" class="edge"><title>Node1&#45;&gt;Node14</title>
<path fill="none" stroke="midnightblue" d="M100.876,-542.983C119.728,-532.739 143.664,-520.642 166,-512 175.369,-508.375 185.468,-505.059 195.417,-502.109"/>
<polygon fill="midnightblue" stroke="midnightblue" points="99.1294,-539.949 92.0589,-547.84 102.507,-546.081 99.1294,-539.949"/>
</g>
<!-- Node15 -->
<g id="node15" class="node"><title>Node15</title>
<g id="a_node15"><a xlink:href="classo2_1_1quality__control__modules_1_1skeleton_1_1SkeletonCheck.html" target="_top" xlink:title="Example QC Check. ">
<polygon fill="none" stroke="black" points="205,-412.5 205,-453.5 312,-453.5 312,-412.5 205,-412.5"/>
<text text-anchor="start" x="213" y="-441.5" font-family="Helvetica,sans-Serif" font-size="10.00">o2::quality_control</text>
<text text-anchor="start" x="213" y="-430.5" font-family="Helvetica,sans-Serif" font-size="10.00">_modules::skeleton::</text>
<text text-anchor="middle" x="258.5" y="-419.5" font-family="Helvetica,sans-Serif" font-size="10.00">SkeletonCheck</text>
</a>
</g>
</g>
<!-- Node1&#45;&gt;Node15 -->
<g id="edge14" class="edge"><title>Node1&#45;&gt;Node15</title>
<path fill="none" stroke="midnightblue" d="M83.6559,-539.872C101.987,-517.325 132.614,-483.52 166,-463 177.821,-455.734 191.595,-450.026 204.813,-445.63"/>
<polygon fill="midnightblue" stroke="midnightblue" points="80.7452,-537.909 77.2524,-547.911 86.2205,-542.27 80.7452,-537.909"/>
</g>
<!-- Node16 -->
<g id="node16" class="node"><title>Node16</title>
<g id="a_node16"><a xlink:href="classo2_1_1quality__control__modules_1_1tof_1_1TOFCheckCompressedCounter.html" target="_top" xlink:title="Checker for diagnostic histogram of TOF Raw data. ">
<polygon fill="none" stroke="black" points="166,-352.5 166,-393.5 351,-393.5 351,-352.5 166,-352.5"/>
<text text-anchor="start" x="174" y="-381.5" font-family="Helvetica,sans-Serif" font-size="10.00">o2::quality_control</text>
<text text-anchor="start" x="174" y="-370.5" font-family="Helvetica,sans-Serif" font-size="10.00">_modules::tof::TOFCheckCompressed</text>
<text text-anchor="middle" x="258.5" y="-359.5" font-family="Helvetica,sans-Serif" font-size="10.00">Counter</text>
</a>
</g>
</g>
<!-- Node1&#45;&gt;Node16 -->
<g id="edge15" class="edge"><title>Node1&#45;&gt;Node16</title>
<path fill="none" stroke="midnightblue" d="M75.0994,-538.273C89.2397,-503.191 119.764,-439.219 166,-403 170.474,-399.495 175.374,-396.392 180.508,-393.645"/>
<polygon fill="midnightblue" stroke="midnightblue" points="71.7709,-537.175 71.3916,-547.763 78.2909,-539.722 71.7709,-537.175"/>
</g>
<!-- Node17 -->
<g id="node17" class="node"><title>Node17</title>
<g id="a_node17"><a xlink:href="classo2_1_1quality__control__modules_1_1tof_1_1TOFCheckDiagnostic.html" target="_top" xlink:title="Checker for diagnostic histogram of TOF Raw data. ">
<polygon fill="none" stroke="black" points="170.5,-304 170.5,-334 346.5,-334 346.5,-304 170.5,-304"/>
<text text-anchor="start" x="178.5" y="-322" font-family="Helvetica,sans-Serif" font-size="10.00">o2::quality_control</text>
<text text-anchor="middle" x="258.5" y="-311" font-family="Helvetica,sans-Serif" font-size="10.00">_modules::tof::TOFCheckDiagnostic</text>
</a>
</g>
</g>
<!-- Node1&#45;&gt;Node17 -->
<g id="edge16" class="edge"><title>Node1&#45;&gt;Node17</title>
<path fill="none" stroke="midnightblue" d="M70.1918,-537.767C79.1732,-491.867 104.672,-394.692 166,-343 170.018,-339.613 174.462,-336.698 179.161,-334.189"/>
<polygon fill="midnightblue" stroke="midnightblue" points="66.7193,-537.298 68.3403,-547.768 73.6023,-538.572 66.7193,-537.298"/>
</g>
<!-- Node18 -->
<g id="node18" class="node"><title>Node18</title>
<g id="a_node18"><a xlink:href="classo2_1_1quality__control__modules_1_1tof_1_1TOFCheckRawsMulti.html" target="_top" xlink:title="Check whether a plot is empty or not. ">
<polygon fill="none" stroke="black" points="181,-244.5 181,-285.5 336,-285.5 336,-244.5 181,-244.5"/>
<text text-anchor="start" x="189" y="-273.5" font-family="Helvetica,sans-Serif" font-size="10.00">o2::quality_control</text>
<text text-anchor="start" x="189" y="-262.5" font-family="Helvetica,sans-Serif" font-size="10.00">_modules::tof::TOFCheckRaws</text>
<text text-anchor="middle" x="258.5" y="-251.5" font-family="Helvetica,sans-Serif" font-size="10.00">Multi</text>
</a>
</g>
</g>
<!-- Node1&#45;&gt;Node18 -->
<g id="edge17" class="edge"><title>Node1&#45;&gt;Node18</title>
<path fill="none" stroke="midnightblue" d="M68.2442,-537.646C74.2617,-484.927 95.4459,-362.766 166,-295 170.461,-290.715 175.544,-287.042 180.976,-283.894"/>
<polygon fill="midnightblue" stroke="midnightblue" points="64.7418,-537.486 67.1781,-547.797 71.7036,-538.217 64.7418,-537.486"/>
</g>
<!-- Node19 -->
<g id="node19" class="node"><title>Node19</title>
<g id="a_node19"><a xlink:href="classo2_1_1quality__control__modules_1_1tof_1_1TOFCheckRawsTime.html" target="_top" xlink:title="Check whether a plot is empty or not. ">
<polygon fill="none" stroke="black" points="170,-196 170,-226 347,-226 347,-196 170,-196"/>
<text text-anchor="start" x="178" y="-214" font-family="Helvetica,sans-Serif" font-size="10.00">o2::quality_control</text>
<text text-anchor="middle" x="258.5" y="-203" font-family="Helvetica,sans-Serif" font-size="10.00">_modules::tof::TOFCheckRawsTime</text>
</a>
</g>
</g>
<!-- Node1&#45;&gt;Node19 -->
<g id="edge18" class="edge"><title>Node1&#45;&gt;Node19</title>
<path fill="none" stroke="midnightblue" d="M65.8835,-537.299C67.0613,-475.729 78.9333,-318.701 166,-235 169.552,-231.586 173.528,-228.642 177.779,-226.105"/>
<polygon fill="midnightblue" stroke="midnightblue" points="62.38,-537.608 65.7723,-547.646 69.3796,-537.684 62.38,-537.608"/>
</g>
<!-- Node20 -->
<g id="node20" class="node"><title>Node20</title>
<g id="a_node20"><a xlink:href="classo2_1_1quality__control__modules_1_1tof_1_1TOFCheckRawsToT.html" target="_top" xlink:title="Check whether a plot is empty or not. ">
<polygon fill="none" stroke="black" points="172,-147 172,-177 345,-177 345,-147 172,-147"/>
<text text-anchor="start" x="180" y="-165" font-family="Helvetica,sans-Serif" font-size="10.00">o2::quality_control</text>
<text text-anchor="middle" x="258.5" y="-154" font-family="Helvetica,sans-Serif" font-size="10.00">_modules::tof::TOFCheckRawsToT</text>
</a>
</g>
</g>
<!-- Node1&#45;&gt;Node20 -->
<g id="edge19" class="edge"><title>Node1&#45;&gt;Node20</title>
<path fill="none" stroke="midnightblue" d="M69.437,-537.561C80.2123,-461.46 115.64,-237.703 166,-187 169.83,-183.144 174.192,-179.867 178.887,-177.084"/>
<polygon fill="midnightblue" stroke="midnightblue" points="65.9407,-537.292 68.0272,-547.68 72.8737,-538.258 65.9407,-537.292"/>
</g>
<!-- Node21 -->
<g id="node21" class="node"><title>Node21</title>
<g id="a_node21"><a xlink:href="classo2_1_1quality__control__modules_1_1tpc_1_1PIDClusterCheck.html" target="_top" xlink:title="Check whether the cluster number for a track is smaller than 159 in PID task. ">
<polygon fill="none" stroke="black" points="178,-98 178,-128 339,-128 339,-98 178,-98"/>
<text text-anchor="start" x="186" y="-116" font-family="Helvetica,sans-Serif" font-size="10.00">o2::quality_control</text>
<text text-anchor="middle" x="258.5" y="-105" font-family="Helvetica,sans-Serif" font-size="10.00">_modules::tpc::PIDClusterCheck</text>
</a>
</g>
</g>
<!-- Node1&#45;&gt;Node21 -->
<g id="edge20" class="edge"><title>Node1&#45;&gt;Node21</title>
<path fill="none" stroke="midnightblue" d="M68.5969,-537.583C77.5287,-455.041 109.581,-196.465 166,-138 169.659,-134.208 173.833,-130.973 178.336,-128.216"/>
<polygon fill="midnightblue" stroke="midnightblue" points="65.1085,-537.288 67.5335,-547.602 72.0694,-538.027 65.1085,-537.288"/>
</g>
<!-- Node22 -->
<g id="node22" class="node"><title>Node22</title>
<g id="a_node22"><a xlink:href="classo2_1_1quality__control__modules_1_1tpc_1_1TrackClusterCheck.html" target="_top" xlink:title="Check whether the cluster number for a track is smaller than 40 or 20 in Track task. ">
<polygon fill="none" stroke="black" points="188.5,-38.5 188.5,-79.5 328.5,-79.5 328.5,-38.5 188.5,-38.5"/>
<text text-anchor="start" x="196.5" y="-67.5" font-family="Helvetica,sans-Serif" font-size="10.00">o2::quality_control</text>
<text text-anchor="start" x="196.5" y="-56.5" font-family="Helvetica,sans-Serif" font-size="10.00">_modules::tpc::TrackCluster</text>
<text text-anchor="middle" x="258.5" y="-45.5" font-family="Helvetica,sans-Serif" font-size="10.00">Check</text>
</a>
</g>
</g>
<!-- Node1&#45;&gt;Node22 -->
<g id="edge21" class="edge"><title>Node1&#45;&gt;Node22</title>
<path fill="none" stroke="midnightblue" d="M68.0423,-537.752C75.6604,-449.551 105.158,-156.857 166,-89 172.138,-82.1542 179.862,-76.8653 188.207,-72.7802"/>
<polygon fill="midnightblue" stroke="midnightblue" points="64.5382,-537.654 67.1842,-547.913 71.5134,-538.243 64.5382,-537.654"/>
</g>
<!-- Node23 -->
<g id="node23" class="node"><title>Node23</title>
<g id="a_node23"><a xlink:href="classTestCheck.html" target="_top" xlink:title="TestCheck">
<polygon fill="none" stroke="black" points="226,-0.5 226,-19.5 291,-19.5 291,-0.5 226,-0.5"/>
<text text-anchor="middle" x="258.5" y="-7.5" font-family="Helvetica,sans-Serif" font-size="10.00">TestCheck</text>
</a>
</g>
</g>
<!-- Node1&#45;&gt;Node23 -->
<g id="edge22" class="edge"><title>Node1&#45;&gt;Node23</title>
<path fill="none" stroke="midnightblue" d="M67.1108,-537.797C71.8523,-442.09 93.5852,-102.85 166,-29 181.335,-13.3612 205.942,-8.93273 225.777,-8.24018"/>
<polygon fill="midnightblue" stroke="midnightblue" points="63.6052,-537.833 66.6254,-547.988 70.5973,-538.166 63.6052,-537.833"/>
</g>
</g>
</svg>
