<?xml version="1.0" encoding="UTF-8" standalone="no"?>
<!DOCTYPE svg PUBLIC "-//W3C//DTD SVG 1.1//EN"
 "http://www.w3.org/Graphics/SVG/1.1/DTD/svg11.dtd">
<!-- Generated by graphviz version 2.38.0 (20140413.2041)
 -->
<!-- Title: Graphical Class Hierarchy Pages: 1 -->
<svg width="362pt" height="147pt"
 viewBox="0.00 0.00 362.00 147.00" xmlns="http://www.w3.org/2000/svg" xmlns:xlink="http://www.w3.org/1999/xlink">
<g id="graph0" class="graph" transform="scale(1 1) rotate(0) translate(4 143)">
<title>Graphical Class Hierarchy</title>
<!-- Node1 -->
<g id="node1" class="node"><title>Node1</title>
<g id="a_node1"><a xlink:href="classo2_1_1quality__control_1_1postprocessing_1_1PostProcessingInterface.html" target="_top" xlink:title="Skeleton of a post&#45;processing task. ">
<polygon fill="none" stroke="black" points="0,-49 0,-90 164,-90 164,-49 0,-49"/>
<text text-anchor="start" x="8" y="-78" font-family="Helvetica,sans-Serif" font-size="10.00">o2::quality_control</text>
<text text-anchor="start" x="8" y="-67" font-family="Helvetica,sans-Serif" font-size="10.00">::postprocessing::PostProcessing</text>
<text text-anchor="middle" x="82" y="-56" font-family="Helvetica,sans-Serif" font-size="10.00">Interface</text>
</a>
</g>
</g>
<!-- Node2 -->
<g id="node2" class="node"><title>Node2</title>
<g id="a_node2"><a xlink:href="classo2_1_1quality__control_1_1postprocessing_1_1TrendingTask.html" target="_top" xlink:title="A post&#45;processing task which trends values, stores them in a TTree and produces plots. ">
<polygon fill="none" stroke="black" points="200,-108.5 200,-138.5 354,-138.5 354,-108.5 200,-108.5"/>
<text text-anchor="start" x="208" y="-126.5" font-family="Helvetica,sans-Serif" font-size="10.00">o2::quality_control</text>
<text text-anchor="middle" x="277" y="-115.5" font-family="Helvetica,sans-Serif" font-size="10.00">::postprocessing::TrendingTask</text>
</a>
</g>
</g>
<!-- Node1&#45;&gt;Node2 -->
<g id="edge1" class="edge"><title>Node1&#45;&gt;Node2</title>
<path fill="none" stroke="midnightblue" d="M166.335,-92.8165C185.262,-98.1121 204.878,-103.6 222.196,-108.446"/>
<polygon fill="midnightblue" stroke="midnightblue" points="167.089,-89.3931 156.516,-90.0691 165.203,-96.1342 167.089,-89.3931"/>
</g>
<!-- Node3 -->
<g id="node3" class="node"><title>Node3</title>
<g id="a_node3"><a xlink:href="classo2_1_1quality__control__modules_1_1skeleton_1_1SkeletonPostProcessing.html" target="_top" xlink:title="Example Quality Control Postprocessing Task. ">
<polygon fill="none" stroke="black" points="215,-49 215,-90 339,-90 339,-49 215,-49"/>
<text text-anchor="start" x="223" y="-78" font-family="Helvetica,sans-Serif" font-size="10.00">o2::quality_control</text>
<text text-anchor="start" x="223" y="-67" font-family="Helvetica,sans-Serif" font-size="10.00">_modules::skeleton::</text>
<text text-anchor="middle" x="277" y="-56" font-family="Helvetica,sans-Serif" font-size="10.00">SkeletonPostProcessing</text>
</a>
</g>
</g>
<!-- Node1&#45;&gt;Node3 -->
<g id="edge2" class="edge"><title>Node1&#45;&gt;Node3</title>
<path fill="none" stroke="midnightblue" d="M174.043,-69.5C187.88,-69.5 201.866,-69.5 214.861,-69.5"/>
<polygon fill="midnightblue" stroke="midnightblue" points="174.011,-66.0001 164.01,-69.5 174.01,-73.0001 174.011,-66.0001"/>
</g>
<!-- Node4 -->
<g id="node4" class="node"><title>Node4</title>
<g id="a_node4"><a xlink:href="classo2_1_1quality__control__modules_1_1test_1_1TestTask.html" target="_top" xlink:title="o2::quality_control\l_modules::test::TestTask">
<polygon fill="none" stroke="black" points="213,-0.5 213,-30.5 341,-30.5 341,-0.5 213,-0.5"/>
<text text-anchor="start" x="221" y="-18.5" font-family="Helvetica,sans-Serif" font-size="10.00">o2::quality_control</text>
<text text-anchor="middle" x="277" y="-7.5" font-family="Helvetica,sans-Serif" font-size="10.00">_modules::test::TestTask</text>
</a>
</g>
</g>
<!-- Node1&#45;&gt;Node4 -->
<g id="edge3" class="edge"><title>Node1&#45;&gt;Node4</title>
<path fill="none" stroke="midnightblue" d="M166.335,-46.1835C185.262,-40.8879 204.878,-35.3995 222.196,-30.5541"/>
<polygon fill="midnightblue" stroke="midnightblue" points="165.203,-42.8658 156.516,-48.9309 167.089,-49.6069 165.203,-42.8658"/>
</g>
</g>
</svg>
