<?xml version="1.0" encoding="UTF-8" standalone="no"?>
<!DOCTYPE svg PUBLIC "-//W3C//DTD SVG 1.1//EN"
 "http://www.w3.org/Graphics/SVG/1.1/DTD/svg11.dtd">
<!-- Generated by graphviz version 2.38.0 (20140413.2041)
 -->
<!-- Title: Graphical Class Hierarchy Pages: 1 -->
<svg width="330pt" height="1011pt"
 viewBox="0.00 0.00 330.00 1011.00" xmlns="http://www.w3.org/2000/svg" xmlns:xlink="http://www.w3.org/1999/xlink">
<g id="graph0" class="graph" transform="scale(1 1) rotate(0) translate(4 1007)">
<title>Graphical Class Hierarchy</title>
<!-- Node1 -->
<g id="node1" class="node"><title>Node1</title>
<g id="a_node1"><a xlink:href="classo2_1_1quality__control_1_1core_1_1TaskInterface.html" target="_top" xlink:title="Skeleton of a QC task. ">
<polygon fill="none" stroke="black" points="0,-494.5 0,-524.5 107,-524.5 107,-494.5 0,-494.5"/>
<text text-anchor="start" x="8" y="-512.5" font-family="Helvetica,sans-Serif" font-size="10.00">o2::quality_control</text>
<text text-anchor="middle" x="53.5" y="-501.5" font-family="Helvetica,sans-Serif" font-size="10.00">::core::TaskInterface</text>
</a>
</g>
</g>
<!-- Node2 -->
<g id="node2" class="node"><title>Node2</title>
<g id="a_node2"><a xlink:href="classo2_1_1quality__control_1_1test_1_1TestTask.html" target="_top" xlink:title="o2::quality_control\l::test::TestTask">
<polygon fill="none" stroke="black" points="184.5,-972.5 184.5,-1002.5 280.5,-1002.5 280.5,-972.5 184.5,-972.5"/>
<text text-anchor="start" x="192.5" y="-990.5" font-family="Helvetica,sans-Serif" font-size="10.00">o2::quality_control</text>
<text text-anchor="middle" x="232.5" y="-979.5" font-family="Helvetica,sans-Serif" font-size="10.00">::test::TestTask</text>
</a>
</g>
</g>
<!-- Node1&#45;&gt;Node2 -->
<g id="edge1" class="edge"><title>Node1&#45;&gt;Node2</title>
<path fill="none" stroke="midnightblue" d="M56.0152,-535.174C61.6296,-621.606 84.0536,-900.13 143,-963.5 153.626,-974.923 169.085,-981.118 184.121,-984.412"/>
<polygon fill="midnightblue" stroke="midnightblue" points="59.493,-534.71 55.3721,-524.95 52.5068,-535.15 59.493,-534.71"/>
</g>
<!-- Node3 -->
<g id="node3" class="node"><title>Node3</title>
<g id="a_node3"><a xlink:href="classo2_1_1quality__control__modules_1_1daq_1_1DaqTask.html" target="_top" xlink:title="Example Quality Control Task It is final because there is no reason to derive from it...">
<polygon fill="none" stroke="black" points="169.5,-923.5 169.5,-953.5 295.5,-953.5 295.5,-923.5 169.5,-923.5"/>
<text text-anchor="start" x="177.5" y="-941.5" font-family="Helvetica,sans-Serif" font-size="10.00">o2::quality_control</text>
<text text-anchor="middle" x="232.5" y="-930.5" font-family="Helvetica,sans-Serif" font-size="10.00">_modules::daq::DaqTask</text>
</a>
</g>
</g>
<!-- Node1&#45;&gt;Node3 -->
<g id="edge2" class="edge"><title>Node1&#45;&gt;Node3</title>
<path fill="none" stroke="midnightblue" d="M56.6327,-534.723C63.8708,-614.421 90.0492,-858.851 143,-914.5 150.133,-921.996 159.349,-927.233 169.131,-930.875"/>
<polygon fill="midnightblue" stroke="midnightblue" points="60.1054,-534.26 55.7363,-524.608 53.1327,-534.878 60.1054,-534.26"/>
</g>
<!-- Node4 -->
<g id="node4" class="node"><title>Node4</title>
<g id="a_node4"><a xlink:href="classo2_1_1quality__control__modules_1_1emcal_1_1DigitsQcTask.html" target="_top" xlink:title="QC Task for EMCAL digits. ">
<polygon fill="none" stroke="black" points="154,-874.5 154,-904.5 311,-904.5 311,-874.5 154,-874.5"/>
<text text-anchor="start" x="162" y="-892.5" font-family="Helvetica,sans-Serif" font-size="10.00">o2::quality_control</text>
<text text-anchor="middle" x="232.5" y="-881.5" font-family="Helvetica,sans-Serif" font-size="10.00">_modules::emcal::DigitsQcTask</text>
</a>
</g>
</g>
<!-- Node1&#45;&gt;Node4 -->
<g id="edge3" class="edge"><title>Node1&#45;&gt;Node4</title>
<path fill="none" stroke="midnightblue" d="M57.4869,-535.005C66.5761,-608.355 96.1714,-817.67 143,-865.5 146.341,-868.913 150.115,-871.855 154.173,-874.39"/>
<polygon fill="midnightblue" stroke="midnightblue" points="60.9305,-534.328 56.2496,-524.824 53.9816,-535.173 60.9305,-534.328"/>
</g>
<!-- Node5 -->
<g id="node5" class="node"><title>Node5</title>
<g id="a_node5"><a xlink:href="classo2_1_1quality__control__modules_1_1emcal_1_1RawTask.html" target="_top" xlink:title="Example Quality Control DPL Task It is final because there is no reason to derive from it...">
<polygon fill="none" stroke="black" points="163,-825.5 163,-855.5 302,-855.5 302,-825.5 163,-825.5"/>
<text text-anchor="start" x="171" y="-843.5" font-family="Helvetica,sans-Serif" font-size="10.00">o2::quality_control</text>
<text text-anchor="middle" x="232.5" y="-832.5" font-family="Helvetica,sans-Serif" font-size="10.00">_modules::emcal::RawTask</text>
</a>
</g>
</g>
<!-- Node1&#45;&gt;Node5 -->
<g id="edge4" class="edge"><title>Node1&#45;&gt;Node5</title>
<path fill="none" stroke="midnightblue" d="M53.9945,-534.646C54.253,-592.899 63.3379,-738.09 143,-816.5 148.673,-822.084 155.506,-826.402 162.829,-829.736"/>
<polygon fill="midnightblue" stroke="midnightblue" points="57.4949,-534.523 54.0379,-524.508 50.495,-534.492 57.4949,-534.523"/>
</g>
<!-- Node6 -->
<g id="node6" class="node"><title>Node6</title>
<g id="a_node6"><a xlink:href="classo2_1_1quality__control__modules_1_1example_1_1BenchmarkTask.html" target="_top" xlink:title="Quality Control Task for benchmarking It publishes a number of TH1F (configurable, see example.ini in module QualityControl). The histos are reset and refilled (1000 random) at EOC. They have 1000 bins. The monitoring of data blocks is empty (sleep 100 ms). ">
<polygon fill="none" stroke="black" points="143,-776.5 143,-806.5 322,-806.5 322,-776.5 143,-776.5"/>
<text text-anchor="start" x="151" y="-794.5" font-family="Helvetica,sans-Serif" font-size="10.00">o2::quality_control</text>
<text text-anchor="middle" x="232.5" y="-783.5" font-family="Helvetica,sans-Serif" font-size="10.00">_modules::example::BenchmarkTask</text>
</a>
</g>
</g>
<!-- Node1&#45;&gt;Node6 -->
<g id="edge5" class="edge"><title>Node1&#45;&gt;Node6</title>
<path fill="none" stroke="midnightblue" d="M55.635,-534.832C59.3488,-586.395 75.2153,-704.024 143,-767.5 146.602,-770.873 150.63,-773.781 154.927,-776.288"/>
<polygon fill="midnightblue" stroke="midnightblue" points="59.1124,-534.36 54.998,-524.596 52.1259,-534.794 59.1124,-534.36"/>
</g>
<!-- Node7 -->
<g id="node7" class="node"><title>Node7</title>
<g id="a_node7"><a xlink:href="classo2_1_1quality__control__modules_1_1example_1_1ExampleTask.html" target="_top" xlink:title="Example Quality Control Task It is final because there is no reason to derive from it...">
<polygon fill="none" stroke="black" points="149,-727.5 149,-757.5 316,-757.5 316,-727.5 149,-727.5"/>
<text text-anchor="start" x="157" y="-745.5" font-family="Helvetica,sans-Serif" font-size="10.00">o2::quality_control</text>
<text text-anchor="middle" x="232.5" y="-734.5" font-family="Helvetica,sans-Serif" font-size="10.00">_modules::example::ExampleTask</text>
</a>
</g>
</g>
<!-- Node1&#45;&gt;Node7 -->
<g id="edge6" class="edge"><title>Node1&#45;&gt;Node7</title>
<path fill="none" stroke="midnightblue" d="M57.9845,-534.903C65.3956,-578.966 86.8943,-669.536 143,-718.5 146.958,-721.954 151.366,-724.917 156.043,-727.457"/>
<polygon fill="midnightblue" stroke="midnightblue" points="61.4002,-534.092 56.3914,-524.756 54.4849,-535.177 61.4002,-534.092"/>
</g>
<!-- Node8 -->
<g id="node8" class="node"><title>Node8</title>
<g id="a_node8"><a xlink:href="classo2_1_1quality__control__modules_1_1its_1_1ITSRawTask.html" target="_top" xlink:title="o2::quality_control\l_modules::its::ITSRawTask">
<polygon fill="none" stroke="black" points="163,-678.5 163,-708.5 302,-708.5 302,-678.5 163,-678.5"/>
<text text-anchor="start" x="171" y="-696.5" font-family="Helvetica,sans-Serif" font-size="10.00">o2::quality_control</text>
<text text-anchor="middle" x="232.5" y="-685.5" font-family="Helvetica,sans-Serif" font-size="10.00">_modules::its::ITSRawTask</text>
</a>
</g>
</g>
<!-- Node1&#45;&gt;Node8 -->
<g id="edge7" class="edge"><title>Node1&#45;&gt;Node8</title>
<path fill="none" stroke="midnightblue" d="M61.5126,-534.521C72.752,-569.962 98.2176,-634.37 143,-669.5 148.887,-674.118 155.595,-677.849 162.625,-680.864"/>
<polygon fill="midnightblue" stroke="midnightblue" points="64.8535,-533.477 58.5951,-524.928 58.1564,-535.514 64.8535,-533.477"/>
</g>
<!-- Node9 -->
<g id="node9" class="node"><title>Node9</title>
<g id="a_node9"><a xlink:href="classo2_1_1quality__control__modules_1_1mft_1_1BasicClusterQcTask.html" target="_top" xlink:title="MFT Cluster QC task. ">
<polygon fill="none" stroke="black" points="162,-619 162,-660 303,-660 303,-619 162,-619"/>
<text text-anchor="start" x="170" y="-648" font-family="Helvetica,sans-Serif" font-size="10.00">o2::quality_control</text>
<text text-anchor="start" x="170" y="-637" font-family="Helvetica,sans-Serif" font-size="10.00">_modules::mft::BasicCluster</text>
<text text-anchor="middle" x="232.5" y="-626" font-family="Helvetica,sans-Serif" font-size="10.00">QcTask</text>
</a>
</g>
</g>
<!-- Node1&#45;&gt;Node9 -->
<g id="edge8" class="edge"><title>Node1&#45;&gt;Node9</title>
<path fill="none" stroke="midnightblue" d="M69.6968,-533.251C85.4557,-556.091 112.092,-590.075 143,-610.5 148.8,-614.333 155.149,-617.697 161.698,-620.64"/>
<polygon fill="midnightblue" stroke="midnightblue" points="72.4982,-531.145 64.0116,-524.802 66.6906,-535.053 72.4982,-531.145"/>
</g>
<!-- Node10 -->
<g id="node10" class="node"><title>Node10</title>
<g id="a_node10"><a xlink:href="classo2_1_1quality__control__modules_1_1mft_1_1BasicDigitQcTask.html" target="_top" xlink:title="MFT Digit QC task. ">
<polygon fill="none" stroke="black" points="150.5,-570.5 150.5,-600.5 314.5,-600.5 314.5,-570.5 150.5,-570.5"/>
<text text-anchor="start" x="158.5" y="-588.5" font-family="Helvetica,sans-Serif" font-size="10.00">o2::quality_control</text>
<text text-anchor="middle" x="232.5" y="-577.5" font-family="Helvetica,sans-Serif" font-size="10.00">_modules::mft::BasicDigitQcTask</text>
</a>
</g>
</g>
<!-- Node1&#45;&gt;Node10 -->
<g id="edge9" class="edge"><title>Node1&#45;&gt;Node10</title>
<path fill="none" stroke="midnightblue" d="M85.2461,-530.312C101.801,-540.8 122.902,-553.049 143,-561.5 150.925,-564.832 159.444,-567.826 167.954,-570.477"/>
<polygon fill="midnightblue" stroke="midnightblue" points="86.8521,-527.183 76.5518,-524.702 83.0568,-533.065 86.8521,-527.183"/>
</g>
<!-- Node11 -->
<g id="node11" class="node"><title>Node11</title>
<g id="a_node11"><a xlink:href="classo2_1_1quality__control__modules_1_1mft_1_1BasicTrackQcTask.html" target="_top" xlink:title="MFT Track QC task. ">
<polygon fill="none" stroke="black" points="148,-521.5 148,-551.5 317,-551.5 317,-521.5 148,-521.5"/>
<text text-anchor="start" x="156" y="-539.5" font-family="Helvetica,sans-Serif" font-size="10.00">o2::quality_control</text>
<text text-anchor="middle" x="232.5" y="-528.5" font-family="Helvetica,sans-Serif" font-size="10.00">_modules::mft::BasicTrackQcTask</text>
</a>
</g>
</g>
<!-- Node1&#45;&gt;Node11 -->
<g id="edge10" class="edge"><title>Node1&#45;&gt;Node11</title>
<path fill="none" stroke="midnightblue" d="M117.276,-519.076C127.202,-520.59 137.6,-522.176 147.91,-523.749"/>
<polygon fill="midnightblue" stroke="midnightblue" points="117.54,-515.576 107.127,-517.528 116.484,-522.496 117.54,-515.576"/>
</g>
<!-- Node12 -->
<g id="node12" class="node"><title>Node12</title>
<g id="a_node12"><a xlink:href="classo2_1_1quality__control__modules_1_1muonchambers_1_1PedestalsTask.html" target="_top" xlink:title="Quality Control Task for the analysis of MCH pedestal data. ">
<polygon fill="none" stroke="black" points="167,-462 167,-503 298,-503 298,-462 167,-462"/>
<text text-anchor="start" x="175" y="-491" font-family="Helvetica,sans-Serif" font-size="10.00">o2::quality_control</text>
<text text-anchor="start" x="175" y="-480" font-family="Helvetica,sans-Serif" font-size="10.00">_modules::muonchambers</text>
<text text-anchor="middle" x="232.5" y="-469" font-family="Helvetica,sans-Serif" font-size="10.00">::PedestalsTask</text>
</a>
</g>
</g>
<!-- Node1&#45;&gt;Node12 -->
<g id="edge11" class="edge"><title>Node1&#45;&gt;Node12</title>
<path fill="none" stroke="midnightblue" d="M117.46,-499.896C133.49,-497.451 150.743,-494.819 166.855,-492.361"/>
<polygon fill="midnightblue" stroke="midnightblue" points="116.484,-496.504 107.127,-501.472 117.54,-503.424 116.484,-496.504"/>
</g>
<!-- Node13 -->
<g id="node13" class="node"><title>Node13</title>
<g id="a_node13"><a xlink:href="classo2_1_1quality__control__modules_1_1muonchambers_1_1PhysicsTask.html" target="_top" xlink:title="Quality Control Task for the analysis of MCH physics data. ">
<polygon fill="none" stroke="black" points="167,-402 167,-443 298,-443 298,-402 167,-402"/>
<text text-anchor="start" x="175" y="-431" font-family="Helvetica,sans-Serif" font-size="10.00">o2::quality_control</text>
<text text-anchor="start" x="175" y="-420" font-family="Helvetica,sans-Serif" font-size="10.00">_modules::muonchambers</text>
<text text-anchor="middle" x="232.5" y="-409" font-family="Helvetica,sans-Serif" font-size="10.00">::PhysicsTask</text>
</a>
</g>
</g>
<!-- Node1&#45;&gt;Node13 -->
<g id="edge12" class="edge"><title>Node1&#45;&gt;Node13</title>
<path fill="none" stroke="midnightblue" d="M83.0533,-488.551C99.8979,-476.856 121.975,-462.644 143,-452.5 150.598,-448.834 158.761,-445.42 166.946,-442.306"/>
<polygon fill="midnightblue" stroke="midnightblue" points="80.9105,-485.779 74.7549,-494.402 84.9445,-491.5 80.9105,-485.779"/>
</g>
<!-- Node14 -->
<g id="node14" class="node"><title>Node14</title>
<g id="a_node14"><a xlink:href="classo2_1_1quality__control__modules_1_1phos_1_1DigitsQcTask.html" target="_top" xlink:title="QC Task for PHOS digits. ">
<polygon fill="none" stroke="black" points="156.5,-353.5 156.5,-383.5 308.5,-383.5 308.5,-353.5 156.5,-353.5"/>
<text text-anchor="start" x="164.5" y="-371.5" font-family="Helvetica,sans-Serif" font-size="10.00">o2::quality_control</text>
<text text-anchor="middle" x="232.5" y="-360.5" font-family="Helvetica,sans-Serif" font-size="10.00">_modules::phos::DigitsQcTask</text>
</a>
</g>
</g>
<!-- Node1&#45;&gt;Node14 -->
<g id="edge13" class="edge"><title>Node1&#45;&gt;Node14</title>
<path fill="none" stroke="midnightblue" d="M66.4897,-485.323C80.9769,-458.611 107.848,-416.241 143,-392.5 148.145,-389.025 153.777,-386.052 159.627,-383.508"/>
<polygon fill="midnightblue" stroke="midnightblue" points="63.277,-483.912 61.7202,-494.392 69.4725,-487.171 63.277,-483.912"/>
</g>
<!-- Node15 -->
<g id="node15" class="node"><title>Node15</title>
<g id="a_node15"><a xlink:href="classo2_1_1quality__control__modules_1_1phos_1_1RawTask.html" target="_top" xlink:title="PHOS Quality Control DPL Task. ">
<polygon fill="none" stroke="black" points="165.5,-304.5 165.5,-334.5 299.5,-334.5 299.5,-304.5 165.5,-304.5"/>
<text text-anchor="start" x="173.5" y="-322.5" font-family="Helvetica,sans-Serif" font-size="10.00">o2::quality_control</text>
<text text-anchor="middle" x="232.5" y="-311.5" font-family="Helvetica,sans-Serif" font-size="10.00">_modules::phos::RawTask</text>
</a>
</g>
</g>
<!-- Node1&#45;&gt;Node15 -->
<g id="edge14" class="edge"><title>Node1&#45;&gt;Node15</title>
<path fill="none" stroke="midnightblue" d="M61.1705,-484.326C72.1065,-447.991 97.3359,-381.193 143,-344.5 149.596,-339.2 157.254,-335.022 165.252,-331.73"/>
<polygon fill="midnightblue" stroke="midnightblue" points="57.7491,-483.559 58.3438,-494.137 64.4755,-485.497 57.7491,-483.559"/>
</g>
<!-- Node16 -->
<g id="node16" class="node"><title>Node16</title>
<g id="a_node16"><a xlink:href="classo2_1_1quality__control__modules_1_1skeleton_1_1SkeletonTask.html" target="_top" xlink:title="Example Quality Control DPL Task. ">
<polygon fill="none" stroke="black" points="179,-245 179,-286 286,-286 286,-245 179,-245"/>
<text text-anchor="start" x="187" y="-274" font-family="Helvetica,sans-Serif" font-size="10.00">o2::quality_control</text>
<text text-anchor="start" x="187" y="-263" font-family="Helvetica,sans-Serif" font-size="10.00">_modules::skeleton::</text>
<text text-anchor="middle" x="232.5" y="-252" font-family="Helvetica,sans-Serif" font-size="10.00">SkeletonTask</text>
</a>
</g>
</g>
<!-- Node1&#45;&gt;Node16 -->
<g id="edge15" class="edge"><title>Node1&#45;&gt;Node16</title>
<path fill="none" stroke="midnightblue" d="M58.0156,-484.468C65.5397,-440.158 87.2955,-347.68 143,-295.5 152.946,-286.184 165.893,-279.751 178.801,-275.313"/>
<polygon fill="midnightblue" stroke="midnightblue" points="54.5509,-483.971 56.4337,-494.397 61.4637,-485.072 54.5509,-483.971"/>
</g>
<!-- Node17 -->
<g id="node17" class="node"><title>Node17</title>
<g id="a_node17"><a xlink:href="classo2_1_1quality__control__modules_1_1tof_1_1TaskDiagnostics.html" target="_top" xlink:title="TOF Quality Control DPL Task for TOF Compressed data. ">
<polygon fill="none" stroke="black" points="155,-196.5 155,-226.5 310,-226.5 310,-196.5 155,-196.5"/>
<text text-anchor="start" x="163" y="-214.5" font-family="Helvetica,sans-Serif" font-size="10.00">o2::quality_control</text>
<text text-anchor="middle" x="232.5" y="-203.5" font-family="Helvetica,sans-Serif" font-size="10.00">_modules::tof::TaskDiagnostics</text>
</a>
</g>
</g>
<!-- Node1&#45;&gt;Node17 -->
<g id="edge16" class="edge"><title>Node1&#45;&gt;Node17</title>
<path fill="none" stroke="midnightblue" d="M55.0258,-484.471C57.553,-430.788 71.2443,-303.919 143,-235.5 146.572,-232.094 150.576,-229.162 154.856,-226.637"/>
<polygon fill="midnightblue" stroke="midnightblue" points="51.5278,-484.356 54.6471,-494.481 58.5228,-484.62 51.5278,-484.356"/>
</g>
<!-- Node18 -->
<g id="node18" class="node"><title>Node18</title>
<g id="a_node18"><a xlink:href="classo2_1_1quality__control__modules_1_1tof_1_1TOFTask.html" target="_top" xlink:title="TOF Quality Control DPL Task. ">
<polygon fill="none" stroke="black" points="171,-147.5 171,-177.5 294,-177.5 294,-147.5 171,-147.5"/>
<text text-anchor="start" x="179" y="-165.5" font-family="Helvetica,sans-Serif" font-size="10.00">o2::quality_control</text>
<text text-anchor="middle" x="232.5" y="-154.5" font-family="Helvetica,sans-Serif" font-size="10.00">_modules::tof::TOFTask</text>
</a>
</g>
</g>
<!-- Node1&#45;&gt;Node18 -->
<g id="edge17" class="edge"><title>Node1&#45;&gt;Node18</title>
<path fill="none" stroke="midnightblue" d="M53.6409,-484.017C53.0576,-423.65 60.3197,-270.769 143,-187.5 150.65,-179.796 160.48,-174.421 170.792,-170.681"/>
<polygon fill="midnightblue" stroke="midnightblue" points="50.1443,-484.239 53.8247,-494.174 57.1431,-484.112 50.1443,-484.239"/>
</g>
<!-- Node19 -->
<g id="node19" class="node"><title>Node19</title>
<g id="a_node19"><a xlink:href="classo2_1_1quality__control__modules_1_1tof_1_1TOFTaskCompressed.html" target="_top" xlink:title="TOF Quality Control DPL Task for TOF Compressed data. ">
<polygon fill="none" stroke="black" points="143,-98.5 143,-128.5 322,-128.5 322,-98.5 143,-98.5"/>
<text text-anchor="start" x="151" y="-116.5" font-family="Helvetica,sans-Serif" font-size="10.00">o2::quality_control</text>
<text text-anchor="middle" x="232.5" y="-105.5" font-family="Helvetica,sans-Serif" font-size="10.00">_modules::tof::TOFTaskCompressed</text>
</a>
</g>
</g>
<!-- Node1&#45;&gt;Node19 -->
<g id="edge18" class="edge"><title>Node1&#45;&gt;Node19</title>
<path fill="none" stroke="midnightblue" d="M57.1862,-484.446C65.7116,-409.49 94.4928,-189.045 143,-138.5 146.648,-134.699 150.826,-131.462 155.337,-128.707"/>
<polygon fill="midnightblue" stroke="midnightblue" points="53.7048,-484.086 56.0754,-494.412 60.6617,-484.861 53.7048,-484.086"/>
</g>
<!-- Node20 -->
<g id="node20" class="node"><title>Node20</title>
<g id="a_node20"><a xlink:href="classo2_1_1quality__control__modules_1_1tpc_1_1PID.html" target="_top" xlink:title="TPC PID QC Task It is final because there is no reason to derive from it. Just remove it if needed...">
<polygon fill="none" stroke="black" points="182,-49.5 182,-79.5 283,-79.5 283,-49.5 182,-49.5"/>
<text text-anchor="start" x="190" y="-67.5" font-family="Helvetica,sans-Serif" font-size="10.00">o2::quality_control</text>
<text text-anchor="middle" x="232.5" y="-56.5" font-family="Helvetica,sans-Serif" font-size="10.00">_modules::tpc::PID</text>
</a>
</g>
</g>
<!-- Node1&#45;&gt;Node20 -->
<g id="edge19" class="edge"><title>Node1&#45;&gt;Node20</title>
<path fill="none" stroke="midnightblue" d="M56.4536,-484.178C63.2563,-402.479 88.5183,-147.797 143,-89.5 153.138,-78.6517 167.59,-72.3861 181.883,-68.8051"/>
<polygon fill="midnightblue" stroke="midnightblue" points="52.9517,-484.061 55.6315,-494.311 59.9288,-484.627 52.9517,-484.061"/>
</g>
<!-- Node21 -->
<g id="node21" class="node"><title>Node21</title>
<g id="a_node21"><a xlink:href="classo2_1_1quality__control__modules_1_1tpc_1_1Tracks.html" target="_top" xlink:title="Quality Control DPL Task for QC Module TPC for track related observables. ">
<polygon fill="none" stroke="black" points="175.5,-0.5 175.5,-30.5 289.5,-30.5 289.5,-0.5 175.5,-0.5"/>
<text text-anchor="start" x="183.5" y="-18.5" font-family="Helvetica,sans-Serif" font-size="10.00">o2::quality_control</text>
<text text-anchor="middle" x="232.5" y="-7.5" font-family="Helvetica,sans-Serif" font-size="10.00">_modules::tpc::Tracks</text>
</a>
</g>
</g>
<!-- Node1&#45;&gt;Node21 -->
<g id="edge20" class="edge"><title>Node1&#45;&gt;Node21</title>
<path fill="none" stroke="midnightblue" d="M55.8642,-483.871C61.0685,-395.691 82.5224,-106.602 143,-40.5 151.514,-31.1941 163.201,-25.251 175.292,-21.4813"/>
<polygon fill="midnightblue" stroke="midnightblue" points="52.3588,-483.867 55.2838,-494.05 59.3475,-484.265 52.3588,-483.867"/>
</g>
</g>
</svg>
