<?xml version="1.0" encoding="UTF-8" standalone="no"?>
<!DOCTYPE svg PUBLIC "-//W3C//DTD SVG 1.1//EN"
 "http://www.w3.org/Graphics/SVG/1.1/DTD/svg11.dtd">
<!-- Generated by graphviz version 2.38.0 (20140413.2041)
 -->
<!-- Title: Graphical Class Hierarchy Pages: 1 -->
<svg width="267pt" height="203pt"
 viewBox="0.00 0.00 267.00 203.00" xmlns="http://www.w3.org/2000/svg" xmlns:xlink="http://www.w3.org/1999/xlink">
<g id="graph0" class="graph" transform="scale(1 1) rotate(0) translate(4 199)">
<title>Graphical Class Hierarchy</title>
<!-- Node1 -->
<g id="node1" class="node"><title>Node1</title>
<g id="a_node1"><a xlink:href="classo2_1_1framework_1_1Task.html" target="_top" xlink:title="Task">
<polygon fill="none" stroke="black" points="0,-93.5 0,-112.5 38,-112.5 38,-93.5 0,-93.5"/>
<text text-anchor="middle" x="19" y="-100.5" font-family="Helvetica,sans-Serif" font-size="10.00">Task</text>
</a>
</g>
</g>
<!-- Node2 -->
<g id="node2" class="node"><title>Node2</title>
<g id="a_node2"><a xlink:href="classClustersRootFileReaderMFT.html" target="_top" xlink:title="ClustersRootFileReaderMFT">
<polygon fill="none" stroke="black" points="95.5,-175.5 95.5,-194.5 237.5,-194.5 237.5,-175.5 95.5,-175.5"/>
<text text-anchor="middle" x="166.5" y="-182.5" font-family="Helvetica,sans-Serif" font-size="10.00">ClustersRootFileReaderMFT</text>
</a>
</g>
</g>
<!-- Node1&#45;&gt;Node2 -->
<g id="edge1" class="edge"><title>Node1&#45;&gt;Node2</title>
<path fill="none" stroke="midnightblue" d="M30.988,-121.489C40.5327,-135.886 55.6848,-155.184 74,-166 80.5659,-169.878 87.805,-172.972 95.2489,-175.44"/>
<polygon fill="midnightblue" stroke="midnightblue" points="33.847,-119.461 25.5486,-112.874 27.9281,-123.199 33.847,-119.461"/>
</g>
<!-- Node3 -->
<g id="node3" class="node"><title>Node3</title>
<g id="a_node3"><a xlink:href="classDigitsRootFileReaderMFT.html" target="_top" xlink:title="DigitsRootFileReaderMFT">
<polygon fill="none" stroke="black" points="101,-137.5 101,-156.5 232,-156.5 232,-137.5 101,-137.5"/>
<text text-anchor="middle" x="166.5" y="-144.5" font-family="Helvetica,sans-Serif" font-size="10.00">DigitsRootFileReaderMFT</text>
</a>
</g>
</g>
<!-- Node1&#45;&gt;Node3 -->
<g id="edge2" class="edge"><title>Node1&#45;&gt;Node3</title>
<path fill="none" stroke="midnightblue" d="M47.1048,-117.022C55.5569,-120.99 65.02,-125.032 74,-128 85.2456,-131.716 97.5179,-134.858 109.317,-137.451"/>
<polygon fill="midnightblue" stroke="midnightblue" points="48.5953,-113.855 38.0711,-112.633 45.5366,-120.151 48.5953,-113.855"/>
</g>
<!-- Node4 -->
<g id="node4" class="node"><title>Node4</title>
<g id="a_node4"><a xlink:href="classo2_1_1quality__control_1_1core_1_1TaskRunner.html" target="_top" xlink:title="A class driving the execution of a QC task inside DPL. ">
<polygon fill="none" stroke="black" points="116,-88 116,-118 217,-118 217,-88 116,-88"/>
<text text-anchor="start" x="124" y="-106" font-family="Helvetica,sans-Serif" font-size="10.00">o2::quality_control</text>
<text text-anchor="middle" x="166.5" y="-95" font-family="Helvetica,sans-Serif" font-size="10.00">::core::TaskRunner</text>
</a>
</g>
</g>
<!-- Node1&#45;&gt;Node4 -->
<g id="edge3" class="edge"><title>Node1&#45;&gt;Node4</title>
<path fill="none" stroke="midnightblue" d="M48.296,-103C67.4523,-103 93.2773,-103 115.81,-103"/>
<polygon fill="midnightblue" stroke="midnightblue" points="48.1335,-99.5001 38.1335,-103 48.1335,-106.5 48.1335,-99.5001"/>
</g>
<!-- Node5 -->
<g id="node5" class="node"><title>Node5</title>
<g id="a_node5"><a xlink:href="classo2_1_1quality__control_1_1example_1_1ExampleQualityPrinterSpec.html" target="_top" xlink:title="Example DPL task to be plugged after a QC check. ">
<polygon fill="none" stroke="black" points="74,-39 74,-69 259,-69 259,-39 74,-39"/>
<text text-anchor="start" x="82" y="-57" font-family="Helvetica,sans-Serif" font-size="10.00">o2::quality_control</text>
<text text-anchor="middle" x="166.5" y="-46" font-family="Helvetica,sans-Serif" font-size="10.00">::example::ExampleQualityPrinterSpec</text>
</a>
</g>
</g>
<!-- Node1&#45;&gt;Node5 -->
<g id="edge4" class="edge"><title>Node1&#45;&gt;Node5</title>
<path fill="none" stroke="midnightblue" d="M47.5432,-89.7945C55.931,-86.0361 65.2485,-82.1201 74,-79 83.9273,-75.4607 94.6097,-72.1286 105.049,-69.1213"/>
<polygon fill="midnightblue" stroke="midnightblue" points="45.8415,-86.7245 38.2132,-94.077 48.7616,-93.0863 45.8415,-86.7245"/>
</g>
<!-- Node6 -->
<g id="node6" class="node"><title>Node6</title>
<g id="a_node6"><a xlink:href="classTracksRootFileReaderMFT.html" target="_top" xlink:title="TracksRootFileReaderMFT">
<polygon fill="none" stroke="black" points="99,-0.5 99,-19.5 234,-19.5 234,-0.5 99,-0.5"/>
<text text-anchor="middle" x="166.5" y="-7.5" font-family="Helvetica,sans-Serif" font-size="10.00">TracksRootFileReaderMFT</text>
</a>
</g>
</g>
<!-- Node1&#45;&gt;Node6 -->
<g id="edge5" class="edge"><title>Node1&#45;&gt;Node6</title>
<path fill="none" stroke="midnightblue" d="M28.7768,-84.5072C37.7561,-67.6483 53.314,-43.3922 74,-30 81.5073,-25.1397 90.0123,-21.4447 98.7397,-18.6386"/>
<polygon fill="midnightblue" stroke="midnightblue" points="25.6487,-82.937 24.261,-93.4406 31.8959,-86.095 25.6487,-82.937"/>
</g>
</g>
</svg>
