<?xml version="1.0" encoding="UTF-8" standalone="no"?>
<!DOCTYPE svg PUBLIC "-//W3C//DTD SVG 1.1//EN"
 "http://www.w3.org/Graphics/SVG/1.1/DTD/svg11.dtd">
<!-- Generated by graphviz version 2.38.0 (20140413.2041)
 -->
<!-- Title: Modules/ITS/include/ITS/ITSRawTask.h Pages: 1 -->
<!--zoomable 285 -->
<svg id="main" version="1.1" xmlns="http://www.w3.org/2000/svg" xmlns:xlink="http://www.w3.org/1999/xlink" xml:space="preserve" onload="init(evt)">
<style type="text/css"><![CDATA[
.edge:hover path { stroke: red; }
.edge:hover polygon { stroke: red; fill: red; }
]]></style>
<script type="text/javascript"><![CDATA[
var edges = document.getElementsByTagName('g');
if (edges && edges.length) {
  for (var i=0;i<edges.length;i++) {
    if (edges[i].id.substr(0,4)=='edge') {
      edges[i].setAttribute('class','edge');
    }
  }
}
]]></script>
        <defs>
                <circle id="rim" cx="0" cy="0" r="7"/>
                <circle id="rim2" cx="0" cy="0" r="3.5"/>
                <g id="zoomPlus">
                        <use xlink:href="#rim" fill="#404040">
                                <set attributeName="fill" to="#808080" begin="zoomplus.mouseover" end="zoomplus.mouseout"/>
                        </use>
                        <path d="M-4,0h8M0,-4v8" fill="none" stroke="white" stroke-width="1.5" pointer-events="none"/>
                </g>
                <g id="zoomMin">
                        <use xlink:href="#rim" fill="#404040">
                                <set attributeName="fill" to="#808080" begin="zoomminus.mouseover" end="zoomminus.mouseout"/>
                        </use>
                        <path d="M-4,0h8" fill="none" stroke="white" stroke-width="1.5" pointer-events="none"/>
                </g>
                <g id="dirArrow">
                        <path fill="none" stroke="white" stroke-width="1.5" d="M0,-3.0v7 M-2.5,-0.5L0,-3.0L2.5,-0.5"/>
                </g>
               <g id="resetDef">
                       <use xlink:href="#rim2" fill="#404040">
                               <set attributeName="fill" to="#808080" begin="reset.mouseover" end="reset.mouseout"/>
                       </use>
               </g>
        </defs>

<script type="text/javascript">
var viewWidth = 886;
var viewHeight = 285;
var sectionId = 'dynsection-0';
</script>
<script xlink:href="svgpan.js"/>
<svg id="graph" class="graph">
<g id="viewport">
<title>Modules/ITS/include/ITS/ITSRawTask.h</title>
<!-- Node1 -->
<g id="node1" class="node"><title>Node1</title>
<polygon fill="#bfbfbf" stroke="black" points="369.5,-246.5 369.5,-276.5 475.5,-276.5 475.5,-246.5 369.5,-246.5"/>
<text text-anchor="start" x="377.5" y="-264.5" font-family="Helvetica,sans-Serif" font-size="10.00">Modules/ITS/include</text>
<text text-anchor="middle" x="422.5" y="-253.5" font-family="Helvetica,sans-Serif" font-size="10.00">/ITS/ITSRawTask.h</text>
</g>
<!-- Node2 -->
<g id="node2" class="node"><title>Node2</title>
<g id="a_node2"><a xlink:href="TaskInterface_8h.html" target="_top" xlink:title="QualityControl/TaskInterface.h">
<polygon fill="none" stroke="black" points="64.5,-185 64.5,-204 214.5,-204 214.5,-185 64.5,-185"/>
<text text-anchor="middle" x="139.5" y="-192" font-family="Helvetica,sans-Serif" font-size="10.00">QualityControl/TaskInterface.h</text>
</a>
</g>
</g>
<!-- Node1&#45;&gt;Node2 -->
<g id="edge1" class="edge"><title>Node1&#45;&gt;Node2</title>
<path fill="none" stroke="midnightblue" d="M369.27,-248.274C316.692,-236.198 237.043,-217.904 186.674,-206.335"/>
<polygon fill="midnightblue" stroke="midnightblue" points="187.229,-202.871 176.7,-204.044 185.662,-209.694 187.229,-202.871"/>
</g>
<!-- Node19 -->
<g id="node19" class="node"><title>Node19</title>
<polygon fill="none" stroke="#bfbfbf" points="232.5,-185 232.5,-204 282.5,-204 282.5,-185 232.5,-185"/>
<text text-anchor="middle" x="257.5" y="-192" font-family="Helvetica,sans-Serif" font-size="10.00">TH2F.h</text>
</g>
<!-- Node1&#45;&gt;Node19 -->
<g id="edge24" class="edge"><title>Node1&#45;&gt;Node19</title>
<path fill="none" stroke="midnightblue" d="M385.095,-246.481C358.817,-236.534 322.894,-222.741 291.5,-210 289.906,-209.353 288.272,-208.682 286.626,-208"/>
<polygon fill="midnightblue" stroke="midnightblue" points="287.803,-204.698 277.227,-204.052 285.091,-211.152 287.803,-204.698"/>
</g>
<!-- Node20 -->
<g id="node20" class="node"><title>Node20</title>
<polygon fill="none" stroke="#bfbfbf" points="301,-185 301,-204 374,-204 374,-185 301,-185"/>
<text text-anchor="middle" x="337.5" y="-192" font-family="Helvetica,sans-Serif" font-size="10.00">TPaveText.h</text>
</g>
<!-- Node1&#45;&gt;Node20 -->
<g id="edge25" class="edge"><title>Node1&#45;&gt;Node20</title>
<path fill="none" stroke="midnightblue" d="M404.056,-246.396C390.147,-235.759 371.111,-221.203 356.96,-210.381"/>
<polygon fill="midnightblue" stroke="midnightblue" points="358.939,-207.489 348.87,-204.195 354.687,-213.049 358.939,-207.489"/>
</g>
<!-- Node21 -->
<g id="node21" class="node"><title>Node21</title>
<polygon fill="none" stroke="#bfbfbf" points="392.5,-185 392.5,-204 452.5,-204 452.5,-185 392.5,-185"/>
<text text-anchor="middle" x="422.5" y="-192" font-family="Helvetica,sans-Serif" font-size="10.00">TEllipse.h</text>
</g>
<!-- Node1&#45;&gt;Node21 -->
<g id="edge26" class="edge"><title>Node1&#45;&gt;Node21</title>
<path fill="none" stroke="midnightblue" d="M422.5,-246.396C422.5,-237.064 422.5,-224.714 422.5,-214.517"/>
<polygon fill="midnightblue" stroke="midnightblue" points="426,-214.195 422.5,-204.195 419,-214.195 426,-214.195"/>
</g>
<!-- Node22 -->
<g id="node22" class="node"><title>Node22</title>
<polygon fill="none" stroke="#bfbfbf" points="471,-179.5 471,-209.5 590,-209.5 590,-179.5 471,-179.5"/>
<text text-anchor="start" x="479" y="-197.5" font-family="Helvetica,sans-Serif" font-size="10.00">ITSMFTReconstruction</text>
<text text-anchor="middle" x="530.5" y="-186.5" font-family="Helvetica,sans-Serif" font-size="10.00">/RawPixelReader.h</text>
</g>
<!-- Node1&#45;&gt;Node22 -->
<g id="edge27" class="edge"><title>Node1&#45;&gt;Node22</title>
<path fill="none" stroke="midnightblue" d="M445.934,-246.396C461.219,-237.197 481.375,-225.066 498.175,-214.955"/>
<polygon fill="midnightblue" stroke="midnightblue" points="500.348,-217.732 507.111,-209.577 496.739,-211.734 500.348,-217.732"/>
</g>
<!-- Node23 -->
<g id="node23" class="node"><title>Node23</title>
<polygon fill="none" stroke="#bfbfbf" points="608,-185 608,-204 741,-204 741,-185 608,-185"/>
<text text-anchor="middle" x="674.5" y="-192" font-family="Helvetica,sans-Serif" font-size="10.00">ITSBase/GeometryTGeo.h</text>
</g>
<!-- Node1&#45;&gt;Node23 -->
<g id="edge28" class="edge"><title>Node1&#45;&gt;Node23</title>
<path fill="none" stroke="midnightblue" d="M475.635,-246.795C522.023,-234.829 588.488,-217.686 631.575,-206.572"/>
<polygon fill="midnightblue" stroke="midnightblue" points="632.655,-209.908 641.464,-204.021 630.907,-203.13 632.655,-209.908"/>
</g>
<!-- Node24 -->
<g id="node24" class="node"><title>Node24</title>
<polygon fill="none" stroke="#bfbfbf" points="759,-179.5 759,-209.5 878,-209.5 878,-179.5 759,-179.5"/>
<text text-anchor="start" x="767" y="-197.5" font-family="Helvetica,sans-Serif" font-size="10.00">ITSMFTReconstruction</text>
<text text-anchor="middle" x="818.5" y="-186.5" font-family="Helvetica,sans-Serif" font-size="10.00">/DigitPixelReader.h</text>
</g>
<!-- Node1&#45;&gt;Node24 -->
<g id="edge29" class="edge"><title>Node1&#45;&gt;Node24</title>
<path fill="none" stroke="midnightblue" d="M475.775,-253.255C538.767,-244.475 646.99,-228.722 748.985,-210.224"/>
<polygon fill="midnightblue" stroke="midnightblue" points="749.626,-213.665 758.834,-208.425 748.368,-206.778 749.626,-213.665"/>
</g>
<!-- Node3 -->
<g id="node3" class="node"><title>Node3</title>
<polygon fill="none" stroke="#bfbfbf" points="165,-0.5 165,-19.5 200,-19.5 200,-0.5 165,-0.5"/>
<text text-anchor="middle" x="182.5" y="-7.5" font-family="Helvetica,sans-Serif" font-size="10.00">map</text>
</g>
<!-- Node2&#45;&gt;Node3 -->
<g id="edge2" class="edge"><title>Node2&#45;&gt;Node3</title>
<path fill="none" stroke="midnightblue" d="M103.4,-184.843C81.6558,-177.567 55.6977,-164.75 42.5,-143 22.4414,-109.943 19.7229,-87.246 42.5,-56 68.0368,-20.9681 121.292,-12.611 154.259,-10.9548"/>
<polygon fill="midnightblue" stroke="midnightblue" points="154.71,-14.4422 164.592,-10.6212 154.484,-7.4458 154.71,-14.4422"/>
</g>
<!-- Node4 -->
<g id="node4" class="node"><title>Node4</title>
<polygon fill="none" stroke="#bfbfbf" points="95.5,-62 95.5,-81 147.5,-81 147.5,-62 95.5,-62"/>
<text text-anchor="middle" x="121.5" y="-69" font-family="Helvetica,sans-Serif" font-size="10.00">memory</text>
</g>
<!-- Node2&#45;&gt;Node4 -->
<g id="edge3" class="edge"><title>Node2&#45;&gt;Node4</title>
<path fill="none" stroke="midnightblue" d="M133.315,-184.711C126.908,-175.022 117.309,-158.717 113.5,-143 109.293,-125.637 112.42,-105.32 115.922,-90.9689"/>
<polygon fill="midnightblue" stroke="midnightblue" points="119.303,-91.8736 118.558,-81.305 112.55,-90.0317 119.303,-91.8736"/>
</g>
<!-- Node5 -->
<g id="node5" class="node"><title>Node5</title>
<polygon fill="none" stroke="#bfbfbf" points="250,-0.5 250,-19.5 291,-19.5 291,-0.5 250,-0.5"/>
<text text-anchor="middle" x="270.5" y="-7.5" font-family="Helvetica,sans-Serif" font-size="10.00">string</text>
</g>
<!-- Node2&#45;&gt;Node5 -->
<g id="edge4" class="edge"><title>Node2&#45;&gt;Node5</title>
<path fill="none" stroke="midnightblue" d="M130.824,-184.895C108.636,-161.848 53.8023,-97.6581 86.5,-56 96.0019,-43.8943 189.983,-25.4328 239.822,-16.3824"/>
<polygon fill="midnightblue" stroke="midnightblue" points="240.517,-19.8136 249.74,-14.5997 239.279,-12.924 240.517,-19.8136"/>
</g>
<!-- Node6 -->
<g id="node6" class="node"><title>Node6</title>
<polygon fill="none" stroke="#bfbfbf" points="0,-0.5 0,-19.5 83,-19.5 83,-0.5 0,-0.5"/>
<text text-anchor="middle" x="41.5" y="-7.5" font-family="Helvetica,sans-Serif" font-size="10.00">unordered_map</text>
</g>
<!-- Node2&#45;&gt;Node6 -->
<g id="edge5" class="edge"><title>Node2&#45;&gt;Node6</title>
<path fill="none" stroke="midnightblue" d="M96.9634,-184.978C73.1589,-177.893 45.1945,-165.231 29.5,-143 5.36473,-108.813 21.5761,-56.5842 32.9904,-29.1994"/>
<polygon fill="midnightblue" stroke="midnightblue" points="36.3437,-30.2696 37.1768,-19.7075 29.939,-27.4447 36.3437,-30.2696"/>
</g>
<!-- Node7 -->
<g id="node7" class="node"><title>Node7</title>
<polygon fill="none" stroke="#bfbfbf" points="123,-123.5 123,-142.5 248,-142.5 248,-123.5 123,-123.5"/>
<text text-anchor="middle" x="185.5" y="-130.5" font-family="Helvetica,sans-Serif" font-size="10.00">Framework/InitContext.h</text>
</g>
<!-- Node2&#45;&gt;Node7 -->
<g id="edge6" class="edge"><title>Node2&#45;&gt;Node7</title>
<path fill="none" stroke="midnightblue" d="M146.091,-184.975C152.991,-176.05 164.002,-161.807 172.634,-150.643"/>
<polygon fill="midnightblue" stroke="midnightblue" points="175.574,-152.561 178.922,-142.509 170.036,-148.28 175.574,-152.561"/>
</g>
<!-- Node8 -->
<g id="node8" class="node"><title>Node8</title>
<polygon fill="none" stroke="#bfbfbf" points="266.5,-123.5 266.5,-142.5 426.5,-142.5 426.5,-123.5 266.5,-123.5"/>
<text text-anchor="middle" x="346.5" y="-130.5" font-family="Helvetica,sans-Serif" font-size="10.00">Framework/ProcessingContext.h</text>
</g>
<!-- Node2&#45;&gt;Node8 -->
<g id="edge7" class="edge"><title>Node2&#45;&gt;Node8</title>
<path fill="none" stroke="midnightblue" d="M169.158,-184.975C205.434,-174.548 266.964,-156.862 307.164,-145.307"/>
<polygon fill="midnightblue" stroke="midnightblue" points="308.253,-148.635 316.897,-142.509 306.319,-141.908 308.253,-148.635"/>
</g>
<!-- Node9 -->
<g id="node9" class="node"><title>Node9</title>
<g id="a_node9"><a xlink:href="Activity_8h.html" target="_top" xlink:title="QualityControl/Activity.h">
<polygon fill="none" stroke="black" points="445,-123.5 445,-142.5 568,-142.5 568,-123.5 445,-123.5"/>
<text text-anchor="middle" x="506.5" y="-130.5" font-family="Helvetica,sans-Serif" font-size="10.00">QualityControl/Activity.h</text>
</a>
</g>
</g>
<!-- Node2&#45;&gt;Node9 -->
<g id="edge8" class="edge"><title>Node2&#45;&gt;Node9</title>
<path fill="none" stroke="midnightblue" d="M188.341,-184.957C199.866,-182.972 212.112,-180.888 223.5,-179 298.158,-166.621 384.013,-153.065 441.399,-144.101"/>
<polygon fill="midnightblue" stroke="midnightblue" points="442.078,-147.538 451.419,-142.537 440.998,-140.621 442.078,-147.538"/>
</g>
<!-- Node10 -->
<g id="node10" class="node"><title>Node10</title>
<g id="a_node10"><a xlink:href="ObjectsManager_8h.html" target="_top" xlink:title="QualityControl/ObjectsManager.h">
<polygon fill="none" stroke="black" points="586,-123.5 586,-142.5 747,-142.5 747,-123.5 586,-123.5"/>
<text text-anchor="middle" x="666.5" y="-130.5" font-family="Helvetica,sans-Serif" font-size="10.00">QualityControl/ObjectsManager.h</text>
</a>
</g>
</g>
<!-- Node2&#45;&gt;Node10 -->
<g id="edge9" class="edge"><title>Node2&#45;&gt;Node10</title>
<path fill="none" stroke="midnightblue" d="M185.624,-184.943C197.906,-182.827 211.184,-180.686 223.5,-179 232.14,-177.817 448.797,-155.934 575.86,-143.127"/>
<polygon fill="midnightblue" stroke="midnightblue" points="576.382,-146.593 585.98,-142.108 575.68,-139.628 576.382,-146.593"/>
</g>
<!-- Node10&#45;&gt;Node4 -->
<g id="edge23" class="edge"><title>Node10&#45;&gt;Node4</title>
<path fill="none" stroke="midnightblue" d="M585.552,-123.855C582.496,-123.564 579.471,-123.278 576.5,-123 392.607,-105.811 343.007,-126.103 162.5,-87 159.076,-86.2582 155.546,-85.3089 152.061,-84.2516"/>
<polygon fill="midnightblue" stroke="midnightblue" points="153.077,-80.9013 142.484,-81.0689 150.87,-87.5441 153.077,-80.9013"/>
</g>
<!-- Node10&#45;&gt;Node5 -->
<g id="edge22" class="edge"><title>Node10&#45;&gt;Node5</title>
<path fill="none" stroke="midnightblue" d="M593.391,-123.499C509.116,-113.357 379.45,-96.5756 358.5,-87 354.356,-85.1057 312.269,-48.0657 287.832,-26.4071"/>
<polygon fill="midnightblue" stroke="midnightblue" points="290.104,-23.7443 280.302,-19.7247 285.458,-28.98 290.104,-23.7443"/>
</g>
<!-- Node11 -->
<g id="node11" class="node"><title>Node11</title>
<g id="a_node11"><a xlink:href="MonitorObject_8h.html" target="_top" xlink:title="QualityControl/MonitorObject.h">
<polygon fill="none" stroke="black" points="368,-62 368,-81 519,-81 519,-62 368,-62"/>
<text text-anchor="middle" x="443.5" y="-69" font-family="Helvetica,sans-Serif" font-size="10.00">QualityControl/MonitorObject.h</text>
</a>
</g>
</g>
<!-- Node10&#45;&gt;Node11 -->
<g id="edge10" class="edge"><title>Node10&#45;&gt;Node11</title>
<path fill="none" stroke="midnightblue" d="M634.55,-123.475C595.304,-113.004 528.622,-95.2118 485.327,-83.6601"/>
<polygon fill="midnightblue" stroke="midnightblue" points="485.956,-80.2054 475.391,-81.0091 484.151,-86.9688 485.956,-80.2054"/>
</g>
<!-- Node15 -->
<g id="node15" class="node"><title>Node15</title>
<g id="a_node15"><a xlink:href="MonitorObjectCollection_8h.html" target="_top" xlink:title="QualityControl/MonitorObject\lCollection.h">
<polygon fill="none" stroke="black" points="595,-56.5 595,-86.5 738,-86.5 738,-56.5 595,-56.5"/>
<text text-anchor="start" x="603" y="-74.5" font-family="Helvetica,sans-Serif" font-size="10.00">QualityControl/MonitorObject</text>
<text text-anchor="middle" x="666.5" y="-63.5" font-family="Helvetica,sans-Serif" font-size="10.00">Collection.h</text>
</a>
</g>
</g>
<!-- Node10&#45;&gt;Node15 -->
<g id="edge16" class="edge"><title>Node10&#45;&gt;Node15</title>
<path fill="none" stroke="midnightblue" d="M666.5,-123.475C666.5,-116.471 666.5,-106.192 666.5,-96.6956"/>
<polygon fill="midnightblue" stroke="midnightblue" points="670,-96.5229 666.5,-86.523 663,-96.523 670,-96.5229"/>
</g>
<!-- Node18 -->
<g id="node18" class="node"><title>Node18</title>
<g id="a_node18"><a xlink:href="TaskConfig_8h.html" target="_top" xlink:title="QualityControl/TaskConfig.h">
<polygon fill="none" stroke="black" points="171.5,-62 171.5,-81 311.5,-81 311.5,-62 171.5,-62"/>
<text text-anchor="middle" x="241.5" y="-69" font-family="Helvetica,sans-Serif" font-size="10.00">QualityControl/TaskConfig.h</text>
</a>
</g>
</g>
<!-- Node10&#45;&gt;Node18 -->
<g id="edge19" class="edge"><title>Node10&#45;&gt;Node18</title>
<path fill="none" stroke="midnightblue" d="M595.523,-123.467C526.465,-114.969 418.627,-101.177 325.5,-87 316.89,-85.6893 307.799,-84.2149 298.904,-82.7213"/>
<polygon fill="midnightblue" stroke="midnightblue" points="299.425,-79.2598 288.98,-81.0346 298.252,-86.1608 299.425,-79.2598"/>
</g>
<!-- Node11&#45;&gt;Node3 -->
<g id="edge12" class="edge"><title>Node11&#45;&gt;Node3</title>
<path fill="none" stroke="midnightblue" d="M406.105,-61.9751C353.032,-49.8761 257.091,-28.0045 210.034,-17.277"/>
<polygon fill="midnightblue" stroke="midnightblue" points="210.764,-13.8536 200.236,-15.0433 209.208,-20.6785 210.764,-13.8536"/>
</g>
<!-- Node11&#45;&gt;Node5 -->
<g id="edge11" class="edge"><title>Node11&#45;&gt;Node5</title>
<path fill="none" stroke="midnightblue" d="M418.713,-61.9751C387.639,-51.2877 334.394,-32.975 300.895,-21.4536"/>
<polygon fill="midnightblue" stroke="midnightblue" points="301.773,-18.0547 291.179,-18.112 299.497,-24.6741 301.773,-18.0547"/>
</g>
<!-- Node12 -->
<g id="node12" class="node"><title>Node12</title>
<polygon fill="none" stroke="#bfbfbf" points="339.5,-0.5 339.5,-19.5 395.5,-19.5 395.5,-0.5 339.5,-0.5"/>
<text text-anchor="middle" x="367.5" y="-7.5" font-family="Helvetica,sans-Serif" font-size="10.00">Rtypes.h</text>
</g>
<!-- Node11&#45;&gt;Node12 -->
<g id="edge13" class="edge"><title>Node11&#45;&gt;Node12</title>
<path fill="none" stroke="midnightblue" d="M432.611,-61.9751C420.534,-52.5199 400.833,-37.0961 386.26,-25.6871"/>
<polygon fill="midnightblue" stroke="midnightblue" points="388.4,-22.9177 378.369,-19.5091 384.085,-28.4295 388.4,-22.9177"/>
</g>
<!-- Node13 -->
<g id="node13" class="node"><title>Node13</title>
<polygon fill="none" stroke="#bfbfbf" points="414,-0.5 414,-19.5 473,-19.5 473,-0.5 414,-0.5"/>
<text text-anchor="middle" x="443.5" y="-7.5" font-family="Helvetica,sans-Serif" font-size="10.00">TObject.h</text>
</g>
<!-- Node11&#45;&gt;Node13 -->
<g id="edge14" class="edge"><title>Node11&#45;&gt;Node13</title>
<path fill="none" stroke="midnightblue" d="M443.5,-61.9751C443.5,-53.5803 443.5,-40.4806 443.5,-29.6631"/>
<polygon fill="midnightblue" stroke="midnightblue" points="447,-29.5091 443.5,-19.5091 440,-29.5091 447,-29.5091"/>
</g>
<!-- Node14 -->
<g id="node14" class="node"><title>Node14</title>
<polygon fill="none" stroke="#bfbfbf" points="491.5,-0.5 491.5,-19.5 607.5,-19.5 607.5,-0.5 491.5,-0.5"/>
<text text-anchor="middle" x="549.5" y="-7.5" font-family="Helvetica,sans-Serif" font-size="10.00">Common/Exceptions.h</text>
</g>
<!-- Node11&#45;&gt;Node14 -->
<g id="edge15" class="edge"><title>Node11&#45;&gt;Node14</title>
<path fill="none" stroke="midnightblue" d="M458.687,-61.9751C476.162,-52.1664 505.079,-35.9346 525.583,-24.425"/>
<polygon fill="midnightblue" stroke="midnightblue" points="527.334,-27.456 534.341,-19.5091 523.908,-21.3519 527.334,-27.456"/>
</g>
<!-- Node16 -->
<g id="node16" class="node"><title>Node16</title>
<polygon fill="none" stroke="#bfbfbf" points="629,-0.5 629,-19.5 698,-19.5 698,-0.5 629,-0.5"/>
<text text-anchor="middle" x="663.5" y="-7.5" font-family="Helvetica,sans-Serif" font-size="10.00">TObjArray.h</text>
</g>
<!-- Node15&#45;&gt;Node16 -->
<g id="edge17" class="edge"><title>Node15&#45;&gt;Node16</title>
<path fill="none" stroke="midnightblue" d="M665.789,-56.3993C665.389,-48.4664 664.884,-38.458 664.451,-29.8583"/>
<polygon fill="midnightblue" stroke="midnightblue" points="667.936,-29.4688 663.937,-19.6578 660.945,-29.8214 667.936,-29.4688"/>
</g>
<!-- Node17 -->
<g id="node17" class="node"><title>Node17</title>
<polygon fill="none" stroke="#bfbfbf" points="716.5,-0.5 716.5,-19.5 844.5,-19.5 844.5,-0.5 716.5,-0.5"/>
<text text-anchor="middle" x="780.5" y="-7.5" font-family="Helvetica,sans-Serif" font-size="10.00">Mergers/MergeInterface.h</text>
</g>
<!-- Node15&#45;&gt;Node17 -->
<g id="edge18" class="edge"><title>Node15&#45;&gt;Node17</title>
<path fill="none" stroke="midnightblue" d="M693.516,-56.3993C712.131,-46.6837 736.71,-33.8551 754.991,-24.3137"/>
<polygon fill="midnightblue" stroke="midnightblue" points="756.666,-27.3876 763.912,-19.6578 753.427,-21.182 756.666,-27.3876"/>
</g>
<!-- Node18&#45;&gt;Node5 -->
<g id="edge20" class="edge"><title>Node18&#45;&gt;Node5</title>
<path fill="none" stroke="midnightblue" d="M245.655,-61.9751C249.876,-53.3152 256.537,-39.6486 261.9,-28.6453"/>
<polygon fill="midnightblue" stroke="midnightblue" points="265.118,-30.0317 266.353,-19.5091 258.825,-26.9648 265.118,-30.0317"/>
</g>
<!-- Node18&#45;&gt;Node6 -->
<g id="edge21" class="edge"><title>Node18&#45;&gt;Node6</title>
<path fill="none" stroke="midnightblue" d="M212.845,-61.9751C177.944,-51.592 118.85,-34.0116 80.0003,-22.4538"/>
<polygon fill="midnightblue" stroke="midnightblue" points="80.6848,-19.0059 70.102,-19.5091 78.6888,-25.7153 80.6848,-19.0059"/>
</g>
</g>
</svg>
        <g id="navigator" transform="translate(0 0)" fill="#404254">
                <rect fill="#f2f5e9" fill-opacity="0.5" stroke="#606060" stroke-width=".5" x="0" y="0" width="60" height="60"/>
                <use id="zoomplus" xlink:href="#zoomPlus" x="17" y="9" onmousedown="handleZoom(evt,'in')"/>
                <use id="zoomminus" xlink:href="#zoomMin" x="42" y="9" onmousedown="handleZoom(evt,'out')"/>
                <use id="reset" xlink:href="#resetDef" x="30" y="36" onmousedown="handleReset()"/>
                <g id="arrowUp" xlink:href="#dirArrow" transform="translate(30 24)" onmousedown="handlePan(0,-1)">
                  <use xlink:href="#rim" fill="#404040">
                        <set attributeName="fill" to="#808080" begin="arrowUp.mouseover" end="arrowUp.mouseout"/>
                  </use>
                  <path fill="none" stroke="white" stroke-width="1.5" d="M0,-3.0v7 M-2.5,-0.5L0,-3.0L2.5,-0.5"/>
                </g>
                <g id="arrowRight" xlink:href="#dirArrow" transform="rotate(90) translate(36 -43)" onmousedown="handlePan(1,0)">
                  <use xlink:href="#rim" fill="#404040">
                        <set attributeName="fill" to="#808080" begin="arrowRight.mouseover" end="arrowRight.mouseout"/>
                  </use>
                  <path fill="none" stroke="white" stroke-width="1.5" d="M0,-3.0v7 M-2.5,-0.5L0,-3.0L2.5,-0.5"/>
                </g>
                <g id="arrowDown" xlink:href="#dirArrow" transform="rotate(180) translate(-30 -48)" onmousedown="handlePan(0,1)">
                  <use xlink:href="#rim" fill="#404040">
                        <set attributeName="fill" to="#808080" begin="arrowDown.mouseover" end="arrowDown.mouseout"/>
                  </use>
                  <path fill="none" stroke="white" stroke-width="1.5" d="M0,-3.0v7 M-2.5,-0.5L0,-3.0L2.5,-0.5"/>
                </g>
                <g id="arrowLeft" xlink:href="#dirArrow" transform="rotate(270) translate(-36 17)" onmousedown="handlePan(-1,0)">
                  <use xlink:href="#rim" fill="#404040">
                        <set attributeName="fill" to="#808080" begin="arrowLeft.mouseover" end="arrowLeft.mouseout"/>
                  </use>
                  <path fill="none" stroke="white" stroke-width="1.5" d="M0,-3.0v7 M-2.5,-0.5L0,-3.0L2.5,-0.5"/>
                </g>
        </g>
        <svg viewBox="0 0 15 15" width="100%" height="30px" preserveAspectRatio="xMaxYMin meet">
         <g id="arrow_out" transform="scale(0.3 0.3)">
          <a xlink:href="ITSRawTask_8h__incl_org.svg" target="_base">
           <rect id="button" ry="5" rx="5" y="6" x="6" height="38" width="38"
                fill="#f2f5e9" fill-opacity="0.5" stroke="#606060" stroke-width="1.0"/>
           <path id="arrow"
             d="M 11.500037,31.436501 C 11.940474,20.09759 22.043105,11.32322 32.158766,21.979434 L 37.068811,17.246167 C 37.068811,17.246167 37.088388,32 37.088388,32 L 22.160133,31.978069 C 22.160133,31.978069 26.997745,27.140456 26.997745,27.140456 C 18.528582,18.264221 13.291696,25.230495 11.500037,31.436501 z"
             style="fill:#404040;"/>
          </a>
         </g>
        </svg>
</svg>
