<?xml version="1.0" encoding="UTF-8" standalone="no"?>
<!DOCTYPE svg PUBLIC "-//W3C//DTD SVG 1.1//EN"
 "http://www.w3.org/Graphics/SVG/1.1/DTD/svg11.dtd">
<!-- Generated by graphviz version 2.38.0 (20140413.2041)
 -->
<!-- Title: Modules/ITS/src/ITSRawTask.cxx Pages: 1 -->
<!--zoomable 330 -->
<svg id="main" version="1.1" xmlns="http://www.w3.org/2000/svg" xmlns:xlink="http://www.w3.org/1999/xlink" xml:space="preserve" onload="init(evt)">
<style type="text/css"><![CDATA[
.edge:hover path { stroke: red; }
.edge:hover polygon { stroke: red; fill: red; }
]]></style>
<script type="text/javascript"><![CDATA[
var edges = document.getElementsByTagName('g');
if (edges && edges.length) {
  for (var i=0;i<edges.length;i++) {
    if (edges[i].id.substr(0,4)=='edge') {
      edges[i].setAttribute('class','edge');
    }
  }
}
]]></script>
        <defs>
                <circle id="rim" cx="0" cy="0" r="7"/>
                <circle id="rim2" cx="0" cy="0" r="3.5"/>
                <g id="zoomPlus">
                        <use xlink:href="#rim" fill="#404040">
                                <set attributeName="fill" to="#808080" begin="zoomplus.mouseover" end="zoomplus.mouseout"/>
                        </use>
                        <path d="M-4,0h8M0,-4v8" fill="none" stroke="white" stroke-width="1.5" pointer-events="none"/>
                </g>
                <g id="zoomMin">
                        <use xlink:href="#rim" fill="#404040">
                                <set attributeName="fill" to="#808080" begin="zoomminus.mouseover" end="zoomminus.mouseout"/>
                        </use>
                        <path d="M-4,0h8" fill="none" stroke="white" stroke-width="1.5" pointer-events="none"/>
                </g>
                <g id="dirArrow">
                        <path fill="none" stroke="white" stroke-width="1.5" d="M0,-3.0v7 M-2.5,-0.5L0,-3.0L2.5,-0.5"/>
                </g>
               <g id="resetDef">
                       <use xlink:href="#rim2" fill="#404040">
                               <set attributeName="fill" to="#808080" begin="reset.mouseover" end="reset.mouseout"/>
                       </use>
               </g>
        </defs>

<script type="text/javascript">
var viewWidth = 1439;
var viewHeight = 330;
var sectionId = 'dynsection-0';
</script>
<script xlink:href="svgpan.js"/>
<svg id="graph" class="graph">
<g id="viewport">
<title>Modules/ITS/src/ITSRawTask.cxx</title>
<!-- Node1 -->
<g id="node1" class="node"><title>Node1</title>
<polygon fill="#bfbfbf" stroke="black" points="601,-302.5 601,-321.5 769,-321.5 769,-302.5 601,-302.5"/>
<text text-anchor="middle" x="685" y="-309.5" font-family="Helvetica,sans-Serif" font-size="10.00">Modules/ITS/src/ITSRawTask.cxx</text>
</g>
<!-- Node2 -->
<g id="node2" class="node"><title>Node2</title>
<g id="a_node2"><a xlink:href="QcInfoLogger_8h.html" target="_top" xlink:title="QualityControl/QcInfoLogger.h">
<polygon fill="none" stroke="black" points="173.5,-246.5 173.5,-265.5 322.5,-265.5 322.5,-246.5 173.5,-246.5"/>
<text text-anchor="middle" x="248" y="-253.5" font-family="Helvetica,sans-Serif" font-size="10.00">QualityControl/QcInfoLogger.h</text>
</a>
</g>
</g>
<!-- Node1&#45;&gt;Node2 -->
<g id="edge1" class="edge"><title>Node1&#45;&gt;Node2</title>
<path fill="none" stroke="midnightblue" d="M615.756,-302.444C537.205,-292.737 409.356,-276.939 326.983,-266.76"/>
<polygon fill="midnightblue" stroke="midnightblue" points="327.274,-263.269 316.92,-265.516 326.415,-270.216 327.274,-263.269"/>
</g>
<!-- Node4 -->
<g id="node4" class="node"><title>Node4</title>
<g id="a_node4"><a xlink:href="ITSRawTask_8h.html" target="_top" xlink:title="ITS QC task for raw data analysis. ">
<polygon fill="none" stroke="black" points="451.5,-246.5 451.5,-265.5 552.5,-265.5 552.5,-246.5 451.5,-246.5"/>
<text text-anchor="middle" x="502" y="-253.5" font-family="Helvetica,sans-Serif" font-size="10.00">ITS/ITSRawTask.h</text>
</a>
</g>
</g>
<!-- Node1&#45;&gt;Node4 -->
<g id="edge3" class="edge"><title>Node1&#45;&gt;Node4</title>
<path fill="none" stroke="midnightblue" d="M656.003,-302.444C624.815,-293.241 575.07,-278.562 540.592,-268.388"/>
<polygon fill="midnightblue" stroke="midnightblue" points="541.443,-264.99 530.861,-265.516 539.462,-271.704 541.443,-264.99"/>
</g>
<!-- Node28 -->
<g id="node28" class="node"><title>Node28</title>
<g id="a_node28"><a xlink:href="ITSTaskVariables_8h_source.html" target="_top" xlink:title="ITS/ITSTaskVariables.h">
<polygon fill="none" stroke="black" points="571,-246.5 571,-265.5 693,-265.5 693,-246.5 571,-246.5"/>
<text text-anchor="middle" x="632" y="-253.5" font-family="Helvetica,sans-Serif" font-size="10.00">ITS/ITSTaskVariables.h</text>
</a>
</g>
</g>
<!-- Node1&#45;&gt;Node28 -->
<g id="edge33" class="edge"><title>Node1&#45;&gt;Node28</title>
<path fill="none" stroke="midnightblue" d="M676.248,-302.083C668.53,-294.22 657.095,-282.569 647.783,-273.081"/>
<polygon fill="midnightblue" stroke="midnightblue" points="650.092,-270.436 640.589,-265.751 645.096,-275.34 650.092,-270.436"/>
</g>
<!-- Node29 -->
<g id="node29" class="node"><title>Node29</title>
<polygon fill="none" stroke="#bfbfbf" points="711,-246.5 711,-265.5 767,-265.5 767,-246.5 711,-246.5"/>
<text text-anchor="middle" x="739" y="-253.5" font-family="Helvetica,sans-Serif" font-size="10.00">TGaxis.h</text>
</g>
<!-- Node1&#45;&gt;Node29 -->
<g id="edge34" class="edge"><title>Node1&#45;&gt;Node29</title>
<path fill="none" stroke="midnightblue" d="M693.917,-302.083C701.78,-294.22 713.431,-282.569 722.919,-273.081"/>
<polygon fill="midnightblue" stroke="midnightblue" points="725.653,-275.297 730.249,-265.751 720.703,-270.347 725.653,-275.297"/>
</g>
<!-- Node30 -->
<g id="node30" class="node"><title>Node30</title>
<polygon fill="none" stroke="#bfbfbf" points="785.5,-246.5 785.5,-265.5 838.5,-265.5 838.5,-246.5 785.5,-246.5"/>
<text text-anchor="middle" x="812" y="-253.5" font-family="Helvetica,sans-Serif" font-size="10.00">TStyle.h</text>
</g>
<!-- Node1&#45;&gt;Node30 -->
<g id="edge35" class="edge"><title>Node1&#45;&gt;Node30</title>
<path fill="none" stroke="midnightblue" d="M705.124,-302.444C726.024,-293.557 758.935,-279.563 782.716,-269.451"/>
<polygon fill="midnightblue" stroke="midnightblue" points="784.138,-272.65 791.971,-265.516 781.398,-266.208 784.138,-272.65"/>
</g>
<!-- Node31 -->
<g id="node31" class="node"><title>Node31</title>
<polygon fill="none" stroke="#bfbfbf" points="857,-246.5 857,-265.5 905,-265.5 905,-246.5 857,-246.5"/>
<text text-anchor="middle" x="881" y="-253.5" font-family="Helvetica,sans-Serif" font-size="10.00">TPad.h</text>
</g>
<!-- Node1&#45;&gt;Node31 -->
<g id="edge36" class="edge"><title>Node1&#45;&gt;Node31</title>
<path fill="none" stroke="midnightblue" d="M716.057,-302.444C751.774,-292.603 810.216,-276.502 847.093,-266.342"/>
<polygon fill="midnightblue" stroke="midnightblue" points="848.174,-269.674 856.885,-263.644 846.315,-262.926 848.174,-269.674"/>
</g>
<!-- Node3 -->
<g id="node3" class="node"><title>Node3</title>
<polygon fill="none" stroke="#bfbfbf" points="0,-185 0,-204 130,-204 130,-185 0,-185"/>
<text text-anchor="middle" x="65" y="-192" font-family="Helvetica,sans-Serif" font-size="10.00">InfoLogger/InfoLogger.hxx</text>
</g>
<!-- Node2&#45;&gt;Node3 -->
<g id="edge2" class="edge"><title>Node2&#45;&gt;Node3</title>
<path fill="none" stroke="midnightblue" d="M221.781,-246.475C189.982,-236.136 136.235,-218.661 100.683,-207.102"/>
<polygon fill="midnightblue" stroke="midnightblue" points="101.763,-203.773 91.1708,-204.009 99.5985,-210.43 101.763,-203.773"/>
</g>
<!-- Node5 -->
<g id="node5" class="node"><title>Node5</title>
<g id="a_node5"><a xlink:href="TaskInterface_8h.html" target="_top" xlink:title="QualityControl/TaskInterface.h">
<polygon fill="none" stroke="black" points="652,-185 652,-204 802,-204 802,-185 652,-185"/>
<text text-anchor="middle" x="727" y="-192" font-family="Helvetica,sans-Serif" font-size="10.00">QualityControl/TaskInterface.h</text>
</a>
</g>
</g>
<!-- Node4&#45;&gt;Node5 -->
<g id="edge4" class="edge"><title>Node4&#45;&gt;Node5</title>
<path fill="none" stroke="midnightblue" d="M534.237,-246.475C573.919,-235.982 641.399,-218.137 685.074,-206.587"/>
<polygon fill="midnightblue" stroke="midnightblue" points="686.05,-209.949 694.823,-204.009 684.26,-203.182 686.05,-209.949"/>
</g>
<!-- Node22 -->
<g id="node22" class="node"><title>Node22</title>
<polygon fill="none" stroke="#bfbfbf" points="820,-185 820,-204 870,-204 870,-185 820,-185"/>
<text text-anchor="middle" x="845" y="-192" font-family="Helvetica,sans-Serif" font-size="10.00">TH2F.h</text>
</g>
<!-- Node4&#45;&gt;Node22 -->
<g id="edge27" class="edge"><title>Node4&#45;&gt;Node22</title>
<path fill="none" stroke="midnightblue" d="M552.736,-247.37C555.871,-246.905 558.978,-246.445 562,-246 672.624,-229.706 703.334,-240.186 811,-210 813.294,-209.357 815.638,-208.595 817.968,-207.763"/>
<polygon fill="midnightblue" stroke="midnightblue" points="819.303,-210.999 827.316,-204.068 816.729,-204.489 819.303,-210.999"/>
</g>
<!-- Node23 -->
<g id="node23" class="node"><title>Node23</title>
<polygon fill="none" stroke="#bfbfbf" points="888.5,-185 888.5,-204 961.5,-204 961.5,-185 888.5,-185"/>
<text text-anchor="middle" x="925" y="-192" font-family="Helvetica,sans-Serif" font-size="10.00">TPaveText.h</text>
</g>
<!-- Node4&#45;&gt;Node23 -->
<g id="edge28" class="edge"><title>Node4&#45;&gt;Node23</title>
<path fill="none" stroke="midnightblue" d="M552.721,-247.261C555.859,-246.823 558.972,-246.399 562,-246 702.58,-227.48 740.298,-239.45 879,-210 882.942,-209.163 887.027,-208.128 891.063,-207"/>
<polygon fill="midnightblue" stroke="midnightblue" points="892.306,-210.281 900.882,-204.06 890.299,-203.575 892.306,-210.281"/>
</g>
<!-- Node24 -->
<g id="node24" class="node"><title>Node24</title>
<polygon fill="none" stroke="#bfbfbf" points="148,-185 148,-204 208,-204 208,-185 148,-185"/>
<text text-anchor="middle" x="178" y="-192" font-family="Helvetica,sans-Serif" font-size="10.00">TEllipse.h</text>
</g>
<!-- Node4&#45;&gt;Node24 -->
<g id="edge29" class="edge"><title>Node4&#45;&gt;Node24</title>
<path fill="none" stroke="midnightblue" d="M451.437,-250.097C393.97,-243.818 297.679,-231.141 217,-210 214.183,-209.262 211.286,-208.397 208.404,-207.463"/>
<polygon fill="midnightblue" stroke="midnightblue" points="209.398,-204.102 198.803,-204.107 207.088,-210.71 209.398,-204.102"/>
</g>
<!-- Node25 -->
<g id="node25" class="node"><title>Node25</title>
<polygon fill="none" stroke="#bfbfbf" points="226.5,-179.5 226.5,-209.5 345.5,-209.5 345.5,-179.5 226.5,-179.5"/>
<text text-anchor="start" x="234.5" y="-197.5" font-family="Helvetica,sans-Serif" font-size="10.00">ITSMFTReconstruction</text>
<text text-anchor="middle" x="286" y="-186.5" font-family="Helvetica,sans-Serif" font-size="10.00">/RawPixelReader.h</text>
</g>
<!-- Node4&#45;&gt;Node25 -->
<g id="edge30" class="edge"><title>Node4&#45;&gt;Node25</title>
<path fill="none" stroke="midnightblue" d="M471.052,-246.475C438.722,-237.569 387.171,-223.369 346.68,-212.215"/>
<polygon fill="midnightblue" stroke="midnightblue" points="347.477,-208.804 336.907,-209.523 345.618,-215.553 347.477,-208.804"/>
</g>
<!-- Node26 -->
<g id="node26" class="node"><title>Node26</title>
<polygon fill="none" stroke="#bfbfbf" points="363.5,-185 363.5,-204 496.5,-204 496.5,-185 363.5,-185"/>
<text text-anchor="middle" x="430" y="-192" font-family="Helvetica,sans-Serif" font-size="10.00">ITSBase/GeometryTGeo.h</text>
</g>
<!-- Node4&#45;&gt;Node26 -->
<g id="edge31" class="edge"><title>Node4&#45;&gt;Node26</title>
<path fill="none" stroke="midnightblue" d="M491.684,-246.475C480.349,-237.108 461.927,-221.884 448.161,-210.508"/>
<polygon fill="midnightblue" stroke="midnightblue" points="450.235,-207.681 440.297,-204.009 445.776,-213.077 450.235,-207.681"/>
</g>
<!-- Node27 -->
<g id="node27" class="node"><title>Node27</title>
<polygon fill="none" stroke="#bfbfbf" points="514.5,-179.5 514.5,-209.5 633.5,-209.5 633.5,-179.5 514.5,-179.5"/>
<text text-anchor="start" x="522.5" y="-197.5" font-family="Helvetica,sans-Serif" font-size="10.00">ITSMFTReconstruction</text>
<text text-anchor="middle" x="574" y="-186.5" font-family="Helvetica,sans-Serif" font-size="10.00">/DigitPixelReader.h</text>
</g>
<!-- Node4&#45;&gt;Node27 -->
<g id="edge32" class="edge"><title>Node4&#45;&gt;Node27</title>
<path fill="none" stroke="midnightblue" d="M512.316,-246.475C521.885,-238.567 536.506,-226.485 549.112,-216.067"/>
<polygon fill="midnightblue" stroke="midnightblue" points="551.552,-218.591 557.031,-209.523 547.093,-213.195 551.552,-218.591"/>
</g>
<!-- Node6 -->
<g id="node6" class="node"><title>Node6</title>
<polygon fill="none" stroke="#bfbfbf" points="751.5,-0.5 751.5,-19.5 786.5,-19.5 786.5,-0.5 751.5,-0.5"/>
<text text-anchor="middle" x="769" y="-7.5" font-family="Helvetica,sans-Serif" font-size="10.00">map</text>
</g>
<!-- Node5&#45;&gt;Node6 -->
<g id="edge5" class="edge"><title>Node5&#45;&gt;Node6</title>
<path fill="none" stroke="midnightblue" d="M690.539,-184.945C668.576,-177.709 642.351,-164.899 629,-143 608.872,-109.985 606.223,-87.246 629,-56 654.537,-20.9681 707.792,-12.611 740.759,-10.9548"/>
<polygon fill="midnightblue" stroke="midnightblue" points="741.21,-14.4422 751.092,-10.6212 740.984,-7.4458 741.21,-14.4422"/>
</g>
<!-- Node7 -->
<g id="node7" class="node"><title>Node7</title>
<polygon fill="none" stroke="#bfbfbf" points="682,-62 682,-81 734,-81 734,-62 682,-62"/>
<text text-anchor="middle" x="708" y="-69" font-family="Helvetica,sans-Serif" font-size="10.00">memory</text>
</g>
<!-- Node5&#45;&gt;Node7 -->
<g id="edge6" class="edge"><title>Node5&#45;&gt;Node7</title>
<path fill="none" stroke="midnightblue" d="M720.815,-184.711C714.408,-175.022 704.809,-158.717 701,-143 696.84,-125.833 699.55,-105.741 702.732,-91.4076"/>
<polygon fill="midnightblue" stroke="midnightblue" points="706.226,-91.864 705.262,-81.3131 699.436,-90.1621 706.226,-91.864"/>
</g>
<!-- Node8 -->
<g id="node8" class="node"><title>Node8</title>
<polygon fill="none" stroke="#bfbfbf" points="836.5,-0.5 836.5,-19.5 877.5,-19.5 877.5,-0.5 836.5,-0.5"/>
<text text-anchor="middle" x="857" y="-7.5" font-family="Helvetica,sans-Serif" font-size="10.00">string</text>
</g>
<!-- Node5&#45;&gt;Node8 -->
<g id="edge7" class="edge"><title>Node5&#45;&gt;Node8</title>
<path fill="none" stroke="midnightblue" d="M718.22,-184.906C695.759,-161.887 640.222,-97.7606 673,-56 682.502,-43.8943 776.483,-25.4328 826.322,-16.3824"/>
<polygon fill="midnightblue" stroke="midnightblue" points="827.017,-19.8136 836.24,-14.5997 825.779,-12.924 827.017,-19.8136"/>
</g>
<!-- Node9 -->
<g id="node9" class="node"><title>Node9</title>
<polygon fill="none" stroke="#bfbfbf" points="586.5,-0.5 586.5,-19.5 669.5,-19.5 669.5,-0.5 586.5,-0.5"/>
<text text-anchor="middle" x="628" y="-7.5" font-family="Helvetica,sans-Serif" font-size="10.00">unordered_map</text>
</g>
<!-- Node5&#45;&gt;Node9 -->
<g id="edge8" class="edge"><title>Node5&#45;&gt;Node9</title>
<path fill="none" stroke="midnightblue" d="M682.435,-184.96C658.405,-177.916 630.563,-165.302 615,-143 591.035,-108.657 607.68,-56.4938 619.33,-29.1601"/>
<polygon fill="midnightblue" stroke="midnightblue" points="622.682,-30.2423 623.599,-19.6873 616.3,-27.3662 622.682,-30.2423"/>
</g>
<!-- Node10 -->
<g id="node10" class="node"><title>Node10</title>
<polygon fill="none" stroke="#bfbfbf" points="709.5,-123.5 709.5,-142.5 834.5,-142.5 834.5,-123.5 709.5,-123.5"/>
<text text-anchor="middle" x="772" y="-130.5" font-family="Helvetica,sans-Serif" font-size="10.00">Framework/InitContext.h</text>
</g>
<!-- Node5&#45;&gt;Node10 -->
<g id="edge9" class="edge"><title>Node5&#45;&gt;Node10</title>
<path fill="none" stroke="midnightblue" d="M733.447,-184.975C740.197,-176.05 750.969,-161.807 759.413,-150.643"/>
<polygon fill="midnightblue" stroke="midnightblue" points="762.324,-152.596 765.565,-142.509 756.741,-148.374 762.324,-152.596"/>
</g>
<!-- Node11 -->
<g id="node11" class="node"><title>Node11</title>
<polygon fill="none" stroke="#bfbfbf" points="853,-123.5 853,-142.5 1013,-142.5 1013,-123.5 853,-123.5"/>
<text text-anchor="middle" x="933" y="-130.5" font-family="Helvetica,sans-Serif" font-size="10.00">Framework/ProcessingContext.h</text>
</g>
<!-- Node5&#45;&gt;Node11 -->
<g id="edge10" class="edge"><title>Node5&#45;&gt;Node11</title>
<path fill="none" stroke="midnightblue" d="M756.515,-184.975C792.616,-174.548 853.848,-156.862 893.854,-145.307"/>
<polygon fill="midnightblue" stroke="midnightblue" points="894.904,-148.647 903.54,-142.509 892.961,-141.922 894.904,-148.647"/>
</g>
<!-- Node12 -->
<g id="node12" class="node"><title>Node12</title>
<g id="a_node12"><a xlink:href="Activity_8h.html" target="_top" xlink:title="QualityControl/Activity.h">
<polygon fill="none" stroke="black" points="1031.5,-123.5 1031.5,-142.5 1154.5,-142.5 1154.5,-123.5 1031.5,-123.5"/>
<text text-anchor="middle" x="1093" y="-130.5" font-family="Helvetica,sans-Serif" font-size="10.00">QualityControl/Activity.h</text>
</a>
</g>
</g>
<!-- Node5&#45;&gt;Node12 -->
<g id="edge11" class="edge"><title>Node5&#45;&gt;Node12</title>
<path fill="none" stroke="midnightblue" d="M775.842,-184.961C787.367,-182.976 799.613,-180.891 811,-179 885.512,-166.624 971.214,-153.041 1028.4,-144.07"/>
<polygon fill="midnightblue" stroke="midnightblue" points="1029.04,-147.512 1038.38,-142.506 1027.96,-140.597 1029.04,-147.512"/>
</g>
<!-- Node13 -->
<g id="node13" class="node"><title>Node13</title>
<g id="a_node13"><a xlink:href="ObjectsManager_8h.html" target="_top" xlink:title="QualityControl/ObjectsManager.h">
<polygon fill="none" stroke="black" points="1172.5,-123.5 1172.5,-142.5 1333.5,-142.5 1333.5,-123.5 1172.5,-123.5"/>
<text text-anchor="middle" x="1253" y="-130.5" font-family="Helvetica,sans-Serif" font-size="10.00">QualityControl/ObjectsManager.h</text>
</a>
</g>
</g>
<!-- Node5&#45;&gt;Node13 -->
<g id="edge12" class="edge"><title>Node5&#45;&gt;Node13</title>
<path fill="none" stroke="midnightblue" d="M773.124,-184.945C785.406,-182.829 798.684,-180.688 811,-179 815.319,-178.408 1034.13,-156.194 1162.22,-143.203"/>
<polygon fill="midnightblue" stroke="midnightblue" points="1162.82,-146.66 1172.42,-142.169 1162.12,-139.696 1162.82,-146.66"/>
</g>
<!-- Node13&#45;&gt;Node7 -->
<g id="edge26" class="edge"><title>Node13&#45;&gt;Node7</title>
<path fill="none" stroke="midnightblue" d="M1172.47,-123.805C1169.61,-123.531 1166.78,-123.261 1164,-123 979.674,-105.686 929.944,-126.178 749,-87 745.576,-86.2586 742.045,-85.3094 738.56,-84.2523"/>
<polygon fill="midnightblue" stroke="midnightblue" points="739.577,-80.902 728.983,-81.0698 737.369,-87.5448 739.577,-80.902"/>
</g>
<!-- Node13&#45;&gt;Node8 -->
<g id="edge25" class="edge"><title>Node13&#45;&gt;Node8</title>
<path fill="none" stroke="midnightblue" d="M1180.14,-123.471C1096.14,-113.301 966.908,-96.4916 946,-87 937.725,-83.2434 897.549,-47.6194 874.101,-26.5039"/>
<polygon fill="midnightblue" stroke="midnightblue" points="876.353,-23.8209 866.585,-19.7162 871.661,-29.016 876.353,-23.8209"/>
</g>
<!-- Node14 -->
<g id="node14" class="node"><title>Node14</title>
<g id="a_node14"><a xlink:href="MonitorObject_8h.html" target="_top" xlink:title="QualityControl/MonitorObject.h">
<polygon fill="none" stroke="black" points="954.5,-62 954.5,-81 1105.5,-81 1105.5,-62 954.5,-62"/>
<text text-anchor="middle" x="1030" y="-69" font-family="Helvetica,sans-Serif" font-size="10.00">QualityControl/MonitorObject.h</text>
</a>
</g>
</g>
<!-- Node13&#45;&gt;Node14 -->
<g id="edge13" class="edge"><title>Node13&#45;&gt;Node14</title>
<path fill="none" stroke="midnightblue" d="M1221.05,-123.475C1181.8,-113.004 1115.12,-95.2118 1071.83,-83.6601"/>
<polygon fill="midnightblue" stroke="midnightblue" points="1072.46,-80.2054 1061.89,-81.0091 1070.65,-86.9688 1072.46,-80.2054"/>
</g>
<!-- Node18 -->
<g id="node18" class="node"><title>Node18</title>
<g id="a_node18"><a xlink:href="MonitorObjectCollection_8h.html" target="_top" xlink:title="QualityControl/MonitorObject\lCollection.h">
<polygon fill="none" stroke="black" points="1181.5,-56.5 1181.5,-86.5 1324.5,-86.5 1324.5,-56.5 1181.5,-56.5"/>
<text text-anchor="start" x="1189.5" y="-74.5" font-family="Helvetica,sans-Serif" font-size="10.00">QualityControl/MonitorObject</text>
<text text-anchor="middle" x="1253" y="-63.5" font-family="Helvetica,sans-Serif" font-size="10.00">Collection.h</text>
</a>
</g>
</g>
<!-- Node13&#45;&gt;Node18 -->
<g id="edge19" class="edge"><title>Node13&#45;&gt;Node18</title>
<path fill="none" stroke="midnightblue" d="M1253,-123.475C1253,-116.471 1253,-106.192 1253,-96.6956"/>
<polygon fill="midnightblue" stroke="midnightblue" points="1256.5,-96.5229 1253,-86.523 1249.5,-96.523 1256.5,-96.5229"/>
</g>
<!-- Node21 -->
<g id="node21" class="node"><title>Node21</title>
<g id="a_node21"><a xlink:href="TaskConfig_8h.html" target="_top" xlink:title="QualityControl/TaskConfig.h">
<polygon fill="none" stroke="black" points="758,-62 758,-81 898,-81 898,-62 758,-62"/>
<text text-anchor="middle" x="828" y="-69" font-family="Helvetica,sans-Serif" font-size="10.00">QualityControl/TaskConfig.h</text>
</a>
</g>
</g>
<!-- Node13&#45;&gt;Node21 -->
<g id="edge22" class="edge"><title>Node13&#45;&gt;Node21</title>
<path fill="none" stroke="midnightblue" d="M1182.02,-123.467C1112.97,-114.969 1005.13,-101.177 912,-87 903.39,-85.6893 894.299,-84.2149 885.404,-82.7213"/>
<polygon fill="midnightblue" stroke="midnightblue" points="885.925,-79.2598 875.48,-81.0346 884.752,-86.1608 885.925,-79.2598"/>
</g>
<!-- Node14&#45;&gt;Node6 -->
<g id="edge15" class="edge"><title>Node14&#45;&gt;Node6</title>
<path fill="none" stroke="midnightblue" d="M992.605,-61.9751C939.532,-49.8761 843.591,-28.0045 796.534,-17.277"/>
<polygon fill="midnightblue" stroke="midnightblue" points="797.264,-13.8536 786.736,-15.0433 795.708,-20.6785 797.264,-13.8536"/>
</g>
<!-- Node14&#45;&gt;Node8 -->
<g id="edge14" class="edge"><title>Node14&#45;&gt;Node8</title>
<path fill="none" stroke="midnightblue" d="M1005.21,-61.9751C974.139,-51.2877 920.894,-32.975 887.395,-21.4536"/>
<polygon fill="midnightblue" stroke="midnightblue" points="888.273,-18.0547 877.679,-18.112 885.997,-24.6741 888.273,-18.0547"/>
</g>
<!-- Node15 -->
<g id="node15" class="node"><title>Node15</title>
<polygon fill="none" stroke="#bfbfbf" points="926,-0.5 926,-19.5 982,-19.5 982,-0.5 926,-0.5"/>
<text text-anchor="middle" x="954" y="-7.5" font-family="Helvetica,sans-Serif" font-size="10.00">Rtypes.h</text>
</g>
<!-- Node14&#45;&gt;Node15 -->
<g id="edge16" class="edge"><title>Node14&#45;&gt;Node15</title>
<path fill="none" stroke="midnightblue" d="M1019.11,-61.9751C1007.03,-52.5199 987.333,-37.0961 972.76,-25.6871"/>
<polygon fill="midnightblue" stroke="midnightblue" points="974.9,-22.9177 964.869,-19.5091 970.585,-28.4295 974.9,-22.9177"/>
</g>
<!-- Node16 -->
<g id="node16" class="node"><title>Node16</title>
<polygon fill="none" stroke="#bfbfbf" points="1000.5,-0.5 1000.5,-19.5 1059.5,-19.5 1059.5,-0.5 1000.5,-0.5"/>
<text text-anchor="middle" x="1030" y="-7.5" font-family="Helvetica,sans-Serif" font-size="10.00">TObject.h</text>
</g>
<!-- Node14&#45;&gt;Node16 -->
<g id="edge17" class="edge"><title>Node14&#45;&gt;Node16</title>
<path fill="none" stroke="midnightblue" d="M1030,-61.9751C1030,-53.5803 1030,-40.4806 1030,-29.6631"/>
<polygon fill="midnightblue" stroke="midnightblue" points="1033.5,-29.5091 1030,-19.5091 1026.5,-29.5091 1033.5,-29.5091"/>
</g>
<!-- Node17 -->
<g id="node17" class="node"><title>Node17</title>
<polygon fill="none" stroke="#bfbfbf" points="1078,-0.5 1078,-19.5 1194,-19.5 1194,-0.5 1078,-0.5"/>
<text text-anchor="middle" x="1136" y="-7.5" font-family="Helvetica,sans-Serif" font-size="10.00">Common/Exceptions.h</text>
</g>
<!-- Node14&#45;&gt;Node17 -->
<g id="edge18" class="edge"><title>Node14&#45;&gt;Node17</title>
<path fill="none" stroke="midnightblue" d="M1045.19,-61.9751C1062.66,-52.1664 1091.58,-35.9346 1112.08,-24.425"/>
<polygon fill="midnightblue" stroke="midnightblue" points="1113.83,-27.456 1120.84,-19.5091 1110.41,-21.3519 1113.83,-27.456"/>
</g>
<!-- Node19 -->
<g id="node19" class="node"><title>Node19</title>
<polygon fill="none" stroke="#bfbfbf" points="1215.5,-0.5 1215.5,-19.5 1284.5,-19.5 1284.5,-0.5 1215.5,-0.5"/>
<text text-anchor="middle" x="1250" y="-7.5" font-family="Helvetica,sans-Serif" font-size="10.00">TObjArray.h</text>
</g>
<!-- Node18&#45;&gt;Node19 -->
<g id="edge20" class="edge"><title>Node18&#45;&gt;Node19</title>
<path fill="none" stroke="midnightblue" d="M1252.29,-56.3993C1251.89,-48.4664 1251.38,-38.458 1250.95,-29.8583"/>
<polygon fill="midnightblue" stroke="midnightblue" points="1254.44,-29.4688 1250.44,-19.6578 1247.44,-29.8214 1254.44,-29.4688"/>
</g>
<!-- Node20 -->
<g id="node20" class="node"><title>Node20</title>
<polygon fill="none" stroke="#bfbfbf" points="1303,-0.5 1303,-19.5 1431,-19.5 1431,-0.5 1303,-0.5"/>
<text text-anchor="middle" x="1367" y="-7.5" font-family="Helvetica,sans-Serif" font-size="10.00">Mergers/MergeInterface.h</text>
</g>
<!-- Node18&#45;&gt;Node20 -->
<g id="edge21" class="edge"><title>Node18&#45;&gt;Node20</title>
<path fill="none" stroke="midnightblue" d="M1280.02,-56.3993C1298.63,-46.6837 1323.21,-33.8551 1341.49,-24.3137"/>
<polygon fill="midnightblue" stroke="midnightblue" points="1343.17,-27.3876 1350.41,-19.6578 1339.93,-21.182 1343.17,-27.3876"/>
</g>
<!-- Node21&#45;&gt;Node8 -->
<g id="edge23" class="edge"><title>Node21&#45;&gt;Node8</title>
<path fill="none" stroke="midnightblue" d="M832.155,-61.9751C836.376,-53.3152 843.037,-39.6486 848.4,-28.6453"/>
<polygon fill="midnightblue" stroke="midnightblue" points="851.618,-30.0317 852.853,-19.5091 845.325,-26.9648 851.618,-30.0317"/>
</g>
<!-- Node21&#45;&gt;Node9 -->
<g id="edge24" class="edge"><title>Node21&#45;&gt;Node9</title>
<path fill="none" stroke="midnightblue" d="M799.345,-61.9751C764.444,-51.592 705.35,-34.0116 666.5,-22.4538"/>
<polygon fill="midnightblue" stroke="midnightblue" points="667.185,-19.0059 656.602,-19.5091 665.189,-25.7153 667.185,-19.0059"/>
</g>
</g>
</svg>
        <g id="navigator" transform="translate(0 0)" fill="#404254">
                <rect fill="#f2f5e9" fill-opacity="0.5" stroke="#606060" stroke-width=".5" x="0" y="0" width="60" height="60"/>
                <use id="zoomplus" xlink:href="#zoomPlus" x="17" y="9" onmousedown="handleZoom(evt,'in')"/>
                <use id="zoomminus" xlink:href="#zoomMin" x="42" y="9" onmousedown="handleZoom(evt,'out')"/>
                <use id="reset" xlink:href="#resetDef" x="30" y="36" onmousedown="handleReset()"/>
                <g id="arrowUp" xlink:href="#dirArrow" transform="translate(30 24)" onmousedown="handlePan(0,-1)">
                  <use xlink:href="#rim" fill="#404040">
                        <set attributeName="fill" to="#808080" begin="arrowUp.mouseover" end="arrowUp.mouseout"/>
                  </use>
                  <path fill="none" stroke="white" stroke-width="1.5" d="M0,-3.0v7 M-2.5,-0.5L0,-3.0L2.5,-0.5"/>
                </g>
                <g id="arrowRight" xlink:href="#dirArrow" transform="rotate(90) translate(36 -43)" onmousedown="handlePan(1,0)">
                  <use xlink:href="#rim" fill="#404040">
                        <set attributeName="fill" to="#808080" begin="arrowRight.mouseover" end="arrowRight.mouseout"/>
                  </use>
                  <path fill="none" stroke="white" stroke-width="1.5" d="M0,-3.0v7 M-2.5,-0.5L0,-3.0L2.5,-0.5"/>
                </g>
                <g id="arrowDown" xlink:href="#dirArrow" transform="rotate(180) translate(-30 -48)" onmousedown="handlePan(0,1)">
                  <use xlink:href="#rim" fill="#404040">
                        <set attributeName="fill" to="#808080" begin="arrowDown.mouseover" end="arrowDown.mouseout"/>
                  </use>
                  <path fill="none" stroke="white" stroke-width="1.5" d="M0,-3.0v7 M-2.5,-0.5L0,-3.0L2.5,-0.5"/>
                </g>
                <g id="arrowLeft" xlink:href="#dirArrow" transform="rotate(270) translate(-36 17)" onmousedown="handlePan(-1,0)">
                  <use xlink:href="#rim" fill="#404040">
                        <set attributeName="fill" to="#808080" begin="arrowLeft.mouseover" end="arrowLeft.mouseout"/>
                  </use>
                  <path fill="none" stroke="white" stroke-width="1.5" d="M0,-3.0v7 M-2.5,-0.5L0,-3.0L2.5,-0.5"/>
                </g>
        </g>
        <svg viewBox="0 0 15 15" width="100%" height="30px" preserveAspectRatio="xMaxYMin meet">
         <g id="arrow_out" transform="scale(0.3 0.3)">
          <a xlink:href="ITSRawTask_8cxx__incl_org.svg" target="_base">
           <rect id="button" ry="5" rx="5" y="6" x="6" height="38" width="38"
                fill="#f2f5e9" fill-opacity="0.5" stroke="#606060" stroke-width="1.0"/>
           <path id="arrow"
             d="M 11.500037,31.436501 C 11.940474,20.09759 22.043105,11.32322 32.158766,21.979434 L 37.068811,17.246167 C 37.068811,17.246167 37.088388,32 37.088388,32 L 22.160133,31.978069 C 22.160133,31.978069 26.997745,27.140456 26.997745,27.140456 C 18.528582,18.264221 13.291696,25.230495 11.500037,31.436501 z"
             style="fill:#404040;"/>
          </a>
         </g>
        </svg>
</svg>
