<?xml version="1.0" encoding="UTF-8" standalone="no"?>
<!DOCTYPE svg PUBLIC "-//W3C//DTD SVG 1.1//EN"
 "http://www.w3.org/Graphics/SVG/1.1/DTD/svg11.dtd">
<!-- Generated by graphviz version 2.38.0 (20140413.2041)
 -->
<!-- Title: Modules/MUON/MCH/src/Mapping.cxx Pages: 1 -->
<svg width="1068pt" height="341pt"
 viewBox="0.00 0.00 1068.00 341.00" xmlns="http://www.w3.org/2000/svg" xmlns:xlink="http://www.w3.org/1999/xlink">
<g id="graph0" class="graph" transform="scale(1 1) rotate(0) translate(4 337)">
<title>Modules/MUON/MCH/src/Mapping.cxx</title>
<!-- Node1 -->
<g id="node1" class="node"><title>Node1</title>
<polygon fill="#bfbfbf" stroke="black" points="131,-302.5 131,-332.5 261,-332.5 261,-302.5 131,-302.5"/>
<text text-anchor="start" x="139" y="-320.5" font-family="Helvetica,sans-Serif" font-size="10.00">Modules/MUON/MCH/src</text>
<text text-anchor="middle" x="196" y="-309.5" font-family="Helvetica,sans-Serif" font-size="10.00">/Mapping.cxx</text>
</g>
<!-- Node2 -->
<g id="node2" class="node"><title>Node2</title>
<g id="a_node2"><a xlink:href="QcInfoLogger_8h.html" target="_top" xlink:title="QualityControl/QcInfoLogger.h">
<polygon fill="none" stroke="black" points="9.5,-246.5 9.5,-265.5 158.5,-265.5 158.5,-246.5 9.5,-246.5"/>
<text text-anchor="middle" x="84" y="-253.5" font-family="Helvetica,sans-Serif" font-size="10.00">QualityControl/QcInfoLogger.h</text>
</a>
</g>
</g>
<!-- Node1&#45;&gt;Node2 -->
<g id="edge1" class="edge"><title>Node1&#45;&gt;Node2</title>
<path fill="none" stroke="midnightblue" d="M169.458,-302.399C151.337,-292.773 127.464,-280.09 109.557,-270.577"/>
<polygon fill="midnightblue" stroke="midnightblue" points="110.77,-267.258 100.297,-265.658 107.486,-273.44 110.77,-267.258"/>
</g>
<!-- Node4 -->
<g id="node4" class="node"><title>Node4</title>
<g id="a_node4"><a xlink:href="Mapping_8h_source.html" target="_top" xlink:title="MCH/Mapping.h">
<polygon fill="none" stroke="black" points="224,-246.5 224,-265.5 312,-265.5 312,-246.5 224,-246.5"/>
<text text-anchor="middle" x="268" y="-253.5" font-family="Helvetica,sans-Serif" font-size="10.00">MCH/Mapping.h</text>
</a>
</g>
</g>
<!-- Node1&#45;&gt;Node4 -->
<g id="edge3" class="edge"><title>Node1&#45;&gt;Node4</title>
<path fill="none" stroke="midnightblue" d="M213.063,-302.399C224.065,-293.308 238.365,-281.49 249.618,-272.191"/>
<polygon fill="midnightblue" stroke="midnightblue" points="252.044,-274.726 257.523,-265.658 247.585,-269.33 252.044,-274.726"/>
</g>
<!-- Node5 -->
<g id="node5" class="node"><title>Node5</title>
<polygon fill="none" stroke="#bfbfbf" points="148.5,-179.5 148.5,-209.5 263.5,-209.5 263.5,-179.5 148.5,-179.5"/>
<text text-anchor="start" x="156.5" y="-197.5" font-family="Helvetica,sans-Serif" font-size="10.00">MCHMappingInterface</text>
<text text-anchor="middle" x="206" y="-186.5" font-family="Helvetica,sans-Serif" font-size="10.00">/Segmentation.h</text>
</g>
<!-- Node1&#45;&gt;Node5 -->
<g id="edge28" class="edge"><title>Node1&#45;&gt;Node5</title>
<path fill="none" stroke="midnightblue" d="M197.186,-302.145C198.863,-281.859 201.948,-244.533 203.987,-219.862"/>
<polygon fill="midnightblue" stroke="midnightblue" points="207.48,-220.091 204.815,-209.837 200.503,-219.514 207.48,-220.091"/>
</g>
<!-- Node3 -->
<g id="node3" class="node"><title>Node3</title>
<polygon fill="none" stroke="#bfbfbf" points="0,-185 0,-204 130,-204 130,-185 0,-185"/>
<text text-anchor="middle" x="65" y="-192" font-family="Helvetica,sans-Serif" font-size="10.00">InfoLogger/InfoLogger.hxx</text>
</g>
<!-- Node2&#45;&gt;Node3 -->
<g id="edge2" class="edge"><title>Node2&#45;&gt;Node3</title>
<path fill="none" stroke="midnightblue" d="M81.2778,-246.475C78.5688,-237.992 74.3257,-224.704 70.8508,-213.822"/>
<polygon fill="midnightblue" stroke="midnightblue" points="74.0933,-212.47 67.7172,-204.009 67.4251,-214.6 74.0933,-212.47"/>
</g>
<!-- Node4&#45;&gt;Node5 -->
<g id="edge4" class="edge"><title>Node4&#45;&gt;Node5</title>
<path fill="none" stroke="midnightblue" d="M259.117,-246.475C251.034,-238.718 238.765,-226.943 228.054,-216.665"/>
<polygon fill="midnightblue" stroke="midnightblue" points="230.251,-213.922 220.612,-209.523 225.404,-218.972 230.251,-213.922"/>
</g>
<!-- Node6 -->
<g id="node6" class="node"><title>Node6</title>
<g id="a_node6"><a xlink:href="TaskInterface_8h.html" target="_top" xlink:title="QualityControl/TaskInterface.h">
<polygon fill="none" stroke="black" points="281,-185 281,-204 431,-204 431,-185 281,-185"/>
<text text-anchor="middle" x="356" y="-192" font-family="Helvetica,sans-Serif" font-size="10.00">QualityControl/TaskInterface.h</text>
</a>
</g>
</g>
<!-- Node4&#45;&gt;Node6 -->
<g id="edge5" class="edge"><title>Node4&#45;&gt;Node6</title>
<path fill="none" stroke="midnightblue" d="M280.608,-246.475C294.723,-236.931 317.831,-221.307 334.749,-209.868"/>
<polygon fill="midnightblue" stroke="midnightblue" points="337.091,-212.51 343.415,-204.009 333.171,-206.711 337.091,-212.51"/>
</g>
<!-- Node7 -->
<g id="node7" class="node"><title>Node7</title>
<polygon fill="none" stroke="#bfbfbf" points="380.5,-0.5 380.5,-19.5 415.5,-19.5 415.5,-0.5 380.5,-0.5"/>
<text text-anchor="middle" x="398" y="-7.5" font-family="Helvetica,sans-Serif" font-size="10.00">map</text>
</g>
<!-- Node6&#45;&gt;Node7 -->
<g id="edge6" class="edge"><title>Node6&#45;&gt;Node7</title>
<path fill="none" stroke="midnightblue" d="M319.539,-184.945C297.576,-177.709 271.351,-164.899 258,-143 237.872,-109.985 235.223,-87.246 258,-56 283.537,-20.9681 336.792,-12.611 369.759,-10.9548"/>
<polygon fill="midnightblue" stroke="midnightblue" points="370.21,-14.4422 380.092,-10.6212 369.984,-7.4458 370.21,-14.4422"/>
</g>
<!-- Node8 -->
<g id="node8" class="node"><title>Node8</title>
<polygon fill="none" stroke="#bfbfbf" points="311,-62 311,-81 363,-81 363,-62 311,-62"/>
<text text-anchor="middle" x="337" y="-69" font-family="Helvetica,sans-Serif" font-size="10.00">memory</text>
</g>
<!-- Node6&#45;&gt;Node8 -->
<g id="edge7" class="edge"><title>Node6&#45;&gt;Node8</title>
<path fill="none" stroke="midnightblue" d="M349.58,-184.749C342.929,-175.093 332.963,-158.816 329,-143 324.658,-125.67 327.804,-105.349 331.346,-90.9876"/>
<polygon fill="midnightblue" stroke="midnightblue" points="334.729,-91.8862 334.015,-81.3154 327.981,-90.024 334.729,-91.8862"/>
</g>
<!-- Node9 -->
<g id="node9" class="node"><title>Node9</title>
<polygon fill="none" stroke="#bfbfbf" points="465.5,-0.5 465.5,-19.5 506.5,-19.5 506.5,-0.5 465.5,-0.5"/>
<text text-anchor="middle" x="486" y="-7.5" font-family="Helvetica,sans-Serif" font-size="10.00">string</text>
</g>
<!-- Node6&#45;&gt;Node9 -->
<g id="edge8" class="edge"><title>Node6&#45;&gt;Node9</title>
<path fill="none" stroke="midnightblue" d="M347.22,-184.906C324.759,-161.887 269.222,-97.7606 302,-56 311.502,-43.8943 405.483,-25.4328 455.322,-16.3824"/>
<polygon fill="midnightblue" stroke="midnightblue" points="456.017,-19.8136 465.24,-14.5997 454.779,-12.924 456.017,-19.8136"/>
</g>
<!-- Node10 -->
<g id="node10" class="node"><title>Node10</title>
<polygon fill="none" stroke="#bfbfbf" points="215.5,-0.5 215.5,-19.5 298.5,-19.5 298.5,-0.5 215.5,-0.5"/>
<text text-anchor="middle" x="257" y="-7.5" font-family="Helvetica,sans-Serif" font-size="10.00">unordered_map</text>
</g>
<!-- Node6&#45;&gt;Node10 -->
<g id="edge9" class="edge"><title>Node6&#45;&gt;Node10</title>
<path fill="none" stroke="midnightblue" d="M311.435,-184.96C287.405,-177.916 259.563,-165.302 244,-143 220.035,-108.657 236.68,-56.4938 248.33,-29.1601"/>
<polygon fill="midnightblue" stroke="midnightblue" points="251.682,-30.2423 252.599,-19.6873 245.3,-27.3662 251.682,-30.2423"/>
</g>
<!-- Node11 -->
<g id="node11" class="node"><title>Node11</title>
<polygon fill="none" stroke="#bfbfbf" points="338.5,-123.5 338.5,-142.5 463.5,-142.5 463.5,-123.5 338.5,-123.5"/>
<text text-anchor="middle" x="401" y="-130.5" font-family="Helvetica,sans-Serif" font-size="10.00">Framework/InitContext.h</text>
</g>
<!-- Node6&#45;&gt;Node11 -->
<g id="edge10" class="edge"><title>Node6&#45;&gt;Node11</title>
<path fill="none" stroke="midnightblue" d="M362.447,-184.975C369.197,-176.05 379.969,-161.807 388.413,-150.643"/>
<polygon fill="midnightblue" stroke="midnightblue" points="391.324,-152.596 394.565,-142.509 385.741,-148.374 391.324,-152.596"/>
</g>
<!-- Node12 -->
<g id="node12" class="node"><title>Node12</title>
<polygon fill="none" stroke="#bfbfbf" points="482,-123.5 482,-142.5 642,-142.5 642,-123.5 482,-123.5"/>
<text text-anchor="middle" x="562" y="-130.5" font-family="Helvetica,sans-Serif" font-size="10.00">Framework/ProcessingContext.h</text>
</g>
<!-- Node6&#45;&gt;Node12 -->
<g id="edge11" class="edge"><title>Node6&#45;&gt;Node12</title>
<path fill="none" stroke="midnightblue" d="M385.515,-184.975C421.616,-174.548 482.848,-156.862 522.854,-145.307"/>
<polygon fill="midnightblue" stroke="midnightblue" points="523.904,-148.647 532.54,-142.509 521.961,-141.922 523.904,-148.647"/>
</g>
<!-- Node13 -->
<g id="node13" class="node"><title>Node13</title>
<g id="a_node13"><a xlink:href="Activity_8h.html" target="_top" xlink:title="QualityControl/Activity.h">
<polygon fill="none" stroke="black" points="660.5,-123.5 660.5,-142.5 783.5,-142.5 783.5,-123.5 660.5,-123.5"/>
<text text-anchor="middle" x="722" y="-130.5" font-family="Helvetica,sans-Serif" font-size="10.00">QualityControl/Activity.h</text>
</a>
</g>
</g>
<!-- Node6&#45;&gt;Node13 -->
<g id="edge12" class="edge"><title>Node6&#45;&gt;Node13</title>
<path fill="none" stroke="midnightblue" d="M408.439,-184.975C474.754,-174.194 588.798,-155.654 659.545,-144.153"/>
<polygon fill="midnightblue" stroke="midnightblue" points="660.35,-147.568 669.658,-142.509 659.226,-140.659 660.35,-147.568"/>
</g>
<!-- Node14 -->
<g id="node14" class="node"><title>Node14</title>
<g id="a_node14"><a xlink:href="ObjectsManager_8h.html" target="_top" xlink:title="QualityControl/ObjectsManager.h">
<polygon fill="none" stroke="black" points="801.5,-123.5 801.5,-142.5 962.5,-142.5 962.5,-123.5 801.5,-123.5"/>
<text text-anchor="middle" x="882" y="-130.5" font-family="Helvetica,sans-Serif" font-size="10.00">QualityControl/ObjectsManager.h</text>
</a>
</g>
</g>
<!-- Node6&#45;&gt;Node14 -->
<g id="edge13" class="edge"><title>Node6&#45;&gt;Node14</title>
<path fill="none" stroke="midnightblue" d="M431.083,-185.007C527.682,-174.08 695.078,-155.144 796.481,-143.674"/>
<polygon fill="midnightblue" stroke="midnightblue" points="797.146,-147.121 806.689,-142.519 796.359,-140.165 797.146,-147.121"/>
</g>
<!-- Node14&#45;&gt;Node8 -->
<g id="edge27" class="edge"><title>Node14&#45;&gt;Node8</title>
<path fill="none" stroke="midnightblue" d="M801.475,-123.805C798.615,-123.531 795.783,-123.261 793,-123 608.674,-105.686 558.944,-126.178 378,-87 374.576,-86.2586 371.045,-85.3094 367.56,-84.2523"/>
<polygon fill="midnightblue" stroke="midnightblue" points="368.577,-80.902 357.983,-81.0698 366.369,-87.5448 368.577,-80.902"/>
</g>
<!-- Node14&#45;&gt;Node9 -->
<g id="edge26" class="edge"><title>Node14&#45;&gt;Node9</title>
<path fill="none" stroke="midnightblue" d="M808.891,-123.499C724.616,-113.357 594.95,-96.5756 574,-87 569.856,-85.1057 527.769,-48.0657 503.332,-26.4071"/>
<polygon fill="midnightblue" stroke="midnightblue" points="505.604,-23.7443 495.802,-19.7247 500.958,-28.98 505.604,-23.7443"/>
</g>
<!-- Node15 -->
<g id="node15" class="node"><title>Node15</title>
<g id="a_node15"><a xlink:href="MonitorObject_8h.html" target="_top" xlink:title="QualityControl/MonitorObject.h">
<polygon fill="none" stroke="black" points="583.5,-62 583.5,-81 734.5,-81 734.5,-62 583.5,-62"/>
<text text-anchor="middle" x="659" y="-69" font-family="Helvetica,sans-Serif" font-size="10.00">QualityControl/MonitorObject.h</text>
</a>
</g>
</g>
<!-- Node14&#45;&gt;Node15 -->
<g id="edge14" class="edge"><title>Node14&#45;&gt;Node15</title>
<path fill="none" stroke="midnightblue" d="M850.05,-123.475C810.804,-113.004 744.122,-95.2118 700.827,-83.6601"/>
<polygon fill="midnightblue" stroke="midnightblue" points="701.456,-80.2054 690.891,-81.0091 699.651,-86.9688 701.456,-80.2054"/>
</g>
<!-- Node19 -->
<g id="node19" class="node"><title>Node19</title>
<g id="a_node19"><a xlink:href="MonitorObjectCollection_8h.html" target="_top" xlink:title="QualityControl/MonitorObject\lCollection.h">
<polygon fill="none" stroke="black" points="810.5,-56.5 810.5,-86.5 953.5,-86.5 953.5,-56.5 810.5,-56.5"/>
<text text-anchor="start" x="818.5" y="-74.5" font-family="Helvetica,sans-Serif" font-size="10.00">QualityControl/MonitorObject</text>
<text text-anchor="middle" x="882" y="-63.5" font-family="Helvetica,sans-Serif" font-size="10.00">Collection.h</text>
</a>
</g>
</g>
<!-- Node14&#45;&gt;Node19 -->
<g id="edge20" class="edge"><title>Node14&#45;&gt;Node19</title>
<path fill="none" stroke="midnightblue" d="M882,-123.475C882,-116.471 882,-106.192 882,-96.6956"/>
<polygon fill="midnightblue" stroke="midnightblue" points="885.5,-96.5229 882,-86.523 878.5,-96.523 885.5,-96.5229"/>
</g>
<!-- Node22 -->
<g id="node22" class="node"><title>Node22</title>
<g id="a_node22"><a xlink:href="TaskConfig_8h.html" target="_top" xlink:title="QualityControl/TaskConfig.h">
<polygon fill="none" stroke="black" points="387,-62 387,-81 527,-81 527,-62 387,-62"/>
<text text-anchor="middle" x="457" y="-69" font-family="Helvetica,sans-Serif" font-size="10.00">QualityControl/TaskConfig.h</text>
</a>
</g>
</g>
<!-- Node14&#45;&gt;Node22 -->
<g id="edge23" class="edge"><title>Node14&#45;&gt;Node22</title>
<path fill="none" stroke="midnightblue" d="M811.023,-123.467C741.965,-114.969 634.127,-101.177 541,-87 532.39,-85.6893 523.299,-84.2149 514.404,-82.7213"/>
<polygon fill="midnightblue" stroke="midnightblue" points="514.925,-79.2598 504.48,-81.0346 513.752,-86.1608 514.925,-79.2598"/>
</g>
<!-- Node15&#45;&gt;Node7 -->
<g id="edge16" class="edge"><title>Node15&#45;&gt;Node7</title>
<path fill="none" stroke="midnightblue" d="M621.605,-61.9751C568.532,-49.8761 472.591,-28.0045 425.534,-17.277"/>
<polygon fill="midnightblue" stroke="midnightblue" points="426.264,-13.8536 415.736,-15.0433 424.708,-20.6785 426.264,-13.8536"/>
</g>
<!-- Node15&#45;&gt;Node9 -->
<g id="edge15" class="edge"><title>Node15&#45;&gt;Node9</title>
<path fill="none" stroke="midnightblue" d="M634.213,-61.9751C603.139,-51.2877 549.894,-32.975 516.395,-21.4536"/>
<polygon fill="midnightblue" stroke="midnightblue" points="517.273,-18.0547 506.679,-18.112 514.997,-24.6741 517.273,-18.0547"/>
</g>
<!-- Node16 -->
<g id="node16" class="node"><title>Node16</title>
<polygon fill="none" stroke="#bfbfbf" points="555,-0.5 555,-19.5 611,-19.5 611,-0.5 555,-0.5"/>
<text text-anchor="middle" x="583" y="-7.5" font-family="Helvetica,sans-Serif" font-size="10.00">Rtypes.h</text>
</g>
<!-- Node15&#45;&gt;Node16 -->
<g id="edge17" class="edge"><title>Node15&#45;&gt;Node16</title>
<path fill="none" stroke="midnightblue" d="M648.111,-61.9751C636.034,-52.5199 616.333,-37.0961 601.76,-25.6871"/>
<polygon fill="midnightblue" stroke="midnightblue" points="603.9,-22.9177 593.869,-19.5091 599.585,-28.4295 603.9,-22.9177"/>
</g>
<!-- Node17 -->
<g id="node17" class="node"><title>Node17</title>
<polygon fill="none" stroke="#bfbfbf" points="629.5,-0.5 629.5,-19.5 688.5,-19.5 688.5,-0.5 629.5,-0.5"/>
<text text-anchor="middle" x="659" y="-7.5" font-family="Helvetica,sans-Serif" font-size="10.00">TObject.h</text>
</g>
<!-- Node15&#45;&gt;Node17 -->
<g id="edge18" class="edge"><title>Node15&#45;&gt;Node17</title>
<path fill="none" stroke="midnightblue" d="M659,-61.9751C659,-53.5803 659,-40.4806 659,-29.6631"/>
<polygon fill="midnightblue" stroke="midnightblue" points="662.5,-29.5091 659,-19.5091 655.5,-29.5091 662.5,-29.5091"/>
</g>
<!-- Node18 -->
<g id="node18" class="node"><title>Node18</title>
<polygon fill="none" stroke="#bfbfbf" points="707,-0.5 707,-19.5 823,-19.5 823,-0.5 707,-0.5"/>
<text text-anchor="middle" x="765" y="-7.5" font-family="Helvetica,sans-Serif" font-size="10.00">Common/Exceptions.h</text>
</g>
<!-- Node15&#45;&gt;Node18 -->
<g id="edge19" class="edge"><title>Node15&#45;&gt;Node18</title>
<path fill="none" stroke="midnightblue" d="M674.187,-61.9751C691.662,-52.1664 720.579,-35.9346 741.083,-24.425"/>
<polygon fill="midnightblue" stroke="midnightblue" points="742.834,-27.456 749.841,-19.5091 739.408,-21.3519 742.834,-27.456"/>
</g>
<!-- Node20 -->
<g id="node20" class="node"><title>Node20</title>
<polygon fill="none" stroke="#bfbfbf" points="844.5,-0.5 844.5,-19.5 913.5,-19.5 913.5,-0.5 844.5,-0.5"/>
<text text-anchor="middle" x="879" y="-7.5" font-family="Helvetica,sans-Serif" font-size="10.00">TObjArray.h</text>
</g>
<!-- Node19&#45;&gt;Node20 -->
<g id="edge21" class="edge"><title>Node19&#45;&gt;Node20</title>
<path fill="none" stroke="midnightblue" d="M881.289,-56.3993C880.889,-48.4664 880.384,-38.458 879.951,-29.8583"/>
<polygon fill="midnightblue" stroke="midnightblue" points="883.436,-29.4688 879.437,-19.6578 876.445,-29.8214 883.436,-29.4688"/>
</g>
<!-- Node21 -->
<g id="node21" class="node"><title>Node21</title>
<polygon fill="none" stroke="#bfbfbf" points="932,-0.5 932,-19.5 1060,-19.5 1060,-0.5 932,-0.5"/>
<text text-anchor="middle" x="996" y="-7.5" font-family="Helvetica,sans-Serif" font-size="10.00">Mergers/MergeInterface.h</text>
</g>
<!-- Node19&#45;&gt;Node21 -->
<g id="edge22" class="edge"><title>Node19&#45;&gt;Node21</title>
<path fill="none" stroke="midnightblue" d="M909.016,-56.3993C927.631,-46.6837 952.21,-33.8551 970.491,-24.3137"/>
<polygon fill="midnightblue" stroke="midnightblue" points="972.166,-27.3876 979.412,-19.6578 968.927,-21.182 972.166,-27.3876"/>
</g>
<!-- Node22&#45;&gt;Node9 -->
<g id="edge24" class="edge"><title>Node22&#45;&gt;Node9</title>
<path fill="none" stroke="midnightblue" d="M461.155,-61.9751C465.376,-53.3152 472.037,-39.6486 477.4,-28.6453"/>
<polygon fill="midnightblue" stroke="midnightblue" points="480.618,-30.0317 481.853,-19.5091 474.325,-26.9648 480.618,-30.0317"/>
</g>
<!-- Node22&#45;&gt;Node10 -->
<g id="edge25" class="edge"><title>Node22&#45;&gt;Node10</title>
<path fill="none" stroke="midnightblue" d="M428.345,-61.9751C393.444,-51.592 334.35,-34.0116 295.5,-22.4538"/>
<polygon fill="midnightblue" stroke="midnightblue" points="296.185,-19.0059 285.602,-19.5091 294.189,-25.7153 296.185,-19.0059"/>
</g>
</g>
</svg>
