<?xml version="1.0" encoding="UTF-8" standalone="no"?>
<!DOCTYPE svg PUBLIC "-//W3C//DTD SVG 1.1//EN"
 "http://www.w3.org/Graphics/SVG/1.1/DTD/svg11.dtd">
<!-- Generated by graphviz version 2.38.0 (20140413.2041)
 -->
<!-- Title: Modules/Common/src/MeanIsAbove.cxx Pages: 1 -->
<!--zoomable 263 -->
<svg id="main" version="1.1" xmlns="http://www.w3.org/2000/svg" xmlns:xlink="http://www.w3.org/1999/xlink" xml:space="preserve" onload="init(evt)">
<style type="text/css"><![CDATA[
.edge:hover path { stroke: red; }
.edge:hover polygon { stroke: red; fill: red; }
]]></style>
<script type="text/javascript"><![CDATA[
var edges = document.getElementsByTagName('g');
if (edges && edges.length) {
  for (var i=0;i<edges.length;i++) {
    if (edges[i].id.substr(0,4)=='edge') {
      edges[i].setAttribute('class','edge');
    }
  }
}
]]></script>
        <defs>
                <circle id="rim" cx="0" cy="0" r="7"/>
                <circle id="rim2" cx="0" cy="0" r="3.5"/>
                <g id="zoomPlus">
                        <use xlink:href="#rim" fill="#404040">
                                <set attributeName="fill" to="#808080" begin="zoomplus.mouseover" end="zoomplus.mouseout"/>
                        </use>
                        <path d="M-4,0h8M0,-4v8" fill="none" stroke="white" stroke-width="1.5" pointer-events="none"/>
                </g>
                <g id="zoomMin">
                        <use xlink:href="#rim" fill="#404040">
                                <set attributeName="fill" to="#808080" begin="zoomminus.mouseover" end="zoomminus.mouseout"/>
                        </use>
                        <path d="M-4,0h8" fill="none" stroke="white" stroke-width="1.5" pointer-events="none"/>
                </g>
                <g id="dirArrow">
                        <path fill="none" stroke="white" stroke-width="1.5" d="M0,-3.0v7 M-2.5,-0.5L0,-3.0L2.5,-0.5"/>
                </g>
               <g id="resetDef">
                       <use xlink:href="#rim2" fill="#404040">
                               <set attributeName="fill" to="#808080" begin="reset.mouseover" end="reset.mouseout"/>
                       </use>
               </g>
        </defs>

<script type="text/javascript">
var viewWidth = 881;
var viewHeight = 263;
var sectionId = 'dynsection-0';
</script>
<script xlink:href="svgpan.js"/>
<svg id="graph" class="graph">
<g id="viewport">
<title>Modules/Common/src/MeanIsAbove.cxx</title>
<!-- Node1 -->
<g id="node1" class="node"><title>Node1</title>
<polygon fill="#bfbfbf" stroke="black" points="461,-224.5 461,-254.5 574,-254.5 574,-224.5 461,-224.5"/>
<text text-anchor="start" x="469" y="-242.5" font-family="Helvetica,sans-Serif" font-size="10.00">Modules/Common/src</text>
<text text-anchor="middle" x="517.5" y="-231.5" font-family="Helvetica,sans-Serif" font-size="10.00">/MeanIsAbove.cxx</text>
</g>
<!-- Node2 -->
<g id="node2" class="node"><title>Node2</title>
<g id="a_node2"><a xlink:href="MeanIsAbove_8h.html" target="_top" xlink:title="Common/MeanIsAbove.h">
<polygon fill="none" stroke="black" points="263.5,-168.5 263.5,-187.5 391.5,-187.5 391.5,-168.5 263.5,-168.5"/>
<text text-anchor="middle" x="327.5" y="-175.5" font-family="Helvetica,sans-Serif" font-size="10.00">Common/MeanIsAbove.h</text>
</a>
</g>
</g>
<!-- Node1&#45;&gt;Node2 -->
<g id="edge1" class="edge"><title>Node1&#45;&gt;Node2</title>
<path fill="none" stroke="midnightblue" d="M472.473,-224.399C439.641,-214.118 395.679,-200.351 364.803,-190.682"/>
<polygon fill="midnightblue" stroke="midnightblue" points="365.458,-187.219 354.869,-187.571 363.366,-193.9 365.458,-187.219"/>
</g>
<!-- Node8 -->
<g id="node8" class="node"><title>Node8</title>
<g id="a_node8"><a xlink:href="MonitorObject_8h.html" target="_top" xlink:title="QualityControl/MonitorObject.h">
<polygon fill="none" stroke="black" points="140,-56.5 140,-75.5 291,-75.5 291,-56.5 140,-56.5"/>
<text text-anchor="middle" x="215.5" y="-63.5" font-family="Helvetica,sans-Serif" font-size="10.00">QualityControl/MonitorObject.h</text>
</a>
</g>
</g>
<!-- Node1&#45;&gt;Node8 -->
<g id="edge20" class="edge"><title>Node1&#45;&gt;Node8</title>
<path fill="none" stroke="midnightblue" d="M460.774,-233.98C393.094,-227.521 285.215,-213.51 254.5,-188 223.896,-162.582 217.054,-112.971 215.684,-85.8366"/>
<polygon fill="midnightblue" stroke="midnightblue" points="219.179,-85.6098 215.379,-75.7199 212.182,-85.8209 219.179,-85.6098"/>
</g>
<!-- Node11 -->
<g id="node11" class="node"><title>Node11</title>
<g id="a_node11"><a xlink:href="Quality_8h.html" target="_top" xlink:title="QualityControl/Quality.h">
<polygon fill="none" stroke="black" points="386,-56.5 386,-75.5 507,-75.5 507,-56.5 386,-56.5"/>
<text text-anchor="middle" x="446.5" y="-63.5" font-family="Helvetica,sans-Serif" font-size="10.00">QualityControl/Quality.h</text>
</a>
</g>
</g>
<!-- Node1&#45;&gt;Node11 -->
<g id="edge21" class="edge"><title>Node1&#45;&gt;Node11</title>
<path fill="none" stroke="midnightblue" d="M485.353,-224.336C470.675,-216.034 454.753,-203.997 446.5,-188 429.546,-155.135 435.909,-110.253 441.538,-85.4212"/>
<polygon fill="midnightblue" stroke="midnightblue" points="444.979,-86.0865 443.986,-75.5383 438.184,-84.4032 444.979,-86.0865"/>
</g>
<!-- Node12 -->
<g id="node12" class="node"><title>Node12</title>
<polygon fill="none" stroke="#bfbfbf" points="455.5,-168.5 455.5,-187.5 511.5,-187.5 511.5,-168.5 455.5,-168.5"/>
<text text-anchor="middle" x="483.5" y="-175.5" font-family="Helvetica,sans-Serif" font-size="10.00">TClass.h</text>
</g>
<!-- Node1&#45;&gt;Node12 -->
<g id="edge16" class="edge"><title>Node1&#45;&gt;Node12</title>
<path fill="none" stroke="midnightblue" d="M509.442,-224.399C504.655,-216.021 498.544,-205.327 493.456,-196.423"/>
<polygon fill="midnightblue" stroke="midnightblue" points="496.448,-194.604 488.447,-187.658 490.37,-198.077 496.448,-194.604"/>
</g>
<!-- Node13 -->
<g id="node13" class="node"><title>Node13</title>
<polygon fill="none" stroke="#bfbfbf" points="529.5,-168.5 529.5,-187.5 573.5,-187.5 573.5,-168.5 529.5,-168.5"/>
<text text-anchor="middle" x="551.5" y="-175.5" font-family="Helvetica,sans-Serif" font-size="10.00">TH1.h</text>
</g>
<!-- Node1&#45;&gt;Node13 -->
<g id="edge17" class="edge"><title>Node1&#45;&gt;Node13</title>
<path fill="none" stroke="midnightblue" d="M525.558,-224.399C530.345,-216.021 536.456,-205.327 541.544,-196.423"/>
<polygon fill="midnightblue" stroke="midnightblue" points="544.63,-198.077 546.553,-187.658 538.552,-194.604 544.63,-198.077"/>
</g>
<!-- Node14 -->
<g id="node14" class="node"><title>Node14</title>
<polygon fill="none" stroke="#bfbfbf" points="592,-168.5 592,-187.5 641,-187.5 641,-168.5 592,-168.5"/>
<text text-anchor="middle" x="616.5" y="-175.5" font-family="Helvetica,sans-Serif" font-size="10.00">TLine.h</text>
</g>
<!-- Node1&#45;&gt;Node14 -->
<g id="edge18" class="edge"><title>Node1&#45;&gt;Node14</title>
<path fill="none" stroke="midnightblue" d="M540.962,-224.399C556.831,-214.862 577.691,-202.325 593.468,-192.842"/>
<polygon fill="midnightblue" stroke="midnightblue" points="595.326,-195.809 602.095,-187.658 591.721,-189.809 595.326,-195.809"/>
</g>
<!-- Node15 -->
<g id="node15" class="node"><title>Node15</title>
<polygon fill="none" stroke="#bfbfbf" points="659,-168.5 659,-187.5 706,-187.5 706,-168.5 659,-168.5"/>
<text text-anchor="middle" x="682.5" y="-175.5" font-family="Helvetica,sans-Serif" font-size="10.00">TList.h</text>
</g>
<!-- Node1&#45;&gt;Node15 -->
<g id="edge19" class="edge"><title>Node1&#45;&gt;Node15</title>
<path fill="none" stroke="midnightblue" d="M556.603,-224.399C584.827,-214.222 622.524,-200.628 649.291,-190.975"/>
<polygon fill="midnightblue" stroke="midnightblue" points="650.752,-194.169 658.972,-187.484 648.377,-187.584 650.752,-194.169"/>
</g>
<!-- Node16 -->
<g id="node16" class="node"><title>Node16</title>
<g id="a_node16"><a xlink:href="QcInfoLogger_8h.html" target="_top" xlink:title="QualityControl/QcInfoLogger.h">
<polygon fill="none" stroke="black" points="724,-168.5 724,-187.5 873,-187.5 873,-168.5 724,-168.5"/>
<text text-anchor="middle" x="798.5" y="-175.5" font-family="Helvetica,sans-Serif" font-size="10.00">QualityControl/QcInfoLogger.h</text>
</a>
</g>
</g>
<!-- Node1&#45;&gt;Node16 -->
<g id="edge22" class="edge"><title>Node1&#45;&gt;Node16</title>
<path fill="none" stroke="midnightblue" d="M574.027,-226.531C624.899,-215.759 698.971,-200.075 747.923,-189.709"/>
<polygon fill="midnightblue" stroke="midnightblue" points="748.913,-193.077 757.971,-187.582 747.463,-186.229 748.913,-193.077"/>
</g>
<!-- Node3 -->
<g id="node3" class="node"><title>Node3</title>
<g id="a_node3"><a xlink:href="CheckInterface_8h.html" target="_top" xlink:title="QualityControl/CheckInterface.h">
<polygon fill="none" stroke="black" points="242,-112.5 242,-131.5 399,-131.5 399,-112.5 242,-112.5"/>
<text text-anchor="middle" x="320.5" y="-119.5" font-family="Helvetica,sans-Serif" font-size="10.00">QualityControl/CheckInterface.h</text>
</a>
</g>
</g>
<!-- Node2&#45;&gt;Node3 -->
<g id="edge2" class="edge"><title>Node2&#45;&gt;Node3</title>
<path fill="none" stroke="midnightblue" d="M326.344,-168.083C325.416,-160.927 324.082,-150.635 322.923,-141.691"/>
<polygon fill="midnightblue" stroke="midnightblue" points="326.391,-141.218 321.634,-131.751 319.449,-142.118 326.391,-141.218"/>
</g>
<!-- Node4 -->
<g id="node4" class="node"><title>Node4</title>
<polygon fill="none" stroke="#bfbfbf" points="396,-0.5 396,-19.5 437,-19.5 437,-0.5 396,-0.5"/>
<text text-anchor="middle" x="416.5" y="-7.5" font-family="Helvetica,sans-Serif" font-size="10.00">string</text>
</g>
<!-- Node3&#45;&gt;Node4 -->
<g id="edge3" class="edge"><title>Node3&#45;&gt;Node4</title>
<path fill="none" stroke="midnightblue" d="M328.065,-112.131C338.786,-99.5832 359.039,-75.9522 376.5,-56 384.864,-46.4428 394.299,-35.821 401.904,-27.298"/>
<polygon fill="midnightblue" stroke="midnightblue" points="404.737,-29.38 408.792,-19.5917 399.518,-24.7151 404.737,-29.38"/>
</g>
<!-- Node5 -->
<g id="node5" class="node"><title>Node5</title>
<polygon fill="none" stroke="#bfbfbf" points="57,-0.5 57,-19.5 92,-19.5 92,-0.5 57,-0.5"/>
<text text-anchor="middle" x="74.5" y="-7.5" font-family="Helvetica,sans-Serif" font-size="10.00">map</text>
</g>
<!-- Node3&#45;&gt;Node5 -->
<g id="edge4" class="edge"><title>Node3&#45;&gt;Node5</title>
<path fill="none" stroke="midnightblue" d="M241.862,-113.589C205.901,-107.48 163.958,-96.3344 130.5,-76 111.079,-64.1967 94.9152,-43.3734 85.0252,-28.475"/>
<polygon fill="midnightblue" stroke="midnightblue" points="87.77,-26.2677 79.4607,-19.6945 81.8574,-30.0148 87.77,-26.2677"/>
</g>
<!-- Node6 -->
<g id="node6" class="node"><title>Node6</title>
<polygon fill="none" stroke="#bfbfbf" points="0,-56.5 0,-75.5 83,-75.5 83,-56.5 0,-56.5"/>
<text text-anchor="middle" x="41.5" y="-63.5" font-family="Helvetica,sans-Serif" font-size="10.00">unordered_map</text>
</g>
<!-- Node3&#45;&gt;Node6 -->
<g id="edge5" class="edge"><title>Node3&#45;&gt;Node6</title>
<path fill="none" stroke="midnightblue" d="M276.292,-112.444C226.594,-102.825 145.99,-87.2238 93.3589,-77.0372"/>
<polygon fill="midnightblue" stroke="midnightblue" points="93.7061,-73.5395 83.2232,-75.0755 92.3759,-80.412 93.7061,-73.5395"/>
</g>
<!-- Node7 -->
<g id="node7" class="node"><title>Node7</title>
<polygon fill="none" stroke="#bfbfbf" points="321.5,-0.5 321.5,-19.5 377.5,-19.5 377.5,-0.5 321.5,-0.5"/>
<text text-anchor="middle" x="349.5" y="-7.5" font-family="Helvetica,sans-Serif" font-size="10.00">Rtypes.h</text>
</g>
<!-- Node3&#45;&gt;Node7 -->
<g id="edge6" class="edge"><title>Node3&#45;&gt;Node7</title>
<path fill="none" stroke="midnightblue" d="M322.776,-112.368C327.477,-94.5366 338.349,-53.2953 344.683,-29.2717"/>
<polygon fill="midnightblue" stroke="midnightblue" points="348.07,-30.1533 347.235,-19.5914 341.301,-28.3688 348.07,-30.1533"/>
</g>
<!-- Node3&#45;&gt;Node8 -->
<g id="edge7" class="edge"><title>Node3&#45;&gt;Node8</title>
<path fill="none" stroke="midnightblue" d="M303.63,-112.324C286.791,-103.664 260.693,-90.2424 241.262,-80.249"/>
<polygon fill="midnightblue" stroke="midnightblue" points="242.822,-77.1155 232.328,-75.6545 239.62,-83.3405 242.822,-77.1155"/>
</g>
<!-- Node3&#45;&gt;Node11 -->
<g id="edge13" class="edge"><title>Node3&#45;&gt;Node11</title>
<path fill="none" stroke="midnightblue" d="M340.465,-112.444C361.109,-103.596 393.563,-89.6875 417.132,-79.5865"/>
<polygon fill="midnightblue" stroke="midnightblue" points="418.816,-82.6727 426.628,-75.5164 416.058,-76.2387 418.816,-82.6727"/>
</g>
<!-- Node8&#45;&gt;Node4 -->
<g id="edge8" class="edge"><title>Node8&#45;&gt;Node4</title>
<path fill="none" stroke="midnightblue" d="M249.336,-56.4589C281.942,-48.1478 332.889,-34.9525 386.238,-20.0012"/>
<polygon fill="midnightblue" stroke="midnightblue" points="387.193,-23.3686 395.87,-17.2898 385.296,-16.6305 387.193,-23.3686"/>
</g>
<!-- Node8&#45;&gt;Node5 -->
<g id="edge9" class="edge"><title>Node8&#45;&gt;Node5</title>
<path fill="none" stroke="midnightblue" d="M193.158,-56.4435C168.37,-46.9502 128.367,-31.6297 101.756,-21.4385"/>
<polygon fill="midnightblue" stroke="midnightblue" points="102.863,-18.1147 92.2729,-17.8067 100.36,-24.6517 102.863,-18.1147"/>
</g>
<!-- Node8&#45;&gt;Node7 -->
<g id="edge10" class="edge"><title>Node8&#45;&gt;Node7</title>
<path fill="none" stroke="midnightblue" d="M236.733,-56.4435C258.884,-47.5171 293.819,-33.4387 318.936,-23.3168"/>
<polygon fill="midnightblue" stroke="midnightblue" points="320.4,-26.5006 328.367,-19.5164 317.783,-20.0079 320.4,-26.5006"/>
</g>
<!-- Node9 -->
<g id="node9" class="node"><title>Node9</title>
<polygon fill="none" stroke="#bfbfbf" points="110,-0.5 110,-19.5 169,-19.5 169,-0.5 110,-0.5"/>
<text text-anchor="middle" x="139.5" y="-7.5" font-family="Helvetica,sans-Serif" font-size="10.00">TObject.h</text>
</g>
<!-- Node8&#45;&gt;Node9 -->
<g id="edge11" class="edge"><title>Node8&#45;&gt;Node9</title>
<path fill="none" stroke="midnightblue" d="M203.289,-56.324C191.724,-48.1066 174.125,-35.6017 160.339,-25.8069"/>
<polygon fill="midnightblue" stroke="midnightblue" points="162.112,-22.7729 151.933,-19.8339 158.057,-28.4791 162.112,-22.7729"/>
</g>
<!-- Node10 -->
<g id="node10" class="node"><title>Node10</title>
<polygon fill="none" stroke="#bfbfbf" points="187.5,-0.5 187.5,-19.5 303.5,-19.5 303.5,-0.5 187.5,-0.5"/>
<text text-anchor="middle" x="245.5" y="-7.5" font-family="Helvetica,sans-Serif" font-size="10.00">Common/Exceptions.h</text>
</g>
<!-- Node8&#45;&gt;Node10 -->
<g id="edge12" class="edge"><title>Node8&#45;&gt;Node10</title>
<path fill="none" stroke="midnightblue" d="M220.454,-56.083C224.604,-48.6127 230.653,-37.7244 235.767,-28.5199"/>
<polygon fill="midnightblue" stroke="midnightblue" points="238.841,-30.1924 240.638,-19.7511 232.722,-26.7929 238.841,-30.1924"/>
</g>
<!-- Node11&#45;&gt;Node4 -->
<g id="edge15" class="edge"><title>Node11&#45;&gt;Node4</title>
<path fill="none" stroke="midnightblue" d="M441.546,-56.083C437.396,-48.6127 431.347,-37.7244 426.233,-28.5199"/>
<polygon fill="midnightblue" stroke="midnightblue" points="429.278,-26.7929 421.362,-19.7511 423.159,-30.1924 429.278,-26.7929"/>
</g>
<!-- Node11&#45;&gt;Node7 -->
<g id="edge14" class="edge"><title>Node11&#45;&gt;Node7</title>
<path fill="none" stroke="midnightblue" d="M430.915,-56.324C415.501,-47.7428 391.688,-34.486 373.79,-24.5224"/>
<polygon fill="midnightblue" stroke="midnightblue" points="375.486,-21.4606 365.046,-19.6545 372.081,-27.5767 375.486,-21.4606"/>
</g>
<!-- Node17 -->
<g id="node17" class="node"><title>Node17</title>
<polygon fill="none" stroke="#bfbfbf" points="733.5,-112.5 733.5,-131.5 863.5,-131.5 863.5,-112.5 733.5,-112.5"/>
<text text-anchor="middle" x="798.5" y="-119.5" font-family="Helvetica,sans-Serif" font-size="10.00">InfoLogger/InfoLogger.hxx</text>
</g>
<!-- Node16&#45;&gt;Node17 -->
<g id="edge23" class="edge"><title>Node16&#45;&gt;Node17</title>
<path fill="none" stroke="midnightblue" d="M798.5,-168.083C798.5,-161.006 798.5,-150.861 798.5,-141.986"/>
<polygon fill="midnightblue" stroke="midnightblue" points="802,-141.751 798.5,-131.751 795,-141.751 802,-141.751"/>
</g>
</g>
</svg>
        <g id="navigator" transform="translate(0 0)" fill="#404254">
                <rect fill="#f2f5e9" fill-opacity="0.5" stroke="#606060" stroke-width=".5" x="0" y="0" width="60" height="60"/>
                <use id="zoomplus" xlink:href="#zoomPlus" x="17" y="9" onmousedown="handleZoom(evt,'in')"/>
                <use id="zoomminus" xlink:href="#zoomMin" x="42" y="9" onmousedown="handleZoom(evt,'out')"/>
                <use id="reset" xlink:href="#resetDef" x="30" y="36" onmousedown="handleReset()"/>
                <g id="arrowUp" xlink:href="#dirArrow" transform="translate(30 24)" onmousedown="handlePan(0,-1)">
                  <use xlink:href="#rim" fill="#404040">
                        <set attributeName="fill" to="#808080" begin="arrowUp.mouseover" end="arrowUp.mouseout"/>
                  </use>
                  <path fill="none" stroke="white" stroke-width="1.5" d="M0,-3.0v7 M-2.5,-0.5L0,-3.0L2.5,-0.5"/>
                </g>
                <g id="arrowRight" xlink:href="#dirArrow" transform="rotate(90) translate(36 -43)" onmousedown="handlePan(1,0)">
                  <use xlink:href="#rim" fill="#404040">
                        <set attributeName="fill" to="#808080" begin="arrowRight.mouseover" end="arrowRight.mouseout"/>
                  </use>
                  <path fill="none" stroke="white" stroke-width="1.5" d="M0,-3.0v7 M-2.5,-0.5L0,-3.0L2.5,-0.5"/>
                </g>
                <g id="arrowDown" xlink:href="#dirArrow" transform="rotate(180) translate(-30 -48)" onmousedown="handlePan(0,1)">
                  <use xlink:href="#rim" fill="#404040">
                        <set attributeName="fill" to="#808080" begin="arrowDown.mouseover" end="arrowDown.mouseout"/>
                  </use>
                  <path fill="none" stroke="white" stroke-width="1.5" d="M0,-3.0v7 M-2.5,-0.5L0,-3.0L2.5,-0.5"/>
                </g>
                <g id="arrowLeft" xlink:href="#dirArrow" transform="rotate(270) translate(-36 17)" onmousedown="handlePan(-1,0)">
                  <use xlink:href="#rim" fill="#404040">
                        <set attributeName="fill" to="#808080" begin="arrowLeft.mouseover" end="arrowLeft.mouseout"/>
                  </use>
                  <path fill="none" stroke="white" stroke-width="1.5" d="M0,-3.0v7 M-2.5,-0.5L0,-3.0L2.5,-0.5"/>
                </g>
        </g>
        <svg viewBox="0 0 15 15" width="100%" height="30px" preserveAspectRatio="xMaxYMin meet">
         <g id="arrow_out" transform="scale(0.3 0.3)">
          <a xlink:href="MeanIsAbove_8cxx__incl_org.svg" target="_base">
           <rect id="button" ry="5" rx="5" y="6" x="6" height="38" width="38"
                fill="#f2f5e9" fill-opacity="0.5" stroke="#606060" stroke-width="1.0"/>
           <path id="arrow"
             d="M 11.500037,31.436501 C 11.940474,20.09759 22.043105,11.32322 32.158766,21.979434 L 37.068811,17.246167 C 37.068811,17.246167 37.088388,32 37.088388,32 L 22.160133,31.978069 C 22.160133,31.978069 26.997745,27.140456 26.997745,27.140456 C 18.528582,18.264221 13.291696,25.230495 11.500037,31.436501 z"
             style="fill:#404040;"/>
          </a>
         </g>
        </svg>
</svg>
