<?xml version="1.0" encoding="UTF-8" standalone="no"?>
<!DOCTYPE svg PUBLIC "-//W3C//DTD SVG 1.1//EN"
 "http://www.w3.org/Graphics/SVG/1.1/DTD/svg11.dtd">
<!-- Generated by graphviz version 2.38.0 (20140413.2041)
 -->
<!-- Title: Framework/src/MonitorObject.cxx Pages: 1 -->
<svg width="393pt" height="140pt"
 viewBox="0.00 0.00 392.50 140.00" xmlns="http://www.w3.org/2000/svg" xmlns:xlink="http://www.w3.org/1999/xlink">
<g id="graph0" class="graph" transform="scale(1 1) rotate(0) translate(4 136)">
<title>Framework/src/MonitorObject.cxx</title>
<!-- Node1 -->
<g id="node1" class="node"><title>Node1</title>
<polygon fill="#bfbfbf" stroke="black" points="220.5,-112.5 220.5,-131.5 384.5,-131.5 384.5,-112.5 220.5,-112.5"/>
<text text-anchor="middle" x="302.5" y="-119.5" font-family="Helvetica,sans-Serif" font-size="10.00">Framework/src/MonitorObject.cxx</text>
</g>
<!-- Node2 -->
<g id="node2" class="node"><title>Node2</title>
<g id="a_node2"><a xlink:href="MonitorObject_8h.html" target="_top" xlink:title="QualityControl/MonitorObject.h">
<polygon fill="none" stroke="black" points="84,-56.5 84,-75.5 235,-75.5 235,-56.5 84,-56.5"/>
<text text-anchor="middle" x="159.5" y="-63.5" font-family="Helvetica,sans-Serif" font-size="10.00">QualityControl/MonitorObject.h</text>
</a>
</g>
</g>
<!-- Node1&#45;&gt;Node2 -->
<g id="edge1" class="edge"><title>Node1&#45;&gt;Node2</title>
<path fill="none" stroke="midnightblue" d="M279.841,-112.444C256.098,-103.478 218.591,-89.314 191.762,-79.1827"/>
<polygon fill="midnightblue" stroke="midnightblue" points="192.644,-75.7749 182.053,-75.5164 190.171,-82.3235 192.644,-75.7749"/>
</g>
<!-- Node7 -->
<g id="node7" class="node"><title>Node7</title>
<polygon fill="none" stroke="#bfbfbf" points="264.5,-0.5 264.5,-19.5 380.5,-19.5 380.5,-0.5 264.5,-0.5"/>
<text text-anchor="middle" x="322.5" y="-7.5" font-family="Helvetica,sans-Serif" font-size="10.00">Common/Exceptions.h</text>
</g>
<!-- Node1&#45;&gt;Node7 -->
<g id="edge8" class="edge"><title>Node1&#45;&gt;Node7</title>
<path fill="none" stroke="midnightblue" d="M304.069,-112.368C307.297,-94.617 314.742,-53.6664 319.119,-29.5974"/>
<polygon fill="midnightblue" stroke="midnightblue" points="322.593,-30.0562 320.938,-19.5914 315.705,-28.804 322.593,-30.0562"/>
</g>
<!-- Node8 -->
<g id="node8" class="node"><title>Node8</title>
<polygon fill="none" stroke="#bfbfbf" points="330.5,-56.5 330.5,-75.5 384.5,-75.5 384.5,-56.5 330.5,-56.5"/>
<text text-anchor="middle" x="357.5" y="-63.5" font-family="Helvetica,sans-Serif" font-size="10.00">iostream</text>
</g>
<!-- Node1&#45;&gt;Node8 -->
<g id="edge7" class="edge"><title>Node1&#45;&gt;Node8</title>
<path fill="none" stroke="midnightblue" d="M311.582,-112.083C319.671,-104.141 331.695,-92.3354 341.41,-82.7973"/>
<polygon fill="midnightblue" stroke="midnightblue" points="343.903,-85.2545 348.587,-75.7511 338.999,-80.2595 343.903,-85.2545"/>
</g>
<!-- Node3 -->
<g id="node3" class="node"><title>Node3</title>
<polygon fill="none" stroke="#bfbfbf" points="0,-0.5 0,-19.5 41,-19.5 41,-0.5 0,-0.5"/>
<text text-anchor="middle" x="20.5" y="-7.5" font-family="Helvetica,sans-Serif" font-size="10.00">string</text>
</g>
<!-- Node2&#45;&gt;Node3 -->
<g id="edge2" class="edge"><title>Node2&#45;&gt;Node3</title>
<path fill="none" stroke="midnightblue" d="M137.475,-56.4435C113.989,-47.3194 76.647,-32.8125 50.4883,-22.6501"/>
<polygon fill="midnightblue" stroke="midnightblue" points="51.6513,-19.3471 41.0625,-18.9883 49.1164,-25.8721 51.6513,-19.3471"/>
</g>
<!-- Node4 -->
<g id="node4" class="node"><title>Node4</title>
<polygon fill="none" stroke="#bfbfbf" points="59,-0.5 59,-19.5 94,-19.5 94,-0.5 59,-0.5"/>
<text text-anchor="middle" x="76.5" y="-7.5" font-family="Helvetica,sans-Serif" font-size="10.00">map</text>
</g>
<!-- Node2&#45;&gt;Node4 -->
<g id="edge3" class="edge"><title>Node2&#45;&gt;Node4</title>
<path fill="none" stroke="midnightblue" d="M146.165,-56.324C133.338,-47.979 113.715,-35.2122 98.5602,-25.3524"/>
<polygon fill="midnightblue" stroke="midnightblue" points="100.093,-22.1742 89.8023,-19.6545 96.2757,-28.0417 100.093,-22.1742"/>
</g>
<!-- Node5 -->
<g id="node5" class="node"><title>Node5</title>
<polygon fill="none" stroke="#bfbfbf" points="112.5,-0.5 112.5,-19.5 168.5,-19.5 168.5,-0.5 112.5,-0.5"/>
<text text-anchor="middle" x="140.5" y="-7.5" font-family="Helvetica,sans-Serif" font-size="10.00">Rtypes.h</text>
</g>
<!-- Node2&#45;&gt;Node5 -->
<g id="edge4" class="edge"><title>Node2&#45;&gt;Node5</title>
<path fill="none" stroke="midnightblue" d="M156.363,-56.083C153.817,-48.8486 150.144,-38.4087 146.973,-29.3968"/>
<polygon fill="midnightblue" stroke="midnightblue" points="150.2,-28.0225 143.579,-19.7511 143.597,-30.3459 150.2,-28.0225"/>
</g>
<!-- Node6 -->
<g id="node6" class="node"><title>Node6</title>
<polygon fill="none" stroke="#bfbfbf" points="187,-0.5 187,-19.5 246,-19.5 246,-0.5 187,-0.5"/>
<text text-anchor="middle" x="216.5" y="-7.5" font-family="Helvetica,sans-Serif" font-size="10.00">TObject.h</text>
</g>
<!-- Node2&#45;&gt;Node6 -->
<g id="edge5" class="edge"><title>Node2&#45;&gt;Node6</title>
<path fill="none" stroke="midnightblue" d="M168.658,-56.324C177.001,-48.4196 189.532,-36.5482 199.677,-26.9377"/>
<polygon fill="midnightblue" stroke="midnightblue" points="202.323,-29.2522 207.175,-19.8339 197.509,-24.1705 202.323,-29.2522"/>
</g>
<!-- Node2&#45;&gt;Node7 -->
<g id="edge6" class="edge"><title>Node2&#45;&gt;Node7</title>
<path fill="none" stroke="midnightblue" d="M185.328,-56.4435C212.749,-47.3591 256.277,-32.9388 286.932,-22.7831"/>
<polygon fill="midnightblue" stroke="midnightblue" points="288.401,-25.9837 296.793,-19.5164 286.2,-19.3389 288.401,-25.9837"/>
</g>
</g>
</svg>
