<?xml version="1.0" encoding="UTF-8" standalone="no"?>
<!DOCTYPE svg PUBLIC "-//W3C//DTD SVG 1.1//EN"
 "http://www.w3.org/Graphics/SVG/1.1/DTD/svg11.dtd">
<!-- Generated by graphviz version 2.38.0 (20140413.2041)
 -->
<!-- Title: Framework/src/MySqlDatabase.cxx Pages: 1 -->
<svg width="1348pt" height="308pt"
 viewBox="0.00 0.00 1348.00 308.00" xmlns="http://www.w3.org/2000/svg" xmlns:xlink="http://www.w3.org/1999/xlink">
<g id="graph0" class="graph" transform="scale(1 1) rotate(0) translate(4 304)">
<title>Framework/src/MySqlDatabase.cxx</title>
<!-- Node1 -->
<g id="node1" class="node"><title>Node1</title>
<polygon fill="#bfbfbf" stroke="black" points="392.5,-280.5 392.5,-299.5 565.5,-299.5 565.5,-280.5 392.5,-280.5"/>
<text text-anchor="middle" x="479" y="-287.5" font-family="Helvetica,sans-Serif" font-size="10.00">Framework/src/MySqlDatabase.cxx</text>
</g>
<!-- Node2 -->
<g id="node2" class="node"><title>Node2</title>
<polygon fill="none" stroke="#bfbfbf" points="0,-224.5 0,-243.5 52,-243.5 52,-224.5 0,-224.5"/>
<text text-anchor="middle" x="26" y="-231.5" font-family="Helvetica,sans-Serif" font-size="10.00">sstream</text>
</g>
<!-- Node1&#45;&gt;Node2 -->
<g id="edge1" class="edge"><title>Node1&#45;&gt;Node2</title>
<path fill="none" stroke="midnightblue" d="M392.419,-283.346C309.841,-277.116 181.88,-265.288 62.3435,-244.01"/>
<polygon fill="midnightblue" stroke="midnightblue" points="62.7462,-240.526 52.2833,-242.193 61.5019,-247.414 62.7462,-240.526"/>
</g>
<!-- Node3 -->
<g id="node3" class="node"><title>Node3</title>
<polygon fill="none" stroke="#bfbfbf" points="70.5,-224.5 70.5,-243.5 141.5,-243.5 141.5,-224.5 70.5,-224.5"/>
<text text-anchor="middle" x="106" y="-231.5" font-family="Helvetica,sans-Serif" font-size="10.00">TMessage.h</text>
</g>
<!-- Node1&#45;&gt;Node3 -->
<g id="edge2" class="edge"><title>Node1&#45;&gt;Node3</title>
<path fill="none" stroke="midnightblue" d="M407.467,-280.463C343.168,-272.498 245.919,-259.731 151.804,-244.046"/>
<polygon fill="midnightblue" stroke="midnightblue" points="152.267,-240.575 141.825,-242.37 151.107,-247.478 152.267,-240.575"/>
</g>
<!-- Node4 -->
<g id="node4" class="node"><title>Node4</title>
<polygon fill="none" stroke="#bfbfbf" points="160,-224.5 160,-243.5 252,-243.5 252,-224.5 160,-224.5"/>
<text text-anchor="middle" x="206" y="-231.5" font-family="Helvetica,sans-Serif" font-size="10.00">TMySQLServer.h</text>
</g>
<!-- Node1&#45;&gt;Node4 -->
<g id="edge3" class="edge"><title>Node1&#45;&gt;Node4</title>
<path fill="none" stroke="midnightblue" d="M435.742,-280.444C387.819,-270.964 310.522,-255.675 259,-245.483"/>
<polygon fill="midnightblue" stroke="midnightblue" points="259.544,-242.023 249.055,-243.516 258.186,-248.89 259.544,-242.023"/>
</g>
<!-- Node5 -->
<g id="node5" class="node"><title>Node5</title>
<polygon fill="none" stroke="#bfbfbf" points="270,-224.5 270,-243.5 362,-243.5 362,-224.5 270,-224.5"/>
<text text-anchor="middle" x="316" y="-231.5" font-family="Helvetica,sans-Serif" font-size="10.00">TMySQLResult.h</text>
</g>
<!-- Node1&#45;&gt;Node5 -->
<g id="edge4" class="edge"><title>Node1&#45;&gt;Node5</title>
<path fill="none" stroke="midnightblue" d="M453.172,-280.444C425.751,-271.359 382.223,-256.939 351.568,-246.783"/>
<polygon fill="midnightblue" stroke="midnightblue" points="352.3,-243.339 341.707,-243.516 350.099,-249.984 352.3,-243.339"/>
</g>
<!-- Node6 -->
<g id="node6" class="node"><title>Node6</title>
<polygon fill="none" stroke="#bfbfbf" points="380,-224.5 380,-243.5 464,-243.5 464,-224.5 380,-224.5"/>
<text text-anchor="middle" x="422" y="-231.5" font-family="Helvetica,sans-Serif" font-size="10.00">TMySQLRow.h</text>
</g>
<!-- Node1&#45;&gt;Node6 -->
<g id="edge5" class="edge"><title>Node1&#45;&gt;Node6</title>
<path fill="none" stroke="midnightblue" d="M469.842,-280.324C461.499,-272.42 448.968,-260.548 438.823,-250.938"/>
<polygon fill="midnightblue" stroke="midnightblue" points="440.991,-248.171 431.325,-243.834 436.177,-253.252 440.991,-248.171"/>
</g>
<!-- Node7 -->
<g id="node7" class="node"><title>Node7</title>
<polygon fill="none" stroke="#bfbfbf" points="482.5,-224.5 482.5,-243.5 591.5,-243.5 591.5,-224.5 482.5,-224.5"/>
<text text-anchor="middle" x="537" y="-231.5" font-family="Helvetica,sans-Serif" font-size="10.00">TMySQLStatement.h</text>
</g>
<!-- Node1&#45;&gt;Node7 -->
<g id="edge6" class="edge"><title>Node1&#45;&gt;Node7</title>
<path fill="none" stroke="midnightblue" d="M488.319,-280.324C496.893,-272.341 509.812,-260.313 520.188,-250.653"/>
<polygon fill="midnightblue" stroke="midnightblue" points="522.578,-253.21 527.512,-243.834 517.808,-248.086 522.578,-253.21"/>
</g>
<!-- Node8 -->
<g id="node8" class="node"><title>Node8</title>
<polygon fill="none" stroke="#bfbfbf" points="610,-224.5 610,-243.5 694,-243.5 694,-224.5 610,-224.5"/>
<text text-anchor="middle" x="652" y="-231.5" font-family="Helvetica,sans-Serif" font-size="10.00">TBufferJSON.h</text>
</g>
<!-- Node1&#45;&gt;Node8 -->
<g id="edge7" class="edge"><title>Node1&#45;&gt;Node8</title>
<path fill="none" stroke="midnightblue" d="M506.412,-280.444C535.769,-271.28 582.519,-256.688 615.096,-246.519"/>
<polygon fill="midnightblue" stroke="midnightblue" points="616.213,-249.837 624.716,-243.516 614.127,-243.155 616.213,-249.837"/>
</g>
<!-- Node9 -->
<g id="node9" class="node"><title>Node9</title>
<polygon fill="none" stroke="#bfbfbf" points="635,-56.5 635,-75.5 751,-75.5 751,-56.5 635,-56.5"/>
<text text-anchor="middle" x="693" y="-63.5" font-family="Helvetica,sans-Serif" font-size="10.00">Common/Exceptions.h</text>
</g>
<!-- Node1&#45;&gt;Node9 -->
<g id="edge8" class="edge"><title>Node1&#45;&gt;Node9</title>
<path fill="none" stroke="midnightblue" d="M565.652,-282.757C620.994,-276.761 685.531,-265.327 703,-244 740.823,-197.823 715.6,-120.028 701.147,-85.0226"/>
<polygon fill="midnightblue" stroke="midnightblue" points="704.264,-83.4109 697.089,-75.6149 697.836,-86.1834 704.264,-83.4109"/>
</g>
<!-- Node10 -->
<g id="node10" class="node"><title>Node10</title>
<g id="a_node10"><a xlink:href="MySqlDatabase_8h.html" target="_top" xlink:title="QualityControl/MySqlDatabase.h">
<polygon fill="none" stroke="black" points="779,-224.5 779,-243.5 939,-243.5 939,-224.5 779,-224.5"/>
<text text-anchor="middle" x="859" y="-231.5" font-family="Helvetica,sans-Serif" font-size="10.00">QualityControl/MySqlDatabase.h</text>
</a>
</g>
</g>
<!-- Node1&#45;&gt;Node10 -->
<g id="edge9" class="edge"><title>Node1&#45;&gt;Node10</title>
<path fill="none" stroke="midnightblue" d="M539.212,-280.444C607.031,-270.806 717.109,-255.163 788.783,-244.978"/>
<polygon fill="midnightblue" stroke="midnightblue" points="789.661,-248.389 799.07,-243.516 788.677,-241.458 789.661,-248.389"/>
</g>
<!-- Node24 -->
<g id="node24" class="node"><title>Node24</title>
<g id="a_node24"><a xlink:href="QcInfoLogger_8h.html" target="_top" xlink:title="QualityControl/QcInfoLogger.h">
<polygon fill="none" stroke="black" points="1057.5,-224.5 1057.5,-243.5 1206.5,-243.5 1206.5,-224.5 1057.5,-224.5"/>
<text text-anchor="middle" x="1132" y="-231.5" font-family="Helvetica,sans-Serif" font-size="10.00">QualityControl/QcInfoLogger.h</text>
</a>
</g>
</g>
<!-- Node1&#45;&gt;Node24 -->
<g id="edge30" class="edge"><title>Node1&#45;&gt;Node24</title>
<path fill="none" stroke="midnightblue" d="M565.713,-281.829C691.243,-271.449 922.164,-252.352 1046.83,-242.044"/>
<polygon fill="midnightblue" stroke="midnightblue" points="1047.41,-245.508 1057.08,-241.195 1046.83,-238.531 1047.41,-245.508"/>
</g>
<!-- Node11 -->
<g id="node11" class="node"><title>Node11</title>
<polygon fill="none" stroke="#bfbfbf" points="813,-168.5 813,-187.5 905,-187.5 905,-168.5 813,-168.5"/>
<text text-anchor="middle" x="859" y="-175.5" font-family="Helvetica,sans-Serif" font-size="10.00">Common/Timer.h</text>
</g>
<!-- Node10&#45;&gt;Node11 -->
<g id="edge10" class="edge"><title>Node10&#45;&gt;Node11</title>
<path fill="none" stroke="midnightblue" d="M859,-224.083C859,-217.006 859,-206.861 859,-197.986"/>
<polygon fill="midnightblue" stroke="midnightblue" points="862.5,-197.751 859,-187.751 855.5,-197.751 862.5,-197.751"/>
</g>
<!-- Node12 -->
<g id="node12" class="node"><title>Node12</title>
<g id="a_node12"><a xlink:href="DatabaseInterface_8h.html" target="_top" xlink:title="QualityControl/DatabaseInterface.h">
<polygon fill="none" stroke="black" points="980,-168.5 980,-187.5 1150,-187.5 1150,-168.5 980,-168.5"/>
<text text-anchor="middle" x="1065" y="-175.5" font-family="Helvetica,sans-Serif" font-size="10.00">QualityControl/DatabaseInterface.h</text>
</a>
</g>
</g>
<!-- Node10&#45;&gt;Node12 -->
<g id="edge11" class="edge"><title>Node10&#45;&gt;Node12</title>
<path fill="none" stroke="midnightblue" d="M891.641,-224.444C927.05,-215.162 983.709,-200.309 1022.55,-190.127"/>
<polygon fill="midnightblue" stroke="midnightblue" points="1023.73,-193.438 1032.51,-187.516 1021.95,-186.667 1023.73,-193.438"/>
</g>
<!-- Node13 -->
<g id="node13" class="node"><title>Node13</title>
<polygon fill="none" stroke="#bfbfbf" points="1139.5,-0.5 1139.5,-19.5 1180.5,-19.5 1180.5,-0.5 1139.5,-0.5"/>
<text text-anchor="middle" x="1160" y="-7.5" font-family="Helvetica,sans-Serif" font-size="10.00">string</text>
</g>
<!-- Node12&#45;&gt;Node13 -->
<g id="edge12" class="edge"><title>Node12&#45;&gt;Node13</title>
<path fill="none" stroke="midnightblue" d="M1121.69,-168.495C1143.35,-162.18 1165.95,-151.176 1179,-132 1200.45,-100.478 1182.53,-53.7562 1169.87,-28.5887"/>
<polygon fill="midnightblue" stroke="midnightblue" points="1172.83,-26.7029 1165.05,-19.5097 1166.65,-29.9838 1172.83,-26.7029"/>
</g>
<!-- Node14 -->
<g id="node14" class="node"><title>Node14</title>
<polygon fill="none" stroke="#bfbfbf" points="1226,-112.5 1226,-131.5 1278,-131.5 1278,-112.5 1226,-112.5"/>
<text text-anchor="middle" x="1252" y="-119.5" font-family="Helvetica,sans-Serif" font-size="10.00">memory</text>
</g>
<!-- Node12&#45;&gt;Node14 -->
<g id="edge13" class="edge"><title>Node12&#45;&gt;Node14</title>
<path fill="none" stroke="midnightblue" d="M1094.63,-168.444C1127.53,-158.943 1180.64,-143.606 1215.93,-133.415"/>
<polygon fill="midnightblue" stroke="midnightblue" points="1217.19,-136.695 1225.83,-130.558 1215.25,-129.97 1217.19,-136.695"/>
</g>
<!-- Node15 -->
<g id="node15" class="node"><title>Node15</title>
<polygon fill="none" stroke="#bfbfbf" points="1296,-112.5 1296,-131.5 1340,-131.5 1340,-112.5 1296,-112.5"/>
<text text-anchor="middle" x="1318" y="-119.5" font-family="Helvetica,sans-Serif" font-size="10.00">vector</text>
</g>
<!-- Node12&#45;&gt;Node15 -->
<g id="edge14" class="edge"><title>Node12&#45;&gt;Node15</title>
<path fill="none" stroke="midnightblue" d="M1112.89,-168.475C1155.82,-160.568 1220.71,-147.965 1285.7,-132.168"/>
<polygon fill="midnightblue" stroke="midnightblue" points="1286.83,-135.495 1295.71,-129.71 1285.16,-128.697 1286.83,-135.495"/>
</g>
<!-- Node16 -->
<g id="node16" class="node"><title>Node16</title>
<polygon fill="none" stroke="#bfbfbf" points="750.5,-112.5 750.5,-131.5 833.5,-131.5 833.5,-112.5 750.5,-112.5"/>
<text text-anchor="middle" x="792" y="-119.5" font-family="Helvetica,sans-Serif" font-size="10.00">unordered_map</text>
</g>
<!-- Node12&#45;&gt;Node16 -->
<g id="edge15" class="edge"><title>Node12&#45;&gt;Node16</title>
<path fill="none" stroke="midnightblue" d="M1021.74,-168.444C973.396,-158.88 895.156,-143.404 843.642,-133.215"/>
<polygon fill="midnightblue" stroke="midnightblue" points="844.201,-129.758 833.712,-131.251 842.843,-136.625 844.201,-129.758"/>
</g>
<!-- Node17 -->
<g id="node17" class="node"><title>Node17</title>
<g id="a_node17"><a xlink:href="QualityObject_8h_source.html" target="_top" xlink:title="QualityControl/QualityObject.h">
<polygon fill="none" stroke="black" points="851.5,-112.5 851.5,-131.5 1000.5,-131.5 1000.5,-112.5 851.5,-112.5"/>
<text text-anchor="middle" x="926" y="-119.5" font-family="Helvetica,sans-Serif" font-size="10.00">QualityControl/QualityObject.h</text>
</a>
</g>
</g>
<!-- Node12&#45;&gt;Node17 -->
<g id="edge16" class="edge"><title>Node12&#45;&gt;Node17</title>
<path fill="none" stroke="midnightblue" d="M1042.98,-168.444C1019.9,-159.478 983.438,-145.314 957.359,-135.183"/>
<polygon fill="midnightblue" stroke="midnightblue" points="958.511,-131.875 947.922,-131.516 955.976,-138.4 958.511,-131.875"/>
</g>
<!-- Node23 -->
<g id="node23" class="node"><title>Node23</title>
<g id="a_node23"><a xlink:href="MonitorObject_8h.html" target="_top" xlink:title="QualityControl/MonitorObject.h">
<polygon fill="none" stroke="black" points="1018.5,-112.5 1018.5,-131.5 1169.5,-131.5 1169.5,-112.5 1018.5,-112.5"/>
<text text-anchor="middle" x="1094" y="-119.5" font-family="Helvetica,sans-Serif" font-size="10.00">QualityControl/MonitorObject.h</text>
</a>
</g>
</g>
<!-- Node12&#45;&gt;Node23 -->
<g id="edge24" class="edge"><title>Node12&#45;&gt;Node23</title>
<path fill="none" stroke="midnightblue" d="M1069.79,-168.083C1073.76,-160.691 1079.53,-149.953 1084.43,-140.811"/>
<polygon fill="midnightblue" stroke="midnightblue" points="1087.65,-142.217 1089.3,-131.751 1081.49,-138.905 1087.65,-142.217"/>
</g>
<!-- Node17&#45;&gt;Node9 -->
<g id="edge20" class="edge"><title>Node17&#45;&gt;Node9</title>
<path fill="none" stroke="midnightblue" d="M889.08,-112.444C848.605,-103.063 783.579,-87.9926 739.616,-77.8036"/>
<polygon fill="midnightblue" stroke="midnightblue" points="740.279,-74.3646 729.747,-75.5164 738.698,-81.1839 740.279,-74.3646"/>
</g>
<!-- Node18 -->
<g id="node18" class="node"><title>Node18</title>
<polygon fill="none" stroke="#bfbfbf" points="909,-56.5 909,-75.5 963,-75.5 963,-56.5 909,-56.5"/>
<text text-anchor="middle" x="936" y="-63.5" font-family="Helvetica,sans-Serif" font-size="10.00">iostream</text>
</g>
<!-- Node17&#45;&gt;Node18 -->
<g id="edge17" class="edge"><title>Node17&#45;&gt;Node18</title>
<path fill="none" stroke="midnightblue" d="M927.651,-112.083C928.976,-104.927 930.882,-94.6353 932.539,-85.6911"/>
<polygon fill="midnightblue" stroke="midnightblue" points="936,-86.2212 934.379,-75.7511 929.117,-84.9466 936,-86.2212"/>
</g>
<!-- Node19 -->
<g id="node19" class="node"><title>Node19</title>
<polygon fill="none" stroke="#bfbfbf" points="1058.5,-56.5 1058.5,-75.5 1093.5,-75.5 1093.5,-56.5 1058.5,-56.5"/>
<text text-anchor="middle" x="1076" y="-63.5" font-family="Helvetica,sans-Serif" font-size="10.00">map</text>
</g>
<!-- Node17&#45;&gt;Node19 -->
<g id="edge18" class="edge"><title>Node17&#45;&gt;Node19</title>
<path fill="none" stroke="midnightblue" d="M949.768,-112.444C976.696,-102.749 1020.5,-86.9792 1048.78,-76.799"/>
<polygon fill="midnightblue" stroke="midnightblue" points="1050.21,-80.0033 1058.44,-73.323 1047.84,-73.4171 1050.21,-80.0033"/>
</g>
<!-- Node20 -->
<g id="node20" class="node"><title>Node20</title>
<polygon fill="none" stroke="#bfbfbf" points="981.5,-56.5 981.5,-75.5 1040.5,-75.5 1040.5,-56.5 981.5,-56.5"/>
<text text-anchor="middle" x="1011" y="-63.5" font-family="Helvetica,sans-Serif" font-size="10.00">TObject.h</text>
</g>
<!-- Node17&#45;&gt;Node20 -->
<g id="edge19" class="edge"><title>Node17&#45;&gt;Node20</title>
<path fill="none" stroke="midnightblue" d="M939.657,-112.324C952.916,-103.9 973.268,-90.9709 988.846,-81.0741"/>
<polygon fill="midnightblue" stroke="midnightblue" points="990.813,-83.9711 997.377,-75.6545 987.06,-78.0626 990.813,-83.9711"/>
</g>
<!-- Node21 -->
<g id="node21" class="node"><title>Node21</title>
<g id="a_node21"><a xlink:href="Quality_8h.html" target="_top" xlink:title="QualityControl/Quality.h">
<polygon fill="none" stroke="black" points="769.5,-56.5 769.5,-75.5 890.5,-75.5 890.5,-56.5 769.5,-56.5"/>
<text text-anchor="middle" x="830" y="-63.5" font-family="Helvetica,sans-Serif" font-size="10.00">QualityControl/Quality.h</text>
</a>
</g>
</g>
<!-- Node17&#45;&gt;Node21 -->
<g id="edge21" class="edge"><title>Node17&#45;&gt;Node21</title>
<path fill="none" stroke="midnightblue" d="M910.576,-112.324C895.46,-103.822 872.185,-90.7288 854.529,-80.7975"/>
<polygon fill="midnightblue" stroke="midnightblue" points="855.817,-77.5066 845.386,-75.6545 852.386,-83.6077 855.817,-77.5066"/>
</g>
<!-- Node21&#45;&gt;Node13 -->
<g id="edge23" class="edge"><title>Node21&#45;&gt;Node13</title>
<path fill="none" stroke="midnightblue" d="M882.289,-56.4435C951.95,-45.0445 1072.95,-25.2443 1129.38,-16.01"/>
<polygon fill="midnightblue" stroke="midnightblue" points="1130.15,-19.4304 1139.46,-14.3614 1129.02,-12.5223 1130.15,-19.4304"/>
</g>
<!-- Node22 -->
<g id="node22" class="node"><title>Node22</title>
<polygon fill="none" stroke="#bfbfbf" points="933,-0.5 933,-19.5 989,-19.5 989,-0.5 933,-0.5"/>
<text text-anchor="middle" x="961" y="-7.5" font-family="Helvetica,sans-Serif" font-size="10.00">Rtypes.h</text>
</g>
<!-- Node21&#45;&gt;Node22 -->
<g id="edge22" class="edge"><title>Node21&#45;&gt;Node22</title>
<path fill="none" stroke="midnightblue" d="M850.757,-56.4435C872.316,-47.5566 906.263,-33.5632 930.794,-23.4514"/>
<polygon fill="midnightblue" stroke="midnightblue" points="932.428,-26.5634 940.34,-19.5164 929.761,-20.0917 932.428,-26.5634"/>
</g>
<!-- Node23&#45;&gt;Node9 -->
<g id="edge29" class="edge"><title>Node23&#45;&gt;Node9</title>
<path fill="none" stroke="midnightblue" d="M1030.46,-112.444C957.06,-102.559 836.749,-86.3578 761.364,-76.2061"/>
<polygon fill="midnightblue" stroke="midnightblue" points="761.412,-72.6811 751.034,-74.8151 760.478,-79.6185 761.412,-72.6811"/>
</g>
<!-- Node23&#45;&gt;Node13 -->
<g id="edge25" class="edge"><title>Node23&#45;&gt;Node13</title>
<path fill="none" stroke="midnightblue" d="M1104.22,-112.262C1113.57,-103.798 1127.25,-90.1923 1136,-76 1144.88,-61.5989 1151.24,-43.4057 1155.18,-29.932"/>
<polygon fill="midnightblue" stroke="midnightblue" points="1158.66,-30.4798 1157.91,-19.911 1151.9,-28.6359 1158.66,-30.4798"/>
</g>
<!-- Node23&#45;&gt;Node19 -->
<g id="edge26" class="edge"><title>Node23&#45;&gt;Node19</title>
<path fill="none" stroke="midnightblue" d="M1091.03,-112.083C1088.62,-104.849 1085.14,-94.4087 1082.13,-85.3968"/>
<polygon fill="midnightblue" stroke="midnightblue" points="1085.4,-84.1311 1078.92,-75.7511 1078.76,-86.3447 1085.4,-84.1311"/>
</g>
<!-- Node23&#45;&gt;Node20 -->
<g id="edge28" class="edge"><title>Node23&#45;&gt;Node20</title>
<path fill="none" stroke="midnightblue" d="M1080.66,-112.324C1067.84,-103.979 1048.22,-91.2122 1033.06,-81.3524"/>
<polygon fill="midnightblue" stroke="midnightblue" points="1034.59,-78.1742 1024.3,-75.6545 1030.78,-84.0417 1034.59,-78.1742"/>
</g>
<!-- Node23&#45;&gt;Node22 -->
<g id="edge27" class="edge"><title>Node23&#45;&gt;Node22</title>
<path fill="none" stroke="midnightblue" d="M1098.67,-112.481C1105.32,-99.0931 1115.38,-72.9137 1103,-56 1079.5,-23.8967 1032.96,-14.1273 999.558,-11.4423"/>
<polygon fill="midnightblue" stroke="midnightblue" points="999.42,-7.92706 989.222,-10.8002 998.986,-14.9136 999.42,-7.92706"/>
</g>
<!-- Node25 -->
<g id="node25" class="node"><title>Node25</title>
<polygon fill="none" stroke="#bfbfbf" points="1168,-168.5 1168,-187.5 1298,-187.5 1298,-168.5 1168,-168.5"/>
<text text-anchor="middle" x="1233" y="-175.5" font-family="Helvetica,sans-Serif" font-size="10.00">InfoLogger/InfoLogger.hxx</text>
</g>
<!-- Node24&#45;&gt;Node25 -->
<g id="edge31" class="edge"><title>Node24&#45;&gt;Node25</title>
<path fill="none" stroke="midnightblue" d="M1148.23,-224.324C1164.35,-215.703 1189.3,-202.364 1207.96,-192.386"/>
<polygon fill="midnightblue" stroke="midnightblue" points="1209.64,-195.456 1216.81,-187.655 1206.34,-189.283 1209.64,-195.456"/>
</g>
</g>
</svg>
