<?xml version="1.0" encoding="UTF-8" standalone="no"?>
<!DOCTYPE svg PUBLIC "-//W3C//DTD SVG 1.1//EN"
 "http://www.w3.org/Graphics/SVG/1.1/DTD/svg11.dtd">
<!-- Generated by graphviz version 2.38.0 (20140413.2041)
 -->
<!-- Title: Framework/include/QualityControl/MySqlDatabase.h Pages: 1 -->
<svg width="619pt" height="263pt"
 viewBox="0.00 0.00 619.00 263.00" xmlns="http://www.w3.org/2000/svg" xmlns:xlink="http://www.w3.org/1999/xlink">
<g id="graph0" class="graph" transform="scale(1 1) rotate(0) translate(4 259)">
<title>Framework/include/QualityControl/MySqlDatabase.h</title>
<!-- Node1 -->
<g id="node1" class="node"><title>Node1</title>
<polygon fill="#bfbfbf" stroke="black" points="221,-224.5 221,-254.5 354,-254.5 354,-224.5 221,-224.5"/>
<text text-anchor="start" x="229" y="-242.5" font-family="Helvetica,sans-Serif" font-size="10.00">Framework/include/Quality</text>
<text text-anchor="middle" x="287.5" y="-231.5" font-family="Helvetica,sans-Serif" font-size="10.00">Control/MySqlDatabase.h</text>
</g>
<!-- Node2 -->
<g id="node2" class="node"><title>Node2</title>
<polygon fill="none" stroke="#bfbfbf" points="167.5,-168.5 167.5,-187.5 259.5,-187.5 259.5,-168.5 167.5,-168.5"/>
<text text-anchor="middle" x="213.5" y="-175.5" font-family="Helvetica,sans-Serif" font-size="10.00">Common/Timer.h</text>
</g>
<!-- Node1&#45;&gt;Node2 -->
<g id="edge1" class="edge"><title>Node1&#45;&gt;Node2</title>
<path fill="none" stroke="midnightblue" d="M269.963,-224.399C258.656,-215.308 243.958,-203.49 232.393,-194.191"/>
<polygon fill="midnightblue" stroke="midnightblue" points="234.254,-191.196 224.268,-187.658 229.868,-196.652 234.254,-191.196"/>
</g>
<!-- Node3 -->
<g id="node3" class="node"><title>Node3</title>
<g id="a_node3"><a xlink:href="DatabaseInterface_8h.html" target="_top" xlink:title="QualityControl/DatabaseInterface.h">
<polygon fill="none" stroke="black" points="277.5,-168.5 277.5,-187.5 447.5,-187.5 447.5,-168.5 277.5,-168.5"/>
<text text-anchor="middle" x="362.5" y="-175.5" font-family="Helvetica,sans-Serif" font-size="10.00">QualityControl/DatabaseInterface.h</text>
</a>
</g>
</g>
<!-- Node1&#45;&gt;Node3 -->
<g id="edge2" class="edge"><title>Node1&#45;&gt;Node3</title>
<path fill="none" stroke="midnightblue" d="M305.274,-224.399C316.846,-215.218 331.923,-203.258 343.696,-193.918"/>
<polygon fill="midnightblue" stroke="midnightblue" points="345.928,-196.615 351.587,-187.658 341.577,-191.131 345.928,-196.615"/>
</g>
<!-- Node4 -->
<g id="node4" class="node"><title>Node4</title>
<polygon fill="none" stroke="#bfbfbf" points="0,-0.5 0,-19.5 41,-19.5 41,-0.5 0,-0.5"/>
<text text-anchor="middle" x="20.5" y="-7.5" font-family="Helvetica,sans-Serif" font-size="10.00">string</text>
</g>
<!-- Node3&#45;&gt;Node4 -->
<g id="edge3" class="edge"><title>Node3&#45;&gt;Node4</title>
<path fill="none" stroke="midnightblue" d="M288.918,-168.473C199.481,-157.802 59.3008,-139.964 50.5,-132 21.5733,-105.825 18.5085,-56.5228 19.2275,-29.6378"/>
<polygon fill="midnightblue" stroke="midnightblue" points="22.7248,-29.7756 19.7029,-19.6209 15.7326,-29.4437 22.7248,-29.7756"/>
</g>
<!-- Node5 -->
<g id="node5" class="node"><title>Node5</title>
<polygon fill="none" stroke="#bfbfbf" points="395.5,-112.5 395.5,-131.5 447.5,-131.5 447.5,-112.5 395.5,-112.5"/>
<text text-anchor="middle" x="421.5" y="-119.5" font-family="Helvetica,sans-Serif" font-size="10.00">memory</text>
</g>
<!-- Node3&#45;&gt;Node5 -->
<g id="edge4" class="edge"><title>Node3&#45;&gt;Node5</title>
<path fill="none" stroke="midnightblue" d="M371.979,-168.324C380.701,-160.341 393.843,-148.313 404.398,-138.653"/>
<polygon fill="midnightblue" stroke="midnightblue" points="406.834,-141.167 411.848,-131.834 402.108,-136.004 406.834,-141.167"/>
</g>
<!-- Node6 -->
<g id="node6" class="node"><title>Node6</title>
<polygon fill="none" stroke="#bfbfbf" points="465.5,-112.5 465.5,-131.5 509.5,-131.5 509.5,-112.5 465.5,-112.5"/>
<text text-anchor="middle" x="487.5" y="-119.5" font-family="Helvetica,sans-Serif" font-size="10.00">vector</text>
</g>
<!-- Node3&#45;&gt;Node6 -->
<g id="edge5" class="edge"><title>Node3&#45;&gt;Node6</title>
<path fill="none" stroke="midnightblue" d="M382.307,-168.444C402.787,-159.596 434.983,-145.687 458.365,-135.586"/>
<polygon fill="midnightblue" stroke="midnightblue" points="459.994,-138.695 467.786,-131.516 457.218,-132.269 459.994,-138.695"/>
</g>
<!-- Node7 -->
<g id="node7" class="node"><title>Node7</title>
<polygon fill="none" stroke="#bfbfbf" points="528,-112.5 528,-131.5 611,-131.5 611,-112.5 528,-112.5"/>
<text text-anchor="middle" x="569.5" y="-119.5" font-family="Helvetica,sans-Serif" font-size="10.00">unordered_map</text>
</g>
<!-- Node3&#45;&gt;Node7 -->
<g id="edge6" class="edge"><title>Node3&#45;&gt;Node7</title>
<path fill="none" stroke="midnightblue" d="M395.3,-168.444C430.88,-159.162 487.814,-144.309 526.847,-134.127"/>
<polygon fill="midnightblue" stroke="midnightblue" points="528.061,-137.427 536.854,-131.516 526.294,-130.654 528.061,-137.427"/>
</g>
<!-- Node8 -->
<g id="node8" class="node"><title>Node8</title>
<g id="a_node8"><a xlink:href="QualityObject_8h_source.html" target="_top" xlink:title="QualityControl/QualityObject.h">
<polygon fill="none" stroke="black" points="229,-112.5 229,-131.5 378,-131.5 378,-112.5 229,-112.5"/>
<text text-anchor="middle" x="303.5" y="-119.5" font-family="Helvetica,sans-Serif" font-size="10.00">QualityControl/QualityObject.h</text>
</a>
</g>
</g>
<!-- Node3&#45;&gt;Node8 -->
<g id="edge7" class="edge"><title>Node3&#45;&gt;Node8</title>
<path fill="none" stroke="midnightblue" d="M353.021,-168.324C344.299,-160.341 331.157,-148.313 320.602,-138.653"/>
<polygon fill="midnightblue" stroke="midnightblue" points="322.892,-136.004 313.152,-131.834 318.166,-141.167 322.892,-136.004"/>
</g>
<!-- Node15 -->
<g id="node15" class="node"><title>Node15</title>
<g id="a_node15"><a xlink:href="MonitorObject_8h.html" target="_top" xlink:title="QualityControl/MonitorObject.h">
<polygon fill="none" stroke="black" points="60,-112.5 60,-131.5 211,-131.5 211,-112.5 60,-112.5"/>
<text text-anchor="middle" x="135.5" y="-119.5" font-family="Helvetica,sans-Serif" font-size="10.00">QualityControl/MonitorObject.h</text>
</a>
</g>
</g>
<!-- Node3&#45;&gt;Node15 -->
<g id="edge15" class="edge"><title>Node3&#45;&gt;Node15</title>
<path fill="none" stroke="midnightblue" d="M326.531,-168.444C287.181,-159.083 224.013,-144.056 181.186,-133.868"/>
<polygon fill="midnightblue" stroke="midnightblue" points="181.839,-130.426 171.301,-131.516 180.219,-137.236 181.839,-130.426"/>
</g>
<!-- Node9 -->
<g id="node9" class="node"><title>Node9</title>
<polygon fill="none" stroke="#bfbfbf" points="490.5,-56.5 490.5,-75.5 544.5,-75.5 544.5,-56.5 490.5,-56.5"/>
<text text-anchor="middle" x="517.5" y="-63.5" font-family="Helvetica,sans-Serif" font-size="10.00">iostream</text>
</g>
<!-- Node8&#45;&gt;Node9 -->
<g id="edge8" class="edge"><title>Node8&#45;&gt;Node9</title>
<path fill="none" stroke="midnightblue" d="M337.409,-112.444C376.414,-102.601 440.24,-86.4955 480.502,-76.336"/>
<polygon fill="midnightblue" stroke="midnightblue" points="481.361,-79.729 490.201,-73.8886 479.648,-72.9417 481.361,-79.729"/>
</g>
<!-- Node10 -->
<g id="node10" class="node"><title>Node10</title>
<polygon fill="none" stroke="#bfbfbf" points="221,-56.5 221,-75.5 256,-75.5 256,-56.5 221,-56.5"/>
<text text-anchor="middle" x="238.5" y="-63.5" font-family="Helvetica,sans-Serif" font-size="10.00">map</text>
</g>
<!-- Node8&#45;&gt;Node10 -->
<g id="edge9" class="edge"><title>Node8&#45;&gt;Node10</title>
<path fill="none" stroke="midnightblue" d="M293.057,-112.324C283.354,-104.263 268.685,-92.0765 257,-82.3695"/>
<polygon fill="midnightblue" stroke="midnightblue" points="259.062,-79.532 249.133,-75.8339 254.589,-84.9163 259.062,-79.532"/>
</g>
<!-- Node11 -->
<g id="node11" class="node"><title>Node11</title>
<polygon fill="none" stroke="#bfbfbf" points="274,-56.5 274,-75.5 333,-75.5 333,-56.5 274,-56.5"/>
<text text-anchor="middle" x="303.5" y="-63.5" font-family="Helvetica,sans-Serif" font-size="10.00">TObject.h</text>
</g>
<!-- Node8&#45;&gt;Node11 -->
<g id="edge10" class="edge"><title>Node8&#45;&gt;Node11</title>
<path fill="none" stroke="midnightblue" d="M303.5,-112.083C303.5,-105.006 303.5,-94.8611 303.5,-85.9865"/>
<polygon fill="midnightblue" stroke="midnightblue" points="307,-85.751 303.5,-75.7511 300,-85.7511 307,-85.751"/>
</g>
<!-- Node12 -->
<g id="node12" class="node"><title>Node12</title>
<polygon fill="none" stroke="#bfbfbf" points="86.5,-56.5 86.5,-75.5 202.5,-75.5 202.5,-56.5 86.5,-56.5"/>
<text text-anchor="middle" x="144.5" y="-63.5" font-family="Helvetica,sans-Serif" font-size="10.00">Common/Exceptions.h</text>
</g>
<!-- Node8&#45;&gt;Node12 -->
<g id="edge11" class="edge"><title>Node8&#45;&gt;Node12</title>
<path fill="none" stroke="midnightblue" d="M278.306,-112.444C251.557,-103.359 209.097,-88.9388 179.195,-78.7831"/>
<polygon fill="midnightblue" stroke="midnightblue" points="180.171,-75.4182 169.576,-75.5164 177.919,-82.0464 180.171,-75.4182"/>
</g>
<!-- Node13 -->
<g id="node13" class="node"><title>Node13</title>
<g id="a_node13"><a xlink:href="Quality_8h.html" target="_top" xlink:title="QualityControl/Quality.h">
<polygon fill="none" stroke="black" points="351,-56.5 351,-75.5 472,-75.5 472,-56.5 351,-56.5"/>
<text text-anchor="middle" x="411.5" y="-63.5" font-family="Helvetica,sans-Serif" font-size="10.00">QualityControl/Quality.h</text>
</a>
</g>
</g>
<!-- Node8&#45;&gt;Node13 -->
<g id="edge12" class="edge"><title>Node8&#45;&gt;Node13</title>
<path fill="none" stroke="midnightblue" d="M320.852,-112.324C338.172,-103.664 365.015,-90.2424 385.002,-80.249"/>
<polygon fill="midnightblue" stroke="midnightblue" points="386.812,-83.2572 394.191,-75.6545 383.681,-76.9962 386.812,-83.2572"/>
</g>
<!-- Node13&#45;&gt;Node4 -->
<g id="edge14" class="edge"><title>Node13&#45;&gt;Node4</title>
<path fill="none" stroke="midnightblue" d="M350.835,-56.6217C266.105,-44.9199 115.493,-24.1192 51.0879,-15.2244"/>
<polygon fill="midnightblue" stroke="midnightblue" points="51.5442,-11.7543 41.1593,-13.8532 50.5864,-18.6885 51.5442,-11.7543"/>
</g>
<!-- Node14 -->
<g id="node14" class="node"><title>Node14</title>
<polygon fill="none" stroke="#bfbfbf" points="221.5,-0.5 221.5,-19.5 277.5,-19.5 277.5,-0.5 221.5,-0.5"/>
<text text-anchor="middle" x="249.5" y="-7.5" font-family="Helvetica,sans-Serif" font-size="10.00">Rtypes.h</text>
</g>
<!-- Node13&#45;&gt;Node14 -->
<g id="edge13" class="edge"><title>Node13&#45;&gt;Node14</title>
<path fill="none" stroke="midnightblue" d="M385.831,-56.4435C358.577,-47.3591 315.316,-32.9388 284.849,-22.7831"/>
<polygon fill="midnightblue" stroke="midnightblue" points="285.643,-19.3584 275.049,-19.5164 283.429,-25.9992 285.643,-19.3584"/>
</g>
<!-- Node15&#45;&gt;Node4 -->
<g id="edge16" class="edge"><title>Node15&#45;&gt;Node4</title>
<path fill="none" stroke="midnightblue" d="M120.051,-112.441C105.97,-104.202 85.0568,-90.8343 69.5,-76 54.3761,-61.5785 40.3749,-42.1296 31.2457,-28.2733"/>
<polygon fill="midnightblue" stroke="midnightblue" points="34.0947,-26.2323 25.7499,-19.7044 28.2025,-30.0115 34.0947,-26.2323"/>
</g>
<!-- Node15&#45;&gt;Node10 -->
<g id="edge17" class="edge"><title>Node15&#45;&gt;Node10</title>
<path fill="none" stroke="midnightblue" d="M152.049,-112.324C168.492,-103.703 193.935,-90.3643 212.968,-80.3855"/>
<polygon fill="midnightblue" stroke="midnightblue" points="214.761,-83.3977 221.992,-75.6545 211.511,-77.198 214.761,-83.3977"/>
</g>
<!-- Node15&#45;&gt;Node11 -->
<g id="edge19" class="edge"><title>Node15&#45;&gt;Node11</title>
<path fill="none" stroke="midnightblue" d="M162.12,-112.444C190.506,-103.32 235.637,-88.8133 267.253,-78.6509"/>
<polygon fill="midnightblue" stroke="midnightblue" points="268.555,-81.9087 277.004,-75.5164 266.413,-75.2445 268.555,-81.9087"/>
</g>
<!-- Node15&#45;&gt;Node12 -->
<g id="edge20" class="edge"><title>Node15&#45;&gt;Node12</title>
<path fill="none" stroke="midnightblue" d="M136.986,-112.083C138.179,-104.927 139.894,-94.6353 141.385,-85.6911"/>
<polygon fill="midnightblue" stroke="midnightblue" points="144.85,-86.1904 143.041,-75.7511 137.945,-85.0396 144.85,-86.1904"/>
</g>
<!-- Node15&#45;&gt;Node14 -->
<g id="edge18" class="edge"><title>Node15&#45;&gt;Node14</title>
<path fill="none" stroke="midnightblue" d="M117.665,-112.304C95.1299,-100.151 61.141,-77.1896 77.5,-56 93.6868,-35.0334 165.48,-21.9536 211.043,-15.6095"/>
<polygon fill="midnightblue" stroke="midnightblue" points="211.729,-19.0489 221.174,-14.2491 210.797,-12.1112 211.729,-19.0489"/>
</g>
</g>
</svg>
