<?xml version="1.0" encoding="UTF-8" standalone="no"?>
<!DOCTYPE svg PUBLIC "-//W3C//DTD SVG 1.1//EN"
 "http://www.w3.org/Graphics/SVG/1.1/DTD/svg11.dtd">
<!-- Generated by graphviz version 2.38.0 (20140413.2041)
 -->
<!-- Title: Framework/src/ObjectsManager.cxx Pages: 1 -->
<svg width="1185pt" height="207pt"
 viewBox="0.00 0.00 1184.50 207.00" xmlns="http://www.w3.org/2000/svg" xmlns:xlink="http://www.w3.org/1999/xlink">
<g id="graph0" class="graph" transform="scale(1 1) rotate(0) translate(4 203)">
<title>Framework/src/ObjectsManager.cxx</title>
<!-- Node1 -->
<g id="node1" class="node"><title>Node1</title>
<polygon fill="#bfbfbf" stroke="black" points="746.5,-179.5 746.5,-198.5 921.5,-198.5 921.5,-179.5 746.5,-179.5"/>
<text text-anchor="middle" x="834" y="-186.5" font-family="Helvetica,sans-Serif" font-size="10.00">Framework/src/ObjectsManager.cxx</text>
</g>
<!-- Node2 -->
<g id="node2" class="node"><title>Node2</title>
<g id="a_node2"><a xlink:href="ObjectsManager_8h.html" target="_top" xlink:title="QualityControl/ObjectsManager.h">
<polygon fill="none" stroke="black" points="220.5,-123.5 220.5,-142.5 381.5,-142.5 381.5,-123.5 220.5,-123.5"/>
<text text-anchor="middle" x="301" y="-130.5" font-family="Helvetica,sans-Serif" font-size="10.00">QualityControl/ObjectsManager.h</text>
</a>
</g>
</g>
<!-- Node1&#45;&gt;Node2 -->
<g id="edge1" class="edge"><title>Node1&#45;&gt;Node2</title>
<path fill="none" stroke="midnightblue" d="M749.839,-179.473C652.276,-169.589 492.079,-153.359 391.783,-143.198"/>
<polygon fill="midnightblue" stroke="midnightblue" points="391.968,-139.698 381.666,-142.173 391.262,-146.663 391.968,-139.698"/>
</g>
<!-- Node8 -->
<g id="node8" class="node"><title>Node8</title>
<polygon fill="none" stroke="#bfbfbf" points="583,-0.5 583,-19.5 699,-19.5 699,-0.5 583,-0.5"/>
<text text-anchor="middle" x="641" y="-7.5" font-family="Helvetica,sans-Serif" font-size="10.00">Common/Exceptions.h</text>
</g>
<!-- Node1&#45;&gt;Node8 -->
<g id="edge26" class="edge"><title>Node1&#45;&gt;Node8</title>
<path fill="none" stroke="midnightblue" d="M832.953,-179.174C829.692,-155.647 817.579,-90.8532 780,-56 760.544,-37.9556 733.778,-27.1441 708.925,-20.6674"/>
<polygon fill="midnightblue" stroke="midnightblue" points="709.692,-17.2522 699.15,-18.3106 708.051,-24.0572 709.692,-17.2522"/>
</g>
<!-- Node9 -->
<g id="node9" class="node"><title>Node9</title>
<g id="a_node9"><a xlink:href="MonitorObjectCollection_8h.html" target="_top" xlink:title="QualityControl/MonitorObject\lCollection.h">
<polygon fill="none" stroke="black" points="828.5,-56.5 828.5,-86.5 971.5,-86.5 971.5,-56.5 828.5,-56.5"/>
<text text-anchor="start" x="836.5" y="-74.5" font-family="Helvetica,sans-Serif" font-size="10.00">QualityControl/MonitorObject</text>
<text text-anchor="middle" x="900" y="-63.5" font-family="Helvetica,sans-Serif" font-size="10.00">Collection.h</text>
</a>
</g>
</g>
<!-- Node1&#45;&gt;Node9 -->
<g id="edge25" class="edge"><title>Node1&#45;&gt;Node9</title>
<path fill="none" stroke="midnightblue" d="M838.961,-179.319C849.053,-161.657 872.264,-121.039 886.978,-95.2891"/>
<polygon fill="midnightblue" stroke="midnightblue" points="890.052,-96.9642 891.974,-86.5453 883.974,-93.4912 890.052,-96.9642"/>
</g>
<!-- Node10 -->
<g id="node10" class="node"><title>Node10</title>
<polygon fill="none" stroke="#bfbfbf" points="965.5,-0.5 965.5,-19.5 1034.5,-19.5 1034.5,-0.5 965.5,-0.5"/>
<text text-anchor="middle" x="1000" y="-7.5" font-family="Helvetica,sans-Serif" font-size="10.00">TObjArray.h</text>
</g>
<!-- Node1&#45;&gt;Node10 -->
<g id="edge27" class="edge"><title>Node1&#45;&gt;Node10</title>
<path fill="none" stroke="midnightblue" d="M854.685,-179.429C886.596,-165.123 947.532,-133.309 980,-87 991.964,-69.9355 996.771,-46.177 998.703,-29.7884"/>
<polygon fill="midnightblue" stroke="midnightblue" points="1002.19,-30.074 999.633,-19.7926 995.221,-29.4252 1002.19,-30.074"/>
</g>
<!-- Node15 -->
<g id="node15" class="node"><title>Node15</title>
<g id="a_node15"><a xlink:href="QcInfoLogger_8h.html" target="_top" xlink:title="QualityControl/QcInfoLogger.h">
<polygon fill="none" stroke="black" points="1027.5,-123.5 1027.5,-142.5 1176.5,-142.5 1176.5,-123.5 1027.5,-123.5"/>
<text text-anchor="middle" x="1102" y="-130.5" font-family="Helvetica,sans-Serif" font-size="10.00">QualityControl/QcInfoLogger.h</text>
</a>
</g>
</g>
<!-- Node1&#45;&gt;Node15 -->
<g id="edge16" class="edge"><title>Node1&#45;&gt;Node15</title>
<path fill="none" stroke="midnightblue" d="M876.465,-179.444C923.413,-169.984 999.076,-154.738 1049.65,-144.547"/>
<polygon fill="midnightblue" stroke="midnightblue" points="1050.62,-147.923 1059.73,-142.516 1049.24,-141.061 1050.62,-147.923"/>
</g>
<!-- Node17 -->
<g id="node17" class="node"><title>Node17</title>
<g id="a_node17"><a xlink:href="ServiceDiscovery_8h_source.html" target="_top" xlink:title="QualityControl/ServiceDiscovery.h">
<polygon fill="none" stroke="black" points="499.5,-123.5 499.5,-142.5 666.5,-142.5 666.5,-123.5 499.5,-123.5"/>
<text text-anchor="middle" x="583" y="-130.5" font-family="Helvetica,sans-Serif" font-size="10.00">QualityControl/ServiceDiscovery.h</text>
</a>
</g>
</g>
<!-- Node1&#45;&gt;Node17 -->
<g id="edge18" class="edge"><title>Node1&#45;&gt;Node17</title>
<path fill="none" stroke="midnightblue" d="M794.228,-179.444C750.442,-170.023 679.986,-154.866 632.62,-144.675"/>
<polygon fill="midnightblue" stroke="midnightblue" points="633.098,-141.198 622.586,-142.516 631.626,-148.041 633.098,-141.198"/>
</g>
<!-- Node3 -->
<g id="node3" class="node"><title>Node3</title>
<g id="a_node3"><a xlink:href="MonitorObject_8h.html" target="_top" xlink:title="QualityControl/MonitorObject.h">
<polygon fill="none" stroke="black" points="304.5,-62 304.5,-81 455.5,-81 455.5,-62 304.5,-62"/>
<text text-anchor="middle" x="380" y="-69" font-family="Helvetica,sans-Serif" font-size="10.00">QualityControl/MonitorObject.h</text>
</a>
</g>
</g>
<!-- Node2&#45;&gt;Node3 -->
<g id="edge2" class="edge"><title>Node2&#45;&gt;Node3</title>
<path fill="none" stroke="midnightblue" d="M312.319,-123.475C324.873,-114.02 345.351,-98.5961 360.499,-87.1871"/>
<polygon fill="midnightblue" stroke="midnightblue" points="362.82,-89.821 368.702,-81.0091 358.609,-84.2295 362.82,-89.821"/>
</g>
<!-- Node4 -->
<g id="node4" class="node"><title>Node4</title>
<polygon fill="none" stroke="#bfbfbf" points="181.5,-0.5 181.5,-19.5 222.5,-19.5 222.5,-0.5 181.5,-0.5"/>
<text text-anchor="middle" x="202" y="-7.5" font-family="Helvetica,sans-Serif" font-size="10.00">string</text>
</g>
<!-- Node2&#45;&gt;Node4 -->
<g id="edge14" class="edge"><title>Node2&#45;&gt;Node4</title>
<path fill="none" stroke="midnightblue" d="M244.307,-123.495C222.65,-117.18 200.046,-106.176 187,-87 175.222,-69.6883 183.317,-45.3243 191.47,-28.8885"/>
<polygon fill="midnightblue" stroke="midnightblue" points="194.7,-30.2746 196.377,-19.8133 188.542,-26.9454 194.7,-30.2746"/>
</g>
<!-- Node2&#45;&gt;Node9 -->
<g id="edge8" class="edge"><title>Node2&#45;&gt;Node9</title>
<path fill="none" stroke="midnightblue" d="M381.58,-125.088C476.822,-116.766 640.063,-102.025 780,-87 792.348,-85.6742 805.4,-84.1865 818.17,-82.6826"/>
<polygon fill="midnightblue" stroke="midnightblue" points="818.815,-86.1307 828.332,-81.4758 817.989,-79.1795 818.815,-86.1307"/>
</g>
<!-- Node12 -->
<g id="node12" class="node"><title>Node12</title>
<g id="a_node12"><a xlink:href="TaskConfig_8h.html" target="_top" xlink:title="QualityControl/TaskConfig.h">
<polygon fill="none" stroke="black" points="0,-62 0,-81 140,-81 140,-62 0,-62"/>
<text text-anchor="middle" x="70" y="-69" font-family="Helvetica,sans-Serif" font-size="10.00">QualityControl/TaskConfig.h</text>
</a>
</g>
</g>
<!-- Node2&#45;&gt;Node12 -->
<g id="edge11" class="edge"><title>Node2&#45;&gt;Node12</title>
<path fill="none" stroke="midnightblue" d="M267.903,-123.475C227.078,-112.959 157.592,-95.0615 112.761,-83.5142"/>
<polygon fill="midnightblue" stroke="midnightblue" points="113.592,-80.1141 103.035,-81.0091 111.846,-86.8929 113.592,-80.1141"/>
</g>
<!-- Node14 -->
<g id="node14" class="node"><title>Node14</title>
<polygon fill="none" stroke="#bfbfbf" points="196,-62 196,-81 248,-81 248,-62 196,-62"/>
<text text-anchor="middle" x="222" y="-69" font-family="Helvetica,sans-Serif" font-size="10.00">memory</text>
</g>
<!-- Node2&#45;&gt;Node14 -->
<g id="edge15" class="edge"><title>Node2&#45;&gt;Node14</title>
<path fill="none" stroke="midnightblue" d="M289.681,-123.475C277.127,-114.02 256.649,-98.5961 241.501,-87.1871"/>
<polygon fill="midnightblue" stroke="midnightblue" points="243.391,-84.2295 233.298,-81.0091 239.18,-89.821 243.391,-84.2295"/>
</g>
<!-- Node3&#45;&gt;Node4 -->
<g id="edge3" class="edge"><title>Node3&#45;&gt;Node4</title>
<path fill="none" stroke="midnightblue" d="M354.497,-61.9751C322.212,-51.1832 266.666,-32.616 232.267,-21.1174"/>
<polygon fill="midnightblue" stroke="midnightblue" points="233.335,-17.7841 222.741,-17.9332 231.116,-24.423 233.335,-17.7841"/>
</g>
<!-- Node5 -->
<g id="node5" class="node"><title>Node5</title>
<polygon fill="none" stroke="#bfbfbf" points="427.5,-0.5 427.5,-19.5 462.5,-19.5 462.5,-0.5 427.5,-0.5"/>
<text text-anchor="middle" x="445" y="-7.5" font-family="Helvetica,sans-Serif" font-size="10.00">map</text>
</g>
<!-- Node3&#45;&gt;Node5 -->
<g id="edge4" class="edge"><title>Node3&#45;&gt;Node5</title>
<path fill="none" stroke="midnightblue" d="M389.313,-61.9751C399.449,-52.6966 415.864,-37.6706 428.252,-26.331"/>
<polygon fill="midnightblue" stroke="midnightblue" points="430.691,-28.8429 435.704,-19.5091 425.965,-23.6795 430.691,-28.8429"/>
</g>
<!-- Node6 -->
<g id="node6" class="node"><title>Node6</title>
<polygon fill="none" stroke="#bfbfbf" points="276,-0.5 276,-19.5 332,-19.5 332,-0.5 276,-0.5"/>
<text text-anchor="middle" x="304" y="-7.5" font-family="Helvetica,sans-Serif" font-size="10.00">Rtypes.h</text>
</g>
<!-- Node3&#45;&gt;Node6 -->
<g id="edge5" class="edge"><title>Node3&#45;&gt;Node6</title>
<path fill="none" stroke="midnightblue" d="M369.111,-61.9751C357.034,-52.5199 337.333,-37.0961 322.76,-25.6871"/>
<polygon fill="midnightblue" stroke="midnightblue" points="324.9,-22.9177 314.869,-19.5091 320.585,-28.4295 324.9,-22.9177"/>
</g>
<!-- Node7 -->
<g id="node7" class="node"><title>Node7</title>
<polygon fill="none" stroke="#bfbfbf" points="350.5,-0.5 350.5,-19.5 409.5,-19.5 409.5,-0.5 350.5,-0.5"/>
<text text-anchor="middle" x="380" y="-7.5" font-family="Helvetica,sans-Serif" font-size="10.00">TObject.h</text>
</g>
<!-- Node3&#45;&gt;Node7 -->
<g id="edge6" class="edge"><title>Node3&#45;&gt;Node7</title>
<path fill="none" stroke="midnightblue" d="M380,-61.9751C380,-53.5803 380,-40.4806 380,-29.6631"/>
<polygon fill="midnightblue" stroke="midnightblue" points="383.5,-29.5091 380,-19.5091 376.5,-29.5091 383.5,-29.5091"/>
</g>
<!-- Node3&#45;&gt;Node8 -->
<g id="edge7" class="edge"><title>Node3&#45;&gt;Node8</title>
<path fill="none" stroke="midnightblue" d="M417.395,-61.9751C463.813,-51.3932 543.024,-33.3356 593.64,-21.7966"/>
<polygon fill="midnightblue" stroke="midnightblue" points="594.703,-25.1443 603.674,-19.5091 593.147,-18.3194 594.703,-25.1443"/>
</g>
<!-- Node9&#45;&gt;Node10 -->
<g id="edge9" class="edge"><title>Node9&#45;&gt;Node10</title>
<path fill="none" stroke="midnightblue" d="M923.699,-56.3993C939.728,-46.8619 960.799,-34.3248 976.736,-24.8422"/>
<polygon fill="midnightblue" stroke="midnightblue" points="978.645,-27.779 985.449,-19.6578 975.066,-21.7633 978.645,-27.779"/>
</g>
<!-- Node11 -->
<g id="node11" class="node"><title>Node11</title>
<polygon fill="none" stroke="#bfbfbf" points="819,-0.5 819,-19.5 947,-19.5 947,-0.5 819,-0.5"/>
<text text-anchor="middle" x="883" y="-7.5" font-family="Helvetica,sans-Serif" font-size="10.00">Mergers/MergeInterface.h</text>
</g>
<!-- Node9&#45;&gt;Node11 -->
<g id="edge10" class="edge"><title>Node9&#45;&gt;Node11</title>
<path fill="none" stroke="midnightblue" d="M895.971,-56.3993C893.654,-48.2881 890.716,-38.0071 888.223,-29.2807"/>
<polygon fill="midnightblue" stroke="midnightblue" points="891.586,-28.3115 885.474,-19.6578 884.856,-30.2346 891.586,-28.3115"/>
</g>
<!-- Node12&#45;&gt;Node4 -->
<g id="edge12" class="edge"><title>Node12&#45;&gt;Node4</title>
<path fill="none" stroke="midnightblue" d="M88.9124,-61.9751C111.163,-51.9455 148.312,-35.2002 173.926,-23.6546"/>
<polygon fill="midnightblue" stroke="midnightblue" points="175.444,-26.8094 183.123,-19.5091 172.568,-20.4277 175.444,-26.8094"/>
</g>
<!-- Node13 -->
<g id="node13" class="node"><title>Node13</title>
<polygon fill="none" stroke="#bfbfbf" points="28.5,-0.5 28.5,-19.5 111.5,-19.5 111.5,-0.5 28.5,-0.5"/>
<text text-anchor="middle" x="70" y="-7.5" font-family="Helvetica,sans-Serif" font-size="10.00">unordered_map</text>
</g>
<!-- Node12&#45;&gt;Node13 -->
<g id="edge13" class="edge"><title>Node12&#45;&gt;Node13</title>
<path fill="none" stroke="midnightblue" d="M70,-61.9751C70,-53.5803 70,-40.4806 70,-29.6631"/>
<polygon fill="midnightblue" stroke="midnightblue" points="73.5001,-29.5091 70,-19.5091 66.5001,-29.5091 73.5001,-29.5091"/>
</g>
<!-- Node16 -->
<g id="node16" class="node"><title>Node16</title>
<polygon fill="none" stroke="#bfbfbf" points="1037,-62 1037,-81 1167,-81 1167,-62 1037,-62"/>
<text text-anchor="middle" x="1102" y="-69" font-family="Helvetica,sans-Serif" font-size="10.00">InfoLogger/InfoLogger.hxx</text>
</g>
<!-- Node15&#45;&gt;Node16 -->
<g id="edge17" class="edge"><title>Node15&#45;&gt;Node16</title>
<path fill="none" stroke="midnightblue" d="M1102,-123.475C1102,-115.08 1102,-101.981 1102,-91.1631"/>
<polygon fill="midnightblue" stroke="midnightblue" points="1105.5,-91.0091 1102,-81.0091 1098.5,-91.0091 1105.5,-91.0091"/>
</g>
<!-- Node17&#45;&gt;Node4 -->
<g id="edge22" class="edge"><title>Node17&#45;&gt;Node4</title>
<path fill="none" stroke="midnightblue" d="M499.355,-130.473C440.044,-126.682 359.805,-115.946 295,-87 294.729,-86.8789 247.697,-48.4019 220.63,-26.2496"/>
<polygon fill="midnightblue" stroke="midnightblue" points="222.583,-23.3255 212.628,-19.7003 218.15,-28.7425 222.583,-23.3255"/>
</g>
<!-- Node17&#45;&gt;Node14 -->
<g id="edge21" class="edge"><title>Node17&#45;&gt;Node14</title>
<path fill="none" stroke="midnightblue" d="M499.288,-125.087C433.973,-118.539 341.326,-106.709 262,-87 258.944,-86.2408 255.797,-85.3324 252.674,-84.3456"/>
<polygon fill="midnightblue" stroke="midnightblue" points="253.514,-80.934 242.919,-81.0128 251.251,-87.558 253.514,-80.934"/>
</g>
<!-- Node18 -->
<g id="node18" class="node"><title>Node18</title>
<polygon fill="none" stroke="#bfbfbf" points="648,-62 648,-81 694,-81 694,-62 648,-62"/>
<text text-anchor="middle" x="671" y="-69" font-family="Helvetica,sans-Serif" font-size="10.00">atomic</text>
</g>
<!-- Node17&#45;&gt;Node18 -->
<g id="edge19" class="edge"><title>Node17&#45;&gt;Node18</title>
<path fill="none" stroke="midnightblue" d="M595.608,-123.475C609.723,-113.931 632.831,-98.3073 649.749,-86.8683"/>
<polygon fill="midnightblue" stroke="midnightblue" points="652.091,-89.5098 658.415,-81.0091 648.171,-83.7109 652.091,-89.5098"/>
</g>
<!-- Node19 -->
<g id="node19" class="node"><title>Node19</title>
<polygon fill="none" stroke="#bfbfbf" points="712.5,-62 712.5,-81 771.5,-81 771.5,-62 712.5,-62"/>
<text text-anchor="middle" x="742" y="-69" font-family="Helvetica,sans-Serif" font-size="10.00">curl/curl.h</text>
</g>
<!-- Node17&#45;&gt;Node19 -->
<g id="edge20" class="edge"><title>Node17&#45;&gt;Node19</title>
<path fill="none" stroke="midnightblue" d="M605.781,-123.475C633.055,-113.269 678.913,-96.108 709.801,-84.5492"/>
<polygon fill="midnightblue" stroke="midnightblue" points="711.122,-87.7919 719.261,-81.0091 708.669,-81.2359 711.122,-87.7919"/>
</g>
<!-- Node20 -->
<g id="node20" class="node"><title>Node20</title>
<polygon fill="none" stroke="#bfbfbf" points="474,-62 474,-81 518,-81 518,-62 474,-62"/>
<text text-anchor="middle" x="496" y="-69" font-family="Helvetica,sans-Serif" font-size="10.00">thread</text>
</g>
<!-- Node17&#45;&gt;Node20 -->
<g id="edge23" class="edge"><title>Node17&#45;&gt;Node20</title>
<path fill="none" stroke="midnightblue" d="M570.535,-123.475C556.581,-113.931 533.735,-98.3073 517.009,-86.8683"/>
<polygon fill="midnightblue" stroke="midnightblue" points="518.672,-83.7653 508.442,-81.0091 514.72,-89.5433 518.672,-83.7653"/>
</g>
<!-- Node21 -->
<g id="node21" class="node"><title>Node21</title>
<polygon fill="none" stroke="#bfbfbf" points="536,-56.5 536,-86.5 630,-86.5 630,-56.5 536,-56.5"/>
<text text-anchor="start" x="544" y="-74.5" font-family="Helvetica,sans-Serif" font-size="10.00">boost/asio/ip/host</text>
<text text-anchor="middle" x="583" y="-63.5" font-family="Helvetica,sans-Serif" font-size="10.00">_name.hpp</text>
</g>
<!-- Node17&#45;&gt;Node21 -->
<g id="edge24" class="edge"><title>Node17&#45;&gt;Node21</title>
<path fill="none" stroke="midnightblue" d="M583,-123.475C583,-116.471 583,-106.192 583,-96.6956"/>
<polygon fill="midnightblue" stroke="midnightblue" points="586.5,-96.5229 583,-86.523 579.5,-96.523 586.5,-96.5229"/>
</g>
</g>
</svg>
