<?xml version="1.0" encoding="UTF-8" standalone="no"?>
<!DOCTYPE svg PUBLIC "-//W3C//DTD SVG 1.1//EN"
 "http://www.w3.org/Graphics/SVG/1.1/DTD/svg11.dtd">
<!-- Generated by graphviz version 2.38.0 (20140413.2041)
 -->
<!-- Title: Modules/MUON/MCH/src/PedestalsTask.cxx Pages: 1 -->
<svg width="1772pt" height="464pt"
 viewBox="0.00 0.00 1771.50 464.00" xmlns="http://www.w3.org/2000/svg" xmlns:xlink="http://www.w3.org/1999/xlink">
<g id="graph0" class="graph" transform="scale(1 1) rotate(0) translate(4 460)">
<title>Modules/MUON/MCH/src/PedestalsTask.cxx</title>
<!-- Node1 -->
<g id="node1" class="node"><title>Node1</title>
<polygon fill="#bfbfbf" stroke="black" points="742.5,-425.5 742.5,-455.5 872.5,-455.5 872.5,-425.5 742.5,-425.5"/>
<text text-anchor="start" x="750.5" y="-443.5" font-family="Helvetica,sans-Serif" font-size="10.00">Modules/MUON/MCH/src</text>
<text text-anchor="middle" x="807.5" y="-432.5" font-family="Helvetica,sans-Serif" font-size="10.00">/PedestalsTask.cxx</text>
</g>
<!-- Node2 -->
<g id="node2" class="node"><title>Node2</title>
<polygon fill="none" stroke="#bfbfbf" points="0,-364 0,-383 65,-383 65,-364 0,-364"/>
<text text-anchor="middle" x="32.5" y="-371" font-family="Helvetica,sans-Serif" font-size="10.00">TCanvas.h</text>
</g>
<!-- Node1&#45;&gt;Node2 -->
<g id="edge1" class="edge"><title>Node1&#45;&gt;Node2</title>
<path fill="none" stroke="midnightblue" d="M742.284,-437.209C587.468,-431.416 201.297,-414.783 74.5,-389 70.992,-388.287 67.3757,-387.356 63.8056,-386.309"/>
<polygon fill="midnightblue" stroke="midnightblue" points="64.5867,-382.883 53.995,-383.139 62.4343,-389.544 64.5867,-382.883"/>
</g>
<!-- Node3 -->
<g id="node3" class="node"><title>Node3</title>
<polygon fill="none" stroke="#bfbfbf" points="83.5,-364 83.5,-383 127.5,-383 127.5,-364 83.5,-364"/>
<text text-anchor="middle" x="105.5" y="-371" font-family="Helvetica,sans-Serif" font-size="10.00">TH1.h</text>
</g>
<!-- Node1&#45;&gt;Node3 -->
<g id="edge2" class="edge"><title>Node1&#45;&gt;Node3</title>
<path fill="none" stroke="midnightblue" d="M742.264,-437.586C596.784,-432.833 249.718,-418.672 136.5,-389 134.517,-388.48 132.506,-387.837 130.509,-387.114"/>
<polygon fill="midnightblue" stroke="midnightblue" points="131.429,-383.702 120.856,-383.022 128.697,-390.147 131.429,-383.702"/>
</g>
<!-- Node4 -->
<g id="node4" class="node"><title>Node4</title>
<polygon fill="none" stroke="#bfbfbf" points="145.5,-364 145.5,-383 189.5,-383 189.5,-364 145.5,-364"/>
<text text-anchor="middle" x="167.5" y="-371" font-family="Helvetica,sans-Serif" font-size="10.00">TH2.h</text>
</g>
<!-- Node1&#45;&gt;Node4 -->
<g id="edge3" class="edge"><title>Node1&#45;&gt;Node4</title>
<path fill="none" stroke="midnightblue" d="M742.365,-436.903C607.254,-431.056 300.671,-415.282 199.5,-389 197.342,-388.439 195.147,-387.743 192.971,-386.961"/>
<polygon fill="midnightblue" stroke="midnightblue" points="194.293,-383.721 183.714,-383.143 191.623,-390.192 194.293,-383.721"/>
</g>
<!-- Node5 -->
<g id="node5" class="node"><title>Node5</title>
<polygon fill="none" stroke="#bfbfbf" points="208,-364 208,-383 255,-383 255,-364 208,-364"/>
<text text-anchor="middle" x="231.5" y="-371" font-family="Helvetica,sans-Serif" font-size="10.00">TFile.h</text>
</g>
<!-- Node1&#45;&gt;Node5 -->
<g id="edge4" class="edge"><title>Node1&#45;&gt;Node5</title>
<path fill="none" stroke="midnightblue" d="M742.404,-440.124C639.316,-439.632 432.916,-432.608 264.5,-389 262.2,-388.404 259.856,-387.667 257.532,-386.842"/>
<polygon fill="midnightblue" stroke="midnightblue" points="258.838,-383.594 248.254,-383.103 256.221,-390.087 258.838,-383.594"/>
</g>
<!-- Node6 -->
<g id="node6" class="node"><title>Node6</title>
<polygon fill="none" stroke="#bfbfbf" points="273,-364 273,-383 414,-383 414,-364 273,-364"/>
<text text-anchor="middle" x="343.5" y="-371" font-family="Helvetica,sans-Serif" font-size="10.00">Headers/RAWDataHeader.h</text>
</g>
<!-- Node1&#45;&gt;Node6 -->
<g id="edge5" class="edge"><title>Node1&#45;&gt;Node6</title>
<path fill="none" stroke="midnightblue" d="M742.476,-431.925C665.995,-422.789 535.276,-406.469 423.5,-389 415.37,-387.729 406.794,-386.286 398.397,-384.813"/>
<polygon fill="midnightblue" stroke="midnightblue" points="398.744,-381.32 388.285,-383.013 397.517,-388.212 398.744,-381.32"/>
</g>
<!-- Node7 -->
<g id="node7" class="node"><title>Node7</title>
<polygon fill="none" stroke="#bfbfbf" points="432.5,-364 432.5,-383 580.5,-383 580.5,-364 432.5,-364"/>
<text text-anchor="middle" x="506.5" y="-371" font-family="Helvetica,sans-Serif" font-size="10.00">Framework/CallbackService.h</text>
</g>
<!-- Node1&#45;&gt;Node7 -->
<g id="edge6" class="edge"><title>Node1&#45;&gt;Node7</title>
<path fill="none" stroke="midnightblue" d="M742.558,-425.476C686.498,-413.37 606.723,-396.143 555.782,-385.142"/>
<polygon fill="midnightblue" stroke="midnightblue" points="556.508,-381.718 545.994,-383.029 555.03,-388.561 556.508,-381.718"/>
</g>
<!-- Node8 -->
<g id="node8" class="node"><title>Node8</title>
<polygon fill="none" stroke="#bfbfbf" points="599,-364 599,-383 740,-383 740,-364 599,-364"/>
<text text-anchor="middle" x="669.5" y="-371" font-family="Helvetica,sans-Serif" font-size="10.00">Framework/ControlService.h</text>
</g>
<!-- Node1&#45;&gt;Node8 -->
<g id="edge7" class="edge"><title>Node1&#45;&gt;Node8</title>
<path fill="none" stroke="midnightblue" d="M777.556,-425.396C753.557,-414.092 720.158,-398.361 696.867,-387.39"/>
<polygon fill="midnightblue" stroke="midnightblue" points="698.099,-384.102 687.561,-383.007 695.116,-390.435 698.099,-384.102"/>
</g>
<!-- Node9 -->
<g id="node9" class="node"><title>Node9</title>
<polygon fill="none" stroke="#bfbfbf" points="758.5,-364 758.5,-383 856.5,-383 856.5,-364 758.5,-364"/>
<text text-anchor="middle" x="807.5" y="-371" font-family="Helvetica,sans-Serif" font-size="10.00">Framework/Task.h</text>
</g>
<!-- Node1&#45;&gt;Node9 -->
<g id="edge8" class="edge"><title>Node1&#45;&gt;Node9</title>
<path fill="none" stroke="midnightblue" d="M807.5,-425.396C807.5,-416.064 807.5,-403.714 807.5,-393.517"/>
<polygon fill="midnightblue" stroke="midnightblue" points="811,-393.195 807.5,-383.195 804,-393.195 811,-393.195"/>
</g>
<!-- Node10 -->
<g id="node10" class="node"><title>Node10</title>
<polygon fill="none" stroke="#bfbfbf" points="874.5,-364 874.5,-383 1010.5,-383 1010.5,-364 874.5,-364"/>
<text text-anchor="middle" x="942.5" y="-371" font-family="Helvetica,sans-Serif" font-size="10.00">DPLUtils/DPLRawParser.h</text>
</g>
<!-- Node1&#45;&gt;Node10 -->
<g id="edge9" class="edge"><title>Node1&#45;&gt;Node10</title>
<path fill="none" stroke="midnightblue" d="M836.793,-425.396C860.271,-414.092 892.943,-398.361 915.728,-387.39"/>
<polygon fill="midnightblue" stroke="midnightblue" points="917.34,-390.499 924.832,-383.007 914.303,-384.192 917.34,-390.499"/>
</g>
<!-- Node11 -->
<g id="node11" class="node"><title>Node11</title>
<g id="a_node11"><a xlink:href="QcInfoLogger_8h.html" target="_top" xlink:title="QualityControl/QcInfoLogger.h">
<polygon fill="none" stroke="black" points="1029,-364 1029,-383 1178,-383 1178,-364 1029,-364"/>
<text text-anchor="middle" x="1103.5" y="-371" font-family="Helvetica,sans-Serif" font-size="10.00">QualityControl/QcInfoLogger.h</text>
</a>
</g>
</g>
<!-- Node1&#45;&gt;Node11 -->
<g id="edge10" class="edge"><title>Node1&#45;&gt;Node11</title>
<path fill="none" stroke="midnightblue" d="M871.363,-425.476C926.377,-413.395 1004.62,-396.215 1054.72,-385.211"/>
<polygon fill="midnightblue" stroke="midnightblue" points="1055.65,-388.592 1064.66,-383.029 1054.14,-381.755 1055.65,-388.592"/>
</g>
<!-- Node13 -->
<g id="node13" class="node"><title>Node13</title>
<g id="a_node13"><a xlink:href="PedestalsTask_8h.html" target="_top" xlink:title="MCH/PedestalsTask.h">
<polygon fill="none" stroke="black" points="1195.5,-364 1195.5,-383 1311.5,-383 1311.5,-364 1195.5,-364"/>
<text text-anchor="middle" x="1253.5" y="-371" font-family="Helvetica,sans-Serif" font-size="10.00">MCH/PedestalsTask.h</text>
</a>
</g>
</g>
<!-- Node1&#45;&gt;Node13 -->
<g id="edge12" class="edge"><title>Node1&#45;&gt;Node13</title>
<path fill="none" stroke="midnightblue" d="M872.64,-432.532C948.528,-424.024 1077.55,-408.349 1187.5,-389 1193.87,-387.879 1200.56,-386.569 1207.13,-385.202"/>
<polygon fill="midnightblue" stroke="midnightblue" points="1208.25,-388.541 1217.3,-383.028 1206.79,-381.696 1208.25,-388.541"/>
</g>
<!-- Node32 -->
<g id="node32" class="node"><title>Node32</title>
<polygon fill="none" stroke="#bfbfbf" points="1254,-179.5 1254,-209.5 1369,-209.5 1369,-179.5 1254,-179.5"/>
<text text-anchor="start" x="1262" y="-197.5" font-family="Helvetica,sans-Serif" font-size="10.00">MCHMappingInterface</text>
<text text-anchor="middle" x="1311.5" y="-186.5" font-family="Helvetica,sans-Serif" font-size="10.00">/Segmentation.h</text>
</g>
<!-- Node1&#45;&gt;Node32 -->
<g id="edge46" class="edge"><title>Node1&#45;&gt;Node32</title>
<path fill="none" stroke="midnightblue" d="M872.59,-437.078C1007.09,-431.543 1306.25,-416.295 1343.5,-389 1398.05,-349.028 1428.79,-304.864 1395.5,-246 1387.73,-232.271 1374.58,-221.863 1360.96,-214.172"/>
<polygon fill="midnightblue" stroke="midnightblue" points="1362.47,-211.016 1351.99,-209.502 1359.24,-217.225 1362.47,-211.016"/>
</g>
<!-- Node35 -->
<g id="node35" class="node"><title>Node35</title>
<polygon fill="none" stroke="#bfbfbf" points="1292.5,-246.5 1292.5,-265.5 1386.5,-265.5 1386.5,-246.5 1292.5,-246.5"/>
<text text-anchor="middle" x="1339.5" y="-253.5" font-family="Helvetica,sans-Serif" font-size="10.00">MCHBase/Digit.h</text>
</g>
<!-- Node1&#45;&gt;Node35 -->
<g id="edge45" class="edge"><title>Node1&#45;&gt;Node35</title>
<path fill="none" stroke="midnightblue" d="M872.605,-437.508C1003.48,-432.876 1288.72,-419.382 1320.5,-389 1351.23,-359.619 1347.65,-304.473 1343.17,-275.641"/>
<polygon fill="midnightblue" stroke="midnightblue" points="1346.6,-274.914 1341.42,-265.672 1339.7,-276.127 1346.6,-274.914"/>
</g>
<!-- Node36 -->
<g id="node36" class="node"><title>Node36</title>
<polygon fill="none" stroke="#bfbfbf" points="1443,-358.5 1443,-388.5 1568,-388.5 1568,-358.5 1443,-358.5"/>
<text text-anchor="start" x="1451" y="-376.5" font-family="Helvetica,sans-Serif" font-size="10.00">MCHMappingInterface</text>
<text text-anchor="middle" x="1505.5" y="-365.5" font-family="Helvetica,sans-Serif" font-size="10.00">/CathodeSegmentation.h</text>
</g>
<!-- Node1&#45;&gt;Node36 -->
<g id="edge47" class="edge"><title>Node1&#45;&gt;Node36</title>
<path fill="none" stroke="midnightblue" d="M872.557,-436.462C985.881,-430.668 1226.69,-416.131 1428.5,-389 1429.97,-388.802 1431.46,-388.594 1432.96,-388.378"/>
<polygon fill="midnightblue" stroke="midnightblue" points="1433.62,-391.818 1442.97,-386.843 1432.56,-384.899 1433.62,-391.818"/>
</g>
<!-- Node37 -->
<g id="node37" class="node"><title>Node37</title>
<polygon fill="none" stroke="#bfbfbf" points="1586.5,-364 1586.5,-383 1728.5,-383 1728.5,-364 1586.5,-364"/>
<text text-anchor="middle" x="1657.5" y="-371" font-family="Helvetica,sans-Serif" font-size="10.00">MCHRawElecMap/Mapper.h</text>
</g>
<!-- Node1&#45;&gt;Node37 -->
<g id="edge48" class="edge"><title>Node1&#45;&gt;Node37</title>
<path fill="none" stroke="midnightblue" d="M872.634,-437.729C1005.57,-433.565 1317.55,-420.977 1577.5,-389 1586.66,-387.874 1596.35,-386.377 1605.71,-384.773"/>
<polygon fill="midnightblue" stroke="midnightblue" points="1606.47,-388.195 1615.7,-383.003 1605.25,-381.302 1606.47,-388.195"/>
</g>
<!-- Node12 -->
<g id="node12" class="node"><title>Node12</title>
<polygon fill="none" stroke="#bfbfbf" points="828.5,-302.5 828.5,-321.5 958.5,-321.5 958.5,-302.5 828.5,-302.5"/>
<text text-anchor="middle" x="893.5" y="-309.5" font-family="Helvetica,sans-Serif" font-size="10.00">InfoLogger/InfoLogger.hxx</text>
</g>
<!-- Node11&#45;&gt;Node12 -->
<g id="edge11" class="edge"><title>Node11&#45;&gt;Node12</title>
<path fill="none" stroke="midnightblue" d="M1073.41,-363.975C1036.61,-353.548 974.189,-335.862 933.406,-324.307"/>
<polygon fill="midnightblue" stroke="midnightblue" points="934.107,-320.868 923.532,-321.509 932.199,-327.603 934.107,-320.868"/>
</g>
<!-- Node14 -->
<g id="node14" class="node"><title>Node14</title>
<g id="a_node14"><a xlink:href="TaskInterface_8h.html" target="_top" xlink:title="QualityControl/TaskInterface.h">
<polygon fill="none" stroke="black" points="983.5,-185 983.5,-204 1133.5,-204 1133.5,-185 983.5,-185"/>
<text text-anchor="middle" x="1058.5" y="-192" font-family="Helvetica,sans-Serif" font-size="10.00">QualityControl/TaskInterface.h</text>
</a>
</g>
</g>
<!-- Node13&#45;&gt;Node14 -->
<g id="edge13" class="edge"><title>Node13&#45;&gt;Node14</title>
<path fill="none" stroke="midnightblue" d="M1222.62,-363.94C1161.76,-346.371 1030.1,-304.634 1005.5,-266 992.531,-245.636 1015.64,-223.614 1035.31,-209.701"/>
<polygon fill="midnightblue" stroke="midnightblue" points="1037.33,-212.562 1043.68,-204.088 1033.43,-206.747 1037.33,-212.562"/>
</g>
<!-- Node31 -->
<g id="node31" class="node"><title>Node31</title>
<g id="a_node31"><a xlink:href="Mapping_8h_source.html" target="_top" xlink:title="MCH/Mapping.h">
<polygon fill="none" stroke="black" points="1014.5,-246.5 1014.5,-265.5 1102.5,-265.5 1102.5,-246.5 1014.5,-246.5"/>
<text text-anchor="middle" x="1058.5" y="-253.5" font-family="Helvetica,sans-Serif" font-size="10.00">MCH/Mapping.h</text>
</a>
</g>
</g>
<!-- Node13&#45;&gt;Node31 -->
<g id="edge36" class="edge"><title>Node13&#45;&gt;Node31</title>
<path fill="none" stroke="midnightblue" d="M1237.04,-363.857C1218.51,-354.03 1187.56,-337.355 1161.5,-322 1133.06,-305.244 1101.01,-284.756 1080.32,-271.316"/>
<polygon fill="midnightblue" stroke="midnightblue" points="1081.96,-268.205 1071.67,-265.676 1078.14,-274.069 1081.96,-268.205"/>
</g>
<!-- Node33 -->
<g id="node33" class="node"><title>Node33</title>
<g id="a_node33"><a xlink:href="Decoding_8h.html" target="_top" xlink:title="MCH/Decoding.h">
<polygon fill="none" stroke="black" points="1170.5,-302.5 1170.5,-321.5 1262.5,-321.5 1262.5,-302.5 1170.5,-302.5"/>
<text text-anchor="middle" x="1216.5" y="-309.5" font-family="Helvetica,sans-Serif" font-size="10.00">MCH/Decoding.h</text>
</a>
</g>
</g>
<!-- Node13&#45;&gt;Node33 -->
<g id="edge39" class="edge"><title>Node13&#45;&gt;Node33</title>
<path fill="none" stroke="midnightblue" d="M1248.2,-363.975C1242.76,-355.227 1234.14,-341.369 1227.26,-330.309"/>
<polygon fill="midnightblue" stroke="midnightblue" points="1230.04,-328.153 1221.79,-321.509 1224.1,-331.849 1230.04,-328.153"/>
</g>
<!-- Node13&#45;&gt;Node35 -->
<g id="edge44" class="edge"><title>Node13&#45;&gt;Node35</title>
<path fill="none" stroke="midnightblue" d="M1259.96,-363.819C1274.16,-344.755 1308.27,-298.947 1326.87,-273.958"/>
<polygon fill="midnightblue" stroke="midnightblue" points="1329.8,-275.893 1332.96,-265.782 1324.18,-271.713 1329.8,-275.893"/>
</g>
<!-- Node15 -->
<g id="node15" class="node"><title>Node15</title>
<polygon fill="none" stroke="#bfbfbf" points="1084,-0.5 1084,-19.5 1119,-19.5 1119,-0.5 1084,-0.5"/>
<text text-anchor="middle" x="1101.5" y="-7.5" font-family="Helvetica,sans-Serif" font-size="10.00">map</text>
</g>
<!-- Node14&#45;&gt;Node15 -->
<g id="edge14" class="edge"><title>Node14&#45;&gt;Node15</title>
<path fill="none" stroke="midnightblue" d="M1022.4,-184.843C1000.66,-177.567 974.698,-164.75 961.5,-143 941.441,-109.943 938.723,-87.246 961.5,-56 987.037,-20.9681 1040.29,-12.611 1073.26,-10.9548"/>
<polygon fill="midnightblue" stroke="midnightblue" points="1073.71,-14.4422 1083.59,-10.6212 1073.48,-7.4458 1073.71,-14.4422"/>
</g>
<!-- Node16 -->
<g id="node16" class="node"><title>Node16</title>
<polygon fill="none" stroke="#bfbfbf" points="1014.5,-62 1014.5,-81 1066.5,-81 1066.5,-62 1014.5,-62"/>
<text text-anchor="middle" x="1040.5" y="-69" font-family="Helvetica,sans-Serif" font-size="10.00">memory</text>
</g>
<!-- Node14&#45;&gt;Node16 -->
<g id="edge15" class="edge"><title>Node14&#45;&gt;Node16</title>
<path fill="none" stroke="midnightblue" d="M1052.55,-184.674C1046.39,-174.954 1037.16,-158.622 1033.5,-143 1029.48,-125.801 1032.17,-105.712 1035.31,-91.3889"/>
<polygon fill="midnightblue" stroke="midnightblue" points="1038.8,-91.8508 1037.81,-81.3029 1032.01,-90.1698 1038.8,-91.8508"/>
</g>
<!-- Node17 -->
<g id="node17" class="node"><title>Node17</title>
<polygon fill="none" stroke="#bfbfbf" points="1169,-0.5 1169,-19.5 1210,-19.5 1210,-0.5 1169,-0.5"/>
<text text-anchor="middle" x="1189.5" y="-7.5" font-family="Helvetica,sans-Serif" font-size="10.00">string</text>
</g>
<!-- Node14&#45;&gt;Node17 -->
<g id="edge16" class="edge"><title>Node14&#45;&gt;Node17</title>
<path fill="none" stroke="midnightblue" d="M1049.82,-184.895C1027.64,-161.848 972.802,-97.6581 1005.5,-56 1015,-43.8943 1108.98,-25.4328 1158.82,-16.3824"/>
<polygon fill="midnightblue" stroke="midnightblue" points="1159.52,-19.8136 1168.74,-14.5997 1158.28,-12.924 1159.52,-19.8136"/>
</g>
<!-- Node18 -->
<g id="node18" class="node"><title>Node18</title>
<polygon fill="none" stroke="#bfbfbf" points="919,-0.5 919,-19.5 1002,-19.5 1002,-0.5 919,-0.5"/>
<text text-anchor="middle" x="960.5" y="-7.5" font-family="Helvetica,sans-Serif" font-size="10.00">unordered_map</text>
</g>
<!-- Node14&#45;&gt;Node18 -->
<g id="edge17" class="edge"><title>Node14&#45;&gt;Node18</title>
<path fill="none" stroke="midnightblue" d="M1015.31,-184.999C991.351,-177.933 963.29,-165.284 947.5,-143 923.182,-108.679 940.186,-56.1314 951.924,-28.8415"/>
<polygon fill="midnightblue" stroke="midnightblue" points="955.123,-30.2624 956.067,-19.7097 948.748,-27.3698 955.123,-30.2624"/>
</g>
<!-- Node19 -->
<g id="node19" class="node"><title>Node19</title>
<polygon fill="none" stroke="#bfbfbf" points="1042,-123.5 1042,-142.5 1167,-142.5 1167,-123.5 1042,-123.5"/>
<text text-anchor="middle" x="1104.5" y="-130.5" font-family="Helvetica,sans-Serif" font-size="10.00">Framework/InitContext.h</text>
</g>
<!-- Node14&#45;&gt;Node19 -->
<g id="edge18" class="edge"><title>Node14&#45;&gt;Node19</title>
<path fill="none" stroke="midnightblue" d="M1065.09,-184.975C1071.99,-176.05 1083,-161.807 1091.63,-150.643"/>
<polygon fill="midnightblue" stroke="midnightblue" points="1094.57,-152.561 1097.92,-142.509 1089.04,-148.28 1094.57,-152.561"/>
</g>
<!-- Node20 -->
<g id="node20" class="node"><title>Node20</title>
<polygon fill="none" stroke="#bfbfbf" points="1185.5,-123.5 1185.5,-142.5 1345.5,-142.5 1345.5,-123.5 1185.5,-123.5"/>
<text text-anchor="middle" x="1265.5" y="-130.5" font-family="Helvetica,sans-Serif" font-size="10.00">Framework/ProcessingContext.h</text>
</g>
<!-- Node14&#45;&gt;Node20 -->
<g id="edge19" class="edge"><title>Node14&#45;&gt;Node20</title>
<path fill="none" stroke="midnightblue" d="M1088.16,-184.975C1124.43,-174.548 1185.96,-156.862 1226.16,-145.307"/>
<polygon fill="midnightblue" stroke="midnightblue" points="1227.25,-148.635 1235.9,-142.509 1225.32,-141.908 1227.25,-148.635"/>
</g>
<!-- Node21 -->
<g id="node21" class="node"><title>Node21</title>
<g id="a_node21"><a xlink:href="Activity_8h.html" target="_top" xlink:title="QualityControl/Activity.h">
<polygon fill="none" stroke="black" points="1364,-123.5 1364,-142.5 1487,-142.5 1487,-123.5 1364,-123.5"/>
<text text-anchor="middle" x="1425.5" y="-130.5" font-family="Helvetica,sans-Serif" font-size="10.00">QualityControl/Activity.h</text>
</a>
</g>
</g>
<!-- Node14&#45;&gt;Node21 -->
<g id="edge20" class="edge"><title>Node14&#45;&gt;Node21</title>
<path fill="none" stroke="midnightblue" d="M1111.08,-184.975C1177.58,-174.194 1291.93,-155.654 1362.87,-144.153"/>
<polygon fill="midnightblue" stroke="midnightblue" points="1363.7,-147.564 1373.02,-142.509 1362.58,-140.655 1363.7,-147.564"/>
</g>
<!-- Node22 -->
<g id="node22" class="node"><title>Node22</title>
<g id="a_node22"><a xlink:href="ObjectsManager_8h.html" target="_top" xlink:title="QualityControl/ObjectsManager.h">
<polygon fill="none" stroke="black" points="1505,-123.5 1505,-142.5 1666,-142.5 1666,-123.5 1505,-123.5"/>
<text text-anchor="middle" x="1585.5" y="-130.5" font-family="Helvetica,sans-Serif" font-size="10.00">QualityControl/ObjectsManager.h</text>
</a>
</g>
</g>
<!-- Node14&#45;&gt;Node22 -->
<g id="edge21" class="edge"><title>Node14&#45;&gt;Node22</title>
<path fill="none" stroke="midnightblue" d="M1133.73,-185.007C1230.51,-174.08 1398.22,-155.144 1499.82,-143.674"/>
<polygon fill="midnightblue" stroke="midnightblue" points="1500.5,-147.119 1510.05,-142.519 1499.72,-140.163 1500.5,-147.119"/>
</g>
<!-- Node22&#45;&gt;Node16 -->
<g id="edge35" class="edge"><title>Node22&#45;&gt;Node16</title>
<path fill="none" stroke="midnightblue" d="M1504.97,-123.805C1502.11,-123.531 1499.28,-123.261 1496.5,-123 1312.17,-105.686 1262.44,-126.178 1081.5,-87 1078.08,-86.2586 1074.55,-85.3094 1071.06,-84.2523"/>
<polygon fill="midnightblue" stroke="midnightblue" points="1072.08,-80.902 1061.48,-81.0698 1069.87,-87.5448 1072.08,-80.902"/>
</g>
<!-- Node22&#45;&gt;Node17 -->
<g id="edge34" class="edge"><title>Node22&#45;&gt;Node17</title>
<path fill="none" stroke="midnightblue" d="M1512.64,-123.471C1428.64,-113.301 1299.41,-96.4916 1278.5,-87 1270.23,-83.2434 1230.05,-47.6194 1206.6,-26.5039"/>
<polygon fill="midnightblue" stroke="midnightblue" points="1208.85,-23.8209 1199.09,-19.7162 1204.16,-29.016 1208.85,-23.8209"/>
</g>
<!-- Node23 -->
<g id="node23" class="node"><title>Node23</title>
<g id="a_node23"><a xlink:href="MonitorObject_8h.html" target="_top" xlink:title="QualityControl/MonitorObject.h">
<polygon fill="none" stroke="black" points="1287,-62 1287,-81 1438,-81 1438,-62 1287,-62"/>
<text text-anchor="middle" x="1362.5" y="-69" font-family="Helvetica,sans-Serif" font-size="10.00">QualityControl/MonitorObject.h</text>
</a>
</g>
</g>
<!-- Node22&#45;&gt;Node23 -->
<g id="edge22" class="edge"><title>Node22&#45;&gt;Node23</title>
<path fill="none" stroke="midnightblue" d="M1553.55,-123.475C1514.3,-113.004 1447.62,-95.2118 1404.33,-83.6601"/>
<polygon fill="midnightblue" stroke="midnightblue" points="1404.96,-80.2054 1394.39,-81.0091 1403.15,-86.9688 1404.96,-80.2054"/>
</g>
<!-- Node27 -->
<g id="node27" class="node"><title>Node27</title>
<g id="a_node27"><a xlink:href="MonitorObjectCollection_8h.html" target="_top" xlink:title="QualityControl/MonitorObject\lCollection.h">
<polygon fill="none" stroke="black" points="1514,-56.5 1514,-86.5 1657,-86.5 1657,-56.5 1514,-56.5"/>
<text text-anchor="start" x="1522" y="-74.5" font-family="Helvetica,sans-Serif" font-size="10.00">QualityControl/MonitorObject</text>
<text text-anchor="middle" x="1585.5" y="-63.5" font-family="Helvetica,sans-Serif" font-size="10.00">Collection.h</text>
</a>
</g>
</g>
<!-- Node22&#45;&gt;Node27 -->
<g id="edge28" class="edge"><title>Node22&#45;&gt;Node27</title>
<path fill="none" stroke="midnightblue" d="M1585.5,-123.475C1585.5,-116.471 1585.5,-106.192 1585.5,-96.6956"/>
<polygon fill="midnightblue" stroke="midnightblue" points="1589,-96.5229 1585.5,-86.523 1582,-96.523 1589,-96.5229"/>
</g>
<!-- Node30 -->
<g id="node30" class="node"><title>Node30</title>
<g id="a_node30"><a xlink:href="TaskConfig_8h.html" target="_top" xlink:title="QualityControl/TaskConfig.h">
<polygon fill="none" stroke="black" points="1090.5,-62 1090.5,-81 1230.5,-81 1230.5,-62 1090.5,-62"/>
<text text-anchor="middle" x="1160.5" y="-69" font-family="Helvetica,sans-Serif" font-size="10.00">QualityControl/TaskConfig.h</text>
</a>
</g>
</g>
<!-- Node22&#45;&gt;Node30 -->
<g id="edge31" class="edge"><title>Node22&#45;&gt;Node30</title>
<path fill="none" stroke="midnightblue" d="M1514.52,-123.467C1445.47,-114.969 1337.63,-101.177 1244.5,-87 1235.89,-85.6893 1226.8,-84.2149 1217.9,-82.7213"/>
<polygon fill="midnightblue" stroke="midnightblue" points="1218.42,-79.2598 1207.98,-81.0346 1217.25,-86.1608 1218.42,-79.2598"/>
</g>
<!-- Node23&#45;&gt;Node15 -->
<g id="edge24" class="edge"><title>Node23&#45;&gt;Node15</title>
<path fill="none" stroke="midnightblue" d="M1325.11,-61.9751C1272.03,-49.8761 1176.09,-28.0045 1129.03,-17.277"/>
<polygon fill="midnightblue" stroke="midnightblue" points="1129.76,-13.8536 1119.24,-15.0433 1128.21,-20.6785 1129.76,-13.8536"/>
</g>
<!-- Node23&#45;&gt;Node17 -->
<g id="edge23" class="edge"><title>Node23&#45;&gt;Node17</title>
<path fill="none" stroke="midnightblue" d="M1337.71,-61.9751C1306.64,-51.2877 1253.39,-32.975 1219.89,-21.4536"/>
<polygon fill="midnightblue" stroke="midnightblue" points="1220.77,-18.0547 1210.18,-18.112 1218.5,-24.6741 1220.77,-18.0547"/>
</g>
<!-- Node24 -->
<g id="node24" class="node"><title>Node24</title>
<polygon fill="none" stroke="#bfbfbf" points="1258.5,-0.5 1258.5,-19.5 1314.5,-19.5 1314.5,-0.5 1258.5,-0.5"/>
<text text-anchor="middle" x="1286.5" y="-7.5" font-family="Helvetica,sans-Serif" font-size="10.00">Rtypes.h</text>
</g>
<!-- Node23&#45;&gt;Node24 -->
<g id="edge25" class="edge"><title>Node23&#45;&gt;Node24</title>
<path fill="none" stroke="midnightblue" d="M1351.61,-61.9751C1339.53,-52.5199 1319.83,-37.0961 1305.26,-25.6871"/>
<polygon fill="midnightblue" stroke="midnightblue" points="1307.4,-22.9177 1297.37,-19.5091 1303.09,-28.4295 1307.4,-22.9177"/>
</g>
<!-- Node25 -->
<g id="node25" class="node"><title>Node25</title>
<polygon fill="none" stroke="#bfbfbf" points="1333,-0.5 1333,-19.5 1392,-19.5 1392,-0.5 1333,-0.5"/>
<text text-anchor="middle" x="1362.5" y="-7.5" font-family="Helvetica,sans-Serif" font-size="10.00">TObject.h</text>
</g>
<!-- Node23&#45;&gt;Node25 -->
<g id="edge26" class="edge"><title>Node23&#45;&gt;Node25</title>
<path fill="none" stroke="midnightblue" d="M1362.5,-61.9751C1362.5,-53.5803 1362.5,-40.4806 1362.5,-29.6631"/>
<polygon fill="midnightblue" stroke="midnightblue" points="1366,-29.5091 1362.5,-19.5091 1359,-29.5091 1366,-29.5091"/>
</g>
<!-- Node26 -->
<g id="node26" class="node"><title>Node26</title>
<polygon fill="none" stroke="#bfbfbf" points="1410.5,-0.5 1410.5,-19.5 1526.5,-19.5 1526.5,-0.5 1410.5,-0.5"/>
<text text-anchor="middle" x="1468.5" y="-7.5" font-family="Helvetica,sans-Serif" font-size="10.00">Common/Exceptions.h</text>
</g>
<!-- Node23&#45;&gt;Node26 -->
<g id="edge27" class="edge"><title>Node23&#45;&gt;Node26</title>
<path fill="none" stroke="midnightblue" d="M1377.69,-61.9751C1395.16,-52.1664 1424.08,-35.9346 1444.58,-24.425"/>
<polygon fill="midnightblue" stroke="midnightblue" points="1446.33,-27.456 1453.34,-19.5091 1442.91,-21.3519 1446.33,-27.456"/>
</g>
<!-- Node28 -->
<g id="node28" class="node"><title>Node28</title>
<polygon fill="none" stroke="#bfbfbf" points="1548,-0.5 1548,-19.5 1617,-19.5 1617,-0.5 1548,-0.5"/>
<text text-anchor="middle" x="1582.5" y="-7.5" font-family="Helvetica,sans-Serif" font-size="10.00">TObjArray.h</text>
</g>
<!-- Node27&#45;&gt;Node28 -->
<g id="edge29" class="edge"><title>Node27&#45;&gt;Node28</title>
<path fill="none" stroke="midnightblue" d="M1584.79,-56.3993C1584.39,-48.4664 1583.88,-38.458 1583.45,-29.8583"/>
<polygon fill="midnightblue" stroke="midnightblue" points="1586.94,-29.4688 1582.94,-19.6578 1579.94,-29.8214 1586.94,-29.4688"/>
</g>
<!-- Node29 -->
<g id="node29" class="node"><title>Node29</title>
<polygon fill="none" stroke="#bfbfbf" points="1635.5,-0.5 1635.5,-19.5 1763.5,-19.5 1763.5,-0.5 1635.5,-0.5"/>
<text text-anchor="middle" x="1699.5" y="-7.5" font-family="Helvetica,sans-Serif" font-size="10.00">Mergers/MergeInterface.h</text>
</g>
<!-- Node27&#45;&gt;Node29 -->
<g id="edge30" class="edge"><title>Node27&#45;&gt;Node29</title>
<path fill="none" stroke="midnightblue" d="M1612.52,-56.3993C1631.13,-46.6837 1655.71,-33.8551 1673.99,-24.3137"/>
<polygon fill="midnightblue" stroke="midnightblue" points="1675.67,-27.3876 1682.91,-19.6578 1672.43,-21.182 1675.67,-27.3876"/>
</g>
<!-- Node30&#45;&gt;Node17 -->
<g id="edge32" class="edge"><title>Node30&#45;&gt;Node17</title>
<path fill="none" stroke="midnightblue" d="M1164.65,-61.9751C1168.88,-53.3152 1175.54,-39.6486 1180.9,-28.6453"/>
<polygon fill="midnightblue" stroke="midnightblue" points="1184.12,-30.0317 1185.35,-19.5091 1177.83,-26.9648 1184.12,-30.0317"/>
</g>
<!-- Node30&#45;&gt;Node18 -->
<g id="edge33" class="edge"><title>Node30&#45;&gt;Node18</title>
<path fill="none" stroke="midnightblue" d="M1131.84,-61.9751C1096.94,-51.592 1037.85,-34.0116 999,-22.4538"/>
<polygon fill="midnightblue" stroke="midnightblue" points="999.685,-19.0059 989.102,-19.5091 997.689,-25.7153 999.685,-19.0059"/>
</g>
<!-- Node31&#45;&gt;Node14 -->
<g id="edge38" class="edge"><title>Node31&#45;&gt;Node14</title>
<path fill="none" stroke="midnightblue" d="M1058.5,-246.475C1058.5,-238.08 1058.5,-224.981 1058.5,-214.163"/>
<polygon fill="midnightblue" stroke="midnightblue" points="1062,-214.009 1058.5,-204.009 1055,-214.009 1062,-214.009"/>
</g>
<!-- Node31&#45;&gt;Node32 -->
<g id="edge37" class="edge"><title>Node31&#45;&gt;Node32</title>
<path fill="none" stroke="midnightblue" d="M1094.75,-246.475C1133.53,-237.355 1195.92,-222.683 1243.82,-211.416"/>
<polygon fill="midnightblue" stroke="midnightblue" points="1244.88,-214.763 1253.81,-209.067 1243.28,-207.949 1244.88,-214.763"/>
</g>
<!-- Node33&#45;&gt;Node14 -->
<g id="edge40" class="edge"><title>Node33&#45;&gt;Node14</title>
<path fill="none" stroke="midnightblue" d="M1203.2,-302.247C1189.77,-293.331 1168.48,-279.003 1150.5,-266 1124.74,-247.371 1095.74,-224.886 1077.31,-210.399"/>
<polygon fill="midnightblue" stroke="midnightblue" points="1079.42,-207.607 1069.4,-204.164 1075.08,-213.104 1079.42,-207.607"/>
</g>
<!-- Node33&#45;&gt;Node31 -->
<g id="edge42" class="edge"><title>Node33&#45;&gt;Node31</title>
<path fill="none" stroke="midnightblue" d="M1191.46,-302.444C1164.88,-293.359 1122.69,-278.939 1092.98,-268.783"/>
<polygon fill="midnightblue" stroke="midnightblue" points="1094.01,-265.439 1083.42,-265.516 1091.75,-272.062 1094.01,-265.439"/>
</g>
<!-- Node34 -->
<g id="node34" class="node"><title>Node34</title>
<g id="a_node34"><a xlink:href="sampa__header_8h_source.html" target="_top" xlink:title="MCH/sampa_header.h">
<polygon fill="none" stroke="black" points="1159,-246.5 1159,-265.5 1274,-265.5 1274,-246.5 1159,-246.5"/>
<text text-anchor="middle" x="1216.5" y="-253.5" font-family="Helvetica,sans-Serif" font-size="10.00">MCH/sampa_header.h</text>
</a>
</g>
</g>
<!-- Node33&#45;&gt;Node34 -->
<g id="edge41" class="edge"><title>Node33&#45;&gt;Node34</title>
<path fill="none" stroke="midnightblue" d="M1216.5,-302.083C1216.5,-295.006 1216.5,-284.861 1216.5,-275.986"/>
<polygon fill="midnightblue" stroke="midnightblue" points="1220,-275.751 1216.5,-265.751 1213,-275.751 1220,-275.751"/>
</g>
<!-- Node33&#45;&gt;Node35 -->
<g id="edge43" class="edge"><title>Node33&#45;&gt;Node35</title>
<path fill="none" stroke="midnightblue" d="M1235.99,-302.444C1256.14,-293.596 1287.82,-279.687 1310.83,-269.586"/>
<polygon fill="midnightblue" stroke="midnightblue" points="1312.35,-272.741 1320.1,-265.516 1309.54,-266.332 1312.35,-272.741"/>
</g>
</g>
</svg>
