<?xml version="1.0" encoding="UTF-8" standalone="no"?>
<!DOCTYPE svg PUBLIC "-//W3C//DTD SVG 1.1//EN"
 "http://www.w3.org/Graphics/SVG/1.1/DTD/svg11.dtd">
<!-- Generated by graphviz version 2.38.0 (20140413.2041)
 -->
<!-- Title: Modules/MUON/MCH/src/PedestalsCheck.cxx Pages: 1 -->
<!--zoomable 274 -->
<svg id="main" version="1.1" xmlns="http://www.w3.org/2000/svg" xmlns:xlink="http://www.w3.org/1999/xlink" xml:space="preserve" onload="init(evt)">
<style type="text/css"><![CDATA[
.edge:hover path { stroke: red; }
.edge:hover polygon { stroke: red; fill: red; }
]]></style>
<script type="text/javascript"><![CDATA[
var edges = document.getElementsByTagName('g');
if (edges && edges.length) {
  for (var i=0;i<edges.length;i++) {
    if (edges[i].id.substr(0,4)=='edge') {
      edges[i].setAttribute('class','edge');
    }
  }
}
]]></script>
        <defs>
                <circle id="rim" cx="0" cy="0" r="7"/>
                <circle id="rim2" cx="0" cy="0" r="3.5"/>
                <g id="zoomPlus">
                        <use xlink:href="#rim" fill="#404040">
                                <set attributeName="fill" to="#808080" begin="zoomplus.mouseover" end="zoomplus.mouseout"/>
                        </use>
                        <path d="M-4,0h8M0,-4v8" fill="none" stroke="white" stroke-width="1.5" pointer-events="none"/>
                </g>
                <g id="zoomMin">
                        <use xlink:href="#rim" fill="#404040">
                                <set attributeName="fill" to="#808080" begin="zoomminus.mouseover" end="zoomminus.mouseout"/>
                        </use>
                        <path d="M-4,0h8" fill="none" stroke="white" stroke-width="1.5" pointer-events="none"/>
                </g>
                <g id="dirArrow">
                        <path fill="none" stroke="white" stroke-width="1.5" d="M0,-3.0v7 M-2.5,-0.5L0,-3.0L2.5,-0.5"/>
                </g>
               <g id="resetDef">
                       <use xlink:href="#rim2" fill="#404040">
                               <set attributeName="fill" to="#808080" begin="reset.mouseover" end="reset.mouseout"/>
                       </use>
               </g>
        </defs>

<script type="text/javascript">
var viewWidth = 913;
var viewHeight = 274;
var sectionId = 'dynsection-0';
</script>
<script xlink:href="svgpan.js"/>
<svg id="graph" class="graph">
<g id="viewport">
<title>Modules/MUON/MCH/src/PedestalsCheck.cxx</title>
<!-- Node1 -->
<g id="node1" class="node"><title>Node1</title>
<polygon fill="#bfbfbf" stroke="black" points="528.5,-235.5 528.5,-265.5 658.5,-265.5 658.5,-235.5 528.5,-235.5"/>
<text text-anchor="start" x="536.5" y="-253.5" font-family="Helvetica,sans-Serif" font-size="10.00">Modules/MUON/MCH/src</text>
<text text-anchor="middle" x="593.5" y="-242.5" font-family="Helvetica,sans-Serif" font-size="10.00">/PedestalsCheck.cxx</text>
</g>
<!-- Node2 -->
<g id="node2" class="node"><title>Node2</title>
<polygon fill="none" stroke="#bfbfbf" points="0,-168.5 0,-198.5 115,-198.5 115,-168.5 0,-168.5"/>
<text text-anchor="start" x="8" y="-186.5" font-family="Helvetica,sans-Serif" font-size="10.00">MCHMappingInterface</text>
<text text-anchor="middle" x="57.5" y="-175.5" font-family="Helvetica,sans-Serif" font-size="10.00">/Segmentation.h</text>
</g>
<!-- Node1&#45;&gt;Node2 -->
<g id="edge1" class="edge"><title>Node1&#45;&gt;Node2</title>
<path fill="none" stroke="midnightblue" d="M528.343,-244.677C439.539,-237.617 275.382,-222.838 125.479,-199.041"/>
<polygon fill="midnightblue" stroke="midnightblue" points="125.598,-195.515 115.17,-197.386 124.489,-202.427 125.598,-195.515"/>
</g>
<!-- Node3 -->
<g id="node3" class="node"><title>Node3</title>
<polygon fill="none" stroke="#bfbfbf" points="133.5,-168.5 133.5,-198.5 297.5,-198.5 297.5,-168.5 133.5,-168.5"/>
<text text-anchor="start" x="141.5" y="-186.5" font-family="Helvetica,sans-Serif" font-size="10.00">MCHMappingSegContour</text>
<text text-anchor="middle" x="215.5" y="-175.5" font-family="Helvetica,sans-Serif" font-size="10.00">/CathodeSegmentationContours.h</text>
</g>
<!-- Node1&#45;&gt;Node3 -->
<g id="edge2" class="edge"><title>Node1&#45;&gt;Node3</title>
<path fill="none" stroke="midnightblue" d="M528.089,-238.252C467.065,-227.758 375.429,-212.001 307.131,-200.257"/>
<polygon fill="midnightblue" stroke="midnightblue" points="307.679,-196.8 297.23,-198.554 306.492,-203.698 307.679,-196.8"/>
</g>
<!-- Node4 -->
<g id="node4" class="node"><title>Node4</title>
<g id="a_node4"><a xlink:href="PedestalsCheck_8h.html" target="_top" xlink:title="MCH/PedestalsCheck.h">
<polygon fill="none" stroke="black" points="316,-174 316,-193 439,-193 439,-174 316,-174"/>
<text text-anchor="middle" x="377.5" y="-181" font-family="Helvetica,sans-Serif" font-size="10.00">MCH/PedestalsCheck.h</text>
</a>
</g>
</g>
<!-- Node1&#45;&gt;Node4 -->
<g id="edge3" class="edge"><title>Node1&#45;&gt;Node4</title>
<path fill="none" stroke="midnightblue" d="M546.897,-235.476C507.674,-223.673 452.272,-207.001 415.645,-195.979"/>
<polygon fill="midnightblue" stroke="midnightblue" points="416.426,-192.559 405.841,-193.029 414.409,-199.262 416.426,-192.559"/>
</g>
<!-- Node14 -->
<g id="node14" class="node"><title>Node14</title>
<polygon fill="none" stroke="#bfbfbf" points="457,-174 457,-193 554,-193 554,-174 457,-174"/>
<text text-anchor="middle" x="505.5" y="-181" font-family="Helvetica,sans-Serif" font-size="10.00">fairlogger/Logger.h</text>
</g>
<!-- Node1&#45;&gt;Node14 -->
<g id="edge20" class="edge"><title>Node1&#45;&gt;Node14</title>
<path fill="none" stroke="midnightblue" d="M574.405,-235.396C559.921,-224.697 540.068,-210.033 525.392,-199.193"/>
<polygon fill="midnightblue" stroke="midnightblue" points="527.14,-196.133 517.017,-193.007 522.981,-201.764 527.14,-196.133"/>
</g>
<!-- Node15 -->
<g id="node15" class="node"><title>Node15</title>
<polygon fill="none" stroke="#bfbfbf" points="571.5,-174 571.5,-193 615.5,-193 615.5,-174 571.5,-174"/>
<text text-anchor="middle" x="593.5" y="-181" font-family="Helvetica,sans-Serif" font-size="10.00">TH1.h</text>
</g>
<!-- Node1&#45;&gt;Node15 -->
<g id="edge21" class="edge"><title>Node1&#45;&gt;Node15</title>
<path fill="none" stroke="midnightblue" d="M593.5,-235.396C593.5,-226.064 593.5,-213.714 593.5,-203.517"/>
<polygon fill="midnightblue" stroke="midnightblue" points="597,-203.195 593.5,-193.195 590,-203.195 597,-203.195"/>
</g>
<!-- Node16 -->
<g id="node16" class="node"><title>Node16</title>
<polygon fill="none" stroke="#bfbfbf" points="633.5,-174 633.5,-193 677.5,-193 677.5,-174 633.5,-174"/>
<text text-anchor="middle" x="655.5" y="-181" font-family="Helvetica,sans-Serif" font-size="10.00">TH2.h</text>
</g>
<!-- Node1&#45;&gt;Node16 -->
<g id="edge22" class="edge"><title>Node1&#45;&gt;Node16</title>
<path fill="none" stroke="midnightblue" d="M606.953,-235.396C616.716,-225.161 629.941,-211.296 640.122,-200.622"/>
<polygon fill="midnightblue" stroke="midnightblue" points="642.837,-202.846 647.207,-193.195 637.772,-198.015 642.837,-202.846"/>
</g>
<!-- Node17 -->
<g id="node17" class="node"><title>Node17</title>
<polygon fill="none" stroke="#bfbfbf" points="696,-174 696,-193 743,-193 743,-174 696,-174"/>
<text text-anchor="middle" x="719.5" y="-181" font-family="Helvetica,sans-Serif" font-size="10.00">TList.h</text>
</g>
<!-- Node1&#45;&gt;Node17 -->
<g id="edge23" class="edge"><title>Node1&#45;&gt;Node17</title>
<path fill="none" stroke="midnightblue" d="M620.84,-235.396C642.557,-224.193 672.703,-208.641 693.941,-197.685"/>
<polygon fill="midnightblue" stroke="midnightblue" points="695.727,-200.702 703.01,-193.007 692.518,-194.481 695.727,-200.702"/>
</g>
<!-- Node18 -->
<g id="node18" class="node"><title>Node18</title>
<polygon fill="none" stroke="#bfbfbf" points="761,-174 761,-193 814,-193 814,-174 761,-174"/>
<text text-anchor="middle" x="787.5" y="-181" font-family="Helvetica,sans-Serif" font-size="10.00">TMath.h</text>
</g>
<!-- Node1&#45;&gt;Node18 -->
<g id="edge24" class="edge"><title>Node1&#45;&gt;Node18</title>
<path fill="none" stroke="midnightblue" d="M641.518,-235.415C673.252,-225.821 715.636,-212.462 752.5,-199 754.353,-198.323 756.253,-197.606 758.163,-196.867"/>
<polygon fill="midnightblue" stroke="midnightblue" points="759.644,-200.044 767.626,-193.078 757.041,-193.546 759.644,-200.044"/>
</g>
<!-- Node19 -->
<g id="node19" class="node"><title>Node19</title>
<polygon fill="none" stroke="#bfbfbf" points="832,-174 832,-193 905,-193 905,-174 832,-174"/>
<text text-anchor="middle" x="868.5" y="-181" font-family="Helvetica,sans-Serif" font-size="10.00">TPaveText.h</text>
</g>
<!-- Node1&#45;&gt;Node19 -->
<g id="edge25" class="edge"><title>Node1&#45;&gt;Node19</title>
<path fill="none" stroke="midnightblue" d="M658.838,-236.887C705.095,-227.536 768.445,-213.878 823.5,-199 826.85,-198.095 830.321,-197.093 833.782,-196.051"/>
<polygon fill="midnightblue" stroke="midnightblue" points="834.891,-199.372 843.398,-193.056 832.81,-192.688 834.891,-199.372"/>
</g>
<!-- Node5 -->
<g id="node5" class="node"><title>Node5</title>
<g id="a_node5"><a xlink:href="CheckInterface_8h.html" target="_top" xlink:title="QualityControl/CheckInterface.h">
<polygon fill="none" stroke="black" points="299,-112.5 299,-131.5 456,-131.5 456,-112.5 299,-112.5"/>
<text text-anchor="middle" x="377.5" y="-119.5" font-family="Helvetica,sans-Serif" font-size="10.00">QualityControl/CheckInterface.h</text>
</a>
</g>
</g>
<!-- Node4&#45;&gt;Node5 -->
<g id="edge4" class="edge"><title>Node4&#45;&gt;Node5</title>
<path fill="none" stroke="midnightblue" d="M377.5,-173.975C377.5,-165.58 377.5,-152.481 377.5,-141.663"/>
<polygon fill="midnightblue" stroke="midnightblue" points="381,-141.509 377.5,-131.509 374,-141.509 381,-141.509"/>
</g>
<!-- Node10 -->
<g id="node10" class="node"><title>Node10</title>
<g id="a_node10"><a xlink:href="MonitorObject_8h.html" target="_top" xlink:title="QualityControl/MonitorObject.h">
<polygon fill="none" stroke="black" points="488,-56.5 488,-75.5 639,-75.5 639,-56.5 488,-56.5"/>
<text text-anchor="middle" x="563.5" y="-63.5" font-family="Helvetica,sans-Serif" font-size="10.00">QualityControl/MonitorObject.h</text>
</a>
</g>
</g>
<!-- Node4&#45;&gt;Node10 -->
<g id="edge18" class="edge"><title>Node4&#45;&gt;Node10</title>
<path fill="none" stroke="midnightblue" d="M393.258,-173.861C411.007,-164.038 440.623,-147.366 465.5,-132 492.491,-115.328 522.823,-94.9472 542.495,-81.5023"/>
<polygon fill="midnightblue" stroke="midnightblue" points="544.717,-84.2219 550.983,-75.6787 540.757,-78.4497 544.717,-84.2219"/>
</g>
<!-- Node13 -->
<g id="node13" class="node"><title>Node13</title>
<g id="a_node13"><a xlink:href="Quality_8h.html" target="_top" xlink:title="QualityControl/Quality.h">
<polygon fill="none" stroke="black" points="132,-56.5 132,-75.5 253,-75.5 253,-56.5 132,-56.5"/>
<text text-anchor="middle" x="192.5" y="-63.5" font-family="Helvetica,sans-Serif" font-size="10.00">QualityControl/Quality.h</text>
</a>
</g>
</g>
<!-- Node4&#45;&gt;Node13 -->
<g id="edge19" class="edge"><title>Node4&#45;&gt;Node13</title>
<path fill="none" stroke="midnightblue" d="M361.934,-173.835C344.397,-163.989 315.127,-147.296 290.5,-132 263.55,-115.262 233.21,-94.8947 213.524,-81.4714"/>
<polygon fill="midnightblue" stroke="midnightblue" points="215.259,-78.417 205.029,-75.6582 211.305,-84.194 215.259,-78.417"/>
</g>
<!-- Node6 -->
<g id="node6" class="node"><title>Node6</title>
<polygon fill="none" stroke="#bfbfbf" points="393,-0.5 393,-19.5 434,-19.5 434,-0.5 393,-0.5"/>
<text text-anchor="middle" x="413.5" y="-7.5" font-family="Helvetica,sans-Serif" font-size="10.00">string</text>
</g>
<!-- Node5&#45;&gt;Node6 -->
<g id="edge5" class="edge"><title>Node5&#45;&gt;Node6</title>
<path fill="none" stroke="midnightblue" d="M383.413,-112.454C389.184,-103.698 397.767,-89.4934 402.5,-76 407.774,-60.9644 410.565,-43.0589 412.014,-29.8516"/>
<polygon fill="midnightblue" stroke="midnightblue" points="415.522,-29.9277 412.97,-19.6448 408.553,-29.2747 415.522,-29.9277"/>
</g>
<!-- Node7 -->
<g id="node7" class="node"><title>Node7</title>
<polygon fill="none" stroke="#bfbfbf" points="452,-0.5 452,-19.5 487,-19.5 487,-0.5 452,-0.5"/>
<text text-anchor="middle" x="469.5" y="-7.5" font-family="Helvetica,sans-Serif" font-size="10.00">map</text>
</g>
<!-- Node5&#45;&gt;Node7 -->
<g id="edge6" class="edge"><title>Node5&#45;&gt;Node7</title>
<path fill="none" stroke="midnightblue" d="M385.865,-112.208C394.294,-103.261 407.579,-88.9107 418.5,-76 432.048,-59.9839 446.761,-41.0533 456.887,-27.7655"/>
<polygon fill="midnightblue" stroke="midnightblue" points="459.844,-29.6574 463.093,-19.5729 454.265,-25.4304 459.844,-29.6574"/>
</g>
<!-- Node8 -->
<g id="node8" class="node"><title>Node8</title>
<polygon fill="none" stroke="#bfbfbf" points="310,-56.5 310,-75.5 393,-75.5 393,-56.5 310,-56.5"/>
<text text-anchor="middle" x="351.5" y="-63.5" font-family="Helvetica,sans-Serif" font-size="10.00">unordered_map</text>
</g>
<!-- Node5&#45;&gt;Node8 -->
<g id="edge7" class="edge"><title>Node5&#45;&gt;Node8</title>
<path fill="none" stroke="midnightblue" d="M373.207,-112.083C369.648,-104.691 364.478,-93.9533 360.076,-84.8111"/>
<polygon fill="midnightblue" stroke="midnightblue" points="363.205,-83.2427 355.713,-75.7511 356.898,-86.2795 363.205,-83.2427"/>
</g>
<!-- Node9 -->
<g id="node9" class="node"><title>Node9</title>
<polygon fill="none" stroke="#bfbfbf" points="253.5,-0.5 253.5,-19.5 309.5,-19.5 309.5,-0.5 253.5,-0.5"/>
<text text-anchor="middle" x="281.5" y="-7.5" font-family="Helvetica,sans-Serif" font-size="10.00">Rtypes.h</text>
</g>
<!-- Node5&#45;&gt;Node9 -->
<g id="edge8" class="edge"><title>Node5&#45;&gt;Node9</title>
<path fill="none" stroke="midnightblue" d="M353.727,-112.351C336.886,-105.078 314.976,-93.1028 301.5,-76 291.006,-62.6819 285.992,-43.851 283.612,-29.8835"/>
<polygon fill="midnightblue" stroke="midnightblue" points="287.07,-29.3391 282.214,-19.9228 280.138,-30.3123 287.07,-29.3391"/>
</g>
<!-- Node5&#45;&gt;Node10 -->
<g id="edge9" class="edge"><title>Node5&#45;&gt;Node10</title>
<path fill="none" stroke="midnightblue" d="M406.972,-112.444C438.671,-103.241 489.232,-88.5617 524.275,-78.3879"/>
<polygon fill="midnightblue" stroke="midnightblue" points="525.538,-81.6658 534.166,-75.5164 523.586,-74.9434 525.538,-81.6658"/>
</g>
<!-- Node5&#45;&gt;Node13 -->
<g id="edge15" class="edge"><title>Node5&#45;&gt;Node13</title>
<path fill="none" stroke="midnightblue" d="M348.186,-112.444C316.658,-103.241 266.369,-88.5617 231.514,-78.3879"/>
<polygon fill="midnightblue" stroke="midnightblue" points="232.257,-74.9587 221.677,-75.5164 230.295,-81.6783 232.257,-74.9587"/>
</g>
<!-- Node10&#45;&gt;Node6 -->
<g id="edge10" class="edge"><title>Node10&#45;&gt;Node6</title>
<path fill="none" stroke="midnightblue" d="M539.732,-56.4435C513.834,-47.1203 472.324,-32.1768 444.031,-21.9911"/>
<polygon fill="midnightblue" stroke="midnightblue" points="444.853,-18.5672 434.258,-18.473 442.482,-25.1534 444.853,-18.5672"/>
</g>
<!-- Node10&#45;&gt;Node7 -->
<g id="edge11" class="edge"><title>Node10&#45;&gt;Node7</title>
<path fill="none" stroke="midnightblue" d="M548.397,-56.324C533.597,-47.8215 510.806,-34.7288 493.518,-24.7975"/>
<polygon fill="midnightblue" stroke="midnightblue" points="494.98,-21.6009 484.565,-19.6545 491.493,-27.6707 494.98,-21.6009"/>
</g>
<!-- Node10&#45;&gt;Node9 -->
<g id="edge12" class="edge"><title>Node10&#45;&gt;Node9</title>
<path fill="none" stroke="midnightblue" d="M518.816,-56.4435C463.895,-45.9266 371.627,-28.2583 319.804,-18.3347"/>
<polygon fill="midnightblue" stroke="midnightblue" points="320.174,-14.8421 309.694,-16.3989 318.857,-21.7172 320.174,-14.8421"/>
</g>
<!-- Node11 -->
<g id="node11" class="node"><title>Node11</title>
<polygon fill="none" stroke="#bfbfbf" points="640,-0.5 640,-19.5 699,-19.5 699,-0.5 640,-0.5"/>
<text text-anchor="middle" x="669.5" y="-7.5" font-family="Helvetica,sans-Serif" font-size="10.00">TObject.h</text>
</g>
<!-- Node10&#45;&gt;Node11 -->
<g id="edge13" class="edge"><title>Node10&#45;&gt;Node11</title>
<path fill="none" stroke="midnightblue" d="M580.531,-56.324C597.53,-47.6641 623.876,-34.2424 643.493,-24.249"/>
<polygon fill="midnightblue" stroke="midnightblue" points="645.19,-27.3125 652.512,-19.6545 642.012,-21.0752 645.19,-27.3125"/>
</g>
<!-- Node12 -->
<g id="node12" class="node"><title>Node12</title>
<polygon fill="none" stroke="#bfbfbf" points="505.5,-0.5 505.5,-19.5 621.5,-19.5 621.5,-0.5 505.5,-0.5"/>
<text text-anchor="middle" x="563.5" y="-7.5" font-family="Helvetica,sans-Serif" font-size="10.00">Common/Exceptions.h</text>
</g>
<!-- Node10&#45;&gt;Node12 -->
<g id="edge14" class="edge"><title>Node10&#45;&gt;Node12</title>
<path fill="none" stroke="midnightblue" d="M563.5,-56.083C563.5,-49.0059 563.5,-38.8611 563.5,-29.9865"/>
<polygon fill="midnightblue" stroke="midnightblue" points="567,-29.751 563.5,-19.7511 560,-29.7511 567,-29.751"/>
</g>
<!-- Node13&#45;&gt;Node6 -->
<g id="edge17" class="edge"><title>Node13&#45;&gt;Node6</title>
<path fill="none" stroke="midnightblue" d="M227.518,-56.4435C270.401,-45.9655 342.335,-28.3888 383.03,-18.445"/>
<polygon fill="midnightblue" stroke="midnightblue" points="384.025,-21.8052 392.908,-16.0315 382.363,-15.0052 384.025,-21.8052"/>
</g>
<!-- Node13&#45;&gt;Node9 -->
<g id="edge16" class="edge"><title>Node13&#45;&gt;Node9</title>
<path fill="none" stroke="midnightblue" d="M206.799,-56.324C220.683,-47.9002 241.992,-34.9709 258.304,-25.0741"/>
<polygon fill="midnightblue" stroke="midnightblue" points="260.502,-27.8341 267.236,-19.6545 256.871,-21.8495 260.502,-27.8341"/>
</g>
</g>
</svg>
        <g id="navigator" transform="translate(0 0)" fill="#404254">
                <rect fill="#f2f5e9" fill-opacity="0.5" stroke="#606060" stroke-width=".5" x="0" y="0" width="60" height="60"/>
                <use id="zoomplus" xlink:href="#zoomPlus" x="17" y="9" onmousedown="handleZoom(evt,'in')"/>
                <use id="zoomminus" xlink:href="#zoomMin" x="42" y="9" onmousedown="handleZoom(evt,'out')"/>
                <use id="reset" xlink:href="#resetDef" x="30" y="36" onmousedown="handleReset()"/>
                <g id="arrowUp" xlink:href="#dirArrow" transform="translate(30 24)" onmousedown="handlePan(0,-1)">
                  <use xlink:href="#rim" fill="#404040">
                        <set attributeName="fill" to="#808080" begin="arrowUp.mouseover" end="arrowUp.mouseout"/>
                  </use>
                  <path fill="none" stroke="white" stroke-width="1.5" d="M0,-3.0v7 M-2.5,-0.5L0,-3.0L2.5,-0.5"/>
                </g>
                <g id="arrowRight" xlink:href="#dirArrow" transform="rotate(90) translate(36 -43)" onmousedown="handlePan(1,0)">
                  <use xlink:href="#rim" fill="#404040">
                        <set attributeName="fill" to="#808080" begin="arrowRight.mouseover" end="arrowRight.mouseout"/>
                  </use>
                  <path fill="none" stroke="white" stroke-width="1.5" d="M0,-3.0v7 M-2.5,-0.5L0,-3.0L2.5,-0.5"/>
                </g>
                <g id="arrowDown" xlink:href="#dirArrow" transform="rotate(180) translate(-30 -48)" onmousedown="handlePan(0,1)">
                  <use xlink:href="#rim" fill="#404040">
                        <set attributeName="fill" to="#808080" begin="arrowDown.mouseover" end="arrowDown.mouseout"/>
                  </use>
                  <path fill="none" stroke="white" stroke-width="1.5" d="M0,-3.0v7 M-2.5,-0.5L0,-3.0L2.5,-0.5"/>
                </g>
                <g id="arrowLeft" xlink:href="#dirArrow" transform="rotate(270) translate(-36 17)" onmousedown="handlePan(-1,0)">
                  <use xlink:href="#rim" fill="#404040">
                        <set attributeName="fill" to="#808080" begin="arrowLeft.mouseover" end="arrowLeft.mouseout"/>
                  </use>
                  <path fill="none" stroke="white" stroke-width="1.5" d="M0,-3.0v7 M-2.5,-0.5L0,-3.0L2.5,-0.5"/>
                </g>
        </g>
        <svg viewBox="0 0 15 15" width="100%" height="30px" preserveAspectRatio="xMaxYMin meet">
         <g id="arrow_out" transform="scale(0.3 0.3)">
          <a xlink:href="PedestalsCheck_8cxx__incl_org.svg" target="_base">
           <rect id="button" ry="5" rx="5" y="6" x="6" height="38" width="38"
                fill="#f2f5e9" fill-opacity="0.5" stroke="#606060" stroke-width="1.0"/>
           <path id="arrow"
             d="M 11.500037,31.436501 C 11.940474,20.09759 22.043105,11.32322 32.158766,21.979434 L 37.068811,17.246167 C 37.068811,17.246167 37.088388,32 37.088388,32 L 22.160133,31.978069 C 22.160133,31.978069 26.997745,27.140456 26.997745,27.140456 C 18.528582,18.264221 13.291696,25.230495 11.500037,31.436501 z"
             style="fill:#404040;"/>
          </a>
         </g>
        </svg>
</svg>
