<?xml version="1.0" encoding="UTF-8" standalone="no"?>
<!DOCTYPE svg PUBLIC "-//W3C//DTD SVG 1.1//EN"
 "http://www.w3.org/Graphics/SVG/1.1/DTD/svg11.dtd">
<!-- Generated by graphviz version 2.38.0 (20140413.2041)
 -->
<!-- Title: Modules/MUON/MCH/include/MCH/PhysicsTask.h Pages: 1 -->
<!--zoomable 397 -->
<svg id="main" version="1.1" xmlns="http://www.w3.org/2000/svg" xmlns:xlink="http://www.w3.org/1999/xlink" xml:space="preserve" onload="init(evt)">
<style type="text/css"><![CDATA[
.edge:hover path { stroke: red; }
.edge:hover polygon { stroke: red; fill: red; }
]]></style>
<script type="text/javascript"><![CDATA[
var edges = document.getElementsByTagName('g');
if (edges && edges.length) {
  for (var i=0;i<edges.length;i++) {
    if (edges[i].id.substr(0,4)=='edge') {
      edges[i].setAttribute('class','edge');
    }
  }
}
]]></script>
        <defs>
                <circle id="rim" cx="0" cy="0" r="7"/>
                <circle id="rim2" cx="0" cy="0" r="3.5"/>
                <g id="zoomPlus">
                        <use xlink:href="#rim" fill="#404040">
                                <set attributeName="fill" to="#808080" begin="zoomplus.mouseover" end="zoomplus.mouseout"/>
                        </use>
                        <path d="M-4,0h8M0,-4v8" fill="none" stroke="white" stroke-width="1.5" pointer-events="none"/>
                </g>
                <g id="zoomMin">
                        <use xlink:href="#rim" fill="#404040">
                                <set attributeName="fill" to="#808080" begin="zoomminus.mouseover" end="zoomminus.mouseout"/>
                        </use>
                        <path d="M-4,0h8" fill="none" stroke="white" stroke-width="1.5" pointer-events="none"/>
                </g>
                <g id="dirArrow">
                        <path fill="none" stroke="white" stroke-width="1.5" d="M0,-3.0v7 M-2.5,-0.5L0,-3.0L2.5,-0.5"/>
                </g>
               <g id="resetDef">
                       <use xlink:href="#rim2" fill="#404040">
                               <set attributeName="fill" to="#808080" begin="reset.mouseover" end="reset.mouseout"/>
                       </use>
               </g>
        </defs>

<script type="text/javascript">
var viewWidth = 853;
var viewHeight = 397;
var sectionId = 'dynsection-0';
</script>
<script xlink:href="svgpan.js"/>
<svg id="graph" class="graph">
<g id="viewport">
<title>Modules/MUON/MCH/include/MCH/PhysicsTask.h</title>
<!-- Node1 -->
<g id="node1" class="node"><title>Node1</title>
<polygon fill="#bfbfbf" stroke="black" points="234,-358.5 234,-388.5 381,-388.5 381,-358.5 234,-358.5"/>
<text text-anchor="start" x="242" y="-376.5" font-family="Helvetica,sans-Serif" font-size="10.00">Modules/MUON/MCH/include</text>
<text text-anchor="middle" x="307.5" y="-365.5" font-family="Helvetica,sans-Serif" font-size="10.00">/MCH/PhysicsTask.h</text>
</g>
<!-- Node2 -->
<g id="node2" class="node"><title>Node2</title>
<g id="a_node2"><a xlink:href="TaskInterface_8h.html" target="_top" xlink:title="QualityControl/TaskInterface.h">
<polygon fill="none" stroke="black" points="64.5,-185 64.5,-204 214.5,-204 214.5,-185 64.5,-185"/>
<text text-anchor="middle" x="139.5" y="-192" font-family="Helvetica,sans-Serif" font-size="10.00">QualityControl/TaskInterface.h</text>
</a>
</g>
</g>
<!-- Node1&#45;&gt;Node2 -->
<g id="edge1" class="edge"><title>Node1&#45;&gt;Node2</title>
<path fill="none" stroke="midnightblue" d="M264.38,-358.361C224.694,-342.747 168.344,-313.348 143.5,-266 135.148,-250.083 135.051,-229.272 136.493,-214.394"/>
<polygon fill="midnightblue" stroke="midnightblue" points="139.98,-214.718 137.784,-204.353 133.037,-213.825 139.98,-214.718"/>
</g>
<!-- Node19 -->
<g id="node19" class="node"><title>Node19</title>
<g id="a_node19"><a xlink:href="Mapping_8h_source.html" target="_top" xlink:title="MCH/Mapping.h">
<polygon fill="none" stroke="black" points="300.5,-246.5 300.5,-265.5 388.5,-265.5 388.5,-246.5 300.5,-246.5"/>
<text text-anchor="middle" x="344.5" y="-253.5" font-family="Helvetica,sans-Serif" font-size="10.00">MCH/Mapping.h</text>
</a>
</g>
</g>
<!-- Node1&#45;&gt;Node19 -->
<g id="edge24" class="edge"><title>Node1&#45;&gt;Node19</title>
<path fill="none" stroke="midnightblue" d="M312.764,-358.426C316.476,-348.337 321.483,-334.396 325.5,-322 330.54,-306.447 335.711,-288.611 339.384,-275.562"/>
<polygon fill="midnightblue" stroke="midnightblue" points="342.768,-276.454 342.08,-265.881 336.025,-274.575 342.768,-276.454"/>
</g>
<!-- Node21 -->
<g id="node21" class="node"><title>Node21</title>
<g id="a_node21"><a xlink:href="Decoding_8h.html" target="_top" xlink:title="MCH/Decoding.h">
<polygon fill="none" stroke="black" points="224.5,-302.5 224.5,-321.5 316.5,-321.5 316.5,-302.5 224.5,-302.5"/>
<text text-anchor="middle" x="270.5" y="-309.5" font-family="Helvetica,sans-Serif" font-size="10.00">MCH/Decoding.h</text>
</a>
</g>
</g>
<!-- Node1&#45;&gt;Node21 -->
<g id="edge27" class="edge"><title>Node1&#45;&gt;Node21</title>
<path fill="none" stroke="midnightblue" d="M298.732,-358.399C293.521,-350.021 286.871,-339.327 281.334,-330.423"/>
<polygon fill="midnightblue" stroke="midnightblue" points="284.137,-328.302 275.884,-321.658 278.192,-331.998 284.137,-328.302"/>
</g>
<!-- Node23 -->
<g id="node23" class="node"><title>Node23</title>
<polygon fill="none" stroke="#bfbfbf" points="406.5,-246.5 406.5,-265.5 500.5,-265.5 500.5,-246.5 406.5,-246.5"/>
<text text-anchor="middle" x="453.5" y="-253.5" font-family="Helvetica,sans-Serif" font-size="10.00">MCHBase/Digit.h</text>
</g>
<!-- Node1&#45;&gt;Node23 -->
<g id="edge32" class="edge"><title>Node1&#45;&gt;Node23</title>
<path fill="none" stroke="midnightblue" d="M325.402,-358.337C353.143,-336.392 406.262,-294.37 434.598,-271.953"/>
<polygon fill="midnightblue" stroke="midnightblue" points="436.87,-274.619 442.541,-265.669 432.527,-269.129 436.87,-274.619"/>
</g>
<!-- Node3 -->
<g id="node3" class="node"><title>Node3</title>
<polygon fill="none" stroke="#bfbfbf" points="165,-0.5 165,-19.5 200,-19.5 200,-0.5 165,-0.5"/>
<text text-anchor="middle" x="182.5" y="-7.5" font-family="Helvetica,sans-Serif" font-size="10.00">map</text>
</g>
<!-- Node2&#45;&gt;Node3 -->
<g id="edge2" class="edge"><title>Node2&#45;&gt;Node3</title>
<path fill="none" stroke="midnightblue" d="M103.4,-184.843C81.6558,-177.567 55.6977,-164.75 42.5,-143 22.4414,-109.943 19.7229,-87.246 42.5,-56 68.0368,-20.9681 121.292,-12.611 154.259,-10.9548"/>
<polygon fill="midnightblue" stroke="midnightblue" points="154.71,-14.4422 164.592,-10.6212 154.484,-7.4458 154.71,-14.4422"/>
</g>
<!-- Node4 -->
<g id="node4" class="node"><title>Node4</title>
<polygon fill="none" stroke="#bfbfbf" points="95.5,-62 95.5,-81 147.5,-81 147.5,-62 95.5,-62"/>
<text text-anchor="middle" x="121.5" y="-69" font-family="Helvetica,sans-Serif" font-size="10.00">memory</text>
</g>
<!-- Node2&#45;&gt;Node4 -->
<g id="edge3" class="edge"><title>Node2&#45;&gt;Node4</title>
<path fill="none" stroke="midnightblue" d="M133.315,-184.711C126.908,-175.022 117.309,-158.717 113.5,-143 109.293,-125.637 112.42,-105.32 115.922,-90.9689"/>
<polygon fill="midnightblue" stroke="midnightblue" points="119.303,-91.8736 118.558,-81.305 112.55,-90.0317 119.303,-91.8736"/>
</g>
<!-- Node5 -->
<g id="node5" class="node"><title>Node5</title>
<polygon fill="none" stroke="#bfbfbf" points="250,-0.5 250,-19.5 291,-19.5 291,-0.5 250,-0.5"/>
<text text-anchor="middle" x="270.5" y="-7.5" font-family="Helvetica,sans-Serif" font-size="10.00">string</text>
</g>
<!-- Node2&#45;&gt;Node5 -->
<g id="edge4" class="edge"><title>Node2&#45;&gt;Node5</title>
<path fill="none" stroke="midnightblue" d="M130.824,-184.895C108.636,-161.848 53.8023,-97.6581 86.5,-56 96.0019,-43.8943 189.983,-25.4328 239.822,-16.3824"/>
<polygon fill="midnightblue" stroke="midnightblue" points="240.517,-19.8136 249.74,-14.5997 239.279,-12.924 240.517,-19.8136"/>
</g>
<!-- Node6 -->
<g id="node6" class="node"><title>Node6</title>
<polygon fill="none" stroke="#bfbfbf" points="0,-0.5 0,-19.5 83,-19.5 83,-0.5 0,-0.5"/>
<text text-anchor="middle" x="41.5" y="-7.5" font-family="Helvetica,sans-Serif" font-size="10.00">unordered_map</text>
</g>
<!-- Node2&#45;&gt;Node6 -->
<g id="edge5" class="edge"><title>Node2&#45;&gt;Node6</title>
<path fill="none" stroke="midnightblue" d="M96.9634,-184.978C73.1589,-177.893 45.1945,-165.231 29.5,-143 5.36473,-108.813 21.5761,-56.5842 32.9904,-29.1994"/>
<polygon fill="midnightblue" stroke="midnightblue" points="36.3437,-30.2696 37.1768,-19.7075 29.939,-27.4447 36.3437,-30.2696"/>
</g>
<!-- Node7 -->
<g id="node7" class="node"><title>Node7</title>
<polygon fill="none" stroke="#bfbfbf" points="123,-123.5 123,-142.5 248,-142.5 248,-123.5 123,-123.5"/>
<text text-anchor="middle" x="185.5" y="-130.5" font-family="Helvetica,sans-Serif" font-size="10.00">Framework/InitContext.h</text>
</g>
<!-- Node2&#45;&gt;Node7 -->
<g id="edge6" class="edge"><title>Node2&#45;&gt;Node7</title>
<path fill="none" stroke="midnightblue" d="M146.091,-184.975C152.991,-176.05 164.002,-161.807 172.634,-150.643"/>
<polygon fill="midnightblue" stroke="midnightblue" points="175.574,-152.561 178.922,-142.509 170.036,-148.28 175.574,-152.561"/>
</g>
<!-- Node8 -->
<g id="node8" class="node"><title>Node8</title>
<polygon fill="none" stroke="#bfbfbf" points="266.5,-123.5 266.5,-142.5 426.5,-142.5 426.5,-123.5 266.5,-123.5"/>
<text text-anchor="middle" x="346.5" y="-130.5" font-family="Helvetica,sans-Serif" font-size="10.00">Framework/ProcessingContext.h</text>
</g>
<!-- Node2&#45;&gt;Node8 -->
<g id="edge7" class="edge"><title>Node2&#45;&gt;Node8</title>
<path fill="none" stroke="midnightblue" d="M169.158,-184.975C205.434,-174.548 266.964,-156.862 307.164,-145.307"/>
<polygon fill="midnightblue" stroke="midnightblue" points="308.253,-148.635 316.897,-142.509 306.319,-141.908 308.253,-148.635"/>
</g>
<!-- Node9 -->
<g id="node9" class="node"><title>Node9</title>
<g id="a_node9"><a xlink:href="Activity_8h.html" target="_top" xlink:title="QualityControl/Activity.h">
<polygon fill="none" stroke="black" points="445,-123.5 445,-142.5 568,-142.5 568,-123.5 445,-123.5"/>
<text text-anchor="middle" x="506.5" y="-130.5" font-family="Helvetica,sans-Serif" font-size="10.00">QualityControl/Activity.h</text>
</a>
</g>
</g>
<!-- Node2&#45;&gt;Node9 -->
<g id="edge8" class="edge"><title>Node2&#45;&gt;Node9</title>
<path fill="none" stroke="midnightblue" d="M192.082,-184.975C258.578,-174.194 372.934,-155.654 443.875,-144.153"/>
<polygon fill="midnightblue" stroke="midnightblue" points="444.704,-147.564 454.015,-142.509 443.584,-140.655 444.704,-147.564"/>
</g>
<!-- Node10 -->
<g id="node10" class="node"><title>Node10</title>
<g id="a_node10"><a xlink:href="ObjectsManager_8h.html" target="_top" xlink:title="QualityControl/ObjectsManager.h">
<polygon fill="none" stroke="black" points="586,-123.5 586,-142.5 747,-142.5 747,-123.5 586,-123.5"/>
<text text-anchor="middle" x="666.5" y="-130.5" font-family="Helvetica,sans-Serif" font-size="10.00">QualityControl/ObjectsManager.h</text>
</a>
</g>
</g>
<!-- Node2&#45;&gt;Node10 -->
<g id="edge9" class="edge"><title>Node2&#45;&gt;Node10</title>
<path fill="none" stroke="midnightblue" d="M214.726,-185.007C311.508,-174.08 479.222,-155.144 580.818,-143.674"/>
<polygon fill="midnightblue" stroke="midnightblue" points="581.502,-147.119 591.046,-142.519 580.717,-140.163 581.502,-147.119"/>
</g>
<!-- Node10&#45;&gt;Node4 -->
<g id="edge23" class="edge"><title>Node10&#45;&gt;Node4</title>
<path fill="none" stroke="midnightblue" d="M585.552,-123.855C582.496,-123.564 579.471,-123.278 576.5,-123 392.607,-105.811 343.007,-126.103 162.5,-87 159.076,-86.2582 155.546,-85.3089 152.061,-84.2516"/>
<polygon fill="midnightblue" stroke="midnightblue" points="153.077,-80.9013 142.484,-81.0689 150.87,-87.5441 153.077,-80.9013"/>
</g>
<!-- Node10&#45;&gt;Node5 -->
<g id="edge22" class="edge"><title>Node10&#45;&gt;Node5</title>
<path fill="none" stroke="midnightblue" d="M593.391,-123.499C509.116,-113.357 379.45,-96.5756 358.5,-87 354.356,-85.1057 312.269,-48.0657 287.832,-26.4071"/>
<polygon fill="midnightblue" stroke="midnightblue" points="290.104,-23.7443 280.302,-19.7247 285.458,-28.98 290.104,-23.7443"/>
</g>
<!-- Node11 -->
<g id="node11" class="node"><title>Node11</title>
<g id="a_node11"><a xlink:href="MonitorObject_8h.html" target="_top" xlink:title="QualityControl/MonitorObject.h">
<polygon fill="none" stroke="black" points="368,-62 368,-81 519,-81 519,-62 368,-62"/>
<text text-anchor="middle" x="443.5" y="-69" font-family="Helvetica,sans-Serif" font-size="10.00">QualityControl/MonitorObject.h</text>
</a>
</g>
</g>
<!-- Node10&#45;&gt;Node11 -->
<g id="edge10" class="edge"><title>Node10&#45;&gt;Node11</title>
<path fill="none" stroke="midnightblue" d="M634.55,-123.475C595.304,-113.004 528.622,-95.2118 485.327,-83.6601"/>
<polygon fill="midnightblue" stroke="midnightblue" points="485.956,-80.2054 475.391,-81.0091 484.151,-86.9688 485.956,-80.2054"/>
</g>
<!-- Node15 -->
<g id="node15" class="node"><title>Node15</title>
<g id="a_node15"><a xlink:href="MonitorObjectCollection_8h.html" target="_top" xlink:title="QualityControl/MonitorObject\lCollection.h">
<polygon fill="none" stroke="black" points="595,-56.5 595,-86.5 738,-86.5 738,-56.5 595,-56.5"/>
<text text-anchor="start" x="603" y="-74.5" font-family="Helvetica,sans-Serif" font-size="10.00">QualityControl/MonitorObject</text>
<text text-anchor="middle" x="666.5" y="-63.5" font-family="Helvetica,sans-Serif" font-size="10.00">Collection.h</text>
</a>
</g>
</g>
<!-- Node10&#45;&gt;Node15 -->
<g id="edge16" class="edge"><title>Node10&#45;&gt;Node15</title>
<path fill="none" stroke="midnightblue" d="M666.5,-123.475C666.5,-116.471 666.5,-106.192 666.5,-96.6956"/>
<polygon fill="midnightblue" stroke="midnightblue" points="670,-96.5229 666.5,-86.523 663,-96.523 670,-96.5229"/>
</g>
<!-- Node18 -->
<g id="node18" class="node"><title>Node18</title>
<g id="a_node18"><a xlink:href="TaskConfig_8h.html" target="_top" xlink:title="QualityControl/TaskConfig.h">
<polygon fill="none" stroke="black" points="171.5,-62 171.5,-81 311.5,-81 311.5,-62 171.5,-62"/>
<text text-anchor="middle" x="241.5" y="-69" font-family="Helvetica,sans-Serif" font-size="10.00">QualityControl/TaskConfig.h</text>
</a>
</g>
</g>
<!-- Node10&#45;&gt;Node18 -->
<g id="edge19" class="edge"><title>Node10&#45;&gt;Node18</title>
<path fill="none" stroke="midnightblue" d="M595.523,-123.467C526.465,-114.969 418.627,-101.177 325.5,-87 316.89,-85.6893 307.799,-84.2149 298.904,-82.7213"/>
<polygon fill="midnightblue" stroke="midnightblue" points="299.425,-79.2598 288.98,-81.0346 298.252,-86.1608 299.425,-79.2598"/>
</g>
<!-- Node11&#45;&gt;Node3 -->
<g id="edge12" class="edge"><title>Node11&#45;&gt;Node3</title>
<path fill="none" stroke="midnightblue" d="M406.105,-61.9751C353.032,-49.8761 257.091,-28.0045 210.034,-17.277"/>
<polygon fill="midnightblue" stroke="midnightblue" points="210.764,-13.8536 200.236,-15.0433 209.208,-20.6785 210.764,-13.8536"/>
</g>
<!-- Node11&#45;&gt;Node5 -->
<g id="edge11" class="edge"><title>Node11&#45;&gt;Node5</title>
<path fill="none" stroke="midnightblue" d="M418.713,-61.9751C387.639,-51.2877 334.394,-32.975 300.895,-21.4536"/>
<polygon fill="midnightblue" stroke="midnightblue" points="301.773,-18.0547 291.179,-18.112 299.497,-24.6741 301.773,-18.0547"/>
</g>
<!-- Node12 -->
<g id="node12" class="node"><title>Node12</title>
<polygon fill="none" stroke="#bfbfbf" points="339.5,-0.5 339.5,-19.5 395.5,-19.5 395.5,-0.5 339.5,-0.5"/>
<text text-anchor="middle" x="367.5" y="-7.5" font-family="Helvetica,sans-Serif" font-size="10.00">Rtypes.h</text>
</g>
<!-- Node11&#45;&gt;Node12 -->
<g id="edge13" class="edge"><title>Node11&#45;&gt;Node12</title>
<path fill="none" stroke="midnightblue" d="M432.611,-61.9751C420.534,-52.5199 400.833,-37.0961 386.26,-25.6871"/>
<polygon fill="midnightblue" stroke="midnightblue" points="388.4,-22.9177 378.369,-19.5091 384.085,-28.4295 388.4,-22.9177"/>
</g>
<!-- Node13 -->
<g id="node13" class="node"><title>Node13</title>
<polygon fill="none" stroke="#bfbfbf" points="414,-0.5 414,-19.5 473,-19.5 473,-0.5 414,-0.5"/>
<text text-anchor="middle" x="443.5" y="-7.5" font-family="Helvetica,sans-Serif" font-size="10.00">TObject.h</text>
</g>
<!-- Node11&#45;&gt;Node13 -->
<g id="edge14" class="edge"><title>Node11&#45;&gt;Node13</title>
<path fill="none" stroke="midnightblue" d="M443.5,-61.9751C443.5,-53.5803 443.5,-40.4806 443.5,-29.6631"/>
<polygon fill="midnightblue" stroke="midnightblue" points="447,-29.5091 443.5,-19.5091 440,-29.5091 447,-29.5091"/>
</g>
<!-- Node14 -->
<g id="node14" class="node"><title>Node14</title>
<polygon fill="none" stroke="#bfbfbf" points="491.5,-0.5 491.5,-19.5 607.5,-19.5 607.5,-0.5 491.5,-0.5"/>
<text text-anchor="middle" x="549.5" y="-7.5" font-family="Helvetica,sans-Serif" font-size="10.00">Common/Exceptions.h</text>
</g>
<!-- Node11&#45;&gt;Node14 -->
<g id="edge15" class="edge"><title>Node11&#45;&gt;Node14</title>
<path fill="none" stroke="midnightblue" d="M458.687,-61.9751C476.162,-52.1664 505.079,-35.9346 525.583,-24.425"/>
<polygon fill="midnightblue" stroke="midnightblue" points="527.334,-27.456 534.341,-19.5091 523.908,-21.3519 527.334,-27.456"/>
</g>
<!-- Node16 -->
<g id="node16" class="node"><title>Node16</title>
<polygon fill="none" stroke="#bfbfbf" points="629,-0.5 629,-19.5 698,-19.5 698,-0.5 629,-0.5"/>
<text text-anchor="middle" x="663.5" y="-7.5" font-family="Helvetica,sans-Serif" font-size="10.00">TObjArray.h</text>
</g>
<!-- Node15&#45;&gt;Node16 -->
<g id="edge17" class="edge"><title>Node15&#45;&gt;Node16</title>
<path fill="none" stroke="midnightblue" d="M665.789,-56.3993C665.389,-48.4664 664.884,-38.458 664.451,-29.8583"/>
<polygon fill="midnightblue" stroke="midnightblue" points="667.936,-29.4688 663.937,-19.6578 660.945,-29.8214 667.936,-29.4688"/>
</g>
<!-- Node17 -->
<g id="node17" class="node"><title>Node17</title>
<polygon fill="none" stroke="#bfbfbf" points="716.5,-0.5 716.5,-19.5 844.5,-19.5 844.5,-0.5 716.5,-0.5"/>
<text text-anchor="middle" x="780.5" y="-7.5" font-family="Helvetica,sans-Serif" font-size="10.00">Mergers/MergeInterface.h</text>
</g>
<!-- Node15&#45;&gt;Node17 -->
<g id="edge18" class="edge"><title>Node15&#45;&gt;Node17</title>
<path fill="none" stroke="midnightblue" d="M693.516,-56.3993C712.131,-46.6837 736.71,-33.8551 754.991,-24.3137"/>
<polygon fill="midnightblue" stroke="midnightblue" points="756.666,-27.3876 763.912,-19.6578 753.427,-21.182 756.666,-27.3876"/>
</g>
<!-- Node18&#45;&gt;Node5 -->
<g id="edge20" class="edge"><title>Node18&#45;&gt;Node5</title>
<path fill="none" stroke="midnightblue" d="M245.655,-61.9751C249.876,-53.3152 256.537,-39.6486 261.9,-28.6453"/>
<polygon fill="midnightblue" stroke="midnightblue" points="265.118,-30.0317 266.353,-19.5091 258.825,-26.9648 265.118,-30.0317"/>
</g>
<!-- Node18&#45;&gt;Node6 -->
<g id="edge21" class="edge"><title>Node18&#45;&gt;Node6</title>
<path fill="none" stroke="midnightblue" d="M212.845,-61.9751C177.944,-51.592 118.85,-34.0116 80.0003,-22.4538"/>
<polygon fill="midnightblue" stroke="midnightblue" points="80.6848,-19.0059 70.102,-19.5091 78.6888,-25.7153 80.6848,-19.0059"/>
</g>
<!-- Node19&#45;&gt;Node2 -->
<g id="edge26" class="edge"><title>Node19&#45;&gt;Node2</title>
<path fill="none" stroke="midnightblue" d="M315.128,-246.475C279.203,-236.048 218.268,-218.362 178.456,-206.807"/>
<polygon fill="midnightblue" stroke="midnightblue" points="179.396,-203.435 168.817,-204.009 177.445,-210.158 179.396,-203.435"/>
</g>
<!-- Node20 -->
<g id="node20" class="node"><title>Node20</title>
<polygon fill="none" stroke="#bfbfbf" points="287,-179.5 287,-209.5 402,-209.5 402,-179.5 287,-179.5"/>
<text text-anchor="start" x="295" y="-197.5" font-family="Helvetica,sans-Serif" font-size="10.00">MCHMappingInterface</text>
<text text-anchor="middle" x="344.5" y="-186.5" font-family="Helvetica,sans-Serif" font-size="10.00">/Segmentation.h</text>
</g>
<!-- Node19&#45;&gt;Node20 -->
<g id="edge25" class="edge"><title>Node19&#45;&gt;Node20</title>
<path fill="none" stroke="midnightblue" d="M344.5,-246.475C344.5,-239.471 344.5,-229.192 344.5,-219.696"/>
<polygon fill="midnightblue" stroke="midnightblue" points="348,-219.523 344.5,-209.523 341,-219.523 348,-219.523"/>
</g>
<!-- Node21&#45;&gt;Node2 -->
<g id="edge28" class="edge"><title>Node21&#45;&gt;Node2</title>
<path fill="none" stroke="midnightblue" d="M224.235,-302.555C201.49,-296.144 175.403,-285.04 158.5,-266 145.769,-251.659 141.449,-229.648 140.046,-214.04"/>
<polygon fill="midnightblue" stroke="midnightblue" points="143.537,-213.787 139.461,-204.008 136.549,-214.195 143.537,-213.787"/>
</g>
<!-- Node21&#45;&gt;Node19 -->
<g id="edge30" class="edge"><title>Node21&#45;&gt;Node19</title>
<path fill="none" stroke="midnightblue" d="M282.389,-302.324C293.65,-294.107 310.787,-281.602 324.209,-271.807"/>
<polygon fill="midnightblue" stroke="midnightblue" points="326.38,-274.556 332.394,-265.834 322.253,-268.901 326.38,-274.556"/>
</g>
<!-- Node22 -->
<g id="node22" class="node"><title>Node22</title>
<g id="a_node22"><a xlink:href="sampa__header_8h_source.html" target="_top" xlink:title="MCH/sampa_header.h">
<polygon fill="none" stroke="black" points="168,-246.5 168,-265.5 283,-265.5 283,-246.5 168,-246.5"/>
<text text-anchor="middle" x="225.5" y="-253.5" font-family="Helvetica,sans-Serif" font-size="10.00">MCH/sampa_header.h</text>
</a>
</g>
</g>
<!-- Node21&#45;&gt;Node22 -->
<g id="edge29" class="edge"><title>Node21&#45;&gt;Node22</title>
<path fill="none" stroke="midnightblue" d="M263.069,-302.083C256.647,-294.377 247.194,-283.033 239.378,-273.653"/>
<polygon fill="midnightblue" stroke="midnightblue" points="241.883,-271.193 232.793,-265.751 236.506,-275.674 241.883,-271.193"/>
</g>
<!-- Node21&#45;&gt;Node23 -->
<g id="edge31" class="edge"><title>Node21&#45;&gt;Node23</title>
<path fill="none" stroke="midnightblue" d="M299.497,-302.444C330.685,-293.241 380.43,-278.562 414.908,-268.388"/>
<polygon fill="midnightblue" stroke="midnightblue" points="416.038,-271.704 424.639,-265.516 414.057,-264.99 416.038,-271.704"/>
</g>
</g>
</svg>
        <g id="navigator" transform="translate(0 0)" fill="#404254">
                <rect fill="#f2f5e9" fill-opacity="0.5" stroke="#606060" stroke-width=".5" x="0" y="0" width="60" height="60"/>
                <use id="zoomplus" xlink:href="#zoomPlus" x="17" y="9" onmousedown="handleZoom(evt,'in')"/>
                <use id="zoomminus" xlink:href="#zoomMin" x="42" y="9" onmousedown="handleZoom(evt,'out')"/>
                <use id="reset" xlink:href="#resetDef" x="30" y="36" onmousedown="handleReset()"/>
                <g id="arrowUp" xlink:href="#dirArrow" transform="translate(30 24)" onmousedown="handlePan(0,-1)">
                  <use xlink:href="#rim" fill="#404040">
                        <set attributeName="fill" to="#808080" begin="arrowUp.mouseover" end="arrowUp.mouseout"/>
                  </use>
                  <path fill="none" stroke="white" stroke-width="1.5" d="M0,-3.0v7 M-2.5,-0.5L0,-3.0L2.5,-0.5"/>
                </g>
                <g id="arrowRight" xlink:href="#dirArrow" transform="rotate(90) translate(36 -43)" onmousedown="handlePan(1,0)">
                  <use xlink:href="#rim" fill="#404040">
                        <set attributeName="fill" to="#808080" begin="arrowRight.mouseover" end="arrowRight.mouseout"/>
                  </use>
                  <path fill="none" stroke="white" stroke-width="1.5" d="M0,-3.0v7 M-2.5,-0.5L0,-3.0L2.5,-0.5"/>
                </g>
                <g id="arrowDown" xlink:href="#dirArrow" transform="rotate(180) translate(-30 -48)" onmousedown="handlePan(0,1)">
                  <use xlink:href="#rim" fill="#404040">
                        <set attributeName="fill" to="#808080" begin="arrowDown.mouseover" end="arrowDown.mouseout"/>
                  </use>
                  <path fill="none" stroke="white" stroke-width="1.5" d="M0,-3.0v7 M-2.5,-0.5L0,-3.0L2.5,-0.5"/>
                </g>
                <g id="arrowLeft" xlink:href="#dirArrow" transform="rotate(270) translate(-36 17)" onmousedown="handlePan(-1,0)">
                  <use xlink:href="#rim" fill="#404040">
                        <set attributeName="fill" to="#808080" begin="arrowLeft.mouseover" end="arrowLeft.mouseout"/>
                  </use>
                  <path fill="none" stroke="white" stroke-width="1.5" d="M0,-3.0v7 M-2.5,-0.5L0,-3.0L2.5,-0.5"/>
                </g>
        </g>
        <svg viewBox="0 0 15 15" width="100%" height="30px" preserveAspectRatio="xMaxYMin meet">
         <g id="arrow_out" transform="scale(0.3 0.3)">
          <a xlink:href="PhysicsTask_8h__incl_org.svg" target="_base">
           <rect id="button" ry="5" rx="5" y="6" x="6" height="38" width="38"
                fill="#f2f5e9" fill-opacity="0.5" stroke="#606060" stroke-width="1.0"/>
           <path id="arrow"
             d="M 11.500037,31.436501 C 11.940474,20.09759 22.043105,11.32322 32.158766,21.979434 L 37.068811,17.246167 C 37.068811,17.246167 37.088388,32 37.088388,32 L 22.160133,31.978069 C 22.160133,31.978069 26.997745,27.140456 26.997745,27.140456 C 18.528582,18.264221 13.291696,25.230495 11.500037,31.436501 z"
             style="fill:#404040;"/>
          </a>
         </g>
        </svg>
</svg>
