<?xml version="1.0" encoding="UTF-8" standalone="no"?>
<!DOCTYPE svg PUBLIC "-//W3C//DTD SVG 1.1//EN"
 "http://www.w3.org/Graphics/SVG/1.1/DTD/svg11.dtd">
<!-- Generated by graphviz version 2.38.0 (20140413.2041)
 -->
<!-- Title: Modules/MUON/MCH/src/PhysicsTask.cxx Pages: 1 -->
<svg width="1375pt" height="453pt"
 viewBox="0.00 0.00 1374.50 453.00" xmlns="http://www.w3.org/2000/svg" xmlns:xlink="http://www.w3.org/1999/xlink">
<g id="graph0" class="graph" transform="scale(1 1) rotate(0) translate(4 449)">
<title>Modules/MUON/MCH/src/PhysicsTask.cxx</title>
<!-- Node1 -->
<g id="node1" class="node"><title>Node1</title>
<polygon fill="#bfbfbf" stroke="black" points="201.5,-414.5 201.5,-444.5 331.5,-444.5 331.5,-414.5 201.5,-414.5"/>
<text text-anchor="start" x="209.5" y="-432.5" font-family="Helvetica,sans-Serif" font-size="10.00">Modules/MUON/MCH/src</text>
<text text-anchor="middle" x="266.5" y="-421.5" font-family="Helvetica,sans-Serif" font-size="10.00">/PhysicsTask.cxx</text>
</g>
<!-- Node2 -->
<g id="node2" class="node"><title>Node2</title>
<polygon fill="none" stroke="#bfbfbf" points="0,-358.5 0,-377.5 65,-377.5 65,-358.5 0,-358.5"/>
<text text-anchor="middle" x="32.5" y="-365.5" font-family="Helvetica,sans-Serif" font-size="10.00">TCanvas.h</text>
</g>
<!-- Node1&#45;&gt;Node2 -->
<g id="edge1" class="edge"><title>Node1&#45;&gt;Node2</title>
<path fill="none" stroke="midnightblue" d="M211.342,-414.475C169.666,-403.878 113.3,-389.545 75.0672,-379.824"/>
<polygon fill="midnightblue" stroke="midnightblue" points="75.8295,-376.406 65.2754,-377.334 74.1044,-383.19 75.8295,-376.406"/>
</g>
<!-- Node3 -->
<g id="node3" class="node"><title>Node3</title>
<polygon fill="none" stroke="#bfbfbf" points="83.5,-358.5 83.5,-377.5 127.5,-377.5 127.5,-358.5 83.5,-358.5"/>
<text text-anchor="middle" x="105.5" y="-365.5" font-family="Helvetica,sans-Serif" font-size="10.00">TH1.h</text>
</g>
<!-- Node1&#45;&gt;Node3 -->
<g id="edge2" class="edge"><title>Node1&#45;&gt;Node3</title>
<path fill="none" stroke="midnightblue" d="M228.345,-414.399C200.476,-404.1 163.14,-390.302 136.97,-380.63"/>
<polygon fill="midnightblue" stroke="midnightblue" points="138.124,-377.325 127.53,-377.142 135.697,-383.891 138.124,-377.325"/>
</g>
<!-- Node4 -->
<g id="node4" class="node"><title>Node4</title>
<polygon fill="none" stroke="#bfbfbf" points="145.5,-358.5 145.5,-377.5 189.5,-377.5 189.5,-358.5 145.5,-358.5"/>
<text text-anchor="middle" x="167.5" y="-365.5" font-family="Helvetica,sans-Serif" font-size="10.00">TH2.h</text>
</g>
<!-- Node1&#45;&gt;Node4 -->
<g id="edge3" class="edge"><title>Node1&#45;&gt;Node4</title>
<path fill="none" stroke="midnightblue" d="M243.038,-414.399C227.169,-404.862 206.309,-392.325 190.532,-382.842"/>
<polygon fill="midnightblue" stroke="midnightblue" points="192.279,-379.809 181.905,-377.658 188.674,-385.809 192.279,-379.809"/>
</g>
<!-- Node5 -->
<g id="node5" class="node"><title>Node5</title>
<polygon fill="none" stroke="#bfbfbf" points="208,-358.5 208,-377.5 255,-377.5 255,-358.5 208,-358.5"/>
<text text-anchor="middle" x="231.5" y="-365.5" font-family="Helvetica,sans-Serif" font-size="10.00">TFile.h</text>
</g>
<!-- Node1&#45;&gt;Node5 -->
<g id="edge4" class="edge"><title>Node1&#45;&gt;Node5</title>
<path fill="none" stroke="midnightblue" d="M258.205,-414.399C253.277,-406.021 246.986,-395.327 241.749,-386.423"/>
<polygon fill="midnightblue" stroke="midnightblue" points="244.68,-384.503 236.593,-377.658 238.646,-388.052 244.68,-384.503"/>
</g>
<!-- Node6 -->
<g id="node6" class="node"><title>Node6</title>
<polygon fill="none" stroke="#bfbfbf" points="273.5,-358.5 273.5,-377.5 329.5,-377.5 329.5,-358.5 273.5,-358.5"/>
<text text-anchor="middle" x="301.5" y="-365.5" font-family="Helvetica,sans-Serif" font-size="10.00">algorithm</text>
</g>
<!-- Node1&#45;&gt;Node6 -->
<g id="edge5" class="edge"><title>Node1&#45;&gt;Node6</title>
<path fill="none" stroke="midnightblue" d="M274.795,-414.399C279.723,-406.021 286.014,-395.327 291.251,-386.423"/>
<polygon fill="midnightblue" stroke="midnightblue" points="294.354,-388.052 296.407,-377.658 288.32,-384.503 294.354,-388.052"/>
</g>
<!-- Node7 -->
<g id="node7" class="node"><title>Node7</title>
<polygon fill="none" stroke="#bfbfbf" points="348,-358.5 348,-377.5 489,-377.5 489,-358.5 348,-358.5"/>
<text text-anchor="middle" x="418.5" y="-365.5" font-family="Helvetica,sans-Serif" font-size="10.00">Headers/RAWDataHeader.h</text>
</g>
<!-- Node1&#45;&gt;Node7 -->
<g id="edge6" class="edge"><title>Node1&#45;&gt;Node7</title>
<path fill="none" stroke="midnightblue" d="M302.522,-414.399C328.139,-404.372 362.227,-391.028 386.81,-381.405"/>
<polygon fill="midnightblue" stroke="midnightblue" points="388.346,-384.562 396.383,-377.658 385.795,-378.044 388.346,-384.562"/>
</g>
<!-- Node8 -->
<g id="node8" class="node"><title>Node8</title>
<g id="a_node8"><a xlink:href="QcInfoLogger_8h.html" target="_top" xlink:title="QualityControl/QcInfoLogger.h">
<polygon fill="none" stroke="black" points="507,-358.5 507,-377.5 656,-377.5 656,-358.5 507,-358.5"/>
<text text-anchor="middle" x="581.5" y="-365.5" font-family="Helvetica,sans-Serif" font-size="10.00">QualityControl/QcInfoLogger.h</text>
</a>
</g>
</g>
<!-- Node1&#45;&gt;Node8 -->
<g id="edge7" class="edge"><title>Node1&#45;&gt;Node8</title>
<path fill="none" stroke="midnightblue" d="M331.768,-416.172C389.159,-405.331 471.777,-389.725 526.033,-379.477"/>
<polygon fill="midnightblue" stroke="midnightblue" points="526.979,-382.86 536.156,-377.565 525.68,-375.982 526.979,-382.86"/>
</g>
<!-- Node10 -->
<g id="node10" class="node"><title>Node10</title>
<g id="a_node10"><a xlink:href="PhysicsTask_8h.html" target="_top" xlink:title="MCH/PhysicsTask.h">
<polygon fill="none" stroke="black" points="721.5,-358.5 721.5,-377.5 829.5,-377.5 829.5,-358.5 721.5,-358.5"/>
<text text-anchor="middle" x="775.5" y="-365.5" font-family="Helvetica,sans-Serif" font-size="10.00">MCH/PhysicsTask.h</text>
</a>
</g>
</g>
<!-- Node1&#45;&gt;Node10 -->
<g id="edge9" class="edge"><title>Node1&#45;&gt;Node10</title>
<path fill="none" stroke="midnightblue" d="M331.741,-420.874C429.806,-409.41 614.056,-387.872 711.429,-376.49"/>
<polygon fill="midnightblue" stroke="midnightblue" points="711.907,-379.958 721.433,-375.32 711.094,-373.005 711.907,-379.958"/>
</g>
<!-- Node9 -->
<g id="node9" class="node"><title>Node9</title>
<polygon fill="none" stroke="#bfbfbf" points="469.5,-302.5 469.5,-321.5 599.5,-321.5 599.5,-302.5 469.5,-302.5"/>
<text text-anchor="middle" x="534.5" y="-309.5" font-family="Helvetica,sans-Serif" font-size="10.00">InfoLogger/InfoLogger.hxx</text>
</g>
<!-- Node8&#45;&gt;Node9 -->
<g id="edge8" class="edge"><title>Node8&#45;&gt;Node9</title>
<path fill="none" stroke="midnightblue" d="M573.739,-358.083C566.963,-350.298 556.957,-338.801 548.745,-329.367"/>
<polygon fill="midnightblue" stroke="midnightblue" points="551.322,-326.996 542.117,-321.751 546.042,-331.592 551.322,-326.996"/>
</g>
<!-- Node11 -->
<g id="node11" class="node"><title>Node11</title>
<g id="a_node11"><a xlink:href="TaskInterface_8h.html" target="_top" xlink:title="QualityControl/TaskInterface.h">
<polygon fill="none" stroke="black" points="590.5,-185 590.5,-204 740.5,-204 740.5,-185 590.5,-185"/>
<text text-anchor="middle" x="665.5" y="-192" font-family="Helvetica,sans-Serif" font-size="10.00">QualityControl/TaskInterface.h</text>
</a>
</g>
</g>
<!-- Node10&#45;&gt;Node11 -->
<g id="edge10" class="edge"><title>Node10&#45;&gt;Node11</title>
<path fill="none" stroke="midnightblue" d="M760.741,-358.439C736.451,-343.378 688.912,-309.569 670.5,-266 663.565,-249.59 662.888,-229.118 663.601,-214.469"/>
<polygon fill="midnightblue" stroke="midnightblue" points="667.117,-214.393 664.378,-204.158 660.137,-213.867 667.117,-214.393"/>
</g>
<!-- Node28 -->
<g id="node28" class="node"><title>Node28</title>
<g id="a_node28"><a xlink:href="Mapping_8h_source.html" target="_top" xlink:title="MCH/Mapping.h">
<polygon fill="none" stroke="black" points="939.5,-246.5 939.5,-265.5 1027.5,-265.5 1027.5,-246.5 939.5,-246.5"/>
<text text-anchor="middle" x="983.5" y="-253.5" font-family="Helvetica,sans-Serif" font-size="10.00">MCH/Mapping.h</text>
</a>
</g>
</g>
<!-- Node10&#45;&gt;Node28 -->
<g id="edge33" class="edge"><title>Node10&#45;&gt;Node28</title>
<path fill="none" stroke="midnightblue" d="M791.821,-358.368C827.97,-339.251 914.994,-293.229 958.236,-270.361"/>
<polygon fill="midnightblue" stroke="midnightblue" points="960.051,-273.36 967.254,-265.591 956.778,-267.172 960.051,-273.36"/>
</g>
<!-- Node30 -->
<g id="node30" class="node"><title>Node30</title>
<g id="a_node30"><a xlink:href="Decoding_8h.html" target="_top" xlink:title="MCH/Decoding.h">
<polygon fill="none" stroke="black" points="729.5,-302.5 729.5,-321.5 821.5,-321.5 821.5,-302.5 729.5,-302.5"/>
<text text-anchor="middle" x="775.5" y="-309.5" font-family="Helvetica,sans-Serif" font-size="10.00">MCH/Decoding.h</text>
</a>
</g>
</g>
<!-- Node10&#45;&gt;Node30 -->
<g id="edge36" class="edge"><title>Node10&#45;&gt;Node30</title>
<path fill="none" stroke="midnightblue" d="M775.5,-358.083C775.5,-351.006 775.5,-340.861 775.5,-331.986"/>
<polygon fill="midnightblue" stroke="midnightblue" points="779,-331.751 775.5,-321.751 772,-331.751 779,-331.751"/>
</g>
<!-- Node32 -->
<g id="node32" class="node"><title>Node32</title>
<polygon fill="none" stroke="#bfbfbf" points="827.5,-246.5 827.5,-265.5 921.5,-265.5 921.5,-246.5 827.5,-246.5"/>
<text text-anchor="middle" x="874.5" y="-253.5" font-family="Helvetica,sans-Serif" font-size="10.00">MCHBase/Digit.h</text>
</g>
<!-- Node10&#45;&gt;Node32 -->
<g id="edge41" class="edge"><title>Node10&#45;&gt;Node32</title>
<path fill="none" stroke="midnightblue" d="M788.179,-358.271C799.937,-349.813 817.521,-336.212 830.5,-322 843.958,-307.263 856.418,-288.115 864.617,-274.425"/>
<polygon fill="midnightblue" stroke="midnightblue" points="867.772,-275.964 869.788,-265.563 861.726,-272.436 867.772,-275.964"/>
</g>
<!-- Node12 -->
<g id="node12" class="node"><title>Node12</title>
<polygon fill="none" stroke="#bfbfbf" points="694,-0.5 694,-19.5 729,-19.5 729,-0.5 694,-0.5"/>
<text text-anchor="middle" x="711.5" y="-7.5" font-family="Helvetica,sans-Serif" font-size="10.00">map</text>
</g>
<!-- Node11&#45;&gt;Node12 -->
<g id="edge11" class="edge"><title>Node11&#45;&gt;Node12</title>
<path fill="none" stroke="midnightblue" d="M629.4,-184.843C607.656,-177.567 581.698,-164.75 568.5,-143 548.441,-109.943 545.627,-87.1761 568.5,-56 594.895,-20.0227 650.073,-12.0511 683.643,-10.71"/>
<polygon fill="midnightblue" stroke="midnightblue" points="683.802,-14.2074 693.719,-10.4805 683.642,-7.20921 683.802,-14.2074"/>
</g>
<!-- Node13 -->
<g id="node13" class="node"><title>Node13</title>
<polygon fill="none" stroke="#bfbfbf" points="637.5,-62 637.5,-81 689.5,-81 689.5,-62 637.5,-62"/>
<text text-anchor="middle" x="663.5" y="-69" font-family="Helvetica,sans-Serif" font-size="10.00">memory</text>
</g>
<!-- Node11&#45;&gt;Node13 -->
<g id="edge12" class="edge"><title>Node11&#45;&gt;Node13</title>
<path fill="none" stroke="midnightblue" d="M659.551,-184.674C653.387,-174.954 644.155,-158.622 640.5,-143 636.163,-124.463 644.51,-103.818 652.336,-89.6852"/>
<polygon fill="midnightblue" stroke="midnightblue" points="655.373,-91.4252 657.507,-81.0476 649.367,-87.8293 655.373,-91.4252"/>
</g>
<!-- Node14 -->
<g id="node14" class="node"><title>Node14</title>
<polygon fill="none" stroke="#bfbfbf" points="785,-0.5 785,-19.5 826,-19.5 826,-0.5 785,-0.5"/>
<text text-anchor="middle" x="805.5" y="-7.5" font-family="Helvetica,sans-Serif" font-size="10.00">string</text>
</g>
<!-- Node11&#45;&gt;Node14 -->
<g id="edge13" class="edge"><title>Node11&#45;&gt;Node14</title>
<path fill="none" stroke="midnightblue" d="M658.5,-184.756C640.667,-161.365 597.089,-96.3966 628.5,-56 637.544,-44.3696 726.754,-25.9071 774.958,-16.6635"/>
<polygon fill="midnightblue" stroke="midnightblue" points="775.687,-20.0877 784.859,-14.784 774.382,-13.2105 775.687,-20.0877"/>
</g>
<!-- Node15 -->
<g id="node15" class="node"><title>Node15</title>
<polygon fill="none" stroke="#bfbfbf" points="517,-0.5 517,-19.5 600,-19.5 600,-0.5 517,-0.5"/>
<text text-anchor="middle" x="558.5" y="-7.5" font-family="Helvetica,sans-Serif" font-size="10.00">unordered_map</text>
</g>
<!-- Node11&#45;&gt;Node15 -->
<g id="edge14" class="edge"><title>Node11&#45;&gt;Node15</title>
<path fill="none" stroke="midnightblue" d="M622.308,-184.999C598.351,-177.933 570.29,-165.284 554.5,-143 530.395,-108.979 542.556,-56.6803 551.622,-29.2411"/>
<polygon fill="midnightblue" stroke="midnightblue" points="554.952,-30.3239 554.977,-19.729 548.35,-27.9956 554.952,-30.3239"/>
</g>
<!-- Node16 -->
<g id="node16" class="node"><title>Node16</title>
<polygon fill="none" stroke="#bfbfbf" points="649,-123.5 649,-142.5 774,-142.5 774,-123.5 649,-123.5"/>
<text text-anchor="middle" x="711.5" y="-130.5" font-family="Helvetica,sans-Serif" font-size="10.00">Framework/InitContext.h</text>
</g>
<!-- Node11&#45;&gt;Node16 -->
<g id="edge15" class="edge"><title>Node11&#45;&gt;Node16</title>
<path fill="none" stroke="midnightblue" d="M672.091,-184.975C678.991,-176.05 690.002,-161.807 698.634,-150.643"/>
<polygon fill="midnightblue" stroke="midnightblue" points="701.574,-152.561 704.922,-142.509 696.036,-148.28 701.574,-152.561"/>
</g>
<!-- Node17 -->
<g id="node17" class="node"><title>Node17</title>
<polygon fill="none" stroke="#bfbfbf" points="792.5,-123.5 792.5,-142.5 952.5,-142.5 952.5,-123.5 792.5,-123.5"/>
<text text-anchor="middle" x="872.5" y="-130.5" font-family="Helvetica,sans-Serif" font-size="10.00">Framework/ProcessingContext.h</text>
</g>
<!-- Node11&#45;&gt;Node17 -->
<g id="edge16" class="edge"><title>Node11&#45;&gt;Node17</title>
<path fill="none" stroke="midnightblue" d="M695.158,-184.975C731.434,-174.548 792.964,-156.862 833.164,-145.307"/>
<polygon fill="midnightblue" stroke="midnightblue" points="834.253,-148.635 842.897,-142.509 832.319,-141.908 834.253,-148.635"/>
</g>
<!-- Node18 -->
<g id="node18" class="node"><title>Node18</title>
<g id="a_node18"><a xlink:href="Activity_8h.html" target="_top" xlink:title="QualityControl/Activity.h">
<polygon fill="none" stroke="black" points="971,-123.5 971,-142.5 1094,-142.5 1094,-123.5 971,-123.5"/>
<text text-anchor="middle" x="1032.5" y="-130.5" font-family="Helvetica,sans-Serif" font-size="10.00">QualityControl/Activity.h</text>
</a>
</g>
</g>
<!-- Node11&#45;&gt;Node18 -->
<g id="edge17" class="edge"><title>Node11&#45;&gt;Node18</title>
<path fill="none" stroke="midnightblue" d="M718.082,-184.975C784.578,-174.194 898.934,-155.654 969.875,-144.153"/>
<polygon fill="midnightblue" stroke="midnightblue" points="970.704,-147.564 980.015,-142.509 969.584,-140.655 970.704,-147.564"/>
</g>
<!-- Node19 -->
<g id="node19" class="node"><title>Node19</title>
<g id="a_node19"><a xlink:href="ObjectsManager_8h.html" target="_top" xlink:title="QualityControl/ObjectsManager.h">
<polygon fill="none" stroke="black" points="1112,-123.5 1112,-142.5 1273,-142.5 1273,-123.5 1112,-123.5"/>
<text text-anchor="middle" x="1192.5" y="-130.5" font-family="Helvetica,sans-Serif" font-size="10.00">QualityControl/ObjectsManager.h</text>
</a>
</g>
</g>
<!-- Node11&#45;&gt;Node19 -->
<g id="edge18" class="edge"><title>Node11&#45;&gt;Node19</title>
<path fill="none" stroke="midnightblue" d="M740.726,-185.007C837.508,-174.08 1005.22,-155.144 1106.82,-143.674"/>
<polygon fill="midnightblue" stroke="midnightblue" points="1107.5,-147.119 1117.05,-142.519 1106.72,-140.163 1107.5,-147.119"/>
</g>
<!-- Node19&#45;&gt;Node13 -->
<g id="edge32" class="edge"><title>Node19&#45;&gt;Node13</title>
<path fill="none" stroke="midnightblue" d="M1111.97,-123.824C1109.11,-123.544 1106.28,-123.269 1103.5,-123 929.796,-106.221 883.88,-119.917 712.5,-87 708.017,-86.139 703.357,-85.0383 698.772,-83.8292"/>
<polygon fill="midnightblue" stroke="midnightblue" points="699.526,-80.4055 688.952,-81.0596 697.626,-87.1427 699.526,-80.4055"/>
</g>
<!-- Node19&#45;&gt;Node14 -->
<g id="edge31" class="edge"><title>Node19&#45;&gt;Node14</title>
<path fill="none" stroke="midnightblue" d="M1111.93,-123.806C1041.4,-115.796 944.845,-102.558 909.5,-87 889.234,-78.0797 888.279,-69.1978 870.5,-56 856.311,-45.4671 839.953,-34.1466 827.197,-25.4949"/>
<polygon fill="midnightblue" stroke="midnightblue" points="828.875,-22.4053 818.628,-19.7162 824.962,-28.209 828.875,-22.4053"/>
</g>
<!-- Node20 -->
<g id="node20" class="node"><title>Node20</title>
<g id="a_node20"><a xlink:href="MonitorObject_8h.html" target="_top" xlink:title="QualityControl/MonitorObject.h">
<polygon fill="none" stroke="black" points="918,-62 918,-81 1069,-81 1069,-62 918,-62"/>
<text text-anchor="middle" x="993.5" y="-69" font-family="Helvetica,sans-Serif" font-size="10.00">QualityControl/MonitorObject.h</text>
</a>
</g>
</g>
<!-- Node19&#45;&gt;Node20 -->
<g id="edge19" class="edge"><title>Node19&#45;&gt;Node20</title>
<path fill="none" stroke="midnightblue" d="M1163.99,-123.475C1129.26,-113.092 1070.46,-95.5116 1031.81,-83.9538"/>
<polygon fill="midnightblue" stroke="midnightblue" points="1032.54,-80.5205 1021.96,-81.0091 1030.54,-87.2271 1032.54,-80.5205"/>
</g>
<!-- Node24 -->
<g id="node24" class="node"><title>Node24</title>
<g id="a_node24"><a xlink:href="MonitorObjectCollection_8h.html" target="_top" xlink:title="QualityControl/MonitorObject\lCollection.h">
<polygon fill="none" stroke="black" points="1121,-56.5 1121,-86.5 1264,-86.5 1264,-56.5 1121,-56.5"/>
<text text-anchor="start" x="1129" y="-74.5" font-family="Helvetica,sans-Serif" font-size="10.00">QualityControl/MonitorObject</text>
<text text-anchor="middle" x="1192.5" y="-63.5" font-family="Helvetica,sans-Serif" font-size="10.00">Collection.h</text>
</a>
</g>
</g>
<!-- Node19&#45;&gt;Node24 -->
<g id="edge25" class="edge"><title>Node19&#45;&gt;Node24</title>
<path fill="none" stroke="midnightblue" d="M1192.5,-123.475C1192.5,-116.471 1192.5,-106.192 1192.5,-96.6956"/>
<polygon fill="midnightblue" stroke="midnightblue" points="1196,-96.5229 1192.5,-86.523 1189,-96.523 1196,-96.5229"/>
</g>
<!-- Node27 -->
<g id="node27" class="node"><title>Node27</title>
<g id="a_node27"><a xlink:href="TaskConfig_8h.html" target="_top" xlink:title="QualityControl/TaskConfig.h">
<polygon fill="none" stroke="black" points="721.5,-62 721.5,-81 861.5,-81 861.5,-62 721.5,-62"/>
<text text-anchor="middle" x="791.5" y="-69" font-family="Helvetica,sans-Serif" font-size="10.00">QualityControl/TaskConfig.h</text>
</a>
</g>
</g>
<!-- Node19&#45;&gt;Node27 -->
<g id="edge28" class="edge"><title>Node19&#45;&gt;Node27</title>
<path fill="none" stroke="midnightblue" d="M1128.36,-123.468C1064.27,-114.808 962.947,-100.751 875.5,-87 867.094,-85.6781 858.226,-84.2185 849.528,-82.7498"/>
<polygon fill="midnightblue" stroke="midnightblue" points="849.88,-79.2593 839.434,-81.0291 848.703,-86.1598 849.88,-79.2593"/>
</g>
<!-- Node20&#45;&gt;Node12 -->
<g id="edge21" class="edge"><title>Node20&#45;&gt;Node12</title>
<path fill="none" stroke="midnightblue" d="M953.096,-61.9751C894.923,-49.701 789.082,-27.3693 739.076,-16.8183"/>
<polygon fill="midnightblue" stroke="midnightblue" points="739.518,-13.3346 729.011,-14.6946 738.073,-20.1838 739.518,-13.3346"/>
</g>
<!-- Node20&#45;&gt;Node14 -->
<g id="edge20" class="edge"><title>Node20&#45;&gt;Node14</title>
<path fill="none" stroke="midnightblue" d="M966.564,-61.9751C932.003,-51.037 872.205,-32.1114 836.003,-20.6539"/>
<polygon fill="midnightblue" stroke="midnightblue" points="836.609,-17.1747 826.019,-17.4941 834.497,-23.8485 836.609,-17.1747"/>
</g>
<!-- Node21 -->
<g id="node21" class="node"><title>Node21</title>
<polygon fill="none" stroke="#bfbfbf" points="1069.5,-0.5 1069.5,-19.5 1125.5,-19.5 1125.5,-0.5 1069.5,-0.5"/>
<text text-anchor="middle" x="1097.5" y="-7.5" font-family="Helvetica,sans-Serif" font-size="10.00">Rtypes.h</text>
</g>
<!-- Node20&#45;&gt;Node21 -->
<g id="edge22" class="edge"><title>Node20&#45;&gt;Node21</title>
<path fill="none" stroke="midnightblue" d="M1008.4,-61.9751C1025.47,-52.2106 1053.66,-36.0807 1073.76,-24.5808"/>
<polygon fill="midnightblue" stroke="midnightblue" points="1075.69,-27.513 1082.63,-19.5091 1072.21,-21.4371 1075.69,-27.513"/>
</g>
<!-- Node22 -->
<g id="node22" class="node"><title>Node22</title>
<polygon fill="none" stroke="#bfbfbf" points="858,-0.5 858,-19.5 917,-19.5 917,-0.5 858,-0.5"/>
<text text-anchor="middle" x="887.5" y="-7.5" font-family="Helvetica,sans-Serif" font-size="10.00">TObject.h</text>
</g>
<!-- Node20&#45;&gt;Node22 -->
<g id="edge23" class="edge"><title>Node20&#45;&gt;Node22</title>
<path fill="none" stroke="midnightblue" d="M978.313,-61.9751C960.838,-52.1664 931.921,-35.9346 911.417,-24.425"/>
<polygon fill="midnightblue" stroke="midnightblue" points="913.092,-21.3519 902.659,-19.5091 909.666,-27.456 913.092,-21.3519"/>
</g>
<!-- Node23 -->
<g id="node23" class="node"><title>Node23</title>
<polygon fill="none" stroke="#bfbfbf" points="935.5,-0.5 935.5,-19.5 1051.5,-19.5 1051.5,-0.5 935.5,-0.5"/>
<text text-anchor="middle" x="993.5" y="-7.5" font-family="Helvetica,sans-Serif" font-size="10.00">Common/Exceptions.h</text>
</g>
<!-- Node20&#45;&gt;Node23 -->
<g id="edge24" class="edge"><title>Node20&#45;&gt;Node23</title>
<path fill="none" stroke="midnightblue" d="M993.5,-61.9751C993.5,-53.5803 993.5,-40.4806 993.5,-29.6631"/>
<polygon fill="midnightblue" stroke="midnightblue" points="997,-29.5091 993.5,-19.5091 990,-29.5091 997,-29.5091"/>
</g>
<!-- Node25 -->
<g id="node25" class="node"><title>Node25</title>
<polygon fill="none" stroke="#bfbfbf" points="1151,-0.5 1151,-19.5 1220,-19.5 1220,-0.5 1151,-0.5"/>
<text text-anchor="middle" x="1185.5" y="-7.5" font-family="Helvetica,sans-Serif" font-size="10.00">TObjArray.h</text>
</g>
<!-- Node24&#45;&gt;Node25 -->
<g id="edge26" class="edge"><title>Node24&#45;&gt;Node25</title>
<path fill="none" stroke="midnightblue" d="M1190.84,-56.3993C1189.91,-48.4664 1188.73,-38.458 1187.72,-29.8583"/>
<polygon fill="midnightblue" stroke="midnightblue" points="1191.16,-29.1803 1186.52,-19.6578 1184.21,-29.9983 1191.16,-29.1803"/>
</g>
<!-- Node26 -->
<g id="node26" class="node"><title>Node26</title>
<polygon fill="none" stroke="#bfbfbf" points="1238.5,-0.5 1238.5,-19.5 1366.5,-19.5 1366.5,-0.5 1238.5,-0.5"/>
<text text-anchor="middle" x="1302.5" y="-7.5" font-family="Helvetica,sans-Serif" font-size="10.00">Mergers/MergeInterface.h</text>
</g>
<!-- Node24&#45;&gt;Node26 -->
<g id="edge27" class="edge"><title>Node24&#45;&gt;Node26</title>
<path fill="none" stroke="midnightblue" d="M1218.57,-56.3993C1236.37,-46.7728 1259.81,-34.0902 1277.4,-24.5772"/>
<polygon fill="midnightblue" stroke="midnightblue" points="1279.36,-27.494 1286.49,-19.6578 1276.03,-21.337 1279.36,-27.494"/>
</g>
<!-- Node27&#45;&gt;Node14 -->
<g id="edge29" class="edge"><title>Node27&#45;&gt;Node14</title>
<path fill="none" stroke="midnightblue" d="M793.506,-61.9751C795.502,-53.4919 798.628,-40.2043 801.189,-29.3222"/>
<polygon fill="midnightblue" stroke="midnightblue" points="804.614,-30.0449 803.498,-19.5091 797.8,-28.4416 804.614,-30.0449"/>
</g>
<!-- Node27&#45;&gt;Node15 -->
<g id="edge30" class="edge"><title>Node27&#45;&gt;Node15</title>
<path fill="none" stroke="midnightblue" d="M758.117,-61.9751C716.938,-51.4595 646.85,-33.5615 601.631,-22.0142"/>
<polygon fill="midnightblue" stroke="midnightblue" points="602.376,-18.5922 591.821,-19.5091 600.644,-25.3746 602.376,-18.5922"/>
</g>
<!-- Node28&#45;&gt;Node11 -->
<g id="edge35" class="edge"><title>Node28&#45;&gt;Node11</title>
<path fill="none" stroke="midnightblue" d="M939.283,-246.727C882.298,-236.064 783.194,-217.521 721.145,-205.912"/>
<polygon fill="midnightblue" stroke="midnightblue" points="721.614,-202.439 711.141,-204.04 720.327,-209.319 721.614,-202.439"/>
</g>
<!-- Node29 -->
<g id="node29" class="node"><title>Node29</title>
<polygon fill="none" stroke="#bfbfbf" points="926,-179.5 926,-209.5 1041,-209.5 1041,-179.5 926,-179.5"/>
<text text-anchor="start" x="934" y="-197.5" font-family="Helvetica,sans-Serif" font-size="10.00">MCHMappingInterface</text>
<text text-anchor="middle" x="983.5" y="-186.5" font-family="Helvetica,sans-Serif" font-size="10.00">/Segmentation.h</text>
</g>
<!-- Node28&#45;&gt;Node29 -->
<g id="edge34" class="edge"><title>Node28&#45;&gt;Node29</title>
<path fill="none" stroke="midnightblue" d="M983.5,-246.475C983.5,-239.471 983.5,-229.192 983.5,-219.696"/>
<polygon fill="midnightblue" stroke="midnightblue" points="987,-219.523 983.5,-209.523 980,-219.523 987,-219.523"/>
</g>
<!-- Node30&#45;&gt;Node11 -->
<g id="edge37" class="edge"><title>Node30&#45;&gt;Node11</title>
<path fill="none" stroke="midnightblue" d="M743.836,-302.364C724.392,-295.512 700.433,-284.027 685.5,-266 673.471,-251.478 668.666,-230.139 666.753,-214.745"/>
<polygon fill="midnightblue" stroke="midnightblue" points="670.197,-213.974 665.782,-204.343 663.227,-214.625 670.197,-213.974"/>
</g>
<!-- Node30&#45;&gt;Node28 -->
<g id="edge39" class="edge"><title>Node30&#45;&gt;Node28</title>
<path fill="none" stroke="midnightblue" d="M808.458,-302.444C844.287,-293.142 901.663,-278.246 940.891,-268.062"/>
<polygon fill="midnightblue" stroke="midnightblue" points="941.896,-271.417 950.696,-265.516 940.137,-264.642 941.896,-271.417"/>
</g>
<!-- Node31 -->
<g id="node31" class="node"><title>Node31</title>
<g id="a_node31"><a xlink:href="sampa__header_8h_source.html" target="_top" xlink:title="MCH/sampa_header.h">
<polygon fill="none" stroke="black" points="694,-246.5 694,-265.5 809,-265.5 809,-246.5 694,-246.5"/>
<text text-anchor="middle" x="751.5" y="-253.5" font-family="Helvetica,sans-Serif" font-size="10.00">MCH/sampa_header.h</text>
</a>
</g>
</g>
<!-- Node30&#45;&gt;Node31 -->
<g id="edge38" class="edge"><title>Node30&#45;&gt;Node31</title>
<path fill="none" stroke="midnightblue" d="M771.537,-302.083C768.287,-294.77 763.581,-284.181 759.546,-275.103"/>
<polygon fill="midnightblue" stroke="midnightblue" points="762.649,-273.468 755.389,-265.751 756.252,-276.311 762.649,-273.468"/>
</g>
<!-- Node30&#45;&gt;Node32 -->
<g id="edge40" class="edge"><title>Node30&#45;&gt;Node32</title>
<path fill="none" stroke="midnightblue" d="M791.406,-302.324C807.138,-293.743 831.442,-280.486 849.709,-270.522"/>
<polygon fill="midnightblue" stroke="midnightblue" points="851.53,-273.516 858.633,-265.655 848.178,-267.37 851.53,-273.516"/>
</g>
</g>
</svg>
