<?xml version="1.0" encoding="UTF-8" standalone="no"?>
<!DOCTYPE svg PUBLIC "-//W3C//DTD SVG 1.1//EN"
 "http://www.w3.org/Graphics/SVG/1.1/DTD/svg11.dtd">
<!-- Generated by graphviz version 2.38.0 (20140413.2041)
 -->
<!-- Title: Modules/TPC/include/TPC/PID.h Pages: 1 -->
<svg width="885pt" height="274pt"
 viewBox="0.00 0.00 885.00 274.00" xmlns="http://www.w3.org/2000/svg" xmlns:xlink="http://www.w3.org/1999/xlink">
<g id="graph0" class="graph" transform="scale(1 1) rotate(0) translate(4 270)">
<title>Modules/TPC/include/TPC/PID.h</title>
<!-- Node1 -->
<g id="node1" class="node"><title>Node1</title>
<polygon fill="#bfbfbf" stroke="black" points="51,-235.5 51,-265.5 161,-265.5 161,-235.5 51,-235.5"/>
<text text-anchor="start" x="59" y="-253.5" font-family="Helvetica,sans-Serif" font-size="10.00">Modules/TPC/include</text>
<text text-anchor="middle" x="106" y="-242.5" font-family="Helvetica,sans-Serif" font-size="10.00">/TPC/PID.h</text>
</g>
<!-- Node2 -->
<g id="node2" class="node"><title>Node2</title>
<polygon fill="none" stroke="#bfbfbf" points="0,-179.5 0,-198.5 80,-198.5 80,-179.5 0,-179.5"/>
<text text-anchor="middle" x="40" y="-186.5" font-family="Helvetica,sans-Serif" font-size="10.00">TPCQC/PID.h</text>
</g>
<!-- Node1&#45;&gt;Node2 -->
<g id="edge1" class="edge"><title>Node1&#45;&gt;Node2</title>
<path fill="none" stroke="midnightblue" d="M90.3589,-235.399C80.3728,-226.397 67.422,-214.721 57.1546,-205.465"/>
<polygon fill="midnightblue" stroke="midnightblue" points="59.3745,-202.754 49.6036,-198.658 54.6874,-207.953 59.3745,-202.754"/>
</g>
<!-- Node3 -->
<g id="node3" class="node"><title>Node3</title>
<g id="a_node3"><a xlink:href="TaskInterface_8h.html" target="_top" xlink:title="QualityControl/TaskInterface.h">
<polygon fill="none" stroke="black" points="98,-179.5 98,-198.5 248,-198.5 248,-179.5 98,-179.5"/>
<text text-anchor="middle" x="173" y="-186.5" font-family="Helvetica,sans-Serif" font-size="10.00">QualityControl/TaskInterface.h</text>
</a>
</g>
</g>
<!-- Node1&#45;&gt;Node3 -->
<g id="edge2" class="edge"><title>Node1&#45;&gt;Node3</title>
<path fill="none" stroke="midnightblue" d="M121.878,-235.399C132.015,-226.397 145.162,-214.721 155.585,-205.465"/>
<polygon fill="midnightblue" stroke="midnightblue" points="158.098,-207.915 163.251,-198.658 153.45,-202.681 158.098,-207.915"/>
</g>
<!-- Node4 -->
<g id="node4" class="node"><title>Node4</title>
<polygon fill="none" stroke="#bfbfbf" points="197.5,-0.5 197.5,-19.5 232.5,-19.5 232.5,-0.5 197.5,-0.5"/>
<text text-anchor="middle" x="215" y="-7.5" font-family="Helvetica,sans-Serif" font-size="10.00">map</text>
</g>
<!-- Node3&#45;&gt;Node4 -->
<g id="edge3" class="edge"><title>Node3&#45;&gt;Node4</title>
<path fill="none" stroke="midnightblue" d="M129.933,-179.486C109.604,-173.074 87.1772,-161.991 75,-143 54.1288,-110.45 52.2229,-87.246 75,-56 100.537,-20.9681 153.792,-12.611 186.759,-10.9548"/>
<polygon fill="midnightblue" stroke="midnightblue" points="187.21,-14.4422 197.092,-10.6212 186.984,-7.4458 187.21,-14.4422"/>
</g>
<!-- Node5 -->
<g id="node5" class="node"><title>Node5</title>
<polygon fill="none" stroke="#bfbfbf" points="128,-62 128,-81 180,-81 180,-62 128,-62"/>
<text text-anchor="middle" x="154" y="-69" font-family="Helvetica,sans-Serif" font-size="10.00">memory</text>
</g>
<!-- Node3&#45;&gt;Node5 -->
<g id="edge4" class="edge"><title>Node3&#45;&gt;Node5</title>
<path fill="none" stroke="midnightblue" d="M165.849,-179.364C159.227,-170.763 149.843,-156.873 146,-143 141.231,-125.783 144.433,-105.447 148.105,-91.0511"/>
<polygon fill="midnightblue" stroke="midnightblue" points="151.495,-91.9279 150.881,-81.3508 144.765,-90.0022 151.495,-91.9279"/>
</g>
<!-- Node6 -->
<g id="node6" class="node"><title>Node6</title>
<polygon fill="none" stroke="#bfbfbf" points="282.5,-0.5 282.5,-19.5 323.5,-19.5 323.5,-0.5 282.5,-0.5"/>
<text text-anchor="middle" x="303" y="-7.5" font-family="Helvetica,sans-Serif" font-size="10.00">string</text>
</g>
<!-- Node3&#45;&gt;Node6 -->
<g id="edge5" class="edge"><title>Node3&#45;&gt;Node6</title>
<path fill="none" stroke="midnightblue" d="M164.021,-179.452C141.664,-157.146 87.5075,-96.1226 119,-56 128.502,-43.8943 222.483,-25.4328 272.322,-16.3824"/>
<polygon fill="midnightblue" stroke="midnightblue" points="273.017,-19.8136 282.24,-14.5997 271.779,-12.924 273.017,-19.8136"/>
</g>
<!-- Node7 -->
<g id="node7" class="node"><title>Node7</title>
<polygon fill="none" stroke="#bfbfbf" points="32.5,-0.5 32.5,-19.5 115.5,-19.5 115.5,-0.5 32.5,-0.5"/>
<text text-anchor="middle" x="74" y="-7.5" font-family="Helvetica,sans-Serif" font-size="10.00">unordered_map</text>
</g>
<!-- Node3&#45;&gt;Node7 -->
<g id="edge6" class="edge"><title>Node3&#45;&gt;Node7</title>
<path fill="none" stroke="midnightblue" d="M120.261,-179.473C98.4081,-173.143 74.9512,-162.133 61,-143 36.2178,-109.013 53.42,-56.3226 65.3095,-28.9237"/>
<polygon fill="midnightblue" stroke="midnightblue" points="68.5277,-30.3022 69.5076,-19.7528 62.1629,-27.3886 68.5277,-30.3022"/>
</g>
<!-- Node8 -->
<g id="node8" class="node"><title>Node8</title>
<polygon fill="none" stroke="#bfbfbf" points="155.5,-123.5 155.5,-142.5 280.5,-142.5 280.5,-123.5 155.5,-123.5"/>
<text text-anchor="middle" x="218" y="-130.5" font-family="Helvetica,sans-Serif" font-size="10.00">Framework/InitContext.h</text>
</g>
<!-- Node3&#45;&gt;Node8 -->
<g id="edge7" class="edge"><title>Node3&#45;&gt;Node8</title>
<path fill="none" stroke="midnightblue" d="M180.431,-179.083C186.853,-171.377 196.306,-160.033 204.122,-150.653"/>
<polygon fill="midnightblue" stroke="midnightblue" points="206.994,-152.674 210.707,-142.751 201.617,-148.193 206.994,-152.674"/>
</g>
<!-- Node9 -->
<g id="node9" class="node"><title>Node9</title>
<polygon fill="none" stroke="#bfbfbf" points="299,-123.5 299,-142.5 459,-142.5 459,-123.5 299,-123.5"/>
<text text-anchor="middle" x="379" y="-130.5" font-family="Helvetica,sans-Serif" font-size="10.00">Framework/ProcessingContext.h</text>
</g>
<!-- Node3&#45;&gt;Node9 -->
<g id="edge8" class="edge"><title>Node3&#45;&gt;Node9</title>
<path fill="none" stroke="midnightblue" d="M205.641,-179.444C241.05,-170.162 297.709,-155.309 336.553,-145.127"/>
<polygon fill="midnightblue" stroke="midnightblue" points="337.726,-148.438 346.511,-142.516 335.951,-141.667 337.726,-148.438"/>
</g>
<!-- Node10 -->
<g id="node10" class="node"><title>Node10</title>
<g id="a_node10"><a xlink:href="Activity_8h.html" target="_top" xlink:title="QualityControl/Activity.h">
<polygon fill="none" stroke="black" points="477.5,-123.5 477.5,-142.5 600.5,-142.5 600.5,-123.5 477.5,-123.5"/>
<text text-anchor="middle" x="539" y="-130.5" font-family="Helvetica,sans-Serif" font-size="10.00">QualityControl/Activity.h</text>
</a>
</g>
</g>
<!-- Node3&#45;&gt;Node10 -->
<g id="edge9" class="edge"><title>Node3&#45;&gt;Node10</title>
<path fill="none" stroke="midnightblue" d="M230.994,-179.444C296.314,-169.806 402.337,-154.163 471.37,-143.978"/>
<polygon fill="midnightblue" stroke="midnightblue" points="471.896,-147.439 481.278,-142.516 470.874,-140.514 471.896,-147.439"/>
</g>
<!-- Node11 -->
<g id="node11" class="node"><title>Node11</title>
<g id="a_node11"><a xlink:href="ObjectsManager_8h.html" target="_top" xlink:title="QualityControl/ObjectsManager.h">
<polygon fill="none" stroke="black" points="618.5,-123.5 618.5,-142.5 779.5,-142.5 779.5,-123.5 618.5,-123.5"/>
<text text-anchor="middle" x="699" y="-130.5" font-family="Helvetica,sans-Serif" font-size="10.00">QualityControl/ObjectsManager.h</text>
</a>
</g>
</g>
<!-- Node3&#45;&gt;Node11 -->
<g id="edge10" class="edge"><title>Node3&#45;&gt;Node11</title>
<path fill="none" stroke="midnightblue" d="M248.083,-180.292C342.994,-170.548 506.249,-153.788 608.105,-143.331"/>
<polygon fill="midnightblue" stroke="midnightblue" points="608.481,-146.811 618.072,-142.308 607.766,-139.848 608.481,-146.811"/>
</g>
<!-- Node11&#45;&gt;Node5 -->
<g id="edge24" class="edge"><title>Node11&#45;&gt;Node5</title>
<path fill="none" stroke="midnightblue" d="M618.475,-123.805C615.615,-123.531 612.783,-123.261 610,-123 425.674,-105.686 375.944,-126.178 195,-87 191.576,-86.2586 188.045,-85.3094 184.56,-84.2523"/>
<polygon fill="midnightblue" stroke="midnightblue" points="185.577,-80.902 174.983,-81.0698 183.369,-87.5448 185.577,-80.902"/>
</g>
<!-- Node11&#45;&gt;Node6 -->
<g id="edge23" class="edge"><title>Node11&#45;&gt;Node6</title>
<path fill="none" stroke="midnightblue" d="M625.891,-123.499C541.616,-113.357 411.95,-96.5756 391,-87 386.856,-85.1057 344.769,-48.0657 320.332,-26.4071"/>
<polygon fill="midnightblue" stroke="midnightblue" points="322.604,-23.7443 312.802,-19.7247 317.958,-28.98 322.604,-23.7443"/>
</g>
<!-- Node12 -->
<g id="node12" class="node"><title>Node12</title>
<g id="a_node12"><a xlink:href="MonitorObject_8h.html" target="_top" xlink:title="QualityControl/MonitorObject.h">
<polygon fill="none" stroke="black" points="400.5,-62 400.5,-81 551.5,-81 551.5,-62 400.5,-62"/>
<text text-anchor="middle" x="476" y="-69" font-family="Helvetica,sans-Serif" font-size="10.00">QualityControl/MonitorObject.h</text>
</a>
</g>
</g>
<!-- Node11&#45;&gt;Node12 -->
<g id="edge11" class="edge"><title>Node11&#45;&gt;Node12</title>
<path fill="none" stroke="midnightblue" d="M667.05,-123.475C627.804,-113.004 561.122,-95.2118 517.827,-83.6601"/>
<polygon fill="midnightblue" stroke="midnightblue" points="518.456,-80.2054 507.891,-81.0091 516.651,-86.9688 518.456,-80.2054"/>
</g>
<!-- Node16 -->
<g id="node16" class="node"><title>Node16</title>
<g id="a_node16"><a xlink:href="MonitorObjectCollection_8h.html" target="_top" xlink:title="QualityControl/MonitorObject\lCollection.h">
<polygon fill="none" stroke="black" points="627.5,-56.5 627.5,-86.5 770.5,-86.5 770.5,-56.5 627.5,-56.5"/>
<text text-anchor="start" x="635.5" y="-74.5" font-family="Helvetica,sans-Serif" font-size="10.00">QualityControl/MonitorObject</text>
<text text-anchor="middle" x="699" y="-63.5" font-family="Helvetica,sans-Serif" font-size="10.00">Collection.h</text>
</a>
</g>
</g>
<!-- Node11&#45;&gt;Node16 -->
<g id="edge17" class="edge"><title>Node11&#45;&gt;Node16</title>
<path fill="none" stroke="midnightblue" d="M699,-123.475C699,-116.471 699,-106.192 699,-96.6956"/>
<polygon fill="midnightblue" stroke="midnightblue" points="702.5,-96.5229 699,-86.523 695.5,-96.523 702.5,-96.5229"/>
</g>
<!-- Node19 -->
<g id="node19" class="node"><title>Node19</title>
<g id="a_node19"><a xlink:href="TaskConfig_8h.html" target="_top" xlink:title="QualityControl/TaskConfig.h">
<polygon fill="none" stroke="black" points="204,-62 204,-81 344,-81 344,-62 204,-62"/>
<text text-anchor="middle" x="274" y="-69" font-family="Helvetica,sans-Serif" font-size="10.00">QualityControl/TaskConfig.h</text>
</a>
</g>
</g>
<!-- Node11&#45;&gt;Node19 -->
<g id="edge20" class="edge"><title>Node11&#45;&gt;Node19</title>
<path fill="none" stroke="midnightblue" d="M628.023,-123.467C558.965,-114.969 451.127,-101.177 358,-87 349.39,-85.6893 340.299,-84.2149 331.404,-82.7213"/>
<polygon fill="midnightblue" stroke="midnightblue" points="331.925,-79.2598 321.48,-81.0346 330.752,-86.1608 331.925,-79.2598"/>
</g>
<!-- Node12&#45;&gt;Node4 -->
<g id="edge13" class="edge"><title>Node12&#45;&gt;Node4</title>
<path fill="none" stroke="midnightblue" d="M438.605,-61.9751C385.532,-49.8761 289.591,-28.0045 242.534,-17.277"/>
<polygon fill="midnightblue" stroke="midnightblue" points="243.264,-13.8536 232.736,-15.0433 241.708,-20.6785 243.264,-13.8536"/>
</g>
<!-- Node12&#45;&gt;Node6 -->
<g id="edge12" class="edge"><title>Node12&#45;&gt;Node6</title>
<path fill="none" stroke="midnightblue" d="M451.213,-61.9751C420.139,-51.2877 366.894,-32.975 333.395,-21.4536"/>
<polygon fill="midnightblue" stroke="midnightblue" points="334.273,-18.0547 323.679,-18.112 331.997,-24.6741 334.273,-18.0547"/>
</g>
<!-- Node13 -->
<g id="node13" class="node"><title>Node13</title>
<polygon fill="none" stroke="#bfbfbf" points="372,-0.5 372,-19.5 428,-19.5 428,-0.5 372,-0.5"/>
<text text-anchor="middle" x="400" y="-7.5" font-family="Helvetica,sans-Serif" font-size="10.00">Rtypes.h</text>
</g>
<!-- Node12&#45;&gt;Node13 -->
<g id="edge14" class="edge"><title>Node12&#45;&gt;Node13</title>
<path fill="none" stroke="midnightblue" d="M465.111,-61.9751C453.034,-52.5199 433.333,-37.0961 418.76,-25.6871"/>
<polygon fill="midnightblue" stroke="midnightblue" points="420.9,-22.9177 410.869,-19.5091 416.585,-28.4295 420.9,-22.9177"/>
</g>
<!-- Node14 -->
<g id="node14" class="node"><title>Node14</title>
<polygon fill="none" stroke="#bfbfbf" points="446.5,-0.5 446.5,-19.5 505.5,-19.5 505.5,-0.5 446.5,-0.5"/>
<text text-anchor="middle" x="476" y="-7.5" font-family="Helvetica,sans-Serif" font-size="10.00">TObject.h</text>
</g>
<!-- Node12&#45;&gt;Node14 -->
<g id="edge15" class="edge"><title>Node12&#45;&gt;Node14</title>
<path fill="none" stroke="midnightblue" d="M476,-61.9751C476,-53.5803 476,-40.4806 476,-29.6631"/>
<polygon fill="midnightblue" stroke="midnightblue" points="479.5,-29.5091 476,-19.5091 472.5,-29.5091 479.5,-29.5091"/>
</g>
<!-- Node15 -->
<g id="node15" class="node"><title>Node15</title>
<polygon fill="none" stroke="#bfbfbf" points="524,-0.5 524,-19.5 640,-19.5 640,-0.5 524,-0.5"/>
<text text-anchor="middle" x="582" y="-7.5" font-family="Helvetica,sans-Serif" font-size="10.00">Common/Exceptions.h</text>
</g>
<!-- Node12&#45;&gt;Node15 -->
<g id="edge16" class="edge"><title>Node12&#45;&gt;Node15</title>
<path fill="none" stroke="midnightblue" d="M491.187,-61.9751C508.662,-52.1664 537.579,-35.9346 558.083,-24.425"/>
<polygon fill="midnightblue" stroke="midnightblue" points="559.834,-27.456 566.841,-19.5091 556.408,-21.3519 559.834,-27.456"/>
</g>
<!-- Node17 -->
<g id="node17" class="node"><title>Node17</title>
<polygon fill="none" stroke="#bfbfbf" points="661.5,-0.5 661.5,-19.5 730.5,-19.5 730.5,-0.5 661.5,-0.5"/>
<text text-anchor="middle" x="696" y="-7.5" font-family="Helvetica,sans-Serif" font-size="10.00">TObjArray.h</text>
</g>
<!-- Node16&#45;&gt;Node17 -->
<g id="edge18" class="edge"><title>Node16&#45;&gt;Node17</title>
<path fill="none" stroke="midnightblue" d="M698.289,-56.3993C697.889,-48.4664 697.384,-38.458 696.951,-29.8583"/>
<polygon fill="midnightblue" stroke="midnightblue" points="700.436,-29.4688 696.437,-19.6578 693.445,-29.8214 700.436,-29.4688"/>
</g>
<!-- Node18 -->
<g id="node18" class="node"><title>Node18</title>
<polygon fill="none" stroke="#bfbfbf" points="749,-0.5 749,-19.5 877,-19.5 877,-0.5 749,-0.5"/>
<text text-anchor="middle" x="813" y="-7.5" font-family="Helvetica,sans-Serif" font-size="10.00">Mergers/MergeInterface.h</text>
</g>
<!-- Node16&#45;&gt;Node18 -->
<g id="edge19" class="edge"><title>Node16&#45;&gt;Node18</title>
<path fill="none" stroke="midnightblue" d="M726.016,-56.3993C744.631,-46.6837 769.21,-33.8551 787.491,-24.3137"/>
<polygon fill="midnightblue" stroke="midnightblue" points="789.166,-27.3876 796.412,-19.6578 785.927,-21.182 789.166,-27.3876"/>
</g>
<!-- Node19&#45;&gt;Node6 -->
<g id="edge21" class="edge"><title>Node19&#45;&gt;Node6</title>
<path fill="none" stroke="midnightblue" d="M278.155,-61.9751C282.376,-53.3152 289.037,-39.6486 294.4,-28.6453"/>
<polygon fill="midnightblue" stroke="midnightblue" points="297.618,-30.0317 298.853,-19.5091 291.325,-26.9648 297.618,-30.0317"/>
</g>
<!-- Node19&#45;&gt;Node7 -->
<g id="edge22" class="edge"><title>Node19&#45;&gt;Node7</title>
<path fill="none" stroke="midnightblue" d="M245.345,-61.9751C210.444,-51.592 151.35,-34.0116 112.5,-22.4538"/>
<polygon fill="midnightblue" stroke="midnightblue" points="113.185,-19.0059 102.602,-19.5091 111.189,-25.7153 113.185,-19.0059"/>
</g>
</g>
</svg>
