<?xml version="1.0" encoding="UTF-8" standalone="no"?>
<!DOCTYPE svg PUBLIC "-//W3C//DTD SVG 1.1//EN"
 "http://www.w3.org/Graphics/SVG/1.1/DTD/svg11.dtd">
<!-- Generated by graphviz version 2.38.0 (20140413.2041)
 -->
<!-- Title: Modules/TPC/src/PID.cxx Pages: 1 -->
<svg width="1264pt" height="319pt"
 viewBox="0.00 0.00 1264.00 319.00" xmlns="http://www.w3.org/2000/svg" xmlns:xlink="http://www.w3.org/1999/xlink">
<g id="graph0" class="graph" transform="scale(1 1) rotate(0) translate(4 315)">
<title>Modules/TPC/src/PID.cxx</title>
<!-- Node1 -->
<g id="node1" class="node"><title>Node1</title>
<polygon fill="#bfbfbf" stroke="black" points="202.5,-291.5 202.5,-310.5 334.5,-310.5 334.5,-291.5 202.5,-291.5"/>
<text text-anchor="middle" x="268.5" y="-298.5" font-family="Helvetica,sans-Serif" font-size="10.00">Modules/TPC/src/PID.cxx</text>
</g>
<!-- Node2 -->
<g id="node2" class="node"><title>Node2</title>
<polygon fill="none" stroke="#bfbfbf" points="0,-235.5 0,-254.5 65,-254.5 65,-235.5 0,-235.5"/>
<text text-anchor="middle" x="32.5" y="-242.5" font-family="Helvetica,sans-Serif" font-size="10.00">TCanvas.h</text>
</g>
<!-- Node1&#45;&gt;Node2 -->
<g id="edge1" class="edge"><title>Node1&#45;&gt;Node2</title>
<path fill="none" stroke="midnightblue" d="M231.105,-291.444C188.661,-281.732 119.565,-265.922 75.0825,-255.743"/>
<polygon fill="midnightblue" stroke="midnightblue" points="75.6886,-252.292 65.1598,-253.473 74.1272,-259.115 75.6886,-252.292"/>
</g>
<!-- Node3 -->
<g id="node3" class="node"><title>Node3</title>
<polygon fill="none" stroke="#bfbfbf" points="83.5,-235.5 83.5,-254.5 127.5,-254.5 127.5,-235.5 83.5,-235.5"/>
<text text-anchor="middle" x="105.5" y="-242.5" font-family="Helvetica,sans-Serif" font-size="10.00">TH1.h</text>
</g>
<!-- Node1&#45;&gt;Node3 -->
<g id="edge2" class="edge"><title>Node1&#45;&gt;Node3</title>
<path fill="none" stroke="midnightblue" d="M242.672,-291.444C214.122,-281.985 168.111,-266.742 137.348,-256.551"/>
<polygon fill="midnightblue" stroke="midnightblue" points="138.141,-253.127 127.548,-253.304 135.94,-259.771 138.141,-253.127"/>
</g>
<!-- Node4 -->
<g id="node4" class="node"><title>Node4</title>
<polygon fill="none" stroke="#bfbfbf" points="145.5,-235.5 145.5,-254.5 189.5,-254.5 189.5,-235.5 145.5,-235.5"/>
<text text-anchor="middle" x="167.5" y="-242.5" font-family="Helvetica,sans-Serif" font-size="10.00">TH2.h</text>
</g>
<!-- Node1&#45;&gt;Node4 -->
<g id="edge3" class="edge"><title>Node1&#45;&gt;Node4</title>
<path fill="none" stroke="midnightblue" d="M252.273,-291.324C236.149,-282.703 211.2,-269.364 192.536,-259.386"/>
<polygon fill="midnightblue" stroke="midnightblue" points="194.156,-256.283 183.687,-254.655 190.856,-262.456 194.156,-256.283"/>
</g>
<!-- Node5 -->
<g id="node5" class="node"><title>Node5</title>
<polygon fill="none" stroke="#bfbfbf" points="209.5,-123.5 209.5,-142.5 369.5,-142.5 369.5,-123.5 209.5,-123.5"/>
<text text-anchor="middle" x="289.5" y="-130.5" font-family="Helvetica,sans-Serif" font-size="10.00">Framework/ProcessingContext.h</text>
</g>
<!-- Node1&#45;&gt;Node5 -->
<g id="edge4" class="edge"><title>Node1&#45;&gt;Node5</title>
<path fill="none" stroke="midnightblue" d="M259.749,-291.286C251.937,-282.84 241.049,-269.246 236.5,-255 233.796,-246.532 234.373,-243.631 236.5,-235 244.359,-203.11 264.282,-170.147 277.337,-150.887"/>
<polygon fill="midnightblue" stroke="midnightblue" points="280.268,-152.804 283.112,-142.598 274.524,-148.802 280.268,-152.804"/>
</g>
<!-- Node6 -->
<g id="node6" class="node"><title>Node6</title>
<polygon fill="none" stroke="#bfbfbf" points="245.5,-235.5 245.5,-254.5 395.5,-254.5 395.5,-235.5 245.5,-235.5"/>
<text text-anchor="middle" x="320.5" y="-242.5" font-family="Helvetica,sans-Serif" font-size="10.00">DataFormatsTPC/TrackTPC.h</text>
</g>
<!-- Node1&#45;&gt;Node6 -->
<g id="edge5" class="edge"><title>Node1&#45;&gt;Node6</title>
<path fill="none" stroke="midnightblue" d="M277.087,-291.083C284.659,-283.22 295.878,-271.569 305.014,-262.081"/>
<polygon fill="midnightblue" stroke="midnightblue" points="307.658,-264.382 312.073,-254.751 302.615,-259.527 307.658,-264.382"/>
</g>
<!-- Node7 -->
<g id="node7" class="node"><title>Node7</title>
<polygon fill="none" stroke="#bfbfbf" points="413,-235.5 413,-254.5 510,-254.5 510,-235.5 413,-235.5"/>
<text text-anchor="middle" x="461.5" y="-242.5" font-family="Helvetica,sans-Serif" font-size="10.00">TPCQC/Helpers.h</text>
</g>
<!-- Node1&#45;&gt;Node7 -->
<g id="edge6" class="edge"><title>Node1&#45;&gt;Node7</title>
<path fill="none" stroke="midnightblue" d="M299.081,-291.444C332.115,-282.201 384.888,-267.436 421.266,-257.257"/>
<polygon fill="midnightblue" stroke="midnightblue" points="422.375,-260.582 431.062,-254.516 420.488,-253.84 422.375,-260.582"/>
</g>
<!-- Node8 -->
<g id="node8" class="node"><title>Node8</title>
<g id="a_node8"><a xlink:href="QcInfoLogger_8h.html" target="_top" xlink:title="QualityControl/QcInfoLogger.h">
<polygon fill="none" stroke="black" points="528,-235.5 528,-254.5 677,-254.5 677,-235.5 528,-235.5"/>
<text text-anchor="middle" x="602.5" y="-242.5" font-family="Helvetica,sans-Serif" font-size="10.00">QualityControl/QcInfoLogger.h</text>
</a>
</g>
</g>
<!-- Node1&#45;&gt;Node8 -->
<g id="edge7" class="edge"><title>Node1&#45;&gt;Node8</title>
<path fill="none" stroke="midnightblue" d="M321.423,-291.444C380.666,-281.865 476.597,-266.356 539.617,-256.167"/>
<polygon fill="midnightblue" stroke="midnightblue" points="540.511,-259.568 549.824,-254.516 539.394,-252.657 540.511,-259.568"/>
</g>
<!-- Node10 -->
<g id="node10" class="node"><title>Node10</title>
<g id="a_node10"><a xlink:href="PID_8h.html" target="_top" xlink:title="TPC/PID.h">
<polygon fill="none" stroke="black" points="695,-235.5 695,-254.5 760,-254.5 760,-235.5 695,-235.5"/>
<text text-anchor="middle" x="727.5" y="-242.5" font-family="Helvetica,sans-Serif" font-size="10.00">TPC/PID.h</text>
</a>
</g>
</g>
<!-- Node1&#45;&gt;Node10 -->
<g id="edge9" class="edge"><title>Node1&#45;&gt;Node10</title>
<path fill="none" stroke="midnightblue" d="M334.68,-295.114C415.247,-288.665 555.603,-275.822 684.813,-255.128"/>
<polygon fill="midnightblue" stroke="midnightblue" points="685.577,-258.55 694.888,-253.494 684.457,-251.64 685.577,-258.55"/>
</g>
<!-- Node9 -->
<g id="node9" class="node"><title>Node9</title>
<polygon fill="none" stroke="#bfbfbf" points="471.5,-179.5 471.5,-198.5 601.5,-198.5 601.5,-179.5 471.5,-179.5"/>
<text text-anchor="middle" x="536.5" y="-186.5" font-family="Helvetica,sans-Serif" font-size="10.00">InfoLogger/InfoLogger.hxx</text>
</g>
<!-- Node8&#45;&gt;Node9 -->
<g id="edge8" class="edge"><title>Node8&#45;&gt;Node9</title>
<path fill="none" stroke="midnightblue" d="M591.896,-235.324C582.044,-227.263 567.149,-215.077 555.285,-205.369"/>
<polygon fill="midnightblue" stroke="midnightblue" points="557.253,-202.457 547.297,-198.834 552.82,-207.875 557.253,-202.457"/>
</g>
<!-- Node11 -->
<g id="node11" class="node"><title>Node11</title>
<polygon fill="none" stroke="#bfbfbf" points="619.5,-179.5 619.5,-198.5 699.5,-198.5 699.5,-179.5 619.5,-179.5"/>
<text text-anchor="middle" x="659.5" y="-186.5" font-family="Helvetica,sans-Serif" font-size="10.00">TPCQC/PID.h</text>
</g>
<!-- Node10&#45;&gt;Node11 -->
<g id="edge10" class="edge"><title>Node10&#45;&gt;Node11</title>
<path fill="none" stroke="midnightblue" d="M716.575,-235.324C706.325,-227.185 690.779,-214.839 678.499,-205.087"/>
<polygon fill="midnightblue" stroke="midnightblue" points="680.632,-202.312 670.624,-198.834 676.279,-207.794 680.632,-202.312"/>
</g>
<!-- Node12 -->
<g id="node12" class="node"><title>Node12</title>
<g id="a_node12"><a xlink:href="TaskInterface_8h.html" target="_top" xlink:title="QualityControl/TaskInterface.h">
<polygon fill="none" stroke="black" points="717.5,-179.5 717.5,-198.5 867.5,-198.5 867.5,-179.5 717.5,-179.5"/>
<text text-anchor="middle" x="792.5" y="-186.5" font-family="Helvetica,sans-Serif" font-size="10.00">QualityControl/TaskInterface.h</text>
</a>
</g>
</g>
<!-- Node10&#45;&gt;Node12 -->
<g id="edge11" class="edge"><title>Node10&#45;&gt;Node12</title>
<path fill="none" stroke="midnightblue" d="M737.943,-235.324C747.646,-227.263 762.315,-215.077 774,-205.369"/>
<polygon fill="midnightblue" stroke="midnightblue" points="776.411,-207.916 781.867,-198.834 771.938,-202.532 776.411,-207.916"/>
</g>
<!-- Node12&#45;&gt;Node5 -->
<g id="edge17" class="edge"><title>Node12&#45;&gt;Node5</title>
<path fill="none" stroke="midnightblue" d="M717.468,-179.945C627.006,-170.233 475.144,-153.93 378.755,-143.582"/>
<polygon fill="midnightblue" stroke="midnightblue" points="379.051,-140.094 368.735,-142.506 378.304,-147.054 379.051,-140.094"/>
</g>
<!-- Node13 -->
<g id="node13" class="node"><title>Node13</title>
<polygon fill="none" stroke="#bfbfbf" points="1221,-0.5 1221,-19.5 1256,-19.5 1256,-0.5 1221,-0.5"/>
<text text-anchor="middle" x="1238.5" y="-7.5" font-family="Helvetica,sans-Serif" font-size="10.00">map</text>
</g>
<!-- Node12&#45;&gt;Node13 -->
<g id="edge12" class="edge"><title>Node12&#45;&gt;Node13</title>
<path fill="none" stroke="midnightblue" d="M865.384,-179.495C972.319,-165.571 1164.39,-134.606 1213.5,-87 1229.13,-71.8531 1234.99,-46.7788 1237.19,-29.6026"/>
<polygon fill="midnightblue" stroke="midnightblue" points="1240.67,-29.9343 1238.17,-19.6395 1233.71,-29.2487 1240.67,-29.9343"/>
</g>
<!-- Node14 -->
<g id="node14" class="node"><title>Node14</title>
<polygon fill="none" stroke="#bfbfbf" points="496.5,-62 496.5,-81 548.5,-81 548.5,-62 496.5,-62"/>
<text text-anchor="middle" x="522.5" y="-69" font-family="Helvetica,sans-Serif" font-size="10.00">memory</text>
</g>
<!-- Node12&#45;&gt;Node14 -->
<g id="edge13" class="edge"><title>Node12&#45;&gt;Node14</title>
<path fill="none" stroke="midnightblue" d="M724.352,-179.488C655.032,-170.241 555.919,-155.16 542.5,-143 528.238,-130.076 523.848,-107.807 522.643,-91.7511"/>
<polygon fill="midnightblue" stroke="midnightblue" points="526.125,-91.2343 522.232,-81.3805 519.13,-91.5111 526.125,-91.2343"/>
</g>
<!-- Node15 -->
<g id="node15" class="node"><title>Node15</title>
<polygon fill="none" stroke="#bfbfbf" points="876,-0.5 876,-19.5 917,-19.5 917,-0.5 876,-0.5"/>
<text text-anchor="middle" x="896.5" y="-7.5" font-family="Helvetica,sans-Serif" font-size="10.00">string</text>
</g>
<!-- Node12&#45;&gt;Node15 -->
<g id="edge14" class="edge"><title>Node12&#45;&gt;Node15</title>
<path fill="none" stroke="midnightblue" d="M867.616,-182.023C921.745,-175.974 988.183,-164.358 1005.5,-143 1040.83,-99.4321 964.826,-48.3621 922.444,-24.5297"/>
<polygon fill="midnightblue" stroke="midnightblue" points="923.918,-21.3463 913.467,-19.6047 920.551,-27.4833 923.918,-21.3463"/>
</g>
<!-- Node16 -->
<g id="node16" class="node"><title>Node16</title>
<polygon fill="none" stroke="#bfbfbf" points="439,-0.5 439,-19.5 522,-19.5 522,-0.5 439,-0.5"/>
<text text-anchor="middle" x="480.5" y="-7.5" font-family="Helvetica,sans-Serif" font-size="10.00">unordered_map</text>
</g>
<!-- Node12&#45;&gt;Node16 -->
<g id="edge15" class="edge"><title>Node12&#45;&gt;Node16</title>
<path fill="none" stroke="midnightblue" d="M725.43,-179.485C651.909,-169.714 542.114,-153.667 525.5,-143 500.19,-126.749 497.645,-115.316 487.5,-87 480.811,-68.3301 479.551,-45.5126 479.658,-29.7792"/>
<polygon fill="midnightblue" stroke="midnightblue" points="483.158,-29.8231 479.919,-19.7354 476.16,-29.6409 483.158,-29.8231"/>
</g>
<!-- Node17 -->
<g id="node17" class="node"><title>Node17</title>
<polygon fill="none" stroke="#bfbfbf" points="730,-123.5 730,-142.5 855,-142.5 855,-123.5 730,-123.5"/>
<text text-anchor="middle" x="792.5" y="-130.5" font-family="Helvetica,sans-Serif" font-size="10.00">Framework/InitContext.h</text>
</g>
<!-- Node12&#45;&gt;Node17 -->
<g id="edge16" class="edge"><title>Node12&#45;&gt;Node17</title>
<path fill="none" stroke="midnightblue" d="M792.5,-179.083C792.5,-172.006 792.5,-161.861 792.5,-152.986"/>
<polygon fill="midnightblue" stroke="midnightblue" points="796,-152.751 792.5,-142.751 789,-152.751 796,-152.751"/>
</g>
<!-- Node18 -->
<g id="node18" class="node"><title>Node18</title>
<g id="a_node18"><a xlink:href="Activity_8h.html" target="_top" xlink:title="QualityControl/Activity.h">
<polygon fill="none" stroke="black" points="873,-123.5 873,-142.5 996,-142.5 996,-123.5 873,-123.5"/>
<text text-anchor="middle" x="934.5" y="-130.5" font-family="Helvetica,sans-Serif" font-size="10.00">QualityControl/Activity.h</text>
</a>
</g>
</g>
<!-- Node12&#45;&gt;Node18 -->
<g id="edge18" class="edge"><title>Node12&#45;&gt;Node18</title>
<path fill="none" stroke="midnightblue" d="M815,-179.444C838.577,-170.478 875.822,-156.314 902.464,-146.183"/>
<polygon fill="midnightblue" stroke="midnightblue" points="904.002,-149.342 912.105,-142.516 901.514,-142.8 904.002,-149.342"/>
</g>
<!-- Node19 -->
<g id="node19" class="node"><title>Node19</title>
<g id="a_node19"><a xlink:href="ObjectsManager_8h.html" target="_top" xlink:title="QualityControl/ObjectsManager.h">
<polygon fill="none" stroke="black" points="551,-123.5 551,-142.5 712,-142.5 712,-123.5 551,-123.5"/>
<text text-anchor="middle" x="631.5" y="-130.5" font-family="Helvetica,sans-Serif" font-size="10.00">QualityControl/ObjectsManager.h</text>
</a>
</g>
</g>
<!-- Node12&#45;&gt;Node19 -->
<g id="edge19" class="edge"><title>Node12&#45;&gt;Node19</title>
<path fill="none" stroke="midnightblue" d="M766.989,-179.444C739.904,-170.359 696.91,-155.939 666.631,-145.783"/>
<polygon fill="midnightblue" stroke="midnightblue" points="667.486,-142.378 656.892,-142.516 665.26,-149.015 667.486,-142.378"/>
</g>
<!-- Node19&#45;&gt;Node14 -->
<g id="edge33" class="edge"><title>Node19&#45;&gt;Node14</title>
<path fill="none" stroke="midnightblue" d="M615.883,-123.475C597.914,-113.666 568.179,-97.4346 547.094,-85.925"/>
<polygon fill="midnightblue" stroke="midnightblue" points="548.542,-82.7284 538.088,-81.0091 545.189,-88.8726 548.542,-82.7284"/>
</g>
<!-- Node19&#45;&gt;Node15 -->
<g id="edge32" class="edge"><title>Node19&#45;&gt;Node15</title>
<path fill="none" stroke="midnightblue" d="M698.947,-123.46C767.209,-114.221 864.516,-99.1777 877.5,-87 893.124,-72.346 896.715,-46.9563 897.165,-29.5875"/>
<polygon fill="midnightblue" stroke="midnightblue" points="900.665,-29.5035 897.102,-19.5255 893.665,-29.5472 900.665,-29.5035"/>
</g>
<!-- Node20 -->
<g id="node20" class="node"><title>Node20</title>
<g id="a_node20"><a xlink:href="MonitorObject_8h.html" target="_top" xlink:title="QualityControl/MonitorObject.h">
<polygon fill="none" stroke="black" points="1053,-62 1053,-81 1204,-81 1204,-62 1053,-62"/>
<text text-anchor="middle" x="1128.5" y="-69" font-family="Helvetica,sans-Serif" font-size="10.00">QualityControl/MonitorObject.h</text>
</a>
</g>
</g>
<!-- Node19&#45;&gt;Node20 -->
<g id="edge20" class="edge"><title>Node19&#45;&gt;Node20</title>
<path fill="none" stroke="midnightblue" d="M702.708,-123.475C793.866,-112.562 951.44,-93.6974 1047.21,-82.2322"/>
<polygon fill="midnightblue" stroke="midnightblue" points="1047.91,-85.6731 1057.42,-81.0091 1047.08,-78.7227 1047.91,-85.6731"/>
</g>
<!-- Node24 -->
<g id="node24" class="node"><title>Node24</title>
<g id="a_node24"><a xlink:href="MonitorObjectCollection_8h.html" target="_top" xlink:title="QualityControl/MonitorObject\lCollection.h">
<polygon fill="none" stroke="black" points="567,-56.5 567,-86.5 710,-86.5 710,-56.5 567,-56.5"/>
<text text-anchor="start" x="575" y="-74.5" font-family="Helvetica,sans-Serif" font-size="10.00">QualityControl/MonitorObject</text>
<text text-anchor="middle" x="638.5" y="-63.5" font-family="Helvetica,sans-Serif" font-size="10.00">Collection.h</text>
</a>
</g>
</g>
<!-- Node19&#45;&gt;Node24 -->
<g id="edge26" class="edge"><title>Node19&#45;&gt;Node24</title>
<path fill="none" stroke="midnightblue" d="M632.503,-123.475C633.327,-116.471 634.536,-106.192 635.653,-96.6956"/>
<polygon fill="midnightblue" stroke="midnightblue" points="639.158,-96.8635 636.85,-86.523 632.206,-96.0455 639.158,-96.8635"/>
</g>
<!-- Node27 -->
<g id="node27" class="node"><title>Node27</title>
<g id="a_node27"><a xlink:href="TaskConfig_8h.html" target="_top" xlink:title="QualityControl/TaskConfig.h">
<polygon fill="none" stroke="black" points="728.5,-62 728.5,-81 868.5,-81 868.5,-62 728.5,-62"/>
<text text-anchor="middle" x="798.5" y="-69" font-family="Helvetica,sans-Serif" font-size="10.00">QualityControl/TaskConfig.h</text>
</a>
</g>
</g>
<!-- Node19&#45;&gt;Node27 -->
<g id="edge29" class="edge"><title>Node19&#45;&gt;Node27</title>
<path fill="none" stroke="midnightblue" d="M655.427,-123.475C684.197,-113.225 732.656,-95.9593 765.102,-84.3994"/>
<polygon fill="midnightblue" stroke="midnightblue" points="766.372,-87.6624 774.617,-81.0091 764.023,-81.0684 766.372,-87.6624"/>
</g>
<!-- Node20&#45;&gt;Node13 -->
<g id="edge22" class="edge"><title>Node20&#45;&gt;Node13</title>
<path fill="none" stroke="midnightblue" d="M1144.26,-61.9751C1162.48,-52.1222 1192.67,-35.7883 1213.97,-24.2697"/>
<polygon fill="midnightblue" stroke="midnightblue" points="1215.64,-27.3453 1222.77,-19.5091 1212.31,-21.1883 1215.64,-27.3453"/>
</g>
<!-- Node20&#45;&gt;Node15 -->
<g id="edge21" class="edge"><title>Node20&#45;&gt;Node15</title>
<path fill="none" stroke="midnightblue" d="M1092.24,-61.973C1053.69,-52.7874 990.717,-37.446 926.945,-20.0226"/>
<polygon fill="midnightblue" stroke="midnightblue" points="927.69,-16.5979 917.12,-17.3234 925.836,-23.3477 927.69,-16.5979"/>
</g>
<!-- Node21 -->
<g id="node21" class="node"><title>Node21</title>
<polygon fill="none" stroke="#bfbfbf" points="1146.5,-0.5 1146.5,-19.5 1202.5,-19.5 1202.5,-0.5 1146.5,-0.5"/>
<text text-anchor="middle" x="1174.5" y="-7.5" font-family="Helvetica,sans-Serif" font-size="10.00">Rtypes.h</text>
</g>
<!-- Node20&#45;&gt;Node21 -->
<g id="edge23" class="edge"><title>Node20&#45;&gt;Node21</title>
<path fill="none" stroke="midnightblue" d="M1135.09,-61.9751C1141.99,-53.0501 1153,-38.8071 1161.63,-27.6425"/>
<polygon fill="midnightblue" stroke="midnightblue" points="1164.57,-29.5612 1167.92,-19.5091 1159.04,-25.2798 1164.57,-29.5612"/>
</g>
<!-- Node22 -->
<g id="node22" class="node"><title>Node22</title>
<polygon fill="none" stroke="#bfbfbf" points="935,-0.5 935,-19.5 994,-19.5 994,-0.5 935,-0.5"/>
<text text-anchor="middle" x="964.5" y="-7.5" font-family="Helvetica,sans-Serif" font-size="10.00">TObject.h</text>
</g>
<!-- Node20&#45;&gt;Node22 -->
<g id="edge24" class="edge"><title>Node20&#45;&gt;Node22</title>
<path fill="none" stroke="midnightblue" d="M1105,-61.9751C1076.87,-51.7687 1029.57,-34.608 997.711,-23.0492"/>
<polygon fill="midnightblue" stroke="midnightblue" points="998.548,-19.6295 987.954,-19.5091 996.16,-26.2098 998.548,-19.6295"/>
</g>
<!-- Node23 -->
<g id="node23" class="node"><title>Node23</title>
<polygon fill="none" stroke="#bfbfbf" points="1012.5,-0.5 1012.5,-19.5 1128.5,-19.5 1128.5,-0.5 1012.5,-0.5"/>
<text text-anchor="middle" x="1070.5" y="-7.5" font-family="Helvetica,sans-Serif" font-size="10.00">Common/Exceptions.h</text>
</g>
<!-- Node20&#45;&gt;Node23 -->
<g id="edge25" class="edge"><title>Node20&#45;&gt;Node23</title>
<path fill="none" stroke="midnightblue" d="M1120.19,-61.9751C1111.32,-52.8733 1097.05,-38.241 1086.08,-26.983"/>
<polygon fill="midnightblue" stroke="midnightblue" points="1088.28,-24.2268 1078.79,-19.5091 1083.27,-29.113 1088.28,-24.2268"/>
</g>
<!-- Node25 -->
<g id="node25" class="node"><title>Node25</title>
<polygon fill="none" stroke="#bfbfbf" points="698,-0.5 698,-19.5 767,-19.5 767,-0.5 698,-0.5"/>
<text text-anchor="middle" x="732.5" y="-7.5" font-family="Helvetica,sans-Serif" font-size="10.00">TObjArray.h</text>
</g>
<!-- Node24&#45;&gt;Node25 -->
<g id="edge27" class="edge"><title>Node24&#45;&gt;Node25</title>
<path fill="none" stroke="midnightblue" d="M660.777,-56.3993C675.703,-46.9511 695.281,-34.5589 710.21,-25.1089"/>
<polygon fill="midnightblue" stroke="midnightblue" points="712.245,-27.9636 718.822,-19.6578 708.501,-22.0489 712.245,-27.9636"/>
</g>
<!-- Node26 -->
<g id="node26" class="node"><title>Node26</title>
<polygon fill="none" stroke="#bfbfbf" points="551.5,-0.5 551.5,-19.5 679.5,-19.5 679.5,-0.5 551.5,-0.5"/>
<text text-anchor="middle" x="615.5" y="-7.5" font-family="Helvetica,sans-Serif" font-size="10.00">Mergers/MergeInterface.h</text>
</g>
<!-- Node24&#45;&gt;Node26 -->
<g id="edge28" class="edge"><title>Node24&#45;&gt;Node26</title>
<path fill="none" stroke="midnightblue" d="M633.049,-56.3993C629.879,-48.1989 625.852,-37.7809 622.456,-28.9936"/>
<polygon fill="midnightblue" stroke="midnightblue" points="625.717,-27.7232 618.847,-19.6578 619.188,-30.2471 625.717,-27.7232"/>
</g>
<!-- Node27&#45;&gt;Node15 -->
<g id="edge30" class="edge"><title>Node27&#45;&gt;Node15</title>
<path fill="none" stroke="midnightblue" d="M812.541,-61.9751C828.551,-52.2548 854.95,-36.2266 873.874,-24.7372"/>
<polygon fill="midnightblue" stroke="midnightblue" points="875.754,-27.6907 882.485,-19.5091 872.121,-21.7072 875.754,-27.6907"/>
</g>
<!-- Node27&#45;&gt;Node16 -->
<g id="edge31" class="edge"><title>Node27&#45;&gt;Node16</title>
<path fill="none" stroke="midnightblue" d="M752.938,-61.9751C694.454,-51.0323 593.245,-32.0954 532.018,-20.6394"/>
<polygon fill="midnightblue" stroke="midnightblue" points="532.652,-17.1973 522.179,-18.7984 531.365,-24.0779 532.652,-17.1973"/>
</g>
</g>
</svg>
