<?xml version="1.0" encoding="UTF-8" standalone="no"?>
<!DOCTYPE svg PUBLIC "-//W3C//DTD SVG 1.1//EN"
 "http://www.w3.org/Graphics/SVG/1.1/DTD/svg11.dtd">
<!-- Generated by graphviz version 2.38.0 (20140413.2041)
 -->
<!-- Title: Framework/src/PostProcessingFactory.cxx Pages: 1 -->
<svg width="880pt" height="229pt"
 viewBox="0.00 0.00 880.00 229.00" xmlns="http://www.w3.org/2000/svg" xmlns:xlink="http://www.w3.org/1999/xlink">
<g id="graph0" class="graph" transform="scale(1 1) rotate(0) translate(4 225)">
<title>Framework/src/PostProcessingFactory.cxx</title>
<!-- Node1 -->
<g id="node1" class="node"><title>Node1</title>
<polygon fill="#bfbfbf" stroke="black" points="220.5,-190.5 220.5,-220.5 374.5,-220.5 374.5,-190.5 220.5,-190.5"/>
<text text-anchor="start" x="228.5" y="-208.5" font-family="Helvetica,sans-Serif" font-size="10.00">Framework/src/PostProcessing</text>
<text text-anchor="middle" x="297.5" y="-197.5" font-family="Helvetica,sans-Serif" font-size="10.00">Factory.cxx</text>
</g>
<!-- Node2 -->
<g id="node2" class="node"><title>Node2</title>
<g id="a_node2"><a xlink:href="PostProcessingFactory_8h.html" target="_top" xlink:title="QualityControl/PostProcessing\lFactory.h">
<polygon fill="none" stroke="black" points="112,-123.5 112,-153.5 263,-153.5 263,-123.5 112,-123.5"/>
<text text-anchor="start" x="120" y="-141.5" font-family="Helvetica,sans-Serif" font-size="10.00">QualityControl/PostProcessing</text>
<text text-anchor="middle" x="187.5" y="-130.5" font-family="Helvetica,sans-Serif" font-size="10.00">Factory.h</text>
</a>
</g>
</g>
<!-- Node1&#45;&gt;Node2 -->
<g id="edge1" class="edge"><title>Node1&#45;&gt;Node2</title>
<path fill="none" stroke="midnightblue" d="M273.632,-190.396C257.92,-181.112 237.154,-168.841 219.949,-158.674"/>
<polygon fill="midnightblue" stroke="midnightblue" points="221.712,-155.651 211.322,-153.577 218.15,-161.677 221.712,-155.651"/>
</g>
<!-- Node6 -->
<g id="node6" class="node"><title>Node6</title>
<g id="a_node6"><a xlink:href="RootClassFactory_8h.html" target="_top" xlink:title="RootClassFactory.h">
<polygon fill="none" stroke="black" points="355.5,-129 355.5,-148 459.5,-148 459.5,-129 355.5,-129"/>
<text text-anchor="middle" x="407.5" y="-136" font-family="Helvetica,sans-Serif" font-size="10.00">RootClassFactory.h</text>
</a>
</g>
</g>
<!-- Node1&#45;&gt;Node6 -->
<g id="edge5" class="edge"><title>Node1&#45;&gt;Node6</title>
<path fill="none" stroke="midnightblue" d="M321.368,-190.396C340.071,-179.344 365.936,-164.061 384.431,-153.132"/>
<polygon fill="midnightblue" stroke="midnightblue" points="386.275,-156.108 393.104,-148.007 382.714,-150.081 386.275,-156.108"/>
</g>
<!-- Node3 -->
<g id="node3" class="node"><title>Node3</title>
<g id="a_node3"><a xlink:href="PostProcessingConfig_8h.html" target="_top" xlink:title="QualityControl/PostProcessing\lConfig.h">
<polygon fill="none" stroke="black" points="0,-56.5 0,-86.5 151,-86.5 151,-56.5 0,-56.5"/>
<text text-anchor="start" x="8" y="-74.5" font-family="Helvetica,sans-Serif" font-size="10.00">QualityControl/PostProcessing</text>
<text text-anchor="middle" x="75.5" y="-63.5" font-family="Helvetica,sans-Serif" font-size="10.00">Config.h</text>
</a>
</g>
</g>
<!-- Node2&#45;&gt;Node3 -->
<g id="edge2" class="edge"><title>Node2&#45;&gt;Node3</title>
<path fill="none" stroke="midnightblue" d="M163.198,-123.396C147.2,-114.112 126.057,-101.841 108.539,-91.6742"/>
<polygon fill="midnightblue" stroke="midnightblue" points="110.161,-88.5689 99.7549,-86.5765 106.647,-94.6232 110.161,-88.5689"/>
</g>
<!-- Node4 -->
<g id="node4" class="node"><title>Node4</title>
<polygon fill="none" stroke="#bfbfbf" points="53.5,-0.5 53.5,-19.5 97.5,-19.5 97.5,-0.5 53.5,-0.5"/>
<text text-anchor="middle" x="75.5" y="-7.5" font-family="Helvetica,sans-Serif" font-size="10.00">vector</text>
</g>
<!-- Node3&#45;&gt;Node4 -->
<g id="edge3" class="edge"><title>Node3&#45;&gt;Node4</title>
<path fill="none" stroke="midnightblue" d="M75.5,-56.3993C75.5,-48.4664 75.5,-38.458 75.5,-29.8583"/>
<polygon fill="midnightblue" stroke="midnightblue" points="79.0001,-29.6577 75.5,-19.6578 72.0001,-29.6578 79.0001,-29.6577"/>
</g>
<!-- Node5 -->
<g id="node5" class="node"><title>Node5</title>
<polygon fill="none" stroke="#bfbfbf" points="137,-0.5 137,-19.5 178,-19.5 178,-0.5 137,-0.5"/>
<text text-anchor="middle" x="157.5" y="-7.5" font-family="Helvetica,sans-Serif" font-size="10.00">string</text>
</g>
<!-- Node3&#45;&gt;Node5 -->
<g id="edge4" class="edge"><title>Node3&#45;&gt;Node5</title>
<path fill="none" stroke="midnightblue" d="M94.9329,-56.3993C107.708,-47.1293 124.389,-35.0254 137.314,-25.6469"/>
<polygon fill="midnightblue" stroke="midnightblue" points="139.53,-28.3635 145.568,-19.6578 135.419,-22.6979 139.53,-28.3635"/>
</g>
<!-- Node6&#45;&gt;Node5 -->
<g id="edge6" class="edge"><title>Node6&#45;&gt;Node5</title>
<path fill="none" stroke="midnightblue" d="M355.196,-136.484C309.556,-133.092 243.739,-121.862 198.5,-87 179.619,-72.4495 168.376,-46.6559 162.566,-29.1982"/>
<polygon fill="midnightblue" stroke="midnightblue" points="165.898,-28.1236 159.631,-19.5806 159.202,-30.1667 165.898,-28.1236"/>
</g>
<!-- Node7 -->
<g id="node7" class="node"><title>Node7</title>
<polygon fill="none" stroke="#bfbfbf" points="207.5,-62 207.5,-81 323.5,-81 323.5,-62 207.5,-62"/>
<text text-anchor="middle" x="265.5" y="-69" font-family="Helvetica,sans-Serif" font-size="10.00">Common/Exceptions.h</text>
</g>
<!-- Node6&#45;&gt;Node7 -->
<g id="edge7" class="edge"><title>Node6&#45;&gt;Node7</title>
<path fill="none" stroke="midnightblue" d="M388.643,-128.869C364.349,-117.748 321.899,-98.3167 293.744,-85.4286"/>
<polygon fill="midnightblue" stroke="midnightblue" points="294.984,-82.147 284.434,-81.1672 292.07,-88.5118 294.984,-82.147"/>
</g>
<!-- Node8 -->
<g id="node8" class="node"><title>Node8</title>
<polygon fill="none" stroke="#bfbfbf" points="341.5,-62 341.5,-81 397.5,-81 397.5,-62 341.5,-62"/>
<text text-anchor="middle" x="369.5" y="-69" font-family="Helvetica,sans-Serif" font-size="10.00">TClass.h</text>
</g>
<!-- Node6&#45;&gt;Node8 -->
<g id="edge8" class="edge"><title>Node6&#45;&gt;Node8</title>
<path fill="none" stroke="midnightblue" d="M402.375,-128.734C396.563,-118.793 386.944,-102.338 379.608,-89.7892"/>
<polygon fill="midnightblue" stroke="midnightblue" points="382.612,-87.9938 374.544,-81.1273 376.569,-91.5267 382.612,-87.9938"/>
</g>
<!-- Node9 -->
<g id="node9" class="node"><title>Node9</title>
<polygon fill="none" stroke="#bfbfbf" points="416,-62 416,-81 475,-81 475,-62 416,-62"/>
<text text-anchor="middle" x="445.5" y="-69" font-family="Helvetica,sans-Serif" font-size="10.00">TROOT.h</text>
</g>
<!-- Node6&#45;&gt;Node9 -->
<g id="edge9" class="edge"><title>Node6&#45;&gt;Node9</title>
<path fill="none" stroke="midnightblue" d="M412.625,-128.734C418.437,-118.793 428.056,-102.338 435.392,-89.7892"/>
<polygon fill="midnightblue" stroke="midnightblue" points="438.431,-91.5267 440.456,-81.1273 432.388,-87.9938 438.431,-91.5267"/>
</g>
<!-- Node10 -->
<g id="node10" class="node"><title>Node10</title>
<polygon fill="none" stroke="#bfbfbf" points="493,-62 493,-81 558,-81 558,-62 493,-62"/>
<text text-anchor="middle" x="525.5" y="-69" font-family="Helvetica,sans-Serif" font-size="10.00">TSystem.h</text>
</g>
<!-- Node6&#45;&gt;Node10 -->
<g id="edge10" class="edge"><title>Node6&#45;&gt;Node10</title>
<path fill="none" stroke="midnightblue" d="M423.414,-128.734C443.319,-117.769 477.609,-98.8809 500.903,-86.0495"/>
<polygon fill="midnightblue" stroke="midnightblue" points="502.768,-89.0179 509.838,-81.1273 499.39,-82.8866 502.768,-89.0179"/>
</g>
<!-- Node11 -->
<g id="node11" class="node"><title>Node11</title>
<polygon fill="none" stroke="#bfbfbf" points="576,-62 576,-81 705,-81 705,-62 576,-62"/>
<text text-anchor="middle" x="640.5" y="-69" font-family="Helvetica,sans-Serif" font-size="10.00">boost/filesystem/path.hpp</text>
</g>
<!-- Node6&#45;&gt;Node11 -->
<g id="edge11" class="edge"><title>Node6&#45;&gt;Node11</title>
<path fill="none" stroke="midnightblue" d="M438.441,-128.869C480.074,-117.254 554.198,-96.5757 600.163,-83.7528"/>
<polygon fill="midnightblue" stroke="midnightblue" points="601.111,-87.1221 609.803,-81.0637 599.23,-80.3796 601.111,-87.1221"/>
</g>
<!-- Node12 -->
<g id="node12" class="node"><title>Node12</title>
<g id="a_node12"><a xlink:href="QcInfoLogger_8h.html" target="_top" xlink:title="QualityControl/QcInfoLogger.h">
<polygon fill="none" stroke="black" points="723,-62 723,-81 872,-81 872,-62 723,-62"/>
<text text-anchor="middle" x="797.5" y="-69" font-family="Helvetica,sans-Serif" font-size="10.00">QualityControl/QcInfoLogger.h</text>
</a>
</g>
</g>
<!-- Node6&#45;&gt;Node12 -->
<g id="edge12" class="edge"><title>Node6&#45;&gt;Node12</title>
<path fill="none" stroke="midnightblue" d="M459.769,-128.994C520.704,-119.05 624.438,-102.036 713.5,-87 721.488,-85.6514 729.901,-84.2165 738.192,-82.7939"/>
<polygon fill="midnightblue" stroke="midnightblue" points="738.945,-86.2159 748.207,-81.0714 737.759,-79.3171 738.945,-86.2159"/>
</g>
<!-- Node13 -->
<g id="node13" class="node"><title>Node13</title>
<polygon fill="none" stroke="#bfbfbf" points="732.5,-0.5 732.5,-19.5 862.5,-19.5 862.5,-0.5 732.5,-0.5"/>
<text text-anchor="middle" x="797.5" y="-7.5" font-family="Helvetica,sans-Serif" font-size="10.00">InfoLogger/InfoLogger.hxx</text>
</g>
<!-- Node12&#45;&gt;Node13 -->
<g id="edge13" class="edge"><title>Node12&#45;&gt;Node13</title>
<path fill="none" stroke="midnightblue" d="M797.5,-61.9751C797.5,-53.5803 797.5,-40.4806 797.5,-29.6631"/>
<polygon fill="midnightblue" stroke="midnightblue" points="801,-29.5091 797.5,-19.5091 794,-29.5091 801,-29.5091"/>
</g>
</g>
</svg>
