<?xml version="1.0" encoding="UTF-8" standalone="no"?>
<!DOCTYPE svg PUBLIC "-//W3C//DTD SVG 1.1//EN"
 "http://www.w3.org/Graphics/SVG/1.1/DTD/svg11.dtd">
<!-- Generated by graphviz version 2.38.0 (20140413.2041)
 -->
<!-- Title: Framework/src/PostProcessingInterface.cxx Pages: 1 -->
<svg width="310pt" height="218pt"
 viewBox="0.00 0.00 309.81 218.00" xmlns="http://www.w3.org/2000/svg" xmlns:xlink="http://www.w3.org/1999/xlink">
<g id="graph0" class="graph" transform="scale(1 1) rotate(0) translate(4 214)">
<title>Framework/src/PostProcessingInterface.cxx</title>
<!-- Node1 -->
<g id="node1" class="node"><title>Node1</title>
<polygon fill="#bfbfbf" stroke="black" points="8.30931,-179.5 8.30931,-209.5 162.309,-209.5 162.309,-179.5 8.30931,-179.5"/>
<text text-anchor="start" x="16.3093" y="-197.5" font-family="Helvetica,sans-Serif" font-size="10.00">Framework/src/PostProcessing</text>
<text text-anchor="middle" x="85.3093" y="-186.5" font-family="Helvetica,sans-Serif" font-size="10.00">Interface.cxx</text>
</g>
<!-- Node2 -->
<g id="node2" class="node"><title>Node2</title>
<g id="a_node2"><a xlink:href="PostProcessingInterface_8h.html" target="_top" xlink:title="QualityControl/PostProcessing\lInterface.h">
<polygon fill="none" stroke="black" points="9.80931,-112.5 9.80931,-142.5 160.809,-142.5 160.809,-112.5 9.80931,-112.5"/>
<text text-anchor="start" x="17.8093" y="-130.5" font-family="Helvetica,sans-Serif" font-size="10.00">QualityControl/PostProcessing</text>
<text text-anchor="middle" x="85.3093" y="-119.5" font-family="Helvetica,sans-Serif" font-size="10.00">Interface.h</text>
</a>
</g>
</g>
<!-- Node1&#45;&gt;Node2 -->
<g id="edge1" class="edge"><title>Node1&#45;&gt;Node2</title>
<path fill="none" stroke="midnightblue" d="M85.3093,-179.396C85.3093,-171.645 85.3093,-161.812 85.3093,-152.86"/>
<polygon fill="midnightblue" stroke="midnightblue" points="88.8094,-152.576 85.3093,-142.577 81.8094,-152.577 88.8094,-152.576"/>
</g>
<!-- Node3 -->
<g id="node3" class="node"><title>Node3</title>
<polygon fill="none" stroke="#bfbfbf" points="56.8093,-0.5 56.8093,-19.5 97.8093,-19.5 97.8093,-0.5 56.8093,-0.5"/>
<text text-anchor="middle" x="77.3093" y="-7.5" font-family="Helvetica,sans-Serif" font-size="10.00">string</text>
</g>
<!-- Node2&#45;&gt;Node3 -->
<g id="edge2" class="edge"><title>Node2&#45;&gt;Node3</title>
<path fill="none" stroke="midnightblue" d="M46.1889,-112.483C29.8814,-104.474 12.604,-92.64 3.30931,-76 -9.85214,-52.4373 21.3453,-33.2212 47.2061,-21.9488"/>
<polygon fill="midnightblue" stroke="midnightblue" points="48.8339,-25.0639 56.7525,-18.025 46.1727,-18.5894 48.8339,-25.0639"/>
</g>
<!-- Node4 -->
<g id="node4" class="node"><title>Node4</title>
<polygon fill="none" stroke="#bfbfbf" points="12.3093,-56.5 12.3093,-75.5 158.309,-75.5 158.309,-56.5 12.3093,-56.5"/>
<text text-anchor="middle" x="85.3093" y="-63.5" font-family="Helvetica,sans-Serif" font-size="10.00">Framework/ServiceRegistry.h</text>
</g>
<!-- Node2&#45;&gt;Node4 -->
<g id="edge3" class="edge"><title>Node2&#45;&gt;Node4</title>
<path fill="none" stroke="midnightblue" d="M85.3093,-112.399C85.3093,-104.466 85.3093,-94.458 85.3093,-85.8583"/>
<polygon fill="midnightblue" stroke="midnightblue" points="88.8094,-85.6577 85.3093,-75.6578 81.8094,-85.6578 88.8094,-85.6577"/>
</g>
<!-- Node5 -->
<g id="node5" class="node"><title>Node5</title>
<g id="a_node5"><a xlink:href="Triggers_8h.html" target="_top" xlink:title="QualityControl/Triggers.h">
<polygon fill="none" stroke="black" points="176.809,-56.5 176.809,-75.5 301.809,-75.5 301.809,-56.5 176.809,-56.5"/>
<text text-anchor="middle" x="239.309" y="-63.5" font-family="Helvetica,sans-Serif" font-size="10.00">QualityControl/Triggers.h</text>
</a>
</g>
</g>
<!-- Node2&#45;&gt;Node5 -->
<g id="edge4" class="edge"><title>Node2&#45;&gt;Node5</title>
<path fill="none" stroke="midnightblue" d="M121.805,-112.399C147.874,-102.327 182.603,-88.9093 207.534,-79.2769"/>
<polygon fill="midnightblue" stroke="midnightblue" points="208.834,-82.5266 216.901,-75.6578 206.312,-75.997 208.834,-82.5266"/>
</g>
<!-- Node5&#45;&gt;Node3 -->
<g id="edge5" class="edge"><title>Node5&#45;&gt;Node3</title>
<path fill="none" stroke="midnightblue" d="M213.64,-56.4435C184.944,-46.8782 138.5,-31.3969 107.932,-21.2075"/>
<polygon fill="midnightblue" stroke="midnightblue" points="108.816,-17.8129 98.2222,-17.971 106.602,-24.4537 108.816,-17.8129"/>
</g>
<!-- Node6 -->
<g id="node6" class="node"><title>Node6</title>
<polygon fill="none" stroke="#bfbfbf" points="209.809,-0.5 209.809,-19.5 268.809,-19.5 268.809,-0.5 209.809,-0.5"/>
<text text-anchor="middle" x="239.309" y="-7.5" font-family="Helvetica,sans-Serif" font-size="10.00">functional</text>
</g>
<!-- Node5&#45;&gt;Node6 -->
<g id="edge6" class="edge"><title>Node5&#45;&gt;Node6</title>
<path fill="none" stroke="midnightblue" d="M239.309,-56.083C239.309,-49.0059 239.309,-38.8611 239.309,-29.9865"/>
<polygon fill="midnightblue" stroke="midnightblue" points="242.809,-29.751 239.309,-19.7511 235.809,-29.7511 242.809,-29.751"/>
</g>
</g>
</svg>
