<?xml version="1.0" encoding="UTF-8" standalone="no"?>
<!DOCTYPE svg PUBLIC "-//W3C//DTD SVG 1.1//EN"
 "http://www.w3.org/Graphics/SVG/1.1/DTD/svg11.dtd">
<!-- Generated by graphviz version 2.38.0 (20140413.2041)
 -->
<!-- Title: Framework/src/QcInfoLogger.cxx Pages: 1 -->
<svg width="328pt" height="140pt"
 viewBox="0.00 0.00 327.50 140.00" xmlns="http://www.w3.org/2000/svg" xmlns:xlink="http://www.w3.org/1999/xlink">
<g id="graph0" class="graph" transform="scale(1 1) rotate(0) translate(4 136)">
<title>Framework/src/QcInfoLogger.cxx</title>
<!-- Node1 -->
<g id="node1" class="node"><title>Node1</title>
<polygon fill="#bfbfbf" stroke="black" points="77.5,-112.5 77.5,-131.5 239.5,-131.5 239.5,-112.5 77.5,-112.5"/>
<text text-anchor="middle" x="158.5" y="-119.5" font-family="Helvetica,sans-Serif" font-size="10.00">Framework/src/QcInfoLogger.cxx</text>
</g>
<!-- Node2 -->
<g id="node2" class="node"><title>Node2</title>
<g id="a_node2"><a xlink:href="QcInfoLogger_8h.html" target="_top" xlink:title="QualityControl/QcInfoLogger.h">
<polygon fill="none" stroke="black" points="-1.42109e-14,-56.5 -1.42109e-14,-75.5 149,-75.5 149,-56.5 -1.42109e-14,-56.5"/>
<text text-anchor="middle" x="74.5" y="-63.5" font-family="Helvetica,sans-Serif" font-size="10.00">QualityControl/QcInfoLogger.h</text>
</a>
</g>
</g>
<!-- Node1&#45;&gt;Node2 -->
<g id="edge1" class="edge"><title>Node1&#45;&gt;Node2</title>
<path fill="none" stroke="midnightblue" d="M145.004,-112.324C131.9,-103.9 111.788,-90.9709 96.3931,-81.0741"/>
<polygon fill="midnightblue" stroke="midnightblue" points="98.267,-78.118 87.9626,-75.6545 94.4817,-84.0063 98.267,-78.118"/>
</g>
<!-- Node4 -->
<g id="node4" class="node"><title>Node4</title>
<polygon fill="none" stroke="#bfbfbf" points="167.5,-56.5 167.5,-75.5 319.5,-75.5 319.5,-56.5 167.5,-56.5"/>
<text text-anchor="middle" x="243.5" y="-63.5" font-family="Helvetica,sans-Serif" font-size="10.00">InfoLogger/InfoLoggerFMQ.hxx</text>
</g>
<!-- Node1&#45;&gt;Node4 -->
<g id="edge3" class="edge"><title>Node1&#45;&gt;Node4</title>
<path fill="none" stroke="midnightblue" d="M172.157,-112.324C185.416,-103.9 205.768,-90.9709 221.346,-81.0741"/>
<polygon fill="midnightblue" stroke="midnightblue" points="223.313,-83.9711 229.877,-75.6545 219.56,-78.0626 223.313,-83.9711"/>
</g>
<!-- Node3 -->
<g id="node3" class="node"><title>Node3</title>
<polygon fill="none" stroke="#bfbfbf" points="9.5,-0.5 9.5,-19.5 139.5,-19.5 139.5,-0.5 9.5,-0.5"/>
<text text-anchor="middle" x="74.5" y="-7.5" font-family="Helvetica,sans-Serif" font-size="10.00">InfoLogger/InfoLogger.hxx</text>
</g>
<!-- Node2&#45;&gt;Node3 -->
<g id="edge2" class="edge"><title>Node2&#45;&gt;Node3</title>
<path fill="none" stroke="midnightblue" d="M74.5,-56.083C74.5,-49.0059 74.5,-38.8611 74.5,-29.9865"/>
<polygon fill="midnightblue" stroke="midnightblue" points="78.0001,-29.751 74.5,-19.7511 71.0001,-29.7511 78.0001,-29.751"/>
</g>
</g>
</svg>
