<?xml version="1.0" encoding="UTF-8" standalone="no"?>
<!DOCTYPE svg PUBLIC "-//W3C//DTD SVG 1.1//EN"
 "http://www.w3.org/Graphics/SVG/1.1/DTD/svg11.dtd">
<!-- Generated by graphviz version 2.38.0 (20140413.2041)
 -->
<!-- Title: Modules/Common/src/QualityReductor.cxx Pages: 1 -->
<svg width="576pt" height="207pt"
 viewBox="0.00 0.00 575.50 207.00" xmlns="http://www.w3.org/2000/svg" xmlns:xlink="http://www.w3.org/1999/xlink">
<g id="graph0" class="graph" transform="scale(1 1) rotate(0) translate(4 203)">
<title>Modules/Common/src/QualityReductor.cxx</title>
<!-- Node1 -->
<g id="node1" class="node"><title>Node1</title>
<polygon fill="#bfbfbf" stroke="black" points="237,-168.5 237,-198.5 350,-198.5 350,-168.5 237,-168.5"/>
<text text-anchor="start" x="245" y="-186.5" font-family="Helvetica,sans-Serif" font-size="10.00">Modules/Common/src</text>
<text text-anchor="middle" x="293.5" y="-175.5" font-family="Helvetica,sans-Serif" font-size="10.00">/QualityReductor.cxx</text>
</g>
<!-- Node2 -->
<g id="node2" class="node"><title>Node2</title>
<g id="a_node2"><a xlink:href="QualityReductor_8h.html" target="_top" xlink:title="Common/QualityReductor.h">
<polygon fill="none" stroke="black" points="135.5,-112.5 135.5,-131.5 273.5,-131.5 273.5,-112.5 135.5,-112.5"/>
<text text-anchor="middle" x="204.5" y="-119.5" font-family="Helvetica,sans-Serif" font-size="10.00">Common/QualityReductor.h</text>
</a>
</g>
</g>
<!-- Node1&#45;&gt;Node2 -->
<g id="edge1" class="edge"><title>Node1&#45;&gt;Node2</title>
<path fill="none" stroke="midnightblue" d="M272.408,-168.399C258.409,-159.04 240.089,-146.792 226.005,-137.377"/>
<polygon fill="midnightblue" stroke="midnightblue" points="227.709,-134.306 217.45,-131.658 223.818,-140.125 227.709,-134.306"/>
</g>
<!-- Node8 -->
<g id="node8" class="node"><title>Node8</title>
<g id="a_node8"><a xlink:href="QualityObject_8h_source.html" target="_top" xlink:title="QualityControl/QualityObject.h">
<polygon fill="none" stroke="black" points="308,-112.5 308,-131.5 457,-131.5 457,-112.5 308,-112.5"/>
<text text-anchor="middle" x="382.5" y="-119.5" font-family="Helvetica,sans-Serif" font-size="10.00">QualityControl/QualityObject.h</text>
</a>
</g>
</g>
<!-- Node1&#45;&gt;Node8 -->
<g id="edge7" class="edge"><title>Node1&#45;&gt;Node8</title>
<path fill="none" stroke="midnightblue" d="M314.592,-168.399C328.591,-159.04 346.911,-146.792 360.995,-137.377"/>
<polygon fill="midnightblue" stroke="midnightblue" points="363.182,-140.125 369.55,-131.658 359.291,-134.306 363.182,-140.125"/>
</g>
<!-- Node3 -->
<g id="node3" class="node"><title>Node3</title>
<g id="a_node3"><a xlink:href="Reductor_8h.html" target="_top" xlink:title="QualityControl/Reductor.h">
<polygon fill="none" stroke="black" points="139.5,-56.5 139.5,-75.5 269.5,-75.5 269.5,-56.5 139.5,-56.5"/>
<text text-anchor="middle" x="204.5" y="-63.5" font-family="Helvetica,sans-Serif" font-size="10.00">QualityControl/Reductor.h</text>
</a>
</g>
</g>
<!-- Node2&#45;&gt;Node3 -->
<g id="edge2" class="edge"><title>Node2&#45;&gt;Node3</title>
<path fill="none" stroke="midnightblue" d="M204.5,-112.083C204.5,-105.006 204.5,-94.8611 204.5,-85.9865"/>
<polygon fill="midnightblue" stroke="midnightblue" points="208,-85.751 204.5,-75.7511 201,-85.7511 208,-85.751"/>
</g>
<!-- Node5 -->
<g id="node5" class="node"><title>Node5</title>
<g id="a_node5"><a xlink:href="Quality_8h.html" target="_top" xlink:title="QualityControl/Quality.h">
<polygon fill="none" stroke="black" points="0,-56.5 0,-75.5 121,-75.5 121,-56.5 0,-56.5"/>
<text text-anchor="middle" x="60.5" y="-63.5" font-family="Helvetica,sans-Serif" font-size="10.00">QualityControl/Quality.h</text>
</a>
</g>
</g>
<!-- Node2&#45;&gt;Node5 -->
<g id="edge4" class="edge"><title>Node2&#45;&gt;Node5</title>
<path fill="none" stroke="midnightblue" d="M181.683,-112.444C157.668,-103.438 119.671,-89.1891 92.6308,-79.049"/>
<polygon fill="midnightblue" stroke="midnightblue" points="93.8027,-75.7506 83.2105,-75.5164 91.3448,-82.3049 93.8027,-75.7506"/>
</g>
<!-- Node4 -->
<g id="node4" class="node"><title>Node4</title>
<polygon fill="none" stroke="#bfbfbf" points="315,-0.5 315,-19.5 374,-19.5 374,-0.5 315,-0.5"/>
<text text-anchor="middle" x="344.5" y="-7.5" font-family="Helvetica,sans-Serif" font-size="10.00">TObject.h</text>
</g>
<!-- Node3&#45;&gt;Node4 -->
<g id="edge3" class="edge"><title>Node3&#45;&gt;Node4</title>
<path fill="none" stroke="midnightblue" d="M226.683,-56.4435C249.928,-47.4776 286.649,-33.314 312.915,-23.1827"/>
<polygon fill="midnightblue" stroke="midnightblue" points="314.35,-26.3807 322.42,-19.5164 311.831,-19.8497 314.35,-26.3807"/>
</g>
<!-- Node6 -->
<g id="node6" class="node"><title>Node6</title>
<polygon fill="none" stroke="#bfbfbf" points="66.5,-0.5 66.5,-19.5 122.5,-19.5 122.5,-0.5 66.5,-0.5"/>
<text text-anchor="middle" x="94.5" y="-7.5" font-family="Helvetica,sans-Serif" font-size="10.00">Rtypes.h</text>
</g>
<!-- Node5&#45;&gt;Node6 -->
<g id="edge5" class="edge"><title>Node5&#45;&gt;Node6</title>
<path fill="none" stroke="midnightblue" d="M66.1144,-56.083C70.8674,-48.5341 77.8181,-37.4948 83.6516,-28.2298"/>
<polygon fill="midnightblue" stroke="midnightblue" points="86.6237,-30.0783 88.9901,-19.7511 80.7001,-26.3486 86.6237,-30.0783"/>
</g>
<!-- Node7 -->
<g id="node7" class="node"><title>Node7</title>
<polygon fill="none" stroke="#bfbfbf" points="7,-0.5 7,-19.5 48,-19.5 48,-0.5 7,-0.5"/>
<text text-anchor="middle" x="27.5" y="-7.5" font-family="Helvetica,sans-Serif" font-size="10.00">string</text>
</g>
<!-- Node5&#45;&gt;Node7 -->
<g id="edge6" class="edge"><title>Node5&#45;&gt;Node7</title>
<path fill="none" stroke="midnightblue" d="M55.0507,-56.083C50.4855,-48.6127 43.8316,-37.7244 38.2066,-28.5199"/>
<polygon fill="midnightblue" stroke="midnightblue" points="41.0489,-26.4588 32.8479,-19.7511 35.0759,-30.109 41.0489,-26.4588"/>
</g>
<!-- Node8&#45;&gt;Node4 -->
<g id="edge10" class="edge"><title>Node8&#45;&gt;Node4</title>
<path fill="none" stroke="midnightblue" d="M411.185,-112.439C442.004,-101.704 484.319,-81.5656 466.5,-56 448.047,-29.5257 412.164,-18.5864 384.069,-14.0876"/>
<polygon fill="midnightblue" stroke="midnightblue" points="384.503,-10.6145 374.117,-12.7047 383.54,-17.5478 384.503,-10.6145"/>
</g>
<!-- Node8&#45;&gt;Node5 -->
<g id="edge12" class="edge"><title>Node8&#45;&gt;Node5</title>
<path fill="none" stroke="midnightblue" d="M331.478,-112.444C274.482,-102.885 182.261,-87.4195 121.5,-77.2298"/>
<polygon fill="midnightblue" stroke="midnightblue" points="121.724,-73.7186 111.283,-75.5164 120.567,-80.6222 121.724,-73.7186"/>
</g>
<!-- Node9 -->
<g id="node9" class="node"><title>Node9</title>
<polygon fill="none" stroke="#bfbfbf" points="513.5,-56.5 513.5,-75.5 567.5,-75.5 567.5,-56.5 513.5,-56.5"/>
<text text-anchor="middle" x="540.5" y="-63.5" font-family="Helvetica,sans-Serif" font-size="10.00">iostream</text>
</g>
<!-- Node8&#45;&gt;Node9 -->
<g id="edge8" class="edge"><title>Node8&#45;&gt;Node9</title>
<path fill="none" stroke="midnightblue" d="M407.536,-112.444C434.116,-103.359 476.309,-88.9388 506.023,-78.7831"/>
<polygon fill="midnightblue" stroke="midnightblue" points="507.251,-82.0625 515.582,-75.5164 504.987,-75.4386 507.251,-82.0625"/>
</g>
<!-- Node10 -->
<g id="node10" class="node"><title>Node10</title>
<polygon fill="none" stroke="#bfbfbf" points="288,-56.5 288,-75.5 323,-75.5 323,-56.5 288,-56.5"/>
<text text-anchor="middle" x="305.5" y="-63.5" font-family="Helvetica,sans-Serif" font-size="10.00">map</text>
</g>
<!-- Node8&#45;&gt;Node10 -->
<g id="edge9" class="edge"><title>Node8&#45;&gt;Node10</title>
<path fill="none" stroke="midnightblue" d="M370.129,-112.324C358.342,-104.058 340.368,-91.4527 326.364,-81.6322"/>
<polygon fill="midnightblue" stroke="midnightblue" points="328.038,-78.5307 317.841,-75.6545 324.018,-84.2619 328.038,-78.5307"/>
</g>
<!-- Node11 -->
<g id="node11" class="node"><title>Node11</title>
<polygon fill="none" stroke="#bfbfbf" points="341.5,-56.5 341.5,-75.5 457.5,-75.5 457.5,-56.5 341.5,-56.5"/>
<text text-anchor="middle" x="399.5" y="-63.5" font-family="Helvetica,sans-Serif" font-size="10.00">Common/Exceptions.h</text>
</g>
<!-- Node8&#45;&gt;Node11 -->
<g id="edge11" class="edge"><title>Node8&#45;&gt;Node11</title>
<path fill="none" stroke="midnightblue" d="M385.307,-112.083C387.585,-104.849 390.871,-94.4087 393.708,-85.3968"/>
<polygon fill="midnightblue" stroke="midnightblue" points="397.081,-86.3406 396.745,-75.7511 390.404,-84.2385 397.081,-86.3406"/>
</g>
</g>
</svg>
