<?xml version="1.0" encoding="UTF-8" standalone="no"?>
<!DOCTYPE svg PUBLIC "-//W3C//DTD SVG 1.1//EN"
 "http://www.w3.org/Graphics/SVG/1.1/DTD/svg11.dtd">
<!-- Generated by graphviz version 2.38.0 (20140413.2041)
 -->
<!-- Title: Framework/include/QualityControl/Reductor.h Pages: 1 -->
<svg width="952pt" height="173pt"
 viewBox="0.00 0.00 952.00 173.00" xmlns="http://www.w3.org/2000/svg" xmlns:xlink="http://www.w3.org/1999/xlink">
<g id="graph0" class="graph" transform="scale(1 1) rotate(0) translate(4 169)">
<title>Framework/include/QualityControl/Reductor.h</title>
<!-- Node1 -->
<g id="node1" class="node"><title>Node1</title>
<polygon fill="#bfbfbf" stroke="black" points="446,-134.5 446,-164.5 579,-164.5 579,-134.5 446,-134.5"/>
<text text-anchor="start" x="454" y="-152.5" font-family="Helvetica,sans-Serif" font-size="10.00">Framework/include/Quality</text>
<text text-anchor="middle" x="512.5" y="-141.5" font-family="Helvetica,sans-Serif" font-size="10.00">Control/Reductor.h</text>
</g>
<!-- Node2 -->
<g id="node2" class="node"><title>Node2</title>
<g id="a_node2"><a xlink:href="TrendingTask_8h.html" target="_top" xlink:title="Framework/include/Quality\lControl/TrendingTask.h">
<polygon fill="none" stroke="black" points="110,-67.5 110,-97.5 243,-97.5 243,-67.5 110,-67.5"/>
<text text-anchor="start" x="118" y="-85.5" font-family="Helvetica,sans-Serif" font-size="10.00">Framework/include/Quality</text>
<text text-anchor="middle" x="176.5" y="-74.5" font-family="Helvetica,sans-Serif" font-size="10.00">Control/TrendingTask.h</text>
</a>
</g>
</g>
<!-- Node1&#45;&gt;Node2 -->
<g id="edge1" class="edge"><title>Node1&#45;&gt;Node2</title>
<path fill="none" stroke="midnightblue" d="M435.848,-133.672C377.734,-122.429 298.664,-107.133 243.158,-96.3952"/>
<polygon fill="midnightblue" stroke="midnightblue" points="435.233,-137.117 445.715,-135.58 436.562,-130.245 435.233,-137.117"/>
</g>
<!-- Node3 -->
<g id="node3" class="node"><title>Node3</title>
<g id="a_node3"><a xlink:href="TrendingTask_8cxx.html" target="_top" xlink:title="Framework/src/TrendingTask.cxx">
<polygon fill="none" stroke="black" points="0,-6 0,-25 163,-25 163,-6 0,-6"/>
<text text-anchor="middle" x="81.5" y="-13" font-family="Helvetica,sans-Serif" font-size="10.00">Framework/src/TrendingTask.cxx</text>
</a>
</g>
</g>
<!-- Node1&#45;&gt;Node3 -->
<g id="edge4" class="edge"><title>Node1&#45;&gt;Node3</title>
<path fill="none" stroke="midnightblue" d="M435.336,-149.235C329.886,-148.58 148.361,-140.993 100.5,-98 79.5317,-79.1647 79.4322,-42.0729 80.6139,-25.2113"/>
<polygon fill="midnightblue" stroke="midnightblue" points="435.595,-152.736 445.61,-149.279 435.625,-145.736 435.595,-152.736"/>
</g>
<!-- Node5 -->
<g id="node5" class="node"><title>Node5</title>
<polygon fill="none" stroke="#bfbfbf" points="261,-73 261,-92 424,-92 424,-73 261,-73"/>
<text text-anchor="middle" x="342.5" y="-80" font-family="Helvetica,sans-Serif" font-size="10.00">Framework/test/testReductor.cxx</text>
</g>
<!-- Node1&#45;&gt;Node5 -->
<g id="edge5" class="edge"><title>Node1&#45;&gt;Node5</title>
<path fill="none" stroke="midnightblue" d="M466.165,-130.784C433.203,-118.181 390.383,-101.808 364.749,-92.007"/>
<polygon fill="midnightblue" stroke="midnightblue" points="465.022,-134.094 475.613,-134.396 467.522,-127.555 465.022,-134.094"/>
</g>
<!-- Node6 -->
<g id="node6" class="node"><title>Node6</title>
<g id="a_node6"><a xlink:href="QualityReductor_8h.html" target="_top" xlink:title="Modules/Common/include\l/Common/QualityReductor.h">
<polygon fill="none" stroke="black" points="442,-67.5 442,-97.5 583,-97.5 583,-67.5 442,-67.5"/>
<text text-anchor="start" x="450" y="-85.5" font-family="Helvetica,sans-Serif" font-size="10.00">Modules/Common/include</text>
<text text-anchor="middle" x="512.5" y="-74.5" font-family="Helvetica,sans-Serif" font-size="10.00">/Common/QualityReductor.h</text>
</a>
</g>
</g>
<!-- Node1&#45;&gt;Node6 -->
<g id="edge6" class="edge"><title>Node1&#45;&gt;Node6</title>
<path fill="none" stroke="midnightblue" d="M512.5,-124.108C512.5,-115.154 512.5,-105.323 512.5,-97.5765"/>
<polygon fill="midnightblue" stroke="midnightblue" points="509,-124.396 512.5,-134.396 516,-124.396 509,-124.396"/>
</g>
<!-- Node8 -->
<g id="node8" class="node"><title>Node8</title>
<g id="a_node8"><a xlink:href="testCommonReductors_8cxx.html" target="_top" xlink:title="Modules/Common/test\l/testCommonReductors.cxx">
<polygon fill="none" stroke="black" points="541.5,-0.5 541.5,-30.5 681.5,-30.5 681.5,-0.5 541.5,-0.5"/>
<text text-anchor="start" x="549.5" y="-18.5" font-family="Helvetica,sans-Serif" font-size="10.00">Modules/Common/test</text>
<text text-anchor="middle" x="611.5" y="-7.5" font-family="Helvetica,sans-Serif" font-size="10.00">/testCommonReductors.cxx</text>
</a>
</g>
</g>
<!-- Node1&#45;&gt;Node8 -->
<g id="edge15" class="edge"><title>Node1&#45;&gt;Node8</title>
<path fill="none" stroke="midnightblue" d="M554.84,-129.465C568.337,-121.505 582.172,-111.029 591.5,-98 606.002,-77.743 610.054,-48.1842 611.146,-30.7886"/>
<polygon fill="midnightblue" stroke="midnightblue" points="553.115,-126.419 546.071,-134.334 556.513,-132.54 553.115,-126.419"/>
</g>
<!-- Node9 -->
<g id="node9" class="node"><title>Node9</title>
<g id="a_node9"><a xlink:href="TH1Reductor_8h.html" target="_top" xlink:title="Modules/Common/include\l/Common/TH1Reductor.h">
<polygon fill="none" stroke="black" points="639.5,-67.5 639.5,-97.5 769.5,-97.5 769.5,-67.5 639.5,-67.5"/>
<text text-anchor="start" x="647.5" y="-85.5" font-family="Helvetica,sans-Serif" font-size="10.00">Modules/Common/include</text>
<text text-anchor="middle" x="704.5" y="-74.5" font-family="Helvetica,sans-Serif" font-size="10.00">/Common/TH1Reductor.h</text>
</a>
</g>
</g>
<!-- Node1&#45;&gt;Node9 -->
<g id="edge9" class="edge"><title>Node1&#45;&gt;Node9</title>
<path fill="none" stroke="midnightblue" d="M563.922,-131.092C594.916,-120.599 633.879,-107.408 662.92,-97.5765"/>
<polygon fill="midnightblue" stroke="midnightblue" points="562.511,-127.874 554.161,-134.396 564.755,-134.504 562.511,-127.874"/>
</g>
<!-- Node11 -->
<g id="node11" class="node"><title>Node11</title>
<g id="a_node11"><a xlink:href="TH2Reductor_8h.html" target="_top" xlink:title="Modules/Common/include\l/Common/TH2Reductor.h">
<polygon fill="none" stroke="black" points="787.5,-67.5 787.5,-97.5 917.5,-97.5 917.5,-67.5 787.5,-67.5"/>
<text text-anchor="start" x="795.5" y="-85.5" font-family="Helvetica,sans-Serif" font-size="10.00">Modules/Common/include</text>
<text text-anchor="middle" x="852.5" y="-74.5" font-family="Helvetica,sans-Serif" font-size="10.00">/Common/TH2Reductor.h</text>
</a>
</g>
</g>
<!-- Node1&#45;&gt;Node11 -->
<g id="edge12" class="edge"><title>Node1&#45;&gt;Node11</title>
<path fill="none" stroke="midnightblue" d="M589.233,-134.056C642.382,-124.021 714.761,-110.295 778.5,-98 781.328,-97.4545 784.216,-96.8957 787.134,-96.3298"/>
<polygon fill="midnightblue" stroke="midnightblue" points="588.382,-130.655 579.204,-135.949 589.68,-137.533 588.382,-130.655"/>
</g>
<!-- Node2&#45;&gt;Node3 -->
<g id="edge2" class="edge"><title>Node2&#45;&gt;Node3</title>
<path fill="none" stroke="midnightblue" d="M147.475,-61.6409C129.547,-49.3742 107.459,-34.2613 93.9333,-25.007"/>
<polygon fill="midnightblue" stroke="midnightblue" points="145.657,-64.6377 155.886,-67.396 149.61,-58.8605 145.657,-64.6377"/>
</g>
<!-- Node4 -->
<g id="node4" class="node"><title>Node4</title>
<g id="a_node4"><a xlink:href="testTrendingTask_8cxx.html" target="_top" xlink:title="Framework/test/testTrending\lTask.cxx">
<polygon fill="none" stroke="black" points="181.5,-0.5 181.5,-30.5 323.5,-30.5 323.5,-0.5 181.5,-0.5"/>
<text text-anchor="start" x="189.5" y="-18.5" font-family="Helvetica,sans-Serif" font-size="10.00">Framework/test/testTrending</text>
<text text-anchor="middle" x="252.5" y="-7.5" font-family="Helvetica,sans-Serif" font-size="10.00">Task.cxx</text>
</a>
</g>
</g>
<!-- Node2&#45;&gt;Node4 -->
<g id="edge3" class="edge"><title>Node2&#45;&gt;Node4</title>
<path fill="none" stroke="midnightblue" d="M200.606,-60.8832C212.155,-51.0054 225.69,-39.4293 236.041,-30.5765"/>
<polygon fill="midnightblue" stroke="midnightblue" points="198.316,-58.2364 192.991,-67.396 202.865,-63.5561 198.316,-58.2364"/>
</g>
<!-- Node7 -->
<g id="node7" class="node"><title>Node7</title>
<g id="a_node7"><a xlink:href="QualityReductor_8cxx.html" target="_top" xlink:title="Modules/Common/src\l/QualityReductor.cxx">
<polygon fill="none" stroke="black" points="410,-0.5 410,-30.5 523,-30.5 523,-0.5 410,-0.5"/>
<text text-anchor="start" x="418" y="-18.5" font-family="Helvetica,sans-Serif" font-size="10.00">Modules/Common/src</text>
<text text-anchor="middle" x="466.5" y="-7.5" font-family="Helvetica,sans-Serif" font-size="10.00">/QualityReductor.cxx</text>
</a>
</g>
</g>
<!-- Node6&#45;&gt;Node7 -->
<g id="edge7" class="edge"><title>Node6&#45;&gt;Node7</title>
<path fill="none" stroke="midnightblue" d="M496.688,-59.1575C489.98,-49.6788 482.365,-38.9186 476.462,-30.5765"/>
<polygon fill="midnightblue" stroke="midnightblue" points="493.885,-61.2551 502.519,-67.396 499.599,-57.2114 493.885,-61.2551"/>
</g>
<!-- Node6&#45;&gt;Node8 -->
<g id="edge8" class="edge"><title>Node6&#45;&gt;Node8</title>
<path fill="none" stroke="midnightblue" d="M542.606,-61.7337C557.925,-51.6755 576.188,-39.6847 590.06,-30.5765"/>
<polygon fill="midnightblue" stroke="midnightblue" points="540.42,-58.9818 533.982,-67.396 544.262,-64.8333 540.42,-58.9818"/>
</g>
<!-- Node9&#45;&gt;Node8 -->
<g id="edge11" class="edge"><title>Node9&#45;&gt;Node8</title>
<path fill="none" stroke="midnightblue" d="M675.815,-61.4511C661.508,-51.4517 644.55,-39.5995 631.64,-30.5765"/>
<polygon fill="midnightblue" stroke="midnightblue" points="674.119,-64.536 684.32,-67.396 678.129,-58.7985 674.119,-64.536"/>
</g>
<!-- Node10 -->
<g id="node10" class="node"><title>Node10</title>
<g id="a_node10"><a xlink:href="TH1Reductor_8cxx.html" target="_top" xlink:title="Modules/Common/src\l/TH1Reductor.cxx">
<polygon fill="none" stroke="black" points="700,-0.5 700,-30.5 813,-30.5 813,-0.5 700,-0.5"/>
<text text-anchor="start" x="708" y="-18.5" font-family="Helvetica,sans-Serif" font-size="10.00">Modules/Common/src</text>
<text text-anchor="middle" x="756.5" y="-7.5" font-family="Helvetica,sans-Serif" font-size="10.00">/TH1Reductor.cxx</text>
</a>
</g>
</g>
<!-- Node9&#45;&gt;Node10 -->
<g id="edge10" class="edge"><title>Node9&#45;&gt;Node10</title>
<path fill="none" stroke="midnightblue" d="M722.142,-59.4472C729.781,-49.8986 738.497,-39.0037 745.239,-30.5765"/>
<polygon fill="midnightblue" stroke="midnightblue" points="719.297,-57.4008 715.783,-67.396 724.763,-61.7737 719.297,-57.4008"/>
</g>
<!-- Node11&#45;&gt;Node8 -->
<g id="edge14" class="edge"><title>Node11&#45;&gt;Node8</title>
<path fill="none" stroke="midnightblue" d="M790.766,-64.8498C751.474,-54.2523 701.143,-40.6775 663.819,-30.6109"/>
<polygon fill="midnightblue" stroke="midnightblue" points="789.937,-68.2511 800.503,-67.476 791.76,-61.4926 789.937,-68.2511"/>
</g>
<!-- Node12 -->
<g id="node12" class="node"><title>Node12</title>
<g id="a_node12"><a xlink:href="TH2Reductor_8cxx.html" target="_top" xlink:title="Modules/Common/src\l/TH2Reductor.cxx">
<polygon fill="none" stroke="black" points="831,-0.5 831,-30.5 944,-30.5 944,-0.5 831,-0.5"/>
<text text-anchor="start" x="839" y="-18.5" font-family="Helvetica,sans-Serif" font-size="10.00">Modules/Common/src</text>
<text text-anchor="middle" x="887.5" y="-7.5" font-family="Helvetica,sans-Serif" font-size="10.00">/TH2Reductor.cxx</text>
</a>
</g>
</g>
<!-- Node11&#45;&gt;Node12 -->
<g id="edge13" class="edge"><title>Node11&#45;&gt;Node12</title>
<path fill="none" stroke="midnightblue" d="M864.844,-58.5756C869.87,-49.2406 875.52,-38.7483 879.92,-30.5765"/>
<polygon fill="midnightblue" stroke="midnightblue" points="861.754,-56.9319 860.094,-67.396 867.917,-60.2506 861.754,-56.9319"/>
</g>
</g>
</svg>
