<?xml version="1.0" encoding="UTF-8" standalone="no"?>
<!DOCTYPE svg PUBLIC "-//W3C//DTD SVG 1.1//EN"
 "http://www.w3.org/Graphics/SVG/1.1/DTD/svg11.dtd">
<!-- Generated by graphviz version 2.38.0 (20140413.2041)
 -->
<!-- Title: Framework/src/RepositoryBenchmark.cxx Pages: 1 -->
<!--zoomable 319 -->
<svg id="main" version="1.1" xmlns="http://www.w3.org/2000/svg" xmlns:xlink="http://www.w3.org/1999/xlink" xml:space="preserve" onload="init(evt)">
<style type="text/css"><![CDATA[
.edge:hover path { stroke: red; }
.edge:hover polygon { stroke: red; fill: red; }
]]></style>
<script type="text/javascript"><![CDATA[
var edges = document.getElementsByTagName('g');
if (edges && edges.length) {
  for (var i=0;i<edges.length;i++) {
    if (edges[i].id.substr(0,4)=='edge') {
      edges[i].setAttribute('class','edge');
    }
  }
}
]]></script>
        <defs>
                <circle id="rim" cx="0" cy="0" r="7"/>
                <circle id="rim2" cx="0" cy="0" r="3.5"/>
                <g id="zoomPlus">
                        <use xlink:href="#rim" fill="#404040">
                                <set attributeName="fill" to="#808080" begin="zoomplus.mouseover" end="zoomplus.mouseout"/>
                        </use>
                        <path d="M-4,0h8M0,-4v8" fill="none" stroke="white" stroke-width="1.5" pointer-events="none"/>
                </g>
                <g id="zoomMin">
                        <use xlink:href="#rim" fill="#404040">
                                <set attributeName="fill" to="#808080" begin="zoomminus.mouseover" end="zoomminus.mouseout"/>
                        </use>
                        <path d="M-4,0h8" fill="none" stroke="white" stroke-width="1.5" pointer-events="none"/>
                </g>
                <g id="dirArrow">
                        <path fill="none" stroke="white" stroke-width="1.5" d="M0,-3.0v7 M-2.5,-0.5L0,-3.0L2.5,-0.5"/>
                </g>
               <g id="resetDef">
                       <use xlink:href="#rim2" fill="#404040">
                               <set attributeName="fill" to="#808080" begin="reset.mouseover" end="reset.mouseout"/>
                       </use>
               </g>
        </defs>

<script type="text/javascript">
var viewWidth = 1524;
var viewHeight = 319;
var sectionId = 'dynsection-0';
</script>
<script xlink:href="svgpan.js"/>
<svg id="graph" class="graph">
<g id="viewport">
<title>Framework/src/RepositoryBenchmark.cxx</title>
<!-- Node1 -->
<g id="node1" class="node"><title>Node1</title>
<polygon fill="#bfbfbf" stroke="black" points="893.083,-280.5 893.083,-310.5 1025.08,-310.5 1025.08,-280.5 893.083,-280.5"/>
<text text-anchor="start" x="901.083" y="-298.5" font-family="Helvetica,sans-Serif" font-size="10.00">Framework/src/Repository</text>
<text text-anchor="middle" x="959.083" y="-287.5" font-family="Helvetica,sans-Serif" font-size="10.00">Benchmark.cxx</text>
</g>
<!-- Node2 -->
<g id="node2" class="node"><title>Node2</title>
<g id="a_node2"><a xlink:href="RepositoryBenchmark_8h.html" target="_top" xlink:title="RepositoryBenchmark.h">
<polygon fill="none" stroke="black" points="758.083,-224.5 758.083,-243.5 880.083,-243.5 880.083,-224.5 758.083,-224.5"/>
<text text-anchor="middle" x="819.083" y="-231.5" font-family="Helvetica,sans-Serif" font-size="10.00">RepositoryBenchmark.h</text>
</a>
</g>
</g>
<!-- Node1&#45;&gt;Node2 -->
<g id="edge1" class="edge"><title>Node1&#45;&gt;Node2</title>
<path fill="none" stroke="midnightblue" d="M925.905,-280.399C902.52,-270.461 871.471,-257.265 848.877,-247.662"/>
<polygon fill="midnightblue" stroke="midnightblue" points="850.026,-244.348 839.454,-243.658 847.288,-250.79 850.026,-244.348"/>
</g>
<!-- Node12 -->
<g id="node12" class="node"><title>Node12</title>
<polygon fill="none" stroke="#bfbfbf" points="83.0827,-56.5 83.0827,-75.5 199.083,-75.5 199.083,-56.5 83.0827,-56.5"/>
<text text-anchor="middle" x="141.083" y="-63.5" font-family="Helvetica,sans-Serif" font-size="10.00">Common/Exceptions.h</text>
</g>
<!-- Node1&#45;&gt;Node12 -->
<g id="edge32" class="edge"><title>Node1&#45;&gt;Node12</title>
<path fill="none" stroke="midnightblue" d="M892.922,-293.195C737.872,-289.609 354.816,-277.536 231.083,-244 122.884,-214.674 64.1874,-227.255 5.08274,-132 -14.5658,-100.334 29.7304,-83.784 72.9093,-75.3318"/>
<polygon fill="midnightblue" stroke="midnightblue" points="73.7387,-78.7383 82.9484,-73.5007 72.4827,-71.8519 73.7387,-78.7383"/>
</g>
<!-- Node20 -->
<g id="node20" class="node"><title>Node20</title>
<polygon fill="none" stroke="#bfbfbf" points="1177.08,-168.5 1177.08,-187.5 1221.08,-187.5 1221.08,-168.5 1177.08,-168.5"/>
<text text-anchor="middle" x="1199.08" y="-175.5" font-family="Helvetica,sans-Serif" font-size="10.00">thread</text>
</g>
<!-- Node1&#45;&gt;Node20 -->
<g id="edge28" class="edge"><title>Node1&#45;&gt;Node20</title>
<path fill="none" stroke="midnightblue" d="M944.339,-280.477C930.083,-265.232 912.605,-240.801 927.083,-224 960.636,-185.062 1099.97,-198.038 1166.76,-187.718"/>
<polygon fill="midnightblue" stroke="midnightblue" points="1167.63,-191.116 1176.82,-185.85 1166.35,-184.233 1167.63,-191.116"/>
</g>
<!-- Node21 -->
<g id="node21" class="node"><title>Node21</title>
<polygon fill="none" stroke="#bfbfbf" points="936.083,-224.5 936.083,-243.5 982.083,-243.5 982.083,-224.5 936.083,-224.5"/>
<text text-anchor="middle" x="959.083" y="-231.5" font-family="Helvetica,sans-Serif" font-size="10.00">chrono</text>
</g>
<!-- Node1&#45;&gt;Node21 -->
<g id="edge27" class="edge"><title>Node1&#45;&gt;Node21</title>
<path fill="none" stroke="midnightblue" d="M959.083,-280.399C959.083,-272.466 959.083,-262.458 959.083,-253.858"/>
<polygon fill="midnightblue" stroke="midnightblue" points="962.583,-253.658 959.083,-243.658 955.583,-253.658 962.583,-253.658"/>
</g>
<!-- Node22 -->
<g id="node22" class="node"><title>Node22</title>
<polygon fill="none" stroke="#bfbfbf" points="1000.08,-224.5 1000.08,-243.5 1050.08,-243.5 1050.08,-224.5 1000.08,-224.5"/>
<text text-anchor="middle" x="1025.08" y="-231.5" font-family="Helvetica,sans-Serif" font-size="10.00">TH2F.h</text>
</g>
<!-- Node1&#45;&gt;Node22 -->
<g id="edge29" class="edge"><title>Node1&#45;&gt;Node22</title>
<path fill="none" stroke="midnightblue" d="M974.724,-280.399C984.71,-271.397 997.661,-259.721 1007.93,-250.465"/>
<polygon fill="midnightblue" stroke="midnightblue" points="1010.4,-252.953 1015.48,-243.658 1005.71,-247.754 1010.4,-252.953"/>
</g>
<!-- Node23 -->
<g id="node23" class="node"><title>Node23</title>
<polygon fill="none" stroke="#bfbfbf" points="1068.08,-224.5 1068.08,-243.5 1184.08,-243.5 1184.08,-224.5 1068.08,-224.5"/>
<text text-anchor="middle" x="1126.08" y="-231.5" font-family="Helvetica,sans-Serif" font-size="10.00">fairmq/FairMQLogger.h</text>
</g>
<!-- Node1&#45;&gt;Node23 -->
<g id="edge30" class="edge"><title>Node1&#45;&gt;Node23</title>
<path fill="none" stroke="midnightblue" d="M998.659,-280.399C1027.18,-270.238 1065.26,-256.672 1092.34,-247.022"/>
<polygon fill="midnightblue" stroke="midnightblue" points="1093.54,-250.311 1101.78,-243.658 1091.19,-243.717 1093.54,-250.311"/>
</g>
<!-- Node24 -->
<g id="node24" class="node"><title>Node24</title>
<polygon fill="none" stroke="#bfbfbf" points="1202.08,-224.5 1202.08,-243.5 1348.08,-243.5 1348.08,-224.5 1202.08,-224.5"/>
<text text-anchor="middle" x="1275.08" y="-231.5" font-family="Helvetica,sans-Serif" font-size="10.00">options/FairMQProgOptions.h</text>
</g>
<!-- Node1&#45;&gt;Node24 -->
<g id="edge31" class="edge"><title>Node1&#45;&gt;Node24</title>
<path fill="none" stroke="midnightblue" d="M1025.33,-282.027C1082.96,-271.174 1165.53,-255.628 1219.71,-245.425"/>
<polygon fill="midnightblue" stroke="midnightblue" points="1220.64,-248.812 1229.82,-243.522 1219.35,-241.933 1220.64,-248.812"/>
</g>
<!-- Node25 -->
<g id="node25" class="node"><title>Node25</title>
<g id="a_node25"><a xlink:href="DatabaseFactory_8h.html" target="_top" xlink:title="QualityControl/DatabaseFactory.h">
<polygon fill="none" stroke="black" points="240.583,-224.5 240.583,-243.5 405.583,-243.5 405.583,-224.5 240.583,-224.5"/>
<text text-anchor="middle" x="323.083" y="-231.5" font-family="Helvetica,sans-Serif" font-size="10.00">QualityControl/DatabaseFactory.h</text>
</a>
</g>
</g>
<!-- Node1&#45;&gt;Node25 -->
<g id="edge33" class="edge"><title>Node1&#45;&gt;Node25</title>
<path fill="none" stroke="midnightblue" d="M892.819,-288.301C778.98,-277.651 546.001,-255.855 416.001,-243.693"/>
<polygon fill="midnightblue" stroke="midnightblue" points="415.953,-240.173 405.67,-242.726 415.301,-247.143 415.953,-240.173"/>
</g>
<!-- Node26 -->
<g id="node26" class="node"><title>Node26</title>
<g id="a_node26"><a xlink:href="QcInfoLogger_8h.html" target="_top" xlink:title="QualityControl/QcInfoLogger.h">
<polygon fill="none" stroke="black" points="1366.58,-224.5 1366.58,-243.5 1515.58,-243.5 1515.58,-224.5 1366.58,-224.5"/>
<text text-anchor="middle" x="1441.08" y="-231.5" font-family="Helvetica,sans-Serif" font-size="10.00">QualityControl/QcInfoLogger.h</text>
</a>
</g>
</g>
<!-- Node1&#45;&gt;Node26 -->
<g id="edge36" class="edge"><title>Node1&#45;&gt;Node26</title>
<path fill="none" stroke="midnightblue" d="M1025.09,-286.352C1112.91,-275.511 1267.97,-256.37 1361.95,-244.768"/>
<polygon fill="midnightblue" stroke="midnightblue" points="1362.48,-248.229 1371.98,-243.531 1361.62,-241.282 1362.48,-248.229"/>
</g>
<!-- Node3 -->
<g id="node3" class="node"><title>Node3</title>
<g id="a_node3"><a xlink:href="DatabaseInterface_8h.html" target="_top" xlink:title="QualityControl/DatabaseInterface.h">
<polygon fill="none" stroke="black" points="238.083,-168.5 238.083,-187.5 408.083,-187.5 408.083,-168.5 238.083,-168.5"/>
<text text-anchor="middle" x="323.083" y="-175.5" font-family="Helvetica,sans-Serif" font-size="10.00">QualityControl/DatabaseInterface.h</text>
</a>
</g>
</g>
<!-- Node2&#45;&gt;Node3 -->
<g id="edge2" class="edge"><title>Node2&#45;&gt;Node3</title>
<path fill="none" stroke="midnightblue" d="M757.766,-226.324C670.813,-216.858 511.187,-199.479 411.455,-188.621"/>
<polygon fill="midnightblue" stroke="midnightblue" points="411.716,-185.129 401.396,-187.526 410.959,-192.088 411.716,-185.129"/>
</g>
<!-- Node4 -->
<g id="node4" class="node"><title>Node4</title>
<polygon fill="none" stroke="#bfbfbf" points="543.583,-0.5 543.583,-19.5 584.583,-19.5 584.583,-0.5 543.583,-0.5"/>
<text text-anchor="middle" x="564.083" y="-7.5" font-family="Helvetica,sans-Serif" font-size="10.00">string</text>
</g>
<!-- Node2&#45;&gt;Node4 -->
<g id="edge26" class="edge"><title>Node2&#45;&gt;Node4</title>
<path fill="none" stroke="midnightblue" d="M774.32,-224.492C750.408,-217.975 721.902,-206.793 702.083,-188 655.452,-143.785 686.255,-103.598 643.083,-56 629.735,-41.2833 610.413,-30.1594 594.22,-22.6532"/>
<polygon fill="midnightblue" stroke="midnightblue" points="595.187,-19.2556 584.623,-18.4472 592.377,-25.6669 595.187,-19.2556"/>
</g>
<!-- Node16 -->
<g id="node16" class="node"><title>Node16</title>
<polygon fill="none" stroke="#bfbfbf" points="711.083,-168.5 711.083,-187.5 829.083,-187.5 829.083,-168.5 711.083,-168.5"/>
<text text-anchor="middle" x="770.083" y="-175.5" font-family="Helvetica,sans-Serif" font-size="10.00">fairmq/FairMQDevice.h</text>
</g>
<!-- Node2&#45;&gt;Node16 -->
<g id="edge21" class="edge"><title>Node2&#45;&gt;Node16</title>
<path fill="none" stroke="midnightblue" d="M810.991,-224.083C803.927,-216.298 793.495,-204.801 784.934,-195.367"/>
<polygon fill="midnightblue" stroke="midnightblue" points="787.335,-192.805 778.024,-187.751 782.151,-197.509 787.335,-192.805"/>
</g>
<!-- Node17 -->
<g id="node17" class="node"><title>Node17</title>
<polygon fill="none" stroke="#bfbfbf" points="847.083,-168.5 847.083,-187.5 891.083,-187.5 891.083,-168.5 847.083,-168.5"/>
<text text-anchor="middle" x="869.083" y="-175.5" font-family="Helvetica,sans-Serif" font-size="10.00">TH1.h</text>
</g>
<!-- Node2&#45;&gt;Node17 -->
<g id="edge22" class="edge"><title>Node2&#45;&gt;Node17</title>
<path fill="none" stroke="midnightblue" d="M827.339,-224.083C834.547,-216.298 845.192,-204.801 853.929,-195.367"/>
<polygon fill="midnightblue" stroke="midnightblue" points="856.754,-197.467 860.98,-187.751 851.618,-192.711 856.754,-197.467"/>
</g>
<!-- Node18 -->
<g id="node18" class="node"><title>Node18</title>
<polygon fill="none" stroke="#bfbfbf" points="909.583,-168.5 909.583,-187.5 1060.58,-187.5 1060.58,-168.5 909.583,-168.5"/>
<text text-anchor="middle" x="985.083" y="-175.5" font-family="Helvetica,sans-Serif" font-size="10.00">Monitoring/MonitoringFactory.h</text>
</g>
<!-- Node2&#45;&gt;Node18 -->
<g id="edge23" class="edge"><title>Node2&#45;&gt;Node18</title>
<path fill="none" stroke="midnightblue" d="M845.386,-224.444C873.434,-215.32 918.027,-200.813 949.267,-190.651"/>
<polygon fill="midnightblue" stroke="midnightblue" points="950.476,-193.938 958.903,-187.516 948.31,-187.282 950.476,-193.938"/>
</g>
<!-- Node19 -->
<g id="node19" class="node"><title>Node19</title>
<polygon fill="none" stroke="#bfbfbf" points="1079.08,-168.5 1079.08,-187.5 1159.08,-187.5 1159.08,-168.5 1079.08,-168.5"/>
<text text-anchor="middle" x="1119.08" y="-175.5" font-family="Helvetica,sans-Serif" font-size="10.00">boost/asio.hpp</text>
</g>
<!-- Node2&#45;&gt;Node19 -->
<g id="edge24" class="edge"><title>Node2&#45;&gt;Node19</title>
<path fill="none" stroke="midnightblue" d="M866.619,-224.444C921.835,-214.505 1012.53,-198.179 1068.87,-188.039"/>
<polygon fill="midnightblue" stroke="midnightblue" points="1069.75,-191.437 1078.97,-186.22 1068.51,-184.547 1069.75,-191.437"/>
</g>
<!-- Node2&#45;&gt;Node20 -->
<g id="edge25" class="edge"><title>Node2&#45;&gt;Node20</title>
<path fill="none" stroke="midnightblue" d="M880.222,-225.638C966.082,-215.226 1116.74,-196.665 1167,-187.793"/>
<polygon fill="midnightblue" stroke="midnightblue" points="1167.67,-191.227 1176.84,-185.905 1166.35,-184.353 1167.67,-191.227"/>
</g>
<!-- Node3&#45;&gt;Node4 -->
<g id="edge3" class="edge"><title>Node3&#45;&gt;Node4</title>
<path fill="none" stroke="midnightblue" d="M408.349,-175.126C459.144,-170.846 523.379,-159.694 574.083,-132 610.002,-112.382 644.672,-92.4622 626.083,-56 619.083,-42.2698 605.717,-31.7496 593.183,-24.3465"/>
<polygon fill="midnightblue" stroke="midnightblue" points="594.76,-21.2204 584.305,-19.5055 591.409,-27.366 594.76,-21.2204"/>
</g>
<!-- Node5 -->
<g id="node5" class="node"><title>Node5</title>
<polygon fill="none" stroke="#bfbfbf" points="14.0827,-112.5 14.0827,-131.5 66.0827,-131.5 66.0827,-112.5 14.0827,-112.5"/>
<text text-anchor="middle" x="40.0827" y="-119.5" font-family="Helvetica,sans-Serif" font-size="10.00">memory</text>
</g>
<!-- Node3&#45;&gt;Node5 -->
<g id="edge4" class="edge"><title>Node3&#45;&gt;Node5</title>
<path fill="none" stroke="midnightblue" d="M269.646,-168.45C221.534,-160.493 148.674,-147.807 76.5734,-132.207"/>
<polygon fill="midnightblue" stroke="midnightblue" points="76.9239,-128.701 66.4073,-129.986 75.4301,-135.54 76.9239,-128.701"/>
</g>
<!-- Node6 -->
<g id="node6" class="node"><title>Node6</title>
<polygon fill="none" stroke="#bfbfbf" points="84.0827,-112.5 84.0827,-131.5 128.083,-131.5 128.083,-112.5 84.0827,-112.5"/>
<text text-anchor="middle" x="106.083" y="-119.5" font-family="Helvetica,sans-Serif" font-size="10.00">vector</text>
</g>
<!-- Node3&#45;&gt;Node6 -->
<g id="edge5" class="edge"><title>Node3&#45;&gt;Node6</title>
<path fill="none" stroke="midnightblue" d="M285.55,-168.444C249.953,-160.214 194.746,-147.149 138.22,-132.219"/>
<polygon fill="midnightblue" stroke="midnightblue" points="138.964,-128.795 128.4,-129.61 137.166,-135.561 138.964,-128.795"/>
</g>
<!-- Node7 -->
<g id="node7" class="node"><title>Node7</title>
<polygon fill="none" stroke="#bfbfbf" points="146.583,-112.5 146.583,-131.5 229.583,-131.5 229.583,-112.5 146.583,-112.5"/>
<text text-anchor="middle" x="188.083" y="-119.5" font-family="Helvetica,sans-Serif" font-size="10.00">unordered_map</text>
</g>
<!-- Node3&#45;&gt;Node7 -->
<g id="edge6" class="edge"><title>Node3&#45;&gt;Node7</title>
<path fill="none" stroke="midnightblue" d="M301.692,-168.444C279.375,-159.517 244.18,-145.439 218.875,-135.317"/>
<polygon fill="midnightblue" stroke="midnightblue" points="219.958,-131.981 209.374,-131.516 217.359,-138.48 219.958,-131.981"/>
</g>
<!-- Node8 -->
<g id="node8" class="node"><title>Node8</title>
<g id="a_node8"><a xlink:href="QualityObject_8h_source.html" target="_top" xlink:title="QualityControl/QualityObject.h">
<polygon fill="none" stroke="black" points="416.583,-112.5 416.583,-131.5 565.583,-131.5 565.583,-112.5 416.583,-112.5"/>
<text text-anchor="middle" x="491.083" y="-119.5" font-family="Helvetica,sans-Serif" font-size="10.00">QualityControl/QualityObject.h</text>
</a>
</g>
</g>
<!-- Node3&#45;&gt;Node8 -->
<g id="edge7" class="edge"><title>Node3&#45;&gt;Node8</title>
<path fill="none" stroke="midnightblue" d="M349.703,-168.444C378.088,-159.32 423.219,-144.813 454.835,-134.651"/>
<polygon fill="midnightblue" stroke="midnightblue" points="456.138,-137.909 464.587,-131.516 453.996,-131.244 456.138,-137.909"/>
</g>
<!-- Node15 -->
<g id="node15" class="node"><title>Node15</title>
<g id="a_node15"><a xlink:href="MonitorObject_8h.html" target="_top" xlink:title="QualityControl/MonitorObject.h">
<polygon fill="none" stroke="black" points="247.583,-112.5 247.583,-131.5 398.583,-131.5 398.583,-112.5 247.583,-112.5"/>
<text text-anchor="middle" x="323.083" y="-119.5" font-family="Helvetica,sans-Serif" font-size="10.00">QualityControl/MonitorObject.h</text>
</a>
</g>
</g>
<!-- Node3&#45;&gt;Node15 -->
<g id="edge15" class="edge"><title>Node3&#45;&gt;Node15</title>
<path fill="none" stroke="midnightblue" d="M323.083,-168.083C323.083,-161.006 323.083,-150.861 323.083,-141.986"/>
<polygon fill="midnightblue" stroke="midnightblue" points="326.583,-141.751 323.083,-131.751 319.583,-141.751 326.583,-141.751"/>
</g>
<!-- Node9 -->
<g id="node9" class="node"><title>Node9</title>
<polygon fill="none" stroke="#bfbfbf" points="563.083,-56.5 563.083,-75.5 617.083,-75.5 617.083,-56.5 563.083,-56.5"/>
<text text-anchor="middle" x="590.083" y="-63.5" font-family="Helvetica,sans-Serif" font-size="10.00">iostream</text>
</g>
<!-- Node8&#45;&gt;Node9 -->
<g id="edge8" class="edge"><title>Node8&#45;&gt;Node9</title>
<path fill="none" stroke="midnightblue" d="M506.989,-112.324C522.721,-103.743 547.025,-90.486 565.292,-80.5224"/>
<polygon fill="midnightblue" stroke="midnightblue" points="567.113,-83.5157 574.216,-75.6545 563.761,-77.3704 567.113,-83.5157"/>
</g>
<!-- Node10 -->
<g id="node10" class="node"><title>Node10</title>
<polygon fill="none" stroke="#bfbfbf" points="370.583,-56.5 370.583,-75.5 405.583,-75.5 405.583,-56.5 370.583,-56.5"/>
<text text-anchor="middle" x="388.083" y="-63.5" font-family="Helvetica,sans-Serif" font-size="10.00">map</text>
</g>
<!-- Node8&#45;&gt;Node10 -->
<g id="edge9" class="edge"><title>Node8&#45;&gt;Node10</title>
<path fill="none" stroke="midnightblue" d="M474.534,-112.324C458.091,-103.703 432.648,-90.3643 413.614,-80.3855"/>
<polygon fill="midnightblue" stroke="midnightblue" points="415.072,-77.198 404.59,-75.6545 411.822,-83.3977 415.072,-77.198"/>
</g>
<!-- Node11 -->
<g id="node11" class="node"><title>Node11</title>
<polygon fill="none" stroke="#bfbfbf" points="293.583,-56.5 293.583,-75.5 352.583,-75.5 352.583,-56.5 293.583,-56.5"/>
<text text-anchor="middle" x="323.083" y="-63.5" font-family="Helvetica,sans-Serif" font-size="10.00">TObject.h</text>
</g>
<!-- Node8&#45;&gt;Node11 -->
<g id="edge10" class="edge"><title>Node8&#45;&gt;Node11</title>
<path fill="none" stroke="midnightblue" d="M464.463,-112.444C436.077,-103.32 390.946,-88.8133 359.33,-78.6509"/>
<polygon fill="midnightblue" stroke="midnightblue" points="360.17,-75.2445 349.578,-75.5164 358.028,-81.9087 360.17,-75.2445"/>
</g>
<!-- Node8&#45;&gt;Node12 -->
<g id="edge11" class="edge"><title>Node8&#45;&gt;Node12</title>
<path fill="none" stroke="midnightblue" d="M435.624,-112.444C373.416,-102.846 272.602,-87.2916 206.57,-77.1037"/>
<polygon fill="midnightblue" stroke="midnightblue" points="206.699,-73.5823 196.282,-75.5164 205.631,-80.5004 206.699,-73.5823"/>
</g>
<!-- Node13 -->
<g id="node13" class="node"><title>Node13</title>
<g id="a_node13"><a xlink:href="Quality_8h.html" target="_top" xlink:title="QualityControl/Quality.h">
<polygon fill="none" stroke="black" points="423.583,-56.5 423.583,-75.5 544.583,-75.5 544.583,-56.5 423.583,-56.5"/>
<text text-anchor="middle" x="484.083" y="-63.5" font-family="Helvetica,sans-Serif" font-size="10.00">QualityControl/Quality.h</text>
</a>
</g>
</g>
<!-- Node8&#45;&gt;Node13 -->
<g id="edge12" class="edge"><title>Node8&#45;&gt;Node13</title>
<path fill="none" stroke="midnightblue" d="M489.927,-112.083C488.999,-104.927 487.665,-94.6353 486.506,-85.6911"/>
<polygon fill="midnightblue" stroke="midnightblue" points="489.974,-85.2181 485.217,-75.7511 483.032,-86.1181 489.974,-85.2181"/>
</g>
<!-- Node13&#45;&gt;Node4 -->
<g id="edge14" class="edge"><title>Node13&#45;&gt;Node4</title>
<path fill="none" stroke="midnightblue" d="M496.936,-56.324C509.299,-47.979 528.213,-35.2122 542.82,-25.3524"/>
<polygon fill="midnightblue" stroke="midnightblue" points="544.931,-28.1503 551.261,-19.6545 541.015,-22.3483 544.931,-28.1503"/>
</g>
<!-- Node14 -->
<g id="node14" class="node"><title>Node14</title>
<polygon fill="none" stroke="#bfbfbf" points="374.083,-0.5 374.083,-19.5 430.083,-19.5 430.083,-0.5 374.083,-0.5"/>
<text text-anchor="middle" x="402.083" y="-7.5" font-family="Helvetica,sans-Serif" font-size="10.00">Rtypes.h</text>
</g>
<!-- Node13&#45;&gt;Node14 -->
<g id="edge13" class="edge"><title>Node13&#45;&gt;Node14</title>
<path fill="none" stroke="midnightblue" d="M470.908,-56.324C458.236,-47.979 438.849,-35.2122 423.877,-25.3524"/>
<polygon fill="midnightblue" stroke="midnightblue" points="425.501,-22.2313 415.225,-19.6545 421.652,-28.0776 425.501,-22.2313"/>
</g>
<!-- Node15&#45;&gt;Node4 -->
<g id="edge16" class="edge"><title>Node15&#45;&gt;Node4</title>
<path fill="none" stroke="midnightblue" d="M311.296,-112.416C294.814,-99.3926 268.548,-74.2305 284.083,-56 300.11,-37.1914 463.199,-20.208 532.836,-13.7543"/>
<polygon fill="midnightblue" stroke="midnightblue" points="533.533,-17.2053 543.173,-12.8103 532.896,-10.2343 533.533,-17.2053"/>
</g>
<!-- Node15&#45;&gt;Node10 -->
<g id="edge17" class="edge"><title>Node15&#45;&gt;Node10</title>
<path fill="none" stroke="midnightblue" d="M333.526,-112.324C343.229,-104.263 357.898,-92.0765 369.582,-82.3695"/>
<polygon fill="midnightblue" stroke="midnightblue" points="371.994,-84.9163 377.449,-75.8339 367.521,-79.532 371.994,-84.9163"/>
</g>
<!-- Node15&#45;&gt;Node11 -->
<g id="edge19" class="edge"><title>Node15&#45;&gt;Node11</title>
<path fill="none" stroke="midnightblue" d="M323.083,-112.083C323.083,-105.006 323.083,-94.8611 323.083,-85.9865"/>
<polygon fill="midnightblue" stroke="midnightblue" points="326.583,-85.751 323.083,-75.7511 319.583,-85.7511 326.583,-85.751"/>
</g>
<!-- Node15&#45;&gt;Node12 -->
<g id="edge20" class="edge"><title>Node15&#45;&gt;Node12</title>
<path fill="none" stroke="midnightblue" d="M294.244,-112.444C263.227,-103.241 213.754,-88.5617 179.464,-78.3879"/>
<polygon fill="midnightblue" stroke="midnightblue" points="180.369,-75.0055 169.786,-75.5164 178.378,-81.7164 180.369,-75.0055"/>
</g>
<!-- Node15&#45;&gt;Node14 -->
<g id="edge18" class="edge"><title>Node15&#45;&gt;Node14</title>
<path fill="none" stroke="midnightblue" d="M300.263,-112.496C273.126,-101.079 233.57,-79.4929 251.083,-56 276.9,-21.3675 328.321,-12.3383 363.937,-10.5035"/>
<polygon fill="midnightblue" stroke="midnightblue" points="364.11,-13.9997 373.982,-10.1528 363.866,-7.00399 364.11,-13.9997"/>
</g>
<!-- Node25&#45;&gt;Node3 -->
<g id="edge35" class="edge"><title>Node25&#45;&gt;Node3</title>
<path fill="none" stroke="midnightblue" d="M323.083,-224.083C323.083,-217.006 323.083,-206.861 323.083,-197.986"/>
<polygon fill="midnightblue" stroke="midnightblue" points="326.583,-197.751 323.083,-187.751 319.583,-197.751 326.583,-197.751"/>
</g>
<!-- Node25&#45;&gt;Node5 -->
<g id="edge34" class="edge"><title>Node25&#45;&gt;Node5</title>
<path fill="none" stroke="midnightblue" d="M300.876,-224.368C250.867,-204.93 129.291,-157.674 71.5416,-135.228"/>
<polygon fill="midnightblue" stroke="midnightblue" points="72.7748,-131.952 62.1861,-131.591 70.2388,-138.477 72.7748,-131.952"/>
</g>
<!-- Node27 -->
<g id="node27" class="node"><title>Node27</title>
<polygon fill="none" stroke="#bfbfbf" points="1376.08,-168.5 1376.08,-187.5 1506.08,-187.5 1506.08,-168.5 1376.08,-168.5"/>
<text text-anchor="middle" x="1441.08" y="-175.5" font-family="Helvetica,sans-Serif" font-size="10.00">InfoLogger/InfoLogger.hxx</text>
</g>
<!-- Node26&#45;&gt;Node27 -->
<g id="edge37" class="edge"><title>Node26&#45;&gt;Node27</title>
<path fill="none" stroke="midnightblue" d="M1441.08,-224.083C1441.08,-217.006 1441.08,-206.861 1441.08,-197.986"/>
<polygon fill="midnightblue" stroke="midnightblue" points="1444.58,-197.751 1441.08,-187.751 1437.58,-197.751 1444.58,-197.751"/>
</g>
</g>
</svg>
        <g id="navigator" transform="translate(0 0)" fill="#404254">
                <rect fill="#f2f5e9" fill-opacity="0.5" stroke="#606060" stroke-width=".5" x="0" y="0" width="60" height="60"/>
                <use id="zoomplus" xlink:href="#zoomPlus" x="17" y="9" onmousedown="handleZoom(evt,'in')"/>
                <use id="zoomminus" xlink:href="#zoomMin" x="42" y="9" onmousedown="handleZoom(evt,'out')"/>
                <use id="reset" xlink:href="#resetDef" x="30" y="36" onmousedown="handleReset()"/>
                <g id="arrowUp" xlink:href="#dirArrow" transform="translate(30 24)" onmousedown="handlePan(0,-1)">
                  <use xlink:href="#rim" fill="#404040">
                        <set attributeName="fill" to="#808080" begin="arrowUp.mouseover" end="arrowUp.mouseout"/>
                  </use>
                  <path fill="none" stroke="white" stroke-width="1.5" d="M0,-3.0v7 M-2.5,-0.5L0,-3.0L2.5,-0.5"/>
                </g>
                <g id="arrowRight" xlink:href="#dirArrow" transform="rotate(90) translate(36 -43)" onmousedown="handlePan(1,0)">
                  <use xlink:href="#rim" fill="#404040">
                        <set attributeName="fill" to="#808080" begin="arrowRight.mouseover" end="arrowRight.mouseout"/>
                  </use>
                  <path fill="none" stroke="white" stroke-width="1.5" d="M0,-3.0v7 M-2.5,-0.5L0,-3.0L2.5,-0.5"/>
                </g>
                <g id="arrowDown" xlink:href="#dirArrow" transform="rotate(180) translate(-30 -48)" onmousedown="handlePan(0,1)">
                  <use xlink:href="#rim" fill="#404040">
                        <set attributeName="fill" to="#808080" begin="arrowDown.mouseover" end="arrowDown.mouseout"/>
                  </use>
                  <path fill="none" stroke="white" stroke-width="1.5" d="M0,-3.0v7 M-2.5,-0.5L0,-3.0L2.5,-0.5"/>
                </g>
                <g id="arrowLeft" xlink:href="#dirArrow" transform="rotate(270) translate(-36 17)" onmousedown="handlePan(-1,0)">
                  <use xlink:href="#rim" fill="#404040">
                        <set attributeName="fill" to="#808080" begin="arrowLeft.mouseover" end="arrowLeft.mouseout"/>
                  </use>
                  <path fill="none" stroke="white" stroke-width="1.5" d="M0,-3.0v7 M-2.5,-0.5L0,-3.0L2.5,-0.5"/>
                </g>
        </g>
        <svg viewBox="0 0 15 15" width="100%" height="30px" preserveAspectRatio="xMaxYMin meet">
         <g id="arrow_out" transform="scale(0.3 0.3)">
          <a xlink:href="RepositoryBenchmark_8cxx__incl_org.svg" target="_base">
           <rect id="button" ry="5" rx="5" y="6" x="6" height="38" width="38"
                fill="#f2f5e9" fill-opacity="0.5" stroke="#606060" stroke-width="1.0"/>
           <path id="arrow"
             d="M 11.500037,31.436501 C 11.940474,20.09759 22.043105,11.32322 32.158766,21.979434 L 37.068811,17.246167 C 37.068811,17.246167 37.088388,32 37.088388,32 L 22.160133,31.978069 C 22.160133,31.978069 26.997745,27.140456 26.997745,27.140456 C 18.528582,18.264221 13.291696,25.230495 11.500037,31.436501 z"
             style="fill:#404040;"/>
          </a>
         </g>
        </svg>
</svg>
