<?xml version="1.0" encoding="UTF-8" standalone="no"?>
<!DOCTYPE svg PUBLIC "-//W3C//DTD SVG 1.1//EN"
 "http://www.w3.org/Graphics/SVG/1.1/DTD/svg11.dtd">
<!-- Generated by graphviz version 2.38.0 (20140413.2041)
 -->
<!-- Title: Framework/src/RepositoryBenchmark.h Pages: 1 -->
<!--zoomable 263 -->
<svg id="main" version="1.1" xmlns="http://www.w3.org/2000/svg" xmlns:xlink="http://www.w3.org/1999/xlink" xml:space="preserve" onload="init(evt)">
<style type="text/css"><![CDATA[
.edge:hover path { stroke: red; }
.edge:hover polygon { stroke: red; fill: red; }
]]></style>
<script type="text/javascript"><![CDATA[
var edges = document.getElementsByTagName('g');
if (edges && edges.length) {
  for (var i=0;i<edges.length;i++) {
    if (edges[i].id.substr(0,4)=='edge') {
      edges[i].setAttribute('class','edge');
    }
  }
}
]]></script>
        <defs>
                <circle id="rim" cx="0" cy="0" r="7"/>
                <circle id="rim2" cx="0" cy="0" r="3.5"/>
                <g id="zoomPlus">
                        <use xlink:href="#rim" fill="#404040">
                                <set attributeName="fill" to="#808080" begin="zoomplus.mouseover" end="zoomplus.mouseout"/>
                        </use>
                        <path d="M-4,0h8M0,-4v8" fill="none" stroke="white" stroke-width="1.5" pointer-events="none"/>
                </g>
                <g id="zoomMin">
                        <use xlink:href="#rim" fill="#404040">
                                <set attributeName="fill" to="#808080" begin="zoomminus.mouseover" end="zoomminus.mouseout"/>
                        </use>
                        <path d="M-4,0h8" fill="none" stroke="white" stroke-width="1.5" pointer-events="none"/>
                </g>
                <g id="dirArrow">
                        <path fill="none" stroke="white" stroke-width="1.5" d="M0,-3.0v7 M-2.5,-0.5L0,-3.0L2.5,-0.5"/>
                </g>
               <g id="resetDef">
                       <use xlink:href="#rim2" fill="#404040">
                               <set attributeName="fill" to="#808080" begin="reset.mouseover" end="reset.mouseout"/>
                       </use>
               </g>
        </defs>

<script type="text/javascript">
var viewWidth = 1279;
var viewHeight = 263;
var sectionId = 'dynsection-0';
</script>
<script xlink:href="svgpan.js"/>
<svg id="graph" class="graph">
<g id="viewport">
<title>Framework/src/RepositoryBenchmark.h</title>
<!-- Node1 -->
<g id="node1" class="node"><title>Node1</title>
<polygon fill="#bfbfbf" stroke="black" points="853,-224.5 853,-254.5 985,-254.5 985,-224.5 853,-224.5"/>
<text text-anchor="start" x="861" y="-242.5" font-family="Helvetica,sans-Serif" font-size="10.00">Framework/src/Repository</text>
<text text-anchor="middle" x="919" y="-231.5" font-family="Helvetica,sans-Serif" font-size="10.00">Benchmark.h</text>
</g>
<!-- Node2 -->
<g id="node2" class="node"><title>Node2</title>
<g id="a_node2"><a xlink:href="DatabaseInterface_8h.html" target="_top" xlink:title="QualityControl/DatabaseInterface.h">
<polygon fill="none" stroke="black" points="478,-168.5 478,-187.5 648,-187.5 648,-168.5 478,-168.5"/>
<text text-anchor="middle" x="563" y="-175.5" font-family="Helvetica,sans-Serif" font-size="10.00">QualityControl/DatabaseInterface.h</text>
</a>
</g>
</g>
<!-- Node1&#45;&gt;Node2 -->
<g id="edge1" class="edge"><title>Node1&#45;&gt;Node2</title>
<path fill="none" stroke="midnightblue" d="M852.873,-227.448C787.31,-216.49 687.694,-199.841 623.985,-189.193"/>
<polygon fill="midnightblue" stroke="midnightblue" points="624.52,-185.734 614.079,-187.537 623.366,-192.638 624.52,-185.734"/>
</g>
<!-- Node3 -->
<g id="node3" class="node"><title>Node3</title>
<polygon fill="none" stroke="#bfbfbf" points="523.5,-0.5 523.5,-19.5 564.5,-19.5 564.5,-0.5 523.5,-0.5"/>
<text text-anchor="middle" x="544" y="-7.5" font-family="Helvetica,sans-Serif" font-size="10.00">string</text>
</g>
<!-- Node1&#45;&gt;Node3 -->
<g id="edge25" class="edge"><title>Node1&#45;&gt;Node3</title>
<path fill="none" stroke="midnightblue" d="M852.857,-231.053C819.506,-224.403 780.254,-211.817 752,-188 723.126,-163.66 739.719,-139.653 714,-112 673.93,-68.917 611.318,-38.2519 574.306,-22.6875"/>
<polygon fill="midnightblue" stroke="midnightblue" points="575.165,-19.2573 564.585,-18.7003 572.509,-25.7336 575.165,-19.2573"/>
</g>
<!-- Node15 -->
<g id="node15" class="node"><title>Node15</title>
<polygon fill="none" stroke="#bfbfbf" points="761,-168.5 761,-187.5 879,-187.5 879,-168.5 761,-168.5"/>
<text text-anchor="middle" x="820" y="-175.5" font-family="Helvetica,sans-Serif" font-size="10.00">fairmq/FairMQDevice.h</text>
</g>
<!-- Node1&#45;&gt;Node15 -->
<g id="edge20" class="edge"><title>Node1&#45;&gt;Node15</title>
<path fill="none" stroke="midnightblue" d="M895.538,-224.399C879.669,-214.862 858.809,-202.325 843.032,-192.842"/>
<polygon fill="midnightblue" stroke="midnightblue" points="844.779,-189.809 834.405,-187.658 841.174,-195.809 844.779,-189.809"/>
</g>
<!-- Node16 -->
<g id="node16" class="node"><title>Node16</title>
<polygon fill="none" stroke="#bfbfbf" points="897,-168.5 897,-187.5 941,-187.5 941,-168.5 897,-168.5"/>
<text text-anchor="middle" x="919" y="-175.5" font-family="Helvetica,sans-Serif" font-size="10.00">TH1.h</text>
</g>
<!-- Node1&#45;&gt;Node16 -->
<g id="edge21" class="edge"><title>Node1&#45;&gt;Node16</title>
<path fill="none" stroke="midnightblue" d="M919,-224.399C919,-216.466 919,-206.458 919,-197.858"/>
<polygon fill="midnightblue" stroke="midnightblue" points="922.5,-197.658 919,-187.658 915.5,-197.658 922.5,-197.658"/>
</g>
<!-- Node17 -->
<g id="node17" class="node"><title>Node17</title>
<polygon fill="none" stroke="#bfbfbf" points="959.5,-168.5 959.5,-187.5 1110.5,-187.5 1110.5,-168.5 959.5,-168.5"/>
<text text-anchor="middle" x="1035" y="-175.5" font-family="Helvetica,sans-Serif" font-size="10.00">Monitoring/MonitoringFactory.h</text>
</g>
<!-- Node1&#45;&gt;Node17 -->
<g id="edge22" class="edge"><title>Node1&#45;&gt;Node17</title>
<path fill="none" stroke="midnightblue" d="M946.49,-224.399C965.432,-214.684 990.442,-201.855 1009.04,-192.314"/>
<polygon fill="midnightblue" stroke="midnightblue" points="1010.82,-195.336 1018.12,-187.658 1007.63,-189.108 1010.82,-195.336"/>
</g>
<!-- Node18 -->
<g id="node18" class="node"><title>Node18</title>
<polygon fill="none" stroke="#bfbfbf" points="1129,-168.5 1129,-187.5 1209,-187.5 1209,-168.5 1129,-168.5"/>
<text text-anchor="middle" x="1169" y="-175.5" font-family="Helvetica,sans-Serif" font-size="10.00">boost/asio.hpp</text>
</g>
<!-- Node1&#45;&gt;Node18 -->
<g id="edge23" class="edge"><title>Node1&#45;&gt;Node18</title>
<path fill="none" stroke="midnightblue" d="M977.93,-224.475C1022.38,-213.896 1082.47,-199.595 1123.31,-189.874"/>
<polygon fill="midnightblue" stroke="midnightblue" points="1124.34,-193.227 1133.26,-187.506 1122.72,-186.417 1124.34,-193.227"/>
</g>
<!-- Node19 -->
<g id="node19" class="node"><title>Node19</title>
<polygon fill="none" stroke="#bfbfbf" points="1227,-168.5 1227,-187.5 1271,-187.5 1271,-168.5 1227,-168.5"/>
<text text-anchor="middle" x="1249" y="-175.5" font-family="Helvetica,sans-Serif" font-size="10.00">thread</text>
</g>
<!-- Node1&#45;&gt;Node19 -->
<g id="edge24" class="edge"><title>Node1&#45;&gt;Node19</title>
<path fill="none" stroke="midnightblue" d="M985.049,-229.577C1043.66,-221.151 1131.75,-207.251 1216.9,-188.043"/>
<polygon fill="midnightblue" stroke="midnightblue" points="1217.76,-191.437 1226.73,-185.799 1216.2,-184.612 1217.76,-191.437"/>
</g>
<!-- Node2&#45;&gt;Node3 -->
<g id="edge2" class="edge"><title>Node2&#45;&gt;Node3</title>
<path fill="none" stroke="midnightblue" d="M561.978,-168.075C558.988,-141.945 550.205,-65.2106 546.126,-29.577"/>
<polygon fill="midnightblue" stroke="midnightblue" points="549.595,-29.1052 544.981,-19.5681 542.641,-29.9013 549.595,-29.1052"/>
</g>
<!-- Node4 -->
<g id="node4" class="node"><title>Node4</title>
<polygon fill="none" stroke="#bfbfbf" points="591,-112.5 591,-131.5 643,-131.5 643,-112.5 591,-112.5"/>
<text text-anchor="middle" x="617" y="-119.5" font-family="Helvetica,sans-Serif" font-size="10.00">memory</text>
</g>
<!-- Node2&#45;&gt;Node4 -->
<g id="edge3" class="edge"><title>Node2&#45;&gt;Node4</title>
<path fill="none" stroke="midnightblue" d="M571.917,-168.083C579.78,-160.22 591.431,-148.569 600.919,-139.081"/>
<polygon fill="midnightblue" stroke="midnightblue" points="603.653,-141.297 608.249,-131.751 598.703,-136.347 603.653,-141.297"/>
</g>
<!-- Node5 -->
<g id="node5" class="node"><title>Node5</title>
<polygon fill="none" stroke="#bfbfbf" points="661,-112.5 661,-131.5 705,-131.5 705,-112.5 661,-112.5"/>
<text text-anchor="middle" x="683" y="-119.5" font-family="Helvetica,sans-Serif" font-size="10.00">vector</text>
</g>
<!-- Node2&#45;&gt;Node5 -->
<g id="edge4" class="edge"><title>Node2&#45;&gt;Node5</title>
<path fill="none" stroke="midnightblue" d="M582.014,-168.444C601.588,-159.636 632.308,-145.812 654.729,-135.722"/>
<polygon fill="midnightblue" stroke="midnightblue" points="656.392,-138.812 664.075,-131.516 653.519,-132.428 656.392,-138.812"/>
</g>
<!-- Node6 -->
<g id="node6" class="node"><title>Node6</title>
<polygon fill="none" stroke="#bfbfbf" points="115.5,-112.5 115.5,-131.5 198.5,-131.5 198.5,-112.5 115.5,-112.5"/>
<text text-anchor="middle" x="157" y="-119.5" font-family="Helvetica,sans-Serif" font-size="10.00">unordered_map</text>
</g>
<!-- Node2&#45;&gt;Node6 -->
<g id="edge5" class="edge"><title>Node2&#45;&gt;Node6</title>
<path fill="none" stroke="midnightblue" d="M486.45,-168.497C416.574,-160.467 310.19,-147.571 208.823,-132.219"/>
<polygon fill="midnightblue" stroke="midnightblue" points="209.128,-128.725 198.715,-130.677 208.073,-135.645 209.128,-128.725"/>
</g>
<!-- Node7 -->
<g id="node7" class="node"><title>Node7</title>
<g id="a_node7"><a xlink:href="QualityObject_8h_source.html" target="_top" xlink:title="QualityControl/QualityObject.h">
<polygon fill="none" stroke="black" points="216.5,-112.5 216.5,-131.5 365.5,-131.5 365.5,-112.5 216.5,-112.5"/>
<text text-anchor="middle" x="291" y="-119.5" font-family="Helvetica,sans-Serif" font-size="10.00">QualityControl/QualityObject.h</text>
</a>
</g>
</g>
<!-- Node2&#45;&gt;Node7 -->
<g id="edge6" class="edge"><title>Node2&#45;&gt;Node7</title>
<path fill="none" stroke="midnightblue" d="M519.901,-168.444C472.153,-158.964 395.139,-143.675 343.806,-133.483"/>
<polygon fill="midnightblue" stroke="midnightblue" points="344.388,-130.031 333.898,-131.516 343.025,-136.897 344.388,-130.031"/>
</g>
<!-- Node14 -->
<g id="node14" class="node"><title>Node14</title>
<g id="a_node14"><a xlink:href="MonitorObject_8h.html" target="_top" xlink:title="QualityControl/MonitorObject.h">
<polygon fill="none" stroke="black" points="383.5,-112.5 383.5,-131.5 534.5,-131.5 534.5,-112.5 383.5,-112.5"/>
<text text-anchor="middle" x="459" y="-119.5" font-family="Helvetica,sans-Serif" font-size="10.00">QualityControl/MonitorObject.h</text>
</a>
</g>
</g>
<!-- Node2&#45;&gt;Node14 -->
<g id="edge14" class="edge"><title>Node2&#45;&gt;Node14</title>
<path fill="none" stroke="midnightblue" d="M546.291,-168.324C529.688,-159.703 503.998,-146.364 484.78,-136.386"/>
<polygon fill="midnightblue" stroke="midnightblue" points="486.156,-133.156 475.668,-131.655 482.93,-139.369 486.156,-133.156"/>
</g>
<!-- Node8 -->
<g id="node8" class="node"><title>Node8</title>
<polygon fill="none" stroke="#bfbfbf" points="0,-56.5 0,-75.5 54,-75.5 54,-56.5 0,-56.5"/>
<text text-anchor="middle" x="27" y="-63.5" font-family="Helvetica,sans-Serif" font-size="10.00">iostream</text>
</g>
<!-- Node7&#45;&gt;Node8 -->
<g id="edge7" class="edge"><title>Node7&#45;&gt;Node8</title>
<path fill="none" stroke="midnightblue" d="M244.133,-112.461C200.104,-104.279 132.151,-91.2447 64.1264,-76.1667"/>
<polygon fill="midnightblue" stroke="midnightblue" points="64.6145,-72.6896 54.0923,-73.9276 63.0899,-79.5216 64.6145,-72.6896"/>
</g>
<!-- Node9 -->
<g id="node9" class="node"><title>Node9</title>
<polygon fill="none" stroke="#bfbfbf" points="346.5,-56.5 346.5,-75.5 381.5,-75.5 381.5,-56.5 346.5,-56.5"/>
<text text-anchor="middle" x="364" y="-63.5" font-family="Helvetica,sans-Serif" font-size="10.00">map</text>
</g>
<!-- Node7&#45;&gt;Node9 -->
<g id="edge8" class="edge"><title>Node7&#45;&gt;Node9</title>
<path fill="none" stroke="midnightblue" d="M302.729,-112.324C313.837,-104.107 330.742,-91.6017 343.983,-81.8069"/>
<polygon fill="midnightblue" stroke="midnightblue" points="346.1,-84.5948 352.058,-75.8339 341.937,-78.9671 346.1,-84.5948"/>
</g>
<!-- Node10 -->
<g id="node10" class="node"><title>Node10</title>
<polygon fill="none" stroke="#bfbfbf" points="399.5,-56.5 399.5,-75.5 458.5,-75.5 458.5,-56.5 399.5,-56.5"/>
<text text-anchor="middle" x="429" y="-63.5" font-family="Helvetica,sans-Serif" font-size="10.00">TObject.h</text>
</g>
<!-- Node7&#45;&gt;Node10 -->
<g id="edge9" class="edge"><title>Node7&#45;&gt;Node10</title>
<path fill="none" stroke="midnightblue" d="M312.867,-112.444C335.779,-103.478 371.975,-89.314 397.866,-79.1827"/>
<polygon fill="midnightblue" stroke="midnightblue" points="399.199,-82.4198 407.236,-75.5164 396.648,-75.9011 399.199,-82.4198"/>
</g>
<!-- Node11 -->
<g id="node11" class="node"><title>Node11</title>
<polygon fill="none" stroke="#bfbfbf" points="212,-56.5 212,-75.5 328,-75.5 328,-56.5 212,-56.5"/>
<text text-anchor="middle" x="270" y="-63.5" font-family="Helvetica,sans-Serif" font-size="10.00">Common/Exceptions.h</text>
</g>
<!-- Node7&#45;&gt;Node11 -->
<g id="edge10" class="edge"><title>Node7&#45;&gt;Node11</title>
<path fill="none" stroke="midnightblue" d="M287.532,-112.083C284.688,-104.77 280.571,-94.1814 277.04,-85.1034"/>
<polygon fill="midnightblue" stroke="midnightblue" points="280.29,-83.8025 273.403,-75.7511 273.766,-86.3397 280.29,-83.8025"/>
</g>
<!-- Node12 -->
<g id="node12" class="node"><title>Node12</title>
<g id="a_node12"><a xlink:href="Quality_8h.html" target="_top" xlink:title="QualityControl/Quality.h">
<polygon fill="none" stroke="black" points="72.5,-56.5 72.5,-75.5 193.5,-75.5 193.5,-56.5 72.5,-56.5"/>
<text text-anchor="middle" x="133" y="-63.5" font-family="Helvetica,sans-Serif" font-size="10.00">QualityControl/Quality.h</text>
</a>
</g>
</g>
<!-- Node7&#45;&gt;Node12 -->
<g id="edge11" class="edge"><title>Node7&#45;&gt;Node12</title>
<path fill="none" stroke="midnightblue" d="M265.964,-112.444C239.384,-103.359 197.191,-88.9388 167.477,-78.7831"/>
<polygon fill="midnightblue" stroke="midnightblue" points="168.513,-75.4386 157.918,-75.5164 166.249,-82.0625 168.513,-75.4386"/>
</g>
<!-- Node12&#45;&gt;Node3 -->
<g id="edge13" class="edge"><title>Node12&#45;&gt;Node3</title>
<path fill="none" stroke="midnightblue" d="M193.644,-57.0321C282.666,-45.3359 445.475,-23.9448 513.188,-15.0483"/>
<polygon fill="midnightblue" stroke="midnightblue" points="513.754,-18.5041 523.213,-13.7311 512.842,-11.5637 513.754,-18.5041"/>
</g>
<!-- Node13 -->
<g id="node13" class="node"><title>Node13</title>
<polygon fill="none" stroke="#bfbfbf" points="287,-0.5 287,-19.5 343,-19.5 343,-0.5 287,-0.5"/>
<text text-anchor="middle" x="315" y="-7.5" font-family="Helvetica,sans-Serif" font-size="10.00">Rtypes.h</text>
</g>
<!-- Node12&#45;&gt;Node13 -->
<g id="edge12" class="edge"><title>Node12&#45;&gt;Node13</title>
<path fill="none" stroke="midnightblue" d="M161.838,-56.4435C193.038,-47.1865 242.912,-32.3888 277.222,-22.2089"/>
<polygon fill="midnightblue" stroke="midnightblue" points="278.303,-25.539 286.895,-19.339 276.312,-18.8281 278.303,-25.539"/>
</g>
<!-- Node14&#45;&gt;Node3 -->
<g id="edge15" class="edge"><title>Node14&#45;&gt;Node3</title>
<path fill="none" stroke="midnightblue" d="M467.823,-112.426C476.654,-103.648 490.413,-89.4268 501,-76 513.135,-60.6104 525.303,-41.8275 533.583,-28.4176"/>
<polygon fill="midnightblue" stroke="midnightblue" points="536.662,-30.0907 538.868,-19.7281 530.681,-26.453 536.662,-30.0907"/>
</g>
<!-- Node14&#45;&gt;Node9 -->
<g id="edge16" class="edge"><title>Node14&#45;&gt;Node9</title>
<path fill="none" stroke="midnightblue" d="M443.737,-112.324C428.779,-103.822 405.745,-90.7288 388.273,-80.7975"/>
<polygon fill="midnightblue" stroke="midnightblue" points="389.649,-77.5534 379.226,-75.6545 386.19,-83.639 389.649,-77.5534"/>
</g>
<!-- Node14&#45;&gt;Node10 -->
<g id="edge18" class="edge"><title>Node14&#45;&gt;Node10</title>
<path fill="none" stroke="midnightblue" d="M454.046,-112.083C449.896,-104.613 443.847,-93.7244 438.733,-84.5199"/>
<polygon fill="midnightblue" stroke="midnightblue" points="441.778,-82.7929 433.862,-75.7511 435.659,-86.1924 441.778,-82.7929"/>
</g>
<!-- Node14&#45;&gt;Node11 -->
<g id="edge19" class="edge"><title>Node14&#45;&gt;Node11</title>
<path fill="none" stroke="midnightblue" d="M429.052,-112.444C396.842,-103.241 345.466,-88.5617 309.858,-78.3879"/>
<polygon fill="midnightblue" stroke="midnightblue" points="310.384,-74.8984 299.808,-75.5164 308.461,-81.629 310.384,-74.8984"/>
</g>
<!-- Node14&#45;&gt;Node13 -->
<g id="edge17" class="edge"><title>Node14&#45;&gt;Node13</title>
<path fill="none" stroke="midnightblue" d="M463.715,-112.45C470.415,-99.02 480.558,-72.7838 468,-56 454.199,-37.5557 393.698,-24.0766 353.037,-16.9006"/>
<polygon fill="midnightblue" stroke="midnightblue" points="353.614,-13.4486 343.168,-15.2128 352.434,-20.3485 353.614,-13.4486"/>
</g>
</g>
</svg>
        <g id="navigator" transform="translate(0 0)" fill="#404254">
                <rect fill="#f2f5e9" fill-opacity="0.5" stroke="#606060" stroke-width=".5" x="0" y="0" width="60" height="60"/>
                <use id="zoomplus" xlink:href="#zoomPlus" x="17" y="9" onmousedown="handleZoom(evt,'in')"/>
                <use id="zoomminus" xlink:href="#zoomMin" x="42" y="9" onmousedown="handleZoom(evt,'out')"/>
                <use id="reset" xlink:href="#resetDef" x="30" y="36" onmousedown="handleReset()"/>
                <g id="arrowUp" xlink:href="#dirArrow" transform="translate(30 24)" onmousedown="handlePan(0,-1)">
                  <use xlink:href="#rim" fill="#404040">
                        <set attributeName="fill" to="#808080" begin="arrowUp.mouseover" end="arrowUp.mouseout"/>
                  </use>
                  <path fill="none" stroke="white" stroke-width="1.5" d="M0,-3.0v7 M-2.5,-0.5L0,-3.0L2.5,-0.5"/>
                </g>
                <g id="arrowRight" xlink:href="#dirArrow" transform="rotate(90) translate(36 -43)" onmousedown="handlePan(1,0)">
                  <use xlink:href="#rim" fill="#404040">
                        <set attributeName="fill" to="#808080" begin="arrowRight.mouseover" end="arrowRight.mouseout"/>
                  </use>
                  <path fill="none" stroke="white" stroke-width="1.5" d="M0,-3.0v7 M-2.5,-0.5L0,-3.0L2.5,-0.5"/>
                </g>
                <g id="arrowDown" xlink:href="#dirArrow" transform="rotate(180) translate(-30 -48)" onmousedown="handlePan(0,1)">
                  <use xlink:href="#rim" fill="#404040">
                        <set attributeName="fill" to="#808080" begin="arrowDown.mouseover" end="arrowDown.mouseout"/>
                  </use>
                  <path fill="none" stroke="white" stroke-width="1.5" d="M0,-3.0v7 M-2.5,-0.5L0,-3.0L2.5,-0.5"/>
                </g>
                <g id="arrowLeft" xlink:href="#dirArrow" transform="rotate(270) translate(-36 17)" onmousedown="handlePan(-1,0)">
                  <use xlink:href="#rim" fill="#404040">
                        <set attributeName="fill" to="#808080" begin="arrowLeft.mouseover" end="arrowLeft.mouseout"/>
                  </use>
                  <path fill="none" stroke="white" stroke-width="1.5" d="M0,-3.0v7 M-2.5,-0.5L0,-3.0L2.5,-0.5"/>
                </g>
        </g>
        <svg viewBox="0 0 15 15" width="100%" height="30px" preserveAspectRatio="xMaxYMin meet">
         <g id="arrow_out" transform="scale(0.3 0.3)">
          <a xlink:href="RepositoryBenchmark_8h__incl_org.svg" target="_base">
           <rect id="button" ry="5" rx="5" y="6" x="6" height="38" width="38"
                fill="#f2f5e9" fill-opacity="0.5" stroke="#606060" stroke-width="1.0"/>
           <path id="arrow"
             d="M 11.500037,31.436501 C 11.940474,20.09759 22.043105,11.32322 32.158766,21.979434 L 37.068811,17.246167 C 37.068811,17.246167 37.088388,32 37.088388,32 L 22.160133,31.978069 C 22.160133,31.978069 26.997745,27.140456 26.997745,27.140456 C 18.528582,18.264221 13.291696,25.230495 11.500037,31.436501 z"
             style="fill:#404040;"/>
          </a>
         </g>
        </svg>
</svg>
