<?xml version="1.0" encoding="UTF-8" standalone="no"?>
<!DOCTYPE svg PUBLIC "-//W3C//DTD SVG 1.1//EN"
 "http://www.w3.org/Graphics/SVG/1.1/DTD/svg11.dtd">
<!-- Generated by graphviz version 2.38.0 (20140413.2041)
 -->
<!-- Title: Framework/src/RootClassFactory.h Pages: 1 -->
<svg width="732pt" height="140pt"
 viewBox="0.00 0.00 732.00 140.00" xmlns="http://www.w3.org/2000/svg" xmlns:xlink="http://www.w3.org/1999/xlink">
<g id="graph0" class="graph" transform="scale(1 1) rotate(0) translate(4 136)">
<title>Framework/src/RootClassFactory.h</title>
<!-- Node1 -->
<g id="node1" class="node"><title>Node1</title>
<polygon fill="#bfbfbf" stroke="black" points="211,-112.5 211,-131.5 384,-131.5 384,-112.5 211,-112.5"/>
<text text-anchor="middle" x="297.5" y="-119.5" font-family="Helvetica,sans-Serif" font-size="10.00">Framework/src/RootClassFactory.h</text>
</g>
<!-- Node2 -->
<g id="node2" class="node"><title>Node2</title>
<polygon fill="none" stroke="#bfbfbf" points="0,-56.5 0,-75.5 41,-75.5 41,-56.5 0,-56.5"/>
<text text-anchor="middle" x="20.5" y="-63.5" font-family="Helvetica,sans-Serif" font-size="10.00">string</text>
</g>
<!-- Node1&#45;&gt;Node2 -->
<g id="edge1" class="edge"><title>Node1&#45;&gt;Node2</title>
<path fill="none" stroke="midnightblue" d="M240.718,-112.497C192.671,-104.885 121.845,-92.6887 51.0601,-75.9003"/>
<polygon fill="midnightblue" stroke="midnightblue" points="51.6158,-72.4343 41.0748,-73.5009 49.9802,-79.2406 51.6158,-72.4343"/>
</g>
<!-- Node3 -->
<g id="node3" class="node"><title>Node3</title>
<polygon fill="none" stroke="#bfbfbf" points="59.5,-56.5 59.5,-75.5 175.5,-75.5 175.5,-56.5 59.5,-56.5"/>
<text text-anchor="middle" x="117.5" y="-63.5" font-family="Helvetica,sans-Serif" font-size="10.00">Common/Exceptions.h</text>
</g>
<!-- Node1&#45;&gt;Node3 -->
<g id="edge2" class="edge"><title>Node1&#45;&gt;Node3</title>
<path fill="none" stroke="midnightblue" d="M268.978,-112.444C238.434,-103.28 189.792,-88.6876 155.897,-78.5192"/>
<polygon fill="midnightblue" stroke="midnightblue" points="156.472,-75.0376 145.888,-75.5164 154.461,-81.7424 156.472,-75.0376"/>
</g>
<!-- Node4 -->
<g id="node4" class="node"><title>Node4</title>
<polygon fill="none" stroke="#bfbfbf" points="193.5,-56.5 193.5,-75.5 249.5,-75.5 249.5,-56.5 193.5,-56.5"/>
<text text-anchor="middle" x="221.5" y="-63.5" font-family="Helvetica,sans-Serif" font-size="10.00">TClass.h</text>
</g>
<!-- Node1&#45;&gt;Node4 -->
<g id="edge3" class="edge"><title>Node1&#45;&gt;Node4</title>
<path fill="none" stroke="midnightblue" d="M285.289,-112.324C273.724,-104.107 256.125,-91.6017 242.339,-81.8069"/>
<polygon fill="midnightblue" stroke="midnightblue" points="244.112,-78.7729 233.933,-75.8339 240.057,-84.4791 244.112,-78.7729"/>
</g>
<!-- Node5 -->
<g id="node5" class="node"><title>Node5</title>
<polygon fill="none" stroke="#bfbfbf" points="268,-56.5 268,-75.5 327,-75.5 327,-56.5 268,-56.5"/>
<text text-anchor="middle" x="297.5" y="-63.5" font-family="Helvetica,sans-Serif" font-size="10.00">TROOT.h</text>
</g>
<!-- Node1&#45;&gt;Node5 -->
<g id="edge4" class="edge"><title>Node1&#45;&gt;Node5</title>
<path fill="none" stroke="midnightblue" d="M297.5,-112.083C297.5,-105.006 297.5,-94.8611 297.5,-85.9865"/>
<polygon fill="midnightblue" stroke="midnightblue" points="301,-85.751 297.5,-75.7511 294,-85.7511 301,-85.751"/>
</g>
<!-- Node6 -->
<g id="node6" class="node"><title>Node6</title>
<polygon fill="none" stroke="#bfbfbf" points="345,-56.5 345,-75.5 410,-75.5 410,-56.5 345,-56.5"/>
<text text-anchor="middle" x="377.5" y="-63.5" font-family="Helvetica,sans-Serif" font-size="10.00">TSystem.h</text>
</g>
<!-- Node1&#45;&gt;Node6 -->
<g id="edge5" class="edge"><title>Node1&#45;&gt;Node6</title>
<path fill="none" stroke="midnightblue" d="M310.353,-112.324C322.716,-103.979 341.63,-91.2122 356.237,-81.3524"/>
<polygon fill="midnightblue" stroke="midnightblue" points="358.348,-84.1503 364.679,-75.6545 354.432,-78.3483 358.348,-84.1503"/>
</g>
<!-- Node7 -->
<g id="node7" class="node"><title>Node7</title>
<polygon fill="none" stroke="#bfbfbf" points="428,-56.5 428,-75.5 557,-75.5 557,-56.5 428,-56.5"/>
<text text-anchor="middle" x="492.5" y="-63.5" font-family="Helvetica,sans-Serif" font-size="10.00">boost/filesystem/path.hpp</text>
</g>
<!-- Node1&#45;&gt;Node7 -->
<g id="edge6" class="edge"><title>Node1&#45;&gt;Node7</title>
<path fill="none" stroke="midnightblue" d="M328.398,-112.444C361.774,-103.201 415.094,-88.4356 451.849,-78.2572"/>
<polygon fill="midnightblue" stroke="midnightblue" points="453.043,-81.5583 461.746,-75.5164 451.175,-74.8122 453.043,-81.5583"/>
</g>
<!-- Node8 -->
<g id="node8" class="node"><title>Node8</title>
<g id="a_node8"><a xlink:href="QcInfoLogger_8h.html" target="_top" xlink:title="QualityControl/QcInfoLogger.h">
<polygon fill="none" stroke="black" points="575,-56.5 575,-75.5 724,-75.5 724,-56.5 575,-56.5"/>
<text text-anchor="middle" x="649.5" y="-63.5" font-family="Helvetica,sans-Serif" font-size="10.00">QualityControl/QcInfoLogger.h</text>
</a>
</g>
</g>
<!-- Node1&#45;&gt;Node8 -->
<g id="edge7" class="edge"><title>Node1&#45;&gt;Node8</title>
<path fill="none" stroke="midnightblue" d="M353.275,-112.444C415.968,-102.826 517.646,-87.2275 584.048,-77.0409"/>
<polygon fill="midnightblue" stroke="midnightblue" points="584.632,-80.4924 593.986,-75.5164 583.57,-73.5733 584.632,-80.4924"/>
</g>
<!-- Node9 -->
<g id="node9" class="node"><title>Node9</title>
<polygon fill="none" stroke="#bfbfbf" points="584.5,-0.5 584.5,-19.5 714.5,-19.5 714.5,-0.5 584.5,-0.5"/>
<text text-anchor="middle" x="649.5" y="-7.5" font-family="Helvetica,sans-Serif" font-size="10.00">InfoLogger/InfoLogger.hxx</text>
</g>
<!-- Node8&#45;&gt;Node9 -->
<g id="edge8" class="edge"><title>Node8&#45;&gt;Node9</title>
<path fill="none" stroke="midnightblue" d="M649.5,-56.083C649.5,-49.0059 649.5,-38.8611 649.5,-29.9865"/>
<polygon fill="midnightblue" stroke="midnightblue" points="653,-29.751 649.5,-19.7511 646,-29.7511 653,-29.751"/>
</g>
</g>
</svg>
