<?xml version="1.0" encoding="UTF-8" standalone="no"?>
<!DOCTYPE svg PUBLIC "-//W3C//DTD SVG 1.1//EN"
 "http://www.w3.org/Graphics/SVG/1.1/DTD/svg11.dtd">
<!-- Generated by graphviz version 2.38.0 (20140413.2041)
 -->
<!-- Title: Framework/src/runDataProducer.cxx Pages: 1 -->
<svg width="579pt" height="140pt"
 viewBox="0.00 0.00 579.00 140.00" xmlns="http://www.w3.org/2000/svg" xmlns:xlink="http://www.w3.org/1999/xlink">
<g id="graph0" class="graph" transform="scale(1 1) rotate(0) translate(4 136)">
<title>Framework/src/runDataProducer.cxx</title>
<!-- Node1 -->
<g id="node1" class="node"><title>Node1</title>
<polygon fill="#bfbfbf" stroke="black" points="139.5,-112.5 139.5,-131.5 316.5,-131.5 316.5,-112.5 139.5,-112.5"/>
<text text-anchor="middle" x="228" y="-119.5" font-family="Helvetica,sans-Serif" font-size="10.00">Framework/src/runDataProducer.cxx</text>
</g>
<!-- Node2 -->
<g id="node2" class="node"><title>Node2</title>
<polygon fill="none" stroke="#bfbfbf" points="-3.55271e-15,-56.5 -3.55271e-15,-75.5 44,-75.5 44,-56.5 -3.55271e-15,-56.5"/>
<text text-anchor="middle" x="22" y="-63.5" font-family="Helvetica,sans-Serif" font-size="10.00">vector</text>
</g>
<!-- Node1&#45;&gt;Node2 -->
<g id="edge1" class="edge"><title>Node1&#45;&gt;Node2</title>
<path fill="none" stroke="midnightblue" d="M193.384,-112.434C160.023,-104.104 107.892,-90.894 54.0422,-76.2281"/>
<polygon fill="midnightblue" stroke="midnightblue" points="54.8969,-72.8334 44.3278,-73.5715 53.0503,-79.5855 54.8969,-72.8334"/>
</g>
<!-- Node3 -->
<g id="node3" class="node"><title>Node3</title>
<polygon fill="none" stroke="#bfbfbf" points="62,-56.5 62,-75.5 218,-75.5 218,-56.5 62,-56.5"/>
<text text-anchor="middle" x="140" y="-63.5" font-family="Helvetica,sans-Serif" font-size="10.00">Framework/ConfigParamSpec.h</text>
</g>
<!-- Node1&#45;&gt;Node3 -->
<g id="edge2" class="edge"><title>Node1&#45;&gt;Node3</title>
<path fill="none" stroke="midnightblue" d="M213.861,-112.324C200.134,-103.9 179.064,-90.9709 162.936,-81.0741"/>
<polygon fill="midnightblue" stroke="midnightblue" points="164.457,-77.9016 154.104,-75.6545 160.796,-83.8678 164.457,-77.9016"/>
</g>
<!-- Node4 -->
<g id="node4" class="node"><title>Node4</title>
<polygon fill="none" stroke="#bfbfbf" points="236,-56.5 236,-75.5 396,-75.5 396,-56.5 236,-56.5"/>
<text text-anchor="middle" x="316" y="-63.5" font-family="Helvetica,sans-Serif" font-size="10.00">Framework/runDataProcessing.h</text>
</g>
<!-- Node1&#45;&gt;Node4 -->
<g id="edge3" class="edge"><title>Node1&#45;&gt;Node4</title>
<path fill="none" stroke="midnightblue" d="M242.139,-112.324C255.866,-103.9 276.936,-90.9709 293.064,-81.0741"/>
<polygon fill="midnightblue" stroke="midnightblue" points="295.204,-83.8678 301.896,-75.6545 291.543,-77.9016 295.204,-83.8678"/>
</g>
<!-- Node5 -->
<g id="node5" class="node"><title>Node5</title>
<g id="a_node5"><a xlink:href="DataProducer_8h.html" target="_top" xlink:title="QualityControl/DataProducer.h">
<polygon fill="none" stroke="black" points="414,-56.5 414,-75.5 564,-75.5 564,-56.5 414,-56.5"/>
<text text-anchor="middle" x="489" y="-63.5" font-family="Helvetica,sans-Serif" font-size="10.00">QualityControl/DataProducer.h</text>
</a>
</g>
</g>
<!-- Node1&#45;&gt;Node5 -->
<g id="edge4" class="edge"><title>Node1&#45;&gt;Node5</title>
<path fill="none" stroke="midnightblue" d="M269.356,-112.444C315.078,-102.984 388.764,-87.7384 438.022,-77.5472"/>
<polygon fill="midnightblue" stroke="midnightblue" points="438.754,-80.97 447.837,-75.5164 437.336,-74.1152 438.754,-80.97"/>
</g>
<!-- Node6 -->
<g id="node6" class="node"><title>Node6</title>
<polygon fill="none" stroke="#bfbfbf" points="407,-0.5 407,-19.5 571,-19.5 571,-0.5 407,-0.5"/>
<text text-anchor="middle" x="489" y="-7.5" font-family="Helvetica,sans-Serif" font-size="10.00">Framework/DataProcessorSpec.h</text>
</g>
<!-- Node5&#45;&gt;Node6 -->
<g id="edge5" class="edge"><title>Node5&#45;&gt;Node6</title>
<path fill="none" stroke="midnightblue" d="M489,-56.083C489,-49.0059 489,-38.8611 489,-29.9865"/>
<polygon fill="midnightblue" stroke="midnightblue" points="492.5,-29.751 489,-19.7511 485.5,-29.7511 492.5,-29.751"/>
</g>
</g>
</svg>
