<?xml version="1.0" encoding="UTF-8" standalone="no"?>
<!DOCTYPE svg PUBLIC "-//W3C//DTD SVG 1.1//EN"
 "http://www.w3.org/Graphics/SVG/1.1/DTD/svg11.dtd">
<!-- Generated by graphviz version 2.38.0 (20140413.2041)
 -->
<!-- Title: Framework/src/runFileReader.cxx Pages: 1 -->
<svg width="896pt" height="84pt"
 viewBox="0.00 0.00 895.50 84.00" xmlns="http://www.w3.org/2000/svg" xmlns:xlink="http://www.w3.org/1999/xlink">
<g id="graph0" class="graph" transform="scale(1 1) rotate(0) translate(4 80)">
<title>Framework/src/runFileReader.cxx</title>
<!-- Node1 -->
<g id="node1" class="node"><title>Node1</title>
<polygon fill="#bfbfbf" stroke="black" points="216.5,-56.5 216.5,-75.5 380.5,-75.5 380.5,-56.5 216.5,-56.5"/>
<text text-anchor="middle" x="298.5" y="-63.5" font-family="Helvetica,sans-Serif" font-size="10.00">Framework/src/runFileReader.cxx</text>
</g>
<!-- Node2 -->
<g id="node2" class="node"><title>Node2</title>
<polygon fill="none" stroke="#bfbfbf" points="0,-0.5 0,-19.5 49,-19.5 49,-0.5 0,-0.5"/>
<text text-anchor="middle" x="24.5" y="-7.5" font-family="Helvetica,sans-Serif" font-size="10.00">random</text>
</g>
<!-- Node1&#45;&gt;Node2 -->
<g id="edge1" class="edge"><title>Node1&#45;&gt;Node2</title>
<path fill="none" stroke="midnightblue" d="M246.777,-56.4324C200.209,-48.4639 129.695,-35.7696 59.2654,-20.0378"/>
<polygon fill="midnightblue" stroke="midnightblue" points="59.8555,-16.583 49.3305,-17.798 58.3159,-23.4116 59.8555,-16.583"/>
</g>
<!-- Node3 -->
<g id="node3" class="node"><title>Node3</title>
<polygon fill="none" stroke="#bfbfbf" points="67.5,-0.5 67.5,-19.5 121.5,-19.5 121.5,-0.5 67.5,-0.5"/>
<text text-anchor="middle" x="94.5" y="-7.5" font-family="Helvetica,sans-Serif" font-size="10.00">iostream</text>
</g>
<!-- Node1&#45;&gt;Node3 -->
<g id="edge2" class="edge"><title>Node1&#45;&gt;Node3</title>
<path fill="none" stroke="midnightblue" d="M266.176,-56.4435C229.564,-46.7521 170.01,-30.9879 131.55,-20.8075"/>
<polygon fill="midnightblue" stroke="midnightblue" points="132.339,-17.3958 121.777,-18.2203 130.548,-24.1628 132.339,-17.3958"/>
</g>
<!-- Node4 -->
<g id="node4" class="node"><title>Node4</title>
<polygon fill="none" stroke="#bfbfbf" points="139.5,-0.5 139.5,-19.5 189.5,-19.5 189.5,-0.5 139.5,-0.5"/>
<text text-anchor="middle" x="164.5" y="-7.5" font-family="Helvetica,sans-Serif" font-size="10.00">fstream</text>
</g>
<!-- Node1&#45;&gt;Node4 -->
<g id="edge3" class="edge"><title>Node1&#45;&gt;Node4</title>
<path fill="none" stroke="midnightblue" d="M277.267,-56.4435C255.116,-47.5171 220.181,-33.4387 195.064,-23.3168"/>
<polygon fill="midnightblue" stroke="midnightblue" points="196.217,-20.0079 185.633,-19.5164 193.6,-26.5006 196.217,-20.0079"/>
</g>
<!-- Node5 -->
<g id="node5" class="node"><title>Node5</title>
<polygon fill="none" stroke="#bfbfbf" points="208,-0.5 208,-19.5 267,-19.5 267,-0.5 208,-0.5"/>
<text text-anchor="middle" x="237.5" y="-7.5" font-family="Helvetica,sans-Serif" font-size="10.00">stdexcept</text>
</g>
<!-- Node1&#45;&gt;Node5 -->
<g id="edge4" class="edge"><title>Node1&#45;&gt;Node5</title>
<path fill="none" stroke="midnightblue" d="M288.699,-56.324C279.682,-48.3414 266.094,-36.3128 255.182,-26.6529"/>
<polygon fill="midnightblue" stroke="midnightblue" points="257.287,-23.8416 247.479,-19.8339 252.647,-29.083 257.287,-23.8416"/>
</g>
<!-- Node6 -->
<g id="node6" class="node"><title>Node6</title>
<polygon fill="none" stroke="#bfbfbf" points="285.5,-0.5 285.5,-19.5 433.5,-19.5 433.5,-0.5 285.5,-0.5"/>
<text text-anchor="middle" x="359.5" y="-7.5" font-family="Helvetica,sans-Serif" font-size="10.00">Framework/CallbackService.h</text>
</g>
<!-- Node1&#45;&gt;Node6 -->
<g id="edge5" class="edge"><title>Node1&#45;&gt;Node6</title>
<path fill="none" stroke="midnightblue" d="M308.301,-56.324C317.318,-48.3414 330.906,-36.3128 341.818,-26.6529"/>
<polygon fill="midnightblue" stroke="midnightblue" points="344.353,-29.083 349.521,-19.8339 339.713,-23.8416 344.353,-29.083"/>
</g>
<!-- Node7 -->
<g id="node7" class="node"><title>Node7</title>
<polygon fill="none" stroke="#bfbfbf" points="452,-0.5 452,-19.5 593,-19.5 593,-0.5 452,-0.5"/>
<text text-anchor="middle" x="522.5" y="-7.5" font-family="Helvetica,sans-Serif" font-size="10.00">Framework/ControlService.h</text>
</g>
<!-- Node1&#45;&gt;Node7 -->
<g id="edge6" class="edge"><title>Node1&#45;&gt;Node7</title>
<path fill="none" stroke="midnightblue" d="M333.993,-56.4435C372.824,-47.0826 435.156,-32.0561 477.418,-21.868"/>
<polygon fill="midnightblue" stroke="midnightblue" points="478.271,-25.2626 487.173,-19.5164 476.631,-18.4576 478.271,-25.2626"/>
</g>
<!-- Node8 -->
<g id="node8" class="node"><title>Node8</title>
<polygon fill="none" stroke="#bfbfbf" points="611.5,-0.5 611.5,-19.5 709.5,-19.5 709.5,-0.5 611.5,-0.5"/>
<text text-anchor="middle" x="660.5" y="-7.5" font-family="Helvetica,sans-Serif" font-size="10.00">Framework/Task.h</text>
</g>
<!-- Node1&#45;&gt;Node8 -->
<g id="edge7" class="edge"><title>Node1&#45;&gt;Node8</title>
<path fill="none" stroke="midnightblue" d="M356.797,-56.494C415.855,-47.849 510.128,-33.973 601.483,-20.1459"/>
<polygon fill="midnightblue" stroke="midnightblue" points="602.093,-23.5935 611.456,-18.6349 601.044,-16.6725 602.093,-23.5935"/>
</g>
<!-- Node9 -->
<g id="node9" class="node"><title>Node9</title>
<polygon fill="none" stroke="#bfbfbf" points="727.5,-0.5 727.5,-19.5 887.5,-19.5 887.5,-0.5 727.5,-0.5"/>
<text text-anchor="middle" x="807.5" y="-7.5" font-family="Helvetica,sans-Serif" font-size="10.00">Framework/runDataProcessing.h</text>
</g>
<!-- Node1&#45;&gt;Node9 -->
<g id="edge8" class="edge"><title>Node1&#45;&gt;Node9</title>
<path fill="none" stroke="midnightblue" d="M378.872,-56.4733C470.865,-46.7138 621.171,-30.7677 717.15,-20.5853"/>
<polygon fill="midnightblue" stroke="midnightblue" points="717.556,-24.062 727.131,-19.5264 716.817,-17.101 717.556,-24.062"/>
</g>
</g>
</svg>
