<?xml version="1.0" encoding="UTF-8" standalone="no"?>
<!DOCTYPE svg PUBLIC "-//W3C//DTD SVG 1.1//EN"
 "http://www.w3.org/Graphics/SVG/1.1/DTD/svg11.dtd">
<!-- Generated by graphviz version 2.38.0 (20140413.2041)
 -->
<!-- Title: Modules/ITS/src/runITS.cxx Pages: 1 -->
<!--zoomable 274 -->
<svg id="main" version="1.1" xmlns="http://www.w3.org/2000/svg" xmlns:xlink="http://www.w3.org/1999/xlink" xml:space="preserve" onload="init(evt)">
<style type="text/css"><![CDATA[
.edge:hover path { stroke: red; }
.edge:hover polygon { stroke: red; fill: red; }
]]></style>
<script type="text/javascript"><![CDATA[
var edges = document.getElementsByTagName('g');
if (edges && edges.length) {
  for (var i=0;i<edges.length;i++) {
    if (edges[i].id.substr(0,4)=='edge') {
      edges[i].setAttribute('class','edge');
    }
  }
}
]]></script>
        <defs>
                <circle id="rim" cx="0" cy="0" r="7"/>
                <circle id="rim2" cx="0" cy="0" r="3.5"/>
                <g id="zoomPlus">
                        <use xlink:href="#rim" fill="#404040">
                                <set attributeName="fill" to="#808080" begin="zoomplus.mouseover" end="zoomplus.mouseout"/>
                        </use>
                        <path d="M-4,0h8M0,-4v8" fill="none" stroke="white" stroke-width="1.5" pointer-events="none"/>
                </g>
                <g id="zoomMin">
                        <use xlink:href="#rim" fill="#404040">
                                <set attributeName="fill" to="#808080" begin="zoomminus.mouseover" end="zoomminus.mouseout"/>
                        </use>
                        <path d="M-4,0h8" fill="none" stroke="white" stroke-width="1.5" pointer-events="none"/>
                </g>
                <g id="dirArrow">
                        <path fill="none" stroke="white" stroke-width="1.5" d="M0,-3.0v7 M-2.5,-0.5L0,-3.0L2.5,-0.5"/>
                </g>
               <g id="resetDef">
                       <use xlink:href="#rim2" fill="#404040">
                               <set attributeName="fill" to="#808080" begin="reset.mouseover" end="reset.mouseout"/>
                       </use>
               </g>
        </defs>

<script type="text/javascript">
var viewWidth = 2492;
var viewHeight = 274;
var sectionId = 'dynsection-0';
</script>
<script xlink:href="svgpan.js"/>
<svg id="graph" class="graph">
<g id="viewport">
<title>Modules/ITS/src/runITS.cxx</title>
<!-- Node1 -->
<g id="node1" class="node"><title>Node1</title>
<polygon fill="#bfbfbf" stroke="black" points="1699,-246.5 1699,-265.5 1839,-265.5 1839,-246.5 1699,-246.5"/>
<text text-anchor="middle" x="1769" y="-253.5" font-family="Helvetica,sans-Serif" font-size="10.00">Modules/ITS/src/runITS.cxx</text>
</g>
<!-- Node2 -->
<g id="node2" class="node"><title>Node2</title>
<polygon fill="none" stroke="#bfbfbf" points="53,-185 53,-204 191,-204 191,-185 53,-185"/>
<text text-anchor="middle" x="122" y="-192" font-family="Helvetica,sans-Serif" font-size="10.00">Framework/DataSampling.h</text>
</g>
<!-- Node1&#45;&gt;Node2 -->
<g id="edge1" class="edge"><title>Node1&#45;&gt;Node2</title>
<path fill="none" stroke="midnightblue" d="M1698.74,-254.435C1434.01,-252.078 496.714,-241.641 200,-210 190.747,-209.013 180.945,-207.537 171.528,-205.899"/>
<polygon fill="midnightblue" stroke="midnightblue" points="171.971,-202.422 161.506,-204.074 170.717,-209.309 171.971,-202.422"/>
</g>
<!-- Node3 -->
<g id="node3" class="node"><title>Node3</title>
<g id="a_node3"><a xlink:href="InfrastructureGenerator_8h.html" target="_top" xlink:title="QualityControl/Infrastructure\lGenerator.h">
<polygon fill="none" stroke="black" points="209,-179.5 209,-209.5 349,-209.5 349,-179.5 209,-179.5"/>
<text text-anchor="start" x="217" y="-197.5" font-family="Helvetica,sans-Serif" font-size="10.00">QualityControl/Infrastructure</text>
<text text-anchor="middle" x="279" y="-186.5" font-family="Helvetica,sans-Serif" font-size="10.00">Generator.h</text>
</a>
</g>
</g>
<!-- Node1&#45;&gt;Node3 -->
<g id="edge2" class="edge"><title>Node1&#45;&gt;Node3</title>
<path fill="none" stroke="midnightblue" d="M1698.64,-252.19C1451.16,-242.308 621.66,-209.183 359.282,-198.706"/>
<polygon fill="midnightblue" stroke="midnightblue" points="359.204,-195.2 349.073,-198.298 358.925,-202.195 359.204,-195.2"/>
</g>
<!-- Node8 -->
<g id="node8" class="node"><title>Node8</title>
<polygon fill="none" stroke="#bfbfbf" points="1816.5,-185 1816.5,-204 1887.5,-204 1887.5,-185 1816.5,-185"/>
<text text-anchor="middle" x="1852" y="-192" font-family="Helvetica,sans-Serif" font-size="10.00">FairLogger.h</text>
</g>
<!-- Node1&#45;&gt;Node8 -->
<g id="edge7" class="edge"><title>Node1&#45;&gt;Node8</title>
<path fill="none" stroke="midnightblue" d="M1780.89,-246.475C1794.2,-236.931 1816,-221.307 1831.96,-209.868"/>
<polygon fill="midnightblue" stroke="midnightblue" points="1834.04,-212.68 1840.13,-204.009 1829.96,-206.991 1834.04,-212.68"/>
</g>
<!-- Node9 -->
<g id="node9" class="node"><title>Node9</title>
<polygon fill="none" stroke="#bfbfbf" points="1847,-123.5 1847,-142.5 1897,-142.5 1897,-123.5 1847,-123.5"/>
<text text-anchor="middle" x="1872" y="-130.5" font-family="Helvetica,sans-Serif" font-size="10.00">TH1F.h</text>
</g>
<!-- Node1&#45;&gt;Node9 -->
<g id="edge8" class="edge"><title>Node1&#45;&gt;Node9</title>
<path fill="none" stroke="midnightblue" d="M1766.89,-246.096C1763.81,-230.865 1759.9,-199.475 1774,-179 1781.73,-167.769 1812.39,-154.75 1837.39,-145.613"/>
<polygon fill="midnightblue" stroke="midnightblue" points="1838.73,-148.85 1846.97,-142.194 1836.38,-142.257 1838.73,-148.85"/>
</g>
<!-- Node10 -->
<g id="node10" class="node"><title>Node10</title>
<polygon fill="none" stroke="#bfbfbf" points="1217,-123.5 1217,-142.5 1269,-142.5 1269,-123.5 1217,-123.5"/>
<text text-anchor="middle" x="1243" y="-130.5" font-family="Helvetica,sans-Serif" font-size="10.00">memory</text>
</g>
<!-- Node1&#45;&gt;Node10 -->
<g id="edge9" class="edge"><title>Node1&#45;&gt;Node10</title>
<path fill="none" stroke="midnightblue" d="M1698.8,-249.922C1632.18,-244.024 1529.63,-232.135 1443,-210 1379.57,-193.793 1308.68,-163.878 1270.67,-146.813"/>
<polygon fill="midnightblue" stroke="midnightblue" points="1271.85,-143.505 1261.29,-142.565 1268.96,-149.88 1271.85,-143.505"/>
</g>
<!-- Node11 -->
<g id="node11" class="node"><title>Node11</title>
<polygon fill="none" stroke="#bfbfbf" points="1905.5,-185 1905.5,-204 1954.5,-204 1954.5,-185 1905.5,-185"/>
<text text-anchor="middle" x="1930" y="-192" font-family="Helvetica,sans-Serif" font-size="10.00">random</text>
</g>
<!-- Node1&#45;&gt;Node11 -->
<g id="edge10" class="edge"><title>Node1&#45;&gt;Node11</title>
<path fill="none" stroke="midnightblue" d="M1795.2,-246.438C1821.22,-237.782 1862.16,-223.754 1897,-210 1898.6,-209.368 1900.24,-208.705 1901.89,-208.024"/>
<polygon fill="midnightblue" stroke="midnightblue" points="1903.43,-211.171 1911.26,-204.03 1900.68,-204.731 1903.43,-211.171"/>
</g>
<!-- Node12 -->
<g id="node12" class="node"><title>Node12</title>
<polygon fill="none" stroke="#bfbfbf" points="1973,-185 1973,-204 2133,-204 2133,-185 1973,-185"/>
<text text-anchor="middle" x="2053" y="-192" font-family="Helvetica,sans-Serif" font-size="10.00">Framework/runDataProcessing.h</text>
</g>
<!-- Node1&#45;&gt;Node12 -->
<g id="edge11" class="edge"><title>Node1&#45;&gt;Node12</title>
<path fill="none" stroke="midnightblue" d="M1809.69,-246.475C1860.52,-235.827 1947.47,-217.609 2002.5,-206.081"/>
<polygon fill="midnightblue" stroke="midnightblue" points="2003.32,-209.485 2012.39,-204.009 2001.88,-202.634 2003.32,-209.485"/>
</g>
<!-- Node13 -->
<g id="node13" class="node"><title>Node13</title>
<g id="a_node13"><a xlink:href="Check_8h_source.html" target="_top" xlink:title="QualityControl/Check.h">
<polygon fill="none" stroke="black" points="819.5,-185 819.5,-204 938.5,-204 938.5,-185 819.5,-185"/>
<text text-anchor="middle" x="879" y="-192" font-family="Helvetica,sans-Serif" font-size="10.00">QualityControl/Check.h</text>
</a>
</g>
</g>
<!-- Node1&#45;&gt;Node13 -->
<g id="edge12" class="edge"><title>Node1&#45;&gt;Node13</title>
<path fill="none" stroke="midnightblue" d="M1698.79,-250.306C1532.24,-239.172 1114.81,-211.265 948.737,-200.162"/>
<polygon fill="midnightblue" stroke="midnightblue" points="948.852,-196.662 938.641,-199.487 948.385,-203.647 948.852,-196.662"/>
</g>
<!-- Node28 -->
<g id="node28" class="node"><title>Node28</title>
<g id="a_node28"><a xlink:href="runnerUtils_8h.html" target="_top" xlink:title="QualityControl/runnerUtils.h">
<polygon fill="none" stroke="black" points="1526.5,-67.5 1526.5,-86.5 1663.5,-86.5 1663.5,-67.5 1526.5,-67.5"/>
<text text-anchor="middle" x="1595" y="-74.5" font-family="Helvetica,sans-Serif" font-size="10.00">QualityControl/runnerUtils.h</text>
</a>
</g>
</g>
<!-- Node1&#45;&gt;Node28 -->
<g id="edge46" class="edge"><title>Node1&#45;&gt;Node28</title>
<path fill="none" stroke="midnightblue" d="M1771.16,-246.42C1775.52,-230.838 1786.79,-197.77 1808,-179 1845.57,-145.758 1938.83,-160.927 1906,-123 1876.52,-88.9485 1755.7,-80.1021 1673.62,-78.1126"/>
<polygon fill="midnightblue" stroke="midnightblue" points="1673.63,-74.6122 1663.56,-77.8981 1673.48,-81.6106 1673.63,-74.6122"/>
</g>
<!-- Node30 -->
<g id="node30" class="node"><title>Node30</title>
<g id="a_node30"><a xlink:href="ExamplePrinterSpec_8h.html" target="_top" xlink:title="QualityControl/ExamplePrinter\lSpec.h">
<polygon fill="none" stroke="black" points="1451.5,-179.5 1451.5,-209.5 1600.5,-209.5 1600.5,-179.5 1451.5,-179.5"/>
<text text-anchor="start" x="1459.5" y="-197.5" font-family="Helvetica,sans-Serif" font-size="10.00">QualityControl/ExamplePrinter</text>
<text text-anchor="middle" x="1526" y="-186.5" font-family="Helvetica,sans-Serif" font-size="10.00">Spec.h</text>
</a>
</g>
</g>
<!-- Node1&#45;&gt;Node30 -->
<g id="edge50" class="edge"><title>Node1&#45;&gt;Node30</title>
<path fill="none" stroke="midnightblue" d="M1734.18,-246.475C1697.51,-237.494 1638.83,-223.128 1593.11,-211.933"/>
<polygon fill="midnightblue" stroke="midnightblue" points="1593.82,-208.502 1583.27,-209.523 1592.15,-215.301 1593.82,-208.502"/>
</g>
<!-- Node34 -->
<g id="node34" class="node"><title>Node34</title>
<polygon fill="none" stroke="#bfbfbf" points="2151.5,-179.5 2151.5,-209.5 2292.5,-209.5 2292.5,-179.5 2151.5,-179.5"/>
<text text-anchor="start" x="2159.5" y="-197.5" font-family="Helvetica,sans-Serif" font-size="10.00">ITSQCDataReaderWorkflow</text>
<text text-anchor="middle" x="2222" y="-186.5" font-family="Helvetica,sans-Serif" font-size="10.00">/TestDataReader.h</text>
</g>
<!-- Node1&#45;&gt;Node34 -->
<g id="edge59" class="edge"><title>Node1&#45;&gt;Node34</title>
<path fill="none" stroke="midnightblue" d="M1839.29,-247.776C1912.2,-239.998 2029.73,-226.665 2141.29,-210.05"/>
<polygon fill="midnightblue" stroke="midnightblue" points="2142,-213.482 2151.37,-208.536 2140.96,-206.56 2142,-213.482"/>
</g>
<!-- Node35 -->
<g id="node35" class="node"><title>Node35</title>
<polygon fill="none" stroke="#bfbfbf" points="2310.5,-185 2310.5,-204 2483.5,-204 2483.5,-185 2310.5,-185"/>
<text text-anchor="middle" x="2397" y="-192" font-family="Helvetica,sans-Serif" font-size="10.00">DetectorsBase/GeometryManager.h</text>
</g>
<!-- Node1&#45;&gt;Node35 -->
<g id="edge60" class="edge"><title>Node1&#45;&gt;Node35</title>
<path fill="none" stroke="midnightblue" d="M1839.42,-250.568C1941.57,-243.797 2136.7,-229.571 2302,-210 2312.78,-208.723 2324.22,-207.159 2335.29,-205.535"/>
<polygon fill="midnightblue" stroke="midnightblue" points="2335.94,-208.976 2345.32,-204.034 2334.91,-202.053 2335.94,-208.976"/>
</g>
<!-- Node4 -->
<g id="node4" class="node"><title>Node4</title>
<polygon fill="none" stroke="#bfbfbf" points="196,-123.5 196,-142.5 240,-142.5 240,-123.5 196,-123.5"/>
<text text-anchor="middle" x="218" y="-130.5" font-family="Helvetica,sans-Serif" font-size="10.00">vector</text>
</g>
<!-- Node3&#45;&gt;Node4 -->
<g id="edge3" class="edge"><title>Node3&#45;&gt;Node4</title>
<path fill="none" stroke="midnightblue" d="M264.544,-179.399C255.406,-170.486 243.581,-158.952 234.138,-149.741"/>
<polygon fill="midnightblue" stroke="midnightblue" points="236.478,-147.135 226.876,-142.658 231.591,-152.146 236.478,-147.135"/>
</g>
<!-- Node5 -->
<g id="node5" class="node"><title>Node5</title>
<polygon fill="none" stroke="#bfbfbf" points="844.5,-6 844.5,-25 885.5,-25 885.5,-6 844.5,-6"/>
<text text-anchor="middle" x="865" y="-13" font-family="Helvetica,sans-Serif" font-size="10.00">string</text>
</g>
<!-- Node3&#45;&gt;Node5 -->
<g id="edge4" class="edge"><title>Node3&#45;&gt;Node5</title>
<path fill="none" stroke="midnightblue" d="M235.339,-179.477C203.162,-166.824 168.03,-146.607 187,-123 269.318,-20.5558 713.191,-15.5846 834.402,-16.1692"/>
<polygon fill="midnightblue" stroke="midnightblue" points="834.453,-19.6695 844.476,-16.2348 834.499,-12.6696 834.453,-19.6695"/>
</g>
<!-- Node6 -->
<g id="node6" class="node"><title>Node6</title>
<polygon fill="none" stroke="#bfbfbf" points="0,-123.5 0,-142.5 140,-142.5 140,-123.5 0,-123.5"/>
<text text-anchor="middle" x="70" y="-130.5" font-family="Helvetica,sans-Serif" font-size="10.00">Framework/WorkflowSpec.h</text>
</g>
<!-- Node3&#45;&gt;Node6 -->
<g id="edge5" class="edge"><title>Node3&#45;&gt;Node6</title>
<path fill="none" stroke="midnightblue" d="M229.735,-179.475C193.048,-169.03 143.616,-154.958 109.506,-145.247"/>
<polygon fill="midnightblue" stroke="midnightblue" points="110.456,-141.878 99.8795,-142.506 108.539,-148.611 110.456,-141.878"/>
</g>
<!-- Node7 -->
<g id="node7" class="node"><title>Node7</title>
<polygon fill="none" stroke="#bfbfbf" points="258,-123.5 258,-142.5 422,-142.5 422,-123.5 258,-123.5"/>
<text text-anchor="middle" x="340" y="-130.5" font-family="Helvetica,sans-Serif" font-size="10.00">Framework/DataProcessorSpec.h</text>
</g>
<!-- Node3&#45;&gt;Node7 -->
<g id="edge6" class="edge"><title>Node3&#45;&gt;Node7</title>
<path fill="none" stroke="midnightblue" d="M293.456,-179.399C302.594,-170.486 314.419,-158.952 323.862,-149.741"/>
<polygon fill="midnightblue" stroke="midnightblue" points="326.409,-152.146 331.124,-142.658 321.522,-147.135 326.409,-152.146"/>
</g>
<!-- Node13&#45;&gt;Node4 -->
<g id="edge15" class="edge"><title>Node13&#45;&gt;Node4</title>
<path fill="none" stroke="midnightblue" d="M819.417,-192.731C708.743,-190.433 464.024,-181.273 250.372,-142.886"/>
<polygon fill="midnightblue" stroke="midnightblue" points="250.687,-139.386 240.222,-141.036 249.432,-146.273 250.687,-139.386"/>
</g>
<!-- Node13&#45;&gt;Node7 -->
<g id="edge18" class="edge"><title>Node13&#45;&gt;Node7</title>
<path fill="none" stroke="midnightblue" d="M819.258,-186.905C724.104,-176.401 537.648,-155.818 427.452,-143.654"/>
<polygon fill="midnightblue" stroke="midnightblue" points="427.684,-140.158 417.36,-142.54 426.916,-147.116 427.684,-140.158"/>
</g>
<!-- Node13&#45;&gt;Node10 -->
<g id="edge16" class="edge"><title>Node13&#45;&gt;Node10</title>
<path fill="none" stroke="midnightblue" d="M938.624,-185.423C1003.78,-176.313 1111.14,-160.473 1203,-143 1204.26,-142.761 1205.54,-142.51 1206.83,-142.252"/>
<polygon fill="midnightblue" stroke="midnightblue" points="1207.74,-145.638 1216.8,-140.157 1206.3,-138.788 1207.74,-145.638"/>
</g>
<!-- Node14 -->
<g id="node14" class="node"><title>Node14</title>
<polygon fill="none" stroke="#bfbfbf" points="849.5,-123.5 849.5,-142.5 908.5,-142.5 908.5,-123.5 849.5,-123.5"/>
<text text-anchor="middle" x="879" y="-130.5" font-family="Helvetica,sans-Serif" font-size="10.00">functional</text>
</g>
<!-- Node13&#45;&gt;Node14 -->
<g id="edge13" class="edge"><title>Node13&#45;&gt;Node14</title>
<path fill="none" stroke="midnightblue" d="M879,-184.975C879,-176.58 879,-163.481 879,-152.663"/>
<polygon fill="midnightblue" stroke="midnightblue" points="882.5,-152.509 879,-142.509 875.5,-152.509 882.5,-152.509"/>
</g>
<!-- Node15 -->
<g id="node15" class="node"><title>Node15</title>
<polygon fill="none" stroke="#bfbfbf" points="1197.5,-6 1197.5,-25 1232.5,-25 1232.5,-6 1197.5,-6"/>
<text text-anchor="middle" x="1215" y="-13" font-family="Helvetica,sans-Serif" font-size="10.00">map</text>
</g>
<!-- Node13&#45;&gt;Node15 -->
<g id="edge14" class="edge"><title>Node13&#45;&gt;Node15</title>
<path fill="none" stroke="midnightblue" d="M938.77,-187.55C995.896,-180.725 1083.89,-167.219 1157,-143 1170.3,-138.593 1262.61,-98.9069 1270,-87 1282.83,-66.3174 1259.31,-44.523 1239.16,-30.7377"/>
<polygon fill="midnightblue" stroke="midnightblue" points="1240.86,-27.668 1230.56,-25.1734 1237.05,-33.5448 1240.86,-27.668"/>
</g>
<!-- Node16 -->
<g id="node16" class="node"><title>Node16</title>
<polygon fill="none" stroke="#bfbfbf" points="715.5,-67.5 715.5,-86.5 798.5,-86.5 798.5,-67.5 715.5,-67.5"/>
<text text-anchor="middle" x="757" y="-74.5" font-family="Helvetica,sans-Serif" font-size="10.00">unordered_map</text>
</g>
<!-- Node13&#45;&gt;Node16 -->
<g id="edge17" class="edge"><title>Node13&#45;&gt;Node16</title>
<path fill="none" stroke="midnightblue" d="M869.83,-184.819C849.34,-165.421 799.601,-118.331 773.544,-93.6625"/>
<polygon fill="midnightblue" stroke="midnightblue" points="775.944,-91.1153 766.276,-86.782 771.132,-96.1987 775.944,-91.1153"/>
</g>
<!-- Node17 -->
<g id="node17" class="node"><title>Node17</title>
<g id="a_node17"><a xlink:href="Quality_8h.html" target="_top" xlink:title="QualityControl/Quality.h">
<polygon fill="none" stroke="black" points="893.5,-67.5 893.5,-86.5 1014.5,-86.5 1014.5,-67.5 893.5,-67.5"/>
<text text-anchor="middle" x="954" y="-74.5" font-family="Helvetica,sans-Serif" font-size="10.00">QualityControl/Quality.h</text>
</a>
</g>
</g>
<!-- Node13&#45;&gt;Node17 -->
<g id="edge19" class="edge"><title>Node13&#45;&gt;Node17</title>
<path fill="none" stroke="midnightblue" d="M868.045,-184.957C852.004,-171.39 825.523,-144.279 840,-123 851.11,-106.671 869.15,-96.267 887.634,-89.6384"/>
<polygon fill="midnightblue" stroke="midnightblue" points="888.872,-92.9165 897.307,-86.5048 886.715,-86.2573 888.872,-92.9165"/>
</g>
<!-- Node19 -->
<g id="node19" class="node"><title>Node19</title>
<g id="a_node19"><a xlink:href="QualityObject_8h_source.html" target="_top" xlink:title="QualityControl/QualityObject.h">
<polygon fill="none" stroke="black" points="1324.5,-123.5 1324.5,-142.5 1473.5,-142.5 1473.5,-123.5 1324.5,-123.5"/>
<text text-anchor="middle" x="1399" y="-130.5" font-family="Helvetica,sans-Serif" font-size="10.00">QualityControl/QualityObject.h</text>
</a>
</g>
</g>
<!-- Node13&#45;&gt;Node19 -->
<g id="edge22" class="edge"><title>Node13&#45;&gt;Node19</title>
<path fill="none" stroke="midnightblue" d="M938.651,-186.675C1031.04,-176.103 1209.07,-155.732 1314.61,-143.656"/>
<polygon fill="midnightblue" stroke="midnightblue" points="1315.06,-147.128 1324.6,-142.514 1314.26,-140.173 1315.06,-147.128"/>
</g>
<!-- Node23 -->
<g id="node23" class="node"><title>Node23</title>
<g id="a_node23"><a xlink:href="MonitorObject_8h.html" target="_top" xlink:title="QualityControl/MonitorObject.h">
<polygon fill="none" stroke="black" points="1109.5,-67.5 1109.5,-86.5 1260.5,-86.5 1260.5,-67.5 1109.5,-67.5"/>
<text text-anchor="middle" x="1185" y="-74.5" font-family="Helvetica,sans-Serif" font-size="10.00">QualityControl/MonitorObject.h</text>
</a>
</g>
</g>
<!-- Node13&#45;&gt;Node23 -->
<g id="edge28" class="edge"><title>Node13&#45;&gt;Node23</title>
<path fill="none" stroke="midnightblue" d="M938.555,-192.826C992.578,-189.73 1072.62,-178.748 1132,-143 1151.03,-131.542 1166.21,-110.652 1175.36,-95.6441"/>
<polygon fill="midnightblue" stroke="midnightblue" points="1178.5,-97.1971 1180.48,-86.789 1172.44,-93.6905 1178.5,-97.1971"/>
</g>
<!-- Node24 -->
<g id="node24" class="node"><title>Node24</title>
<g id="a_node24"><a xlink:href="CheckInterface_8h.html" target="_top" xlink:title="QualityControl/CheckInterface.h">
<polygon fill="none" stroke="black" points="965.5,-123.5 965.5,-142.5 1122.5,-142.5 1122.5,-123.5 965.5,-123.5"/>
<text text-anchor="middle" x="1044" y="-130.5" font-family="Helvetica,sans-Serif" font-size="10.00">QualityControl/CheckInterface.h</text>
</a>
</g>
</g>
<!-- Node13&#45;&gt;Node24 -->
<g id="edge34" class="edge"><title>Node13&#45;&gt;Node24</title>
<path fill="none" stroke="midnightblue" d="M902.64,-184.975C930.944,-174.769 978.533,-157.608 1010.59,-146.049"/>
<polygon fill="midnightblue" stroke="midnightblue" points="1012.18,-149.194 1020.4,-142.509 1009.81,-142.609 1012.18,-149.194"/>
</g>
<!-- Node25 -->
<g id="node25" class="node"><title>Node25</title>
<g id="a_node25"><a xlink:href="QcInfoLogger_8h.html" target="_top" xlink:title="QualityControl/QcInfoLogger.h">
<polygon fill="none" stroke="black" points="440.5,-123.5 440.5,-142.5 589.5,-142.5 589.5,-123.5 440.5,-123.5"/>
<text text-anchor="middle" x="515" y="-130.5" font-family="Helvetica,sans-Serif" font-size="10.00">QualityControl/QcInfoLogger.h</text>
</a>
</g>
</g>
<!-- Node13&#45;&gt;Node25 -->
<g id="edge41" class="edge"><title>Node13&#45;&gt;Node25</title>
<path fill="none" stroke="midnightblue" d="M826.848,-184.975C760.895,-174.194 647.474,-155.654 577.113,-144.153"/>
<polygon fill="midnightblue" stroke="midnightblue" points="577.489,-140.668 567.056,-142.509 576.36,-147.577 577.489,-140.668"/>
</g>
<!-- Node27 -->
<g id="node27" class="node"><title>Node27</title>
<g id="a_node27"><a xlink:href="CheckConfig_8h.html" target="_top" xlink:title="QualityControl/CheckConfig.h">
<polygon fill="none" stroke="black" points="607.5,-123.5 607.5,-142.5 754.5,-142.5 754.5,-123.5 607.5,-123.5"/>
<text text-anchor="middle" x="681" y="-130.5" font-family="Helvetica,sans-Serif" font-size="10.00">QualityControl/CheckConfig.h</text>
</a>
</g>
</g>
<!-- Node13&#45;&gt;Node27 -->
<g id="edge43" class="edge"><title>Node13&#45;&gt;Node27</title>
<path fill="none" stroke="midnightblue" d="M850.631,-184.975C816.079,-174.592 757.576,-157.012 719.115,-145.454"/>
<polygon fill="midnightblue" stroke="midnightblue" points="719.9,-142.035 709.316,-142.509 717.886,-148.739 719.9,-142.035"/>
</g>
<!-- Node17&#45;&gt;Node5 -->
<g id="edge21" class="edge"><title>Node17&#45;&gt;Node5</title>
<path fill="none" stroke="midnightblue" d="M941.248,-67.4751C926.973,-57.9315 903.603,-42.3073 886.492,-30.8683"/>
<polygon fill="midnightblue" stroke="midnightblue" points="887.986,-27.6572 877.728,-25.0091 884.096,-33.4766 887.986,-27.6572"/>
</g>
<!-- Node18 -->
<g id="node18" class="node"><title>Node18</title>
<polygon fill="none" stroke="#bfbfbf" points="1015,-6 1015,-25 1071,-25 1071,-6 1015,-6"/>
<text text-anchor="middle" x="1043" y="-13" font-family="Helvetica,sans-Serif" font-size="10.00">Rtypes.h</text>
</g>
<!-- Node17&#45;&gt;Node18 -->
<g id="edge20" class="edge"><title>Node17&#45;&gt;Node18</title>
<path fill="none" stroke="midnightblue" d="M966.752,-67.4751C981.027,-57.9315 1004.4,-42.3073 1021.51,-30.8683"/>
<polygon fill="midnightblue" stroke="midnightblue" points="1023.9,-33.4766 1030.27,-25.0091 1020.01,-27.6572 1023.9,-33.4766"/>
</g>
<!-- Node19&#45;&gt;Node15 -->
<g id="edge24" class="edge"><title>Node19&#45;&gt;Node15</title>
<path fill="none" stroke="midnightblue" d="M1398.94,-123.12C1398.37,-109.238 1395.2,-82.3929 1380,-67 1370.16,-57.0342 1286.65,-34.6801 1242.35,-23.3551"/>
<polygon fill="midnightblue" stroke="midnightblue" points="1243.06,-19.9254 1232.51,-20.8561 1241.34,-26.71 1243.06,-19.9254"/>
</g>
<!-- Node19&#45;&gt;Node17 -->
<g id="edge27" class="edge"><title>Node19&#45;&gt;Node17</title>
<path fill="none" stroke="midnightblue" d="M1328.49,-123.444C1245.32,-113.352 1107.89,-96.6746 1024.66,-86.5747"/>
<polygon fill="midnightblue" stroke="midnightblue" points="1024.89,-83.0765 1014.54,-85.3462 1024.04,-90.0255 1024.89,-83.0765"/>
</g>
<!-- Node20 -->
<g id="node20" class="node"><title>Node20</title>
<polygon fill="none" stroke="#bfbfbf" points="1317,-67.5 1317,-86.5 1371,-86.5 1371,-67.5 1317,-67.5"/>
<text text-anchor="middle" x="1344" y="-74.5" font-family="Helvetica,sans-Serif" font-size="10.00">iostream</text>
</g>
<!-- Node19&#45;&gt;Node20 -->
<g id="edge23" class="edge"><title>Node19&#45;&gt;Node20</title>
<path fill="none" stroke="midnightblue" d="M1389.92,-123.083C1381.83,-115.141 1369.8,-103.335 1360.09,-93.7973"/>
<polygon fill="midnightblue" stroke="midnightblue" points="1362.5,-91.2595 1352.91,-86.7511 1357.6,-96.2545 1362.5,-91.2595"/>
</g>
<!-- Node21 -->
<g id="node21" class="node"><title>Node21</title>
<polygon fill="none" stroke="#bfbfbf" points="1280.5,-6 1280.5,-25 1339.5,-25 1339.5,-6 1280.5,-6"/>
<text text-anchor="middle" x="1310" y="-13" font-family="Helvetica,sans-Serif" font-size="10.00">TObject.h</text>
</g>
<!-- Node19&#45;&gt;Node21 -->
<g id="edge25" class="edge"><title>Node19&#45;&gt;Node21</title>
<path fill="none" stroke="midnightblue" d="M1404.62,-123.315C1412.35,-110.16 1424.11,-84.8283 1413,-67 1399.14,-44.7702 1372.33,-32.0522 1349.54,-24.9401"/>
<polygon fill="midnightblue" stroke="midnightblue" points="1350.32,-21.522 1339.74,-22.1383 1348.39,-28.2524 1350.32,-21.522"/>
</g>
<!-- Node22 -->
<g id="node22" class="node"><title>Node22</title>
<polygon fill="none" stroke="#bfbfbf" points="1405,-6 1405,-25 1521,-25 1521,-6 1405,-6"/>
<text text-anchor="middle" x="1463" y="-13" font-family="Helvetica,sans-Serif" font-size="10.00">Common/Exceptions.h</text>
</g>
<!-- Node19&#45;&gt;Node22 -->
<g id="edge26" class="edge"><title>Node19&#45;&gt;Node22</title>
<path fill="none" stroke="midnightblue" d="M1413.84,-123.269C1425.87,-115.371 1442.21,-102.603 1451,-87 1459.93,-71.1391 1462.57,-50.3197 1463.19,-35.4249"/>
<polygon fill="midnightblue" stroke="midnightblue" points="1466.69,-35.4222 1463.35,-25.3698 1459.69,-35.3151 1466.69,-35.4222"/>
</g>
<!-- Node23&#45;&gt;Node5 -->
<g id="edge29" class="edge"><title>Node23&#45;&gt;Node5</title>
<path fill="none" stroke="midnightblue" d="M1139.15,-67.4751C1072.91,-55.1585 952.203,-32.7144 895.704,-22.209"/>
<polygon fill="midnightblue" stroke="midnightblue" points="896.083,-18.7195 885.611,-20.3324 894.803,-25.6016 896.083,-18.7195"/>
</g>
<!-- Node23&#45;&gt;Node15 -->
<g id="edge30" class="edge"><title>Node23&#45;&gt;Node15</title>
<path fill="none" stroke="midnightblue" d="M1189.3,-67.4751C1193.66,-58.8152 1200.56,-45.1486 1206.1,-34.1453"/>
<polygon fill="midnightblue" stroke="midnightblue" points="1209.33,-35.5141 1210.71,-25.0091 1203.08,-32.3625 1209.33,-35.5141"/>
</g>
<!-- Node23&#45;&gt;Node18 -->
<g id="edge31" class="edge"><title>Node23&#45;&gt;Node18</title>
<path fill="none" stroke="midnightblue" d="M1164.65,-67.4751C1140.61,-57.4013 1100.4,-40.5525 1072.84,-29.0023"/>
<polygon fill="midnightblue" stroke="midnightblue" points="1073.88,-25.6457 1063.31,-25.0091 1071.18,-32.1018 1073.88,-25.6457"/>
</g>
<!-- Node23&#45;&gt;Node21 -->
<g id="edge32" class="edge"><title>Node23&#45;&gt;Node21</title>
<path fill="none" stroke="midnightblue" d="M1202.91,-67.4751C1223.89,-57.4897 1258.85,-40.8476 1283.09,-29.3075"/>
<polygon fill="midnightblue" stroke="midnightblue" points="1284.6,-32.4673 1292.12,-25.0091 1281.59,-26.1468 1284.6,-32.4673"/>
</g>
<!-- Node23&#45;&gt;Node22 -->
<g id="edge33" class="edge"><title>Node23&#45;&gt;Node22</title>
<path fill="none" stroke="midnightblue" d="M1224.83,-67.4751C1274.48,-56.849 1359.35,-38.6847 1413.23,-27.1524"/>
<polygon fill="midnightblue" stroke="midnightblue" points="1414.2,-30.5245 1423.24,-25.0091 1412.73,-23.6796 1414.2,-30.5245"/>
</g>
<!-- Node24&#45;&gt;Node5 -->
<g id="edge35" class="edge"><title>Node24&#45;&gt;Node5</title>
<path fill="none" stroke="midnightblue" d="M965.321,-126.069C936.345,-120.09 905.408,-108.643 884,-87 870.514,-73.3661 866.332,-51.2264 865.167,-35.3949"/>
<polygon fill="midnightblue" stroke="midnightblue" points="868.656,-35.0471 864.762,-25.1938 861.662,-35.3248 868.656,-35.0471"/>
</g>
<!-- Node24&#45;&gt;Node15 -->
<g id="edge36" class="edge"><title>Node24&#45;&gt;Node15</title>
<path fill="none" stroke="midnightblue" d="M1049.71,-123.349C1059.04,-109.781 1078.75,-83.358 1101,-67 1127.71,-47.3666 1163.25,-33.1527 1187.51,-24.8994"/>
<polygon fill="midnightblue" stroke="midnightblue" points="1188.74,-28.1767 1197.15,-21.7287 1186.56,-21.5268 1188.74,-28.1767"/>
</g>
<!-- Node24&#45;&gt;Node16 -->
<g id="edge37" class="edge"><title>Node24&#45;&gt;Node16</title>
<path fill="none" stroke="midnightblue" d="M998.524,-123.444C946.85,-113.721 862.691,-97.8862 808.602,-87.7092"/>
<polygon fill="midnightblue" stroke="midnightblue" points="809.011,-84.2246 798.536,-85.8151 807.716,-91.1039 809.011,-84.2246"/>
</g>
<!-- Node24&#45;&gt;Node17 -->
<g id="edge40" class="edge"><title>Node24&#45;&gt;Node17</title>
<path fill="none" stroke="midnightblue" d="M1029.54,-123.324C1015.5,-114.9 993.952,-101.971 977.457,-92.0741"/>
<polygon fill="midnightblue" stroke="midnightblue" points="978.8,-88.7983 968.424,-86.6545 975.198,-94.8007 978.8,-88.7983"/>
</g>
<!-- Node24&#45;&gt;Node18 -->
<g id="edge38" class="edge"><title>Node24&#45;&gt;Node18</title>
<path fill="none" stroke="midnightblue" d="M1043.92,-123.319C1043.76,-104.757 1043.38,-60.8391 1043.16,-35.4734"/>
<polygon fill="midnightblue" stroke="midnightblue" points="1046.66,-35.2513 1043.08,-25.282 1039.66,-35.312 1046.66,-35.2513"/>
</g>
<!-- Node24&#45;&gt;Node23 -->
<g id="edge39" class="edge"><title>Node24&#45;&gt;Node23</title>
<path fill="none" stroke="midnightblue" d="M1066.34,-123.444C1089.75,-114.478 1126.74,-100.314 1153.19,-90.1827"/>
<polygon fill="midnightblue" stroke="midnightblue" points="1154.68,-93.3615 1162.76,-86.5164 1152.17,-86.8245 1154.68,-93.3615"/>
</g>
<!-- Node26 -->
<g id="node26" class="node"><title>Node26</title>
<polygon fill="none" stroke="#bfbfbf" points="450,-67.5 450,-86.5 580,-86.5 580,-67.5 450,-67.5"/>
<text text-anchor="middle" x="515" y="-74.5" font-family="Helvetica,sans-Serif" font-size="10.00">InfoLogger/InfoLogger.hxx</text>
</g>
<!-- Node25&#45;&gt;Node26 -->
<g id="edge42" class="edge"><title>Node25&#45;&gt;Node26</title>
<path fill="none" stroke="midnightblue" d="M515,-123.083C515,-116.006 515,-105.861 515,-96.9865"/>
<polygon fill="midnightblue" stroke="midnightblue" points="518.5,-96.751 515,-86.7511 511.5,-96.7511 518.5,-96.751"/>
</g>
<!-- Node27&#45;&gt;Node5 -->
<g id="edge44" class="edge"><title>Node27&#45;&gt;Node5</title>
<path fill="none" stroke="midnightblue" d="M681.978,-123.087C683.976,-109.16 689.807,-82.2548 706,-67 741.44,-33.6131 798.899,-22.2982 834.176,-18.4642"/>
<polygon fill="midnightblue" stroke="midnightblue" points="834.738,-21.9267 844.363,-17.4983 834.078,-14.9579 834.738,-21.9267"/>
</g>
<!-- Node27&#45;&gt;Node16 -->
<g id="edge45" class="edge"><title>Node27&#45;&gt;Node16</title>
<path fill="none" stroke="midnightblue" d="M693.211,-123.324C704.776,-115.107 722.375,-102.602 736.161,-92.8069"/>
<polygon fill="midnightblue" stroke="midnightblue" points="738.443,-95.4791 744.567,-86.8339 734.388,-89.7729 738.443,-95.4791"/>
</g>
<!-- Node28&#45;&gt;Node5 -->
<g id="edge47" class="edge"><title>Node28&#45;&gt;Node5</title>
<path fill="none" stroke="midnightblue" d="M1526.48,-71.3509C1416.6,-63.7631 1194.2,-47.8636 1006,-31 967.966,-27.5921 924.234,-22.9879 895.687,-19.89"/>
<polygon fill="midnightblue" stroke="midnightblue" points="895.853,-16.3874 885.533,-18.782 895.094,-23.3461 895.853,-16.3874"/>
</g>
<!-- Node28&#45;&gt;Node22 -->
<g id="edge49" class="edge"><title>Node28&#45;&gt;Node22</title>
<path fill="none" stroke="midnightblue" d="M1576.09,-67.4751C1553.84,-57.4455 1516.69,-40.7002 1491.07,-29.1546"/>
<polygon fill="midnightblue" stroke="midnightblue" points="1492.43,-25.9277 1481.88,-25.0091 1489.56,-32.3094 1492.43,-25.9277"/>
</g>
<!-- Node29 -->
<g id="node29" class="node"><title>Node29</title>
<polygon fill="none" stroke="#bfbfbf" points="1539.5,-0.5 1539.5,-30.5 1674.5,-30.5 1674.5,-0.5 1539.5,-0.5"/>
<text text-anchor="start" x="1547.5" y="-18.5" font-family="Helvetica,sans-Serif" font-size="10.00">Configuration/Configuration</text>
<text text-anchor="middle" x="1607" y="-7.5" font-family="Helvetica,sans-Serif" font-size="10.00">Factory.h</text>
</g>
<!-- Node28&#45;&gt;Node29 -->
<g id="edge48" class="edge"><title>Node28&#45;&gt;Node29</title>
<path fill="none" stroke="midnightblue" d="M1596.72,-67.4751C1598.15,-60.3957 1600.25,-49.9705 1602.18,-40.3896"/>
<polygon fill="midnightblue" stroke="midnightblue" points="1605.63,-41.0176 1604.17,-30.523 1598.76,-39.6336 1605.63,-41.0176"/>
</g>
<!-- Node30&#45;&gt;Node5 -->
<g id="edge51" class="edge"><title>Node30&#45;&gt;Node5</title>
<path fill="none" stroke="midnightblue" d="M1451.27,-191.271C1318.2,-186.577 1045.71,-173.484 956,-143 945.026,-139.271 873.792,-97.0387 868,-87 858.926,-71.2722 859.354,-50.1237 861.322,-35.1037"/>
<polygon fill="midnightblue" stroke="midnightblue" points="864.814,-35.4414 862.996,-25.0037 857.908,-34.2969 864.814,-35.4414"/>
</g>
<!-- Node30&#45;&gt;Node9 -->
<g id="edge53" class="edge"><title>Node30&#45;&gt;Node9</title>
<path fill="none" stroke="midnightblue" d="M1600.77,-183.505C1661.86,-174.855 1750.61,-161.188 1836.86,-143.075"/>
<polygon fill="midnightblue" stroke="midnightblue" points="1837.76,-146.462 1846.82,-140.962 1836.31,-139.614 1837.76,-146.462"/>
</g>
<!-- Node30&#45;&gt;Node10 -->
<g id="edge52" class="edge"><title>Node30&#45;&gt;Node10</title>
<path fill="none" stroke="midnightblue" d="M1457.07,-179.488C1408.39,-169.517 1341.64,-155.69 1283,-143 1281.75,-142.729 1280.47,-142.452 1279.19,-142.17"/>
<polygon fill="midnightblue" stroke="midnightblue" points="1279.76,-138.711 1269.24,-139.968 1278.24,-145.546 1279.76,-138.711"/>
</g>
<!-- Node30&#45;&gt;Node19 -->
<g id="edge58" class="edge"><title>Node30&#45;&gt;Node19</title>
<path fill="none" stroke="midnightblue" d="M1495.9,-179.399C1474.88,-169.55 1447.03,-156.501 1426.58,-146.922"/>
<polygon fill="midnightblue" stroke="midnightblue" points="1428.02,-143.731 1417.48,-142.658 1425.05,-150.07 1428.02,-143.731"/>
</g>
<!-- Node30&#45;&gt;Node23 -->
<g id="edge57" class="edge"><title>Node30&#45;&gt;Node23</title>
<path fill="none" stroke="midnightblue" d="M1451.28,-180.241C1410.55,-171.85 1359.69,-159.456 1316,-143 1298.14,-136.273 1295.04,-131.602 1278,-123 1256.05,-111.916 1230.94,-99.7976 1212.34,-90.9315"/>
<polygon fill="midnightblue" stroke="midnightblue" points="1213.8,-87.7489 1203.27,-86.6144 1210.79,-94.0703 1213.8,-87.7489"/>
</g>
<!-- Node31 -->
<g id="node31" class="node"><title>Node31</title>
<polygon fill="none" stroke="#bfbfbf" points="1491.5,-123.5 1491.5,-142.5 1560.5,-142.5 1560.5,-123.5 1491.5,-123.5"/>
<text text-anchor="middle" x="1526" y="-130.5" font-family="Helvetica,sans-Serif" font-size="10.00">TObjArray.h</text>
</g>
<!-- Node30&#45;&gt;Node31 -->
<g id="edge54" class="edge"><title>Node30&#45;&gt;Node31</title>
<path fill="none" stroke="midnightblue" d="M1526,-179.399C1526,-171.466 1526,-161.458 1526,-152.858"/>
<polygon fill="midnightblue" stroke="midnightblue" points="1529.5,-152.658 1526,-142.658 1522.5,-152.658 1529.5,-152.658"/>
</g>
<!-- Node32 -->
<g id="node32" class="node"><title>Node32</title>
<polygon fill="none" stroke="#bfbfbf" points="1579,-123.5 1579,-142.5 1677,-142.5 1677,-123.5 1579,-123.5"/>
<text text-anchor="middle" x="1628" y="-130.5" font-family="Helvetica,sans-Serif" font-size="10.00">Framework/Task.h</text>
</g>
<!-- Node30&#45;&gt;Node32 -->
<g id="edge55" class="edge"><title>Node30&#45;&gt;Node32</title>
<path fill="none" stroke="midnightblue" d="M1550.17,-179.399C1566.52,-169.862 1588.01,-157.325 1604.27,-147.842"/>
<polygon fill="midnightblue" stroke="midnightblue" points="1606.28,-150.72 1613.16,-142.658 1602.76,-144.673 1606.28,-150.72"/>
</g>
<!-- Node33 -->
<g id="node33" class="node"><title>Node33</title>
<polygon fill="none" stroke="#bfbfbf" points="1695,-123.5 1695,-142.5 1829,-142.5 1829,-123.5 1695,-123.5"/>
<text text-anchor="middle" x="1762" y="-130.5" font-family="Helvetica,sans-Serif" font-size="10.00">Framework/DataRefUtils.h</text>
</g>
<!-- Node30&#45;&gt;Node33 -->
<g id="edge56" class="edge"><title>Node30&#45;&gt;Node33</title>
<path fill="none" stroke="midnightblue" d="M1581.63,-179.475C1623.41,-168.941 1679.83,-154.716 1718.38,-144.998"/>
<polygon fill="midnightblue" stroke="midnightblue" points="1719.42,-148.345 1728.26,-142.506 1717.71,-141.557 1719.42,-148.345"/>
</g>
</g>
</svg>
        <g id="navigator" transform="translate(0 0)" fill="#404254">
                <rect fill="#f2f5e9" fill-opacity="0.5" stroke="#606060" stroke-width=".5" x="0" y="0" width="60" height="60"/>
                <use id="zoomplus" xlink:href="#zoomPlus" x="17" y="9" onmousedown="handleZoom(evt,'in')"/>
                <use id="zoomminus" xlink:href="#zoomMin" x="42" y="9" onmousedown="handleZoom(evt,'out')"/>
                <use id="reset" xlink:href="#resetDef" x="30" y="36" onmousedown="handleReset()"/>
                <g id="arrowUp" xlink:href="#dirArrow" transform="translate(30 24)" onmousedown="handlePan(0,-1)">
                  <use xlink:href="#rim" fill="#404040">
                        <set attributeName="fill" to="#808080" begin="arrowUp.mouseover" end="arrowUp.mouseout"/>
                  </use>
                  <path fill="none" stroke="white" stroke-width="1.5" d="M0,-3.0v7 M-2.5,-0.5L0,-3.0L2.5,-0.5"/>
                </g>
                <g id="arrowRight" xlink:href="#dirArrow" transform="rotate(90) translate(36 -43)" onmousedown="handlePan(1,0)">
                  <use xlink:href="#rim" fill="#404040">
                        <set attributeName="fill" to="#808080" begin="arrowRight.mouseover" end="arrowRight.mouseout"/>
                  </use>
                  <path fill="none" stroke="white" stroke-width="1.5" d="M0,-3.0v7 M-2.5,-0.5L0,-3.0L2.5,-0.5"/>
                </g>
                <g id="arrowDown" xlink:href="#dirArrow" transform="rotate(180) translate(-30 -48)" onmousedown="handlePan(0,1)">
                  <use xlink:href="#rim" fill="#404040">
                        <set attributeName="fill" to="#808080" begin="arrowDown.mouseover" end="arrowDown.mouseout"/>
                  </use>
                  <path fill="none" stroke="white" stroke-width="1.5" d="M0,-3.0v7 M-2.5,-0.5L0,-3.0L2.5,-0.5"/>
                </g>
                <g id="arrowLeft" xlink:href="#dirArrow" transform="rotate(270) translate(-36 17)" onmousedown="handlePan(-1,0)">
                  <use xlink:href="#rim" fill="#404040">
                        <set attributeName="fill" to="#808080" begin="arrowLeft.mouseover" end="arrowLeft.mouseout"/>
                  </use>
                  <path fill="none" stroke="white" stroke-width="1.5" d="M0,-3.0v7 M-2.5,-0.5L0,-3.0L2.5,-0.5"/>
                </g>
        </g>
        <svg viewBox="0 0 15 15" width="100%" height="30px" preserveAspectRatio="xMaxYMin meet">
         <g id="arrow_out" transform="scale(0.3 0.3)">
          <a xlink:href="runITS_8cxx__incl_org.svg" target="_base">
           <rect id="button" ry="5" rx="5" y="6" x="6" height="38" width="38"
                fill="#f2f5e9" fill-opacity="0.5" stroke="#606060" stroke-width="1.0"/>
           <path id="arrow"
             d="M 11.500037,31.436501 C 11.940474,20.09759 22.043105,11.32322 32.158766,21.979434 L 37.068811,17.246167 C 37.068811,17.246167 37.088388,32 37.088388,32 L 22.160133,31.978069 C 22.160133,31.978069 26.997745,27.140456 26.997745,27.140456 C 18.528582,18.264221 13.291696,25.230495 11.500037,31.436501 z"
             style="fill:#404040;"/>
          </a>
         </g>
        </svg>
</svg>
