<?xml version="1.0" encoding="UTF-8" standalone="no"?>
<!DOCTYPE svg PUBLIC "-//W3C//DTD SVG 1.1//EN"
 "http://www.w3.org/Graphics/SVG/1.1/DTD/svg11.dtd">
<!-- Generated by graphviz version 2.38.0 (20140413.2041)
 -->
<!-- Title: Framework/src/runPostProcessing.cxx Pages: 1 -->
<svg width="1027pt" height="330pt"
 viewBox="0.00 0.00 1026.50 330.00" xmlns="http://www.w3.org/2000/svg" xmlns:xlink="http://www.w3.org/1999/xlink">
<g id="graph0" class="graph" transform="scale(1 1) rotate(0) translate(4 326)">
<title>Framework/src/runPostProcessing.cxx</title>
<!-- Node1 -->
<g id="node1" class="node"><title>Node1</title>
<polygon fill="#bfbfbf" stroke="black" points="631.5,-302.5 631.5,-321.5 817.5,-321.5 817.5,-302.5 631.5,-302.5"/>
<text text-anchor="middle" x="724.5" y="-309.5" font-family="Helvetica,sans-Serif" font-size="10.00">Framework/src/runPostProcessing.cxx</text>
</g>
<!-- Node2 -->
<g id="node2" class="node"><title>Node2</title>
<g id="a_node2"><a xlink:href="PostProcessingRunner_8h.html" target="_top" xlink:title="QualityControl/PostProcessing\lRunner.h">
<polygon fill="none" stroke="black" points="304,-235.5 304,-265.5 455,-265.5 455,-235.5 304,-235.5"/>
<text text-anchor="start" x="312" y="-253.5" font-family="Helvetica,sans-Serif" font-size="10.00">QualityControl/PostProcessing</text>
<text text-anchor="middle" x="379.5" y="-242.5" font-family="Helvetica,sans-Serif" font-size="10.00">Runner.h</text>
</a>
</g>
</g>
<!-- Node1&#45;&gt;Node2 -->
<g id="edge1" class="edge"><title>Node1&#45;&gt;Node2</title>
<path fill="none" stroke="midnightblue" d="M675.07,-302.475C620.397,-293.046 531.308,-277.681 465.21,-266.282"/>
<polygon fill="midnightblue" stroke="midnightblue" points="465.669,-262.81 455.22,-264.559 464.48,-269.708 465.669,-262.81"/>
</g>
<!-- Node21 -->
<g id="node21" class="node"><title>Node21</title>
<g id="a_node21"><a xlink:href="QcInfoLogger_8h.html" target="_top" xlink:title="QualityControl/QcInfoLogger.h">
<polygon fill="none" stroke="black" points="581,-241 581,-260 730,-260 730,-241 581,-241"/>
<text text-anchor="middle" x="655.5" y="-248" font-family="Helvetica,sans-Serif" font-size="10.00">QualityControl/QcInfoLogger.h</text>
</a>
</g>
</g>
<!-- Node1&#45;&gt;Node21 -->
<g id="edge33" class="edge"><title>Node1&#45;&gt;Node21</title>
<path fill="none" stroke="midnightblue" d="M714.614,-302.475C703.854,-293.197 686.429,-278.171 673.279,-266.831"/>
<polygon fill="midnightblue" stroke="midnightblue" points="675.227,-263.889 665.368,-260.009 670.655,-269.19 675.227,-263.889"/>
</g>
<!-- Node23 -->
<g id="node23" class="node"><title>Node23</title>
<polygon fill="none" stroke="#bfbfbf" points="748.5,-241 748.5,-260 840.5,-260 840.5,-241 748.5,-241"/>
<text text-anchor="middle" x="794.5" y="-248" font-family="Helvetica,sans-Serif" font-size="10.00">Common/Timer.h</text>
</g>
<!-- Node1&#45;&gt;Node23 -->
<g id="edge35" class="edge"><title>Node1&#45;&gt;Node23</title>
<path fill="none" stroke="midnightblue" d="M734.529,-302.475C745.549,-293.108 763.46,-277.884 776.843,-266.508"/>
<polygon fill="midnightblue" stroke="midnightblue" points="779.137,-269.152 784.489,-260.009 774.603,-263.819 779.137,-269.152"/>
</g>
<!-- Node24 -->
<g id="node24" class="node"><title>Node24</title>
<polygon fill="none" stroke="#bfbfbf" points="858.5,-241 858.5,-260 992.5,-260 992.5,-241 858.5,-241"/>
<text text-anchor="middle" x="925.5" y="-248" font-family="Helvetica,sans-Serif" font-size="10.00">boost/program_options.hpp</text>
</g>
<!-- Node1&#45;&gt;Node24 -->
<g id="edge36" class="edge"><title>Node1&#45;&gt;Node24</title>
<path fill="none" stroke="midnightblue" d="M753.298,-302.475C788.374,-292.092 847.763,-274.512 886.807,-262.954"/>
<polygon fill="midnightblue" stroke="midnightblue" points="888.16,-266.204 896.755,-260.009 886.173,-259.492 888.16,-266.204"/>
</g>
<!-- Node3 -->
<g id="node3" class="node"><title>Node3</title>
<polygon fill="none" stroke="#bfbfbf" points="920.5,-112.5 920.5,-131.5 972.5,-131.5 972.5,-112.5 920.5,-112.5"/>
<text text-anchor="middle" x="946.5" y="-119.5" font-family="Helvetica,sans-Serif" font-size="10.00">memory</text>
</g>
<!-- Node2&#45;&gt;Node3 -->
<g id="edge2" class="edge"><title>Node2&#45;&gt;Node3</title>
<path fill="none" stroke="midnightblue" d="M455.259,-245.623C511.827,-240.366 589.843,-228.009 652.5,-199 672.279,-189.843 670.624,-176.945 690.5,-168 778.326,-128.475 811.922,-150.854 910.154,-132.056"/>
<polygon fill="midnightblue" stroke="midnightblue" points="911.073,-135.441 920.186,-130.038 909.692,-128.579 911.073,-135.441"/>
</g>
<!-- Node4 -->
<g id="node4" class="node"><title>Node4</title>
<polygon fill="none" stroke="#bfbfbf" points="181.5,-112.5 181.5,-131.5 327.5,-131.5 327.5,-112.5 181.5,-112.5"/>
<text text-anchor="middle" x="254.5" y="-119.5" font-family="Helvetica,sans-Serif" font-size="10.00">Framework/ServiceRegistry.h</text>
</g>
<!-- Node2&#45;&gt;Node4 -->
<g id="edge3" class="edge"><title>Node2&#45;&gt;Node4</title>
<path fill="none" stroke="midnightblue" d="M346.699,-235.377C329.558,-226.764 309.157,-214.434 294.5,-199 278.665,-182.326 267.393,-158.161 260.932,-141.581"/>
<polygon fill="midnightblue" stroke="midnightblue" points="264.121,-140.111 257.382,-131.936 257.551,-142.529 264.121,-140.111"/>
</g>
<!-- Node5 -->
<g id="node5" class="node"><title>Node5</title>
<g id="a_node5"><a xlink:href="PostProcessingInterface_8h.html" target="_top" xlink:title="QualityControl/PostProcessing\lInterface.h">
<polygon fill="none" stroke="black" points="94,-168.5 94,-198.5 245,-198.5 245,-168.5 94,-168.5"/>
<text text-anchor="start" x="102" y="-186.5" font-family="Helvetica,sans-Serif" font-size="10.00">QualityControl/PostProcessing</text>
<text text-anchor="middle" x="169.5" y="-175.5" font-family="Helvetica,sans-Serif" font-size="10.00">Interface.h</text>
</a>
</g>
</g>
<!-- Node2&#45;&gt;Node5 -->
<g id="edge4" class="edge"><title>Node2&#45;&gt;Node5</title>
<path fill="none" stroke="midnightblue" d="M334.192,-235.476C302.147,-225.557 258.995,-212.201 224.901,-201.648"/>
<polygon fill="midnightblue" stroke="midnightblue" points="225.677,-198.224 215.089,-198.611 223.607,-204.911 225.677,-198.224"/>
</g>
<!-- Node7 -->
<g id="node7" class="node"><title>Node7</title>
<g id="a_node7"><a xlink:href="Triggers_8h.html" target="_top" xlink:title="QualityControl/Triggers.h">
<polygon fill="none" stroke="black" points="0,-112.5 0,-131.5 125,-131.5 125,-112.5 0,-112.5"/>
<text text-anchor="middle" x="62.5" y="-119.5" font-family="Helvetica,sans-Serif" font-size="10.00">QualityControl/Triggers.h</text>
</a>
</g>
</g>
<!-- Node2&#45;&gt;Node7 -->
<g id="edge13" class="edge"><title>Node2&#45;&gt;Node7</title>
<path fill="none" stroke="midnightblue" d="M303.844,-245.546C227.379,-240.014 116.125,-227.261 84.5,-199 68.3683,-184.584 63.7588,-159.14 62.5999,-141.693"/>
<polygon fill="midnightblue" stroke="midnightblue" points="66.0938,-141.453 62.2502,-131.58 59.098,-141.695 66.0938,-141.453"/>
</g>
<!-- Node9 -->
<g id="node9" class="node"><title>Node9</title>
<g id="a_node9"><a xlink:href="PostProcessingConfig_8h.html" target="_top" xlink:title="QualityControl/PostProcessing\lConfig.h">
<polygon fill="none" stroke="black" points="304,-168.5 304,-198.5 455,-198.5 455,-168.5 304,-168.5"/>
<text text-anchor="start" x="312" y="-186.5" font-family="Helvetica,sans-Serif" font-size="10.00">QualityControl/PostProcessing</text>
<text text-anchor="middle" x="379.5" y="-175.5" font-family="Helvetica,sans-Serif" font-size="10.00">Config.h</text>
</a>
</g>
</g>
<!-- Node2&#45;&gt;Node9 -->
<g id="edge10" class="edge"><title>Node2&#45;&gt;Node9</title>
<path fill="none" stroke="midnightblue" d="M379.5,-235.396C379.5,-227.645 379.5,-217.812 379.5,-208.86"/>
<polygon fill="midnightblue" stroke="midnightblue" points="383,-208.576 379.5,-198.577 376,-208.577 383,-208.576"/>
</g>
<!-- Node11 -->
<g id="node11" class="node"><title>Node11</title>
<g id="a_node11"><a xlink:href="DatabaseInterface_8h.html" target="_top" xlink:title="QualityControl/DatabaseInterface.h">
<polygon fill="none" stroke="black" points="473.5,-174 473.5,-193 643.5,-193 643.5,-174 473.5,-174"/>
<text text-anchor="middle" x="558.5" y="-181" font-family="Helvetica,sans-Serif" font-size="10.00">QualityControl/DatabaseInterface.h</text>
</a>
</g>
</g>
<!-- Node2&#45;&gt;Node11 -->
<g id="edge14" class="edge"><title>Node2&#45;&gt;Node11</title>
<path fill="none" stroke="midnightblue" d="M418.34,-235.396C450.304,-223.789 495.121,-207.515 525.401,-196.519"/>
<polygon fill="midnightblue" stroke="midnightblue" points="526.868,-199.71 535.073,-193.007 524.479,-193.13 526.868,-199.71"/>
</g>
<!-- Node5&#45;&gt;Node4 -->
<g id="edge6" class="edge"><title>Node5&#45;&gt;Node4</title>
<path fill="none" stroke="midnightblue" d="M189.644,-168.399C202.887,-159.129 220.178,-147.025 233.576,-137.647"/>
<polygon fill="midnightblue" stroke="midnightblue" points="235.947,-140.26 242.132,-131.658 231.932,-134.525 235.947,-140.26"/>
</g>
<!-- Node6 -->
<g id="node6" class="node"><title>Node6</title>
<polygon fill="none" stroke="#bfbfbf" points="385,-0.5 385,-19.5 426,-19.5 426,-0.5 385,-0.5"/>
<text text-anchor="middle" x="405.5" y="-7.5" font-family="Helvetica,sans-Serif" font-size="10.00">string</text>
</g>
<!-- Node5&#45;&gt;Node6 -->
<g id="edge5" class="edge"><title>Node5&#45;&gt;Node6</title>
<path fill="none" stroke="midnightblue" d="M166.028,-168.423C163.114,-153.13 161.051,-128.658 172.5,-112 219.361,-43.8182 322.716,-21.3245 374.564,-14.1737"/>
<polygon fill="midnightblue" stroke="midnightblue" points="375.33,-17.6046 384.807,-12.8697 374.445,-10.6606 375.33,-17.6046"/>
</g>
<!-- Node5&#45;&gt;Node7 -->
<g id="edge7" class="edge"><title>Node5&#45;&gt;Node7</title>
<path fill="none" stroke="midnightblue" d="M144.142,-168.399C126.831,-158.773 104.024,-146.09 86.9161,-136.577"/>
<polygon fill="midnightblue" stroke="midnightblue" points="88.5101,-133.459 78.0694,-131.658 85.1081,-139.577 88.5101,-133.459"/>
</g>
<!-- Node7&#45;&gt;Node6 -->
<g id="edge8" class="edge"><title>Node7&#45;&gt;Node6</title>
<path fill="none" stroke="midnightblue" d="M70.002,-112.149C82.7096,-97.8014 109.982,-69.6929 139.5,-56 218.634,-19.2909 323.421,-12.1774 374.646,-11.0261"/>
<polygon fill="midnightblue" stroke="midnightblue" points="374.793,-14.5243 384.735,-10.8624 374.68,-7.5252 374.793,-14.5243"/>
</g>
<!-- Node8 -->
<g id="node8" class="node"><title>Node8</title>
<polygon fill="none" stroke="#bfbfbf" points="28,-56.5 28,-75.5 87,-75.5 87,-56.5 28,-56.5"/>
<text text-anchor="middle" x="57.5" y="-63.5" font-family="Helvetica,sans-Serif" font-size="10.00">functional</text>
</g>
<!-- Node7&#45;&gt;Node8 -->
<g id="edge9" class="edge"><title>Node7&#45;&gt;Node8</title>
<path fill="none" stroke="midnightblue" d="M61.6744,-112.083C61.0191,-105.006 60.0797,-94.8611 59.258,-85.9865"/>
<polygon fill="midnightblue" stroke="midnightblue" points="62.7174,-85.3858 58.3103,-75.7511 55.7473,-86.0312 62.7174,-85.3858"/>
</g>
<!-- Node9&#45;&gt;Node6 -->
<g id="edge12" class="edge"><title>Node9&#45;&gt;Node6</title>
<path fill="none" stroke="midnightblue" d="M377.725,-168.379C376.547,-158.268 375.108,-144.319 374.5,-132 374.062,-123.122 373.181,-120.791 374.5,-112 378.975,-82.1711 390.492,-48.9884 398.158,-29.069"/>
<polygon fill="midnightblue" stroke="midnightblue" points="401.436,-30.2973 401.855,-19.7107 394.925,-27.7255 401.436,-30.2973"/>
</g>
<!-- Node10 -->
<g id="node10" class="node"><title>Node10</title>
<polygon fill="none" stroke="#bfbfbf" points="383.5,-112.5 383.5,-131.5 427.5,-131.5 427.5,-112.5 383.5,-112.5"/>
<text text-anchor="middle" x="405.5" y="-119.5" font-family="Helvetica,sans-Serif" font-size="10.00">vector</text>
</g>
<!-- Node9&#45;&gt;Node10 -->
<g id="edge11" class="edge"><title>Node9&#45;&gt;Node10</title>
<path fill="none" stroke="midnightblue" d="M385.662,-168.399C389.245,-160.199 393.797,-149.781 397.637,-140.994"/>
<polygon fill="midnightblue" stroke="midnightblue" points="400.92,-142.223 401.717,-131.658 394.505,-139.42 400.92,-142.223"/>
</g>
<!-- Node11&#45;&gt;Node3 -->
<g id="edge16" class="edge"><title>Node11&#45;&gt;Node3</title>
<path fill="none" stroke="midnightblue" d="M616.339,-173.983C629.845,-172.006 644.175,-169.92 657.5,-168 767.156,-152.199 797.944,-154.105 910.174,-132.084"/>
<polygon fill="midnightblue" stroke="midnightblue" points="911.07,-135.475 920.198,-130.097 909.709,-128.608 911.07,-135.475"/>
</g>
<!-- Node11&#45;&gt;Node6 -->
<g id="edge15" class="edge"><title>Node11&#45;&gt;Node6</title>
<path fill="none" stroke="midnightblue" d="M538.2,-173.929C519.839,-165.397 492.934,-150.863 474.5,-132 444.331,-101.128 422.687,-54.4801 412.348,-29.0658"/>
<polygon fill="midnightblue" stroke="midnightblue" points="415.534,-27.6063 408.616,-19.5819 409.02,-30.169 415.534,-27.6063"/>
</g>
<!-- Node11&#45;&gt;Node10 -->
<g id="edge17" class="edge"><title>Node11&#45;&gt;Node10</title>
<path fill="none" stroke="midnightblue" d="M536.579,-173.975C510.448,-163.813 466.588,-146.756 436.87,-135.2"/>
<polygon fill="midnightblue" stroke="midnightblue" points="437.969,-131.872 427.381,-131.509 435.432,-138.396 437.969,-131.872"/>
</g>
<!-- Node12 -->
<g id="node12" class="node"><title>Node12</title>
<polygon fill="none" stroke="#bfbfbf" points="653,-112.5 653,-131.5 736,-131.5 736,-112.5 653,-112.5"/>
<text text-anchor="middle" x="694.5" y="-119.5" font-family="Helvetica,sans-Serif" font-size="10.00">unordered_map</text>
</g>
<!-- Node11&#45;&gt;Node12 -->
<g id="edge18" class="edge"><title>Node11&#45;&gt;Node12</title>
<path fill="none" stroke="midnightblue" d="M577.985,-173.975C600.91,-163.945 639.185,-147.2 665.575,-135.655"/>
<polygon fill="midnightblue" stroke="midnightblue" points="667.292,-138.724 675.051,-131.509 664.486,-132.311 667.292,-138.724"/>
</g>
<!-- Node13 -->
<g id="node13" class="node"><title>Node13</title>
<g id="a_node13"><a xlink:href="QualityObject_8h_source.html" target="_top" xlink:title="QualityControl/QualityObject.h">
<polygon fill="none" stroke="black" points="754,-112.5 754,-131.5 903,-131.5 903,-112.5 754,-112.5"/>
<text text-anchor="middle" x="828.5" y="-119.5" font-family="Helvetica,sans-Serif" font-size="10.00">QualityControl/QualityObject.h</text>
</a>
</g>
</g>
<!-- Node11&#45;&gt;Node13 -->
<g id="edge19" class="edge"><title>Node11&#45;&gt;Node13</title>
<path fill="none" stroke="midnightblue" d="M597.184,-173.975C645.303,-163.371 727.487,-145.26 779.835,-133.724"/>
<polygon fill="midnightblue" stroke="midnightblue" points="780.875,-137.079 789.887,-131.509 779.368,-130.243 780.875,-137.079"/>
</g>
<!-- Node20 -->
<g id="node20" class="node"><title>Node20</title>
<g id="a_node20"><a xlink:href="MonitorObject_8h.html" target="_top" xlink:title="QualityControl/MonitorObject.h">
<polygon fill="none" stroke="black" points="484,-112.5 484,-131.5 635,-131.5 635,-112.5 484,-112.5"/>
<text text-anchor="middle" x="559.5" y="-119.5" font-family="Helvetica,sans-Serif" font-size="10.00">QualityControl/MonitorObject.h</text>
</a>
</g>
</g>
<!-- Node11&#45;&gt;Node20 -->
<g id="edge27" class="edge"><title>Node11&#45;&gt;Node20</title>
<path fill="none" stroke="midnightblue" d="M558.643,-173.975C558.784,-165.58 559.005,-152.481 559.186,-141.663"/>
<polygon fill="midnightblue" stroke="midnightblue" points="562.688,-141.567 559.357,-131.509 555.689,-141.449 562.688,-141.567"/>
</g>
<!-- Node14 -->
<g id="node14" class="node"><title>Node14</title>
<polygon fill="none" stroke="#bfbfbf" points="964.5,-56.5 964.5,-75.5 1018.5,-75.5 1018.5,-56.5 964.5,-56.5"/>
<text text-anchor="middle" x="991.5" y="-63.5" font-family="Helvetica,sans-Serif" font-size="10.00">iostream</text>
</g>
<!-- Node13&#45;&gt;Node14 -->
<g id="edge20" class="edge"><title>Node13&#45;&gt;Node14</title>
<path fill="none" stroke="midnightblue" d="M854.328,-112.444C881.749,-103.359 925.277,-88.9388 955.932,-78.7831"/>
<polygon fill="midnightblue" stroke="midnightblue" points="957.401,-81.9837 965.793,-75.5164 955.2,-75.3389 957.401,-81.9837"/>
</g>
<!-- Node15 -->
<g id="node15" class="node"><title>Node15</title>
<polygon fill="none" stroke="#bfbfbf" points="560,-56.5 560,-75.5 595,-75.5 595,-56.5 560,-56.5"/>
<text text-anchor="middle" x="577.5" y="-63.5" font-family="Helvetica,sans-Serif" font-size="10.00">map</text>
</g>
<!-- Node13&#45;&gt;Node15 -->
<g id="edge21" class="edge"><title>Node13&#45;&gt;Node15</title>
<path fill="none" stroke="midnightblue" d="M775.292,-112.46C731.639,-104.979 668.121,-93.0134 604.773,-76.075"/>
<polygon fill="midnightblue" stroke="midnightblue" points="605.589,-72.6698 595.021,-73.427 603.755,-79.4252 605.589,-72.6698"/>
</g>
<!-- Node16 -->
<g id="node16" class="node"><title>Node16</title>
<polygon fill="none" stroke="#bfbfbf" points="613,-56.5 613,-75.5 672,-75.5 672,-56.5 613,-56.5"/>
<text text-anchor="middle" x="642.5" y="-63.5" font-family="Helvetica,sans-Serif" font-size="10.00">TObject.h</text>
</g>
<!-- Node13&#45;&gt;Node16 -->
<g id="edge22" class="edge"><title>Node13&#45;&gt;Node16</title>
<path fill="none" stroke="midnightblue" d="M799.028,-112.444C767.329,-103.241 716.768,-88.5617 681.725,-78.3879"/>
<polygon fill="midnightblue" stroke="midnightblue" points="682.414,-74.9434 671.834,-75.5164 680.462,-81.6658 682.414,-74.9434"/>
</g>
<!-- Node17 -->
<g id="node17" class="node"><title>Node17</title>
<polygon fill="none" stroke="#bfbfbf" points="690.5,-56.5 690.5,-75.5 806.5,-75.5 806.5,-56.5 690.5,-56.5"/>
<text text-anchor="middle" x="748.5" y="-63.5" font-family="Helvetica,sans-Serif" font-size="10.00">Common/Exceptions.h</text>
</g>
<!-- Node13&#45;&gt;Node17 -->
<g id="edge23" class="edge"><title>Node13&#45;&gt;Node17</title>
<path fill="none" stroke="midnightblue" d="M815.647,-112.324C803.284,-103.979 784.37,-91.2122 769.763,-81.3524"/>
<polygon fill="midnightblue" stroke="midnightblue" points="771.568,-78.3483 761.321,-75.6545 767.652,-84.1503 771.568,-78.3483"/>
</g>
<!-- Node18 -->
<g id="node18" class="node"><title>Node18</title>
<g id="a_node18"><a xlink:href="Quality_8h.html" target="_top" xlink:title="QualityControl/Quality.h">
<polygon fill="none" stroke="black" points="825,-56.5 825,-75.5 946,-75.5 946,-56.5 825,-56.5"/>
<text text-anchor="middle" x="885.5" y="-63.5" font-family="Helvetica,sans-Serif" font-size="10.00">QualityControl/Quality.h</text>
</a>
</g>
</g>
<!-- Node13&#45;&gt;Node18 -->
<g id="edge24" class="edge"><title>Node13&#45;&gt;Node18</title>
<path fill="none" stroke="midnightblue" d="M837.658,-112.324C846.001,-104.42 858.532,-92.5482 868.677,-82.9377"/>
<polygon fill="midnightblue" stroke="midnightblue" points="871.323,-85.2522 876.175,-75.8339 866.509,-80.1705 871.323,-85.2522"/>
</g>
<!-- Node18&#45;&gt;Node6 -->
<g id="edge26" class="edge"><title>Node18&#45;&gt;Node6</title>
<path fill="none" stroke="midnightblue" d="M824.802,-57.126C821.657,-56.7399 818.542,-56.3624 815.5,-56 674.1,-39.1517 504.977,-21.325 436.525,-14.2066"/>
<polygon fill="midnightblue" stroke="midnightblue" points="436.731,-10.7093 426.423,-13.1579 436.008,-17.6718 436.731,-10.7093"/>
</g>
<!-- Node19 -->
<g id="node19" class="node"><title>Node19</title>
<polygon fill="none" stroke="#bfbfbf" points="680.5,-0.5 680.5,-19.5 736.5,-19.5 736.5,-0.5 680.5,-0.5"/>
<text text-anchor="middle" x="708.5" y="-7.5" font-family="Helvetica,sans-Serif" font-size="10.00">Rtypes.h</text>
</g>
<!-- Node18&#45;&gt;Node19 -->
<g id="edge25" class="edge"><title>Node18&#45;&gt;Node19</title>
<path fill="none" stroke="midnightblue" d="M857.454,-56.4435C827.418,-47.2801 779.587,-32.6876 746.257,-22.5192"/>
<polygon fill="midnightblue" stroke="midnightblue" points="747.001,-19.0869 736.415,-19.5164 744.958,-25.7822 747.001,-19.0869"/>
</g>
<!-- Node20&#45;&gt;Node6 -->
<g id="edge28" class="edge"><title>Node20&#45;&gt;Node6</title>
<path fill="none" stroke="midnightblue" d="M547.597,-112.33C530.403,-99.8235 497.596,-76.0221 469.5,-56 455.08,-45.7242 438.751,-34.245 426.196,-25.4526"/>
<polygon fill="midnightblue" stroke="midnightblue" points="428.002,-22.445 417.802,-19.5808 423.99,-28.1808 428.002,-22.445"/>
</g>
<!-- Node20&#45;&gt;Node15 -->
<g id="edge29" class="edge"><title>Node20&#45;&gt;Node15</title>
<path fill="none" stroke="midnightblue" d="M562.472,-112.083C564.884,-104.849 568.364,-94.4087 571.368,-85.3968"/>
<polygon fill="midnightblue" stroke="midnightblue" points="574.741,-86.3447 574.583,-75.7511 568.1,-84.1311 574.741,-86.3447"/>
</g>
<!-- Node20&#45;&gt;Node16 -->
<g id="edge31" class="edge"><title>Node20&#45;&gt;Node16</title>
<path fill="none" stroke="midnightblue" d="M572.835,-112.324C585.662,-103.979 605.285,-91.2122 620.44,-81.3524"/>
<polygon fill="midnightblue" stroke="midnightblue" points="622.724,-84.0417 629.198,-75.6545 618.907,-78.1742 622.724,-84.0417"/>
</g>
<!-- Node20&#45;&gt;Node17 -->
<g id="edge32" class="edge"><title>Node20&#45;&gt;Node17</title>
<path fill="none" stroke="midnightblue" d="M589.448,-112.444C621.658,-103.241 673.034,-88.5617 708.642,-78.3879"/>
<polygon fill="midnightblue" stroke="midnightblue" points="710.039,-81.629 718.692,-75.5164 708.116,-74.8984 710.039,-81.629"/>
</g>
<!-- Node20&#45;&gt;Node19 -->
<g id="edge30" class="edge"><title>Node20&#45;&gt;Node19</title>
<path fill="none" stroke="midnightblue" d="M554.768,-112.437C548.045,-98.9896 537.87,-72.7297 550.5,-56 564.947,-36.8637 628.573,-23.4528 670.545,-16.5013"/>
<polygon fill="midnightblue" stroke="midnightblue" points="671.127,-19.9529 680.446,-14.914 670.018,-13.0412 671.127,-19.9529"/>
</g>
<!-- Node22 -->
<g id="node22" class="node"><title>Node22</title>
<polygon fill="none" stroke="#bfbfbf" points="699.5,-174 699.5,-193 829.5,-193 829.5,-174 699.5,-174"/>
<text text-anchor="middle" x="764.5" y="-181" font-family="Helvetica,sans-Serif" font-size="10.00">InfoLogger/InfoLogger.hxx</text>
</g>
<!-- Node21&#45;&gt;Node22 -->
<g id="edge34" class="edge"><title>Node21&#45;&gt;Node22</title>
<path fill="none" stroke="midnightblue" d="M670.2,-240.734C688.423,-229.867 719.699,-211.216 741.202,-198.393"/>
<polygon fill="midnightblue" stroke="midnightblue" points="743.236,-201.255 750.033,-193.127 739.651,-195.243 743.236,-201.255"/>
</g>
</g>
</svg>
