<?xml version="1.0" encoding="UTF-8" standalone="no"?>
<!DOCTYPE svg PUBLIC "-//W3C//DTD SVG 1.1//EN"
 "http://www.w3.org/Graphics/SVG/1.1/DTD/svg11.dtd">
<!-- Generated by graphviz version 2.38.0 (20140413.2041)
 -->
<!-- Title: Framework/src/runQC.cxx Pages: 1 -->
<svg width="762pt" height="151pt"
 viewBox="0.00 0.00 762.00 151.00" xmlns="http://www.w3.org/2000/svg" xmlns:xlink="http://www.w3.org/1999/xlink">
<g id="graph0" class="graph" transform="scale(1 1) rotate(0) translate(4 147)">
<title>Framework/src/runQC.cxx</title>
<!-- Node1 -->
<g id="node1" class="node"><title>Node1</title>
<polygon fill="#bfbfbf" stroke="black" points="272,-123.5 272,-142.5 404,-142.5 404,-123.5 272,-123.5"/>
<text text-anchor="middle" x="338" y="-130.5" font-family="Helvetica,sans-Serif" font-size="10.00">Framework/src/runQC.cxx</text>
</g>
<!-- Node2 -->
<g id="node2" class="node"><title>Node2</title>
<polygon fill="none" stroke="#bfbfbf" points="0,-56.5 0,-86.5 94,-86.5 94,-56.5 0,-56.5"/>
<text text-anchor="start" x="8" y="-74.5" font-family="Helvetica,sans-Serif" font-size="10.00">boost/asio/ip/host</text>
<text text-anchor="middle" x="47" y="-63.5" font-family="Helvetica,sans-Serif" font-size="10.00">_name.hpp</text>
</g>
<!-- Node1&#45;&gt;Node2 -->
<g id="edge1" class="edge"><title>Node1&#45;&gt;Node2</title>
<path fill="none" stroke="midnightblue" d="M288.295,-123.438C242.741,-115.375 173.22,-102.533 103.794,-87.0981"/>
<polygon fill="midnightblue" stroke="midnightblue" points="104.524,-83.675 94.0006,-84.9032 102.993,-90.5055 104.524,-83.675"/>
</g>
<!-- Node3 -->
<g id="node3" class="node"><title>Node3</title>
<polygon fill="none" stroke="#bfbfbf" points="112,-62 112,-81 250,-81 250,-62 112,-62"/>
<text text-anchor="middle" x="181" y="-69" font-family="Helvetica,sans-Serif" font-size="10.00">Framework/DataSampling.h</text>
</g>
<!-- Node1&#45;&gt;Node3 -->
<g id="edge2" class="edge"><title>Node1&#45;&gt;Node3</title>
<path fill="none" stroke="midnightblue" d="M315.506,-123.475C288.691,-113.313 243.685,-96.2564 213.191,-84.6996"/>
<polygon fill="midnightblue" stroke="midnightblue" points="214.044,-81.2801 203.453,-81.0091 211.563,-87.8258 214.044,-81.2801"/>
</g>
<!-- Node4 -->
<g id="node4" class="node"><title>Node4</title>
<g id="a_node4"><a xlink:href="InfrastructureGenerator_8h.html" target="_top" xlink:title="QualityControl/Infrastructure\lGenerator.h">
<polygon fill="none" stroke="black" points="268,-56.5 268,-86.5 408,-86.5 408,-56.5 268,-56.5"/>
<text text-anchor="start" x="276" y="-74.5" font-family="Helvetica,sans-Serif" font-size="10.00">QualityControl/Infrastructure</text>
<text text-anchor="middle" x="338" y="-63.5" font-family="Helvetica,sans-Serif" font-size="10.00">Generator.h</text>
</a>
</g>
</g>
<!-- Node1&#45;&gt;Node4 -->
<g id="edge3" class="edge"><title>Node1&#45;&gt;Node4</title>
<path fill="none" stroke="midnightblue" d="M338,-123.475C338,-116.471 338,-106.192 338,-96.6956"/>
<polygon fill="midnightblue" stroke="midnightblue" points="341.5,-96.5229 338,-86.523 334.5,-96.523 341.5,-96.5229"/>
</g>
<!-- Node9 -->
<g id="node9" class="node"><title>Node9</title>
<g id="a_node9"><a xlink:href="QcInfoLogger_8h.html" target="_top" xlink:title="QualityControl/QcInfoLogger.h">
<polygon fill="none" stroke="black" points="426.5,-62 426.5,-81 575.5,-81 575.5,-62 426.5,-62"/>
<text text-anchor="middle" x="501" y="-69" font-family="Helvetica,sans-Serif" font-size="10.00">QualityControl/QcInfoLogger.h</text>
</a>
</g>
</g>
<!-- Node1&#45;&gt;Node9 -->
<g id="edge8" class="edge"><title>Node1&#45;&gt;Node9</title>
<path fill="none" stroke="midnightblue" d="M361.354,-123.475C389.314,-113.269 436.326,-96.108 467.991,-84.5492"/>
<polygon fill="midnightblue" stroke="midnightblue" points="469.496,-87.7259 477.689,-81.0091 467.095,-81.1503 469.496,-87.7259"/>
</g>
<!-- Node11 -->
<g id="node11" class="node"><title>Node11</title>
<polygon fill="none" stroke="#bfbfbf" points="594,-62 594,-81 754,-81 754,-62 594,-62"/>
<text text-anchor="middle" x="674" y="-69" font-family="Helvetica,sans-Serif" font-size="10.00">Framework/runDataProcessing.h</text>
</g>
<!-- Node1&#45;&gt;Node11 -->
<g id="edge10" class="edge"><title>Node1&#45;&gt;Node11</title>
<path fill="none" stroke="midnightblue" d="M386.141,-123.475C446.771,-112.739 550.859,-94.3063 615.864,-82.7949"/>
<polygon fill="midnightblue" stroke="midnightblue" points="616.712,-86.1993 625.949,-81.0091 615.492,-79.3065 616.712,-86.1993"/>
</g>
<!-- Node5 -->
<g id="node5" class="node"><title>Node5</title>
<polygon fill="none" stroke="#bfbfbf" points="146,-0.5 146,-19.5 190,-19.5 190,-0.5 146,-0.5"/>
<text text-anchor="middle" x="168" y="-7.5" font-family="Helvetica,sans-Serif" font-size="10.00">vector</text>
</g>
<!-- Node4&#45;&gt;Node5 -->
<g id="edge4" class="edge"><title>Node4&#45;&gt;Node5</title>
<path fill="none" stroke="midnightblue" d="M297.712,-56.3993C267.805,-45.9319 227.575,-31.8512 199.889,-22.161"/>
<polygon fill="midnightblue" stroke="midnightblue" points="200.893,-18.8044 190.298,-18.8044 198.581,-25.4115 200.893,-18.8044"/>
</g>
<!-- Node6 -->
<g id="node6" class="node"><title>Node6</title>
<polygon fill="none" stroke="#bfbfbf" points="208.5,-0.5 208.5,-19.5 249.5,-19.5 249.5,-0.5 208.5,-0.5"/>
<text text-anchor="middle" x="229" y="-7.5" font-family="Helvetica,sans-Serif" font-size="10.00">string</text>
</g>
<!-- Node4&#45;&gt;Node6 -->
<g id="edge5" class="edge"><title>Node4&#45;&gt;Node6</title>
<path fill="none" stroke="midnightblue" d="M312.169,-56.3993C294.533,-46.7728 271.3,-34.0902 253.872,-24.5772"/>
<polygon fill="midnightblue" stroke="midnightblue" points="255.315,-21.3771 244.86,-19.6578 251.961,-27.5213 255.315,-21.3771"/>
</g>
<!-- Node7 -->
<g id="node7" class="node"><title>Node7</title>
<polygon fill="none" stroke="#bfbfbf" points="268,-0.5 268,-19.5 408,-19.5 408,-0.5 268,-0.5"/>
<text text-anchor="middle" x="338" y="-7.5" font-family="Helvetica,sans-Serif" font-size="10.00">Framework/WorkflowSpec.h</text>
</g>
<!-- Node4&#45;&gt;Node7 -->
<g id="edge6" class="edge"><title>Node4&#45;&gt;Node7</title>
<path fill="none" stroke="midnightblue" d="M338,-56.3993C338,-48.4664 338,-38.458 338,-29.8583"/>
<polygon fill="midnightblue" stroke="midnightblue" points="341.5,-29.6577 338,-19.6578 334.5,-29.6578 341.5,-29.6577"/>
</g>
<!-- Node8 -->
<g id="node8" class="node"><title>Node8</title>
<polygon fill="none" stroke="#bfbfbf" points="426,-0.5 426,-19.5 590,-19.5 590,-0.5 426,-0.5"/>
<text text-anchor="middle" x="508" y="-7.5" font-family="Helvetica,sans-Serif" font-size="10.00">Framework/DataProcessorSpec.h</text>
</g>
<!-- Node4&#45;&gt;Node8 -->
<g id="edge7" class="edge"><title>Node4&#45;&gt;Node8</title>
<path fill="none" stroke="midnightblue" d="M378.288,-56.3993C407.32,-46.238 446.081,-32.6716 473.651,-23.0221"/>
<polygon fill="midnightblue" stroke="midnightblue" points="474.981,-26.2649 483.263,-19.6578 472.669,-19.6578 474.981,-26.2649"/>
</g>
<!-- Node10 -->
<g id="node10" class="node"><title>Node10</title>
<polygon fill="none" stroke="#bfbfbf" points="608,-0.5 608,-19.5 738,-19.5 738,-0.5 608,-0.5"/>
<text text-anchor="middle" x="673" y="-7.5" font-family="Helvetica,sans-Serif" font-size="10.00">InfoLogger/InfoLogger.hxx</text>
</g>
<!-- Node9&#45;&gt;Node10 -->
<g id="edge9" class="edge"><title>Node9&#45;&gt;Node10</title>
<path fill="none" stroke="midnightblue" d="M525.643,-61.9751C555.275,-51.7246 605.185,-34.4593 638.602,-22.8994"/>
<polygon fill="midnightblue" stroke="midnightblue" points="640.096,-26.0861 648.402,-19.5091 637.808,-19.4707 640.096,-26.0861"/>
</g>
</g>
</svg>
