<?xml version="1.0" encoding="UTF-8" standalone="no"?>
<!DOCTYPE svg PUBLIC "-//W3C//DTD SVG 1.1//EN"
 "http://www.w3.org/Graphics/SVG/1.1/DTD/svg11.dtd">
<!-- Generated by graphviz version 2.38.0 (20140413.2041)
 -->
<!-- Title: Framework/src/runReadoutForDataDump.cxx Pages: 1 -->
<svg width="737pt" height="162pt"
 viewBox="0.00 0.00 736.50 162.00" xmlns="http://www.w3.org/2000/svg" xmlns:xlink="http://www.w3.org/1999/xlink">
<g id="graph0" class="graph" transform="scale(1 1) rotate(0) translate(4 158)">
<title>Framework/src/runReadoutForDataDump.cxx</title>
<!-- Node1 -->
<g id="node1" class="node"><title>Node1</title>
<polygon fill="#bfbfbf" stroke="black" points="354.5,-123.5 354.5,-153.5 489.5,-153.5 489.5,-123.5 354.5,-123.5"/>
<text text-anchor="start" x="362.5" y="-141.5" font-family="Helvetica,sans-Serif" font-size="10.00">Framework/src/runReadout</text>
<text text-anchor="middle" x="422" y="-130.5" font-family="Helvetica,sans-Serif" font-size="10.00">ForDataDump.cxx</text>
</g>
<!-- Node2 -->
<g id="node2" class="node"><title>Node2</title>
<polygon fill="none" stroke="#bfbfbf" points="0,-62 0,-81 138,-81 138,-62 0,-62"/>
<text text-anchor="middle" x="69" y="-69" font-family="Helvetica,sans-Serif" font-size="10.00">Framework/DataSampling.h</text>
</g>
<!-- Node1&#45;&gt;Node2 -->
<g id="edge1" class="edge"><title>Node1&#45;&gt;Node2</title>
<path fill="none" stroke="midnightblue" d="M354.356,-125.044C287.888,-112.805 187.629,-94.3439 125.355,-82.8769"/>
<polygon fill="midnightblue" stroke="midnightblue" points="125.788,-79.398 115.32,-81.0291 124.52,-86.2822 125.788,-79.398"/>
</g>
<!-- Node3 -->
<g id="node3" class="node"><title>Node3</title>
<polygon fill="none" stroke="#bfbfbf" points="156.5,-56.5 156.5,-86.5 323.5,-86.5 323.5,-56.5 156.5,-56.5"/>
<text text-anchor="start" x="164.5" y="-74.5" font-family="Helvetica,sans-Serif" font-size="10.00">Framework/DataSamplingReadout</text>
<text text-anchor="middle" x="240" y="-63.5" font-family="Helvetica,sans-Serif" font-size="10.00">Adapter.h</text>
</g>
<!-- Node1&#45;&gt;Node3 -->
<g id="edge2" class="edge"><title>Node1&#45;&gt;Node3</title>
<path fill="none" stroke="midnightblue" d="M382.509,-123.396C355.082,-113.601 318.347,-100.481 289.043,-90.0153"/>
<polygon fill="midnightblue" stroke="midnightblue" points="290.009,-86.6438 279.414,-86.5765 287.654,-93.236 290.009,-86.6438"/>
</g>
<!-- Node4 -->
<g id="node4" class="node"><title>Node4</title>
<polygon fill="none" stroke="#bfbfbf" points="342,-62 342,-81 502,-81 502,-62 342,-62"/>
<text text-anchor="middle" x="422" y="-69" font-family="Helvetica,sans-Serif" font-size="10.00">Framework/runDataProcessing.h</text>
</g>
<!-- Node1&#45;&gt;Node4 -->
<g id="edge3" class="edge"><title>Node1&#45;&gt;Node4</title>
<path fill="none" stroke="midnightblue" d="M422,-123.396C422,-114.064 422,-101.714 422,-91.5173"/>
<polygon fill="midnightblue" stroke="midnightblue" points="425.5,-91.1945 422,-81.1945 418.5,-91.1946 425.5,-91.1945"/>
</g>
<!-- Node5 -->
<g id="node5" class="node"><title>Node5</title>
<g id="a_node5"><a xlink:href="QcInfoLogger_8h.html" target="_top" xlink:title="QualityControl/QcInfoLogger.h">
<polygon fill="none" stroke="black" points="520.5,-62 520.5,-81 669.5,-81 669.5,-62 520.5,-62"/>
<text text-anchor="middle" x="595" y="-69" font-family="Helvetica,sans-Serif" font-size="10.00">QualityControl/QcInfoLogger.h</text>
</a>
</g>
</g>
<!-- Node1&#45;&gt;Node5 -->
<g id="edge4" class="edge"><title>Node1&#45;&gt;Node5</title>
<path fill="none" stroke="midnightblue" d="M459.538,-123.396C490.296,-111.84 533.369,-95.6562 562.628,-84.6629"/>
<polygon fill="midnightblue" stroke="midnightblue" points="564.228,-87.8006 572.358,-81.007 561.766,-81.2479 564.228,-87.8006"/>
</g>
<!-- Node7 -->
<g id="node7" class="node"><title>Node7</title>
<polygon fill="none" stroke="#bfbfbf" points="687.5,-62 687.5,-81 728.5,-81 728.5,-62 687.5,-62"/>
<text text-anchor="middle" x="708" y="-69" font-family="Helvetica,sans-Serif" font-size="10.00">string</text>
</g>
<!-- Node1&#45;&gt;Node7 -->
<g id="edge6" class="edge"><title>Node1&#45;&gt;Node7</title>
<path fill="none" stroke="midnightblue" d="M489.585,-129.299C542.182,-121.712 616.492,-108.329 679,-87 680.432,-86.5115 681.882,-85.9657 683.332,-85.3801"/>
<polygon fill="midnightblue" stroke="midnightblue" points="685.031,-88.4525 692.681,-81.1221 682.129,-82.0822 685.031,-88.4525"/>
</g>
<!-- Node6 -->
<g id="node6" class="node"><title>Node6</title>
<polygon fill="none" stroke="#bfbfbf" points="530,-0.5 530,-19.5 660,-19.5 660,-0.5 530,-0.5"/>
<text text-anchor="middle" x="595" y="-7.5" font-family="Helvetica,sans-Serif" font-size="10.00">InfoLogger/InfoLogger.hxx</text>
</g>
<!-- Node5&#45;&gt;Node6 -->
<g id="edge5" class="edge"><title>Node5&#45;&gt;Node6</title>
<path fill="none" stroke="midnightblue" d="M595,-61.9751C595,-53.5803 595,-40.4806 595,-29.6631"/>
<polygon fill="midnightblue" stroke="midnightblue" points="598.5,-29.5091 595,-19.5091 591.5,-29.5091 598.5,-29.5091"/>
</g>
</g>
</svg>
