<?xml version="1.0" encoding="UTF-8" standalone="no"?>
<!DOCTYPE svg PUBLIC "-//W3C//DTD SVG 1.1//EN"
 "http://www.w3.org/Graphics/SVG/1.1/DTD/svg11.dtd">
<!-- Generated by graphviz version 2.38.0 (20140413.2041)
 -->
<!-- Title: Modules/Skeleton/src/SkeletonCheck.cxx Pages: 1 -->
<svg width="674pt" height="263pt"
 viewBox="0.00 0.00 673.50 263.00" xmlns="http://www.w3.org/2000/svg" xmlns:xlink="http://www.w3.org/1999/xlink">
<g id="graph0" class="graph" transform="scale(1 1) rotate(0) translate(4 259)">
<title>Modules/Skeleton/src/SkeletonCheck.cxx</title>
<!-- Node1 -->
<g id="node1" class="node"><title>Node1</title>
<polygon fill="#bfbfbf" stroke="black" points="372,-224.5 372,-254.5 483,-254.5 483,-224.5 372,-224.5"/>
<text text-anchor="start" x="380" y="-242.5" font-family="Helvetica,sans-Serif" font-size="10.00">Modules/Skeleton/src</text>
<text text-anchor="middle" x="427.5" y="-231.5" font-family="Helvetica,sans-Serif" font-size="10.00">/SkeletonCheck.cxx</text>
</g>
<!-- Node2 -->
<g id="node2" class="node"><title>Node2</title>
<g id="a_node2"><a xlink:href="SkeletonCheck_8h.html" target="_top" xlink:title="Skeleton/SkeletonCheck.h">
<polygon fill="none" stroke="black" points="260,-168.5 260,-187.5 393,-187.5 393,-168.5 260,-168.5"/>
<text text-anchor="middle" x="326.5" y="-175.5" font-family="Helvetica,sans-Serif" font-size="10.00">Skeleton/SkeletonCheck.h</text>
</a>
</g>
</g>
<!-- Node1&#45;&gt;Node2 -->
<g id="edge1" class="edge"><title>Node1&#45;&gt;Node2</title>
<path fill="none" stroke="midnightblue" d="M403.564,-224.399C387.375,-214.862 366.093,-202.325 349.997,-192.842"/>
<polygon fill="midnightblue" stroke="midnightblue" points="351.589,-189.718 341.196,-187.658 348.036,-195.749 351.589,-189.718"/>
</g>
<!-- Node8 -->
<g id="node8" class="node"><title>Node8</title>
<g id="a_node8"><a xlink:href="MonitorObject_8h.html" target="_top" xlink:title="QualityControl/MonitorObject.h">
<polygon fill="none" stroke="black" points="140,-56.5 140,-75.5 291,-75.5 291,-56.5 140,-56.5"/>
<text text-anchor="middle" x="215.5" y="-63.5" font-family="Helvetica,sans-Serif" font-size="10.00">QualityControl/MonitorObject.h</text>
</a>
</g>
</g>
<!-- Node1&#45;&gt;Node8 -->
<g id="edge16" class="edge"><title>Node1&#45;&gt;Node8</title>
<path fill="none" stroke="midnightblue" d="M371.628,-236.001C332.931,-231.381 282.768,-219.218 250.5,-188 222.434,-160.847 216.493,-112.699 215.466,-86.0584"/>
<polygon fill="midnightblue" stroke="midnightblue" points="218.961,-85.7161 215.278,-75.782 211.962,-85.8446 218.961,-85.7161"/>
</g>
<!-- Node11 -->
<g id="node11" class="node"><title>Node11</title>
<g id="a_node11"><a xlink:href="Quality_8h.html" target="_top" xlink:title="QualityControl/Quality.h">
<polygon fill="none" stroke="black" points="386,-56.5 386,-75.5 507,-75.5 507,-56.5 386,-56.5"/>
<text text-anchor="middle" x="446.5" y="-63.5" font-family="Helvetica,sans-Serif" font-size="10.00">QualityControl/Quality.h</text>
</a>
</g>
</g>
<!-- Node1&#45;&gt;Node11 -->
<g id="edge17" class="edge"><title>Node1&#45;&gt;Node11</title>
<path fill="none" stroke="midnightblue" d="M429.055,-224.465C432.463,-193.704 440.592,-120.329 444.428,-85.7003"/>
<polygon fill="midnightblue" stroke="midnightblue" points="447.929,-85.8843 445.552,-75.5597 440.972,-85.1135 447.929,-85.8843"/>
</g>
<!-- Node12 -->
<g id="node12" class="node"><title>Node12</title>
<g id="a_node12"><a xlink:href="QcInfoLogger_8h.html" target="_top" xlink:title="QualityControl/QcInfoLogger.h">
<polygon fill="none" stroke="black" points="455,-168.5 455,-187.5 604,-187.5 604,-168.5 455,-168.5"/>
<text text-anchor="middle" x="529.5" y="-175.5" font-family="Helvetica,sans-Serif" font-size="10.00">QualityControl/QcInfoLogger.h</text>
</a>
</g>
</g>
<!-- Node1&#45;&gt;Node12 -->
<g id="edge18" class="edge"><title>Node1&#45;&gt;Node12</title>
<path fill="none" stroke="midnightblue" d="M451.673,-224.399C468.022,-214.862 489.515,-202.325 505.77,-192.842"/>
<polygon fill="midnightblue" stroke="midnightblue" points="507.784,-195.72 514.658,-187.658 504.257,-189.673 507.784,-195.72"/>
</g>
<!-- Node14 -->
<g id="node14" class="node"><title>Node14</title>
<polygon fill="none" stroke="#bfbfbf" points="621.5,-168.5 621.5,-187.5 665.5,-187.5 665.5,-168.5 621.5,-168.5"/>
<text text-anchor="middle" x="643.5" y="-175.5" font-family="Helvetica,sans-Serif" font-size="10.00">TH1.h</text>
</g>
<!-- Node1&#45;&gt;Node14 -->
<g id="edge20" class="edge"><title>Node1&#45;&gt;Node14</title>
<path fill="none" stroke="midnightblue" d="M479.793,-224.466C514.632,-215.061 561.68,-202.255 611.776,-188.173"/>
<polygon fill="midnightblue" stroke="midnightblue" points="612.82,-191.515 621.497,-185.435 610.923,-184.777 612.82,-191.515"/>
</g>
<!-- Node3 -->
<g id="node3" class="node"><title>Node3</title>
<g id="a_node3"><a xlink:href="CheckInterface_8h.html" target="_top" xlink:title="QualityControl/CheckInterface.h">
<polygon fill="none" stroke="black" points="242,-112.5 242,-131.5 399,-131.5 399,-112.5 242,-112.5"/>
<text text-anchor="middle" x="320.5" y="-119.5" font-family="Helvetica,sans-Serif" font-size="10.00">QualityControl/CheckInterface.h</text>
</a>
</g>
</g>
<!-- Node2&#45;&gt;Node3 -->
<g id="edge2" class="edge"><title>Node2&#45;&gt;Node3</title>
<path fill="none" stroke="midnightblue" d="M325.509,-168.083C324.714,-160.927 323.571,-150.635 322.577,-141.691"/>
<polygon fill="midnightblue" stroke="midnightblue" points="326.055,-141.303 321.472,-131.751 319.098,-142.076 326.055,-141.303"/>
</g>
<!-- Node4 -->
<g id="node4" class="node"><title>Node4</title>
<polygon fill="none" stroke="#bfbfbf" points="396,-0.5 396,-19.5 437,-19.5 437,-0.5 396,-0.5"/>
<text text-anchor="middle" x="416.5" y="-7.5" font-family="Helvetica,sans-Serif" font-size="10.00">string</text>
</g>
<!-- Node3&#45;&gt;Node4 -->
<g id="edge3" class="edge"><title>Node3&#45;&gt;Node4</title>
<path fill="none" stroke="midnightblue" d="M328.065,-112.131C338.786,-99.5832 359.039,-75.9522 376.5,-56 384.864,-46.4428 394.299,-35.821 401.904,-27.298"/>
<polygon fill="midnightblue" stroke="midnightblue" points="404.737,-29.38 408.792,-19.5917 399.518,-24.7151 404.737,-29.38"/>
</g>
<!-- Node5 -->
<g id="node5" class="node"><title>Node5</title>
<polygon fill="none" stroke="#bfbfbf" points="57,-0.5 57,-19.5 92,-19.5 92,-0.5 57,-0.5"/>
<text text-anchor="middle" x="74.5" y="-7.5" font-family="Helvetica,sans-Serif" font-size="10.00">map</text>
</g>
<!-- Node3&#45;&gt;Node5 -->
<g id="edge4" class="edge"><title>Node3&#45;&gt;Node5</title>
<path fill="none" stroke="midnightblue" d="M241.862,-113.589C205.901,-107.48 163.958,-96.3344 130.5,-76 111.079,-64.1967 94.9152,-43.3734 85.0252,-28.475"/>
<polygon fill="midnightblue" stroke="midnightblue" points="87.77,-26.2677 79.4607,-19.6945 81.8574,-30.0148 87.77,-26.2677"/>
</g>
<!-- Node6 -->
<g id="node6" class="node"><title>Node6</title>
<polygon fill="none" stroke="#bfbfbf" points="0,-56.5 0,-75.5 83,-75.5 83,-56.5 0,-56.5"/>
<text text-anchor="middle" x="41.5" y="-63.5" font-family="Helvetica,sans-Serif" font-size="10.00">unordered_map</text>
</g>
<!-- Node3&#45;&gt;Node6 -->
<g id="edge5" class="edge"><title>Node3&#45;&gt;Node6</title>
<path fill="none" stroke="midnightblue" d="M276.292,-112.444C226.594,-102.825 145.99,-87.2238 93.3589,-77.0372"/>
<polygon fill="midnightblue" stroke="midnightblue" points="93.7061,-73.5395 83.2232,-75.0755 92.3759,-80.412 93.7061,-73.5395"/>
</g>
<!-- Node7 -->
<g id="node7" class="node"><title>Node7</title>
<polygon fill="none" stroke="#bfbfbf" points="321.5,-0.5 321.5,-19.5 377.5,-19.5 377.5,-0.5 321.5,-0.5"/>
<text text-anchor="middle" x="349.5" y="-7.5" font-family="Helvetica,sans-Serif" font-size="10.00">Rtypes.h</text>
</g>
<!-- Node3&#45;&gt;Node7 -->
<g id="edge6" class="edge"><title>Node3&#45;&gt;Node7</title>
<path fill="none" stroke="midnightblue" d="M322.776,-112.368C327.477,-94.5366 338.349,-53.2953 344.683,-29.2717"/>
<polygon fill="midnightblue" stroke="midnightblue" points="348.07,-30.1533 347.235,-19.5914 341.301,-28.3688 348.07,-30.1533"/>
</g>
<!-- Node3&#45;&gt;Node8 -->
<g id="edge7" class="edge"><title>Node3&#45;&gt;Node8</title>
<path fill="none" stroke="midnightblue" d="M303.63,-112.324C286.791,-103.664 260.693,-90.2424 241.262,-80.249"/>
<polygon fill="midnightblue" stroke="midnightblue" points="242.822,-77.1155 232.328,-75.6545 239.62,-83.3405 242.822,-77.1155"/>
</g>
<!-- Node3&#45;&gt;Node11 -->
<g id="edge13" class="edge"><title>Node3&#45;&gt;Node11</title>
<path fill="none" stroke="midnightblue" d="M340.465,-112.444C361.109,-103.596 393.563,-89.6875 417.132,-79.5865"/>
<polygon fill="midnightblue" stroke="midnightblue" points="418.816,-82.6727 426.628,-75.5164 416.058,-76.2387 418.816,-82.6727"/>
</g>
<!-- Node8&#45;&gt;Node4 -->
<g id="edge8" class="edge"><title>Node8&#45;&gt;Node4</title>
<path fill="none" stroke="midnightblue" d="M249.336,-56.4589C281.942,-48.1478 332.889,-34.9525 386.238,-20.0012"/>
<polygon fill="midnightblue" stroke="midnightblue" points="387.193,-23.3686 395.87,-17.2898 385.296,-16.6305 387.193,-23.3686"/>
</g>
<!-- Node8&#45;&gt;Node5 -->
<g id="edge9" class="edge"><title>Node8&#45;&gt;Node5</title>
<path fill="none" stroke="midnightblue" d="M193.158,-56.4435C168.37,-46.9502 128.367,-31.6297 101.756,-21.4385"/>
<polygon fill="midnightblue" stroke="midnightblue" points="102.863,-18.1147 92.2729,-17.8067 100.36,-24.6517 102.863,-18.1147"/>
</g>
<!-- Node8&#45;&gt;Node7 -->
<g id="edge10" class="edge"><title>Node8&#45;&gt;Node7</title>
<path fill="none" stroke="midnightblue" d="M236.733,-56.4435C258.884,-47.5171 293.819,-33.4387 318.936,-23.3168"/>
<polygon fill="midnightblue" stroke="midnightblue" points="320.4,-26.5006 328.367,-19.5164 317.783,-20.0079 320.4,-26.5006"/>
</g>
<!-- Node9 -->
<g id="node9" class="node"><title>Node9</title>
<polygon fill="none" stroke="#bfbfbf" points="110,-0.5 110,-19.5 169,-19.5 169,-0.5 110,-0.5"/>
<text text-anchor="middle" x="139.5" y="-7.5" font-family="Helvetica,sans-Serif" font-size="10.00">TObject.h</text>
</g>
<!-- Node8&#45;&gt;Node9 -->
<g id="edge11" class="edge"><title>Node8&#45;&gt;Node9</title>
<path fill="none" stroke="midnightblue" d="M203.289,-56.324C191.724,-48.1066 174.125,-35.6017 160.339,-25.8069"/>
<polygon fill="midnightblue" stroke="midnightblue" points="162.112,-22.7729 151.933,-19.8339 158.057,-28.4791 162.112,-22.7729"/>
</g>
<!-- Node10 -->
<g id="node10" class="node"><title>Node10</title>
<polygon fill="none" stroke="#bfbfbf" points="187.5,-0.5 187.5,-19.5 303.5,-19.5 303.5,-0.5 187.5,-0.5"/>
<text text-anchor="middle" x="245.5" y="-7.5" font-family="Helvetica,sans-Serif" font-size="10.00">Common/Exceptions.h</text>
</g>
<!-- Node8&#45;&gt;Node10 -->
<g id="edge12" class="edge"><title>Node8&#45;&gt;Node10</title>
<path fill="none" stroke="midnightblue" d="M220.454,-56.083C224.604,-48.6127 230.653,-37.7244 235.767,-28.5199"/>
<polygon fill="midnightblue" stroke="midnightblue" points="238.841,-30.1924 240.638,-19.7511 232.722,-26.7929 238.841,-30.1924"/>
</g>
<!-- Node11&#45;&gt;Node4 -->
<g id="edge15" class="edge"><title>Node11&#45;&gt;Node4</title>
<path fill="none" stroke="midnightblue" d="M441.546,-56.083C437.396,-48.6127 431.347,-37.7244 426.233,-28.5199"/>
<polygon fill="midnightblue" stroke="midnightblue" points="429.278,-26.7929 421.362,-19.7511 423.159,-30.1924 429.278,-26.7929"/>
</g>
<!-- Node11&#45;&gt;Node7 -->
<g id="edge14" class="edge"><title>Node11&#45;&gt;Node7</title>
<path fill="none" stroke="midnightblue" d="M430.915,-56.324C415.501,-47.7428 391.688,-34.486 373.79,-24.5224"/>
<polygon fill="midnightblue" stroke="midnightblue" points="375.486,-21.4606 365.046,-19.6545 372.081,-27.5767 375.486,-21.4606"/>
</g>
<!-- Node13 -->
<g id="node13" class="node"><title>Node13</title>
<polygon fill="none" stroke="#bfbfbf" points="464.5,-112.5 464.5,-131.5 594.5,-131.5 594.5,-112.5 464.5,-112.5"/>
<text text-anchor="middle" x="529.5" y="-119.5" font-family="Helvetica,sans-Serif" font-size="10.00">InfoLogger/InfoLogger.hxx</text>
</g>
<!-- Node12&#45;&gt;Node13 -->
<g id="edge19" class="edge"><title>Node12&#45;&gt;Node13</title>
<path fill="none" stroke="midnightblue" d="M529.5,-168.083C529.5,-161.006 529.5,-150.861 529.5,-141.986"/>
<polygon fill="midnightblue" stroke="midnightblue" points="533,-141.751 529.5,-131.751 526,-141.751 533,-141.751"/>
</g>
</g>
</svg>
