<?xml version="1.0" encoding="UTF-8" standalone="no"?>
<!DOCTYPE svg PUBLIC "-//W3C//DTD SVG 1.1//EN"
 "http://www.w3.org/Graphics/SVG/1.1/DTD/svg11.dtd">
<!-- Generated by graphviz version 2.38.0 (20140413.2041)
 -->
<!-- Title: Modules/Skeleton/include/Skeleton/SkeletonPostProcessing.h Pages: 1 -->
<svg width="313pt" height="218pt"
 viewBox="0.00 0.00 312.50 218.00" xmlns="http://www.w3.org/2000/svg" xmlns:xlink="http://www.w3.org/1999/xlink">
<g id="graph0" class="graph" transform="scale(1 1) rotate(0) translate(4 214)">
<title>Modules/Skeleton/include/Skeleton/SkeletonPostProcessing.h</title>
<!-- Node1 -->
<g id="node1" class="node"><title>Node1</title>
<polygon fill="#bfbfbf" stroke="black" points="0,-179.5 0,-209.5 176,-209.5 176,-179.5 0,-179.5"/>
<text text-anchor="start" x="8" y="-197.5" font-family="Helvetica,sans-Serif" font-size="10.00">Modules/Skeleton/include</text>
<text text-anchor="middle" x="88" y="-186.5" font-family="Helvetica,sans-Serif" font-size="10.00">/Skeleton/SkeletonPostProcessing.h</text>
</g>
<!-- Node2 -->
<g id="node2" class="node"><title>Node2</title>
<g id="a_node2"><a xlink:href="PostProcessingInterface_8h.html" target="_top" xlink:title="QualityControl/PostProcessing\lInterface.h">
<polygon fill="none" stroke="black" points="12.5,-112.5 12.5,-142.5 163.5,-142.5 163.5,-112.5 12.5,-112.5"/>
<text text-anchor="start" x="20.5" y="-130.5" font-family="Helvetica,sans-Serif" font-size="10.00">QualityControl/PostProcessing</text>
<text text-anchor="middle" x="88" y="-119.5" font-family="Helvetica,sans-Serif" font-size="10.00">Interface.h</text>
</a>
</g>
</g>
<!-- Node1&#45;&gt;Node2 -->
<g id="edge1" class="edge"><title>Node1&#45;&gt;Node2</title>
<path fill="none" stroke="midnightblue" d="M88,-179.396C88,-171.645 88,-161.812 88,-152.86"/>
<polygon fill="midnightblue" stroke="midnightblue" points="91.5001,-152.576 88,-142.577 84.5001,-152.577 91.5001,-152.576"/>
</g>
<!-- Node3 -->
<g id="node3" class="node"><title>Node3</title>
<polygon fill="none" stroke="#bfbfbf" points="59.5,-0.5 59.5,-19.5 100.5,-19.5 100.5,-0.5 59.5,-0.5"/>
<text text-anchor="middle" x="80" y="-7.5" font-family="Helvetica,sans-Serif" font-size="10.00">string</text>
</g>
<!-- Node2&#45;&gt;Node3 -->
<g id="edge2" class="edge"><title>Node2&#45;&gt;Node3</title>
<path fill="none" stroke="midnightblue" d="M48.8796,-112.483C32.5721,-104.474 15.2947,-92.64 6,-76 -7.16144,-52.4373 24.036,-33.2212 49.8967,-21.9488"/>
<polygon fill="midnightblue" stroke="midnightblue" points="51.5246,-25.0639 59.4432,-18.025 48.8634,-18.5894 51.5246,-25.0639"/>
</g>
<!-- Node4 -->
<g id="node4" class="node"><title>Node4</title>
<polygon fill="none" stroke="#bfbfbf" points="15,-56.5 15,-75.5 161,-75.5 161,-56.5 15,-56.5"/>
<text text-anchor="middle" x="88" y="-63.5" font-family="Helvetica,sans-Serif" font-size="10.00">Framework/ServiceRegistry.h</text>
</g>
<!-- Node2&#45;&gt;Node4 -->
<g id="edge3" class="edge"><title>Node2&#45;&gt;Node4</title>
<path fill="none" stroke="midnightblue" d="M88,-112.399C88,-104.466 88,-94.458 88,-85.8583"/>
<polygon fill="midnightblue" stroke="midnightblue" points="91.5001,-85.6577 88,-75.6578 84.5001,-85.6578 91.5001,-85.6577"/>
</g>
<!-- Node5 -->
<g id="node5" class="node"><title>Node5</title>
<g id="a_node5"><a xlink:href="Triggers_8h.html" target="_top" xlink:title="QualityControl/Triggers.h">
<polygon fill="none" stroke="black" points="179.5,-56.5 179.5,-75.5 304.5,-75.5 304.5,-56.5 179.5,-56.5"/>
<text text-anchor="middle" x="242" y="-63.5" font-family="Helvetica,sans-Serif" font-size="10.00">QualityControl/Triggers.h</text>
</a>
</g>
</g>
<!-- Node2&#45;&gt;Node5 -->
<g id="edge4" class="edge"><title>Node2&#45;&gt;Node5</title>
<path fill="none" stroke="midnightblue" d="M124.496,-112.399C150.565,-102.327 185.294,-88.9093 210.224,-79.2769"/>
<polygon fill="midnightblue" stroke="midnightblue" points="211.525,-82.5266 219.592,-75.6578 209.002,-75.997 211.525,-82.5266"/>
</g>
<!-- Node5&#45;&gt;Node3 -->
<g id="edge5" class="edge"><title>Node5&#45;&gt;Node3</title>
<path fill="none" stroke="midnightblue" d="M216.331,-56.4435C187.634,-46.8782 141.191,-31.3969 110.622,-21.2075"/>
<polygon fill="midnightblue" stroke="midnightblue" points="111.507,-17.8129 100.913,-17.971 109.293,-24.4537 111.507,-17.8129"/>
</g>
<!-- Node6 -->
<g id="node6" class="node"><title>Node6</title>
<polygon fill="none" stroke="#bfbfbf" points="212.5,-0.5 212.5,-19.5 271.5,-19.5 271.5,-0.5 212.5,-0.5"/>
<text text-anchor="middle" x="242" y="-7.5" font-family="Helvetica,sans-Serif" font-size="10.00">functional</text>
</g>
<!-- Node5&#45;&gt;Node6 -->
<g id="edge6" class="edge"><title>Node5&#45;&gt;Node6</title>
<path fill="none" stroke="midnightblue" d="M242,-56.083C242,-49.0059 242,-38.8611 242,-29.9865"/>
<polygon fill="midnightblue" stroke="midnightblue" points="245.5,-29.751 242,-19.7511 238.5,-29.7511 245.5,-29.751"/>
</g>
</g>
</svg>
