<?xml version="1.0" encoding="UTF-8" standalone="no"?>
<!DOCTYPE svg PUBLIC "-//W3C//DTD SVG 1.1//EN"
 "http://www.w3.org/Graphics/SVG/1.1/DTD/svg11.dtd">
<!-- Generated by graphviz version 2.38.0 (20140413.2041)
 -->
<!-- Title: Modules/Skeleton/src/SkeletonTask.cxx Pages: 1 -->
<!--zoomable 330 -->
<svg id="main" version="1.1" xmlns="http://www.w3.org/2000/svg" xmlns:xlink="http://www.w3.org/1999/xlink" xml:space="preserve" onload="init(evt)">
<style type="text/css"><![CDATA[
.edge:hover path { stroke: red; }
.edge:hover polygon { stroke: red; fill: red; }
]]></style>
<script type="text/javascript"><![CDATA[
var edges = document.getElementsByTagName('g');
if (edges && edges.length) {
  for (var i=0;i<edges.length;i++) {
    if (edges[i].id.substr(0,4)=='edge') {
      edges[i].setAttribute('class','edge');
    }
  }
}
]]></script>
        <defs>
                <circle id="rim" cx="0" cy="0" r="7"/>
                <circle id="rim2" cx="0" cy="0" r="3.5"/>
                <g id="zoomPlus">
                        <use xlink:href="#rim" fill="#404040">
                                <set attributeName="fill" to="#808080" begin="zoomplus.mouseover" end="zoomplus.mouseout"/>
                        </use>
                        <path d="M-4,0h8M0,-4v8" fill="none" stroke="white" stroke-width="1.5" pointer-events="none"/>
                </g>
                <g id="zoomMin">
                        <use xlink:href="#rim" fill="#404040">
                                <set attributeName="fill" to="#808080" begin="zoomminus.mouseover" end="zoomminus.mouseout"/>
                        </use>
                        <path d="M-4,0h8" fill="none" stroke="white" stroke-width="1.5" pointer-events="none"/>
                </g>
                <g id="dirArrow">
                        <path fill="none" stroke="white" stroke-width="1.5" d="M0,-3.0v7 M-2.5,-0.5L0,-3.0L2.5,-0.5"/>
                </g>
               <g id="resetDef">
                       <use xlink:href="#rim2" fill="#404040">
                               <set attributeName="fill" to="#808080" begin="reset.mouseover" end="reset.mouseout"/>
                       </use>
               </g>
        </defs>

<script type="text/javascript">
var viewWidth = 1089;
var viewHeight = 330;
var sectionId = 'dynsection-0';
</script>
<script xlink:href="svgpan.js"/>
<svg id="graph" class="graph">
<g id="viewport">
<title>Modules/Skeleton/src/SkeletonTask.cxx</title>
<!-- Node1 -->
<g id="node1" class="node"><title>Node1</title>
<polygon fill="#bfbfbf" stroke="black" points="107,-291.5 107,-321.5 218,-321.5 218,-291.5 107,-291.5"/>
<text text-anchor="start" x="115" y="-309.5" font-family="Helvetica,sans-Serif" font-size="10.00">Modules/Skeleton/src</text>
<text text-anchor="middle" x="162.5" y="-298.5" font-family="Helvetica,sans-Serif" font-size="10.00">/SkeletonTask.cxx</text>
</g>
<!-- Node2 -->
<g id="node2" class="node"><title>Node2</title>
<polygon fill="none" stroke="#bfbfbf" points="0,-235.5 0,-254.5 65,-254.5 65,-235.5 0,-235.5"/>
<text text-anchor="middle" x="32.5" y="-242.5" font-family="Helvetica,sans-Serif" font-size="10.00">TCanvas.h</text>
</g>
<!-- Node1&#45;&gt;Node2 -->
<g id="edge1" class="edge"><title>Node1&#45;&gt;Node2</title>
<path fill="none" stroke="midnightblue" d="M131.692,-291.399C110.172,-281.55 81.6627,-268.501 60.7323,-258.922"/>
<polygon fill="midnightblue" stroke="midnightblue" points="61.9656,-255.637 51.4162,-254.658 59.0524,-262.002 61.9656,-255.637"/>
</g>
<!-- Node3 -->
<g id="node3" class="node"><title>Node3</title>
<polygon fill="none" stroke="#bfbfbf" points="83.5,-235.5 83.5,-254.5 127.5,-254.5 127.5,-235.5 83.5,-235.5"/>
<text text-anchor="middle" x="105.5" y="-242.5" font-family="Helvetica,sans-Serif" font-size="10.00">TH1.h</text>
</g>
<!-- Node1&#45;&gt;Node3 -->
<g id="edge2" class="edge"><title>Node1&#45;&gt;Node3</title>
<path fill="none" stroke="midnightblue" d="M148.992,-291.399C140.538,-282.575 129.625,-271.183 120.845,-262.018"/>
<polygon fill="midnightblue" stroke="midnightblue" points="123.239,-259.458 113.794,-254.658 118.184,-264.3 123.239,-259.458"/>
</g>
<!-- Node4 -->
<g id="node4" class="node"><title>Node4</title>
<g id="a_node4"><a xlink:href="QcInfoLogger_8h.html" target="_top" xlink:title="QualityControl/QcInfoLogger.h">
<polygon fill="none" stroke="black" points="145,-235.5 145,-254.5 294,-254.5 294,-235.5 145,-235.5"/>
<text text-anchor="middle" x="219.5" y="-242.5" font-family="Helvetica,sans-Serif" font-size="10.00">QualityControl/QcInfoLogger.h</text>
</a>
</g>
</g>
<!-- Node1&#45;&gt;Node4 -->
<g id="edge3" class="edge"><title>Node1&#45;&gt;Node4</title>
<path fill="none" stroke="midnightblue" d="M176.008,-291.399C184.462,-282.575 195.375,-271.183 204.155,-262.018"/>
<polygon fill="midnightblue" stroke="midnightblue" points="206.816,-264.3 211.206,-254.658 201.761,-259.458 206.816,-264.3"/>
</g>
<!-- Node6 -->
<g id="node6" class="node"><title>Node6</title>
<g id="a_node6"><a xlink:href="SkeletonTask_8h.html" target="_top" xlink:title="Skeleton/SkeletonTask.h">
<polygon fill="none" stroke="black" points="312.5,-235.5 312.5,-254.5 438.5,-254.5 438.5,-235.5 312.5,-235.5"/>
<text text-anchor="middle" x="375.5" y="-242.5" font-family="Helvetica,sans-Serif" font-size="10.00">Skeleton/SkeletonTask.h</text>
</a>
</g>
</g>
<!-- Node1&#45;&gt;Node6 -->
<g id="edge5" class="edge"><title>Node1&#45;&gt;Node6</title>
<path fill="none" stroke="midnightblue" d="M212.708,-291.475C250.097,-281.03 300.475,-266.958 335.238,-257.247"/>
<polygon fill="midnightblue" stroke="midnightblue" points="336.359,-260.568 345.049,-254.506 334.476,-253.826 336.359,-260.568"/>
</g>
<!-- Node5 -->
<g id="node5" class="node"><title>Node5</title>
<polygon fill="none" stroke="#bfbfbf" points="153.5,-179.5 153.5,-198.5 283.5,-198.5 283.5,-179.5 153.5,-179.5"/>
<text text-anchor="middle" x="218.5" y="-186.5" font-family="Helvetica,sans-Serif" font-size="10.00">InfoLogger/InfoLogger.hxx</text>
</g>
<!-- Node4&#45;&gt;Node5 -->
<g id="edge4" class="edge"><title>Node4&#45;&gt;Node5</title>
<path fill="none" stroke="midnightblue" d="M219.335,-235.083C219.204,-228.006 219.016,-217.861 218.852,-208.986"/>
<polygon fill="midnightblue" stroke="midnightblue" points="222.347,-208.685 218.662,-198.751 215.348,-208.814 222.347,-208.685"/>
</g>
<!-- Node7 -->
<g id="node7" class="node"><title>Node7</title>
<g id="a_node7"><a xlink:href="TaskInterface_8h.html" target="_top" xlink:title="QualityControl/TaskInterface.h">
<polygon fill="none" stroke="black" points="301.5,-179.5 301.5,-198.5 451.5,-198.5 451.5,-179.5 301.5,-179.5"/>
<text text-anchor="middle" x="376.5" y="-186.5" font-family="Helvetica,sans-Serif" font-size="10.00">QualityControl/TaskInterface.h</text>
</a>
</g>
</g>
<!-- Node6&#45;&gt;Node7 -->
<g id="edge6" class="edge"><title>Node6&#45;&gt;Node7</title>
<path fill="none" stroke="midnightblue" d="M375.665,-235.083C375.796,-228.006 375.984,-217.861 376.148,-208.986"/>
<polygon fill="midnightblue" stroke="midnightblue" points="379.652,-208.814 376.338,-198.751 372.653,-208.685 379.652,-208.814"/>
</g>
<!-- Node8 -->
<g id="node8" class="node"><title>Node8</title>
<polygon fill="none" stroke="#bfbfbf" points="401,-0.5 401,-19.5 436,-19.5 436,-0.5 401,-0.5"/>
<text text-anchor="middle" x="418.5" y="-7.5" font-family="Helvetica,sans-Serif" font-size="10.00">map</text>
</g>
<!-- Node7&#45;&gt;Node8 -->
<g id="edge7" class="edge"><title>Node7&#45;&gt;Node8</title>
<path fill="none" stroke="midnightblue" d="M333.433,-179.486C313.104,-173.074 290.677,-161.991 278.5,-143 257.629,-110.45 255.723,-87.246 278.5,-56 304.037,-20.9681 357.292,-12.611 390.259,-10.9548"/>
<polygon fill="midnightblue" stroke="midnightblue" points="390.71,-14.4422 400.592,-10.6212 390.484,-7.4458 390.71,-14.4422"/>
</g>
<!-- Node9 -->
<g id="node9" class="node"><title>Node9</title>
<polygon fill="none" stroke="#bfbfbf" points="331.5,-62 331.5,-81 383.5,-81 383.5,-62 331.5,-62"/>
<text text-anchor="middle" x="357.5" y="-69" font-family="Helvetica,sans-Serif" font-size="10.00">memory</text>
</g>
<!-- Node7&#45;&gt;Node9 -->
<g id="edge8" class="edge"><title>Node7&#45;&gt;Node9</title>
<path fill="none" stroke="midnightblue" d="M369.349,-179.364C362.727,-170.763 353.343,-156.873 349.5,-143 344.731,-125.783 347.933,-105.447 351.605,-91.0511"/>
<polygon fill="midnightblue" stroke="midnightblue" points="354.995,-91.9279 354.381,-81.3508 348.265,-90.0022 354.995,-91.9279"/>
</g>
<!-- Node10 -->
<g id="node10" class="node"><title>Node10</title>
<polygon fill="none" stroke="#bfbfbf" points="486,-0.5 486,-19.5 527,-19.5 527,-0.5 486,-0.5"/>
<text text-anchor="middle" x="506.5" y="-7.5" font-family="Helvetica,sans-Serif" font-size="10.00">string</text>
</g>
<!-- Node7&#45;&gt;Node10 -->
<g id="edge9" class="edge"><title>Node7&#45;&gt;Node10</title>
<path fill="none" stroke="midnightblue" d="M367.521,-179.452C345.164,-157.146 291.008,-96.1226 322.5,-56 332.002,-43.8943 425.983,-25.4328 475.822,-16.3824"/>
<polygon fill="midnightblue" stroke="midnightblue" points="476.517,-19.8136 485.74,-14.5997 475.279,-12.924 476.517,-19.8136"/>
</g>
<!-- Node11 -->
<g id="node11" class="node"><title>Node11</title>
<polygon fill="none" stroke="#bfbfbf" points="236,-0.5 236,-19.5 319,-19.5 319,-0.5 236,-0.5"/>
<text text-anchor="middle" x="277.5" y="-7.5" font-family="Helvetica,sans-Serif" font-size="10.00">unordered_map</text>
</g>
<!-- Node7&#45;&gt;Node11 -->
<g id="edge10" class="edge"><title>Node7&#45;&gt;Node11</title>
<path fill="none" stroke="midnightblue" d="M323.761,-179.473C301.908,-173.143 278.451,-162.133 264.5,-143 239.718,-109.013 256.92,-56.3226 268.81,-28.9237"/>
<polygon fill="midnightblue" stroke="midnightblue" points="272.028,-30.3022 273.008,-19.7528 265.663,-27.3886 272.028,-30.3022"/>
</g>
<!-- Node12 -->
<g id="node12" class="node"><title>Node12</title>
<polygon fill="none" stroke="#bfbfbf" points="359,-123.5 359,-142.5 484,-142.5 484,-123.5 359,-123.5"/>
<text text-anchor="middle" x="421.5" y="-130.5" font-family="Helvetica,sans-Serif" font-size="10.00">Framework/InitContext.h</text>
</g>
<!-- Node7&#45;&gt;Node12 -->
<g id="edge11" class="edge"><title>Node7&#45;&gt;Node12</title>
<path fill="none" stroke="midnightblue" d="M383.931,-179.083C390.353,-171.377 399.806,-160.033 407.622,-150.653"/>
<polygon fill="midnightblue" stroke="midnightblue" points="410.494,-152.674 414.207,-142.751 405.117,-148.193 410.494,-152.674"/>
</g>
<!-- Node13 -->
<g id="node13" class="node"><title>Node13</title>
<polygon fill="none" stroke="#bfbfbf" points="502.5,-123.5 502.5,-142.5 662.5,-142.5 662.5,-123.5 502.5,-123.5"/>
<text text-anchor="middle" x="582.5" y="-130.5" font-family="Helvetica,sans-Serif" font-size="10.00">Framework/ProcessingContext.h</text>
</g>
<!-- Node7&#45;&gt;Node13 -->
<g id="edge12" class="edge"><title>Node7&#45;&gt;Node13</title>
<path fill="none" stroke="midnightblue" d="M409.141,-179.444C444.55,-170.162 501.209,-155.309 540.053,-145.127"/>
<polygon fill="midnightblue" stroke="midnightblue" points="541.226,-148.438 550.011,-142.516 539.451,-141.667 541.226,-148.438"/>
</g>
<!-- Node14 -->
<g id="node14" class="node"><title>Node14</title>
<g id="a_node14"><a xlink:href="Activity_8h.html" target="_top" xlink:title="QualityControl/Activity.h">
<polygon fill="none" stroke="black" points="681,-123.5 681,-142.5 804,-142.5 804,-123.5 681,-123.5"/>
<text text-anchor="middle" x="742.5" y="-130.5" font-family="Helvetica,sans-Serif" font-size="10.00">QualityControl/Activity.h</text>
</a>
</g>
</g>
<!-- Node7&#45;&gt;Node14 -->
<g id="edge13" class="edge"><title>Node7&#45;&gt;Node14</title>
<path fill="none" stroke="midnightblue" d="M434.494,-179.444C499.814,-169.806 605.837,-154.163 674.87,-143.978"/>
<polygon fill="midnightblue" stroke="midnightblue" points="675.396,-147.439 684.778,-142.516 674.374,-140.514 675.396,-147.439"/>
</g>
<!-- Node15 -->
<g id="node15" class="node"><title>Node15</title>
<g id="a_node15"><a xlink:href="ObjectsManager_8h.html" target="_top" xlink:title="QualityControl/ObjectsManager.h">
<polygon fill="none" stroke="black" points="822,-123.5 822,-142.5 983,-142.5 983,-123.5 822,-123.5"/>
<text text-anchor="middle" x="902.5" y="-130.5" font-family="Helvetica,sans-Serif" font-size="10.00">QualityControl/ObjectsManager.h</text>
</a>
</g>
</g>
<!-- Node7&#45;&gt;Node15 -->
<g id="edge14" class="edge"><title>Node7&#45;&gt;Node15</title>
<path fill="none" stroke="midnightblue" d="M451.583,-180.292C546.494,-170.548 709.749,-153.788 811.605,-143.331"/>
<polygon fill="midnightblue" stroke="midnightblue" points="811.981,-146.811 821.572,-142.308 811.266,-139.848 811.981,-146.811"/>
</g>
<!-- Node15&#45;&gt;Node9 -->
<g id="edge28" class="edge"><title>Node15&#45;&gt;Node9</title>
<path fill="none" stroke="midnightblue" d="M821.975,-123.805C819.115,-123.531 816.283,-123.261 813.5,-123 629.174,-105.686 579.444,-126.178 398.5,-87 395.076,-86.2586 391.545,-85.3094 388.06,-84.2523"/>
<polygon fill="midnightblue" stroke="midnightblue" points="389.077,-80.902 378.483,-81.0698 386.869,-87.5448 389.077,-80.902"/>
</g>
<!-- Node15&#45;&gt;Node10 -->
<g id="edge27" class="edge"><title>Node15&#45;&gt;Node10</title>
<path fill="none" stroke="midnightblue" d="M829.637,-123.471C745.644,-113.301 616.408,-96.4916 595.5,-87 587.225,-83.2434 547.049,-47.6194 523.601,-26.5039"/>
<polygon fill="midnightblue" stroke="midnightblue" points="525.853,-23.8209 516.085,-19.7162 521.161,-29.016 525.853,-23.8209"/>
</g>
<!-- Node16 -->
<g id="node16" class="node"><title>Node16</title>
<g id="a_node16"><a xlink:href="MonitorObject_8h.html" target="_top" xlink:title="QualityControl/MonitorObject.h">
<polygon fill="none" stroke="black" points="604,-62 604,-81 755,-81 755,-62 604,-62"/>
<text text-anchor="middle" x="679.5" y="-69" font-family="Helvetica,sans-Serif" font-size="10.00">QualityControl/MonitorObject.h</text>
</a>
</g>
</g>
<!-- Node15&#45;&gt;Node16 -->
<g id="edge15" class="edge"><title>Node15&#45;&gt;Node16</title>
<path fill="none" stroke="midnightblue" d="M870.55,-123.475C831.304,-113.004 764.622,-95.2118 721.327,-83.6601"/>
<polygon fill="midnightblue" stroke="midnightblue" points="721.956,-80.2054 711.391,-81.0091 720.151,-86.9688 721.956,-80.2054"/>
</g>
<!-- Node20 -->
<g id="node20" class="node"><title>Node20</title>
<g id="a_node20"><a xlink:href="MonitorObjectCollection_8h.html" target="_top" xlink:title="QualityControl/MonitorObject\lCollection.h">
<polygon fill="none" stroke="black" points="831,-56.5 831,-86.5 974,-86.5 974,-56.5 831,-56.5"/>
<text text-anchor="start" x="839" y="-74.5" font-family="Helvetica,sans-Serif" font-size="10.00">QualityControl/MonitorObject</text>
<text text-anchor="middle" x="902.5" y="-63.5" font-family="Helvetica,sans-Serif" font-size="10.00">Collection.h</text>
</a>
</g>
</g>
<!-- Node15&#45;&gt;Node20 -->
<g id="edge21" class="edge"><title>Node15&#45;&gt;Node20</title>
<path fill="none" stroke="midnightblue" d="M902.5,-123.475C902.5,-116.471 902.5,-106.192 902.5,-96.6956"/>
<polygon fill="midnightblue" stroke="midnightblue" points="906,-96.5229 902.5,-86.523 899,-96.523 906,-96.5229"/>
</g>
<!-- Node23 -->
<g id="node23" class="node"><title>Node23</title>
<g id="a_node23"><a xlink:href="TaskConfig_8h.html" target="_top" xlink:title="QualityControl/TaskConfig.h">
<polygon fill="none" stroke="black" points="407.5,-62 407.5,-81 547.5,-81 547.5,-62 407.5,-62"/>
<text text-anchor="middle" x="477.5" y="-69" font-family="Helvetica,sans-Serif" font-size="10.00">QualityControl/TaskConfig.h</text>
</a>
</g>
</g>
<!-- Node15&#45;&gt;Node23 -->
<g id="edge24" class="edge"><title>Node15&#45;&gt;Node23</title>
<path fill="none" stroke="midnightblue" d="M831.523,-123.467C762.465,-114.969 654.627,-101.177 561.5,-87 552.89,-85.6893 543.799,-84.2149 534.904,-82.7213"/>
<polygon fill="midnightblue" stroke="midnightblue" points="535.425,-79.2598 524.98,-81.0346 534.252,-86.1608 535.425,-79.2598"/>
</g>
<!-- Node16&#45;&gt;Node8 -->
<g id="edge17" class="edge"><title>Node16&#45;&gt;Node8</title>
<path fill="none" stroke="midnightblue" d="M642.105,-61.9751C589.032,-49.8761 493.091,-28.0045 446.034,-17.277"/>
<polygon fill="midnightblue" stroke="midnightblue" points="446.764,-13.8536 436.236,-15.0433 445.208,-20.6785 446.764,-13.8536"/>
</g>
<!-- Node16&#45;&gt;Node10 -->
<g id="edge16" class="edge"><title>Node16&#45;&gt;Node10</title>
<path fill="none" stroke="midnightblue" d="M654.713,-61.9751C623.639,-51.2877 570.394,-32.975 536.895,-21.4536"/>
<polygon fill="midnightblue" stroke="midnightblue" points="537.773,-18.0547 527.179,-18.112 535.497,-24.6741 537.773,-18.0547"/>
</g>
<!-- Node17 -->
<g id="node17" class="node"><title>Node17</title>
<polygon fill="none" stroke="#bfbfbf" points="575.5,-0.5 575.5,-19.5 631.5,-19.5 631.5,-0.5 575.5,-0.5"/>
<text text-anchor="middle" x="603.5" y="-7.5" font-family="Helvetica,sans-Serif" font-size="10.00">Rtypes.h</text>
</g>
<!-- Node16&#45;&gt;Node17 -->
<g id="edge18" class="edge"><title>Node16&#45;&gt;Node17</title>
<path fill="none" stroke="midnightblue" d="M668.611,-61.9751C656.534,-52.5199 636.833,-37.0961 622.26,-25.6871"/>
<polygon fill="midnightblue" stroke="midnightblue" points="624.4,-22.9177 614.369,-19.5091 620.085,-28.4295 624.4,-22.9177"/>
</g>
<!-- Node18 -->
<g id="node18" class="node"><title>Node18</title>
<polygon fill="none" stroke="#bfbfbf" points="650,-0.5 650,-19.5 709,-19.5 709,-0.5 650,-0.5"/>
<text text-anchor="middle" x="679.5" y="-7.5" font-family="Helvetica,sans-Serif" font-size="10.00">TObject.h</text>
</g>
<!-- Node16&#45;&gt;Node18 -->
<g id="edge19" class="edge"><title>Node16&#45;&gt;Node18</title>
<path fill="none" stroke="midnightblue" d="M679.5,-61.9751C679.5,-53.5803 679.5,-40.4806 679.5,-29.6631"/>
<polygon fill="midnightblue" stroke="midnightblue" points="683,-29.5091 679.5,-19.5091 676,-29.5091 683,-29.5091"/>
</g>
<!-- Node19 -->
<g id="node19" class="node"><title>Node19</title>
<polygon fill="none" stroke="#bfbfbf" points="727.5,-0.5 727.5,-19.5 843.5,-19.5 843.5,-0.5 727.5,-0.5"/>
<text text-anchor="middle" x="785.5" y="-7.5" font-family="Helvetica,sans-Serif" font-size="10.00">Common/Exceptions.h</text>
</g>
<!-- Node16&#45;&gt;Node19 -->
<g id="edge20" class="edge"><title>Node16&#45;&gt;Node19</title>
<path fill="none" stroke="midnightblue" d="M694.687,-61.9751C712.162,-52.1664 741.079,-35.9346 761.583,-24.425"/>
<polygon fill="midnightblue" stroke="midnightblue" points="763.334,-27.456 770.341,-19.5091 759.908,-21.3519 763.334,-27.456"/>
</g>
<!-- Node21 -->
<g id="node21" class="node"><title>Node21</title>
<polygon fill="none" stroke="#bfbfbf" points="865,-0.5 865,-19.5 934,-19.5 934,-0.5 865,-0.5"/>
<text text-anchor="middle" x="899.5" y="-7.5" font-family="Helvetica,sans-Serif" font-size="10.00">TObjArray.h</text>
</g>
<!-- Node20&#45;&gt;Node21 -->
<g id="edge22" class="edge"><title>Node20&#45;&gt;Node21</title>
<path fill="none" stroke="midnightblue" d="M901.789,-56.3993C901.389,-48.4664 900.884,-38.458 900.451,-29.8583"/>
<polygon fill="midnightblue" stroke="midnightblue" points="903.936,-29.4688 899.937,-19.6578 896.945,-29.8214 903.936,-29.4688"/>
</g>
<!-- Node22 -->
<g id="node22" class="node"><title>Node22</title>
<polygon fill="none" stroke="#bfbfbf" points="952.5,-0.5 952.5,-19.5 1080.5,-19.5 1080.5,-0.5 952.5,-0.5"/>
<text text-anchor="middle" x="1016.5" y="-7.5" font-family="Helvetica,sans-Serif" font-size="10.00">Mergers/MergeInterface.h</text>
</g>
<!-- Node20&#45;&gt;Node22 -->
<g id="edge23" class="edge"><title>Node20&#45;&gt;Node22</title>
<path fill="none" stroke="midnightblue" d="M929.516,-56.3993C948.131,-46.6837 972.71,-33.8551 990.991,-24.3137"/>
<polygon fill="midnightblue" stroke="midnightblue" points="992.666,-27.3876 999.912,-19.6578 989.427,-21.182 992.666,-27.3876"/>
</g>
<!-- Node23&#45;&gt;Node10 -->
<g id="edge25" class="edge"><title>Node23&#45;&gt;Node10</title>
<path fill="none" stroke="midnightblue" d="M481.655,-61.9751C485.876,-53.3152 492.537,-39.6486 497.9,-28.6453"/>
<polygon fill="midnightblue" stroke="midnightblue" points="501.118,-30.0317 502.353,-19.5091 494.825,-26.9648 501.118,-30.0317"/>
</g>
<!-- Node23&#45;&gt;Node11 -->
<g id="edge26" class="edge"><title>Node23&#45;&gt;Node11</title>
<path fill="none" stroke="midnightblue" d="M448.845,-61.9751C413.944,-51.592 354.85,-34.0116 316,-22.4538"/>
<polygon fill="midnightblue" stroke="midnightblue" points="316.685,-19.0059 306.102,-19.5091 314.689,-25.7153 316.685,-19.0059"/>
</g>
</g>
</svg>
        <g id="navigator" transform="translate(0 0)" fill="#404254">
                <rect fill="#f2f5e9" fill-opacity="0.5" stroke="#606060" stroke-width=".5" x="0" y="0" width="60" height="60"/>
                <use id="zoomplus" xlink:href="#zoomPlus" x="17" y="9" onmousedown="handleZoom(evt,'in')"/>
                <use id="zoomminus" xlink:href="#zoomMin" x="42" y="9" onmousedown="handleZoom(evt,'out')"/>
                <use id="reset" xlink:href="#resetDef" x="30" y="36" onmousedown="handleReset()"/>
                <g id="arrowUp" xlink:href="#dirArrow" transform="translate(30 24)" onmousedown="handlePan(0,-1)">
                  <use xlink:href="#rim" fill="#404040">
                        <set attributeName="fill" to="#808080" begin="arrowUp.mouseover" end="arrowUp.mouseout"/>
                  </use>
                  <path fill="none" stroke="white" stroke-width="1.5" d="M0,-3.0v7 M-2.5,-0.5L0,-3.0L2.5,-0.5"/>
                </g>
                <g id="arrowRight" xlink:href="#dirArrow" transform="rotate(90) translate(36 -43)" onmousedown="handlePan(1,0)">
                  <use xlink:href="#rim" fill="#404040">
                        <set attributeName="fill" to="#808080" begin="arrowRight.mouseover" end="arrowRight.mouseout"/>
                  </use>
                  <path fill="none" stroke="white" stroke-width="1.5" d="M0,-3.0v7 M-2.5,-0.5L0,-3.0L2.5,-0.5"/>
                </g>
                <g id="arrowDown" xlink:href="#dirArrow" transform="rotate(180) translate(-30 -48)" onmousedown="handlePan(0,1)">
                  <use xlink:href="#rim" fill="#404040">
                        <set attributeName="fill" to="#808080" begin="arrowDown.mouseover" end="arrowDown.mouseout"/>
                  </use>
                  <path fill="none" stroke="white" stroke-width="1.5" d="M0,-3.0v7 M-2.5,-0.5L0,-3.0L2.5,-0.5"/>
                </g>
                <g id="arrowLeft" xlink:href="#dirArrow" transform="rotate(270) translate(-36 17)" onmousedown="handlePan(-1,0)">
                  <use xlink:href="#rim" fill="#404040">
                        <set attributeName="fill" to="#808080" begin="arrowLeft.mouseover" end="arrowLeft.mouseout"/>
                  </use>
                  <path fill="none" stroke="white" stroke-width="1.5" d="M0,-3.0v7 M-2.5,-0.5L0,-3.0L2.5,-0.5"/>
                </g>
        </g>
        <svg viewBox="0 0 15 15" width="100%" height="30px" preserveAspectRatio="xMaxYMin meet">
         <g id="arrow_out" transform="scale(0.3 0.3)">
          <a xlink:href="SkeletonTask_8cxx__incl_org.svg" target="_base">
           <rect id="button" ry="5" rx="5" y="6" x="6" height="38" width="38"
                fill="#f2f5e9" fill-opacity="0.5" stroke="#606060" stroke-width="1.0"/>
           <path id="arrow"
             d="M 11.500037,31.436501 C 11.940474,20.09759 22.043105,11.32322 32.158766,21.979434 L 37.068811,17.246167 C 37.068811,17.246167 37.088388,32 37.088388,32 L 22.160133,31.978069 C 22.160133,31.978069 26.997745,27.140456 26.997745,27.140456 C 18.528582,18.264221 13.291696,25.230495 11.500037,31.436501 z"
             style="fill:#404040;"/>
          </a>
         </g>
        </svg>
</svg>
