<?xml version="1.0" encoding="UTF-8" standalone="no"?>
<!DOCTYPE svg PUBLIC "-//W3C//DTD SVG 1.1//EN"
 "http://www.w3.org/Graphics/SVG/1.1/DTD/svg11.dtd">
<!-- Generated by graphviz version 2.38.0 (20140413.2041)
 -->
<!-- Title: o2::quality_control_modules::tof::counters::ETRMChainCounter_t Pages: 1 -->
<svg width="127pt" height="193pt"
 viewBox="0.00 0.00 127.00 193.00" xmlns="http://www.w3.org/2000/svg" xmlns:xlink="http://www.w3.org/1999/xlink">
<g id="graph0" class="graph" transform="scale(1 1) rotate(0) translate(4 189)">
<title>o2::quality_control_modules::tof::counters::ETRMChainCounter_t</title>
<!-- Node1 -->
<g id="node1" class="node"><title>Node1</title>
<polygon fill="#bfbfbf" stroke="black" points="0,-0.5 0,-79.5 119,-79.5 119,-0.5 0,-0.5"/>
<text text-anchor="start" x="8" y="-67.5" font-family="Helvetica,sans-Serif" font-size="10.00">o2::quality_control</text>
<text text-anchor="start" x="8" y="-56.5" font-family="Helvetica,sans-Serif" font-size="10.00">_modules::tof::counters</text>
<text text-anchor="middle" x="59.5" y="-45.5" font-family="Helvetica,sans-Serif" font-size="10.00">::ETRMChainCounter_t</text>
<polyline fill="none" stroke="black" points="0,-38.5 119,-38.5 "/>
<text text-anchor="middle" x="59.5" y="-26.5" font-family="Helvetica,sans-Serif" font-size="10.00"> </text>
<polyline fill="none" stroke="black" points="0,-19.5 119,-19.5 "/>
<text text-anchor="middle" x="59.5" y="-7.5" font-family="Helvetica,sans-Serif" font-size="10.00"> </text>
</g>
<!-- Node2 -->
<g id="node2" class="node"><title>Node2</title>
<polygon fill="none" stroke="#bfbfbf" points="3.5,-127.5 3.5,-184.5 51.5,-184.5 51.5,-127.5 3.5,-127.5"/>
<text text-anchor="middle" x="27.5" y="-172.5" font-family="Helvetica,sans-Serif" font-size="10.00">TString</text>
<polyline fill="none" stroke="#bfbfbf" points="3.5,-165.5 51.5,-165.5 "/>
<text text-anchor="middle" x="27.5" y="-153.5" font-family="Helvetica,sans-Serif" font-size="10.00"> </text>
<polyline fill="none" stroke="#bfbfbf" points="3.5,-146.5 51.5,-146.5 "/>
<text text-anchor="middle" x="27.5" y="-134.5" font-family="Helvetica,sans-Serif" font-size="10.00"> </text>
</g>
<!-- Node2&#45;&gt;Node1 -->
<g id="edge1" class="edge"><title>Node2&#45;&gt;Node1</title>
<path fill="none" stroke="#404040" d="M26.6474,-127.384C26.96,-117.933 27.9883,-107.381 30.5,-98 31.1138,-95.7075 31.8273,-93.4004 32.6195,-91.0972"/>
<polygon fill="none" stroke="#404040" points="32.7162,-90.8535 31.2099,-83.8014 37.1401,-79.6987 38.6464,-86.7507 32.7162,-90.8535"/>
<text text-anchor="middle" x="50" y="-101" font-family="Helvetica,sans-Serif" font-size="10.00"> +names</text>
</g>
<!-- Node3 -->
<g id="node3" class="node"><title>Node3</title>
<polygon fill="none" stroke="#bfbfbf" points="69.5,-127.5 69.5,-184.5 113.5,-184.5 113.5,-127.5 69.5,-127.5"/>
<text text-anchor="middle" x="91.5" y="-172.5" font-family="Helvetica,sans-Serif" font-size="10.00">UInt_t</text>
<polyline fill="none" stroke="#bfbfbf" points="69.5,-165.5 113.5,-165.5 "/>
<text text-anchor="middle" x="91.5" y="-153.5" font-family="Helvetica,sans-Serif" font-size="10.00"> </text>
<polyline fill="none" stroke="#bfbfbf" points="69.5,-146.5 113.5,-146.5 "/>
<text text-anchor="middle" x="91.5" y="-134.5" font-family="Helvetica,sans-Serif" font-size="10.00"> </text>
</g>
<!-- Node3&#45;&gt;Node1 -->
<g id="edge2" class="edge"><title>Node3&#45;&gt;Node1</title>
<path fill="none" stroke="#404040" d="M83.7537,-127.404C80.6979,-116.518 77.089,-103.661 73.6021,-91.2388"/>
<polygon fill="none" stroke="#404040" points="73.5615,-91.094 68.0888,-86.3983 70.3184,-79.5406 75.7911,-84.2362 73.5615,-91.094"/>
<text text-anchor="middle" x="91.5" y="-101" font-family="Helvetica,sans-Serif" font-size="10.00"> +size</text>
</g>
</g>
</svg>
