<?xml version="1.0" encoding="UTF-8" standalone="no"?>
<!DOCTYPE svg PUBLIC "-//W3C//DTD SVG 1.1//EN"
 "http://www.w3.org/Graphics/SVG/1.1/DTD/svg11.dtd">
<!-- Generated by graphviz version 2.38.0 (20140413.2041)
 -->
<!-- Title: o2::quality_control::checker::CheckConfig Pages: 1 -->
<svg width="428pt" height="237pt"
 viewBox="0.00 0.00 427.50 237.00" xmlns="http://www.w3.org/2000/svg" xmlns:xlink="http://www.w3.org/1999/xlink">
<g id="graph0" class="graph" transform="scale(1 1) rotate(0) translate(4 233)">
<title>o2::quality_control::checker::CheckConfig</title>
<!-- Node1 -->
<g id="node1" class="node"><title>Node1</title>
<polygon fill="#bfbfbf" stroke="black" points="173.5,-0.5 173.5,-68.5 293.5,-68.5 293.5,-0.5 173.5,-0.5"/>
<text text-anchor="start" x="181.5" y="-56.5" font-family="Helvetica,sans-Serif" font-size="10.00">o2::quality_control</text>
<text text-anchor="middle" x="233.5" y="-45.5" font-family="Helvetica,sans-Serif" font-size="10.00">::checker::CheckConfig</text>
<polyline fill="none" stroke="black" points="173.5,-38.5 293.5,-38.5 "/>
<text text-anchor="middle" x="233.5" y="-26.5" font-family="Helvetica,sans-Serif" font-size="10.00"> </text>
<polyline fill="none" stroke="black" points="173.5,-19.5 293.5,-19.5 "/>
<text text-anchor="middle" x="233.5" y="-7.5" font-family="Helvetica,sans-Serif" font-size="10.00"> </text>
</g>
<!-- Node2 -->
<g id="node2" class="node"><title>Node2</title>
<polygon fill="none" stroke="#bfbfbf" points="0,-166 0,-223 105,-223 105,-166 0,-166"/>
<text text-anchor="middle" x="52.5" y="-211" font-family="Helvetica,sans-Serif" font-size="10.00">vector&lt; std::string &gt;</text>
<polyline fill="none" stroke="#bfbfbf" points="0,-204 105,-204 "/>
<text text-anchor="middle" x="52.5" y="-192" font-family="Helvetica,sans-Serif" font-size="10.00"> </text>
<polyline fill="none" stroke="#bfbfbf" points="0,-185 105,-185 "/>
<text text-anchor="middle" x="52.5" y="-173" font-family="Helvetica,sans-Serif" font-size="10.00"> </text>
</g>
<!-- Node2&#45;&gt;Node1 -->
<g id="edge1" class="edge"><title>Node2&#45;&gt;Node1</title>
<path fill="none" stroke="#404040" d="M61.6781,-165.668C70.7522,-141.968 86.7455,-108.444 110.5,-87 125.229,-73.704 143.883,-63.5383 162.183,-55.8971"/>
<polygon fill="none" stroke="#404040" points="162.322,-55.8427 166.447,-49.9277 173.493,-51.4603 169.368,-57.3752 162.322,-55.8427"/>
<text text-anchor="middle" x="138" y="-112" font-family="Helvetica,sans-Serif" font-size="10.00"> +moNames</text>
</g>
<!-- Node3 -->
<g id="node3" class="node"><title>Node3</title>
<polygon fill="none" stroke="#bfbfbf" points="123.5,-160.5 123.5,-228.5 229.5,-228.5 229.5,-160.5 123.5,-160.5"/>
<text text-anchor="start" x="131.5" y="-216.5" font-family="Helvetica,sans-Serif" font-size="10.00">unordered_map&lt; std</text>
<text text-anchor="middle" x="176.5" y="-205.5" font-family="Helvetica,sans-Serif" font-size="10.00">::string, std::string &gt;</text>
<polyline fill="none" stroke="#bfbfbf" points="123.5,-198.5 229.5,-198.5 "/>
<text text-anchor="middle" x="176.5" y="-186.5" font-family="Helvetica,sans-Serif" font-size="10.00"> </text>
<polyline fill="none" stroke="#bfbfbf" points="123.5,-179.5 229.5,-179.5 "/>
<text text-anchor="middle" x="176.5" y="-167.5" font-family="Helvetica,sans-Serif" font-size="10.00"> </text>
</g>
<!-- Node3&#45;&gt;Node1 -->
<g id="edge2" class="edge"><title>Node3&#45;&gt;Node1</title>
<path fill="none" stroke="#404040" d="M170.22,-160.383C167.641,-138.6 167.285,-109.979 177.5,-87 178.837,-83.992 180.445,-81.0817 182.257,-78.2784"/>
<polygon fill="none" stroke="#404040" points="182.341,-78.1678 182.787,-70.9704 189.602,-68.6132 189.156,-75.8106 182.341,-78.1678"/>
<text text-anchor="middle" x="223.5" y="-112" font-family="Helvetica,sans-Serif" font-size="10.00"> +customParameters</text>
</g>
<!-- Node4 -->
<g id="node4" class="node"><title>Node4</title>
<polygon fill="none" stroke="#bfbfbf" points="274,-166 274,-223 309,-223 309,-166 274,-166"/>
<text text-anchor="middle" x="291.5" y="-211" font-family="Helvetica,sans-Serif" font-size="10.00">bool</text>
<polyline fill="none" stroke="#bfbfbf" points="274,-204 309,-204 "/>
<text text-anchor="middle" x="291.5" y="-192" font-family="Helvetica,sans-Serif" font-size="10.00"> </text>
<polyline fill="none" stroke="#bfbfbf" points="274,-185 309,-185 "/>
<text text-anchor="middle" x="291.5" y="-173" font-family="Helvetica,sans-Serif" font-size="10.00"> </text>
</g>
<!-- Node4&#45;&gt;Node1 -->
<g id="edge3" class="edge"><title>Node4&#45;&gt;Node1</title>
<path fill="none" stroke="#404040" d="M288.905,-165.881C286.107,-143.82 280.484,-112.488 269.5,-87 268.371,-84.3796 267.096,-81.7571 265.719,-79.1601"/>
<polygon fill="none" stroke="#404040" points="265.653,-79.0479 259.165,-75.8993 259.577,-68.6999 266.064,-71.8485 265.653,-79.0479"/>
<text text-anchor="middle" x="305.5" y="-112" font-family="Helvetica,sans-Serif" font-size="10.00"> +allMOs</text>
</g>
<!-- Node5 -->
<g id="node5" class="node"><title>Node5</title>
<polygon fill="none" stroke="#bfbfbf" points="334,-166 334,-223 375,-223 375,-166 334,-166"/>
<text text-anchor="middle" x="354.5" y="-211" font-family="Helvetica,sans-Serif" font-size="10.00">string</text>
<polyline fill="none" stroke="#bfbfbf" points="334,-204 375,-204 "/>
<text text-anchor="middle" x="354.5" y="-192" font-family="Helvetica,sans-Serif" font-size="10.00"> </text>
<polyline fill="none" stroke="#bfbfbf" points="334,-185 375,-185 "/>
<text text-anchor="middle" x="354.5" y="-173" font-family="Helvetica,sans-Serif" font-size="10.00"> </text>
</g>
<!-- Node5&#45;&gt;Node1 -->
<g id="edge4" class="edge"><title>Node5&#45;&gt;Node1</title>
<path fill="none" stroke="#404040" d="M354.144,-165.931C352.519,-142.717 346.958,-109.752 329.5,-87 322.578,-77.9793 313.613,-70.3553 303.947,-63.9694"/>
<polygon fill="none" stroke="#404040" points="303.943,-63.9671 296.739,-64.2843 293.675,-57.7562 300.879,-57.4391 303.943,-63.9671"/>
<text text-anchor="middle" x="385.5" y="-134" font-family="Helvetica,sans-Serif" font-size="10.00"> +checkName</text>
<text text-anchor="middle" x="385.5" y="-123" font-family="Helvetica,sans-Serif" font-size="10.00">+detectorName</text>
<text text-anchor="middle" x="385.5" y="-112" font-family="Helvetica,sans-Serif" font-size="10.00">+moduleName</text>
<text text-anchor="middle" x="385.5" y="-101" font-family="Helvetica,sans-Serif" font-size="10.00">+policyType</text>
<text text-anchor="middle" x="385.5" y="-90" font-family="Helvetica,sans-Serif" font-size="10.00">+className</text>
</g>
</g>
</svg>
