<?xml version="1.0" encoding="UTF-8" standalone="no"?>
<!DOCTYPE svg PUBLIC "-//W3C//DTD SVG 1.1//EN"
 "http://www.w3.org/Graphics/SVG/1.1/DTD/svg11.dtd">
<!-- Generated by graphviz version 2.38.0 (20140413.2041)
 -->
<!-- Title: o2::quality_control::postprocessing::TrendingTaskConfig Pages: 1 -->
<svg width="547pt" height="397pt"
 viewBox="0.00 0.00 547.00 397.00" xmlns="http://www.w3.org/2000/svg" xmlns:xlink="http://www.w3.org/1999/xlink">
<g id="graph0" class="graph" transform="scale(1 1) rotate(0) translate(4 393)">
<title>o2::quality_control::postprocessing::TrendingTaskConfig</title>
<!-- Node1 -->
<g id="node1" class="node"><title>Node1</title>
<polygon fill="#bfbfbf" stroke="black" points="206.5,-0.5 206.5,-101.5 338.5,-101.5 338.5,-0.5 206.5,-0.5"/>
<text text-anchor="start" x="214.5" y="-89.5" font-family="Helvetica,sans-Serif" font-size="10.00">o2::quality_control</text>
<text text-anchor="start" x="214.5" y="-78.5" font-family="Helvetica,sans-Serif" font-size="10.00">::postprocessing::Trending</text>
<text text-anchor="middle" x="272.5" y="-67.5" font-family="Helvetica,sans-Serif" font-size="10.00">TaskConfig</text>
<polyline fill="none" stroke="black" points="206.5,-60.5 338.5,-60.5 "/>
<text text-anchor="middle" x="272.5" y="-48.5" font-family="Helvetica,sans-Serif" font-size="10.00"> </text>
<polyline fill="none" stroke="black" points="206.5,-41.5 338.5,-41.5 "/>
<text text-anchor="start" x="214.5" y="-29.5" font-family="Helvetica,sans-Serif" font-size="10.00">+ TrendingTaskConfig()</text>
<text text-anchor="start" x="214.5" y="-18.5" font-family="Helvetica,sans-Serif" font-size="10.00">+ TrendingTaskConfig()</text>
<text text-anchor="start" x="214.5" y="-7.5" font-family="Helvetica,sans-Serif" font-size="10.00">+ ~TrendingTaskConfig()</text>
</g>
<!-- Node2 -->
<g id="node2" class="node"><title>Node2</title>
<g id="a_node2"><a xlink:href="structo2_1_1quality__control_1_1postprocessing_1_1PostProcessingConfig.html" target="_top" xlink:title="Post&#45;processing configuration structure. ">
<polygon fill="none" stroke="black" points="18.5,-149.5 18.5,-250.5 182.5,-250.5 182.5,-149.5 18.5,-149.5"/>
<text text-anchor="start" x="26.5" y="-238.5" font-family="Helvetica,sans-Serif" font-size="10.00">o2::quality_control</text>
<text text-anchor="start" x="26.5" y="-227.5" font-family="Helvetica,sans-Serif" font-size="10.00">::postprocessing::PostProcessing</text>
<text text-anchor="middle" x="100.5" y="-216.5" font-family="Helvetica,sans-Serif" font-size="10.00">Config</text>
<polyline fill="none" stroke="black" points="18.5,-209.5 182.5,-209.5 "/>
<text text-anchor="middle" x="100.5" y="-197.5" font-family="Helvetica,sans-Serif" font-size="10.00"> </text>
<polyline fill="none" stroke="black" points="18.5,-190.5 182.5,-190.5 "/>
<text text-anchor="start" x="26.5" y="-178.5" font-family="Helvetica,sans-Serif" font-size="10.00">+ PostProcessingConfig()</text>
<text text-anchor="start" x="26.5" y="-167.5" font-family="Helvetica,sans-Serif" font-size="10.00">+ PostProcessingConfig()</text>
<text text-anchor="start" x="26.5" y="-156.5" font-family="Helvetica,sans-Serif" font-size="10.00">+ ~PostProcessingConfig()</text>
</a>
</g>
</g>
<!-- Node2&#45;&gt;Node1 -->
<g id="edge1" class="edge"><title>Node2&#45;&gt;Node1</title>
<path fill="none" stroke="midnightblue" d="M166.394,-142.684C182.179,-129.193 198.922,-114.884 214.329,-101.716"/>
<polygon fill="none" stroke="midnightblue" points="164.059,-140.075 158.731,-149.233 168.607,-145.396 164.059,-140.075"/>
</g>
<!-- Node3 -->
<g id="node3" class="node"><title>Node3</title>
<polygon fill="none" stroke="#bfbfbf" points="0,-331.5 0,-388.5 105,-388.5 105,-331.5 0,-331.5"/>
<text text-anchor="middle" x="52.5" y="-376.5" font-family="Helvetica,sans-Serif" font-size="10.00">vector&lt; std::string &gt;</text>
<polyline fill="none" stroke="#bfbfbf" points="0,-369.5 105,-369.5 "/>
<text text-anchor="middle" x="52.5" y="-357.5" font-family="Helvetica,sans-Serif" font-size="10.00"> </text>
<polyline fill="none" stroke="#bfbfbf" points="0,-350.5 105,-350.5 "/>
<text text-anchor="middle" x="52.5" y="-338.5" font-family="Helvetica,sans-Serif" font-size="10.00"> </text>
</g>
<!-- Node3&#45;&gt;Node2 -->
<g id="edge2" class="edge"><title>Node3&#45;&gt;Node2</title>
<path fill="none" stroke="#404040" d="M48.6737,-331.161C47.1776,-313.032 47.1061,-289.103 53.5,-269 54.3129,-266.444 55.2575,-263.899 56.3104,-261.377"/>
<polygon fill="none" stroke="#404040" points="56.3405,-261.315 55.3395,-254.173 61.5465,-250.503 62.5475,-257.644 56.3405,-261.315"/>
<text text-anchor="middle" x="90.5" y="-299.5" font-family="Helvetica,sans-Serif" font-size="10.00"> +updateTriggers</text>
<text text-anchor="middle" x="90.5" y="-288.5" font-family="Helvetica,sans-Serif" font-size="10.00">+stopTriggers</text>
<text text-anchor="middle" x="90.5" y="-277.5" font-family="Helvetica,sans-Serif" font-size="10.00">+initTriggers</text>
</g>
<!-- Node4 -->
<g id="node4" class="node"><title>Node4</title>
<polygon fill="none" stroke="#bfbfbf" points="129,-331.5 129,-388.5 170,-388.5 170,-331.5 129,-331.5"/>
<text text-anchor="middle" x="149.5" y="-376.5" font-family="Helvetica,sans-Serif" font-size="10.00">string</text>
<polyline fill="none" stroke="#bfbfbf" points="129,-369.5 170,-369.5 "/>
<text text-anchor="middle" x="149.5" y="-357.5" font-family="Helvetica,sans-Serif" font-size="10.00"> </text>
<polyline fill="none" stroke="#bfbfbf" points="129,-350.5 170,-350.5 "/>
<text text-anchor="middle" x="149.5" y="-338.5" font-family="Helvetica,sans-Serif" font-size="10.00"> </text>
</g>
<!-- Node4&#45;&gt;Node2 -->
<g id="edge3" class="edge"><title>Node4&#45;&gt;Node2</title>
<path fill="none" stroke="#404040" d="M143.737,-331.152C139.772,-313.23 134.052,-289.534 127.5,-269 126.791,-266.776 126.044,-264.522 125.269,-262.252"/>
<polygon fill="none" stroke="#404040" points="125.233,-262.151 119.449,-257.845 121.2,-250.849 126.984,-255.156 125.233,-262.151"/>
<text text-anchor="middle" x="176" y="-305" font-family="Helvetica,sans-Serif" font-size="10.00"> +detectorName</text>
<text text-anchor="middle" x="176" y="-294" font-family="Helvetica,sans-Serif" font-size="10.00">+moduleName</text>
<text text-anchor="middle" x="176" y="-283" font-family="Helvetica,sans-Serif" font-size="10.00">+taskName</text>
<text text-anchor="middle" x="176" y="-272" font-family="Helvetica,sans-Serif" font-size="10.00">+className</text>
</g>
<!-- Node5 -->
<g id="node5" class="node"><title>Node5</title>
<polygon fill="none" stroke="#bfbfbf" points="201,-160.5 201,-239.5 344,-239.5 344,-160.5 201,-160.5"/>
<text text-anchor="start" x="209" y="-227.5" font-family="Helvetica,sans-Serif" font-size="10.00">vector&lt; o2::quality</text>
<text text-anchor="start" x="209" y="-216.5" font-family="Helvetica,sans-Serif" font-size="10.00">_control::postprocessing</text>
<text text-anchor="middle" x="272.5" y="-205.5" font-family="Helvetica,sans-Serif" font-size="10.00">::TrendingTaskConfig::Plot &gt;</text>
<polyline fill="none" stroke="#bfbfbf" points="201,-198.5 344,-198.5 "/>
<text text-anchor="middle" x="272.5" y="-186.5" font-family="Helvetica,sans-Serif" font-size="10.00"> </text>
<polyline fill="none" stroke="#bfbfbf" points="201,-179.5 344,-179.5 "/>
<text text-anchor="middle" x="272.5" y="-167.5" font-family="Helvetica,sans-Serif" font-size="10.00"> </text>
</g>
<!-- Node5&#45;&gt;Node1 -->
<g id="edge4" class="edge"><title>Node5&#45;&gt;Node1</title>
<path fill="none" stroke="#404040" d="M272.5,-160.377C272.5,-146.215 272.5,-129.803 272.5,-114.102"/>
<polygon fill="none" stroke="#404040" points="272.5,-113.719 268.5,-107.719 272.5,-101.719 276.5,-107.719 272.5,-113.719"/>
<text text-anchor="middle" x="288" y="-123" font-family="Helvetica,sans-Serif" font-size="10.00"> +plots</text>
</g>
<!-- Node6 -->
<g id="node6" class="node"><title>Node6</title>
<polygon fill="none" stroke="#bfbfbf" points="362,-160.5 362,-239.5 539,-239.5 539,-160.5 362,-160.5"/>
<text text-anchor="start" x="370" y="-227.5" font-family="Helvetica,sans-Serif" font-size="10.00">vector&lt; o2::quality</text>
<text text-anchor="start" x="370" y="-216.5" font-family="Helvetica,sans-Serif" font-size="10.00">_control::postprocessing</text>
<text text-anchor="middle" x="450.5" y="-205.5" font-family="Helvetica,sans-Serif" font-size="10.00">::TrendingTaskConfig::DataSource &gt;</text>
<polyline fill="none" stroke="#bfbfbf" points="362,-198.5 539,-198.5 "/>
<text text-anchor="middle" x="450.5" y="-186.5" font-family="Helvetica,sans-Serif" font-size="10.00"> </text>
<polyline fill="none" stroke="#bfbfbf" points="362,-179.5 539,-179.5 "/>
<text text-anchor="middle" x="450.5" y="-167.5" font-family="Helvetica,sans-Serif" font-size="10.00"> </text>
</g>
<!-- Node6&#45;&gt;Node1 -->
<g id="edge5" class="edge"><title>Node6&#45;&gt;Node1</title>
<path fill="none" stroke="#404040" d="M403.733,-160.377C384.885,-144.812 362.748,-126.531 342.08,-109.462"/>
<polygon fill="none" stroke="#404040" points="341.957,-109.361 334.784,-108.624 332.704,-101.719 339.878,-102.456 341.957,-109.361"/>
<text text-anchor="middle" x="399.5" y="-123" font-family="Helvetica,sans-Serif" font-size="10.00"> +dataSources</text>
</g>
</g>
</svg>
