<?xml version="1.0" encoding="UTF-8" standalone="no"?>
<!DOCTYPE svg PUBLIC "-//W3C//DTD SVG 1.1//EN"
 "http://www.w3.org/Graphics/SVG/1.1/DTD/svg11.dtd">
<!-- Generated by graphviz version 2.38.0 (20140413.2041)
 -->
<!-- Title: o2::quality_control_modules::muonchambers::DualSampa Pages: 1 -->
<!--zoomable 623 -->
<svg id="main" version="1.1" xmlns="http://www.w3.org/2000/svg" xmlns:xlink="http://www.w3.org/1999/xlink" xml:space="preserve" onload="init(evt)">
<style type="text/css"><![CDATA[
.edge:hover path { stroke: red; }
.edge:hover polygon { stroke: red; fill: red; }
]]></style>
<script type="text/javascript"><![CDATA[
var edges = document.getElementsByTagName('g');
if (edges && edges.length) {
  for (var i=0;i<edges.length;i++) {
    if (edges[i].id.substr(0,4)=='edge') {
      edges[i].setAttribute('class','edge');
    }
  }
}
]]></script>
        <defs>
                <circle id="rim" cx="0" cy="0" r="7"/>
                <circle id="rim2" cx="0" cy="0" r="3.5"/>
                <g id="zoomPlus">
                        <use xlink:href="#rim" fill="#404040">
                                <set attributeName="fill" to="#808080" begin="zoomplus.mouseover" end="zoomplus.mouseout"/>
                        </use>
                        <path d="M-4,0h8M0,-4v8" fill="none" stroke="white" stroke-width="1.5" pointer-events="none"/>
                </g>
                <g id="zoomMin">
                        <use xlink:href="#rim" fill="#404040">
                                <set attributeName="fill" to="#808080" begin="zoomminus.mouseover" end="zoomminus.mouseout"/>
                        </use>
                        <path d="M-4,0h8" fill="none" stroke="white" stroke-width="1.5" pointer-events="none"/>
                </g>
                <g id="dirArrow">
                        <path fill="none" stroke="white" stroke-width="1.5" d="M0,-3.0v7 M-2.5,-0.5L0,-3.0L2.5,-0.5"/>
                </g>
               <g id="resetDef">
                       <use xlink:href="#rim2" fill="#404040">
                               <set attributeName="fill" to="#808080" begin="reset.mouseover" end="reset.mouseout"/>
                       </use>
               </g>
        </defs>

<script type="text/javascript">
var viewWidth = 969;
var viewHeight = 623;
var sectionId = 'dynsection-0';
</script>
<script xlink:href="svgpan.js"/>
<svg id="graph" class="graph">
<g id="viewport">
<title>o2::quality_control_modules::muonchambers::DualSampa</title>
<!-- Node1 -->
<g id="node1" class="node"><title>Node1</title>
<polygon fill="#bfbfbf" stroke="black" points="317.5,-0.5 317.5,-79.5 448.5,-79.5 448.5,-0.5 317.5,-0.5"/>
<text text-anchor="start" x="325.5" y="-67.5" font-family="Helvetica,sans-Serif" font-size="10.00">o2::quality_control</text>
<text text-anchor="start" x="325.5" y="-56.5" font-family="Helvetica,sans-Serif" font-size="10.00">_modules::muonchambers</text>
<text text-anchor="middle" x="383" y="-45.5" font-family="Helvetica,sans-Serif" font-size="10.00">::DualSampa</text>
<polyline fill="none" stroke="black" points="317.5,-38.5 448.5,-38.5 "/>
<text text-anchor="middle" x="383" y="-26.5" font-family="Helvetica,sans-Serif" font-size="10.00"> </text>
<polyline fill="none" stroke="black" points="317.5,-19.5 448.5,-19.5 "/>
<text text-anchor="middle" x="383" y="-7.5" font-family="Helvetica,sans-Serif" font-size="10.00"> </text>
</g>
<!-- Node2 -->
<g id="node2" class="node"><title>Node2</title>
<polygon fill="none" stroke="#bfbfbf" points="0,-149.5 0,-206.5 96,-206.5 96,-149.5 0,-149.5"/>
<text text-anchor="middle" x="48" y="-194.5" font-family="Helvetica,sans-Serif" font-size="10.00">DualSampaStatus</text>
<polyline fill="none" stroke="#bfbfbf" points="0,-187.5 96,-187.5 "/>
<text text-anchor="middle" x="48" y="-175.5" font-family="Helvetica,sans-Serif" font-size="10.00"> </text>
<polyline fill="none" stroke="#bfbfbf" points="0,-168.5 96,-168.5 "/>
<text text-anchor="middle" x="48" y="-156.5" font-family="Helvetica,sans-Serif" font-size="10.00"> </text>
</g>
<!-- Node2&#45;&gt;Node1 -->
<g id="edge1" class="edge"><title>Node2&#45;&gt;Node1</title>
<path fill="none" stroke="#404040" d="M86.7916,-149.428C92.8024,-145.457 99.0061,-141.527 105,-138 139.261,-117.84 147.966,-112.448 185,-98 223.941,-82.8077 268.586,-69.6085 305.615,-59.7482"/>
<polygon fill="none" stroke="#404040" points="305.746,-59.7139 310.533,-54.321 317.353,-56.6659 312.565,-62.0587 305.746,-59.7139"/>
<text text-anchor="middle" x="203.5" y="-106.5" font-family="Helvetica,sans-Serif" font-size="10.00"> +status</text>
</g>
<!-- Node3 -->
<g id="node3" class="node"><title>Node3</title>
<polygon fill="none" stroke="#bfbfbf" points="236.5,-370 236.5,-427 313.5,-427 313.5,-370 236.5,-370"/>
<text text-anchor="middle" x="275" y="-415" font-family="Helvetica,sans-Serif" font-size="10.00">unsigned long</text>
<polyline fill="none" stroke="#bfbfbf" points="236.5,-408 313.5,-408 "/>
<text text-anchor="middle" x="275" y="-396" font-family="Helvetica,sans-Serif" font-size="10.00"> </text>
<polyline fill="none" stroke="#bfbfbf" points="236.5,-389 313.5,-389 "/>
<text text-anchor="middle" x="275" y="-377" font-family="Helvetica,sans-Serif" font-size="10.00"> </text>
</g>
<!-- Node3&#45;&gt;Node1 -->
<g id="edge2" class="edge"><title>Node3&#45;&gt;Node1</title>
<path fill="none" stroke="#404040" d="M313.6,-369.717C324.469,-359.964 335.177,-348.126 342,-335 343.397,-332.313 364.865,-174.934 376.163,-91.5766"/>
<polygon fill="none" stroke="#404040" points="376.174,-91.4902 373.016,-85.0075 377.785,-79.5988 380.944,-86.0815 376.174,-91.4902"/>
<text text-anchor="middle" x="382.5" y="-175.5" font-family="Helvetica,sans-Serif" font-size="10.00"> +bxc</text>
</g>
<!-- Node5 -->
<g id="node5" class="node"><title>Node5</title>
<g id="a_node5"><a xlink:href="structSampa_1_1SampaHeaderStruct.html" target="_top" xlink:title="{Sampa::SampaHeaderStruct\n||}">
<polygon fill="none" stroke="black" points="114,-149.5 114,-206.5 256,-206.5 256,-149.5 114,-149.5"/>
<text text-anchor="middle" x="185" y="-194.5" font-family="Helvetica,sans-Serif" font-size="10.00">Sampa::SampaHeaderStruct</text>
<polyline fill="none" stroke="black" points="114,-187.5 256,-187.5 "/>
<text text-anchor="middle" x="185" y="-175.5" font-family="Helvetica,sans-Serif" font-size="10.00"> </text>
<polyline fill="none" stroke="black" points="114,-168.5 256,-168.5 "/>
<text text-anchor="middle" x="185" y="-156.5" font-family="Helvetica,sans-Serif" font-size="10.00"> </text>
</a>
</g>
</g>
<!-- Node3&#45;&gt;Node5 -->
<g id="edge5" class="edge"><title>Node3&#45;&gt;Node5</title>
<path fill="none" stroke="#404040" d="M252.555,-369.781C244.909,-359.342 236.831,-347.068 231,-335 212.836,-297.405 200.308,-251.192 192.966,-218.861"/>
<polygon fill="none" stroke="#404040" points="192.885,-218.494 187.693,-213.49 190.315,-206.772 195.507,-211.776 192.885,-218.494"/>
<text text-anchor="middle" x="286.5" y="-327" font-family="Helvetica,sans-Serif" font-size="10.00"> +fHammingCode</text>
<text text-anchor="middle" x="286.5" y="-316" font-family="Helvetica,sans-Serif" font-size="10.00">+fPkgType</text>
<text text-anchor="middle" x="286.5" y="-305" font-family="Helvetica,sans-Serif" font-size="10.00">+fPayloadParity</text>
<text text-anchor="middle" x="286.5" y="-294" font-family="Helvetica,sans-Serif" font-size="10.00">+fChipAddress</text>
<text text-anchor="middle" x="286.5" y="-283" font-family="Helvetica,sans-Serif" font-size="10.00">+fNbOf10BitWords</text>
<text text-anchor="middle" x="286.5" y="-272" font-family="Helvetica,sans-Serif" font-size="10.00">+fHeaderParity</text>
<text text-anchor="middle" x="286.5" y="-261" font-family="Helvetica,sans-Serif" font-size="10.00">+fBunchCrossingCounter</text>
<text text-anchor="middle" x="286.5" y="-250" font-family="Helvetica,sans-Serif" font-size="10.00">+fChannelAddress</text>
<text text-anchor="middle" x="286.5" y="-239" font-family="Helvetica,sans-Serif" font-size="10.00">+fUnused</text>
</g>
<!-- Node4 -->
<g id="node4" class="node"><title>Node4</title>
<polygon fill="none" stroke="#bfbfbf" points="274.5,-149.5 274.5,-206.5 319.5,-206.5 319.5,-149.5 274.5,-149.5"/>
<text text-anchor="middle" x="297" y="-194.5" font-family="Helvetica,sans-Serif" font-size="10.00">double</text>
<polyline fill="none" stroke="#bfbfbf" points="274.5,-187.5 319.5,-187.5 "/>
<text text-anchor="middle" x="297" y="-175.5" font-family="Helvetica,sans-Serif" font-size="10.00"> </text>
<polyline fill="none" stroke="#bfbfbf" points="274.5,-168.5 319.5,-168.5 "/>
<text text-anchor="middle" x="297" y="-156.5" font-family="Helvetica,sans-Serif" font-size="10.00"> </text>
</g>
<!-- Node4&#45;&gt;Node1 -->
<g id="edge3" class="edge"><title>Node4&#45;&gt;Node1</title>
<path fill="none" stroke="#404040" d="M290.821,-149.472C288.696,-133.526 288.631,-113.588 297,-98 300.125,-92.1806 304.133,-86.855 308.707,-82.0018"/>
<polygon fill="none" stroke="#404040" points="308.728,-81.9817 310.367,-74.9593 317.48,-73.7714 315.841,-80.7937 308.728,-81.9817"/>
<text text-anchor="middle" x="320" y="-112" font-family="Helvetica,sans-Serif" font-size="10.00"> +pedestal</text>
<text text-anchor="middle" x="320" y="-101" font-family="Helvetica,sans-Serif" font-size="10.00">+noise</text>
</g>
<!-- Node5&#45;&gt;Node1 -->
<g id="edge4" class="edge"><title>Node5&#45;&gt;Node1</title>
<path fill="none" stroke="#404040" d="M202.035,-149.196C213.373,-132.554 229.546,-111.987 248,-98 265.284,-84.9003 286.025,-74.2044 306.006,-65.7641"/>
<polygon fill="none" stroke="#404040" points="306.202,-65.6848 310.262,-59.7251 317.325,-61.1805 313.265,-67.1402 306.202,-65.6848"/>
<text text-anchor="middle" x="267.5" y="-106.5" font-family="Helvetica,sans-Serif" font-size="10.00"> +header</text>
</g>
<!-- Node6 -->
<g id="node6" class="node"><title>Node6</title>
<polygon fill="none" stroke="#bfbfbf" points="437.5,-370 437.5,-427 488.5,-427 488.5,-370 437.5,-370"/>
<text text-anchor="middle" x="463" y="-415" font-family="Helvetica,sans-Serif" font-size="10.00">uint64_t</text>
<polyline fill="none" stroke="#bfbfbf" points="437.5,-408 488.5,-408 "/>
<text text-anchor="middle" x="463" y="-396" font-family="Helvetica,sans-Serif" font-size="10.00"> </text>
<polyline fill="none" stroke="#bfbfbf" points="437.5,-389 488.5,-389 "/>
<text text-anchor="middle" x="463" y="-377" font-family="Helvetica,sans-Serif" font-size="10.00"> </text>
</g>
<!-- Node6&#45;&gt;Node1 -->
<g id="edge6" class="edge"><title>Node6&#45;&gt;Node1</title>
<path fill="none" stroke="#404040" d="M465.348,-369.902C467.553,-337.615 469.623,-282.636 463,-236 454.022,-172.776 450.604,-155.583 423,-98 421.697,-95.2814 420.268,-92.5516 418.75,-89.8386"/>
<polygon fill="none" stroke="#404040" points="418.725,-89.7964 412.203,-86.72 412.534,-79.5165 419.056,-82.5929 418.725,-89.7964"/>
<text text-anchor="middle" x="497" y="-186.5" font-family="Helvetica,sans-Serif" font-size="10.00"> +data</text>
<text text-anchor="middle" x="497" y="-175.5" font-family="Helvetica,sans-Serif" font-size="10.00">+powerMultiplier</text>
<text text-anchor="middle" x="497" y="-164.5" font-family="Helvetica,sans-Serif" font-size="10.00">+packetsize</text>
</g>
<!-- Node9 -->
<g id="node9" class="node"><title>Node9</title>
<g id="a_node9"><a xlink:href="structo2_1_1quality__control__modules_1_1muonchambers_1_1SampaHit.html" target="_top" xlink:title="{o2::quality_control\l_modules::muonchambers\l::SampaHit\n||}">
<polygon fill="none" stroke="black" points="668.5,-138.5 668.5,-217.5 799.5,-217.5 799.5,-138.5 668.5,-138.5"/>
<text text-anchor="start" x="676.5" y="-205.5" font-family="Helvetica,sans-Serif" font-size="10.00">o2::quality_control</text>
<text text-anchor="start" x="676.5" y="-194.5" font-family="Helvetica,sans-Serif" font-size="10.00">_modules::muonchambers</text>
<text text-anchor="middle" x="734" y="-183.5" font-family="Helvetica,sans-Serif" font-size="10.00">::SampaHit</text>
<polyline fill="none" stroke="black" points="668.5,-176.5 799.5,-176.5 "/>
<text text-anchor="middle" x="734" y="-164.5" font-family="Helvetica,sans-Serif" font-size="10.00"> </text>
<polyline fill="none" stroke="black" points="668.5,-157.5 799.5,-157.5 "/>
<text text-anchor="middle" x="734" y="-145.5" font-family="Helvetica,sans-Serif" font-size="10.00"> </text>
</a>
</g>
</g>
<!-- Node6&#45;&gt;Node9 -->
<g id="edge10" class="edge"><title>Node6&#45;&gt;Node9</title>
<path fill="none" stroke="#404040" d="M476.882,-369.789C498.192,-328.337 539.106,-253.202 564,-236 597.56,-212.81 615.35,-231.044 654,-218 654.878,-217.704 655.76,-217.4 656.643,-217.089"/>
<polygon fill="none" stroke="#404040" points="656.982,-216.96 661.168,-211.087 668.198,-212.693 664.012,-218.565 656.982,-216.96"/>
<text text-anchor="middle" x="581" y="-283" font-family="Helvetica,sans-Serif" font-size="10.00"> +csum</text>
</g>
<!-- Node7 -->
<g id="node7" class="node"><title>Node7</title>
<polygon fill="none" stroke="#bfbfbf" points="655.5,-370 655.5,-427 706.5,-427 706.5,-370 655.5,-370"/>
<text text-anchor="middle" x="681" y="-415" font-family="Helvetica,sans-Serif" font-size="10.00">uint32_t</text>
<polyline fill="none" stroke="#bfbfbf" points="655.5,-408 706.5,-408 "/>
<text text-anchor="middle" x="681" y="-396" font-family="Helvetica,sans-Serif" font-size="10.00"> </text>
<polyline fill="none" stroke="#bfbfbf" points="655.5,-389 706.5,-389 "/>
<text text-anchor="middle" x="681" y="-377" font-family="Helvetica,sans-Serif" font-size="10.00"> </text>
</g>
<!-- Node7&#45;&gt;Node1 -->
<g id="edge7" class="edge"><title>Node7&#45;&gt;Node1</title>
<path fill="none" stroke="#404040" d="M671.434,-369.704C652.642,-318.46 606.582,-207.954 537,-138 514.476,-115.355 485.729,-95.47 459.186,-79.6956"/>
<polygon fill="none" stroke="#404040" points="459.128,-79.662 451.93,-80.1069 448.751,-73.6343 455.949,-73.1894 459.128,-79.662"/>
<text text-anchor="middle" x="617" y="-192" font-family="Helvetica,sans-Serif" font-size="10.00"> +cid</text>
<text text-anchor="middle" x="617" y="-181" font-family="Helvetica,sans-Serif" font-size="10.00">+ctime</text>
<text text-anchor="middle" x="617" y="-170" font-family="Helvetica,sans-Serif" font-size="10.00">+sample</text>
<text text-anchor="middle" x="617" y="-159" font-family="Helvetica,sans-Serif" font-size="10.00">+csize</text>
</g>
<!-- Node7&#45;&gt;Node9 -->
<g id="edge16" class="edge"><title>Node7&#45;&gt;Node9</title>
<path fill="none" stroke="#404040" d="M685.133,-369.756C690.276,-337.332 699.993,-282.225 713,-236 713.632,-233.754 714.312,-231.47 715.026,-229.172"/>
<polygon fill="none" stroke="#404040" points="715.061,-229.066 713.146,-222.114 718.826,-217.672 720.742,-224.624 715.061,-229.066"/>
<text text-anchor="middle" x="727" y="-288.5" font-family="Helvetica,sans-Serif" font-size="10.00"> +time</text>
<text text-anchor="middle" x="727" y="-277.5" font-family="Helvetica,sans-Serif" font-size="10.00">+size</text>
</g>
<!-- Node8 -->
<g id="node8" class="node"><title>Node8</title>
<polygon fill="none" stroke="#bfbfbf" points="425.5,-557.5 425.5,-614.5 454.5,-614.5 454.5,-557.5 425.5,-557.5"/>
<text text-anchor="middle" x="440" y="-602.5" font-family="Helvetica,sans-Serif" font-size="10.00">int</text>
<polyline fill="none" stroke="#bfbfbf" points="425.5,-595.5 454.5,-595.5 "/>
<text text-anchor="middle" x="440" y="-583.5" font-family="Helvetica,sans-Serif" font-size="10.00"> </text>
<polyline fill="none" stroke="#bfbfbf" points="425.5,-576.5 454.5,-576.5 "/>
<text text-anchor="middle" x="440" y="-564.5" font-family="Helvetica,sans-Serif" font-size="10.00"> </text>
</g>
<!-- Node8&#45;&gt;Node1 -->
<g id="edge8" class="edge"><title>Node8&#45;&gt;Node1</title>
<path fill="none" stroke="#404040" d="M435.506,-557.338C428.196,-511.326 413.767,-416.101 406,-335 397.64,-247.707 402.832,-225.341 395,-138 393.65,-122.948 391.787,-106.628 389.931,-91.7456"/>
<polygon fill="none" stroke="#404040" points="389.906,-91.5446 385.178,-86.0996 388.386,-79.6412 393.114,-85.0862 389.906,-91.5446"/>
<text text-anchor="middle" x="432.5" y="-321.5" font-family="Helvetica,sans-Serif" font-size="10.00"> +nbHit</text>
<text text-anchor="middle" x="432.5" y="-310.5" font-family="Helvetica,sans-Serif" font-size="10.00">+nsyn2Bits</text>
<text text-anchor="middle" x="432.5" y="-299.5" font-family="Helvetica,sans-Serif" font-size="10.00">+nbHitChan</text>
<text text-anchor="middle" x="432.5" y="-288.5" font-family="Helvetica,sans-Serif" font-size="10.00">+chan_addr</text>
<text text-anchor="middle" x="432.5" y="-277.5" font-family="Helvetica,sans-Serif" font-size="10.00">+id</text>
<text text-anchor="middle" x="432.5" y="-266.5" font-family="Helvetica,sans-Serif" font-size="10.00">+nclus</text>
<text text-anchor="middle" x="432.5" y="-255.5" font-family="Helvetica,sans-Serif" font-size="10.00">+ndata</text>
<text text-anchor="middle" x="432.5" y="-244.5" font-family="Helvetica,sans-Serif" font-size="10.00">+bit</text>
</g>
<!-- Node11 -->
<g id="node11" class="node"><title>Node11</title>
<g id="a_node11"><a xlink:href="classo2_1_1quality__control__modules_1_1muonchambers_1_1MapPad.html" target="_top" xlink:title="{o2::quality_control\l_modules::muonchambers\l::MapPad\n||+ MapPad()\l+ ~MapPad()\l}">
<polygon fill="none" stroke="black" points="506.5,-353.5 506.5,-443.5 637.5,-443.5 637.5,-353.5 506.5,-353.5"/>
<text text-anchor="start" x="514.5" y="-431.5" font-family="Helvetica,sans-Serif" font-size="10.00">o2::quality_control</text>
<text text-anchor="start" x="514.5" y="-420.5" font-family="Helvetica,sans-Serif" font-size="10.00">_modules::muonchambers</text>
<text text-anchor="middle" x="572" y="-409.5" font-family="Helvetica,sans-Serif" font-size="10.00">::MapPad</text>
<polyline fill="none" stroke="black" points="506.5,-402.5 637.5,-402.5 "/>
<text text-anchor="middle" x="572" y="-390.5" font-family="Helvetica,sans-Serif" font-size="10.00"> </text>
<polyline fill="none" stroke="black" points="506.5,-383.5 637.5,-383.5 "/>
<text text-anchor="start" x="514.5" y="-371.5" font-family="Helvetica,sans-Serif" font-size="10.00">+ MapPad()</text>
<text text-anchor="start" x="514.5" y="-360.5" font-family="Helvetica,sans-Serif" font-size="10.00">+ ~MapPad()</text>
</a>
</g>
</g>
<!-- Node8&#45;&gt;Node11 -->
<g id="edge14" class="edge"><title>Node8&#45;&gt;Node11</title>
<path fill="none" stroke="#404040" d="M454.521,-560.325C469.713,-535.026 494.692,-494.844 519,-462 521.173,-459.064 523.443,-456.089 525.768,-453.111"/>
<polygon fill="none" stroke="#404040" points="525.846,-453.015 526.466,-445.83 533.336,-443.639 532.716,-450.824 525.846,-453.015"/>
<text text-anchor="middle" x="543.5" y="-531" font-family="Helvetica,sans-Serif" font-size="10.00"> +fCathode</text>
<text text-anchor="middle" x="543.5" y="-520" font-family="Helvetica,sans-Serif" font-size="10.00">+fDE</text>
<text text-anchor="middle" x="543.5" y="-509" font-family="Helvetica,sans-Serif" font-size="10.00">+fBad</text>
<text text-anchor="middle" x="543.5" y="-498" font-family="Helvetica,sans-Serif" font-size="10.00">+fPadx</text>
<text text-anchor="middle" x="543.5" y="-487" font-family="Helvetica,sans-Serif" font-size="10.00">+fPady</text>
<text text-anchor="middle" x="543.5" y="-476" font-family="Helvetica,sans-Serif" font-size="10.00">+fAddress</text>
<text text-anchor="middle" x="543.5" y="-465" font-family="Helvetica,sans-Serif" font-size="10.00">+fDsID</text>
</g>
<!-- Node9&#45;&gt;Node1 -->
<g id="edge9" class="edge"><title>Node9&#45;&gt;Node1</title>
<path fill="none" stroke="#404040" d="M689.782,-138.42C671.157,-123.889 648.584,-108.384 626,-98 573.555,-73.8856 509.893,-59.4335 460.888,-51.1174"/>
<polygon fill="none" stroke="#404040" points="460.603,-51.0709 454.036,-54.0496 448.761,-49.1332 455.328,-46.1545 460.603,-51.0709"/>
<text text-anchor="middle" x="675" y="-106.5" font-family="Helvetica,sans-Serif" font-size="10.00"> +hit</text>
</g>
<!-- Node10 -->
<g id="node10" class="node"><title>Node10</title>
<polygon fill="none" stroke="#bfbfbf" points="908,-370 908,-427 954,-427 954,-370 908,-370"/>
<text text-anchor="middle" x="931" y="-415" font-family="Helvetica,sans-Serif" font-size="10.00">int64_t</text>
<polyline fill="none" stroke="#bfbfbf" points="908,-408 954,-408 "/>
<text text-anchor="middle" x="931" y="-396" font-family="Helvetica,sans-Serif" font-size="10.00"> </text>
<polyline fill="none" stroke="#bfbfbf" points="908,-389 954,-389 "/>
<text text-anchor="middle" x="931" y="-377" font-family="Helvetica,sans-Serif" font-size="10.00"> </text>
</g>
<!-- Node10&#45;&gt;Node9 -->
<g id="edge11" class="edge"><title>Node10&#45;&gt;Node9</title>
<path fill="none" stroke="#404040" d="M935.211,-369.723C938.915,-334.448 939.574,-273.65 908,-236 884.247,-207.676 846.169,-193.323 811.683,-186.092"/>
<polygon fill="none" stroke="#404040" points="811.455,-186.049 804.816,-188.865 799.663,-183.821 806.302,-181.004 811.455,-186.049"/>
<text text-anchor="middle" x="948.5" y="-283" font-family="Helvetica,sans-Serif" font-size="10.00"> +bxc</text>
</g>
<!-- Node11&#45;&gt;Node9 -->
<g id="edge12" class="edge"><title>Node11&#45;&gt;Node9</title>
<path fill="none" stroke="#404040" d="M591.291,-353.162C607.447,-318.99 632.7,-271.702 663,-236 665.88,-232.607 668.985,-229.27 672.231,-226.019"/>
<polygon fill="none" stroke="#404040" points="672.379,-225.88 673.988,-218.851 681.096,-217.633 679.486,-224.662 672.379,-225.88"/>
<text text-anchor="middle" x="675.5" y="-283" font-family="Helvetica,sans-Serif" font-size="10.00"> +pad</text>
</g>
<!-- Node12 -->
<g id="node12" class="node"><title>Node12</title>
<polygon fill="none" stroke="#bfbfbf" points="554.5,-557.5 554.5,-614.5 589.5,-614.5 589.5,-557.5 554.5,-557.5"/>
<text text-anchor="middle" x="572" y="-602.5" font-family="Helvetica,sans-Serif" font-size="10.00">float</text>
<polyline fill="none" stroke="#bfbfbf" points="554.5,-595.5 589.5,-595.5 "/>
<text text-anchor="middle" x="572" y="-583.5" font-family="Helvetica,sans-Serif" font-size="10.00"> </text>
<polyline fill="none" stroke="#bfbfbf" points="554.5,-576.5 589.5,-576.5 "/>
<text text-anchor="middle" x="572" y="-564.5" font-family="Helvetica,sans-Serif" font-size="10.00"> </text>
</g>
<!-- Node12&#45;&gt;Node11 -->
<g id="edge13" class="edge"><title>Node12&#45;&gt;Node11</title>
<path fill="none" stroke="#404040" d="M572,-557.229C572,-530.611 572,-489.645 572,-456.134"/>
<polygon fill="none" stroke="#404040" points="572,-455.701 568,-449.701 572,-443.701 576,-449.701 572,-455.701"/>
<text text-anchor="middle" x="590" y="-514.5" font-family="Helvetica,sans-Serif" font-size="10.00"> +fX</text>
<text text-anchor="middle" x="590" y="-503.5" font-family="Helvetica,sans-Serif" font-size="10.00">+fY</text>
<text text-anchor="middle" x="590" y="-492.5" font-family="Helvetica,sans-Serif" font-size="10.00">+fSizeX</text>
<text text-anchor="middle" x="590" y="-481.5" font-family="Helvetica,sans-Serif" font-size="10.00">+fSizeY</text>
</g>
<!-- Node13 -->
<g id="node13" class="node"><title>Node13</title>
<polygon fill="none" stroke="#bfbfbf" points="725,-370 725,-427 821,-427 821,-370 725,-370"/>
<text text-anchor="middle" x="773" y="-415" font-family="Helvetica,sans-Serif" font-size="10.00">vector&lt; uint16_t &gt;</text>
<polyline fill="none" stroke="#bfbfbf" points="725,-408 821,-408 "/>
<text text-anchor="middle" x="773" y="-396" font-family="Helvetica,sans-Serif" font-size="10.00"> </text>
<polyline fill="none" stroke="#bfbfbf" points="725,-389 821,-389 "/>
<text text-anchor="middle" x="773" y="-377" font-family="Helvetica,sans-Serif" font-size="10.00"> </text>
</g>
<!-- Node13&#45;&gt;Node9 -->
<g id="edge15" class="edge"><title>Node13&#45;&gt;Node9</title>
<path fill="none" stroke="#404040" d="M768.061,-369.827C761.798,-334.738 750.879,-273.566 743.092,-229.94"/>
<polygon fill="none" stroke="#404040" points="743.044,-229.67 738.052,-224.466 740.936,-217.857 745.928,-223.061 743.044,-229.67"/>
<text text-anchor="middle" x="785" y="-283" font-family="Helvetica,sans-Serif" font-size="10.00"> +samples</text>
</g>
<!-- Node14 -->
<g id="node14" class="node"><title>Node14</title>
<polygon fill="none" stroke="#bfbfbf" points="839,-370 839,-427 885,-427 885,-370 839,-370"/>
<text text-anchor="middle" x="862" y="-415" font-family="Helvetica,sans-Serif" font-size="10.00">uint8_t</text>
<polyline fill="none" stroke="#bfbfbf" points="839,-408 885,-408 "/>
<text text-anchor="middle" x="862" y="-396" font-family="Helvetica,sans-Serif" font-size="10.00"> </text>
<polyline fill="none" stroke="#bfbfbf" points="839,-389 885,-389 "/>
<text text-anchor="middle" x="862" y="-377" font-family="Helvetica,sans-Serif" font-size="10.00"> </text>
</g>
<!-- Node14&#45;&gt;Node9 -->
<g id="edge17" class="edge"><title>Node14&#45;&gt;Node9</title>
<path fill="none" stroke="#404040" d="M858.813,-369.72C853.747,-335.526 841.247,-276.969 812,-236 809.588,-232.621 806.914,-229.363 804.05,-226.234"/>
<polygon fill="none" stroke="#404040" points="804.044,-226.228 796.969,-224.831 795.538,-217.763 802.612,-219.16 804.044,-226.228"/>
<text text-anchor="middle" x="878" y="-299.5" font-family="Helvetica,sans-Serif" font-size="10.00"> +ds_addr</text>
<text text-anchor="middle" x="878" y="-288.5" font-family="Helvetica,sans-Serif" font-size="10.00">+cru_id</text>
<text text-anchor="middle" x="878" y="-277.5" font-family="Helvetica,sans-Serif" font-size="10.00">+chan_addr</text>
<text text-anchor="middle" x="878" y="-266.5" font-family="Helvetica,sans-Serif" font-size="10.00">+link_id</text>
</g>
</g>
</svg>
        <g id="navigator" transform="translate(0 0)" fill="#404254">
                <rect fill="#f2f5e9" fill-opacity="0.5" stroke="#606060" stroke-width=".5" x="0" y="0" width="60" height="60"/>
                <use id="zoomplus" xlink:href="#zoomPlus" x="17" y="9" onmousedown="handleZoom(evt,'in')"/>
                <use id="zoomminus" xlink:href="#zoomMin" x="42" y="9" onmousedown="handleZoom(evt,'out')"/>
                <use id="reset" xlink:href="#resetDef" x="30" y="36" onmousedown="handleReset()"/>
                <g id="arrowUp" xlink:href="#dirArrow" transform="translate(30 24)" onmousedown="handlePan(0,-1)">
                  <use xlink:href="#rim" fill="#404040">
                        <set attributeName="fill" to="#808080" begin="arrowUp.mouseover" end="arrowUp.mouseout"/>
                  </use>
                  <path fill="none" stroke="white" stroke-width="1.5" d="M0,-3.0v7 M-2.5,-0.5L0,-3.0L2.5,-0.5"/>
                </g>
                <g id="arrowRight" xlink:href="#dirArrow" transform="rotate(90) translate(36 -43)" onmousedown="handlePan(1,0)">
                  <use xlink:href="#rim" fill="#404040">
                        <set attributeName="fill" to="#808080" begin="arrowRight.mouseover" end="arrowRight.mouseout"/>
                  </use>
                  <path fill="none" stroke="white" stroke-width="1.5" d="M0,-3.0v7 M-2.5,-0.5L0,-3.0L2.5,-0.5"/>
                </g>
                <g id="arrowDown" xlink:href="#dirArrow" transform="rotate(180) translate(-30 -48)" onmousedown="handlePan(0,1)">
                  <use xlink:href="#rim" fill="#404040">
                        <set attributeName="fill" to="#808080" begin="arrowDown.mouseover" end="arrowDown.mouseout"/>
                  </use>
                  <path fill="none" stroke="white" stroke-width="1.5" d="M0,-3.0v7 M-2.5,-0.5L0,-3.0L2.5,-0.5"/>
                </g>
                <g id="arrowLeft" xlink:href="#dirArrow" transform="rotate(270) translate(-36 17)" onmousedown="handlePan(-1,0)">
                  <use xlink:href="#rim" fill="#404040">
                        <set attributeName="fill" to="#808080" begin="arrowLeft.mouseover" end="arrowLeft.mouseout"/>
                  </use>
                  <path fill="none" stroke="white" stroke-width="1.5" d="M0,-3.0v7 M-2.5,-0.5L0,-3.0L2.5,-0.5"/>
                </g>
        </g>
        <svg viewBox="0 0 15 15" width="100%" height="30px" preserveAspectRatio="xMaxYMin meet">
         <g id="arrow_out" transform="scale(0.3 0.3)">
          <a xlink:href="structo2_1_1quality__control__modules_1_1muonchambers_1_1DualSampa__coll__graph_org.svg" target="_base">
           <rect id="button" ry="5" rx="5" y="6" x="6" height="38" width="38"
                fill="#f2f5e9" fill-opacity="0.5" stroke="#606060" stroke-width="1.0"/>
           <path id="arrow"
             d="M 11.500037,31.436501 C 11.940474,20.09759 22.043105,11.32322 32.158766,21.979434 L 37.068811,17.246167 C 37.068811,17.246167 37.088388,32 37.088388,32 L 22.160133,31.978069 C 22.160133,31.978069 26.997745,27.140456 26.997745,27.140456 C 18.528582,18.264221 13.291696,25.230495 11.500037,31.436501 z"
             style="fill:#404040;"/>
          </a>
         </g>
        </svg>
</svg>
