<?xml version="1.0" encoding="UTF-8" standalone="no"?>
<!DOCTYPE svg PUBLIC "-//W3C//DTD SVG 1.1//EN"
 "http://www.w3.org/Graphics/SVG/1.1/DTD/svg11.dtd">
<!-- Generated by graphviz version 2.38.0 (20140413.2041)
 -->
<!-- Title: o2::quality_control_modules::muonchambers::SampaHit Pages: 1 -->
<!--zoomable 430 -->
<svg id="main" version="1.1" xmlns="http://www.w3.org/2000/svg" xmlns:xlink="http://www.w3.org/1999/xlink" xml:space="preserve" onload="init(evt)">
<style type="text/css"><![CDATA[
.edge:hover path { stroke: red; }
.edge:hover polygon { stroke: red; fill: red; }
]]></style>
<script type="text/javascript"><![CDATA[
var edges = document.getElementsByTagName('g');
if (edges && edges.length) {
  for (var i=0;i<edges.length;i++) {
    if (edges[i].id.substr(0,4)=='edge') {
      edges[i].setAttribute('class','edge');
    }
  }
}
]]></script>
        <defs>
                <circle id="rim" cx="0" cy="0" r="7"/>
                <circle id="rim2" cx="0" cy="0" r="3.5"/>
                <g id="zoomPlus">
                        <use xlink:href="#rim" fill="#404040">
                                <set attributeName="fill" to="#808080" begin="zoomplus.mouseover" end="zoomplus.mouseout"/>
                        </use>
                        <path d="M-4,0h8M0,-4v8" fill="none" stroke="white" stroke-width="1.5" pointer-events="none"/>
                </g>
                <g id="zoomMin">
                        <use xlink:href="#rim" fill="#404040">
                                <set attributeName="fill" to="#808080" begin="zoomminus.mouseover" end="zoomminus.mouseout"/>
                        </use>
                        <path d="M-4,0h8" fill="none" stroke="white" stroke-width="1.5" pointer-events="none"/>
                </g>
                <g id="dirArrow">
                        <path fill="none" stroke="white" stroke-width="1.5" d="M0,-3.0v7 M-2.5,-0.5L0,-3.0L2.5,-0.5"/>
                </g>
               <g id="resetDef">
                       <use xlink:href="#rim2" fill="#404040">
                               <set attributeName="fill" to="#808080" begin="reset.mouseover" end="reset.mouseout"/>
                       </use>
               </g>
        </defs>

<script type="text/javascript">
var viewWidth = 522;
var viewHeight = 430;
var sectionId = 'dynsection-0';
</script>
<script xlink:href="svgpan.js"/>
<svg id="graph" class="graph">
<g id="viewport">
<title>o2::quality_control_modules::muonchambers::SampaHit</title>
<!-- Node1 -->
<g id="node1" class="node"><title>Node1</title>
<polygon fill="#bfbfbf" stroke="black" points="233,-0.5 233,-79.5 364,-79.5 364,-0.5 233,-0.5"/>
<text text-anchor="start" x="241" y="-67.5" font-family="Helvetica,sans-Serif" font-size="10.00">o2::quality_control</text>
<text text-anchor="start" x="241" y="-56.5" font-family="Helvetica,sans-Serif" font-size="10.00">_modules::muonchambers</text>
<text text-anchor="middle" x="298.5" y="-45.5" font-family="Helvetica,sans-Serif" font-size="10.00">::SampaHit</text>
<polyline fill="none" stroke="black" points="233,-38.5 364,-38.5 "/>
<text text-anchor="middle" x="298.5" y="-26.5" font-family="Helvetica,sans-Serif" font-size="10.00"> </text>
<polyline fill="none" stroke="black" points="233,-19.5 364,-19.5 "/>
<text text-anchor="middle" x="298.5" y="-7.5" font-family="Helvetica,sans-Serif" font-size="10.00"> </text>
</g>
<!-- Node2 -->
<g id="node2" class="node"><title>Node2</title>
<polygon fill="none" stroke="#bfbfbf" points="0,-177 0,-234 51,-234 51,-177 0,-177"/>
<text text-anchor="middle" x="25.5" y="-222" font-family="Helvetica,sans-Serif" font-size="10.00">uint64_t</text>
<polyline fill="none" stroke="#bfbfbf" points="0,-215 51,-215 "/>
<text text-anchor="middle" x="25.5" y="-203" font-family="Helvetica,sans-Serif" font-size="10.00"> </text>
<polyline fill="none" stroke="#bfbfbf" points="0,-196 51,-196 "/>
<text text-anchor="middle" x="25.5" y="-184" font-family="Helvetica,sans-Serif" font-size="10.00"> </text>
</g>
<!-- Node2&#45;&gt;Node1 -->
<g id="edge1" class="edge"><title>Node2&#45;&gt;Node1</title>
<path fill="none" stroke="#404040" d="M40.3406,-176.961C54.7235,-152.786 78.7078,-118.387 108.5,-98 141.695,-75.2844 184.149,-61.4315 220.505,-53.0827"/>
<polygon fill="none" stroke="#404040" points="220.852,-53.0073 225.865,-47.8237 232.578,-50.4575 227.565,-55.641 220.852,-53.0073"/>
<text text-anchor="middle" x="125.5" y="-117.5" font-family="Helvetica,sans-Serif" font-size="10.00"> +csum</text>
</g>
<!-- Node3 -->
<g id="node3" class="node"><title>Node3</title>
<polygon fill="none" stroke="#bfbfbf" points="69.5,-177 69.5,-234 115.5,-234 115.5,-177 69.5,-177"/>
<text text-anchor="middle" x="92.5" y="-222" font-family="Helvetica,sans-Serif" font-size="10.00">int64_t</text>
<polyline fill="none" stroke="#bfbfbf" points="69.5,-215 115.5,-215 "/>
<text text-anchor="middle" x="92.5" y="-203" font-family="Helvetica,sans-Serif" font-size="10.00"> </text>
<polyline fill="none" stroke="#bfbfbf" points="69.5,-196 115.5,-196 "/>
<text text-anchor="middle" x="92.5" y="-184" font-family="Helvetica,sans-Serif" font-size="10.00"> </text>
</g>
<!-- Node3&#45;&gt;Node1 -->
<g id="edge2" class="edge"><title>Node3&#45;&gt;Node1</title>
<path fill="none" stroke="#404040" d="M110.458,-176.539C114.731,-170.783 119.51,-164.969 124.5,-160 153.4,-131.223 190.111,-104.95 222.357,-84.454"/>
<polygon fill="none" stroke="#404040" points="222.483,-84.3751 225.445,-77.8006 232.653,-78.0066 229.691,-84.581 222.483,-84.3751"/>
<text text-anchor="middle" x="214" y="-117.5" font-family="Helvetica,sans-Serif" font-size="10.00"> +bxc</text>
</g>
<!-- Node4 -->
<g id="node4" class="node"><title>Node4</title>
<g id="a_node4"><a xlink:href="classo2_1_1quality__control__modules_1_1muonchambers_1_1MapPad.html" target="_top" xlink:title="{o2::quality_control\l_modules::muonchambers\l::MapPad\n||+ MapPad()\l+ ~MapPad()\l}">
<polygon fill="none" stroke="black" points="134,-160.5 134,-250.5 265,-250.5 265,-160.5 134,-160.5"/>
<text text-anchor="start" x="142" y="-238.5" font-family="Helvetica,sans-Serif" font-size="10.00">o2::quality_control</text>
<text text-anchor="start" x="142" y="-227.5" font-family="Helvetica,sans-Serif" font-size="10.00">_modules::muonchambers</text>
<text text-anchor="middle" x="199.5" y="-216.5" font-family="Helvetica,sans-Serif" font-size="10.00">::MapPad</text>
<polyline fill="none" stroke="black" points="134,-209.5 265,-209.5 "/>
<text text-anchor="middle" x="199.5" y="-197.5" font-family="Helvetica,sans-Serif" font-size="10.00"> </text>
<polyline fill="none" stroke="black" points="134,-190.5 265,-190.5 "/>
<text text-anchor="start" x="142" y="-178.5" font-family="Helvetica,sans-Serif" font-size="10.00">+ MapPad()</text>
<text text-anchor="start" x="142" y="-167.5" font-family="Helvetica,sans-Serif" font-size="10.00">+ ~MapPad()</text>
</a>
</g>
</g>
<!-- Node4&#45;&gt;Node1 -->
<g id="edge3" class="edge"><title>Node4&#45;&gt;Node1</title>
<path fill="none" stroke="#404040" d="M226.291,-160.255C239.441,-138.538 255.32,-112.312 268.836,-89.9911"/>
<polygon fill="none" stroke="#404040" points="268.843,-89.9781 268.53,-82.7739 275.059,-79.7132 275.373,-86.9175 268.843,-89.9781"/>
<text text-anchor="middle" x="277" y="-117.5" font-family="Helvetica,sans-Serif" font-size="10.00"> +pad</text>
</g>
<!-- Node5 -->
<g id="node5" class="node"><title>Node5</title>
<polygon fill="none" stroke="#bfbfbf" points="153,-364.5 153,-421.5 188,-421.5 188,-364.5 153,-364.5"/>
<text text-anchor="middle" x="170.5" y="-409.5" font-family="Helvetica,sans-Serif" font-size="10.00">float</text>
<polyline fill="none" stroke="#bfbfbf" points="153,-402.5 188,-402.5 "/>
<text text-anchor="middle" x="170.5" y="-390.5" font-family="Helvetica,sans-Serif" font-size="10.00"> </text>
<polyline fill="none" stroke="#bfbfbf" points="153,-383.5 188,-383.5 "/>
<text text-anchor="middle" x="170.5" y="-371.5" font-family="Helvetica,sans-Serif" font-size="10.00"> </text>
</g>
<!-- Node5&#45;&gt;Node4 -->
<g id="edge4" class="edge"><title>Node5&#45;&gt;Node4</title>
<path fill="none" stroke="#404040" d="M167.513,-364.284C165.556,-339.116 164.495,-301.132 171.5,-269 171.973,-266.829 172.527,-264.642 173.146,-262.453"/>
<polygon fill="none" stroke="#404040" points="173.231,-262.195 171.321,-255.241 177.005,-250.803 178.916,-257.757 173.231,-262.195"/>
<text text-anchor="middle" x="189.5" y="-321.5" font-family="Helvetica,sans-Serif" font-size="10.00"> +fX</text>
<text text-anchor="middle" x="189.5" y="-310.5" font-family="Helvetica,sans-Serif" font-size="10.00">+fY</text>
<text text-anchor="middle" x="189.5" y="-299.5" font-family="Helvetica,sans-Serif" font-size="10.00">+fSizeX</text>
<text text-anchor="middle" x="189.5" y="-288.5" font-family="Helvetica,sans-Serif" font-size="10.00">+fSizeY</text>
</g>
<!-- Node6 -->
<g id="node6" class="node"><title>Node6</title>
<polygon fill="none" stroke="#bfbfbf" points="215,-364.5 215,-421.5 244,-421.5 244,-364.5 215,-364.5"/>
<text text-anchor="middle" x="229.5" y="-409.5" font-family="Helvetica,sans-Serif" font-size="10.00">int</text>
<polyline fill="none" stroke="#bfbfbf" points="215,-402.5 244,-402.5 "/>
<text text-anchor="middle" x="229.5" y="-390.5" font-family="Helvetica,sans-Serif" font-size="10.00"> </text>
<polyline fill="none" stroke="#bfbfbf" points="215,-383.5 244,-383.5 "/>
<text text-anchor="middle" x="229.5" y="-371.5" font-family="Helvetica,sans-Serif" font-size="10.00"> </text>
</g>
<!-- Node6&#45;&gt;Node4 -->
<g id="edge5" class="edge"><title>Node6&#45;&gt;Node4</title>
<path fill="none" stroke="#404040" d="M225.009,-364.229C220.685,-337.494 214.02,-296.284 208.588,-262.691"/>
<polygon fill="none" stroke="#404040" points="208.564,-262.547 203.658,-257.262 206.648,-250.701 211.555,-255.985 208.564,-262.547"/>
<text text-anchor="middle" x="246" y="-338" font-family="Helvetica,sans-Serif" font-size="10.00"> +fCathode</text>
<text text-anchor="middle" x="246" y="-327" font-family="Helvetica,sans-Serif" font-size="10.00">+fDE</text>
<text text-anchor="middle" x="246" y="-316" font-family="Helvetica,sans-Serif" font-size="10.00">+fBad</text>
<text text-anchor="middle" x="246" y="-305" font-family="Helvetica,sans-Serif" font-size="10.00">+fPadx</text>
<text text-anchor="middle" x="246" y="-294" font-family="Helvetica,sans-Serif" font-size="10.00">+fPady</text>
<text text-anchor="middle" x="246" y="-283" font-family="Helvetica,sans-Serif" font-size="10.00">+fAddress</text>
<text text-anchor="middle" x="246" y="-272" font-family="Helvetica,sans-Serif" font-size="10.00">+fDsID</text>
</g>
<!-- Node7 -->
<g id="node7" class="node"><title>Node7</title>
<polygon fill="none" stroke="#bfbfbf" points="283.5,-177 283.5,-234 379.5,-234 379.5,-177 283.5,-177"/>
<text text-anchor="middle" x="331.5" y="-222" font-family="Helvetica,sans-Serif" font-size="10.00">vector&lt; uint16_t &gt;</text>
<polyline fill="none" stroke="#bfbfbf" points="283.5,-215 379.5,-215 "/>
<text text-anchor="middle" x="331.5" y="-203" font-family="Helvetica,sans-Serif" font-size="10.00"> </text>
<polyline fill="none" stroke="#bfbfbf" points="283.5,-196 379.5,-196 "/>
<text text-anchor="middle" x="331.5" y="-184" font-family="Helvetica,sans-Serif" font-size="10.00"> </text>
</g>
<!-- Node7&#45;&gt;Node1 -->
<g id="edge6" class="edge"><title>Node7&#45;&gt;Node1</title>
<path fill="none" stroke="#404040" d="M325.902,-176.764C321.209,-153.511 314.385,-119.704 308.722,-91.6432"/>
<polygon fill="none" stroke="#404040" points="308.668,-91.379 303.56,-86.289 306.294,-79.6162 311.402,-84.7062 308.668,-91.379"/>
<text text-anchor="middle" x="341.5" y="-117.5" font-family="Helvetica,sans-Serif" font-size="10.00"> +samples</text>
</g>
<!-- Node8 -->
<g id="node8" class="node"><title>Node8</title>
<polygon fill="none" stroke="#bfbfbf" points="398,-177 398,-234 449,-234 449,-177 398,-177"/>
<text text-anchor="middle" x="423.5" y="-222" font-family="Helvetica,sans-Serif" font-size="10.00">uint32_t</text>
<polyline fill="none" stroke="#bfbfbf" points="398,-215 449,-215 "/>
<text text-anchor="middle" x="423.5" y="-203" font-family="Helvetica,sans-Serif" font-size="10.00"> </text>
<polyline fill="none" stroke="#bfbfbf" points="398,-196 449,-196 "/>
<text text-anchor="middle" x="423.5" y="-184" font-family="Helvetica,sans-Serif" font-size="10.00"> </text>
</g>
<!-- Node8&#45;&gt;Node1 -->
<g id="edge7" class="edge"><title>Node8&#45;&gt;Node1</title>
<path fill="none" stroke="#404040" d="M412.951,-176.852C403.471,-154.199 388.046,-122.07 368.5,-98 365.718,-94.5745 362.702,-91.213 359.536,-87.9429"/>
<polygon fill="none" stroke="#404040" points="359.471,-87.8803 352.38,-86.5686 350.864,-79.5188 357.955,-80.8304 359.471,-87.8803"/>
<text text-anchor="middle" x="409.5" y="-123" font-family="Helvetica,sans-Serif" font-size="10.00"> +time</text>
<text text-anchor="middle" x="409.5" y="-112" font-family="Helvetica,sans-Serif" font-size="10.00">+size</text>
</g>
<!-- Node9 -->
<g id="node9" class="node"><title>Node9</title>
<polygon fill="none" stroke="#bfbfbf" points="467.5,-177 467.5,-234 513.5,-234 513.5,-177 467.5,-177"/>
<text text-anchor="middle" x="490.5" y="-222" font-family="Helvetica,sans-Serif" font-size="10.00">uint8_t</text>
<polyline fill="none" stroke="#bfbfbf" points="467.5,-215 513.5,-215 "/>
<text text-anchor="middle" x="490.5" y="-203" font-family="Helvetica,sans-Serif" font-size="10.00"> </text>
<polyline fill="none" stroke="#bfbfbf" points="467.5,-196 513.5,-196 "/>
<text text-anchor="middle" x="490.5" y="-184" font-family="Helvetica,sans-Serif" font-size="10.00"> </text>
</g>
<!-- Node9&#45;&gt;Node1 -->
<g id="edge8" class="edge"><title>Node9&#45;&gt;Node1</title>
<path fill="none" stroke="#404040" d="M479.842,-176.788C469.545,-153.165 451.912,-119.686 427.5,-98 412.422,-84.6055 393.692,-73.9294 375.22,-65.6091"/>
<polygon fill="none" stroke="#404040" points="375.132,-65.5713 368.042,-66.8913 364.097,-60.8551 371.186,-59.5351 375.132,-65.5713"/>
<text text-anchor="middle" x="487.5" y="-134" font-family="Helvetica,sans-Serif" font-size="10.00"> +ds_addr</text>
<text text-anchor="middle" x="487.5" y="-123" font-family="Helvetica,sans-Serif" font-size="10.00">+cru_id</text>
<text text-anchor="middle" x="487.5" y="-112" font-family="Helvetica,sans-Serif" font-size="10.00">+chan_addr</text>
<text text-anchor="middle" x="487.5" y="-101" font-family="Helvetica,sans-Serif" font-size="10.00">+link_id</text>
</g>
</g>
</svg>
        <g id="navigator" transform="translate(0 0)" fill="#404254">
                <rect fill="#f2f5e9" fill-opacity="0.5" stroke="#606060" stroke-width=".5" x="0" y="0" width="60" height="60"/>
                <use id="zoomplus" xlink:href="#zoomPlus" x="17" y="9" onmousedown="handleZoom(evt,'in')"/>
                <use id="zoomminus" xlink:href="#zoomMin" x="42" y="9" onmousedown="handleZoom(evt,'out')"/>
                <use id="reset" xlink:href="#resetDef" x="30" y="36" onmousedown="handleReset()"/>
                <g id="arrowUp" xlink:href="#dirArrow" transform="translate(30 24)" onmousedown="handlePan(0,-1)">
                  <use xlink:href="#rim" fill="#404040">
                        <set attributeName="fill" to="#808080" begin="arrowUp.mouseover" end="arrowUp.mouseout"/>
                  </use>
                  <path fill="none" stroke="white" stroke-width="1.5" d="M0,-3.0v7 M-2.5,-0.5L0,-3.0L2.5,-0.5"/>
                </g>
                <g id="arrowRight" xlink:href="#dirArrow" transform="rotate(90) translate(36 -43)" onmousedown="handlePan(1,0)">
                  <use xlink:href="#rim" fill="#404040">
                        <set attributeName="fill" to="#808080" begin="arrowRight.mouseover" end="arrowRight.mouseout"/>
                  </use>
                  <path fill="none" stroke="white" stroke-width="1.5" d="M0,-3.0v7 M-2.5,-0.5L0,-3.0L2.5,-0.5"/>
                </g>
                <g id="arrowDown" xlink:href="#dirArrow" transform="rotate(180) translate(-30 -48)" onmousedown="handlePan(0,1)">
                  <use xlink:href="#rim" fill="#404040">
                        <set attributeName="fill" to="#808080" begin="arrowDown.mouseover" end="arrowDown.mouseout"/>
                  </use>
                  <path fill="none" stroke="white" stroke-width="1.5" d="M0,-3.0v7 M-2.5,-0.5L0,-3.0L2.5,-0.5"/>
                </g>
                <g id="arrowLeft" xlink:href="#dirArrow" transform="rotate(270) translate(-36 17)" onmousedown="handlePan(-1,0)">
                  <use xlink:href="#rim" fill="#404040">
                        <set attributeName="fill" to="#808080" begin="arrowLeft.mouseover" end="arrowLeft.mouseout"/>
                  </use>
                  <path fill="none" stroke="white" stroke-width="1.5" d="M0,-3.0v7 M-2.5,-0.5L0,-3.0L2.5,-0.5"/>
                </g>
        </g>
        <svg viewBox="0 0 15 15" width="100%" height="30px" preserveAspectRatio="xMaxYMin meet">
         <g id="arrow_out" transform="scale(0.3 0.3)">
          <a xlink:href="structo2_1_1quality__control__modules_1_1muonchambers_1_1SampaHit__coll__graph_org.svg" target="_base">
           <rect id="button" ry="5" rx="5" y="6" x="6" height="38" width="38"
                fill="#f2f5e9" fill-opacity="0.5" stroke="#606060" stroke-width="1.0"/>
           <path id="arrow"
             d="M 11.500037,31.436501 C 11.940474,20.09759 22.043105,11.32322 32.158766,21.979434 L 37.068811,17.246167 C 37.068811,17.246167 37.088388,32 37.088388,32 L 22.160133,31.978069 C 22.160133,31.978069 26.997745,27.140456 26.997745,27.140456 C 18.528582,18.264221 13.291696,25.230495 11.500037,31.436501 z"
             style="fill:#404040;"/>
          </a>
         </g>
        </svg>
</svg>
