<?xml version="1.0" encoding="UTF-8" standalone="no"?>
<!DOCTYPE svg PUBLIC "-//W3C//DTD SVG 1.1//EN"
 "http://www.w3.org/Graphics/SVG/1.1/DTD/svg11.dtd">
<!-- Generated by graphviz version 2.38.0 (20140413.2041)
 -->
<!-- Title: Framework/src/TaskFactory.cxx Pages: 1 -->
<svg width="1533pt" height="319pt"
 viewBox="0.00 0.00 1533.00 319.00" xmlns="http://www.w3.org/2000/svg" xmlns:xlink="http://www.w3.org/1999/xlink">
<g id="graph0" class="graph" transform="scale(1 1) rotate(0) translate(4 315)">
<title>Framework/src/TaskFactory.cxx</title>
<!-- Node1 -->
<g id="node1" class="node"><title>Node1</title>
<polygon fill="#bfbfbf" stroke="black" points="1062.5,-291.5 1062.5,-310.5 1220.5,-310.5 1220.5,-291.5 1062.5,-291.5"/>
<text text-anchor="middle" x="1141.5" y="-298.5" font-family="Helvetica,sans-Serif" font-size="10.00">Framework/src/TaskFactory.cxx</text>
</g>
<!-- Node2 -->
<g id="node2" class="node"><title>Node2</title>
<g id="a_node2"><a xlink:href="TaskFactory_8h.html" target="_top" xlink:title="QualityControl/TaskFactory.h">
<polygon fill="none" stroke="black" points="529,-235.5 529,-254.5 674,-254.5 674,-235.5 529,-235.5"/>
<text text-anchor="middle" x="601.5" y="-242.5" font-family="Helvetica,sans-Serif" font-size="10.00">QualityControl/TaskFactory.h</text>
</a>
</g>
</g>
<!-- Node1&#45;&gt;Node2 -->
<g id="edge1" class="edge"><title>Node1&#45;&gt;Node2</title>
<path fill="none" stroke="midnightblue" d="M1062.4,-292.09C961.33,-281.983 787.189,-264.569 684.349,-254.285"/>
<polygon fill="midnightblue" stroke="midnightblue" points="684.616,-250.794 674.317,-253.282 683.92,-257.76 684.616,-250.794"/>
</g>
<!-- Node20 -->
<g id="node20" class="node"><title>Node20</title>
<g id="a_node20"><a xlink:href="QcInfoLogger_8h.html" target="_top" xlink:title="QualityControl/QcInfoLogger.h">
<polygon fill="none" stroke="black" points="1376,-179.5 1376,-198.5 1525,-198.5 1525,-179.5 1376,-179.5"/>
<text text-anchor="middle" x="1450.5" y="-186.5" font-family="Helvetica,sans-Serif" font-size="10.00">QualityControl/QcInfoLogger.h</text>
</a>
</g>
</g>
<!-- Node1&#45;&gt;Node20 -->
<g id="edge27" class="edge"><title>Node1&#45;&gt;Node20</title>
<path fill="none" stroke="midnightblue" d="M1165.49,-291.46C1220.14,-272.006 1353.99,-224.355 1416.86,-201.977"/>
<polygon fill="midnightblue" stroke="midnightblue" points="1418.07,-205.261 1426.31,-198.61 1415.72,-198.667 1418.07,-205.261"/>
</g>
<!-- Node22 -->
<g id="node22" class="node"><title>Node22</title>
<g id="a_node22"><a xlink:href="RootClassFactory_8h.html" target="_top" xlink:title="RootClassFactory.h">
<polygon fill="none" stroke="black" points="1089.5,-235.5 1089.5,-254.5 1193.5,-254.5 1193.5,-235.5 1089.5,-235.5"/>
<text text-anchor="middle" x="1141.5" y="-242.5" font-family="Helvetica,sans-Serif" font-size="10.00">RootClassFactory.h</text>
</a>
</g>
</g>
<!-- Node1&#45;&gt;Node22 -->
<g id="edge29" class="edge"><title>Node1&#45;&gt;Node22</title>
<path fill="none" stroke="midnightblue" d="M1141.5,-291.083C1141.5,-284.006 1141.5,-273.861 1141.5,-264.986"/>
<polygon fill="midnightblue" stroke="midnightblue" points="1145,-264.751 1141.5,-254.751 1138,-264.751 1145,-264.751"/>
</g>
<!-- Node3 -->
<g id="node3" class="node"><title>Node3</title>
<polygon fill="none" stroke="#bfbfbf" points="408.5,-62 408.5,-81 460.5,-81 460.5,-62 408.5,-62"/>
<text text-anchor="middle" x="434.5" y="-69" font-family="Helvetica,sans-Serif" font-size="10.00">memory</text>
</g>
<!-- Node2&#45;&gt;Node3 -->
<g id="edge2" class="edge"><title>Node2&#45;&gt;Node3</title>
<path fill="none" stroke="midnightblue" d="M619.193,-235.451C657.551,-215.815 742.152,-165.881 706.5,-123 676.916,-87.4179 537.764,-76.79 470.749,-73.7095"/>
<polygon fill="midnightblue" stroke="midnightblue" points="470.781,-70.2077 460.64,-73.2772 470.482,-77.2014 470.781,-70.2077"/>
</g>
<!-- Node4 -->
<g id="node4" class="node"><title>Node4</title>
<g id="a_node4"><a xlink:href="TaskConfig_8h.html" target="_top" xlink:title="QualityControl/TaskConfig.h">
<polygon fill="none" stroke="black" points="15.5,-62 15.5,-81 155.5,-81 155.5,-62 15.5,-62"/>
<text text-anchor="middle" x="85.5" y="-69" font-family="Helvetica,sans-Serif" font-size="10.00">QualityControl/TaskConfig.h</text>
</a>
</g>
</g>
<!-- Node2&#45;&gt;Node4 -->
<g id="edge3" class="edge"><title>Node2&#45;&gt;Node4</title>
<path fill="none" stroke="midnightblue" d="M528.993,-241.608C394.766,-235.491 115.803,-214.303 56.5,-143 43.2186,-127.031 57.1198,-104.146 69.8671,-88.8264"/>
<polygon fill="midnightblue" stroke="midnightblue" points="72.6287,-90.9876 76.6502,-81.1856 67.3939,-86.3403 72.6287,-90.9876"/>
</g>
<!-- Node7 -->
<g id="node7" class="node"><title>Node7</title>
<g id="a_node7"><a xlink:href="TaskInterface_8h.html" target="_top" xlink:title="QualityControl/TaskInterface.h">
<polygon fill="none" stroke="black" points="401.5,-179.5 401.5,-198.5 551.5,-198.5 551.5,-179.5 401.5,-179.5"/>
<text text-anchor="middle" x="476.5" y="-186.5" font-family="Helvetica,sans-Serif" font-size="10.00">QualityControl/TaskInterface.h</text>
</a>
</g>
</g>
<!-- Node2&#45;&gt;Node7 -->
<g id="edge6" class="edge"><title>Node2&#45;&gt;Node7</title>
<path fill="none" stroke="midnightblue" d="M581.693,-235.444C561.213,-226.596 529.017,-212.687 505.635,-202.586"/>
<polygon fill="midnightblue" stroke="midnightblue" points="506.782,-199.269 496.214,-198.516 504.006,-205.695 506.782,-199.269"/>
</g>
<!-- Node5 -->
<g id="node5" class="node"><title>Node5</title>
<polygon fill="none" stroke="#bfbfbf" points="743,-0.5 743,-19.5 784,-19.5 784,-0.5 743,-0.5"/>
<text text-anchor="middle" x="763.5" y="-7.5" font-family="Helvetica,sans-Serif" font-size="10.00">string</text>
</g>
<!-- Node4&#45;&gt;Node5 -->
<g id="edge4" class="edge"><title>Node4&#45;&gt;Node5</title>
<path fill="none" stroke="midnightblue" d="M148.158,-61.994C164.826,-59.8781 182.83,-57.7242 199.5,-56 402.62,-34.9908 647.774,-18.4281 732.748,-12.9447"/>
<polygon fill="midnightblue" stroke="midnightblue" points="733.226,-16.4213 742.982,-12.288 732.778,-9.43566 733.226,-16.4213"/>
</g>
<!-- Node6 -->
<g id="node6" class="node"><title>Node6</title>
<polygon fill="none" stroke="#bfbfbf" points="0,-0.5 0,-19.5 83,-19.5 83,-0.5 0,-0.5"/>
<text text-anchor="middle" x="41.5" y="-7.5" font-family="Helvetica,sans-Serif" font-size="10.00">unordered_map</text>
</g>
<!-- Node4&#45;&gt;Node6 -->
<g id="edge5" class="edge"><title>Node4&#45;&gt;Node6</title>
<path fill="none" stroke="midnightblue" d="M79.1959,-61.9751C72.5958,-53.0501 62.0633,-38.8071 53.8071,-27.6425"/>
<polygon fill="midnightblue" stroke="midnightblue" points="56.5524,-25.4684 47.7924,-19.5091 50.9242,-29.6305 56.5524,-25.4684"/>
</g>
<!-- Node7&#45;&gt;Node3 -->
<g id="edge8" class="edge"><title>Node7&#45;&gt;Node3</title>
<path fill="none" stroke="midnightblue" d="M401.387,-185.13C288.667,-180.04 86.537,-167.575 64.5,-143 58.5656,-136.382 58.6062,-129.654 64.5,-123 108.435,-73.3975 295.055,-97.3776 360.5,-87 372.801,-85.0495 386.178,-82.5462 398.134,-80.1704"/>
<polygon fill="midnightblue" stroke="midnightblue" points="399.103,-83.5453 408.211,-78.1325 397.716,-76.6842 399.103,-83.5453"/>
</g>
<!-- Node7&#45;&gt;Node5 -->
<g id="edge9" class="edge"><title>Node7&#45;&gt;Node5</title>
<path fill="none" stroke="midnightblue" d="M551.664,-180.886C609.35,-174.06 682.975,-161.954 706.5,-143 742.193,-114.243 756.008,-58.8262 760.967,-29.7904"/>
<polygon fill="midnightblue" stroke="midnightblue" points="764.451,-30.1604 762.504,-19.7461 757.532,-29.1016 764.451,-30.1604"/>
</g>
<!-- Node7&#45;&gt;Node6 -->
<g id="edge10" class="edge"><title>Node7&#45;&gt;Node6</title>
<path fill="none" stroke="midnightblue" d="M401.213,-186.372C296.965,-183.035 114.888,-172.978 56.5,-143 26.8179,-127.76 18.3921,-118.175 6.5,-87 1.5894,-74.127 2.02861,-69.032 6.5,-56 10.219,-45.161 17.7332,-34.9216 24.849,-26.9566"/>
<polygon fill="midnightblue" stroke="midnightblue" points="27.5542,-29.1922 31.9444,-19.5497 22.4993,-24.3498 27.5542,-29.1922"/>
</g>
<!-- Node8 -->
<g id="node8" class="node"><title>Node8</title>
<polygon fill="none" stroke="#bfbfbf" points="954,-0.5 954,-19.5 989,-19.5 989,-0.5 954,-0.5"/>
<text text-anchor="middle" x="971.5" y="-7.5" font-family="Helvetica,sans-Serif" font-size="10.00">map</text>
</g>
<!-- Node7&#45;&gt;Node8 -->
<g id="edge7" class="edge"><title>Node7&#45;&gt;Node8</title>
<path fill="none" stroke="midnightblue" d="M551.714,-184.687C681.115,-177.225 937.235,-154.143 991.5,-87 1005.12,-70.1462 994.142,-44.9511 983.845,-28.2524"/>
<polygon fill="midnightblue" stroke="midnightblue" points="986.5,-25.9236 978.052,-19.5296 980.669,-29.7962 986.5,-25.9236"/>
</g>
<!-- Node9 -->
<g id="node9" class="node"><title>Node9</title>
<polygon fill="none" stroke="#bfbfbf" points="74,-123.5 74,-142.5 199,-142.5 199,-123.5 74,-123.5"/>
<text text-anchor="middle" x="136.5" y="-130.5" font-family="Helvetica,sans-Serif" font-size="10.00">Framework/InitContext.h</text>
</g>
<!-- Node7&#45;&gt;Node9 -->
<g id="edge11" class="edge"><title>Node7&#45;&gt;Node9</title>
<path fill="none" stroke="midnightblue" d="M422.626,-179.444C362.195,-169.846 264.262,-154.292 200.116,-144.104"/>
<polygon fill="midnightblue" stroke="midnightblue" points="200.547,-140.628 190.122,-142.516 199.449,-147.542 200.547,-140.628"/>
</g>
<!-- Node10 -->
<g id="node10" class="node"><title>Node10</title>
<polygon fill="none" stroke="#bfbfbf" points="396.5,-123.5 396.5,-142.5 556.5,-142.5 556.5,-123.5 396.5,-123.5"/>
<text text-anchor="middle" x="476.5" y="-130.5" font-family="Helvetica,sans-Serif" font-size="10.00">Framework/ProcessingContext.h</text>
</g>
<!-- Node7&#45;&gt;Node10 -->
<g id="edge12" class="edge"><title>Node7&#45;&gt;Node10</title>
<path fill="none" stroke="midnightblue" d="M476.5,-179.083C476.5,-172.006 476.5,-161.861 476.5,-152.986"/>
<polygon fill="midnightblue" stroke="midnightblue" points="480,-152.751 476.5,-142.751 473,-152.751 480,-152.751"/>
</g>
<!-- Node11 -->
<g id="node11" class="node"><title>Node11</title>
<g id="a_node11"><a xlink:href="Activity_8h.html" target="_top" xlink:title="QualityControl/Activity.h">
<polygon fill="none" stroke="black" points="575,-123.5 575,-142.5 698,-142.5 698,-123.5 575,-123.5"/>
<text text-anchor="middle" x="636.5" y="-130.5" font-family="Helvetica,sans-Serif" font-size="10.00">QualityControl/Activity.h</text>
</a>
</g>
</g>
<!-- Node7&#45;&gt;Node11 -->
<g id="edge13" class="edge"><title>Node7&#45;&gt;Node11</title>
<path fill="none" stroke="midnightblue" d="M501.852,-179.444C528.769,-170.359 571.496,-155.939 601.587,-145.783"/>
<polygon fill="midnightblue" stroke="midnightblue" points="602.91,-149.031 611.266,-142.516 600.672,-142.398 602.91,-149.031"/>
</g>
<!-- Node12 -->
<g id="node12" class="node"><title>Node12</title>
<g id="a_node12"><a xlink:href="ObjectsManager_8h.html" target="_top" xlink:title="QualityControl/ObjectsManager.h">
<polygon fill="none" stroke="black" points="217,-123.5 217,-142.5 378,-142.5 378,-123.5 217,-123.5"/>
<text text-anchor="middle" x="297.5" y="-130.5" font-family="Helvetica,sans-Serif" font-size="10.00">QualityControl/ObjectsManager.h</text>
</a>
</g>
</g>
<!-- Node7&#45;&gt;Node12 -->
<g id="edge14" class="edge"><title>Node7&#45;&gt;Node12</title>
<path fill="none" stroke="midnightblue" d="M448.137,-179.444C417.762,-170.28 369.39,-155.688 335.684,-145.519"/>
<polygon fill="midnightblue" stroke="midnightblue" points="336.315,-142.054 325.73,-142.516 334.293,-148.756 336.315,-142.054"/>
</g>
<!-- Node12&#45;&gt;Node3 -->
<g id="edge26" class="edge"><title>Node12&#45;&gt;Node3</title>
<path fill="none" stroke="midnightblue" d="M317.129,-123.475C340.324,-113.401 379.119,-96.5525 405.713,-85.0023"/>
<polygon fill="midnightblue" stroke="midnightblue" points="407.13,-88.203 414.908,-81.0091 404.341,-81.7824 407.13,-88.203"/>
</g>
<!-- Node12&#45;&gt;Node4 -->
<g id="edge24" class="edge"><title>Node12&#45;&gt;Node4</title>
<path fill="none" stroke="midnightblue" d="M267.126,-123.475C229.894,-113.026 166.69,-95.2868 125.524,-83.7332"/>
<polygon fill="midnightblue" stroke="midnightblue" points="126.392,-80.3416 115.818,-81.0091 124.5,-87.0811 126.392,-80.3416"/>
</g>
<!-- Node12&#45;&gt;Node5 -->
<g id="edge25" class="edge"><title>Node12&#45;&gt;Node5</title>
<path fill="none" stroke="midnightblue" d="M310.189,-123.223C323.011,-114.287 343.327,-99.9452 360.5,-87 378.181,-73.6718 379.083,-64.5675 399.5,-56 459.521,-30.8142 655.828,-17.1555 732.461,-12.6757"/>
<polygon fill="midnightblue" stroke="midnightblue" points="733.085,-16.1459 742.869,-12.081 732.685,-9.15726 733.085,-16.1459"/>
</g>
<!-- Node13 -->
<g id="node13" class="node"><title>Node13</title>
<g id="a_node13"><a xlink:href="MonitorObject_8h.html" target="_top" xlink:title="QualityControl/MonitorObject.h">
<polygon fill="none" stroke="black" points="831,-62 831,-81 982,-81 982,-62 831,-62"/>
<text text-anchor="middle" x="906.5" y="-69" font-family="Helvetica,sans-Serif" font-size="10.00">QualityControl/MonitorObject.h</text>
</a>
</g>
</g>
<!-- Node12&#45;&gt;Node13 -->
<g id="edge15" class="edge"><title>Node12&#45;&gt;Node13</title>
<path fill="none" stroke="midnightblue" d="M378.452,-123.895C381.507,-123.592 384.531,-123.293 387.5,-123 540.081,-107.948 717.927,-90.7094 820.829,-80.7653"/>
<polygon fill="midnightblue" stroke="midnightblue" points="821.239,-84.2421 830.856,-79.7965 820.566,-77.2745 821.239,-84.2421"/>
</g>
<!-- Node17 -->
<g id="node17" class="node"><title>Node17</title>
<g id="a_node17"><a xlink:href="MonitorObjectCollection_8h.html" target="_top" xlink:title="QualityControl/MonitorObject\lCollection.h">
<polygon fill="none" stroke="black" points="209,-56.5 209,-86.5 352,-86.5 352,-56.5 209,-56.5"/>
<text text-anchor="start" x="217" y="-74.5" font-family="Helvetica,sans-Serif" font-size="10.00">QualityControl/MonitorObject</text>
<text text-anchor="middle" x="280.5" y="-63.5" font-family="Helvetica,sans-Serif" font-size="10.00">Collection.h</text>
</a>
</g>
</g>
<!-- Node12&#45;&gt;Node17 -->
<g id="edge21" class="edge"><title>Node12&#45;&gt;Node17</title>
<path fill="none" stroke="midnightblue" d="M295.064,-123.475C293.042,-116.396 290.063,-105.97 287.326,-96.3896"/>
<polygon fill="midnightblue" stroke="midnightblue" points="290.619,-95.1767 284.507,-86.523 283.889,-97.0998 290.619,-95.1767"/>
</g>
<!-- Node13&#45;&gt;Node5 -->
<g id="edge16" class="edge"><title>Node13&#45;&gt;Node5</title>
<path fill="none" stroke="midnightblue" d="M886.012,-61.9751C861.694,-51.8571 820.951,-34.9046 793.183,-23.3507"/>
<polygon fill="midnightblue" stroke="midnightblue" points="794.528,-20.1193 783.95,-19.5091 791.839,-26.5822 794.528,-20.1193"/>
</g>
<!-- Node13&#45;&gt;Node8 -->
<g id="edge17" class="edge"><title>Node13&#45;&gt;Node8</title>
<path fill="none" stroke="midnightblue" d="M915.813,-61.9751C925.949,-52.6966 942.364,-37.6706 954.752,-26.331"/>
<polygon fill="midnightblue" stroke="midnightblue" points="957.191,-28.8429 962.204,-19.5091 952.465,-23.6795 957.191,-28.8429"/>
</g>
<!-- Node14 -->
<g id="node14" class="node"><title>Node14</title>
<polygon fill="none" stroke="#bfbfbf" points="802.5,-0.5 802.5,-19.5 858.5,-19.5 858.5,-0.5 802.5,-0.5"/>
<text text-anchor="middle" x="830.5" y="-7.5" font-family="Helvetica,sans-Serif" font-size="10.00">Rtypes.h</text>
</g>
<!-- Node13&#45;&gt;Node14 -->
<g id="edge18" class="edge"><title>Node13&#45;&gt;Node14</title>
<path fill="none" stroke="midnightblue" d="M895.611,-61.9751C883.534,-52.5199 863.833,-37.0961 849.26,-25.6871"/>
<polygon fill="midnightblue" stroke="midnightblue" points="851.4,-22.9177 841.369,-19.5091 847.085,-28.4295 851.4,-22.9177"/>
</g>
<!-- Node15 -->
<g id="node15" class="node"><title>Node15</title>
<polygon fill="none" stroke="#bfbfbf" points="877,-0.5 877,-19.5 936,-19.5 936,-0.5 877,-0.5"/>
<text text-anchor="middle" x="906.5" y="-7.5" font-family="Helvetica,sans-Serif" font-size="10.00">TObject.h</text>
</g>
<!-- Node13&#45;&gt;Node15 -->
<g id="edge19" class="edge"><title>Node13&#45;&gt;Node15</title>
<path fill="none" stroke="midnightblue" d="M906.5,-61.9751C906.5,-53.5803 906.5,-40.4806 906.5,-29.6631"/>
<polygon fill="midnightblue" stroke="midnightblue" points="910,-29.5091 906.5,-19.5091 903,-29.5091 910,-29.5091"/>
</g>
<!-- Node16 -->
<g id="node16" class="node"><title>Node16</title>
<polygon fill="none" stroke="#bfbfbf" points="1007.5,-0.5 1007.5,-19.5 1123.5,-19.5 1123.5,-0.5 1007.5,-0.5"/>
<text text-anchor="middle" x="1065.5" y="-7.5" font-family="Helvetica,sans-Serif" font-size="10.00">Common/Exceptions.h</text>
</g>
<!-- Node13&#45;&gt;Node16 -->
<g id="edge20" class="edge"><title>Node13&#45;&gt;Node16</title>
<path fill="none" stroke="midnightblue" d="M929.281,-61.9751C956.555,-51.7687 1002.41,-34.608 1033.3,-23.0492"/>
<polygon fill="midnightblue" stroke="midnightblue" points="1034.62,-26.2919 1042.76,-19.5091 1032.17,-19.7359 1034.62,-26.2919"/>
</g>
<!-- Node18 -->
<g id="node18" class="node"><title>Node18</title>
<polygon fill="none" stroke="#bfbfbf" points="304,-0.5 304,-19.5 373,-19.5 373,-0.5 304,-0.5"/>
<text text-anchor="middle" x="338.5" y="-7.5" font-family="Helvetica,sans-Serif" font-size="10.00">TObjArray.h</text>
</g>
<!-- Node17&#45;&gt;Node18 -->
<g id="edge22" class="edge"><title>Node17&#45;&gt;Node18</title>
<path fill="none" stroke="midnightblue" d="M294.245,-56.3993C302.847,-47.575 313.952,-36.1827 322.886,-27.0178"/>
<polygon fill="midnightblue" stroke="midnightblue" points="325.586,-29.2616 330.06,-19.6578 320.574,-24.3755 325.586,-29.2616"/>
</g>
<!-- Node19 -->
<g id="node19" class="node"><title>Node19</title>
<polygon fill="none" stroke="#bfbfbf" points="157.5,-0.5 157.5,-19.5 285.5,-19.5 285.5,-0.5 157.5,-0.5"/>
<text text-anchor="middle" x="221.5" y="-7.5" font-family="Helvetica,sans-Serif" font-size="10.00">Mergers/MergeInterface.h</text>
</g>
<!-- Node17&#45;&gt;Node19 -->
<g id="edge23" class="edge"><title>Node17&#45;&gt;Node19</title>
<path fill="none" stroke="midnightblue" d="M266.518,-56.3993C257.768,-47.575 246.471,-36.1827 237.383,-27.0178"/>
<polygon fill="midnightblue" stroke="midnightblue" points="239.612,-24.2942 230.085,-19.6578 234.641,-29.2231 239.612,-24.2942"/>
</g>
<!-- Node21 -->
<g id="node21" class="node"><title>Node21</title>
<polygon fill="none" stroke="#bfbfbf" points="1385.5,-123.5 1385.5,-142.5 1515.5,-142.5 1515.5,-123.5 1385.5,-123.5"/>
<text text-anchor="middle" x="1450.5" y="-130.5" font-family="Helvetica,sans-Serif" font-size="10.00">InfoLogger/InfoLogger.hxx</text>
</g>
<!-- Node20&#45;&gt;Node21 -->
<g id="edge28" class="edge"><title>Node20&#45;&gt;Node21</title>
<path fill="none" stroke="midnightblue" d="M1450.5,-179.083C1450.5,-172.006 1450.5,-161.861 1450.5,-152.986"/>
<polygon fill="midnightblue" stroke="midnightblue" points="1454,-152.751 1450.5,-142.751 1447,-152.751 1454,-152.751"/>
</g>
<!-- Node22&#45;&gt;Node5 -->
<g id="edge30" class="edge"><title>Node22&#45;&gt;Node5</title>
<path fill="none" stroke="midnightblue" d="M1089.37,-239.157C1048.62,-233.716 991.524,-222.366 946.5,-199 865.624,-157.028 799.399,-65.8529 774.314,-28.0021"/>
<polygon fill="midnightblue" stroke="midnightblue" points="777.228,-26.062 768.839,-19.5903 771.361,-29.8806 777.228,-26.062"/>
</g>
<!-- Node22&#45;&gt;Node16 -->
<g id="edge31" class="edge"><title>Node22&#45;&gt;Node16</title>
<path fill="none" stroke="midnightblue" d="M1115.38,-235.362C1098.78,-228.37 1078.58,-216.729 1068.5,-199 1037.33,-144.209 1051.48,-65.1092 1060.31,-29.5475"/>
<polygon fill="midnightblue" stroke="midnightblue" points="1063.76,-30.1791 1062.93,-19.6173 1056.99,-28.3955 1063.76,-30.1791"/>
</g>
<!-- Node22&#45;&gt;Node20 -->
<g id="edge36" class="edge"><title>Node22&#45;&gt;Node20</title>
<path fill="none" stroke="midnightblue" d="M1190.46,-235.444C1245.04,-225.905 1333.29,-210.483 1391.6,-200.293"/>
<polygon fill="midnightblue" stroke="midnightblue" points="1392.52,-203.686 1401.77,-198.516 1391.31,-196.79 1392.52,-203.686"/>
</g>
<!-- Node23 -->
<g id="node23" class="node"><title>Node23</title>
<polygon fill="none" stroke="#bfbfbf" points="1224.5,-179.5 1224.5,-198.5 1280.5,-198.5 1280.5,-179.5 1224.5,-179.5"/>
<text text-anchor="middle" x="1252.5" y="-186.5" font-family="Helvetica,sans-Serif" font-size="10.00">TClass.h</text>
</g>
<!-- Node22&#45;&gt;Node23 -->
<g id="edge32" class="edge"><title>Node22&#45;&gt;Node23</title>
<path fill="none" stroke="midnightblue" d="M1159.33,-235.324C1177.22,-226.625 1204.98,-213.12 1225.55,-203.113"/>
<polygon fill="midnightblue" stroke="midnightblue" points="1227.25,-206.177 1234.71,-198.655 1224.19,-199.882 1227.25,-206.177"/>
</g>
<!-- Node24 -->
<g id="node24" class="node"><title>Node24</title>
<polygon fill="none" stroke="#bfbfbf" points="1299,-179.5 1299,-198.5 1358,-198.5 1358,-179.5 1299,-179.5"/>
<text text-anchor="middle" x="1328.5" y="-186.5" font-family="Helvetica,sans-Serif" font-size="10.00">TROOT.h</text>
</g>
<!-- Node22&#45;&gt;Node24 -->
<g id="edge33" class="edge"><title>Node22&#45;&gt;Node24</title>
<path fill="none" stroke="midnightblue" d="M1171.13,-235.444C1203,-226.241 1253.83,-211.562 1289.06,-201.388"/>
<polygon fill="midnightblue" stroke="midnightblue" points="1290.37,-204.653 1299.01,-198.516 1288.43,-197.928 1290.37,-204.653"/>
</g>
<!-- Node25 -->
<g id="node25" class="node"><title>Node25</title>
<polygon fill="none" stroke="#bfbfbf" points="955,-179.5 955,-198.5 1020,-198.5 1020,-179.5 955,-179.5"/>
<text text-anchor="middle" x="987.5" y="-186.5" font-family="Helvetica,sans-Serif" font-size="10.00">TSystem.h</text>
</g>
<!-- Node22&#45;&gt;Node25 -->
<g id="edge34" class="edge"><title>Node22&#45;&gt;Node25</title>
<path fill="none" stroke="midnightblue" d="M1117.1,-235.444C1091.3,-226.399 1050.42,-212.064 1021.48,-201.916"/>
<polygon fill="midnightblue" stroke="midnightblue" points="1022.38,-198.523 1011.79,-198.516 1020.07,-205.128 1022.38,-198.523"/>
</g>
<!-- Node26 -->
<g id="node26" class="node"><title>Node26</title>
<polygon fill="none" stroke="#bfbfbf" points="1077,-179.5 1077,-198.5 1206,-198.5 1206,-179.5 1077,-179.5"/>
<text text-anchor="middle" x="1141.5" y="-186.5" font-family="Helvetica,sans-Serif" font-size="10.00">boost/filesystem/path.hpp</text>
</g>
<!-- Node22&#45;&gt;Node26 -->
<g id="edge35" class="edge"><title>Node22&#45;&gt;Node26</title>
<path fill="none" stroke="midnightblue" d="M1141.5,-235.083C1141.5,-228.006 1141.5,-217.861 1141.5,-208.986"/>
<polygon fill="midnightblue" stroke="midnightblue" points="1145,-208.751 1141.5,-198.751 1138,-208.751 1145,-208.751"/>
</g>
</g>
</svg>
