<?xml version="1.0" encoding="UTF-8" standalone="no"?>
<!DOCTYPE svg PUBLIC "-//W3C//DTD SVG 1.1//EN"
 "http://www.w3.org/Graphics/SVG/1.1/DTD/svg11.dtd">
<!-- Generated by graphviz version 2.38.0 (20140413.2041)
 -->
<!-- Title: Framework/include/QualityControl/TaskFactory.h Pages: 1 -->
<svg width="2057pt" height="106pt"
 viewBox="0.00 0.00 2056.50 106.00" xmlns="http://www.w3.org/2000/svg" xmlns:xlink="http://www.w3.org/1999/xlink">
<g id="graph0" class="graph" transform="scale(1 1) rotate(0) translate(4 102)">
<title>Framework/include/QualityControl/TaskFactory.h</title>
<!-- Node1 -->
<g id="node1" class="node"><title>Node1</title>
<polygon fill="#bfbfbf" stroke="black" points="951.5,-67.5 951.5,-97.5 1084.5,-97.5 1084.5,-67.5 951.5,-67.5"/>
<text text-anchor="start" x="959.5" y="-85.5" font-family="Helvetica,sans-Serif" font-size="10.00">Framework/include/Quality</text>
<text text-anchor="middle" x="1018" y="-74.5" font-family="Helvetica,sans-Serif" font-size="10.00">Control/TaskFactory.h</text>
</g>
<!-- Node2 -->
<g id="node2" class="node"><title>Node2</title>
<g id="a_node2"><a xlink:href="TaskFactory_8cxx.html" target="_top" xlink:title="Framework/src/TaskFactory.cxx">
<polygon fill="none" stroke="black" points="0,-6 0,-25 158,-25 158,-6 0,-6"/>
<text text-anchor="middle" x="79" y="-13" font-family="Helvetica,sans-Serif" font-size="10.00">Framework/src/TaskFactory.cxx</text>
</a>
</g>
</g>
<!-- Node1&#45;&gt;Node2 -->
<g id="edge1" class="edge"><title>Node1&#45;&gt;Node2</title>
<path fill="none" stroke="midnightblue" d="M940.88,-79.6096C791.243,-75.3478 451.228,-62.7626 167,-31 153.305,-29.4695 138.496,-27.2507 125.003,-25.0071"/>
<polygon fill="midnightblue" stroke="midnightblue" points="941.228,-83.1206 951.322,-79.9022 941.424,-76.1234 941.228,-83.1206"/>
</g>
<!-- Node3 -->
<g id="node3" class="node"><title>Node3</title>
<g id="a_node3"><a xlink:href="TaskRunner_8cxx.html" target="_top" xlink:title="Framework/src/TaskRunner.cxx">
<polygon fill="none" stroke="black" points="176.5,-6 176.5,-25 333.5,-25 333.5,-6 176.5,-6"/>
<text text-anchor="middle" x="255" y="-13" font-family="Helvetica,sans-Serif" font-size="10.00">Framework/src/TaskRunner.cxx</text>
</a>
</g>
</g>
<!-- Node1&#45;&gt;Node3 -->
<g id="edge2" class="edge"><title>Node1&#45;&gt;Node3</title>
<path fill="none" stroke="midnightblue" d="M940.828,-78.0135C815.064,-71.8207 558.217,-57.04 342,-31 328.774,-29.4071 314.489,-27.2222 301.393,-25.0317"/>
<polygon fill="midnightblue" stroke="midnightblue" points="940.962,-81.5241 951.12,-78.5155 941.303,-74.5324 940.962,-81.5241"/>
</g>
<!-- Node4 -->
<g id="node4" class="node"><title>Node4</title>
<g id="a_node4"><a xlink:href="testTaskInterface_8cxx.html" target="_top" xlink:title="Framework/test/testTaskInterface.cxx">
<polygon fill="none" stroke="black" points="351.5,-6 351.5,-25 534.5,-25 534.5,-6 351.5,-6"/>
<text text-anchor="middle" x="443" y="-13" font-family="Helvetica,sans-Serif" font-size="10.00">Framework/test/testTaskInterface.cxx</text>
</a>
</g>
</g>
<!-- Node1&#45;&gt;Node4 -->
<g id="edge3" class="edge"><title>Node1&#45;&gt;Node4</title>
<path fill="none" stroke="midnightblue" d="M941.214,-74.1877C847.385,-65.0521 683.843,-48.4818 544,-31 529.674,-29.2091 514.233,-27.0889 499.839,-25.0306"/>
<polygon fill="midnightblue" stroke="midnightblue" points="940.897,-77.6733 951.188,-75.1564 941.573,-70.706 940.897,-77.6733"/>
</g>
<!-- Node5 -->
<g id="node5" class="node"><title>Node5</title>
<g id="a_node5"><a xlink:href="testEMCAL_8cxx.html" target="_top" xlink:title="Modules/EMCAL/test\l/testEMCAL.cxx">
<polygon fill="none" stroke="black" points="553,-0.5 553,-30.5 663,-30.5 663,-0.5 553,-0.5"/>
<text text-anchor="start" x="561" y="-18.5" font-family="Helvetica,sans-Serif" font-size="10.00">Modules/EMCAL/test</text>
<text text-anchor="middle" x="608" y="-7.5" font-family="Helvetica,sans-Serif" font-size="10.00">/testEMCAL.cxx</text>
</a>
</g>
</g>
<!-- Node1&#45;&gt;Node5 -->
<g id="edge4" class="edge"><title>Node1&#45;&gt;Node5</title>
<path fill="none" stroke="midnightblue" d="M941.315,-72.0497C871.014,-62.9734 764.154,-48.1375 672,-31 669.088,-30.4584 666.107,-29.8773 663.102,-29.2702"/>
<polygon fill="midnightblue" stroke="midnightblue" points="941.052,-75.5445 951.416,-73.3466 941.943,-68.6015 941.052,-75.5445"/>
</g>
<!-- Node6 -->
<g id="node6" class="node"><title>Node6</title>
<polygon fill="none" stroke="#bfbfbf" points="681,-0.5 681,-30.5 795,-30.5 795,-0.5 681,-0.5"/>
<text text-anchor="start" x="689" y="-18.5" font-family="Helvetica,sans-Serif" font-size="10.00">Modules/Example/test</text>
<text text-anchor="middle" x="738" y="-7.5" font-family="Helvetica,sans-Serif" font-size="10.00">/testFactory.cxx</text>
</g>
<!-- Node1&#45;&gt;Node6 -->
<g id="edge5" class="edge"><title>Node1&#45;&gt;Node6</title>
<path fill="none" stroke="midnightblue" d="M947.776,-65.198C900.732,-54.2771 839.567,-40.078 795.434,-29.8328"/>
<polygon fill="midnightblue" stroke="midnightblue" points="947.056,-68.624 957.589,-67.476 948.639,-61.8053 947.056,-68.624"/>
</g>
<!-- Node7 -->
<g id="node7" class="node"><title>Node7</title>
<g id="a_node7"><a xlink:href="testQcExample_8cxx.html" target="_top" xlink:title="Modules/Example/test\l/testQcExample.cxx">
<polygon fill="none" stroke="black" points="813,-0.5 813,-30.5 927,-30.5 927,-0.5 813,-0.5"/>
<text text-anchor="start" x="821" y="-18.5" font-family="Helvetica,sans-Serif" font-size="10.00">Modules/Example/test</text>
<text text-anchor="middle" x="870" y="-7.5" font-family="Helvetica,sans-Serif" font-size="10.00">/testQcExample.cxx</text>
</a>
</g>
</g>
<!-- Node1&#45;&gt;Node7 -->
<g id="edge6" class="edge"><title>Node1&#45;&gt;Node7</title>
<path fill="none" stroke="midnightblue" d="M976.489,-63.2687C952.916,-52.9159 923.856,-40.1528 902.051,-30.5765"/>
<polygon fill="midnightblue" stroke="midnightblue" points="975.323,-66.5793 985.886,-67.396 978.138,-60.1702 975.323,-66.5793"/>
</g>
<!-- Node8 -->
<g id="node8" class="node"><title>Node8</title>
<g id="a_node8"><a xlink:href="testITS_8cxx.html" target="_top" xlink:title="Modules/ITS/test/testITS.cxx">
<polygon fill="none" stroke="black" points="945,-6 945,-25 1091,-25 1091,-6 945,-6"/>
<text text-anchor="middle" x="1018" y="-13" font-family="Helvetica,sans-Serif" font-size="10.00">Modules/ITS/test/testITS.cxx</text>
</a>
</g>
</g>
<!-- Node1&#45;&gt;Node8 -->
<g id="edge7" class="edge"><title>Node1&#45;&gt;Node8</title>
<path fill="none" stroke="midnightblue" d="M1018,-57.2495C1018,-46.017 1018,-33.3767 1018,-25.1945"/>
<polygon fill="midnightblue" stroke="midnightblue" points="1014.5,-57.3959 1018,-67.396 1021.5,-57.396 1014.5,-57.3959"/>
</g>
<!-- Node9 -->
<g id="node9" class="node"><title>Node9</title>
<polygon fill="none" stroke="#bfbfbf" points="1109.5,-6 1109.5,-25 1276.5,-25 1276.5,-6 1109.5,-6"/>
<text text-anchor="middle" x="1193" y="-13" font-family="Helvetica,sans-Serif" font-size="10.00">Modules/MFT/test/testQcMFT.cxx</text>
</g>
<!-- Node1&#45;&gt;Node9 -->
<g id="edge8" class="edge"><title>Node1&#45;&gt;Node9</title>
<path fill="none" stroke="midnightblue" d="M1065.7,-63.7838C1099.63,-51.1807 1143.71,-34.8082 1170.1,-25.007"/>
<polygon fill="midnightblue" stroke="midnightblue" points="1064.13,-60.633 1055.97,-67.396 1066.57,-67.195 1064.13,-60.633"/>
</g>
<!-- Node10 -->
<g id="node10" class="node"><title>Node10</title>
<g id="a_node10"><a xlink:href="testMuonChambers_8cxx.html" target="_top" xlink:title="Modules/MUON/MCH/test\l/testMuonChambers.cxx">
<polygon fill="none" stroke="black" points="1294.5,-0.5 1294.5,-30.5 1427.5,-30.5 1427.5,-0.5 1294.5,-0.5"/>
<text text-anchor="start" x="1302.5" y="-18.5" font-family="Helvetica,sans-Serif" font-size="10.00">Modules/MUON/MCH/test</text>
<text text-anchor="middle" x="1361" y="-7.5" font-family="Helvetica,sans-Serif" font-size="10.00">/testMuonChambers.cxx</text>
</a>
</g>
</g>
<!-- Node1&#45;&gt;Node10 -->
<g id="edge9" class="edge"><title>Node1&#45;&gt;Node10</title>
<path fill="none" stroke="midnightblue" d="M1094.76,-67.1356C1148.36,-57.0816 1221.56,-43.3013 1286,-31 1288.74,-30.4778 1291.53,-29.9437 1294.35,-29.4032"/>
<polygon fill="midnightblue" stroke="midnightblue" points="1093.83,-63.7483 1084.65,-69.0317 1095.12,-70.6284 1093.83,-63.7483"/>
</g>
<!-- Node11 -->
<g id="node11" class="node"><title>Node11</title>
<polygon fill="none" stroke="#bfbfbf" points="1446,-0.5 1446,-30.5 1560,-30.5 1560,-0.5 1446,-0.5"/>
<text text-anchor="start" x="1454" y="-18.5" font-family="Helvetica,sans-Serif" font-size="10.00">Modules/Skeleton/test</text>
<text text-anchor="middle" x="1503" y="-7.5" font-family="Helvetica,sans-Serif" font-size="10.00">/.testEmpty.cxx</text>
</g>
<!-- Node1&#45;&gt;Node11 -->
<g id="edge10" class="edge"><title>Node1&#45;&gt;Node11</title>
<path fill="none" stroke="midnightblue" d="M1094.68,-74.4953C1178.95,-66.2784 1318.13,-51.1734 1437,-31 1439.89,-30.5093 1442.85,-29.9761 1445.83,-29.4135"/>
<polygon fill="midnightblue" stroke="midnightblue" points="1094.3,-71.0158 1084.69,-75.463 1094.98,-77.9832 1094.3,-71.0158"/>
</g>
<!-- Node12 -->
<g id="node12" class="node"><title>Node12</title>
<g id="a_node12"><a xlink:href="testQcSkeleton_8cxx.html" target="_top" xlink:title="Modules/Skeleton/test\l/testQcSkeleton.cxx">
<polygon fill="none" stroke="black" points="1578,-0.5 1578,-30.5 1692,-30.5 1692,-0.5 1578,-0.5"/>
<text text-anchor="start" x="1586" y="-18.5" font-family="Helvetica,sans-Serif" font-size="10.00">Modules/Skeleton/test</text>
<text text-anchor="middle" x="1635" y="-7.5" font-family="Helvetica,sans-Serif" font-size="10.00">/testQcSkeleton.cxx</text>
</a>
</g>
</g>
<!-- Node1&#45;&gt;Node12 -->
<g id="edge11" class="edge"><title>Node1&#45;&gt;Node12</title>
<path fill="none" stroke="midnightblue" d="M1094.96,-77.4877C1201.81,-71.2264 1400.94,-57.0578 1569,-31 1571.9,-30.5506 1574.86,-30.0507 1577.84,-29.5145"/>
<polygon fill="midnightblue" stroke="midnightblue" points="1094.69,-73.9973 1084.91,-78.0691 1095.1,-80.9856 1094.69,-73.9973"/>
</g>
<!-- Node13 -->
<g id="node13" class="node"><title>Node13</title>
<g id="a_node13"><a xlink:href="testTOF_8cxx.html" target="_top" xlink:title="Modules/TOF/test/testTOF.cxx">
<polygon fill="none" stroke="black" points="1710.5,-6 1710.5,-25 1863.5,-25 1863.5,-6 1710.5,-6"/>
<text text-anchor="middle" x="1787" y="-13" font-family="Helvetica,sans-Serif" font-size="10.00">Modules/TOF/test/testTOF.cxx</text>
</a>
</g>
</g>
<!-- Node1&#45;&gt;Node13 -->
<g id="edge12" class="edge"><title>Node1&#45;&gt;Node13</title>
<path fill="none" stroke="midnightblue" d="M1094.98,-78.1513C1221.69,-72.114 1482,-57.5003 1701,-31 1714.08,-29.4176 1728.2,-27.236 1741.14,-25.0454"/>
<polygon fill="midnightblue" stroke="midnightblue" points="1094.44,-74.6728 1084.61,-78.6402 1094.77,-81.6651 1094.44,-74.6728"/>
</g>
<!-- Node14 -->
<g id="node14" class="node"><title>Node14</title>
<polygon fill="none" stroke="#bfbfbf" points="1881.5,-6 1881.5,-25 2048.5,-25 2048.5,-6 1881.5,-6"/>
<text text-anchor="middle" x="1965" y="-13" font-family="Helvetica,sans-Serif" font-size="10.00">Modules/TPC/test/testQcTPC.cxx</text>
</g>
<!-- Node1&#45;&gt;Node14 -->
<g id="edge13" class="edge"><title>Node1&#45;&gt;Node14</title>
<path fill="none" stroke="midnightblue" d="M1094.73,-79.4717C1244.65,-74.955 1586.86,-61.9251 1873,-31 1887.15,-29.4711 1902.44,-27.2799 1916.42,-25.0624"/>
<polygon fill="midnightblue" stroke="midnightblue" points="1094.59,-75.974 1084.7,-79.7696 1094.8,-82.971 1094.59,-75.974"/>
</g>
</g>
</svg>
