<?xml version="1.0" encoding="UTF-8" standalone="no"?>
<!DOCTYPE svg PUBLIC "-//W3C//DTD SVG 1.1//EN"
 "http://www.w3.org/Graphics/SVG/1.1/DTD/svg11.dtd">
<!-- Generated by graphviz version 2.38.0 (20140413.2041)
 -->
<!-- Title: Framework/include/QualityControl/TaskRunner.h Pages: 1 -->
<!--zoomable 274 -->
<svg id="main" version="1.1" xmlns="http://www.w3.org/2000/svg" xmlns:xlink="http://www.w3.org/1999/xlink" xml:space="preserve" onload="init(evt)">
<style type="text/css"><![CDATA[
.edge:hover path { stroke: red; }
.edge:hover polygon { stroke: red; fill: red; }
]]></style>
<script type="text/javascript"><![CDATA[
var edges = document.getElementsByTagName('g');
if (edges && edges.length) {
  for (var i=0;i<edges.length;i++) {
    if (edges[i].id.substr(0,4)=='edge') {
      edges[i].setAttribute('class','edge');
    }
  }
}
]]></script>
        <defs>
                <circle id="rim" cx="0" cy="0" r="7"/>
                <circle id="rim2" cx="0" cy="0" r="3.5"/>
                <g id="zoomPlus">
                        <use xlink:href="#rim" fill="#404040">
                                <set attributeName="fill" to="#808080" begin="zoomplus.mouseover" end="zoomplus.mouseout"/>
                        </use>
                        <path d="M-4,0h8M0,-4v8" fill="none" stroke="white" stroke-width="1.5" pointer-events="none"/>
                </g>
                <g id="zoomMin">
                        <use xlink:href="#rim" fill="#404040">
                                <set attributeName="fill" to="#808080" begin="zoomminus.mouseover" end="zoomminus.mouseout"/>
                        </use>
                        <path d="M-4,0h8" fill="none" stroke="white" stroke-width="1.5" pointer-events="none"/>
                </g>
                <g id="dirArrow">
                        <path fill="none" stroke="white" stroke-width="1.5" d="M0,-3.0v7 M-2.5,-0.5L0,-3.0L2.5,-0.5"/>
                </g>
               <g id="resetDef">
                       <use xlink:href="#rim2" fill="#404040">
                               <set attributeName="fill" to="#808080" begin="reset.mouseover" end="reset.mouseout"/>
                       </use>
               </g>
        </defs>

<script type="text/javascript">
var viewWidth = 1862;
var viewHeight = 274;
var sectionId = 'dynsection-0';
</script>
<script xlink:href="svgpan.js"/>
<svg id="graph" class="graph">
<g id="viewport">
<title>Framework/include/QualityControl/TaskRunner.h</title>
<!-- Node1 -->
<g id="node1" class="node"><title>Node1</title>
<polygon fill="#bfbfbf" stroke="black" points="508.5,-235.5 508.5,-265.5 641.5,-265.5 641.5,-235.5 508.5,-235.5"/>
<text text-anchor="start" x="516.5" y="-253.5" font-family="Helvetica,sans-Serif" font-size="10.00">Framework/include/Quality</text>
<text text-anchor="middle" x="575" y="-242.5" font-family="Helvetica,sans-Serif" font-size="10.00">Control/TaskRunner.h</text>
</g>
<!-- Node2 -->
<g id="node2" class="node"><title>Node2</title>
<polygon fill="none" stroke="#bfbfbf" points="0,-179.5 0,-198.5 92,-198.5 92,-179.5 0,-179.5"/>
<text text-anchor="middle" x="46" y="-186.5" font-family="Helvetica,sans-Serif" font-size="10.00">Common/Timer.h</text>
</g>
<!-- Node1&#45;&gt;Node2 -->
<g id="edge1" class="edge"><title>Node1&#45;&gt;Node2</title>
<path fill="none" stroke="midnightblue" d="M508.135,-243.567C418.194,-235.322 253.042,-219.249 102.106,-199.084"/>
<polygon fill="midnightblue" stroke="midnightblue" points="102.563,-195.614 92.1854,-197.75 101.63,-202.552 102.563,-195.614"/>
</g>
<!-- Node3 -->
<g id="node3" class="node"><title>Node3</title>
<polygon fill="none" stroke="#bfbfbf" points="110,-179.5 110,-198.5 208,-198.5 208,-179.5 110,-179.5"/>
<text text-anchor="middle" x="159" y="-186.5" font-family="Helvetica,sans-Serif" font-size="10.00">Framework/Task.h</text>
</g>
<!-- Node1&#45;&gt;Node3 -->
<g id="edge2" class="edge"><title>Node1&#45;&gt;Node3</title>
<path fill="none" stroke="midnightblue" d="M508.32,-240.374C438.569,-230.765 325.613,-215.025 218.093,-199.146"/>
<polygon fill="midnightblue" stroke="midnightblue" points="218.445,-195.66 208.04,-197.658 217.42,-202.584 218.445,-195.66"/>
</g>
<!-- Node4 -->
<g id="node4" class="node"><title>Node4</title>
<polygon fill="none" stroke="#bfbfbf" points="226,-179.5 226,-198.5 390,-198.5 390,-179.5 226,-179.5"/>
<text text-anchor="middle" x="308" y="-186.5" font-family="Helvetica,sans-Serif" font-size="10.00">Framework/DataProcessorSpec.h</text>
</g>
<!-- Node1&#45;&gt;Node4 -->
<g id="edge3" class="edge"><title>Node1&#45;&gt;Node4</title>
<path fill="none" stroke="midnightblue" d="M512.063,-235.475C464.29,-224.829 399.6,-210.413 355.967,-200.689"/>
<polygon fill="midnightblue" stroke="midnightblue" points="356.693,-197.265 346.171,-198.506 355.171,-204.098 356.693,-197.265"/>
</g>
<!-- Node5 -->
<g id="node5" class="node"><title>Node5</title>
<polygon fill="none" stroke="#bfbfbf" points="408.5,-179.5 408.5,-198.5 561.5,-198.5 561.5,-179.5 408.5,-179.5"/>
<text text-anchor="middle" x="485" y="-186.5" font-family="Helvetica,sans-Serif" font-size="10.00">Framework/CompletionPolicy.h</text>
</g>
<!-- Node1&#45;&gt;Node5 -->
<g id="edge4" class="edge"><title>Node1&#45;&gt;Node5</title>
<path fill="none" stroke="midnightblue" d="M553.671,-235.399C539.515,-226.04 520.989,-213.792 506.747,-204.377"/>
<polygon fill="midnightblue" stroke="midnightblue" points="508.368,-201.253 498.096,-198.658 504.507,-207.092 508.368,-201.253"/>
</g>
<!-- Node6 -->
<g id="node6" class="node"><title>Node6</title>
<polygon fill="none" stroke="#bfbfbf" points="580,-179.5 580,-198.5 750,-198.5 750,-179.5 580,-179.5"/>
<text text-anchor="middle" x="665" y="-186.5" font-family="Helvetica,sans-Serif" font-size="10.00">Framework/EndOfStreamContext.h</text>
</g>
<!-- Node1&#45;&gt;Node6 -->
<g id="edge5" class="edge"><title>Node1&#45;&gt;Node6</title>
<path fill="none" stroke="midnightblue" d="M596.329,-235.399C610.485,-226.04 629.011,-213.792 643.253,-204.377"/>
<polygon fill="midnightblue" stroke="midnightblue" points="645.493,-207.092 651.904,-198.658 641.632,-201.253 645.493,-207.092"/>
</g>
<!-- Node7 -->
<g id="node7" class="node"><title>Node7</title>
<polygon fill="none" stroke="#bfbfbf" points="768.5,-179.5 768.5,-198.5 885.5,-198.5 885.5,-179.5 768.5,-179.5"/>
<text text-anchor="middle" x="827" y="-186.5" font-family="Helvetica,sans-Serif" font-size="10.00">Headers/DataHeader.h</text>
</g>
<!-- Node1&#45;&gt;Node7 -->
<g id="edge6" class="edge"><title>Node1&#45;&gt;Node7</title>
<path fill="none" stroke="midnightblue" d="M634.401,-235.475C679.3,-224.874 740.032,-210.534 781.207,-200.812"/>
<polygon fill="midnightblue" stroke="midnightblue" points="782.045,-204.211 790.973,-198.506 780.436,-197.398 782.045,-204.211"/>
</g>
<!-- Node8 -->
<g id="node8" class="node"><title>Node8</title>
<g id="a_node8"><a xlink:href="TaskConfig_8h.html" target="_top" xlink:title="QualityControl/TaskConfig.h">
<polygon fill="none" stroke="black" points="980,-62 980,-81 1120,-81 1120,-62 980,-62"/>
<text text-anchor="middle" x="1050" y="-69" font-family="Helvetica,sans-Serif" font-size="10.00">QualityControl/TaskConfig.h</text>
</a>
</g>
</g>
<!-- Node1&#45;&gt;Node8 -->
<g id="edge7" class="edge"><title>Node1&#45;&gt;Node8</title>
<path fill="none" stroke="midnightblue" d="M641.593,-249.019C708.388,-246.278 812.851,-235.736 895,-199 954.77,-172.272 1010.56,-116.319 1035.82,-88.6715"/>
<polygon fill="midnightblue" stroke="midnightblue" points="1038.58,-90.8426 1042.65,-81.0635 1033.37,-86.1659 1038.58,-90.8426"/>
</g>
<!-- Node11 -->
<g id="node11" class="node"><title>Node11</title>
<g id="a_node11"><a xlink:href="TaskInterface_8h.html" target="_top" xlink:title="QualityControl/TaskInterface.h">
<polygon fill="none" stroke="black" points="1220,-179.5 1220,-198.5 1370,-198.5 1370,-179.5 1220,-179.5"/>
<text text-anchor="middle" x="1295" y="-186.5" font-family="Helvetica,sans-Serif" font-size="10.00">QualityControl/TaskInterface.h</text>
</a>
</g>
</g>
<!-- Node1&#45;&gt;Node11 -->
<g id="edge10" class="edge"><title>Node1&#45;&gt;Node11</title>
<path fill="none" stroke="midnightblue" d="M641.767,-243.982C773.094,-233.13 1064.79,-209.024 1209.78,-197.042"/>
<polygon fill="midnightblue" stroke="midnightblue" points="1210.28,-200.513 1219.96,-196.201 1209.71,-193.537 1210.28,-200.513"/>
</g>
<!-- Node9 -->
<g id="node9" class="node"><title>Node9</title>
<polygon fill="none" stroke="#bfbfbf" points="1118.5,-0.5 1118.5,-19.5 1159.5,-19.5 1159.5,-0.5 1118.5,-0.5"/>
<text text-anchor="middle" x="1139" y="-7.5" font-family="Helvetica,sans-Serif" font-size="10.00">string</text>
</g>
<!-- Node8&#45;&gt;Node9 -->
<g id="edge8" class="edge"><title>Node8&#45;&gt;Node9</title>
<path fill="none" stroke="midnightblue" d="M1062.75,-61.9751C1077.03,-52.4315 1100.4,-36.8073 1117.51,-25.3683"/>
<polygon fill="midnightblue" stroke="midnightblue" points="1119.9,-27.9766 1126.27,-19.5091 1116.01,-22.1572 1119.9,-27.9766"/>
</g>
<!-- Node10 -->
<g id="node10" class="node"><title>Node10</title>
<polygon fill="none" stroke="#bfbfbf" points="959.5,-0.5 959.5,-19.5 1042.5,-19.5 1042.5,-0.5 959.5,-0.5"/>
<text text-anchor="middle" x="1001" y="-7.5" font-family="Helvetica,sans-Serif" font-size="10.00">unordered_map</text>
</g>
<!-- Node8&#45;&gt;Node10 -->
<g id="edge9" class="edge"><title>Node8&#45;&gt;Node10</title>
<path fill="none" stroke="midnightblue" d="M1042.98,-61.9751C1035.56,-52.9617 1023.67,-38.5246 1014.43,-27.3118"/>
<polygon fill="midnightblue" stroke="midnightblue" points="1017.07,-25.0034 1008.01,-19.5091 1011.66,-29.4534 1017.07,-25.0034"/>
</g>
<!-- Node11&#45;&gt;Node9 -->
<g id="edge13" class="edge"><title>Node11&#45;&gt;Node9</title>
<path fill="none" stroke="midnightblue" d="M1258.04,-179.413C1236.36,-172.7 1209.8,-161.346 1192,-143 1160.71,-110.757 1147.13,-57.6741 1141.89,-29.6574"/>
<polygon fill="midnightblue" stroke="midnightblue" points="1145.31,-28.8914 1140.17,-19.6246 1138.41,-30.0716 1145.31,-28.8914"/>
</g>
<!-- Node11&#45;&gt;Node10 -->
<g id="edge14" class="edge"><title>Node11&#45;&gt;Node10</title>
<path fill="none" stroke="midnightblue" d="M1243.53,-179.495C1160.64,-164.633 1003.56,-131.255 971,-87 957.542,-68.7078 972.649,-43.5719 985.857,-27.3058"/>
<polygon fill="midnightblue" stroke="midnightblue" points="988.544,-29.5484 992.429,-19.6914 983.245,-24.9744 988.544,-29.5484"/>
</g>
<!-- Node12 -->
<g id="node12" class="node"><title>Node12</title>
<polygon fill="none" stroke="#bfbfbf" points="1177.5,-0.5 1177.5,-19.5 1212.5,-19.5 1212.5,-0.5 1177.5,-0.5"/>
<text text-anchor="middle" x="1195" y="-7.5" font-family="Helvetica,sans-Serif" font-size="10.00">map</text>
</g>
<!-- Node11&#45;&gt;Node12 -->
<g id="edge11" class="edge"><title>Node11&#45;&gt;Node12</title>
<path fill="none" stroke="midnightblue" d="M1260.24,-179.44C1240.98,-172.805 1218.48,-161.523 1206,-143 1182.84,-108.624 1186.84,-57.2163 1191.24,-29.8031"/>
<polygon fill="midnightblue" stroke="midnightblue" points="1194.74,-30.1053 1193.07,-19.6433 1187.85,-28.8644 1194.74,-30.1053"/>
</g>
<!-- Node13 -->
<g id="node13" class="node"><title>Node13</title>
<polygon fill="none" stroke="#bfbfbf" points="1760,-62 1760,-81 1812,-81 1812,-62 1760,-62"/>
<text text-anchor="middle" x="1786" y="-69" font-family="Helvetica,sans-Serif" font-size="10.00">memory</text>
</g>
<!-- Node11&#45;&gt;Node13 -->
<g id="edge12" class="edge"><title>Node11&#45;&gt;Node13</title>
<path fill="none" stroke="midnightblue" d="M1370.19,-187.415C1513.92,-185.511 1816.27,-177.414 1848,-143 1865.93,-123.554 1836.22,-100.435 1812.06,-86.1116"/>
<polygon fill="midnightblue" stroke="midnightblue" points="1813.61,-82.9663 1803.18,-81.0789 1810.15,-89.0557 1813.61,-82.9663"/>
</g>
<!-- Node14 -->
<g id="node14" class="node"><title>Node14</title>
<polygon fill="none" stroke="#bfbfbf" points="1393.5,-123.5 1393.5,-142.5 1518.5,-142.5 1518.5,-123.5 1393.5,-123.5"/>
<text text-anchor="middle" x="1456" y="-130.5" font-family="Helvetica,sans-Serif" font-size="10.00">Framework/InitContext.h</text>
</g>
<!-- Node11&#45;&gt;Node14 -->
<g id="edge15" class="edge"><title>Node11&#45;&gt;Node14</title>
<path fill="none" stroke="midnightblue" d="M1320.51,-179.444C1347.6,-170.359 1390.59,-155.939 1420.87,-145.783"/>
<polygon fill="midnightblue" stroke="midnightblue" points="1422.24,-149.015 1430.61,-142.516 1420.01,-142.378 1422.24,-149.015"/>
</g>
<!-- Node15 -->
<g id="node15" class="node"><title>Node15</title>
<polygon fill="none" stroke="#bfbfbf" points="1537,-123.5 1537,-142.5 1697,-142.5 1697,-123.5 1537,-123.5"/>
<text text-anchor="middle" x="1617" y="-130.5" font-family="Helvetica,sans-Serif" font-size="10.00">Framework/ProcessingContext.h</text>
</g>
<!-- Node11&#45;&gt;Node15 -->
<g id="edge16" class="edge"><title>Node11&#45;&gt;Node15</title>
<path fill="none" stroke="midnightblue" d="M1346.02,-179.444C1403.02,-169.885 1495.24,-154.419 1556,-144.23"/>
<polygon fill="midnightblue" stroke="midnightblue" points="1556.93,-147.622 1566.22,-142.516 1555.78,-140.719 1556.93,-147.622"/>
</g>
<!-- Node16 -->
<g id="node16" class="node"><title>Node16</title>
<g id="a_node16"><a xlink:href="Activity_8h.html" target="_top" xlink:title="QualityControl/Activity.h">
<polygon fill="none" stroke="black" points="1715.5,-123.5 1715.5,-142.5 1838.5,-142.5 1838.5,-123.5 1715.5,-123.5"/>
<text text-anchor="middle" x="1777" y="-130.5" font-family="Helvetica,sans-Serif" font-size="10.00">QualityControl/Activity.h</text>
</a>
</g>
</g>
<!-- Node11&#45;&gt;Node16 -->
<g id="edge17" class="edge"><title>Node11&#45;&gt;Node16</title>
<path fill="none" stroke="midnightblue" d="M1370.04,-180.171C1450.3,-171.711 1581.59,-157.618 1705.39,-143.053"/>
<polygon fill="midnightblue" stroke="midnightblue" points="1705.91,-146.517 1715.43,-141.869 1705.09,-139.565 1705.91,-146.517"/>
</g>
<!-- Node17 -->
<g id="node17" class="node"><title>Node17</title>
<g id="a_node17"><a xlink:href="ObjectsManager_8h.html" target="_top" xlink:title="QualityControl/ObjectsManager.h">
<polygon fill="none" stroke="black" points="1214.5,-123.5 1214.5,-142.5 1375.5,-142.5 1375.5,-123.5 1214.5,-123.5"/>
<text text-anchor="middle" x="1295" y="-130.5" font-family="Helvetica,sans-Serif" font-size="10.00">QualityControl/ObjectsManager.h</text>
</a>
</g>
</g>
<!-- Node11&#45;&gt;Node17 -->
<g id="edge18" class="edge"><title>Node11&#45;&gt;Node17</title>
<path fill="none" stroke="midnightblue" d="M1295,-179.083C1295,-172.006 1295,-161.861 1295,-152.986"/>
<polygon fill="midnightblue" stroke="midnightblue" points="1298.5,-152.751 1295,-142.751 1291.5,-152.751 1298.5,-152.751"/>
</g>
<!-- Node17&#45;&gt;Node8 -->
<g id="edge28" class="edge"><title>Node17&#45;&gt;Node8</title>
<path fill="none" stroke="midnightblue" d="M1259.9,-123.475C1216.51,-112.937 1142.59,-94.9863 1095.05,-83.4415"/>
<polygon fill="midnightblue" stroke="midnightblue" points="1095.58,-79.968 1085.04,-81.0091 1093.93,-86.7703 1095.58,-79.968"/>
</g>
<!-- Node17&#45;&gt;Node9 -->
<g id="edge29" class="edge"><title>Node17&#45;&gt;Node9</title>
<path fill="none" stroke="midnightblue" d="M1283.78,-123.298C1257.36,-102.804 1190.97,-51.312 1158.08,-25.7996"/>
<polygon fill="midnightblue" stroke="midnightblue" points="1160.16,-22.9865 1150.12,-19.6232 1155.87,-28.5177 1160.16,-22.9865"/>
</g>
<!-- Node17&#45;&gt;Node13 -->
<g id="edge30" class="edge"><title>Node17&#45;&gt;Node13</title>
<path fill="none" stroke="midnightblue" d="M1365.35,-123.475C1471.43,-110.621 1668.54,-86.7344 1749.67,-76.9025"/>
<polygon fill="midnightblue" stroke="midnightblue" points="1750.37,-80.3432 1759.88,-75.6655 1749.53,-73.394 1750.37,-80.3432"/>
</g>
<!-- Node18 -->
<g id="node18" class="node"><title>Node18</title>
<g id="a_node18"><a xlink:href="MonitorObject_8h.html" target="_top" xlink:title="QualityControl/MonitorObject.h">
<polygon fill="none" stroke="black" points="1252.5,-62 1252.5,-81 1403.5,-81 1403.5,-62 1252.5,-62"/>
<text text-anchor="middle" x="1328" y="-69" font-family="Helvetica,sans-Serif" font-size="10.00">QualityControl/MonitorObject.h</text>
</a>
</g>
</g>
<!-- Node17&#45;&gt;Node18 -->
<g id="edge19" class="edge"><title>Node17&#45;&gt;Node18</title>
<path fill="none" stroke="midnightblue" d="M1299.73,-123.475C1304.58,-114.727 1312.27,-100.869 1318.4,-89.8093"/>
<polygon fill="midnightblue" stroke="midnightblue" points="1321.49,-91.4517 1323.28,-81.0091 1315.37,-88.0566 1321.49,-91.4517"/>
</g>
<!-- Node22 -->
<g id="node22" class="node"><title>Node22</title>
<g id="a_node22"><a xlink:href="MonitorObjectCollection_8h.html" target="_top" xlink:title="QualityControl/MonitorObject\lCollection.h">
<polygon fill="none" stroke="black" points="1508.5,-56.5 1508.5,-86.5 1651.5,-86.5 1651.5,-56.5 1508.5,-56.5"/>
<text text-anchor="start" x="1516.5" y="-74.5" font-family="Helvetica,sans-Serif" font-size="10.00">QualityControl/MonitorObject</text>
<text text-anchor="middle" x="1580" y="-63.5" font-family="Helvetica,sans-Serif" font-size="10.00">Collection.h</text>
</a>
</g>
</g>
<!-- Node17&#45;&gt;Node22 -->
<g id="edge25" class="edge"><title>Node17&#45;&gt;Node22</title>
<path fill="none" stroke="midnightblue" d="M1335.83,-123.475C1379.3,-114.4 1449.11,-99.8265 1502.97,-88.5818"/>
<polygon fill="midnightblue" stroke="midnightblue" points="1503.76,-91.9928 1512.83,-86.523 1502.33,-85.1406 1503.76,-91.9928"/>
</g>
<!-- Node18&#45;&gt;Node9 -->
<g id="edge20" class="edge"><title>Node18&#45;&gt;Node9</title>
<path fill="none" stroke="midnightblue" d="M1300.92,-61.9751C1266.03,-50.99 1205.54,-31.9488 1169.2,-20.5068"/>
<polygon fill="midnightblue" stroke="midnightblue" points="1170.22,-17.1586 1159.63,-17.4941 1168.12,-23.8355 1170.22,-17.1586"/>
</g>
<!-- Node18&#45;&gt;Node12 -->
<g id="edge21" class="edge"><title>Node18&#45;&gt;Node12</title>
<path fill="none" stroke="midnightblue" d="M1308.94,-61.9751C1286.14,-51.7745 1247.81,-34.6274 1221.98,-23.0688"/>
<polygon fill="midnightblue" stroke="midnightblue" points="1223.3,-19.8275 1212.75,-18.9386 1220.44,-26.2172 1223.3,-19.8275"/>
</g>
<!-- Node19 -->
<g id="node19" class="node"><title>Node19</title>
<polygon fill="none" stroke="#bfbfbf" points="1442,-0.5 1442,-19.5 1498,-19.5 1498,-0.5 1442,-0.5"/>
<text text-anchor="middle" x="1470" y="-7.5" font-family="Helvetica,sans-Serif" font-size="10.00">Rtypes.h</text>
</g>
<!-- Node18&#45;&gt;Node19 -->
<g id="edge22" class="edge"><title>Node18&#45;&gt;Node19</title>
<path fill="none" stroke="midnightblue" d="M1348.35,-61.9751C1372.39,-51.9013 1412.6,-35.0525 1440.16,-23.5023"/>
<polygon fill="midnightblue" stroke="midnightblue" points="1441.82,-26.6018 1449.69,-19.5091 1439.12,-20.1457 1441.82,-26.6018"/>
</g>
<!-- Node20 -->
<g id="node20" class="node"><title>Node20</title>
<polygon fill="none" stroke="#bfbfbf" points="1230.5,-0.5 1230.5,-19.5 1289.5,-19.5 1289.5,-0.5 1230.5,-0.5"/>
<text text-anchor="middle" x="1260" y="-7.5" font-family="Helvetica,sans-Serif" font-size="10.00">TObject.h</text>
</g>
<!-- Node18&#45;&gt;Node20 -->
<g id="edge23" class="edge"><title>Node18&#45;&gt;Node20</title>
<path fill="none" stroke="midnightblue" d="M1318.26,-61.9751C1307.65,-52.6966 1290.48,-37.6706 1277.52,-26.331"/>
<polygon fill="midnightblue" stroke="midnightblue" points="1279.56,-23.4601 1269.72,-19.5091 1274.95,-28.7282 1279.56,-23.4601"/>
</g>
<!-- Node21 -->
<g id="node21" class="node"><title>Node21</title>
<polygon fill="none" stroke="#bfbfbf" points="1308,-0.5 1308,-19.5 1424,-19.5 1424,-0.5 1308,-0.5"/>
<text text-anchor="middle" x="1366" y="-7.5" font-family="Helvetica,sans-Serif" font-size="10.00">Common/Exceptions.h</text>
</g>
<!-- Node18&#45;&gt;Node21 -->
<g id="edge24" class="edge"><title>Node18&#45;&gt;Node21</title>
<path fill="none" stroke="midnightblue" d="M1333.44,-61.9751C1339.09,-53.1384 1348.06,-39.0886 1355.16,-27.975"/>
<polygon fill="midnightblue" stroke="midnightblue" points="1358.13,-29.8208 1360.57,-19.5091 1352.23,-26.0531 1358.13,-29.8208"/>
</g>
<!-- Node23 -->
<g id="node23" class="node"><title>Node23</title>
<polygon fill="none" stroke="#bfbfbf" points="1662.5,-0.5 1662.5,-19.5 1731.5,-19.5 1731.5,-0.5 1662.5,-0.5"/>
<text text-anchor="middle" x="1697" y="-7.5" font-family="Helvetica,sans-Serif" font-size="10.00">TObjArray.h</text>
</g>
<!-- Node22&#45;&gt;Node23 -->
<g id="edge26" class="edge"><title>Node22&#45;&gt;Node23</title>
<path fill="none" stroke="midnightblue" d="M1607.73,-56.3993C1626.83,-46.6837 1652.06,-33.8551 1670.82,-24.3137"/>
<polygon fill="midnightblue" stroke="midnightblue" points="1672.65,-27.3106 1679.98,-19.6578 1669.48,-21.071 1672.65,-27.3106"/>
</g>
<!-- Node24 -->
<g id="node24" class="node"><title>Node24</title>
<polygon fill="none" stroke="#bfbfbf" points="1516,-0.5 1516,-19.5 1644,-19.5 1644,-0.5 1516,-0.5"/>
<text text-anchor="middle" x="1580" y="-7.5" font-family="Helvetica,sans-Serif" font-size="10.00">Mergers/MergeInterface.h</text>
</g>
<!-- Node22&#45;&gt;Node24 -->
<g id="edge27" class="edge"><title>Node22&#45;&gt;Node24</title>
<path fill="none" stroke="midnightblue" d="M1580,-56.3993C1580,-48.4664 1580,-38.458 1580,-29.8583"/>
<polygon fill="midnightblue" stroke="midnightblue" points="1583.5,-29.6577 1580,-19.6578 1576.5,-29.6578 1583.5,-29.6577"/>
</g>
</g>
</svg>
        <g id="navigator" transform="translate(0 0)" fill="#404254">
                <rect fill="#f2f5e9" fill-opacity="0.5" stroke="#606060" stroke-width=".5" x="0" y="0" width="60" height="60"/>
                <use id="zoomplus" xlink:href="#zoomPlus" x="17" y="9" onmousedown="handleZoom(evt,'in')"/>
                <use id="zoomminus" xlink:href="#zoomMin" x="42" y="9" onmousedown="handleZoom(evt,'out')"/>
                <use id="reset" xlink:href="#resetDef" x="30" y="36" onmousedown="handleReset()"/>
                <g id="arrowUp" xlink:href="#dirArrow" transform="translate(30 24)" onmousedown="handlePan(0,-1)">
                  <use xlink:href="#rim" fill="#404040">
                        <set attributeName="fill" to="#808080" begin="arrowUp.mouseover" end="arrowUp.mouseout"/>
                  </use>
                  <path fill="none" stroke="white" stroke-width="1.5" d="M0,-3.0v7 M-2.5,-0.5L0,-3.0L2.5,-0.5"/>
                </g>
                <g id="arrowRight" xlink:href="#dirArrow" transform="rotate(90) translate(36 -43)" onmousedown="handlePan(1,0)">
                  <use xlink:href="#rim" fill="#404040">
                        <set attributeName="fill" to="#808080" begin="arrowRight.mouseover" end="arrowRight.mouseout"/>
                  </use>
                  <path fill="none" stroke="white" stroke-width="1.5" d="M0,-3.0v7 M-2.5,-0.5L0,-3.0L2.5,-0.5"/>
                </g>
                <g id="arrowDown" xlink:href="#dirArrow" transform="rotate(180) translate(-30 -48)" onmousedown="handlePan(0,1)">
                  <use xlink:href="#rim" fill="#404040">
                        <set attributeName="fill" to="#808080" begin="arrowDown.mouseover" end="arrowDown.mouseout"/>
                  </use>
                  <path fill="none" stroke="white" stroke-width="1.5" d="M0,-3.0v7 M-2.5,-0.5L0,-3.0L2.5,-0.5"/>
                </g>
                <g id="arrowLeft" xlink:href="#dirArrow" transform="rotate(270) translate(-36 17)" onmousedown="handlePan(-1,0)">
                  <use xlink:href="#rim" fill="#404040">
                        <set attributeName="fill" to="#808080" begin="arrowLeft.mouseover" end="arrowLeft.mouseout"/>
                  </use>
                  <path fill="none" stroke="white" stroke-width="1.5" d="M0,-3.0v7 M-2.5,-0.5L0,-3.0L2.5,-0.5"/>
                </g>
        </g>
        <svg viewBox="0 0 15 15" width="100%" height="30px" preserveAspectRatio="xMaxYMin meet">
         <g id="arrow_out" transform="scale(0.3 0.3)">
          <a xlink:href="TaskRunner_8h__incl_org.svg" target="_base">
           <rect id="button" ry="5" rx="5" y="6" x="6" height="38" width="38"
                fill="#f2f5e9" fill-opacity="0.5" stroke="#606060" stroke-width="1.0"/>
           <path id="arrow"
             d="M 11.500037,31.436501 C 11.940474,20.09759 22.043105,11.32322 32.158766,21.979434 L 37.068811,17.246167 C 37.068811,17.246167 37.088388,32 37.088388,32 L 22.160133,31.978069 C 22.160133,31.978069 26.997745,27.140456 26.997745,27.140456 C 18.528582,18.264221 13.291696,25.230495 11.500037,31.436501 z"
             style="fill:#404040;"/>
          </a>
         </g>
        </svg>
</svg>
