<?xml version="1.0" encoding="UTF-8" standalone="no"?>
<!DOCTYPE svg PUBLIC "-//W3C//DTD SVG 1.1//EN"
 "http://www.w3.org/Graphics/SVG/1.1/DTD/svg11.dtd">
<!-- Generated by graphviz version 2.38.0 (20140413.2041)
 -->
<!-- Title: Framework/src/TaskRunnerFactory.cxx Pages: 1 -->
<!--zoomable 341 -->
<svg id="main" version="1.1" xmlns="http://www.w3.org/2000/svg" xmlns:xlink="http://www.w3.org/1999/xlink" xml:space="preserve" onload="init(evt)">
<style type="text/css"><![CDATA[
.edge:hover path { stroke: red; }
.edge:hover polygon { stroke: red; fill: red; }
]]></style>
<script type="text/javascript"><![CDATA[
var edges = document.getElementsByTagName('g');
if (edges && edges.length) {
  for (var i=0;i<edges.length;i++) {
    if (edges[i].id.substr(0,4)=='edge') {
      edges[i].setAttribute('class','edge');
    }
  }
}
]]></script>
        <defs>
                <circle id="rim" cx="0" cy="0" r="7"/>
                <circle id="rim2" cx="0" cy="0" r="3.5"/>
                <g id="zoomPlus">
                        <use xlink:href="#rim" fill="#404040">
                                <set attributeName="fill" to="#808080" begin="zoomplus.mouseover" end="zoomplus.mouseout"/>
                        </use>
                        <path d="M-4,0h8M0,-4v8" fill="none" stroke="white" stroke-width="1.5" pointer-events="none"/>
                </g>
                <g id="zoomMin">
                        <use xlink:href="#rim" fill="#404040">
                                <set attributeName="fill" to="#808080" begin="zoomminus.mouseover" end="zoomminus.mouseout"/>
                        </use>
                        <path d="M-4,0h8" fill="none" stroke="white" stroke-width="1.5" pointer-events="none"/>
                </g>
                <g id="dirArrow">
                        <path fill="none" stroke="white" stroke-width="1.5" d="M0,-3.0v7 M-2.5,-0.5L0,-3.0L2.5,-0.5"/>
                </g>
               <g id="resetDef">
                       <use xlink:href="#rim2" fill="#404040">
                               <set attributeName="fill" to="#808080" begin="reset.mouseover" end="reset.mouseout"/>
                       </use>
               </g>
        </defs>

<script type="text/javascript">
var viewWidth = 1462;
var viewHeight = 341;
var sectionId = 'dynsection-0';
</script>
<script xlink:href="svgpan.js"/>
<svg id="graph" class="graph">
<g id="viewport">
<title>Framework/src/TaskRunnerFactory.cxx</title>
<!-- Node1 -->
<g id="node1" class="node"><title>Node1</title>
<polygon fill="#bfbfbf" stroke="black" points="975.5,-302.5 975.5,-332.5 1113.5,-332.5 1113.5,-302.5 975.5,-302.5"/>
<text text-anchor="start" x="983.5" y="-320.5" font-family="Helvetica,sans-Serif" font-size="10.00">Framework/src/TaskRunner</text>
<text text-anchor="middle" x="1044.5" y="-309.5" font-family="Helvetica,sans-Serif" font-size="10.00">Factory.cxx</text>
</g>
<!-- Node2 -->
<g id="node2" class="node"><title>Node2</title>
<g id="a_node2"><a xlink:href="TaskRunnerFactory_8h.html" target="_top" xlink:title="QualityControl/TaskRunner\lFactory.h">
<polygon fill="none" stroke="black" points="316,-235.5 316,-265.5 451,-265.5 451,-235.5 316,-235.5"/>
<text text-anchor="start" x="324" y="-253.5" font-family="Helvetica,sans-Serif" font-size="10.00">QualityControl/TaskRunner</text>
<text text-anchor="middle" x="383.5" y="-242.5" font-family="Helvetica,sans-Serif" font-size="10.00">Factory.h</text>
</a>
</g>
</g>
<!-- Node1&#45;&gt;Node2 -->
<g id="edge1" class="edge"><title>Node1&#45;&gt;Node2</title>
<path fill="none" stroke="midnightblue" d="M975.322,-309.697C851.223,-297.494 591.615,-271.965 461.435,-259.164"/>
<polygon fill="midnightblue" stroke="midnightblue" points="461.443,-255.648 451.148,-258.152 460.758,-262.614 461.443,-255.648"/>
</g>
<!-- Node6 -->
<g id="node6" class="node"><title>Node6</title>
<g id="a_node6"><a xlink:href="TaskRunner_8h.html" target="_top" xlink:title="QualityControl/TaskRunner.h">
<polygon fill="none" stroke="black" points="923,-241 923,-260 1066,-260 1066,-241 923,-241"/>
<text text-anchor="middle" x="994.5" y="-248" font-family="Helvetica,sans-Serif" font-size="10.00">QualityControl/TaskRunner.h</text>
</a>
</g>
</g>
<!-- Node1&#45;&gt;Node6 -->
<g id="edge5" class="edge"><title>Node1&#45;&gt;Node6</title>
<path fill="none" stroke="midnightblue" d="M1033.65,-302.396C1025.93,-292.361 1015.53,-278.838 1007.39,-268.253"/>
<polygon fill="midnightblue" stroke="midnightblue" points="1010.06,-265.987 1001.19,-260.195 1004.51,-270.255 1010.06,-265.987"/>
</g>
<!-- Node9 -->
<g id="node9" class="node"><title>Node9</title>
<polygon fill="none" stroke="#bfbfbf" points="1301,-179.5 1301,-198.5 1454,-198.5 1454,-179.5 1301,-179.5"/>
<text text-anchor="middle" x="1377.5" y="-186.5" font-family="Helvetica,sans-Serif" font-size="10.00">Framework/CompletionPolicy.h</text>
</g>
<!-- Node1&#45;&gt;Node9 -->
<g id="edge37" class="edge"><title>Node1&#45;&gt;Node9</title>
<path fill="none" stroke="midnightblue" d="M1052.2,-302.335C1063.17,-283.629 1085.16,-251.172 1113.5,-235 1129.89,-225.646 1231.68,-210.056 1303.96,-199.903"/>
<polygon fill="midnightblue" stroke="midnightblue" points="1304.53,-203.357 1313.95,-198.508 1303.56,-196.425 1304.53,-203.357"/>
</g>
<!-- Node28 -->
<g id="node28" class="node"><title>Node28</title>
<polygon fill="none" stroke="#bfbfbf" points="1122.5,-241 1122.5,-260 1252.5,-260 1252.5,-241 1122.5,-241"/>
<text text-anchor="middle" x="1187.5" y="-248" font-family="Helvetica,sans-Serif" font-size="10.00">Framework/DeviceSpec.h</text>
</g>
<!-- Node1&#45;&gt;Node28 -->
<g id="edge36" class="edge"><title>Node1&#45;&gt;Node28</title>
<path fill="none" stroke="midnightblue" d="M1075.53,-302.396C1100.51,-291.041 1135.32,-275.22 1159.46,-264.244"/>
<polygon fill="midnightblue" stroke="midnightblue" points="1161.13,-267.331 1168.78,-260.007 1158.23,-260.959 1161.13,-267.331"/>
</g>
<!-- Node3 -->
<g id="node3" class="node"><title>Node3</title>
<polygon fill="none" stroke="#bfbfbf" points="339,-0.5 339,-19.5 380,-19.5 380,-0.5 339,-0.5"/>
<text text-anchor="middle" x="359.5" y="-7.5" font-family="Helvetica,sans-Serif" font-size="10.00">string</text>
</g>
<!-- Node2&#45;&gt;Node3 -->
<g id="edge2" class="edge"><title>Node2&#45;&gt;Node3</title>
<path fill="none" stroke="midnightblue" d="M336.856,-235.36C319.462,-227.568 301.522,-215.934 291.5,-199 256.788,-140.349 315.333,-61.0654 344.495,-27.3071"/>
<polygon fill="midnightblue" stroke="midnightblue" points="347.185,-29.5494 351.202,-19.7456 341.948,-24.9046 347.185,-29.5494"/>
</g>
<!-- Node4 -->
<g id="node4" class="node"><title>Node4</title>
<polygon fill="none" stroke="#bfbfbf" points="300.5,-179.5 300.5,-198.5 344.5,-198.5 344.5,-179.5 300.5,-179.5"/>
<text text-anchor="middle" x="322.5" y="-186.5" font-family="Helvetica,sans-Serif" font-size="10.00">vector</text>
</g>
<!-- Node2&#45;&gt;Node4 -->
<g id="edge3" class="edge"><title>Node2&#45;&gt;Node4</title>
<path fill="none" stroke="midnightblue" d="M369.044,-235.399C359.906,-226.486 348.081,-214.952 338.638,-205.741"/>
<polygon fill="midnightblue" stroke="midnightblue" points="340.978,-203.135 331.376,-198.658 336.091,-208.146 340.978,-203.135"/>
</g>
<!-- Node5 -->
<g id="node5" class="node"><title>Node5</title>
<polygon fill="none" stroke="#bfbfbf" points="362.5,-179.5 362.5,-198.5 526.5,-198.5 526.5,-179.5 362.5,-179.5"/>
<text text-anchor="middle" x="444.5" y="-186.5" font-family="Helvetica,sans-Serif" font-size="10.00">Framework/DataProcessorSpec.h</text>
</g>
<!-- Node2&#45;&gt;Node5 -->
<g id="edge4" class="edge"><title>Node2&#45;&gt;Node5</title>
<path fill="none" stroke="midnightblue" d="M397.956,-235.399C407.094,-226.486 418.919,-214.952 428.362,-205.741"/>
<polygon fill="midnightblue" stroke="midnightblue" points="430.909,-208.146 435.624,-198.658 426.022,-203.135 430.909,-208.146"/>
</g>
<!-- Node6&#45;&gt;Node5 -->
<g id="edge8" class="edge"><title>Node6&#45;&gt;Node5</title>
<path fill="none" stroke="midnightblue" d="M922.879,-241.752C822.971,-230.944 641.866,-211.351 533.438,-199.621"/>
<polygon fill="midnightblue" stroke="midnightblue" points="533.495,-196.107 523.177,-198.511 532.742,-203.067 533.495,-196.107"/>
</g>
<!-- Node7 -->
<g id="node7" class="node"><title>Node7</title>
<polygon fill="none" stroke="#bfbfbf" points="1074.5,-179.5 1074.5,-198.5 1166.5,-198.5 1166.5,-179.5 1074.5,-179.5"/>
<text text-anchor="middle" x="1120.5" y="-186.5" font-family="Helvetica,sans-Serif" font-size="10.00">Common/Timer.h</text>
</g>
<!-- Node6&#45;&gt;Node7 -->
<g id="edge6" class="edge"><title>Node6&#45;&gt;Node7</title>
<path fill="none" stroke="midnightblue" d="M1012.55,-240.975C1033.7,-230.99 1068.94,-214.348 1093.38,-202.807"/>
<polygon fill="midnightblue" stroke="midnightblue" points="1094.93,-205.944 1102.48,-198.509 1091.94,-199.614 1094.93,-205.944"/>
</g>
<!-- Node8 -->
<g id="node8" class="node"><title>Node8</title>
<polygon fill="none" stroke="#bfbfbf" points="1184.5,-179.5 1184.5,-198.5 1282.5,-198.5 1282.5,-179.5 1184.5,-179.5"/>
<text text-anchor="middle" x="1233.5" y="-186.5" font-family="Helvetica,sans-Serif" font-size="10.00">Framework/Task.h</text>
</g>
<!-- Node6&#45;&gt;Node8 -->
<g id="edge7" class="edge"><title>Node6&#45;&gt;Node8</title>
<path fill="none" stroke="midnightblue" d="M1028.74,-240.975C1071.07,-230.437 1143.18,-212.486 1189.55,-200.941"/>
<polygon fill="midnightblue" stroke="midnightblue" points="1190.46,-204.321 1199.32,-198.509 1188.77,-197.529 1190.46,-204.321"/>
</g>
<!-- Node6&#45;&gt;Node9 -->
<g id="edge9" class="edge"><title>Node6&#45;&gt;Node9</title>
<path fill="none" stroke="midnightblue" d="M1044.5,-240.925C1056.3,-238.942 1068.84,-236.866 1080.5,-235 1158.87,-222.456 1249.03,-208.922 1309.26,-200.009"/>
<polygon fill="midnightblue" stroke="midnightblue" points="1310.03,-203.434 1319.41,-198.51 1309,-196.51 1310.03,-203.434"/>
</g>
<!-- Node10 -->
<g id="node10" class="node"><title>Node10</title>
<polygon fill="none" stroke="#bfbfbf" points="544.5,-179.5 544.5,-198.5 714.5,-198.5 714.5,-179.5 544.5,-179.5"/>
<text text-anchor="middle" x="629.5" y="-186.5" font-family="Helvetica,sans-Serif" font-size="10.00">Framework/EndOfStreamContext.h</text>
</g>
<!-- Node6&#45;&gt;Node10 -->
<g id="edge10" class="edge"><title>Node6&#45;&gt;Node10</title>
<path fill="none" stroke="midnightblue" d="M942.204,-240.975C876.07,-230.194 762.338,-211.654 691.784,-200.153"/>
<polygon fill="midnightblue" stroke="midnightblue" points="692.131,-196.664 681.699,-198.509 691.005,-203.572 692.131,-196.664"/>
</g>
<!-- Node11 -->
<g id="node11" class="node"><title>Node11</title>
<polygon fill="none" stroke="#bfbfbf" points="733,-179.5 733,-198.5 850,-198.5 850,-179.5 733,-179.5"/>
<text text-anchor="middle" x="791.5" y="-186.5" font-family="Helvetica,sans-Serif" font-size="10.00">Headers/DataHeader.h</text>
</g>
<!-- Node6&#45;&gt;Node11 -->
<g id="edge11" class="edge"><title>Node6&#45;&gt;Node11</title>
<path fill="none" stroke="midnightblue" d="M965.415,-240.975C929.915,-230.57 869.755,-212.937 830.326,-201.38"/>
<polygon fill="midnightblue" stroke="midnightblue" points="831.112,-197.963 820.531,-198.509 829.143,-204.681 831.112,-197.963"/>
</g>
<!-- Node12 -->
<g id="node12" class="node"><title>Node12</title>
<g id="a_node12"><a xlink:href="TaskConfig_8h.html" target="_top" xlink:title="QualityControl/TaskConfig.h">
<polygon fill="none" stroke="black" points="773.5,-62 773.5,-81 913.5,-81 913.5,-62 773.5,-62"/>
<text text-anchor="middle" x="843.5" y="-69" font-family="Helvetica,sans-Serif" font-size="10.00">QualityControl/TaskConfig.h</text>
</a>
</g>
</g>
<!-- Node6&#45;&gt;Node12 -->
<g id="edge12" class="edge"><title>Node6&#45;&gt;Node12</title>
<path fill="none" stroke="midnightblue" d="M1004.12,-240.72C1026.82,-218.944 1079.65,-161.438 1049.5,-123 1033.73,-102.901 974.543,-89.754 923.632,-81.9278"/>
<polygon fill="midnightblue" stroke="midnightblue" points="923.982,-78.4413 913.576,-80.433 922.953,-85.3653 923.982,-78.4413"/>
</g>
<!-- Node14 -->
<g id="node14" class="node"><title>Node14</title>
<g id="a_node14"><a xlink:href="TaskInterface_8h.html" target="_top" xlink:title="QualityControl/TaskInterface.h">
<polygon fill="none" stroke="black" points="868.5,-179.5 868.5,-198.5 1018.5,-198.5 1018.5,-179.5 868.5,-179.5"/>
<text text-anchor="middle" x="943.5" y="-186.5" font-family="Helvetica,sans-Serif" font-size="10.00">QualityControl/TaskInterface.h</text>
</a>
</g>
</g>
<!-- Node6&#45;&gt;Node14 -->
<g id="edge15" class="edge"><title>Node6&#45;&gt;Node14</title>
<path fill="none" stroke="midnightblue" d="M987.193,-240.975C979.467,-231.962 967.092,-217.525 957.482,-206.312"/>
<polygon fill="midnightblue" stroke="midnightblue" points="959.959,-203.824 950.794,-198.509 954.644,-208.379 959.959,-203.824"/>
</g>
<!-- Node12&#45;&gt;Node3 -->
<g id="edge13" class="edge"><title>Node12&#45;&gt;Node3</title>
<path fill="none" stroke="midnightblue" d="M773.482,-64.1355C686.82,-55.8652 534.844,-40.078 405.5,-20 400.535,-19.2292 395.288,-18.3066 390.185,-17.3503"/>
<polygon fill="midnightblue" stroke="midnightblue" points="390.533,-13.8524 380.048,-15.3778 389.196,-20.7235 390.533,-13.8524"/>
</g>
<!-- Node13 -->
<g id="node13" class="node"><title>Node13</title>
<polygon fill="none" stroke="#bfbfbf" points="914,-0.5 914,-19.5 997,-19.5 997,-0.5 914,-0.5"/>
<text text-anchor="middle" x="955.5" y="-7.5" font-family="Helvetica,sans-Serif" font-size="10.00">unordered_map</text>
</g>
<!-- Node12&#45;&gt;Node13 -->
<g id="edge14" class="edge"><title>Node12&#45;&gt;Node13</title>
<path fill="none" stroke="midnightblue" d="M859.547,-61.9751C878.093,-52.1222 908.84,-35.7883 930.522,-24.2697"/>
<polygon fill="midnightblue" stroke="midnightblue" points="932.294,-27.2916 939.483,-19.5091 929.01,-21.1098 932.294,-27.2916"/>
</g>
<!-- Node14&#45;&gt;Node3 -->
<g id="edge18" class="edge"><title>Node14&#45;&gt;Node3</title>
<path fill="none" stroke="midnightblue" d="M868.426,-179.918C865.072,-179.599 861.752,-179.291 858.5,-179 804.016,-174.119 405.935,-181.924 367.5,-143 337.879,-113.002 346.635,-58.1244 353.954,-29.4928"/>
<polygon fill="midnightblue" stroke="midnightblue" points="357.399,-30.1695 356.699,-19.5978 350.653,-28.298 357.399,-30.1695"/>
</g>
<!-- Node14&#45;&gt;Node13 -->
<g id="edge19" class="edge"><title>Node14&#45;&gt;Node13</title>
<path fill="none" stroke="midnightblue" d="M993.274,-179.45C1014.33,-173.104 1036.87,-162.089 1049.5,-143 1078.56,-99.0958 1014.9,-48.842 978.552,-24.9838"/>
<polygon fill="midnightblue" stroke="midnightblue" points="980.284,-21.9375 969.972,-19.5068 976.518,-27.8378 980.284,-21.9375"/>
</g>
<!-- Node15 -->
<g id="node15" class="node"><title>Node15</title>
<polygon fill="none" stroke="#bfbfbf" points="0,-0.5 0,-19.5 35,-19.5 35,-0.5 0,-0.5"/>
<text text-anchor="middle" x="17.5" y="-7.5" font-family="Helvetica,sans-Serif" font-size="10.00">map</text>
</g>
<!-- Node14&#45;&gt;Node15 -->
<g id="edge16" class="edge"><title>Node14&#45;&gt;Node15</title>
<path fill="none" stroke="midnightblue" d="M868.427,-179.909C865.073,-179.592 861.752,-179.288 858.5,-179 529.685,-149.927 420.862,-226.093 121.5,-87 87.606,-71.2518 53.6425,-43.675 34.1454,-26.4256"/>
<polygon fill="midnightblue" stroke="midnightblue" points="36.4888,-23.8258 26.7177,-19.7298 31.8018,-29.0251 36.4888,-23.8258"/>
</g>
<!-- Node16 -->
<g id="node16" class="node"><title>Node16</title>
<polygon fill="none" stroke="#bfbfbf" points="576.5,-62 576.5,-81 628.5,-81 628.5,-62 576.5,-62"/>
<text text-anchor="middle" x="602.5" y="-69" font-family="Helvetica,sans-Serif" font-size="10.00">memory</text>
</g>
<!-- Node14&#45;&gt;Node16 -->
<g id="edge17" class="edge"><title>Node14&#45;&gt;Node16</title>
<path fill="none" stroke="midnightblue" d="M868.378,-179.806C764.772,-168.329 590.156,-148.277 585.5,-143 572.533,-128.301 581.625,-105.406 590.742,-89.7201"/>
<polygon fill="midnightblue" stroke="midnightblue" points="593.852,-91.3489 596.224,-81.023 587.931,-87.6159 593.852,-91.3489"/>
</g>
<!-- Node17 -->
<g id="node17" class="node"><title>Node17</title>
<polygon fill="none" stroke="#bfbfbf" points="595,-123.5 595,-142.5 720,-142.5 720,-123.5 595,-123.5"/>
<text text-anchor="middle" x="657.5" y="-130.5" font-family="Helvetica,sans-Serif" font-size="10.00">Framework/InitContext.h</text>
</g>
<!-- Node14&#45;&gt;Node17 -->
<g id="edge20" class="edge"><title>Node14&#45;&gt;Node17</title>
<path fill="none" stroke="midnightblue" d="M898.182,-179.444C847.872,-169.944 766.662,-154.611 712.687,-144.42"/>
<polygon fill="midnightblue" stroke="midnightblue" points="713.081,-140.933 702.606,-142.516 711.783,-147.811 713.081,-140.933"/>
</g>
<!-- Node18 -->
<g id="node18" class="node"><title>Node18</title>
<polygon fill="none" stroke="#bfbfbf" points="738.5,-123.5 738.5,-142.5 898.5,-142.5 898.5,-123.5 738.5,-123.5"/>
<text text-anchor="middle" x="818.5" y="-130.5" font-family="Helvetica,sans-Serif" font-size="10.00">Framework/ProcessingContext.h</text>
</g>
<!-- Node14&#45;&gt;Node18 -->
<g id="edge21" class="edge"><title>Node14&#45;&gt;Node18</title>
<path fill="none" stroke="midnightblue" d="M923.693,-179.444C903.213,-170.596 871.017,-156.687 847.635,-146.586"/>
<polygon fill="midnightblue" stroke="midnightblue" points="848.782,-143.269 838.214,-142.516 846.006,-149.695 848.782,-143.269"/>
</g>
<!-- Node19 -->
<g id="node19" class="node"><title>Node19</title>
<g id="a_node19"><a xlink:href="Activity_8h.html" target="_top" xlink:title="QualityControl/Activity.h">
<polygon fill="none" stroke="black" points="917,-123.5 917,-142.5 1040,-142.5 1040,-123.5 917,-123.5"/>
<text text-anchor="middle" x="978.5" y="-130.5" font-family="Helvetica,sans-Serif" font-size="10.00">QualityControl/Activity.h</text>
</a>
</g>
</g>
<!-- Node14&#45;&gt;Node19 -->
<g id="edge22" class="edge"><title>Node14&#45;&gt;Node19</title>
<path fill="none" stroke="midnightblue" d="M949.28,-179.083C954.172,-171.534 961.327,-160.495 967.333,-151.23"/>
<polygon fill="midnightblue" stroke="midnightblue" points="970.326,-153.046 972.828,-142.751 964.452,-149.239 970.326,-153.046"/>
</g>
<!-- Node20 -->
<g id="node20" class="node"><title>Node20</title>
<g id="a_node20"><a xlink:href="ObjectsManager_8h.html" target="_top" xlink:title="QualityControl/ObjectsManager.h">
<polygon fill="none" stroke="black" points="377,-123.5 377,-142.5 538,-142.5 538,-123.5 377,-123.5"/>
<text text-anchor="middle" x="457.5" y="-130.5" font-family="Helvetica,sans-Serif" font-size="10.00">QualityControl/ObjectsManager.h</text>
</a>
</g>
</g>
<!-- Node14&#45;&gt;Node20 -->
<g id="edge23" class="edge"><title>Node14&#45;&gt;Node20</title>
<path fill="none" stroke="midnightblue" d="M868.362,-179.651C780.917,-169.935 636.758,-153.918 544.524,-143.669"/>
<polygon fill="midnightblue" stroke="midnightblue" points="544.701,-140.168 534.375,-142.542 543.928,-147.125 544.701,-140.168"/>
</g>
<!-- Node20&#45;&gt;Node3 -->
<g id="edge34" class="edge"><title>Node20&#45;&gt;Node3</title>
<path fill="none" stroke="midnightblue" d="M445.393,-123.281C434.193,-114.831 417.511,-101.235 405.5,-87 390.161,-68.8212 376.61,-44.964 368.258,-28.8671"/>
<polygon fill="midnightblue" stroke="midnightblue" points="371.185,-26.8979 363.555,-19.5474 364.936,-30.0519 371.185,-26.8979"/>
</g>
<!-- Node20&#45;&gt;Node12 -->
<g id="edge33" class="edge"><title>Node20&#45;&gt;Node12</title>
<path fill="none" stroke="midnightblue" d="M512.804,-123.475C582.887,-112.672 703.512,-94.0784 778.091,-82.5825"/>
<polygon fill="midnightblue" stroke="midnightblue" points="778.948,-85.9918 788.298,-81.0091 777.882,-79.0735 778.948,-85.9918"/>
</g>
<!-- Node20&#45;&gt;Node16 -->
<g id="edge35" class="edge"><title>Node20&#45;&gt;Node16</title>
<path fill="none" stroke="midnightblue" d="M478.275,-123.475C502.932,-113.357 544.245,-96.4046 572.402,-84.8507"/>
<polygon fill="midnightblue" stroke="midnightblue" points="573.841,-88.0434 581.764,-81.0091 571.183,-81.5674 573.841,-88.0434"/>
</g>
<!-- Node21 -->
<g id="node21" class="node"><title>Node21</title>
<g id="a_node21"><a xlink:href="MonitorObject_8h.html" target="_top" xlink:title="QualityControl/MonitorObject.h">
<polygon fill="none" stroke="black" points="131,-62 131,-81 282,-81 282,-62 131,-62"/>
<text text-anchor="middle" x="206.5" y="-69" font-family="Helvetica,sans-Serif" font-size="10.00">QualityControl/MonitorObject.h</text>
</a>
</g>
</g>
<!-- Node20&#45;&gt;Node21 -->
<g id="edge24" class="edge"><title>Node20&#45;&gt;Node21</title>
<path fill="none" stroke="midnightblue" d="M421.538,-123.475C376.991,-112.915 301.041,-94.911 252.351,-83.3689"/>
<polygon fill="midnightblue" stroke="midnightblue" points="252.933,-79.9101 242.395,-81.0091 251.318,-86.7214 252.933,-79.9101"/>
</g>
<!-- Node25 -->
<g id="node25" class="node"><title>Node25</title>
<g id="a_node25"><a xlink:href="MonitorObjectCollection_8h.html" target="_top" xlink:title="QualityControl/MonitorObject\lCollection.h">
<polygon fill="none" stroke="black" points="415,-56.5 415,-86.5 558,-86.5 558,-56.5 415,-56.5"/>
<text text-anchor="start" x="423" y="-74.5" font-family="Helvetica,sans-Serif" font-size="10.00">QualityControl/MonitorObject</text>
<text text-anchor="middle" x="486.5" y="-63.5" font-family="Helvetica,sans-Serif" font-size="10.00">Collection.h</text>
</a>
</g>
</g>
<!-- Node20&#45;&gt;Node25 -->
<g id="edge30" class="edge"><title>Node20&#45;&gt;Node25</title>
<path fill="none" stroke="midnightblue" d="M461.655,-123.475C465.179,-116.245 470.404,-105.525 475.154,-95.7792"/>
<polygon fill="midnightblue" stroke="midnightblue" points="478.43,-97.0456 479.665,-86.523 472.138,-93.9787 478.43,-97.0456"/>
</g>
<!-- Node21&#45;&gt;Node3 -->
<g id="edge25" class="edge"><title>Node21&#45;&gt;Node3</title>
<path fill="none" stroke="midnightblue" d="M228.421,-61.9751C254.849,-51.6974 299.411,-34.3679 329.137,-22.8078"/>
<polygon fill="midnightblue" stroke="midnightblue" points="330.55,-26.0136 338.602,-19.1271 328.013,-19.4896 330.55,-26.0136"/>
</g>
<!-- Node21&#45;&gt;Node15 -->
<g id="edge26" class="edge"><title>Node21&#45;&gt;Node15</title>
<path fill="none" stroke="midnightblue" d="M178.642,-61.9971C148.154,-52.6521 97.6058,-37.0426 44.7451,-20.0337"/>
<polygon fill="midnightblue" stroke="midnightblue" points="45.7941,-16.6945 35.2025,-16.9559 43.6453,-23.3566 45.7941,-16.6945"/>
</g>
<!-- Node22 -->
<g id="node22" class="node"><title>Node22</title>
<polygon fill="none" stroke="#bfbfbf" points="187.5,-0.5 187.5,-19.5 243.5,-19.5 243.5,-0.5 187.5,-0.5"/>
<text text-anchor="middle" x="215.5" y="-7.5" font-family="Helvetica,sans-Serif" font-size="10.00">Rtypes.h</text>
</g>
<!-- Node21&#45;&gt;Node22 -->
<g id="edge27" class="edge"><title>Node21&#45;&gt;Node22</title>
<path fill="none" stroke="midnightblue" d="M207.789,-61.9751C209.059,-53.5803 211.041,-40.4806 212.677,-29.6631"/>
<polygon fill="midnightblue" stroke="midnightblue" points="216.178,-29.9201 214.213,-19.5091 209.257,-28.8731 216.178,-29.9201"/>
</g>
<!-- Node23 -->
<g id="node23" class="node"><title>Node23</title>
<polygon fill="none" stroke="#bfbfbf" points="262,-0.5 262,-19.5 321,-19.5 321,-0.5 262,-0.5"/>
<text text-anchor="middle" x="291.5" y="-7.5" font-family="Helvetica,sans-Serif" font-size="10.00">TObject.h</text>
</g>
<!-- Node21&#45;&gt;Node23 -->
<g id="edge28" class="edge"><title>Node21&#45;&gt;Node23</title>
<path fill="none" stroke="midnightblue" d="M218.678,-61.9751C232.312,-52.4315 254.632,-36.8073 270.974,-25.3683"/>
<polygon fill="midnightblue" stroke="midnightblue" points="273.159,-28.1111 279.344,-19.5091 269.145,-22.3764 273.159,-28.1111"/>
</g>
<!-- Node24 -->
<g id="node24" class="node"><title>Node24</title>
<polygon fill="none" stroke="#bfbfbf" points="53.5,-0.5 53.5,-19.5 169.5,-19.5 169.5,-0.5 53.5,-0.5"/>
<text text-anchor="middle" x="111.5" y="-7.5" font-family="Helvetica,sans-Serif" font-size="10.00">Common/Exceptions.h</text>
</g>
<!-- Node21&#45;&gt;Node24 -->
<g id="edge29" class="edge"><title>Node21&#45;&gt;Node24</title>
<path fill="none" stroke="midnightblue" d="M192.889,-61.9751C177.439,-52.2989 152.01,-36.3721 133.684,-24.8941"/>
<polygon fill="midnightblue" stroke="midnightblue" points="135.419,-21.8509 125.086,-19.5091 131.703,-27.7834 135.419,-21.8509"/>
</g>
<!-- Node26 -->
<g id="node26" class="node"><title>Node26</title>
<polygon fill="none" stroke="#bfbfbf" points="561,-0.5 561,-19.5 630,-19.5 630,-0.5 561,-0.5"/>
<text text-anchor="middle" x="595.5" y="-7.5" font-family="Helvetica,sans-Serif" font-size="10.00">TObjArray.h</text>
</g>
<!-- Node25&#45;&gt;Node26 -->
<g id="edge31" class="edge"><title>Node25&#45;&gt;Node26</title>
<path fill="none" stroke="midnightblue" d="M512.331,-56.3993C529.967,-46.7728 553.2,-34.0902 570.628,-24.5772"/>
<polygon fill="midnightblue" stroke="midnightblue" points="572.539,-27.5213 579.64,-19.6578 569.185,-21.3771 572.539,-27.5213"/>
</g>
<!-- Node27 -->
<g id="node27" class="node"><title>Node27</title>
<polygon fill="none" stroke="#bfbfbf" points="414.5,-0.5 414.5,-19.5 542.5,-19.5 542.5,-0.5 414.5,-0.5"/>
<text text-anchor="middle" x="478.5" y="-7.5" font-family="Helvetica,sans-Serif" font-size="10.00">Mergers/MergeInterface.h</text>
</g>
<!-- Node25&#45;&gt;Node27 -->
<g id="edge32" class="edge"><title>Node25&#45;&gt;Node27</title>
<path fill="none" stroke="midnightblue" d="M484.604,-56.3993C483.526,-48.3772 482.162,-38.2328 480.997,-29.569"/>
<polygon fill="midnightblue" stroke="midnightblue" points="484.465,-29.1022 479.664,-19.6578 477.528,-30.035 484.465,-29.1022"/>
</g>
</g>
</svg>
        <g id="navigator" transform="translate(0 0)" fill="#404254">
                <rect fill="#f2f5e9" fill-opacity="0.5" stroke="#606060" stroke-width=".5" x="0" y="0" width="60" height="60"/>
                <use id="zoomplus" xlink:href="#zoomPlus" x="17" y="9" onmousedown="handleZoom(evt,'in')"/>
                <use id="zoomminus" xlink:href="#zoomMin" x="42" y="9" onmousedown="handleZoom(evt,'out')"/>
                <use id="reset" xlink:href="#resetDef" x="30" y="36" onmousedown="handleReset()"/>
                <g id="arrowUp" xlink:href="#dirArrow" transform="translate(30 24)" onmousedown="handlePan(0,-1)">
                  <use xlink:href="#rim" fill="#404040">
                        <set attributeName="fill" to="#808080" begin="arrowUp.mouseover" end="arrowUp.mouseout"/>
                  </use>
                  <path fill="none" stroke="white" stroke-width="1.5" d="M0,-3.0v7 M-2.5,-0.5L0,-3.0L2.5,-0.5"/>
                </g>
                <g id="arrowRight" xlink:href="#dirArrow" transform="rotate(90) translate(36 -43)" onmousedown="handlePan(1,0)">
                  <use xlink:href="#rim" fill="#404040">
                        <set attributeName="fill" to="#808080" begin="arrowRight.mouseover" end="arrowRight.mouseout"/>
                  </use>
                  <path fill="none" stroke="white" stroke-width="1.5" d="M0,-3.0v7 M-2.5,-0.5L0,-3.0L2.5,-0.5"/>
                </g>
                <g id="arrowDown" xlink:href="#dirArrow" transform="rotate(180) translate(-30 -48)" onmousedown="handlePan(0,1)">
                  <use xlink:href="#rim" fill="#404040">
                        <set attributeName="fill" to="#808080" begin="arrowDown.mouseover" end="arrowDown.mouseout"/>
                  </use>
                  <path fill="none" stroke="white" stroke-width="1.5" d="M0,-3.0v7 M-2.5,-0.5L0,-3.0L2.5,-0.5"/>
                </g>
                <g id="arrowLeft" xlink:href="#dirArrow" transform="rotate(270) translate(-36 17)" onmousedown="handlePan(-1,0)">
                  <use xlink:href="#rim" fill="#404040">
                        <set attributeName="fill" to="#808080" begin="arrowLeft.mouseover" end="arrowLeft.mouseout"/>
                  </use>
                  <path fill="none" stroke="white" stroke-width="1.5" d="M0,-3.0v7 M-2.5,-0.5L0,-3.0L2.5,-0.5"/>
                </g>
        </g>
        <svg viewBox="0 0 15 15" width="100%" height="30px" preserveAspectRatio="xMaxYMin meet">
         <g id="arrow_out" transform="scale(0.3 0.3)">
          <a xlink:href="TaskRunnerFactory_8cxx__incl_org.svg" target="_base">
           <rect id="button" ry="5" rx="5" y="6" x="6" height="38" width="38"
                fill="#f2f5e9" fill-opacity="0.5" stroke="#606060" stroke-width="1.0"/>
           <path id="arrow"
             d="M 11.500037,31.436501 C 11.940474,20.09759 22.043105,11.32322 32.158766,21.979434 L 37.068811,17.246167 C 37.068811,17.246167 37.088388,32 37.088388,32 L 22.160133,31.978069 C 22.160133,31.978069 26.997745,27.140456 26.997745,27.140456 C 18.528582,18.264221 13.291696,25.230495 11.500037,31.436501 z"
             style="fill:#404040;"/>
          </a>
         </g>
        </svg>
</svg>
