<?xml version="1.0" encoding="UTF-8" standalone="no"?>
<!DOCTYPE svg PUBLIC "-//W3C//DTD SVG 1.1//EN"
 "http://www.w3.org/Graphics/SVG/1.1/DTD/svg11.dtd">
<!-- Generated by graphviz version 2.38.0 (20140413.2041)
 -->
<!-- Title: Modules/TOF/src/TaskDiagnostics.cxx Pages: 1 -->
<svg width="1497pt" height="330pt"
 viewBox="0.00 0.00 1496.50 330.00" xmlns="http://www.w3.org/2000/svg" xmlns:xlink="http://www.w3.org/1999/xlink">
<g id="graph0" class="graph" transform="scale(1 1) rotate(0) translate(4 326)">
<title>Modules/TOF/src/TaskDiagnostics.cxx</title>
<!-- Node1 -->
<g id="node1" class="node"><title>Node1</title>
<polygon fill="#bfbfbf" stroke="black" points="112,-302.5 112,-321.5 300,-321.5 300,-302.5 112,-302.5"/>
<text text-anchor="middle" x="206" y="-309.5" font-family="Helvetica,sans-Serif" font-size="10.00">Modules/TOF/src/TaskDiagnostics.cxx</text>
</g>
<!-- Node2 -->
<g id="node2" class="node"><title>Node2</title>
<polygon fill="none" stroke="#bfbfbf" points="16,-246.5 16,-265.5 66,-265.5 66,-246.5 16,-246.5"/>
<text text-anchor="middle" x="41" y="-253.5" font-family="Helvetica,sans-Serif" font-size="10.00">TH1F.h</text>
</g>
<!-- Node1&#45;&gt;Node2 -->
<g id="edge1" class="edge"><title>Node1&#45;&gt;Node2</title>
<path fill="none" stroke="midnightblue" d="M179.855,-302.444C151.731,-293.239 106.868,-278.557 75.7812,-268.383"/>
<polygon fill="midnightblue" stroke="midnightblue" points="76.8034,-265.035 66.2108,-265.251 74.6261,-271.688 76.8034,-265.035"/>
</g>
<!-- Node3 -->
<g id="node3" class="node"><title>Node3</title>
<polygon fill="none" stroke="#bfbfbf" points="84,-246.5 84,-265.5 134,-265.5 134,-246.5 84,-246.5"/>
<text text-anchor="middle" x="109" y="-253.5" font-family="Helvetica,sans-Serif" font-size="10.00">TH2F.h</text>
</g>
<!-- Node1&#45;&gt;Node3 -->
<g id="edge2" class="edge"><title>Node1&#45;&gt;Node3</title>
<path fill="none" stroke="midnightblue" d="M190.415,-302.324C175.001,-293.743 151.188,-280.486 133.29,-270.522"/>
<polygon fill="midnightblue" stroke="midnightblue" points="134.986,-267.461 124.546,-265.655 131.581,-273.577 134.986,-267.461"/>
</g>
<!-- Node4 -->
<g id="node4" class="node"><title>Node4</title>
<polygon fill="none" stroke="#bfbfbf" points="0,-123.5 0,-153.5 152,-153.5 152,-123.5 0,-123.5"/>
<text text-anchor="start" x="8" y="-141.5" font-family="Helvetica,sans-Serif" font-size="10.00">DataFormatsTOF/Compressed</text>
<text text-anchor="middle" x="76" y="-130.5" font-family="Helvetica,sans-Serif" font-size="10.00">DataFormat.h</text>
</g>
<!-- Node1&#45;&gt;Node4 -->
<g id="edge3" class="edge"><title>Node1&#45;&gt;Node4</title>
<path fill="none" stroke="midnightblue" d="M199.375,-302.26C179.879,-276.54 122.26,-200.528 93.1883,-162.175"/>
<polygon fill="midnightblue" stroke="midnightblue" points="95.6112,-159.578 86.7811,-153.723 90.0327,-163.806 95.6112,-159.578"/>
</g>
<!-- Node5 -->
<g id="node5" class="node"><title>Node5</title>
<polygon fill="none" stroke="#bfbfbf" points="368,-246.5 368,-265.5 502,-265.5 502,-246.5 368,-246.5"/>
<text text-anchor="middle" x="435" y="-253.5" font-family="Helvetica,sans-Serif" font-size="10.00">Framework/DataRefUtils.h</text>
</g>
<!-- Node1&#45;&gt;Node5 -->
<g id="edge4" class="edge"><title>Node1&#45;&gt;Node5</title>
<path fill="none" stroke="midnightblue" d="M242.286,-302.444C281.983,-293.083 345.707,-278.056 388.912,-267.868"/>
<polygon fill="midnightblue" stroke="midnightblue" points="389.954,-271.218 398.884,-265.516 388.348,-264.405 389.954,-271.218"/>
</g>
<!-- Node6 -->
<g id="node6" class="node"><title>Node6</title>
<g id="a_node6"><a xlink:href="QcInfoLogger_8h.html" target="_top" xlink:title="QualityControl/QcInfoLogger.h">
<polygon fill="none" stroke="black" points="234.5,-62 234.5,-81 383.5,-81 383.5,-62 234.5,-62"/>
<text text-anchor="middle" x="309" y="-69" font-family="Helvetica,sans-Serif" font-size="10.00">QualityControl/QcInfoLogger.h</text>
</a>
</g>
</g>
<!-- Node1&#45;&gt;Node6 -->
<g id="edge5" class="edge"><title>Node1&#45;&gt;Node6</title>
<path fill="none" stroke="midnightblue" d="M263.779,-302.445C285.44,-296.122 307.947,-285.125 321,-266 358.13,-211.6 331.485,-127.305 316.868,-90.6036"/>
<polygon fill="midnightblue" stroke="midnightblue" points="320.031,-89.0941 312.964,-81.2007 313.566,-91.7784 320.031,-89.0941"/>
</g>
<!-- Node8 -->
<g id="node8" class="node"><title>Node8</title>
<g id="a_node8"><a xlink:href="TaskDiagnostics_8h.html" target="_top" xlink:title="TOF/TaskDiagnostics.h">
<polygon fill="none" stroke="black" points="190.5,-246.5 190.5,-265.5 311.5,-265.5 311.5,-246.5 190.5,-246.5"/>
<text text-anchor="middle" x="251" y="-253.5" font-family="Helvetica,sans-Serif" font-size="10.00">TOF/TaskDiagnostics.h</text>
</a>
</g>
</g>
<!-- Node1&#45;&gt;Node8 -->
<g id="edge7" class="edge"><title>Node1&#45;&gt;Node8</title>
<path fill="none" stroke="midnightblue" d="M213.431,-302.083C219.853,-294.377 229.306,-283.033 237.122,-273.653"/>
<polygon fill="midnightblue" stroke="midnightblue" points="239.994,-275.674 243.707,-265.751 234.617,-271.193 239.994,-275.674"/>
</g>
<!-- Node7 -->
<g id="node7" class="node"><title>Node7</title>
<polygon fill="none" stroke="#bfbfbf" points="244,-0.5 244,-19.5 374,-19.5 374,-0.5 244,-0.5"/>
<text text-anchor="middle" x="309" y="-7.5" font-family="Helvetica,sans-Serif" font-size="10.00">InfoLogger/InfoLogger.hxx</text>
</g>
<!-- Node6&#45;&gt;Node7 -->
<g id="edge6" class="edge"><title>Node6&#45;&gt;Node7</title>
<path fill="none" stroke="midnightblue" d="M309,-61.9751C309,-53.5803 309,-40.4806 309,-29.6631"/>
<polygon fill="midnightblue" stroke="midnightblue" points="312.5,-29.5091 309,-19.5091 305.5,-29.5091 312.5,-29.5091"/>
</g>
<!-- Node9 -->
<g id="node9" class="node"><title>Node9</title>
<g id="a_node9"><a xlink:href="TaskInterface_8h.html" target="_top" xlink:title="QualityControl/TaskInterface.h">
<polygon fill="none" stroke="black" points="823,-190.5 823,-209.5 973,-209.5 973,-190.5 823,-190.5"/>
<text text-anchor="middle" x="898" y="-197.5" font-family="Helvetica,sans-Serif" font-size="10.00">QualityControl/TaskInterface.h</text>
</a>
</g>
</g>
<!-- Node8&#45;&gt;Node9 -->
<g id="edge8" class="edge"><title>Node8&#45;&gt;Node9</title>
<path fill="none" stroke="midnightblue" d="M311.577,-249.944C427.308,-240.285 680.103,-219.186 812.8,-208.111"/>
<polygon fill="midnightblue" stroke="midnightblue" points="813.248,-211.586 822.922,-207.266 812.666,-204.61 813.248,-211.586"/>
</g>
<!-- Node26 -->
<g id="node26" class="node"><title>Node26</title>
<g id="a_node26"><a xlink:href="Diagnostics_8h.html" target="_top" xlink:title="TOF/Diagnostics.h">
<polygon fill="none" stroke="black" points="196.5,-190.5 196.5,-209.5 295.5,-209.5 295.5,-190.5 196.5,-190.5"/>
<text text-anchor="middle" x="246" y="-197.5" font-family="Helvetica,sans-Serif" font-size="10.00">TOF/Diagnostics.h</text>
</a>
</g>
</g>
<!-- Node8&#45;&gt;Node26 -->
<g id="edge31" class="edge"><title>Node8&#45;&gt;Node26</title>
<path fill="none" stroke="midnightblue" d="M250.174,-246.083C249.519,-239.006 248.58,-228.861 247.758,-219.986"/>
<polygon fill="midnightblue" stroke="midnightblue" points="251.217,-219.386 246.81,-209.751 244.247,-220.031 251.217,-219.386"/>
</g>
<!-- Node10 -->
<g id="node10" class="node"><title>Node10</title>
<polygon fill="none" stroke="#bfbfbf" points="502.5,-0.5 502.5,-19.5 537.5,-19.5 537.5,-0.5 502.5,-0.5"/>
<text text-anchor="middle" x="520" y="-7.5" font-family="Helvetica,sans-Serif" font-size="10.00">map</text>
</g>
<!-- Node9&#45;&gt;Node10 -->
<g id="edge9" class="edge"><title>Node9&#45;&gt;Node10</title>
<path fill="none" stroke="midnightblue" d="M844.171,-190.44C751.576,-174.512 568.365,-137.319 530,-87 517.544,-70.6624 516.474,-46.3921 517.588,-29.6973"/>
<polygon fill="midnightblue" stroke="midnightblue" points="521.091,-29.8368 518.594,-19.5403 514.125,-29.1463 521.091,-29.8368"/>
</g>
<!-- Node11 -->
<g id="node11" class="node"><title>Node11</title>
<polygon fill="none" stroke="#bfbfbf" points="539,-62 539,-81 591,-81 591,-62 539,-62"/>
<text text-anchor="middle" x="565" y="-69" font-family="Helvetica,sans-Serif" font-size="10.00">memory</text>
</g>
<!-- Node9&#45;&gt;Node11 -->
<g id="edge10" class="edge"><title>Node9&#45;&gt;Node11</title>
<path fill="none" stroke="midnightblue" d="M874.377,-190.491C849.581,-181.528 809.486,-166.947 775,-154 697.419,-124.874 678.103,-117.37 601,-87 599.362,-86.3549 597.684,-85.6904 595.99,-85.0173"/>
<polygon fill="midnightblue" stroke="midnightblue" points="596.883,-81.6051 586.299,-81.1415 594.284,-88.1046 596.883,-81.6051"/>
</g>
<!-- Node12 -->
<g id="node12" class="node"><title>Node12</title>
<polygon fill="none" stroke="#bfbfbf" points="787.5,-0.5 787.5,-19.5 828.5,-19.5 828.5,-0.5 787.5,-0.5"/>
<text text-anchor="middle" x="808" y="-7.5" font-family="Helvetica,sans-Serif" font-size="10.00">string</text>
</g>
<!-- Node9&#45;&gt;Node12 -->
<g id="edge11" class="edge"><title>Node9&#45;&gt;Node12</title>
<path fill="none" stroke="midnightblue" d="M861.803,-190.474C842.578,-183.911 820.584,-172.69 809,-154 784.984,-115.25 794.906,-58.5165 802.436,-29.5347"/>
<polygon fill="midnightblue" stroke="midnightblue" points="805.901,-30.1405 805.223,-19.5674 799.159,-28.2554 805.901,-30.1405"/>
</g>
<!-- Node13 -->
<g id="node13" class="node"><title>Node13</title>
<polygon fill="none" stroke="#bfbfbf" points="909.5,-0.5 909.5,-19.5 992.5,-19.5 992.5,-0.5 909.5,-0.5"/>
<text text-anchor="middle" x="951" y="-7.5" font-family="Helvetica,sans-Serif" font-size="10.00">unordered_map</text>
</g>
<!-- Node9&#45;&gt;Node13 -->
<g id="edge12" class="edge"><title>Node9&#45;&gt;Node13</title>
<path fill="none" stroke="midnightblue" d="M930.363,-190.422C949.83,-183.635 973.558,-172.2 988,-154 1015.43,-119.43 1022.53,-96.0514 1004,-56 998.08,-43.2072 986.532,-32.7216 975.722,-25.1003"/>
<polygon fill="midnightblue" stroke="midnightblue" points="977.618,-22.1581 967.334,-19.613 973.786,-28.0161 977.618,-22.1581"/>
</g>
<!-- Node14 -->
<g id="node14" class="node"><title>Node14</title>
<polygon fill="none" stroke="#bfbfbf" points="1043.5,-129 1043.5,-148 1168.5,-148 1168.5,-129 1043.5,-129"/>
<text text-anchor="middle" x="1106" y="-136" font-family="Helvetica,sans-Serif" font-size="10.00">Framework/InitContext.h</text>
</g>
<!-- Node9&#45;&gt;Node14 -->
<g id="edge13" class="edge"><title>Node9&#45;&gt;Node14</title>
<path fill="none" stroke="midnightblue" d="M927.801,-190.475C964.253,-180.048 1026.08,-162.362 1066.47,-150.807"/>
<polygon fill="midnightblue" stroke="midnightblue" points="1067.6,-154.124 1076.25,-148.009 1065.68,-147.394 1067.6,-154.124"/>
</g>
<!-- Node15 -->
<g id="node15" class="node"><title>Node15</title>
<polygon fill="none" stroke="#bfbfbf" points="1187,-129 1187,-148 1347,-148 1347,-129 1187,-129"/>
<text text-anchor="middle" x="1267" y="-136" font-family="Helvetica,sans-Serif" font-size="10.00">Framework/ProcessingContext.h</text>
</g>
<!-- Node9&#45;&gt;Node15 -->
<g id="edge14" class="edge"><title>Node9&#45;&gt;Node15</title>
<path fill="none" stroke="midnightblue" d="M951.162,-190.491C1007.49,-181.467 1099.02,-166.78 1178,-154 1186.65,-152.601 1195.76,-151.121 1204.73,-149.662"/>
<polygon fill="midnightblue" stroke="midnightblue" points="1205.46,-153.09 1214.77,-148.029 1204.33,-146.181 1205.46,-153.09"/>
</g>
<!-- Node16 -->
<g id="node16" class="node"><title>Node16</title>
<g id="a_node16"><a xlink:href="Activity_8h.html" target="_top" xlink:title="QualityControl/Activity.h">
<polygon fill="none" stroke="black" points="1365.5,-129 1365.5,-148 1488.5,-148 1488.5,-129 1365.5,-129"/>
<text text-anchor="middle" x="1427" y="-136" font-family="Helvetica,sans-Serif" font-size="10.00">QualityControl/Activity.h</text>
</a>
</g>
</g>
<!-- Node9&#45;&gt;Node16 -->
<g id="edge15" class="edge"><title>Node9&#45;&gt;Node16</title>
<path fill="none" stroke="midnightblue" d="M973.265,-194.006C1064.26,-187.415 1221.89,-174.227 1356,-154 1363.44,-152.878 1371.28,-151.489 1378.92,-150.019"/>
<polygon fill="midnightblue" stroke="midnightblue" points="1379.68,-153.436 1388.81,-148.056 1378.32,-146.571 1379.68,-153.436"/>
</g>
<!-- Node17 -->
<g id="node17" class="node"><title>Node17</title>
<g id="a_node17"><a xlink:href="ObjectsManager_8h.html" target="_top" xlink:title="QualityControl/ObjectsManager.h">
<polygon fill="none" stroke="black" points="817.5,-129 817.5,-148 978.5,-148 978.5,-129 817.5,-129"/>
<text text-anchor="middle" x="898" y="-136" font-family="Helvetica,sans-Serif" font-size="10.00">QualityControl/ObjectsManager.h</text>
</a>
</g>
</g>
<!-- Node9&#45;&gt;Node17 -->
<g id="edge16" class="edge"><title>Node9&#45;&gt;Node17</title>
<path fill="none" stroke="midnightblue" d="M898,-190.475C898,-182.08 898,-168.981 898,-158.163"/>
<polygon fill="midnightblue" stroke="midnightblue" points="901.5,-158.009 898,-148.009 894.5,-158.009 901.5,-158.009"/>
</g>
<!-- Node17&#45;&gt;Node11 -->
<g id="edge30" class="edge"><title>Node17&#45;&gt;Node11</title>
<path fill="none" stroke="midnightblue" d="M820.694,-128.973C760.156,-121.194 674.227,-107.713 601,-87 598.561,-86.31 596.061,-85.5096 593.57,-84.6461"/>
<polygon fill="midnightblue" stroke="midnightblue" points="594.757,-81.353 584.165,-81.1038 592.29,-87.9038 594.757,-81.353"/>
</g>
<!-- Node17&#45;&gt;Node12 -->
<g id="edge29" class="edge"><title>Node17&#45;&gt;Node12</title>
<path fill="none" stroke="midnightblue" d="M886.986,-128.728C875.666,-119.304 858.041,-103.451 846,-87 832.691,-68.8168 821.735,-45.2747 815.063,-29.2424"/>
<polygon fill="midnightblue" stroke="midnightblue" points="818.126,-27.477 811.152,-19.5012 811.63,-30.0852 818.126,-27.477"/>
</g>
<!-- Node18 -->
<g id="node18" class="node"><title>Node18</title>
<g id="a_node18"><a xlink:href="MonitorObject_8h.html" target="_top" xlink:title="QualityControl/MonitorObject.h">
<polygon fill="none" stroke="black" points="609.5,-62 609.5,-81 760.5,-81 760.5,-62 609.5,-62"/>
<text text-anchor="middle" x="685" y="-69" font-family="Helvetica,sans-Serif" font-size="10.00">QualityControl/MonitorObject.h</text>
</a>
</g>
</g>
<!-- Node17&#45;&gt;Node18 -->
<g id="edge17" class="edge"><title>Node17&#45;&gt;Node18</title>
<path fill="none" stroke="midnightblue" d="M869.715,-128.869C831.895,-117.327 764.745,-96.8354 722.67,-83.9956"/>
<polygon fill="midnightblue" stroke="midnightblue" points="723.649,-80.6349 713.062,-81.0637 721.605,-87.3301 723.649,-80.6349"/>
</g>
<!-- Node22 -->
<g id="node22" class="node"><title>Node22</title>
<g id="a_node22"><a xlink:href="MonitorObjectCollection_8h.html" target="_top" xlink:title="QualityControl/MonitorObject\lCollection.h">
<polygon fill="none" stroke="black" points="1051.5,-56.5 1051.5,-86.5 1194.5,-86.5 1194.5,-56.5 1051.5,-56.5"/>
<text text-anchor="start" x="1059.5" y="-74.5" font-family="Helvetica,sans-Serif" font-size="10.00">QualityControl/MonitorObject</text>
<text text-anchor="middle" x="1123" y="-63.5" font-family="Helvetica,sans-Serif" font-size="10.00">Collection.h</text>
</a>
</g>
</g>
<!-- Node17&#45;&gt;Node22 -->
<g id="edge23" class="edge"><title>Node17&#45;&gt;Node22</title>
<path fill="none" stroke="midnightblue" d="M927.878,-128.869C962.663,-118.819 1020.94,-101.985 1064.76,-89.3243"/>
<polygon fill="midnightblue" stroke="midnightblue" points="1065.81,-92.666 1074.44,-86.5281 1063.86,-85.941 1065.81,-92.666"/>
</g>
<!-- Node25 -->
<g id="node25" class="node"><title>Node25</title>
<g id="a_node25"><a xlink:href="TaskConfig_8h.html" target="_top" xlink:title="QualityControl/TaskConfig.h">
<polygon fill="none" stroke="black" points="855,-62 855,-81 995,-81 995,-62 855,-62"/>
<text text-anchor="middle" x="925" y="-69" font-family="Helvetica,sans-Serif" font-size="10.00">QualityControl/TaskConfig.h</text>
</a>
</g>
</g>
<!-- Node17&#45;&gt;Node25 -->
<g id="edge26" class="edge"><title>Node17&#45;&gt;Node25</title>
<path fill="none" stroke="midnightblue" d="M901.641,-128.734C905.69,-118.988 912.339,-102.981 917.51,-90.5318"/>
<polygon fill="midnightblue" stroke="midnightblue" points="920.812,-91.7049 921.416,-81.1273 914.348,-89.0196 920.812,-91.7049"/>
</g>
<!-- Node18&#45;&gt;Node10 -->
<g id="edge19" class="edge"><title>Node18&#45;&gt;Node10</title>
<path fill="none" stroke="midnightblue" d="M661.36,-61.9751C631.126,-51.0729 578.888,-32.2355 547.085,-20.767"/>
<polygon fill="midnightblue" stroke="midnightblue" points="548.125,-17.4216 537.531,-17.3218 545.751,-24.0065 548.125,-17.4216"/>
</g>
<!-- Node18&#45;&gt;Node12 -->
<g id="edge18" class="edge"><title>Node18&#45;&gt;Node12</title>
<path fill="none" stroke="midnightblue" d="M702.623,-61.9751C723.174,-52.0338 757.364,-35.4947 781.207,-23.961"/>
<polygon fill="midnightblue" stroke="midnightblue" points="782.932,-27.0145 790.41,-19.5091 779.884,-20.7131 782.932,-27.0145"/>
</g>
<!-- Node19 -->
<g id="node19" class="node"><title>Node19</title>
<polygon fill="none" stroke="#bfbfbf" points="566,-0.5 566,-19.5 622,-19.5 622,-0.5 566,-0.5"/>
<text text-anchor="middle" x="594" y="-7.5" font-family="Helvetica,sans-Serif" font-size="10.00">Rtypes.h</text>
</g>
<!-- Node18&#45;&gt;Node19 -->
<g id="edge20" class="edge"><title>Node18&#45;&gt;Node19</title>
<path fill="none" stroke="midnightblue" d="M671.962,-61.9751C657.231,-52.3431 633.027,-36.5175 615.491,-25.0517"/>
<polygon fill="midnightblue" stroke="midnightblue" points="617.299,-22.0522 607.014,-19.5091 613.468,-27.911 617.299,-22.0522"/>
</g>
<!-- Node20 -->
<g id="node20" class="node"><title>Node20</title>
<polygon fill="none" stroke="#bfbfbf" points="413.5,-0.5 413.5,-19.5 472.5,-19.5 472.5,-0.5 413.5,-0.5"/>
<text text-anchor="middle" x="443" y="-7.5" font-family="Helvetica,sans-Serif" font-size="10.00">TObject.h</text>
</g>
<!-- Node18&#45;&gt;Node20 -->
<g id="edge21" class="edge"><title>Node18&#45;&gt;Node20</title>
<path fill="none" stroke="midnightblue" d="M650.327,-61.9751C605.885,-51.0482 529.023,-32.1503 482.408,-20.6893"/>
<polygon fill="midnightblue" stroke="midnightblue" points="483.207,-17.2815 472.661,-18.2926 481.536,-24.079 483.207,-17.2815"/>
</g>
<!-- Node21 -->
<g id="node21" class="node"><title>Node21</title>
<polygon fill="none" stroke="#bfbfbf" points="640,-0.5 640,-19.5 756,-19.5 756,-0.5 640,-0.5"/>
<text text-anchor="middle" x="698" y="-7.5" font-family="Helvetica,sans-Serif" font-size="10.00">Common/Exceptions.h</text>
</g>
<!-- Node18&#45;&gt;Node21 -->
<g id="edge22" class="edge"><title>Node18&#45;&gt;Node21</title>
<path fill="none" stroke="midnightblue" d="M686.863,-61.9751C688.716,-53.4919 691.619,-40.2043 693.997,-29.3222"/>
<polygon fill="midnightblue" stroke="midnightblue" points="697.426,-30.0257 696.141,-19.5091 690.587,-28.5315 697.426,-30.0257"/>
</g>
<!-- Node23 -->
<g id="node23" class="node"><title>Node23</title>
<polygon fill="none" stroke="#bfbfbf" points="1062.5,-0.5 1062.5,-19.5 1131.5,-19.5 1131.5,-0.5 1062.5,-0.5"/>
<text text-anchor="middle" x="1097" y="-7.5" font-family="Helvetica,sans-Serif" font-size="10.00">TObjArray.h</text>
</g>
<!-- Node22&#45;&gt;Node23 -->
<g id="edge24" class="edge"><title>Node22&#45;&gt;Node23</title>
<path fill="none" stroke="midnightblue" d="M1116.84,-56.3993C1113.26,-48.1989 1108.7,-37.7809 1104.86,-28.9936"/>
<polygon fill="midnightblue" stroke="midnightblue" points="1107.99,-27.4197 1100.78,-19.6578 1101.58,-30.2226 1107.99,-27.4197"/>
</g>
<!-- Node24 -->
<g id="node24" class="node"><title>Node24</title>
<polygon fill="none" stroke="#bfbfbf" points="1150,-0.5 1150,-19.5 1278,-19.5 1278,-0.5 1150,-0.5"/>
<text text-anchor="middle" x="1214" y="-7.5" font-family="Helvetica,sans-Serif" font-size="10.00">Mergers/MergeInterface.h</text>
</g>
<!-- Node22&#45;&gt;Node24 -->
<g id="edge25" class="edge"><title>Node22&#45;&gt;Node24</title>
<path fill="none" stroke="midnightblue" d="M1144.57,-56.3993C1158.88,-47.0402 1177.61,-34.7924 1192.01,-25.3771"/>
<polygon fill="midnightblue" stroke="midnightblue" points="1194.3,-28.0597 1200.76,-19.6578 1190.47,-22.2009 1194.3,-28.0597"/>
</g>
<!-- Node25&#45;&gt;Node12 -->
<g id="edge27" class="edge"><title>Node25&#45;&gt;Node12</title>
<path fill="none" stroke="midnightblue" d="M908.237,-61.9751C888.775,-52.078 856.455,-35.6416 833.789,-24.1151"/>
<polygon fill="midnightblue" stroke="midnightblue" points="835.232,-20.9224 824.732,-19.5091 832.059,-27.1619 835.232,-20.9224"/>
</g>
<!-- Node25&#45;&gt;Node13 -->
<g id="edge28" class="edge"><title>Node25&#45;&gt;Node13</title>
<path fill="none" stroke="midnightblue" d="M928.725,-61.9751C932.471,-53.4035 938.36,-39.9269 943.142,-28.983"/>
<polygon fill="midnightblue" stroke="midnightblue" points="946.485,-30.0739 947.282,-19.5091 940.07,-27.271 946.485,-30.0739"/>
</g>
<!-- Node26&#45;&gt;Node4 -->
<g id="edge33" class="edge"><title>Node26&#45;&gt;Node4</title>
<path fill="none" stroke="midnightblue" d="M221.643,-190.475C196.682,-181.739 157.164,-167.907 125.586,-156.855"/>
<polygon fill="midnightblue" stroke="midnightblue" points="126.66,-153.523 116.066,-153.523 124.348,-160.13 126.66,-153.523"/>
</g>
<!-- Node27 -->
<g id="node27" class="node"><title>Node27</title>
<polygon fill="none" stroke="#bfbfbf" points="170,-123.5 170,-153.5 312,-153.5 312,-123.5 170,-123.5"/>
<text text-anchor="start" x="178" y="-141.5" font-family="Helvetica,sans-Serif" font-size="10.00">TOFReconstruction/Decoder</text>
<text text-anchor="middle" x="241" y="-130.5" font-family="Helvetica,sans-Serif" font-size="10.00">Base.h</text>
</g>
<!-- Node26&#45;&gt;Node27 -->
<g id="edge32" class="edge"><title>Node26&#45;&gt;Node27</title>
<path fill="none" stroke="midnightblue" d="M245.284,-190.475C244.695,-183.471 243.831,-173.192 243.033,-163.696"/>
<polygon fill="midnightblue" stroke="midnightblue" points="246.504,-163.195 242.178,-153.523 239.528,-163.781 246.504,-163.195"/>
</g>
<!-- Node28 -->
<g id="node28" class="node"><title>Node28</title>
<g id="a_node28"><a xlink:href="Counter_8h.html" target="_top" xlink:title="Base/Counter.h">
<polygon fill="none" stroke="black" points="368.5,-129 368.5,-148 453.5,-148 453.5,-129 368.5,-129"/>
<text text-anchor="middle" x="411" y="-136" font-family="Helvetica,sans-Serif" font-size="10.00">Base/Counter.h</text>
</a>
</g>
</g>
<!-- Node26&#45;&gt;Node28 -->
<g id="edge34" class="edge"><title>Node26&#45;&gt;Node28</title>
<path fill="none" stroke="midnightblue" d="M269.64,-190.475C297.944,-180.269 345.533,-163.108 377.586,-151.549"/>
<polygon fill="midnightblue" stroke="midnightblue" points="379.184,-154.694 387.403,-148.009 376.809,-148.109 379.184,-154.694"/>
</g>
<!-- Node28&#45;&gt;Node6 -->
<g id="edge37" class="edge"><title>Node28&#45;&gt;Node6</title>
<path fill="none" stroke="midnightblue" d="M397.244,-128.734C380.268,-117.916 351.186,-99.3832 331.073,-86.5659"/>
<polygon fill="midnightblue" stroke="midnightblue" points="332.852,-83.5498 322.538,-81.1273 329.09,-89.4531 332.852,-83.5498"/>
</g>
<!-- Node28&#45;&gt;Node20 -->
<g id="edge35" class="edge"><title>Node28&#45;&gt;Node20</title>
<path fill="none" stroke="midnightblue" d="M412.85,-128.898C416.091,-113.994 423.107,-82.4298 430,-56 432.312,-47.1366 435.106,-37.361 437.511,-29.1918"/>
<polygon fill="midnightblue" stroke="midnightblue" points="440.87,-30.1732 440.374,-19.59 434.162,-28.1728 440.87,-30.1732"/>
</g>
<!-- Node29 -->
<g id="node29" class="node"><title>Node29</title>
<polygon fill="none" stroke="#bfbfbf" points="439,-62 439,-81 483,-81 483,-62 439,-62"/>
<text text-anchor="middle" x="461" y="-69" font-family="Helvetica,sans-Serif" font-size="10.00">TH1.h</text>
</g>
<!-- Node28&#45;&gt;Node29 -->
<g id="edge36" class="edge"><title>Node28&#45;&gt;Node29</title>
<path fill="none" stroke="midnightblue" d="M417.743,-128.734C425.54,-118.598 438.546,-101.69 448.265,-89.0556"/>
<polygon fill="midnightblue" stroke="midnightblue" points="451.041,-91.1876 454.364,-81.1273 445.492,-86.9196 451.041,-91.1876"/>
</g>
</g>
</svg>
