<?xml version="1.0" encoding="UTF-8" standalone="no"?>
<!DOCTYPE svg PUBLIC "-//W3C//DTD SVG 1.1//EN"
 "http://www.w3.org/Graphics/SVG/1.1/DTD/svg11.dtd">
<!-- Generated by graphviz version 2.38.0 (20140413.2041)
 -->
<!-- Title: Modules/TOF/include/TOF/TaskDiagnostics.h Pages: 1 -->
<!--zoomable 285 -->
<svg id="main" version="1.1" xmlns="http://www.w3.org/2000/svg" xmlns:xlink="http://www.w3.org/1999/xlink" xml:space="preserve" onload="init(evt)">
<style type="text/css"><![CDATA[
.edge:hover path { stroke: red; }
.edge:hover polygon { stroke: red; fill: red; }
]]></style>
<script type="text/javascript"><![CDATA[
var edges = document.getElementsByTagName('g');
if (edges && edges.length) {
  for (var i=0;i<edges.length;i++) {
    if (edges[i].id.substr(0,4)=='edge') {
      edges[i].setAttribute('class','edge');
    }
  }
}
]]></script>
        <defs>
                <circle id="rim" cx="0" cy="0" r="7"/>
                <circle id="rim2" cx="0" cy="0" r="3.5"/>
                <g id="zoomPlus">
                        <use xlink:href="#rim" fill="#404040">
                                <set attributeName="fill" to="#808080" begin="zoomplus.mouseover" end="zoomplus.mouseout"/>
                        </use>
                        <path d="M-4,0h8M0,-4v8" fill="none" stroke="white" stroke-width="1.5" pointer-events="none"/>
                </g>
                <g id="zoomMin">
                        <use xlink:href="#rim" fill="#404040">
                                <set attributeName="fill" to="#808080" begin="zoomminus.mouseover" end="zoomminus.mouseout"/>
                        </use>
                        <path d="M-4,0h8" fill="none" stroke="white" stroke-width="1.5" pointer-events="none"/>
                </g>
                <g id="dirArrow">
                        <path fill="none" stroke="white" stroke-width="1.5" d="M0,-3.0v7 M-2.5,-0.5L0,-3.0L2.5,-0.5"/>
                </g>
               <g id="resetDef">
                       <use xlink:href="#rim2" fill="#404040">
                               <set attributeName="fill" to="#808080" begin="reset.mouseover" end="reset.mouseout"/>
                       </use>
               </g>
        </defs>

<script type="text/javascript">
var viewWidth = 1545;
var viewHeight = 285;
var sectionId = 'dynsection-0';
</script>
<script xlink:href="svgpan.js"/>
<svg id="graph" class="graph">
<g id="viewport">
<title>Modules/TOF/include/TOF/TaskDiagnostics.h</title>
<!-- Node1 -->
<g id="node1" class="node"><title>Node1</title>
<polygon fill="#bfbfbf" stroke="black" points="872,-246.5 872,-276.5 996,-276.5 996,-246.5 872,-246.5"/>
<text text-anchor="start" x="880" y="-264.5" font-family="Helvetica,sans-Serif" font-size="10.00">Modules/TOF/include</text>
<text text-anchor="middle" x="934" y="-253.5" font-family="Helvetica,sans-Serif" font-size="10.00">/TOF/TaskDiagnostics.h</text>
</g>
<!-- Node2 -->
<g id="node2" class="node"><title>Node2</title>
<g id="a_node2"><a xlink:href="TaskInterface_8h.html" target="_top" xlink:title="QualityControl/TaskInterface.h">
<polygon fill="none" stroke="black" points="649,-190.5 649,-209.5 799,-209.5 799,-190.5 649,-190.5"/>
<text text-anchor="middle" x="724" y="-197.5" font-family="Helvetica,sans-Serif" font-size="10.00">QualityControl/TaskInterface.h</text>
</a>
</g>
</g>
<!-- Node1&#45;&gt;Node2 -->
<g id="edge1" class="edge"><title>Node1&#45;&gt;Node2</title>
<path fill="none" stroke="midnightblue" d="M884.499,-246.475C847.637,-236.03 797.968,-221.958 763.695,-212.247"/>
<polygon fill="midnightblue" stroke="midnightblue" points="764.598,-208.865 754.022,-209.506 762.69,-215.6 764.598,-208.865"/>
</g>
<!-- Node19 -->
<g id="node19" class="node"><title>Node19</title>
<g id="a_node19"><a xlink:href="Diagnostics_8h.html" target="_top" xlink:title="TOF/Diagnostics.h">
<polygon fill="none" stroke="black" points="1180.5,-190.5 1180.5,-209.5 1279.5,-209.5 1279.5,-190.5 1180.5,-190.5"/>
<text text-anchor="middle" x="1230" y="-197.5" font-family="Helvetica,sans-Serif" font-size="10.00">TOF/Diagnostics.h</text>
</a>
</g>
</g>
<!-- Node1&#45;&gt;Node19 -->
<g id="edge24" class="edge"><title>Node1&#45;&gt;Node19</title>
<path fill="none" stroke="midnightblue" d="M996.051,-248.027C1049.82,-237.219 1126.74,-221.757 1177.5,-211.553"/>
<polygon fill="midnightblue" stroke="midnightblue" points="1178.49,-214.924 1187.6,-209.522 1177.11,-208.062 1178.49,-214.924"/>
</g>
<!-- Node3 -->
<g id="node3" class="node"><title>Node3</title>
<polygon fill="none" stroke="#bfbfbf" points="989.5,-0.5 989.5,-19.5 1024.5,-19.5 1024.5,-0.5 989.5,-0.5"/>
<text text-anchor="middle" x="1007" y="-7.5" font-family="Helvetica,sans-Serif" font-size="10.00">map</text>
</g>
<!-- Node2&#45;&gt;Node3 -->
<g id="edge2" class="edge"><title>Node2&#45;&gt;Node3</title>
<path fill="none" stroke="midnightblue" d="M799.263,-193.808C846.359,-188.333 907.308,-177.089 957,-154 999.994,-134.024 1019.56,-129.774 1040,-87 1045.94,-74.569 1044.29,-69.094 1040,-56 1036.51,-45.3397 1029.43,-35.1174 1022.71,-27.1175"/>
<polygon fill="midnightblue" stroke="midnightblue" points="1025.3,-24.7633 1016.02,-19.66 1020.1,-29.4395 1025.3,-24.7633"/>
</g>
<!-- Node4 -->
<g id="node4" class="node"><title>Node4</title>
<polygon fill="none" stroke="#bfbfbf" points="979,-62 979,-81 1031,-81 1031,-62 979,-62"/>
<text text-anchor="middle" x="1005" y="-69" font-family="Helvetica,sans-Serif" font-size="10.00">memory</text>
</g>
<!-- Node2&#45;&gt;Node4 -->
<g id="edge3" class="edge"><title>Node2&#45;&gt;Node4</title>
<path fill="none" stroke="midnightblue" d="M799.406,-191.788C837.901,-185.709 884.41,-174.53 922,-154 951.684,-137.788 978.052,-107.908 992.738,-89.1807"/>
<polygon fill="midnightblue" stroke="midnightblue" points="995.526,-91.2964 998.804,-81.2212 989.959,-87.0535 995.526,-91.2964"/>
</g>
<!-- Node5 -->
<g id="node5" class="node"><title>Node5</title>
<polygon fill="none" stroke="#bfbfbf" points="667.5,-0.5 667.5,-19.5 708.5,-19.5 708.5,-0.5 667.5,-0.5"/>
<text text-anchor="middle" x="688" y="-7.5" font-family="Helvetica,sans-Serif" font-size="10.00">string</text>
</g>
<!-- Node2&#45;&gt;Node5 -->
<g id="edge4" class="edge"><title>Node2&#45;&gt;Node5</title>
<path fill="none" stroke="midnightblue" d="M724.188,-190.263C724.042,-174.723 721.504,-142.121 704,-123 672.104,-88.158 631.162,-125.646 604,-87 596.078,-75.7278 596.922,-67.8209 604,-56 615.526,-36.7489 638.416,-25.2654 657.394,-18.7225"/>
<polygon fill="midnightblue" stroke="midnightblue" points="658.666,-21.9917 667.159,-15.6571 656.569,-15.3131 658.666,-21.9917"/>
</g>
<!-- Node6 -->
<g id="node6" class="node"><title>Node6</title>
<polygon fill="none" stroke="#bfbfbf" points="366.5,-0.5 366.5,-19.5 449.5,-19.5 449.5,-0.5 366.5,-0.5"/>
<text text-anchor="middle" x="408" y="-7.5" font-family="Helvetica,sans-Serif" font-size="10.00">unordered_map</text>
</g>
<!-- Node2&#45;&gt;Node6 -->
<g id="edge5" class="edge"><title>Node2&#45;&gt;Node6</title>
<path fill="none" stroke="midnightblue" d="M648.851,-197.445C519.951,-193.993 267.889,-183.511 241,-154 191.585,-99.7672 310.526,-46.3562 372.863,-23.1078"/>
<polygon fill="midnightblue" stroke="midnightblue" points="374.157,-26.3613 382.347,-19.64 371.753,-19.787 374.157,-26.3613"/>
</g>
<!-- Node7 -->
<g id="node7" class="node"><title>Node7</title>
<polygon fill="none" stroke="#bfbfbf" points="250.5,-129 250.5,-148 375.5,-148 375.5,-129 250.5,-129"/>
<text text-anchor="middle" x="313" y="-136" font-family="Helvetica,sans-Serif" font-size="10.00">Framework/InitContext.h</text>
</g>
<!-- Node2&#45;&gt;Node7 -->
<g id="edge6" class="edge"><title>Node2&#45;&gt;Node7</title>
<path fill="none" stroke="midnightblue" d="M648.72,-190.468C579.88,-182.32 475.33,-169.074 385,-154 377.823,-152.802 370.269,-151.418 362.861,-149.99"/>
<polygon fill="midnightblue" stroke="midnightblue" points="363.388,-146.527 352.9,-148.029 362.036,-153.395 363.388,-146.527"/>
</g>
<!-- Node8 -->
<g id="node8" class="node"><title>Node8</title>
<polygon fill="none" stroke="#bfbfbf" points="394,-129 394,-148 554,-148 554,-129 394,-129"/>
<text text-anchor="middle" x="474" y="-136" font-family="Helvetica,sans-Serif" font-size="10.00">Framework/ProcessingContext.h</text>
</g>
<!-- Node2&#45;&gt;Node8 -->
<g id="edge7" class="edge"><title>Node2&#45;&gt;Node8</title>
<path fill="none" stroke="midnightblue" d="M688.181,-190.475C643.812,-179.915 568.164,-161.911 519.668,-150.369"/>
<polygon fill="midnightblue" stroke="midnightblue" points="520.291,-146.92 509.752,-148.009 518.67,-153.729 520.291,-146.92"/>
</g>
<!-- Node9 -->
<g id="node9" class="node"><title>Node9</title>
<g id="a_node9"><a xlink:href="Activity_8h.html" target="_top" xlink:title="QualityControl/Activity.h">
<polygon fill="none" stroke="black" points="572.5,-129 572.5,-148 695.5,-148 695.5,-129 572.5,-129"/>
<text text-anchor="middle" x="634" y="-136" font-family="Helvetica,sans-Serif" font-size="10.00">QualityControl/Activity.h</text>
</a>
</g>
</g>
<!-- Node2&#45;&gt;Node9 -->
<g id="edge8" class="edge"><title>Node2&#45;&gt;Node9</title>
<path fill="none" stroke="midnightblue" d="M711.105,-190.475C696.536,-180.843 672.598,-165.017 655.255,-153.552"/>
<polygon fill="midnightblue" stroke="midnightblue" points="657.143,-150.604 646.871,-148.009 653.283,-156.444 657.143,-150.604"/>
</g>
<!-- Node10 -->
<g id="node10" class="node"><title>Node10</title>
<g id="a_node10"><a xlink:href="ObjectsManager_8h.html" target="_top" xlink:title="QualityControl/ObjectsManager.h">
<polygon fill="none" stroke="black" points="752.5,-129 752.5,-148 913.5,-148 913.5,-129 752.5,-129"/>
<text text-anchor="middle" x="833" y="-136" font-family="Helvetica,sans-Serif" font-size="10.00">QualityControl/ObjectsManager.h</text>
</a>
</g>
</g>
<!-- Node2&#45;&gt;Node10 -->
<g id="edge9" class="edge"><title>Node2&#45;&gt;Node10</title>
<path fill="none" stroke="midnightblue" d="M739.617,-190.475C757.586,-180.666 787.321,-164.435 808.406,-152.925"/>
<polygon fill="midnightblue" stroke="midnightblue" points="810.311,-155.873 817.412,-148.009 806.958,-149.728 810.311,-155.873"/>
</g>
<!-- Node10&#45;&gt;Node4 -->
<g id="edge23" class="edge"><title>Node10&#45;&gt;Node4</title>
<path fill="none" stroke="midnightblue" d="M856.66,-128.937C883.85,-119.045 929.773,-102.179 969,-87 970.838,-86.2887 972.726,-85.5507 974.629,-84.8013"/>
<polygon fill="midnightblue" stroke="midnightblue" points="976.102,-87.9818 984.098,-81.0311 973.513,-81.4783 976.102,-87.9818"/>
</g>
<!-- Node10&#45;&gt;Node5 -->
<g id="edge22" class="edge"><title>Node10&#45;&gt;Node5</title>
<path fill="none" stroke="midnightblue" d="M826.893,-128.873C815.441,-113.096 789.408,-79.097 762,-56 747.475,-43.7595 729.265,-32.6416 714.545,-24.519"/>
<polygon fill="midnightblue" stroke="midnightblue" points="715.914,-21.2818 705.449,-19.6322 712.601,-27.4482 715.914,-21.2818"/>
</g>
<!-- Node11 -->
<g id="node11" class="node"><title>Node11</title>
<g id="a_node11"><a xlink:href="MonitorObject_8h.html" target="_top" xlink:title="QualityControl/MonitorObject.h">
<polygon fill="none" stroke="black" points="809.5,-62 809.5,-81 960.5,-81 960.5,-62 809.5,-62"/>
<text text-anchor="middle" x="885" y="-69" font-family="Helvetica,sans-Serif" font-size="10.00">QualityControl/MonitorObject.h</text>
</a>
</g>
</g>
<!-- Node10&#45;&gt;Node11 -->
<g id="edge10" class="edge"><title>Node10&#45;&gt;Node11</title>
<path fill="none" stroke="midnightblue" d="M840.013,-128.734C848.122,-118.598 861.648,-101.69 871.755,-89.0556"/>
<polygon fill="midnightblue" stroke="midnightblue" points="874.584,-91.1225 878.098,-81.1273 869.118,-86.7496 874.584,-91.1225"/>
</g>
<!-- Node15 -->
<g id="node15" class="node"><title>Node15</title>
<g id="a_node15"><a xlink:href="MonitorObjectCollection_8h.html" target="_top" xlink:title="QualityControl/MonitorObject\lCollection.h">
<polygon fill="none" stroke="black" points="50.5,-56.5 50.5,-86.5 193.5,-86.5 193.5,-56.5 50.5,-56.5"/>
<text text-anchor="start" x="58.5" y="-74.5" font-family="Helvetica,sans-Serif" font-size="10.00">QualityControl/MonitorObject</text>
<text text-anchor="middle" x="122" y="-63.5" font-family="Helvetica,sans-Serif" font-size="10.00">Collection.h</text>
</a>
</g>
</g>
<!-- Node10&#45;&gt;Node15 -->
<g id="edge16" class="edge"><title>Node10&#45;&gt;Node15</title>
<path fill="none" stroke="midnightblue" d="M760.037,-128.972C741.75,-126.924 722.165,-124.809 704,-123 525.882,-105.265 316.738,-87.9811 204.006,-78.9558"/>
<polygon fill="midnightblue" stroke="midnightblue" points="203.98,-75.4427 193.733,-78.1349 203.423,-82.4205 203.98,-75.4427"/>
</g>
<!-- Node18 -->
<g id="node18" class="node"><title>Node18</title>
<g id="a_node18"><a xlink:href="TaskConfig_8h.html" target="_top" xlink:title="QualityControl/TaskConfig.h">
<polygon fill="none" stroke="black" points="613,-62 613,-81 753,-81 753,-62 613,-62"/>
<text text-anchor="middle" x="683" y="-69" font-family="Helvetica,sans-Serif" font-size="10.00">QualityControl/TaskConfig.h</text>
</a>
</g>
</g>
<!-- Node10&#45;&gt;Node18 -->
<g id="edge19" class="edge"><title>Node10&#45;&gt;Node18</title>
<path fill="none" stroke="midnightblue" d="M813.081,-128.869C787.305,-117.699 742.185,-98.1468 712.447,-85.2602"/>
<polygon fill="midnightblue" stroke="midnightblue" points="713.568,-81.9319 703.001,-81.1672 710.785,-88.3548 713.568,-81.9319"/>
</g>
<!-- Node11&#45;&gt;Node3 -->
<g id="edge12" class="edge"><title>Node11&#45;&gt;Node3</title>
<path fill="none" stroke="midnightblue" d="M902.48,-61.9751C922.863,-52.0338 956.775,-35.4947 980.425,-23.961"/>
<polygon fill="midnightblue" stroke="midnightblue" points="982.099,-27.0385 989.553,-19.5091 979.031,-20.7468 982.099,-27.0385"/>
</g>
<!-- Node11&#45;&gt;Node5 -->
<g id="edge11" class="edge"><title>Node11&#45;&gt;Node5</title>
<path fill="none" stroke="midnightblue" d="M856.775,-61.9751C820.112,-50.9019 756.347,-31.6428 718.57,-20.233"/>
<polygon fill="midnightblue" stroke="midnightblue" points="719.233,-16.7771 708.648,-17.2363 717.209,-23.4782 719.233,-16.7771"/>
</g>
<!-- Node12 -->
<g id="node12" class="node"><title>Node12</title>
<polygon fill="none" stroke="#bfbfbf" points="897,-0.5 897,-19.5 953,-19.5 953,-0.5 897,-0.5"/>
<text text-anchor="middle" x="925" y="-7.5" font-family="Helvetica,sans-Serif" font-size="10.00">Rtypes.h</text>
</g>
<!-- Node11&#45;&gt;Node12 -->
<g id="edge13" class="edge"><title>Node11&#45;&gt;Node12</title>
<path fill="none" stroke="midnightblue" d="M890.731,-61.9751C896.672,-53.1384 906.117,-39.0886 913.588,-27.975"/>
<polygon fill="midnightblue" stroke="midnightblue" points="916.605,-29.7608 919.28,-19.5091 910.796,-25.8554 916.605,-29.7608"/>
</g>
<!-- Node13 -->
<g id="node13" class="node"><title>Node13</title>
<polygon fill="none" stroke="#bfbfbf" points="1051.5,-0.5 1051.5,-19.5 1110.5,-19.5 1110.5,-0.5 1051.5,-0.5"/>
<text text-anchor="middle" x="1081" y="-7.5" font-family="Helvetica,sans-Serif" font-size="10.00">TObject.h</text>
</g>
<!-- Node11&#45;&gt;Node13 -->
<g id="edge14" class="edge"><title>Node11&#45;&gt;Node13</title>
<path fill="none" stroke="midnightblue" d="M913.082,-61.9751C947.285,-51.592 1005.2,-34.0116 1043.27,-22.4538"/>
<polygon fill="midnightblue" stroke="midnightblue" points="1044.42,-25.7631 1052.97,-19.5091 1042.38,-19.0649 1044.42,-25.7631"/>
</g>
<!-- Node14 -->
<g id="node14" class="node"><title>Node14</title>
<polygon fill="none" stroke="#bfbfbf" points="763,-0.5 763,-19.5 879,-19.5 879,-0.5 763,-0.5"/>
<text text-anchor="middle" x="821" y="-7.5" font-family="Helvetica,sans-Serif" font-size="10.00">Common/Exceptions.h</text>
</g>
<!-- Node11&#45;&gt;Node14 -->
<g id="edge15" class="edge"><title>Node11&#45;&gt;Node14</title>
<path fill="none" stroke="midnightblue" d="M875.83,-61.9751C865.85,-52.6966 849.688,-37.6706 837.491,-26.331"/>
<polygon fill="midnightblue" stroke="midnightblue" points="839.86,-23.7547 830.153,-19.5091 835.093,-28.8814 839.86,-23.7547"/>
</g>
<!-- Node16 -->
<g id="node16" class="node"><title>Node16</title>
<polygon fill="none" stroke="#bfbfbf" points="146.5,-0.5 146.5,-19.5 215.5,-19.5 215.5,-0.5 146.5,-0.5"/>
<text text-anchor="middle" x="181" y="-7.5" font-family="Helvetica,sans-Serif" font-size="10.00">TObjArray.h</text>
</g>
<!-- Node15&#45;&gt;Node16 -->
<g id="edge17" class="edge"><title>Node15&#45;&gt;Node16</title>
<path fill="none" stroke="midnightblue" d="M135.982,-56.3993C144.732,-47.575 156.029,-36.1827 165.117,-27.0178"/>
<polygon fill="midnightblue" stroke="midnightblue" points="167.859,-29.2231 172.415,-19.6578 162.888,-24.2942 167.859,-29.2231"/>
</g>
<!-- Node17 -->
<g id="node17" class="node"><title>Node17</title>
<polygon fill="none" stroke="#bfbfbf" points="0,-0.5 0,-19.5 128,-19.5 128,-0.5 0,-0.5"/>
<text text-anchor="middle" x="64" y="-7.5" font-family="Helvetica,sans-Serif" font-size="10.00">Mergers/MergeInterface.h</text>
</g>
<!-- Node15&#45;&gt;Node17 -->
<g id="edge18" class="edge"><title>Node15&#45;&gt;Node17</title>
<path fill="none" stroke="midnightblue" d="M108.255,-56.3993C99.6529,-47.575 88.5479,-36.1827 79.614,-27.0178"/>
<polygon fill="midnightblue" stroke="midnightblue" points="81.926,-24.3755 72.4395,-19.6578 76.9135,-29.2616 81.926,-24.3755"/>
</g>
<!-- Node18&#45;&gt;Node5 -->
<g id="edge20" class="edge"><title>Node18&#45;&gt;Node5</title>
<path fill="none" stroke="midnightblue" d="M683.716,-61.9751C684.422,-53.5803 685.523,-40.4806 686.432,-29.6631"/>
<polygon fill="midnightblue" stroke="midnightblue" points="689.935,-29.7671 687.285,-19.5091 682.96,-29.1808 689.935,-29.7671"/>
</g>
<!-- Node18&#45;&gt;Node6 -->
<g id="edge21" class="edge"><title>Node18&#45;&gt;Node6</title>
<path fill="none" stroke="midnightblue" d="M643.599,-61.9751C594.487,-51.349 510.534,-33.1847 457.234,-21.6524"/>
<polygon fill="midnightblue" stroke="midnightblue" points="457.842,-18.203 447.328,-19.5091 456.361,-25.0447 457.842,-18.203"/>
</g>
<!-- Node20 -->
<g id="node20" class="node"><title>Node20</title>
<polygon fill="none" stroke="#bfbfbf" points="1225,-123.5 1225,-153.5 1367,-153.5 1367,-123.5 1225,-123.5"/>
<text text-anchor="start" x="1233" y="-141.5" font-family="Helvetica,sans-Serif" font-size="10.00">TOFReconstruction/Decoder</text>
<text text-anchor="middle" x="1296" y="-130.5" font-family="Helvetica,sans-Serif" font-size="10.00">Base.h</text>
</g>
<!-- Node19&#45;&gt;Node20 -->
<g id="edge25" class="edge"><title>Node19&#45;&gt;Node20</title>
<path fill="none" stroke="midnightblue" d="M1239.46,-190.475C1248.14,-182.643 1261.38,-170.714 1272.86,-160.366"/>
<polygon fill="midnightblue" stroke="midnightblue" points="1275.36,-162.818 1280.45,-153.523 1270.67,-157.619 1275.36,-162.818"/>
</g>
<!-- Node21 -->
<g id="node21" class="node"><title>Node21</title>
<polygon fill="none" stroke="#bfbfbf" points="1385,-123.5 1385,-153.5 1537,-153.5 1537,-123.5 1385,-123.5"/>
<text text-anchor="start" x="1393" y="-141.5" font-family="Helvetica,sans-Serif" font-size="10.00">DataFormatsTOF/Compressed</text>
<text text-anchor="middle" x="1461" y="-130.5" font-family="Helvetica,sans-Serif" font-size="10.00">DataFormat.h</text>
</g>
<!-- Node19&#45;&gt;Node21 -->
<g id="edge26" class="edge"><title>Node19&#45;&gt;Node21</title>
<path fill="none" stroke="midnightblue" d="M1263.1,-190.475C1297.82,-181.532 1353.27,-167.249 1396.65,-156.074"/>
<polygon fill="midnightblue" stroke="midnightblue" points="1397.75,-159.407 1406.56,-153.523 1396,-152.628 1397.75,-159.407"/>
</g>
<!-- Node22 -->
<g id="node22" class="node"><title>Node22</title>
<g id="a_node22"><a xlink:href="Counter_8h.html" target="_top" xlink:title="Base/Counter.h">
<polygon fill="none" stroke="black" points="1121.5,-129 1121.5,-148 1206.5,-148 1206.5,-129 1121.5,-129"/>
<text text-anchor="middle" x="1164" y="-136" font-family="Helvetica,sans-Serif" font-size="10.00">Base/Counter.h</text>
</a>
</g>
</g>
<!-- Node19&#45;&gt;Node22 -->
<g id="edge27" class="edge"><title>Node19&#45;&gt;Node22</title>
<path fill="none" stroke="midnightblue" d="M1220.54,-190.475C1210.25,-181.197 1193.58,-166.171 1181.01,-154.831"/>
<polygon fill="midnightblue" stroke="midnightblue" points="1183.21,-152.105 1173.44,-148.009 1178.52,-157.305 1183.21,-152.105"/>
</g>
<!-- Node22&#45;&gt;Node13 -->
<g id="edge28" class="edge"><title>Node22&#45;&gt;Node13</title>
<path fill="none" stroke="midnightblue" d="M1153.52,-128.701C1142.77,-119.255 1126.1,-103.384 1115,-87 1102.75,-68.9155 1093.11,-45.6973 1087.27,-29.7089"/>
<polygon fill="midnightblue" stroke="midnightblue" points="1090.46,-28.2271 1083.85,-19.947 1083.86,-30.5419 1090.46,-28.2271"/>
</g>
<!-- Node23 -->
<g id="node23" class="node"><title>Node23</title>
<polygon fill="none" stroke="#bfbfbf" points="1291,-62 1291,-81 1335,-81 1335,-62 1291,-62"/>
<text text-anchor="middle" x="1313" y="-69" font-family="Helvetica,sans-Serif" font-size="10.00">TH1.h</text>
</g>
<!-- Node22&#45;&gt;Node23 -->
<g id="edge29" class="edge"><title>Node22&#45;&gt;Node23</title>
<path fill="none" stroke="midnightblue" d="M1184.55,-128.947C1208.17,-119.063 1248.04,-102.206 1282,-87 1283.19,-86.4674 1284.4,-85.9196 1285.63,-85.3631"/>
<polygon fill="midnightblue" stroke="midnightblue" points="1287.4,-88.4006 1295.01,-81.0353 1284.47,-82.0436 1287.4,-88.4006"/>
</g>
<!-- Node24 -->
<g id="node24" class="node"><title>Node24</title>
<g id="a_node24"><a xlink:href="QcInfoLogger_8h.html" target="_top" xlink:title="QualityControl/QcInfoLogger.h">
<polygon fill="none" stroke="black" points="1124.5,-62 1124.5,-81 1273.5,-81 1273.5,-62 1124.5,-62"/>
<text text-anchor="middle" x="1199" y="-69" font-family="Helvetica,sans-Serif" font-size="10.00">QualityControl/QcInfoLogger.h</text>
</a>
</g>
</g>
<!-- Node22&#45;&gt;Node24 -->
<g id="edge30" class="edge"><title>Node22&#45;&gt;Node24</title>
<path fill="none" stroke="midnightblue" d="M1168.72,-128.734C1174.02,-118.89 1182.76,-102.66 1189.49,-90.1594"/>
<polygon fill="midnightblue" stroke="midnightblue" points="1192.7,-91.5914 1194.35,-81.1273 1186.53,-88.2727 1192.7,-91.5914"/>
</g>
<!-- Node25 -->
<g id="node25" class="node"><title>Node25</title>
<polygon fill="none" stroke="#bfbfbf" points="1134,-0.5 1134,-19.5 1264,-19.5 1264,-0.5 1134,-0.5"/>
<text text-anchor="middle" x="1199" y="-7.5" font-family="Helvetica,sans-Serif" font-size="10.00">InfoLogger/InfoLogger.hxx</text>
</g>
<!-- Node24&#45;&gt;Node25 -->
<g id="edge31" class="edge"><title>Node24&#45;&gt;Node25</title>
<path fill="none" stroke="midnightblue" d="M1199,-61.9751C1199,-53.5803 1199,-40.4806 1199,-29.6631"/>
<polygon fill="midnightblue" stroke="midnightblue" points="1202.5,-29.5091 1199,-19.5091 1195.5,-29.5091 1202.5,-29.5091"/>
</g>
</g>
</svg>
        <g id="navigator" transform="translate(0 0)" fill="#404254">
                <rect fill="#f2f5e9" fill-opacity="0.5" stroke="#606060" stroke-width=".5" x="0" y="0" width="60" height="60"/>
                <use id="zoomplus" xlink:href="#zoomPlus" x="17" y="9" onmousedown="handleZoom(evt,'in')"/>
                <use id="zoomminus" xlink:href="#zoomMin" x="42" y="9" onmousedown="handleZoom(evt,'out')"/>
                <use id="reset" xlink:href="#resetDef" x="30" y="36" onmousedown="handleReset()"/>
                <g id="arrowUp" xlink:href="#dirArrow" transform="translate(30 24)" onmousedown="handlePan(0,-1)">
                  <use xlink:href="#rim" fill="#404040">
                        <set attributeName="fill" to="#808080" begin="arrowUp.mouseover" end="arrowUp.mouseout"/>
                  </use>
                  <path fill="none" stroke="white" stroke-width="1.5" d="M0,-3.0v7 M-2.5,-0.5L0,-3.0L2.5,-0.5"/>
                </g>
                <g id="arrowRight" xlink:href="#dirArrow" transform="rotate(90) translate(36 -43)" onmousedown="handlePan(1,0)">
                  <use xlink:href="#rim" fill="#404040">
                        <set attributeName="fill" to="#808080" begin="arrowRight.mouseover" end="arrowRight.mouseout"/>
                  </use>
                  <path fill="none" stroke="white" stroke-width="1.5" d="M0,-3.0v7 M-2.5,-0.5L0,-3.0L2.5,-0.5"/>
                </g>
                <g id="arrowDown" xlink:href="#dirArrow" transform="rotate(180) translate(-30 -48)" onmousedown="handlePan(0,1)">
                  <use xlink:href="#rim" fill="#404040">
                        <set attributeName="fill" to="#808080" begin="arrowDown.mouseover" end="arrowDown.mouseout"/>
                  </use>
                  <path fill="none" stroke="white" stroke-width="1.5" d="M0,-3.0v7 M-2.5,-0.5L0,-3.0L2.5,-0.5"/>
                </g>
                <g id="arrowLeft" xlink:href="#dirArrow" transform="rotate(270) translate(-36 17)" onmousedown="handlePan(-1,0)">
                  <use xlink:href="#rim" fill="#404040">
                        <set attributeName="fill" to="#808080" begin="arrowLeft.mouseover" end="arrowLeft.mouseout"/>
                  </use>
                  <path fill="none" stroke="white" stroke-width="1.5" d="M0,-3.0v7 M-2.5,-0.5L0,-3.0L2.5,-0.5"/>
                </g>
        </g>
        <svg viewBox="0 0 15 15" width="100%" height="30px" preserveAspectRatio="xMaxYMin meet">
         <g id="arrow_out" transform="scale(0.3 0.3)">
          <a xlink:href="TaskDiagnostics_8h__incl_org.svg" target="_base">
           <rect id="button" ry="5" rx="5" y="6" x="6" height="38" width="38"
                fill="#f2f5e9" fill-opacity="0.5" stroke="#606060" stroke-width="1.0"/>
           <path id="arrow"
             d="M 11.500037,31.436501 C 11.940474,20.09759 22.043105,11.32322 32.158766,21.979434 L 37.068811,17.246167 C 37.068811,17.246167 37.088388,32 37.088388,32 L 22.160133,31.978069 C 22.160133,31.978069 26.997745,27.140456 26.997745,27.140456 C 18.528582,18.264221 13.291696,25.230495 11.500037,31.436501 z"
             style="fill:#404040;"/>
          </a>
         </g>
        </svg>
</svg>
