<?xml version="1.0" encoding="UTF-8" standalone="no"?>
<!DOCTYPE svg PUBLIC "-//W3C//DTD SVG 1.1//EN"
 "http://www.w3.org/Graphics/SVG/1.1/DTD/svg11.dtd">
<!-- Generated by graphviz version 2.38.0 (20140413.2041)
 -->
<!-- Title: Framework/src/TaskRunner.cxx Pages: 1 -->
<svg width="3346pt" height="330pt"
 viewBox="0.00 0.00 3345.50 330.00" xmlns="http://www.w3.org/2000/svg" xmlns:xlink="http://www.w3.org/1999/xlink">
<g id="graph0" class="graph" transform="scale(1 1) rotate(0) translate(4 326)">
<title>Framework/src/TaskRunner.cxx</title>
<!-- Node1 -->
<g id="node1" class="node"><title>Node1</title>
<polygon fill="#bfbfbf" stroke="black" points="2139.5,-302.5 2139.5,-321.5 2296.5,-321.5 2296.5,-302.5 2139.5,-302.5"/>
<text text-anchor="middle" x="2218" y="-309.5" font-family="Helvetica,sans-Serif" font-size="10.00">Framework/src/TaskRunner.cxx</text>
</g>
<!-- Node2 -->
<g id="node2" class="node"><title>Node2</title>
<g id="a_node2"><a xlink:href="TaskRunner_8h.html" target="_top" xlink:title="QualityControl/TaskRunner.h">
<polygon fill="none" stroke="black" points="652.5,-241 652.5,-260 795.5,-260 795.5,-241 652.5,-241"/>
<text text-anchor="middle" x="724" y="-248" font-family="Helvetica,sans-Serif" font-size="10.00">QualityControl/TaskRunner.h</text>
</a>
</g>
</g>
<!-- Node1&#45;&gt;Node2 -->
<g id="edge1" class="edge"><title>Node1&#45;&gt;Node2</title>
<path fill="none" stroke="midnightblue" d="M2139.2,-309.631C1934.61,-305.788 1369.7,-293.351 900,-266 869.335,-264.214 835.716,-261.606 806.152,-259.091"/>
<polygon fill="midnightblue" stroke="midnightblue" points="806.138,-255.577 795.875,-258.208 805.538,-262.552 806.138,-255.577"/>
</g>
<!-- Node10 -->
<g id="node10" class="node"><title>Node10</title>
<polygon fill="none" stroke="#bfbfbf" points="1010.5,-0.5 1010.5,-19.5 1051.5,-19.5 1051.5,-0.5 1010.5,-0.5"/>
<text text-anchor="middle" x="1031" y="-7.5" font-family="Helvetica,sans-Serif" font-size="10.00">string</text>
</g>
<!-- Node1&#45;&gt;Node10 -->
<g id="edge48" class="edge"><title>Node1&#45;&gt;Node10</title>
<path fill="none" stroke="midnightblue" d="M2139.34,-307.973C1915.37,-298.611 1277.73,-266.594 1081,-199 1005.97,-173.22 965.302,-162.838 942,-87 937.953,-73.8299 934.783,-67.7363 942,-56 954.647,-35.4342 979.922,-23.9214 1000.32,-17.7011"/>
<polygon fill="midnightblue" stroke="midnightblue" points="1001.44,-21.0207 1010.15,-14.9834 999.579,-14.2736 1001.44,-21.0207"/>
</g>
<!-- Node14 -->
<g id="node14" class="node"><title>Node14</title>
<polygon fill="none" stroke="#bfbfbf" points="1767,-62 1767,-81 1819,-81 1819,-62 1767,-62"/>
<text text-anchor="middle" x="1793" y="-69" font-family="Helvetica,sans-Serif" font-size="10.00">memory</text>
</g>
<!-- Node1&#45;&gt;Node14 -->
<g id="edge32" class="edge"><title>Node1&#45;&gt;Node14</title>
<path fill="none" stroke="midnightblue" d="M2139.43,-310.167C2048.83,-307.654 1907.09,-298.462 1866,-266 1810.35,-222.042 1797.12,-130.738 1793.98,-91.3067"/>
<polygon fill="midnightblue" stroke="midnightblue" points="1797.46,-90.9882 1793.31,-81.2415 1790.48,-91.4511 1797.46,-90.9882"/>
</g>
<!-- Node22 -->
<g id="node22" class="node"><title>Node22</title>
<polygon fill="none" stroke="#bfbfbf" points="1793,-0.5 1793,-19.5 1909,-19.5 1909,-0.5 1793,-0.5"/>
<text text-anchor="middle" x="1851" y="-7.5" font-family="Helvetica,sans-Serif" font-size="10.00">Common/Exceptions.h</text>
</g>
<!-- Node1&#45;&gt;Node22 -->
<g id="edge33" class="edge"><title>Node1&#45;&gt;Node22</title>
<path fill="none" stroke="midnightblue" d="M2139.48,-309.715C2056.64,-306.702 1933.4,-296.967 1899,-266 1873.12,-242.704 1880,-224.817 1880,-190 1880,-190 1880,-190 1880,-132 1880,-94.703 1866.81,-52.6762 1858.22,-29.2646"/>
<polygon fill="midnightblue" stroke="midnightblue" points="1861.38,-27.7366 1854.56,-19.6349 1854.84,-30.2259 1861.38,-27.7366"/>
</g>
<!-- Node26 -->
<g id="node26" class="node"><title>Node26</title>
<polygon fill="none" stroke="#bfbfbf" points="1908.5,-235.5 1908.5,-265.5 2043.5,-265.5 2043.5,-235.5 1908.5,-235.5"/>
<text text-anchor="start" x="1916.5" y="-253.5" font-family="Helvetica,sans-Serif" font-size="10.00">Configuration/Configuration</text>
<text text-anchor="middle" x="1976" y="-242.5" font-family="Helvetica,sans-Serif" font-size="10.00">Factory.h</text>
</g>
<!-- Node1&#45;&gt;Node26 -->
<g id="edge34" class="edge"><title>Node1&#45;&gt;Node26</title>
<path fill="none" stroke="midnightblue" d="M2183.33,-302.475C2146.8,-293.494 2088.37,-279.128 2042.84,-267.933"/>
<polygon fill="midnightblue" stroke="midnightblue" points="2043.58,-264.512 2033.03,-265.523 2041.91,-271.309 2043.58,-264.512"/>
</g>
<!-- Node27 -->
<g id="node27" class="node"><title>Node27</title>
<polygon fill="none" stroke="#bfbfbf" points="2061.5,-241 2061.5,-260 2212.5,-260 2212.5,-241 2061.5,-241"/>
<text text-anchor="middle" x="2137" y="-248" font-family="Helvetica,sans-Serif" font-size="10.00">Monitoring/MonitoringFactory.h</text>
</g>
<!-- Node1&#45;&gt;Node27 -->
<g id="edge35" class="edge"><title>Node1&#45;&gt;Node27</title>
<path fill="none" stroke="midnightblue" d="M2206.39,-302.475C2193.52,-293.02 2172.53,-277.596 2156.99,-266.187"/>
<polygon fill="midnightblue" stroke="midnightblue" points="2158.72,-263.108 2148.58,-260.009 2154.57,-268.75 2158.72,-263.108"/>
</g>
<!-- Node28 -->
<g id="node28" class="node"><title>Node28</title>
<polygon fill="none" stroke="#bfbfbf" points="2231,-241 2231,-260 2369,-260 2369,-241 2231,-241"/>
<text text-anchor="middle" x="2300" y="-248" font-family="Helvetica,sans-Serif" font-size="10.00">Framework/DataSampling.h</text>
</g>
<!-- Node1&#45;&gt;Node28 -->
<g id="edge36" class="edge"><title>Node1&#45;&gt;Node28</title>
<path fill="none" stroke="midnightblue" d="M2229.75,-302.475C2242.78,-293.02 2264.04,-277.596 2279.76,-266.187"/>
<polygon fill="midnightblue" stroke="midnightblue" points="2282.23,-268.715 2288.27,-260.009 2278.12,-263.049 2282.23,-268.715"/>
</g>
<!-- Node29 -->
<g id="node29" class="node"><title>Node29</title>
<polygon fill="none" stroke="#bfbfbf" points="2387,-241 2387,-260 2535,-260 2535,-241 2387,-241"/>
<text text-anchor="middle" x="2461" y="-248" font-family="Helvetica,sans-Serif" font-size="10.00">Framework/CallbackService.h</text>
</g>
<!-- Node1&#45;&gt;Node29 -->
<g id="edge37" class="edge"><title>Node1&#45;&gt;Node29</title>
<path fill="none" stroke="midnightblue" d="M2252.82,-302.475C2295.85,-291.937 2369.17,-273.986 2416.31,-262.441"/>
<polygon fill="midnightblue" stroke="midnightblue" points="2417.37,-265.787 2426.25,-260.009 2415.7,-258.988 2417.37,-265.787"/>
</g>
<!-- Node30 -->
<g id="node30" class="node"><title>Node30</title>
<polygon fill="none" stroke="#bfbfbf" points="2553.5,-235.5 2553.5,-265.5 2698.5,-265.5 2698.5,-235.5 2553.5,-235.5"/>
<text text-anchor="start" x="2561.5" y="-253.5" font-family="Helvetica,sans-Serif" font-size="10.00">Framework/CompletionPolicy</text>
<text text-anchor="middle" x="2626" y="-242.5" font-family="Helvetica,sans-Serif" font-size="10.00">Helpers.h</text>
</g>
<!-- Node1&#45;&gt;Node30 -->
<g id="edge38" class="edge"><title>Node1&#45;&gt;Node30</title>
<path fill="none" stroke="midnightblue" d="M2285.23,-302.476C2348.96,-294.222 2447.66,-280.998 2543.03,-266.116"/>
<polygon fill="midnightblue" stroke="midnightblue" points="2543.81,-269.538 2553.15,-264.53 2542.72,-262.622 2543.81,-269.538"/>
</g>
<!-- Node31 -->
<g id="node31" class="node"><title>Node31</title>
<polygon fill="none" stroke="#bfbfbf" points="2716.5,-241 2716.5,-260 2859.5,-260 2859.5,-241 2716.5,-241"/>
<text text-anchor="middle" x="2788" y="-248" font-family="Helvetica,sans-Serif" font-size="10.00">Framework/TimesliceIndex.h</text>
</g>
<!-- Node1&#45;&gt;Node31 -->
<g id="edge39" class="edge"><title>Node1&#45;&gt;Node31</title>
<path fill="none" stroke="midnightblue" d="M2296.57,-305.845C2393.38,-299.016 2562.74,-285.513 2707,-266 2715.85,-264.803 2725.2,-263.327 2734.29,-261.779"/>
<polygon fill="midnightblue" stroke="midnightblue" points="2735.14,-265.182 2744.39,-260.012 2733.94,-258.287 2735.14,-265.182"/>
</g>
<!-- Node32 -->
<g id="node32" class="node"><title>Node32</title>
<polygon fill="none" stroke="#bfbfbf" points="2878,-241 2878,-260 3018,-260 3018,-241 2878,-241"/>
<text text-anchor="middle" x="2948" y="-248" font-family="Helvetica,sans-Serif" font-size="10.00">Framework/DataSpecUtils.h</text>
</g>
<!-- Node1&#45;&gt;Node32 -->
<g id="edge40" class="edge"><title>Node1&#45;&gt;Node32</title>
<path fill="none" stroke="midnightblue" d="M2296.56,-308.356C2419.03,-303.605 2662.73,-291.629 2868,-266 2877.05,-264.87 2886.63,-263.386 2895.9,-261.8"/>
<polygon fill="midnightblue" stroke="midnightblue" points="2896.55,-265.239 2905.79,-260.05 2895.33,-258.346 2896.55,-265.239"/>
</g>
<!-- Node33 -->
<g id="node33" class="node"><title>Node33</title>
<polygon fill="none" stroke="#bfbfbf" points="3036,-235.5 3036,-265.5 3170,-265.5 3170,-235.5 3036,-235.5"/>
<text text-anchor="start" x="3044" y="-253.5" font-family="Helvetica,sans-Serif" font-size="10.00">Framework/DataDescriptor</text>
<text text-anchor="middle" x="3103" y="-242.5" font-family="Helvetica,sans-Serif" font-size="10.00">QueryBuilder.h</text>
</g>
<!-- Node1&#45;&gt;Node33 -->
<g id="edge41" class="edge"><title>Node1&#45;&gt;Node33</title>
<path fill="none" stroke="midnightblue" d="M2296.69,-310.091C2439.89,-307.678 2752.74,-298.906 3025.83,-266.025"/>
<polygon fill="midnightblue" stroke="midnightblue" points="3026.44,-269.478 3035.94,-264.795 3025.59,-262.529 3026.44,-269.478"/>
</g>
<!-- Node34 -->
<g id="node34" class="node"><title>Node34</title>
<g id="a_node34"><a xlink:href="QcInfoLogger_8h.html" target="_top" xlink:title="QualityControl/QcInfoLogger.h">
<polygon fill="none" stroke="black" points="3188.5,-241 3188.5,-260 3337.5,-260 3337.5,-241 3188.5,-241"/>
<text text-anchor="middle" x="3263" y="-248" font-family="Helvetica,sans-Serif" font-size="10.00">QualityControl/QcInfoLogger.h</text>
</a>
</g>
</g>
<!-- Node1&#45;&gt;Node34 -->
<g id="edge42" class="edge"><title>Node1&#45;&gt;Node34</title>
<path fill="none" stroke="midnightblue" d="M2296.73,-310.616C2461.14,-309.089 2852.74,-301.658 3179,-266 3188.93,-264.915 3199.46,-263.394 3209.59,-261.742"/>
<polygon fill="midnightblue" stroke="midnightblue" points="3210.27,-265.177 3219.55,-260.058 3209.1,-258.275 3210.27,-265.177"/>
</g>
<!-- Node36 -->
<g id="node36" class="node"><title>Node36</title>
<g id="a_node36"><a xlink:href="TaskFactory_8h.html" target="_top" xlink:title="QualityControl/TaskFactory.h">
<polygon fill="none" stroke="black" points="1517.5,-241 1517.5,-260 1662.5,-260 1662.5,-241 1517.5,-241"/>
<text text-anchor="middle" x="1590" y="-248" font-family="Helvetica,sans-Serif" font-size="10.00">QualityControl/TaskFactory.h</text>
</a>
</g>
</g>
<!-- Node1&#45;&gt;Node36 -->
<g id="edge44" class="edge"><title>Node1&#45;&gt;Node36</title>
<path fill="none" stroke="midnightblue" d="M2139.42,-303.555C2020.17,-292.257 1794.57,-270.882 1672.84,-259.349"/>
<polygon fill="midnightblue" stroke="midnightblue" points="1673.12,-255.859 1662.83,-258.4 1672.46,-262.828 1673.12,-255.859"/>
</g>
<!-- Node3 -->
<g id="node3" class="node"><title>Node3</title>
<polygon fill="none" stroke="#bfbfbf" points="678,-179.5 678,-198.5 770,-198.5 770,-179.5 678,-179.5"/>
<text text-anchor="middle" x="724" y="-186.5" font-family="Helvetica,sans-Serif" font-size="10.00">Common/Timer.h</text>
</g>
<!-- Node2&#45;&gt;Node3 -->
<g id="edge2" class="edge"><title>Node2&#45;&gt;Node3</title>
<path fill="none" stroke="midnightblue" d="M724,-240.975C724,-232.58 724,-219.481 724,-208.663"/>
<polygon fill="midnightblue" stroke="midnightblue" points="727.5,-208.509 724,-198.509 720.5,-208.509 727.5,-208.509"/>
</g>
<!-- Node4 -->
<g id="node4" class="node"><title>Node4</title>
<polygon fill="none" stroke="#bfbfbf" points="788,-179.5 788,-198.5 886,-198.5 886,-179.5 788,-179.5"/>
<text text-anchor="middle" x="837" y="-186.5" font-family="Helvetica,sans-Serif" font-size="10.00">Framework/Task.h</text>
</g>
<!-- Node2&#45;&gt;Node4 -->
<g id="edge3" class="edge"><title>Node2&#45;&gt;Node4</title>
<path fill="none" stroke="midnightblue" d="M740.19,-240.975C758.902,-231.122 789.923,-214.788 811.799,-203.27"/>
<polygon fill="midnightblue" stroke="midnightblue" points="813.622,-206.265 820.84,-198.509 810.361,-200.071 813.622,-206.265"/>
</g>
<!-- Node5 -->
<g id="node5" class="node"><title>Node5</title>
<polygon fill="none" stroke="#bfbfbf" points="0,-179.5 0,-198.5 164,-198.5 164,-179.5 0,-179.5"/>
<text text-anchor="middle" x="82" y="-186.5" font-family="Helvetica,sans-Serif" font-size="10.00">Framework/DataProcessorSpec.h</text>
</g>
<!-- Node2&#45;&gt;Node5 -->
<g id="edge4" class="edge"><title>Node2&#45;&gt;Node5</title>
<path fill="none" stroke="midnightblue" d="M652.221,-243.087C548.997,-233.828 352.359,-216.052 174.409,-199.129"/>
<polygon fill="midnightblue" stroke="midnightblue" points="174.624,-195.634 164.337,-198.17 173.961,-202.602 174.624,-195.634"/>
</g>
<!-- Node6 -->
<g id="node6" class="node"><title>Node6</title>
<polygon fill="none" stroke="#bfbfbf" points="182.5,-179.5 182.5,-198.5 335.5,-198.5 335.5,-179.5 182.5,-179.5"/>
<text text-anchor="middle" x="259" y="-186.5" font-family="Helvetica,sans-Serif" font-size="10.00">Framework/CompletionPolicy.h</text>
</g>
<!-- Node2&#45;&gt;Node6 -->
<g id="edge5" class="edge"><title>Node2&#45;&gt;Node6</title>
<path fill="none" stroke="midnightblue" d="M657.377,-240.975C572.261,-230.084 425.257,-211.274 335.603,-199.802"/>
<polygon fill="midnightblue" stroke="midnightblue" points="335.863,-196.307 325.5,-198.509 334.974,-203.25 335.863,-196.307"/>
</g>
<!-- Node7 -->
<g id="node7" class="node"><title>Node7</title>
<polygon fill="none" stroke="#bfbfbf" points="354,-179.5 354,-198.5 524,-198.5 524,-179.5 354,-179.5"/>
<text text-anchor="middle" x="439" y="-186.5" font-family="Helvetica,sans-Serif" font-size="10.00">Framework/EndOfStreamContext.h</text>
</g>
<!-- Node2&#45;&gt;Node7 -->
<g id="edge6" class="edge"><title>Node2&#45;&gt;Node7</title>
<path fill="none" stroke="midnightblue" d="M683.166,-240.975C632.163,-230.327 544.901,-212.109 489.68,-200.581"/>
<polygon fill="midnightblue" stroke="midnightblue" points="490.262,-197.127 479.758,-198.509 488.831,-203.979 490.262,-197.127"/>
</g>
<!-- Node8 -->
<g id="node8" class="node"><title>Node8</title>
<polygon fill="none" stroke="#bfbfbf" points="542.5,-179.5 542.5,-198.5 659.5,-198.5 659.5,-179.5 542.5,-179.5"/>
<text text-anchor="middle" x="601" y="-186.5" font-family="Helvetica,sans-Serif" font-size="10.00">Headers/DataHeader.h</text>
</g>
<!-- Node2&#45;&gt;Node8 -->
<g id="edge7" class="edge"><title>Node2&#45;&gt;Node8</title>
<path fill="none" stroke="midnightblue" d="M706.377,-240.975C685.826,-231.034 651.636,-214.495 627.793,-202.961"/>
<polygon fill="midnightblue" stroke="midnightblue" points="629.116,-199.713 618.59,-198.509 626.068,-206.015 629.116,-199.713"/>
</g>
<!-- Node9 -->
<g id="node9" class="node"><title>Node9</title>
<g id="a_node9"><a xlink:href="TaskConfig_8h.html" target="_top" xlink:title="QualityControl/TaskConfig.h">
<polygon fill="none" stroke="black" points="961,-62 961,-81 1101,-81 1101,-62 961,-62"/>
<text text-anchor="middle" x="1031" y="-69" font-family="Helvetica,sans-Serif" font-size="10.00">QualityControl/TaskConfig.h</text>
</a>
</g>
</g>
<!-- Node2&#45;&gt;Node9 -->
<g id="edge8" class="edge"><title>Node2&#45;&gt;Node9</title>
<path fill="none" stroke="midnightblue" d="M774.702,-240.932C810.08,-233.462 857.487,-220.389 895,-199 947.071,-169.311 995.227,-116.042 1017.7,-89.0895"/>
<polygon fill="midnightblue" stroke="midnightblue" points="1020.43,-91.2782 1024.07,-81.3265 1015.02,-86.8393 1020.43,-91.2782"/>
</g>
<!-- Node12 -->
<g id="node12" class="node"><title>Node12</title>
<g id="a_node12"><a xlink:href="TaskInterface_8h.html" target="_top" xlink:title="QualityControl/TaskInterface.h">
<polygon fill="none" stroke="black" points="1445,-179.5 1445,-198.5 1595,-198.5 1595,-179.5 1445,-179.5"/>
<text text-anchor="middle" x="1520" y="-186.5" font-family="Helvetica,sans-Serif" font-size="10.00">QualityControl/TaskInterface.h</text>
</a>
</g>
</g>
<!-- Node2&#45;&gt;Node12 -->
<g id="edge11" class="edge"><title>Node2&#45;&gt;Node12</title>
<path fill="none" stroke="midnightblue" d="M795.692,-244.141C942.557,-233.163 1277.03,-208.162 1434.73,-196.374"/>
<polygon fill="midnightblue" stroke="midnightblue" points="1435.14,-199.853 1444.85,-195.617 1434.62,-192.872 1435.14,-199.853"/>
</g>
<!-- Node9&#45;&gt;Node10 -->
<g id="edge9" class="edge"><title>Node9&#45;&gt;Node10</title>
<path fill="none" stroke="midnightblue" d="M1031,-61.9751C1031,-53.5803 1031,-40.4806 1031,-29.6631"/>
<polygon fill="midnightblue" stroke="midnightblue" points="1034.5,-29.5091 1031,-19.5091 1027.5,-29.5091 1034.5,-29.5091"/>
</g>
<!-- Node11 -->
<g id="node11" class="node"><title>Node11</title>
<polygon fill="none" stroke="#bfbfbf" points="1253.5,-0.5 1253.5,-19.5 1336.5,-19.5 1336.5,-0.5 1253.5,-0.5"/>
<text text-anchor="middle" x="1295" y="-7.5" font-family="Helvetica,sans-Serif" font-size="10.00">unordered_map</text>
</g>
<!-- Node9&#45;&gt;Node11 -->
<g id="edge10" class="edge"><title>Node9&#45;&gt;Node11</title>
<path fill="none" stroke="midnightblue" d="M1068.82,-61.9751C1115.87,-51.3711 1196.23,-33.2602 1247.42,-21.7244"/>
<polygon fill="midnightblue" stroke="midnightblue" points="1248.26,-25.1222 1257.25,-19.5091 1246.72,-18.2934 1248.26,-25.1222"/>
</g>
<!-- Node12&#45;&gt;Node10 -->
<g id="edge14" class="edge"><title>Node12&#45;&gt;Node10</title>
<path fill="none" stroke="midnightblue" d="M1444.57,-186.039C1326.08,-182.132 1102.17,-171.181 1028,-143 980.005,-124.764 926.2,-100.389 952,-56 962.41,-38.0899 982.909,-26.7164 1000.42,-19.8846"/>
<polygon fill="midnightblue" stroke="midnightblue" points="1002.04,-23.0239 1010.28,-16.3719 999.687,-16.4296 1002.04,-23.0239"/>
</g>
<!-- Node12&#45;&gt;Node11 -->
<g id="edge15" class="edge"><title>Node12&#45;&gt;Node11</title>
<path fill="none" stroke="midnightblue" d="M1595.24,-180.226C1644.22,-172.007 1694.78,-155.503 1670,-123 1633.4,-74.9796 1596.94,-103.981 1539,-87 1464.82,-65.2621 1378.6,-37.9133 1331.08,-22.6579"/>
<polygon fill="midnightblue" stroke="midnightblue" points="1331.86,-19.2311 1321.27,-19.5021 1329.72,-25.8951 1331.86,-19.2311"/>
</g>
<!-- Node13 -->
<g id="node13" class="node"><title>Node13</title>
<polygon fill="none" stroke="#bfbfbf" points="1700.5,-0.5 1700.5,-19.5 1735.5,-19.5 1735.5,-0.5 1700.5,-0.5"/>
<text text-anchor="middle" x="1718" y="-7.5" font-family="Helvetica,sans-Serif" font-size="10.00">map</text>
</g>
<!-- Node12&#45;&gt;Node13 -->
<g id="edge12" class="edge"><title>Node12&#45;&gt;Node13</title>
<path fill="none" stroke="midnightblue" d="M1588.8,-179.484C1634.47,-172.335 1688.74,-160.456 1704,-143 1731.59,-111.432 1727.04,-58.0651 1722.09,-29.827"/>
<polygon fill="midnightblue" stroke="midnightblue" points="1725.47,-28.849 1720.11,-19.7091 1718.6,-30.1956 1725.47,-28.849"/>
</g>
<!-- Node12&#45;&gt;Node14 -->
<g id="edge13" class="edge"><title>Node12&#45;&gt;Node14</title>
<path fill="none" stroke="midnightblue" d="M1595.08,-186.34C1640.7,-182.197 1698.36,-171.111 1742,-143 1761.98,-130.128 1776.67,-106.447 1785.02,-90.1059"/>
<polygon fill="midnightblue" stroke="midnightblue" points="1788.2,-91.5698 1789.39,-81.0423 1781.89,-88.5287 1788.2,-91.5698"/>
</g>
<!-- Node15 -->
<g id="node15" class="node"><title>Node15</title>
<polygon fill="none" stroke="#bfbfbf" points="1216.5,-123.5 1216.5,-142.5 1341.5,-142.5 1341.5,-123.5 1216.5,-123.5"/>
<text text-anchor="middle" x="1279" y="-130.5" font-family="Helvetica,sans-Serif" font-size="10.00">Framework/InitContext.h</text>
</g>
<!-- Node12&#45;&gt;Node15 -->
<g id="edge16" class="edge"><title>Node12&#45;&gt;Node15</title>
<path fill="none" stroke="midnightblue" d="M1481.81,-179.444C1439.86,-170.043 1372.41,-154.929 1326.93,-144.739"/>
<polygon fill="midnightblue" stroke="midnightblue" points="1327.53,-141.288 1317.01,-142.516 1326,-148.118 1327.53,-141.288"/>
</g>
<!-- Node16 -->
<g id="node16" class="node"><title>Node16</title>
<polygon fill="none" stroke="#bfbfbf" points="1360,-123.5 1360,-142.5 1520,-142.5 1520,-123.5 1360,-123.5"/>
<text text-anchor="middle" x="1440" y="-130.5" font-family="Helvetica,sans-Serif" font-size="10.00">Framework/ProcessingContext.h</text>
</g>
<!-- Node12&#45;&gt;Node16 -->
<g id="edge17" class="edge"><title>Node12&#45;&gt;Node16</title>
<path fill="none" stroke="midnightblue" d="M1507.15,-179.324C1494.78,-170.979 1475.87,-158.212 1461.26,-148.352"/>
<polygon fill="midnightblue" stroke="midnightblue" points="1463.07,-145.348 1452.82,-142.655 1459.15,-151.15 1463.07,-145.348"/>
</g>
<!-- Node17 -->
<g id="node17" class="node"><title>Node17</title>
<g id="a_node17"><a xlink:href="Activity_8h.html" target="_top" xlink:title="QualityControl/Activity.h">
<polygon fill="none" stroke="black" points="1538.5,-123.5 1538.5,-142.5 1661.5,-142.5 1661.5,-123.5 1538.5,-123.5"/>
<text text-anchor="middle" x="1600" y="-130.5" font-family="Helvetica,sans-Serif" font-size="10.00">QualityControl/Activity.h</text>
</a>
</g>
</g>
<!-- Node12&#45;&gt;Node17 -->
<g id="edge18" class="edge"><title>Node12&#45;&gt;Node17</title>
<path fill="none" stroke="midnightblue" d="M1532.85,-179.324C1545.22,-170.979 1564.13,-158.212 1578.74,-148.352"/>
<polygon fill="midnightblue" stroke="midnightblue" points="1580.85,-151.15 1587.18,-142.655 1576.93,-145.348 1580.85,-151.15"/>
</g>
<!-- Node18 -->
<g id="node18" class="node"><title>Node18</title>
<g id="a_node18"><a xlink:href="ObjectsManager_8h.html" target="_top" xlink:title="QualityControl/ObjectsManager.h">
<polygon fill="none" stroke="black" points="1037.5,-123.5 1037.5,-142.5 1198.5,-142.5 1198.5,-123.5 1037.5,-123.5"/>
<text text-anchor="middle" x="1118" y="-130.5" font-family="Helvetica,sans-Serif" font-size="10.00">QualityControl/ObjectsManager.h</text>
</a>
</g>
</g>
<!-- Node12&#45;&gt;Node18 -->
<g id="edge19" class="edge"><title>Node12&#45;&gt;Node18</title>
<path fill="none" stroke="midnightblue" d="M1456.3,-179.444C1384.26,-169.767 1267.15,-154.035 1191.35,-143.853"/>
<polygon fill="midnightblue" stroke="midnightblue" points="1191.78,-140.379 1181.4,-142.516 1190.85,-147.317 1191.78,-140.379"/>
</g>
<!-- Node18&#45;&gt;Node9 -->
<g id="edge29" class="edge"><title>Node18&#45;&gt;Node9</title>
<path fill="none" stroke="midnightblue" d="M1105.54,-123.475C1091.58,-113.931 1068.74,-98.3073 1052.01,-86.8683"/>
<polygon fill="midnightblue" stroke="midnightblue" points="1053.67,-83.7653 1043.44,-81.0091 1049.72,-89.5433 1053.67,-83.7653"/>
</g>
<!-- Node18&#45;&gt;Node10 -->
<g id="edge30" class="edge"><title>Node18&#45;&gt;Node10</title>
<path fill="none" stroke="midnightblue" d="M1119.5,-123.181C1121.56,-108.079 1123.65,-76.878 1110,-56 1098.74,-38.7706 1078.45,-27.4176 1061.25,-20.4248"/>
<polygon fill="midnightblue" stroke="midnightblue" points="1062.17,-17.0308 1051.58,-16.8 1059.72,-23.5859 1062.17,-17.0308"/>
</g>
<!-- Node18&#45;&gt;Node14 -->
<g id="edge31" class="edge"><title>Node18&#45;&gt;Node14</title>
<path fill="none" stroke="midnightblue" d="M1198.52,-123.752C1201.38,-123.492 1204.21,-123.241 1207,-123 1429.41,-103.768 1486.37,-113.802 1708,-87 1724.06,-85.0578 1741.71,-82.1716 1756.74,-79.4845"/>
<polygon fill="midnightblue" stroke="midnightblue" points="1757.47,-82.9093 1766.68,-77.67 1756.21,-76.0231 1757.47,-82.9093"/>
</g>
<!-- Node19 -->
<g id="node19" class="node"><title>Node19</title>
<g id="a_node19"><a xlink:href="MonitorObject_8h.html" target="_top" xlink:title="QualityControl/MonitorObject.h">
<polygon fill="none" stroke="black" points="1548.5,-62 1548.5,-81 1699.5,-81 1699.5,-62 1548.5,-62"/>
<text text-anchor="middle" x="1624" y="-69" font-family="Helvetica,sans-Serif" font-size="10.00">QualityControl/MonitorObject.h</text>
</a>
</g>
</g>
<!-- Node18&#45;&gt;Node19 -->
<g id="edge20" class="edge"><title>Node18&#45;&gt;Node19</title>
<path fill="none" stroke="midnightblue" d="M1190.5,-123.475C1283.4,-112.551 1444.06,-93.6592 1541.53,-82.1974"/>
<polygon fill="midnightblue" stroke="midnightblue" points="1542.11,-85.6531 1551.64,-81.0091 1541.3,-78.701 1542.11,-85.6531"/>
</g>
<!-- Node23 -->
<g id="node23" class="node"><title>Node23</title>
<g id="a_node23"><a xlink:href="MonitorObjectCollection_8h.html" target="_top" xlink:title="QualityControl/MonitorObject\lCollection.h">
<polygon fill="none" stroke="black" points="723.5,-56.5 723.5,-86.5 866.5,-86.5 866.5,-56.5 723.5,-56.5"/>
<text text-anchor="start" x="731.5" y="-74.5" font-family="Helvetica,sans-Serif" font-size="10.00">QualityControl/MonitorObject</text>
<text text-anchor="middle" x="795" y="-63.5" font-family="Helvetica,sans-Serif" font-size="10.00">Collection.h</text>
</a>
</g>
</g>
<!-- Node18&#45;&gt;Node23 -->
<g id="edge26" class="edge"><title>Node18&#45;&gt;Node23</title>
<path fill="none" stroke="midnightblue" d="M1071.72,-123.475C1020.91,-114.115 938.349,-98.9064 876.61,-87.5333"/>
<polygon fill="midnightblue" stroke="midnightblue" points="876.97,-84.0409 866.501,-85.6712 875.701,-90.925 876.97,-84.0409"/>
</g>
<!-- Node19&#45;&gt;Node10 -->
<g id="edge21" class="edge"><title>Node19&#45;&gt;Node10</title>
<path fill="none" stroke="midnightblue" d="M1548.29,-62.9038C1416.88,-49.7178 1151.95,-23.1359 1061.83,-14.0931"/>
<polygon fill="midnightblue" stroke="midnightblue" points="1062.02,-10.5953 1051.72,-13.0794 1061.32,-17.5603 1062.02,-10.5953"/>
</g>
<!-- Node19&#45;&gt;Node13 -->
<g id="edge22" class="edge"><title>Node19&#45;&gt;Node13</title>
<path fill="none" stroke="midnightblue" d="M1637.47,-61.9751C1652.68,-52.3431 1677.69,-36.5175 1695.8,-25.0517"/>
<polygon fill="midnightblue" stroke="midnightblue" points="1697.98,-27.8149 1704.56,-19.5091 1694.24,-21.9002 1697.98,-27.8149"/>
</g>
<!-- Node20 -->
<g id="node20" class="node"><title>Node20</title>
<polygon fill="none" stroke="#bfbfbf" points="1606,-0.5 1606,-19.5 1662,-19.5 1662,-0.5 1606,-0.5"/>
<text text-anchor="middle" x="1634" y="-7.5" font-family="Helvetica,sans-Serif" font-size="10.00">Rtypes.h</text>
</g>
<!-- Node19&#45;&gt;Node20 -->
<g id="edge23" class="edge"><title>Node19&#45;&gt;Node20</title>
<path fill="none" stroke="midnightblue" d="M1625.43,-61.9751C1626.84,-53.5803 1629.05,-40.4806 1630.86,-29.6631"/>
<polygon fill="midnightblue" stroke="midnightblue" points="1634.36,-29.9509 1632.57,-19.5091 1627.46,-28.7906 1634.36,-29.9509"/>
</g>
<!-- Node21 -->
<g id="node21" class="node"><title>Node21</title>
<polygon fill="none" stroke="#bfbfbf" points="1528.5,-0.5 1528.5,-19.5 1587.5,-19.5 1587.5,-0.5 1528.5,-0.5"/>
<text text-anchor="middle" x="1558" y="-7.5" font-family="Helvetica,sans-Serif" font-size="10.00">TObject.h</text>
</g>
<!-- Node19&#45;&gt;Node21 -->
<g id="edge24" class="edge"><title>Node19&#45;&gt;Node21</title>
<path fill="none" stroke="midnightblue" d="M1614.54,-61.9751C1604.25,-52.6966 1587.58,-37.6706 1575.01,-26.331"/>
<polygon fill="midnightblue" stroke="midnightblue" points="1577.21,-23.6054 1567.44,-19.5091 1572.52,-28.8046 1577.21,-23.6054"/>
</g>
<!-- Node19&#45;&gt;Node22 -->
<g id="edge25" class="edge"><title>Node19&#45;&gt;Node22</title>
<path fill="none" stroke="midnightblue" d="M1656.52,-61.9751C1696.56,-51.4815 1764.64,-33.6367 1808.7,-22.087"/>
<polygon fill="midnightblue" stroke="midnightblue" points="1809.75,-25.4303 1818.54,-19.5091 1807.98,-18.659 1809.75,-25.4303"/>
</g>
<!-- Node24 -->
<g id="node24" class="node"><title>Node24</title>
<polygon fill="none" stroke="#bfbfbf" points="702.5,-0.5 702.5,-19.5 771.5,-19.5 771.5,-0.5 702.5,-0.5"/>
<text text-anchor="middle" x="737" y="-7.5" font-family="Helvetica,sans-Serif" font-size="10.00">TObjArray.h</text>
</g>
<!-- Node23&#45;&gt;Node24 -->
<g id="edge27" class="edge"><title>Node23&#45;&gt;Node24</title>
<path fill="none" stroke="midnightblue" d="M781.255,-56.3993C772.653,-47.575 761.548,-36.1827 752.614,-27.0178"/>
<polygon fill="midnightblue" stroke="midnightblue" points="754.926,-24.3755 745.44,-19.6578 749.914,-29.2616 754.926,-24.3755"/>
</g>
<!-- Node25 -->
<g id="node25" class="node"><title>Node25</title>
<polygon fill="none" stroke="#bfbfbf" points="790,-0.5 790,-19.5 918,-19.5 918,-0.5 790,-0.5"/>
<text text-anchor="middle" x="854" y="-7.5" font-family="Helvetica,sans-Serif" font-size="10.00">Mergers/MergeInterface.h</text>
</g>
<!-- Node23&#45;&gt;Node25 -->
<g id="edge28" class="edge"><title>Node23&#45;&gt;Node25</title>
<path fill="none" stroke="midnightblue" d="M808.982,-56.3993C817.732,-47.575 829.029,-36.1827 838.117,-27.0178"/>
<polygon fill="midnightblue" stroke="midnightblue" points="840.859,-29.2231 845.415,-19.6578 835.888,-24.2942 840.859,-29.2231"/>
</g>
<!-- Node35 -->
<g id="node35" class="node"><title>Node35</title>
<polygon fill="none" stroke="#bfbfbf" points="3198,-179.5 3198,-198.5 3328,-198.5 3328,-179.5 3198,-179.5"/>
<text text-anchor="middle" x="3263" y="-186.5" font-family="Helvetica,sans-Serif" font-size="10.00">InfoLogger/InfoLogger.hxx</text>
</g>
<!-- Node34&#45;&gt;Node35 -->
<g id="edge43" class="edge"><title>Node34&#45;&gt;Node35</title>
<path fill="none" stroke="midnightblue" d="M3263,-240.975C3263,-232.58 3263,-219.481 3263,-208.663"/>
<polygon fill="midnightblue" stroke="midnightblue" points="3266.5,-208.509 3263,-198.509 3259.5,-208.509 3266.5,-208.509"/>
</g>
<!-- Node36&#45;&gt;Node9 -->
<g id="edge46" class="edge"><title>Node36&#45;&gt;Node9</title>
<path fill="none" stroke="midnightblue" d="M1517.36,-246.813C1379.76,-240.034 1089.37,-217.088 1028,-143 1016.06,-128.589 1019.44,-106.275 1024.1,-90.6208"/>
<polygon fill="midnightblue" stroke="midnightblue" points="1027.46,-91.6202 1027.37,-81.0258 1020.83,-89.3663 1027.46,-91.6202"/>
</g>
<!-- Node36&#45;&gt;Node12 -->
<g id="edge47" class="edge"><title>Node36&#45;&gt;Node12</title>
<path fill="none" stroke="midnightblue" d="M1579.97,-240.975C1568.95,-231.608 1551.04,-216.384 1537.66,-205.008"/>
<polygon fill="midnightblue" stroke="midnightblue" points="1539.9,-202.319 1530.01,-198.509 1535.36,-207.652 1539.9,-202.319"/>
</g>
<!-- Node36&#45;&gt;Node14 -->
<g id="edge45" class="edge"><title>Node36&#45;&gt;Node14</title>
<path fill="none" stroke="midnightblue" d="M1614.45,-240.913C1652.3,-226.438 1725.05,-193.703 1767,-143 1779.45,-127.956 1786.23,-106.405 1789.71,-91.0977"/>
<polygon fill="midnightblue" stroke="midnightblue" points="1793.15,-91.7321 1791.7,-81.2374 1786.29,-90.3479 1793.15,-91.7321"/>
</g>
</g>
</svg>
