<?xml version="1.0" encoding="UTF-8" standalone="no"?>
<!DOCTYPE svg PUBLIC "-//W3C//DTD SVG 1.1//EN"
 "http://www.w3.org/Graphics/SVG/1.1/DTD/svg11.dtd">
<!-- Generated by graphviz version 2.38.0 (20140413.2041)
 -->
<!-- Title: Framework/src/TaskInterface.cxx Pages: 1 -->
<!--zoomable 263 -->
<svg id="main" version="1.1" xmlns="http://www.w3.org/2000/svg" xmlns:xlink="http://www.w3.org/1999/xlink" xml:space="preserve" onload="init(evt)">
<style type="text/css"><![CDATA[
.edge:hover path { stroke: red; }
.edge:hover polygon { stroke: red; fill: red; }
]]></style>
<script type="text/javascript"><![CDATA[
var edges = document.getElementsByTagName('g');
if (edges && edges.length) {
  for (var i=0;i<edges.length;i++) {
    if (edges[i].id.substr(0,4)=='edge') {
      edges[i].setAttribute('class','edge');
    }
  }
}
]]></script>
        <defs>
                <circle id="rim" cx="0" cy="0" r="7"/>
                <circle id="rim2" cx="0" cy="0" r="3.5"/>
                <g id="zoomPlus">
                        <use xlink:href="#rim" fill="#404040">
                                <set attributeName="fill" to="#808080" begin="zoomplus.mouseover" end="zoomplus.mouseout"/>
                        </use>
                        <path d="M-4,0h8M0,-4v8" fill="none" stroke="white" stroke-width="1.5" pointer-events="none"/>
                </g>
                <g id="zoomMin">
                        <use xlink:href="#rim" fill="#404040">
                                <set attributeName="fill" to="#808080" begin="zoomminus.mouseover" end="zoomminus.mouseout"/>
                        </use>
                        <path d="M-4,0h8" fill="none" stroke="white" stroke-width="1.5" pointer-events="none"/>
                </g>
                <g id="dirArrow">
                        <path fill="none" stroke="white" stroke-width="1.5" d="M0,-3.0v7 M-2.5,-0.5L0,-3.0L2.5,-0.5"/>
                </g>
               <g id="resetDef">
                       <use xlink:href="#rim2" fill="#404040">
                               <set attributeName="fill" to="#808080" begin="reset.mouseover" end="reset.mouseout"/>
                       </use>
               </g>
        </defs>

<script type="text/javascript">
var viewWidth = 983;
var viewHeight = 263;
var sectionId = 'dynsection-0';
</script>
<script xlink:href="svgpan.js"/>
<svg id="graph" class="graph">
<g id="viewport">
<title>Framework/src/TaskInterface.cxx</title>
<!-- Node1 -->
<g id="node1" class="node"><title>Node1</title>
<polygon fill="#bfbfbf" stroke="black" points="705.5,-235.5 705.5,-254.5 869.5,-254.5 869.5,-235.5 705.5,-235.5"/>
<text text-anchor="middle" x="787.5" y="-242.5" font-family="Helvetica,sans-Serif" font-size="10.00">Framework/src/TaskInterface.cxx</text>
</g>
<!-- Node2 -->
<g id="node2" class="node"><title>Node2</title>
<g id="a_node2"><a xlink:href="TaskInterface_8h.html" target="_top" xlink:title="QualityControl/TaskInterface.h">
<polygon fill="none" stroke="black" points="438.5,-179.5 438.5,-198.5 588.5,-198.5 588.5,-179.5 438.5,-179.5"/>
<text text-anchor="middle" x="513.5" y="-186.5" font-family="Helvetica,sans-Serif" font-size="10.00">QualityControl/TaskInterface.h</text>
</a>
</g>
</g>
<!-- Node1&#45;&gt;Node2 -->
<g id="edge1" class="edge"><title>Node1&#45;&gt;Node2</title>
<path fill="none" stroke="midnightblue" d="M744.084,-235.444C695.985,-225.964 618.405,-210.675 566.694,-200.483"/>
<polygon fill="midnightblue" stroke="midnightblue" points="567.201,-197.016 556.713,-198.516 565.847,-203.884 567.201,-197.016"/>
</g>
<!-- Node19 -->
<g id="node19" class="node"><title>Node19</title>
<g id="a_node19"><a xlink:href="QcInfoLogger_8h.html" target="_top" xlink:title="QualityControl/QcInfoLogger.h">
<polygon fill="none" stroke="black" points="713,-179.5 713,-198.5 862,-198.5 862,-179.5 713,-179.5"/>
<text text-anchor="middle" x="787.5" y="-186.5" font-family="Helvetica,sans-Serif" font-size="10.00">QualityControl/QcInfoLogger.h</text>
</a>
</g>
</g>
<!-- Node1&#45;&gt;Node19 -->
<g id="edge24" class="edge"><title>Node1&#45;&gt;Node19</title>
<path fill="none" stroke="midnightblue" d="M787.5,-235.083C787.5,-228.006 787.5,-217.861 787.5,-208.986"/>
<polygon fill="midnightblue" stroke="midnightblue" points="791,-208.751 787.5,-198.751 784,-208.751 791,-208.751"/>
</g>
<!-- Node21 -->
<g id="node21" class="node"><title>Node21</title>
<polygon fill="none" stroke="#bfbfbf" points="880,-179.5 880,-198.5 975,-198.5 975,-179.5 880,-179.5"/>
<text text-anchor="middle" x="927.5" y="-186.5" font-family="Helvetica,sans-Serif" font-size="10.00">CCDB/CcdbApi.h</text>
</g>
<!-- Node1&#45;&gt;Node21 -->
<g id="edge26" class="edge"><title>Node1&#45;&gt;Node21</title>
<path fill="none" stroke="midnightblue" d="M809.683,-235.444C832.928,-226.478 869.649,-212.314 895.915,-202.183"/>
<polygon fill="midnightblue" stroke="midnightblue" points="897.35,-205.381 905.42,-198.516 894.831,-198.85 897.35,-205.381"/>
</g>
<!-- Node3 -->
<g id="node3" class="node"><title>Node3</title>
<polygon fill="none" stroke="#bfbfbf" points="784,-0.5 784,-19.5 819,-19.5 819,-0.5 784,-0.5"/>
<text text-anchor="middle" x="801.5" y="-7.5" font-family="Helvetica,sans-Serif" font-size="10.00">map</text>
</g>
<!-- Node2&#45;&gt;Node3 -->
<g id="edge2" class="edge"><title>Node2&#45;&gt;Node3</title>
<path fill="none" stroke="midnightblue" d="M588.545,-182.422C651.412,-176.318 734.872,-164.417 760.5,-143 794.312,-114.744 800.713,-59.1097 801.629,-29.9106"/>
<polygon fill="midnightblue" stroke="midnightblue" points="805.13,-29.849 801.756,-19.806 798.131,-29.7614 805.13,-29.849"/>
</g>
<!-- Node4 -->
<g id="node4" class="node"><title>Node4</title>
<polygon fill="none" stroke="#bfbfbf" points="57.5,-62 57.5,-81 109.5,-81 109.5,-62 57.5,-62"/>
<text text-anchor="middle" x="83.5" y="-69" font-family="Helvetica,sans-Serif" font-size="10.00">memory</text>
</g>
<!-- Node2&#45;&gt;Node4 -->
<g id="edge3" class="edge"><title>Node2&#45;&gt;Node4</title>
<path fill="none" stroke="midnightblue" d="M438.167,-184.373C326.211,-178.301 126.361,-164.577 101.5,-143 86.914,-130.341 83.3301,-107.656 82.8093,-91.4366"/>
<polygon fill="midnightblue" stroke="midnightblue" points="86.3112,-91.0209 82.8579,-81.0046 79.3113,-90.9882 86.3112,-91.0209"/>
</g>
<!-- Node5 -->
<g id="node5" class="node"><title>Node5</title>
<polygon fill="none" stroke="#bfbfbf" points="438,-0.5 438,-19.5 479,-19.5 479,-0.5 438,-0.5"/>
<text text-anchor="middle" x="458.5" y="-7.5" font-family="Helvetica,sans-Serif" font-size="10.00">string</text>
</g>
<!-- Node2&#45;&gt;Node5 -->
<g id="edge4" class="edge"><title>Node2&#45;&gt;Node5</title>
<path fill="none" stroke="midnightblue" d="M588.575,-183.415C647.969,-178.035 724.039,-166.637 743.5,-143 749.15,-136.138 748.889,-130.069 743.5,-123 706.896,-74.9796 668.939,-108.458 612.5,-87 564.721,-68.8348 511.867,-40.9137 482.166,-24.4511"/>
<polygon fill="midnightblue" stroke="midnightblue" points="483.808,-21.3596 473.372,-19.5357 480.393,-27.4699 483.808,-21.3596"/>
</g>
<!-- Node6 -->
<g id="node6" class="node"><title>Node6</title>
<polygon fill="none" stroke="#bfbfbf" points="0,-0.5 0,-19.5 83,-19.5 83,-0.5 0,-0.5"/>
<text text-anchor="middle" x="41.5" y="-7.5" font-family="Helvetica,sans-Serif" font-size="10.00">unordered_map</text>
</g>
<!-- Node2&#45;&gt;Node6 -->
<g id="edge5" class="edge"><title>Node2&#45;&gt;Node6</title>
<path fill="none" stroke="midnightblue" d="M438.372,-187.694C331.744,-185.997 143.052,-177.957 85.5,-143 47.0546,-119.648 41.2585,-60.428 40.9555,-29.875"/>
<polygon fill="midnightblue" stroke="midnightblue" points="44.4569,-29.7361 41.0517,-19.7034 37.4572,-29.6698 44.4569,-29.7361"/>
</g>
<!-- Node7 -->
<g id="node7" class="node"><title>Node7</title>
<polygon fill="none" stroke="#bfbfbf" points="290,-123.5 290,-142.5 415,-142.5 415,-123.5 290,-123.5"/>
<text text-anchor="middle" x="352.5" y="-130.5" font-family="Helvetica,sans-Serif" font-size="10.00">Framework/InitContext.h</text>
</g>
<!-- Node2&#45;&gt;Node7 -->
<g id="edge6" class="edge"><title>Node2&#45;&gt;Node7</title>
<path fill="none" stroke="midnightblue" d="M487.989,-179.444C460.904,-170.359 417.91,-155.939 387.631,-145.783"/>
<polygon fill="midnightblue" stroke="midnightblue" points="388.486,-142.378 377.892,-142.516 386.26,-149.015 388.486,-142.378"/>
</g>
<!-- Node8 -->
<g id="node8" class="node"><title>Node8</title>
<polygon fill="none" stroke="#bfbfbf" points="433.5,-123.5 433.5,-142.5 593.5,-142.5 593.5,-123.5 433.5,-123.5"/>
<text text-anchor="middle" x="513.5" y="-130.5" font-family="Helvetica,sans-Serif" font-size="10.00">Framework/ProcessingContext.h</text>
</g>
<!-- Node2&#45;&gt;Node8 -->
<g id="edge7" class="edge"><title>Node2&#45;&gt;Node8</title>
<path fill="none" stroke="midnightblue" d="M513.5,-179.083C513.5,-172.006 513.5,-161.861 513.5,-152.986"/>
<polygon fill="midnightblue" stroke="midnightblue" points="517,-152.751 513.5,-142.751 510,-152.751 517,-152.751"/>
</g>
<!-- Node9 -->
<g id="node9" class="node"><title>Node9</title>
<g id="a_node9"><a xlink:href="Activity_8h.html" target="_top" xlink:title="QualityControl/Activity.h">
<polygon fill="none" stroke="black" points="612,-123.5 612,-142.5 735,-142.5 735,-123.5 612,-123.5"/>
<text text-anchor="middle" x="673.5" y="-130.5" font-family="Helvetica,sans-Serif" font-size="10.00">QualityControl/Activity.h</text>
</a>
</g>
</g>
<!-- Node2&#45;&gt;Node9 -->
<g id="edge8" class="edge"><title>Node2&#45;&gt;Node9</title>
<path fill="none" stroke="midnightblue" d="M538.852,-179.444C565.769,-170.359 608.496,-155.939 638.587,-145.783"/>
<polygon fill="midnightblue" stroke="midnightblue" points="639.91,-149.031 648.266,-142.516 637.672,-142.398 639.91,-149.031"/>
</g>
<!-- Node10 -->
<g id="node10" class="node"><title>Node10</title>
<g id="a_node10"><a xlink:href="ObjectsManager_8h.html" target="_top" xlink:title="QualityControl/ObjectsManager.h">
<polygon fill="none" stroke="black" points="111,-123.5 111,-142.5 272,-142.5 272,-123.5 111,-123.5"/>
<text text-anchor="middle" x="191.5" y="-130.5" font-family="Helvetica,sans-Serif" font-size="10.00">QualityControl/ObjectsManager.h</text>
</a>
</g>
</g>
<!-- Node2&#45;&gt;Node10 -->
<g id="edge9" class="edge"><title>Node2&#45;&gt;Node10</title>
<path fill="none" stroke="midnightblue" d="M462.478,-179.444C405.482,-169.885 313.261,-154.419 252.5,-144.23"/>
<polygon fill="midnightblue" stroke="midnightblue" points="252.724,-140.719 242.283,-142.516 251.567,-147.622 252.724,-140.719"/>
</g>
<!-- Node10&#45;&gt;Node4 -->
<g id="edge23" class="edge"><title>Node10&#45;&gt;Node4</title>
<path fill="none" stroke="midnightblue" d="M176.026,-123.475C158.222,-113.666 128.759,-97.4346 107.868,-85.925"/>
<polygon fill="midnightblue" stroke="midnightblue" points="109.393,-82.769 98.9451,-81.0091 106.015,-88.9001 109.393,-82.769"/>
</g>
<!-- Node10&#45;&gt;Node5 -->
<g id="edge22" class="edge"><title>Node10&#45;&gt;Node5</title>
<path fill="none" stroke="midnightblue" d="M258.878,-123.488C327.407,-114.24 425.366,-99.1587 438.5,-87 454.269,-72.4022 458.205,-46.9995 458.899,-29.6125"/>
<polygon fill="midnightblue" stroke="midnightblue" points="462.4,-29.5658 458.979,-19.5383 455.4,-29.5102 462.4,-29.5658"/>
</g>
<!-- Node11 -->
<g id="node11" class="node"><title>Node11</title>
<g id="a_node11"><a xlink:href="MonitorObject_8h.html" target="_top" xlink:title="QualityControl/MonitorObject.h">
<polygon fill="none" stroke="black" points="622,-62 622,-81 773,-81 773,-62 622,-62"/>
<text text-anchor="middle" x="697.5" y="-69" font-family="Helvetica,sans-Serif" font-size="10.00">QualityControl/MonitorObject.h</text>
</a>
</g>
</g>
<!-- Node10&#45;&gt;Node11 -->
<g id="edge10" class="edge"><title>Node10&#45;&gt;Node11</title>
<path fill="none" stroke="midnightblue" d="M263.997,-123.475C356.9,-112.551 517.558,-93.6592 615.032,-82.1974"/>
<polygon fill="midnightblue" stroke="midnightblue" points="615.614,-85.6531 625.137,-81.0091 614.797,-78.701 615.614,-85.6531"/>
</g>
<!-- Node15 -->
<g id="node15" class="node"><title>Node15</title>
<g id="a_node15"><a xlink:href="MonitorObjectCollection_8h.html" target="_top" xlink:title="QualityControl/MonitorObject\lCollection.h">
<polygon fill="none" stroke="black" points="128,-56.5 128,-86.5 271,-86.5 271,-56.5 128,-56.5"/>
<text text-anchor="start" x="136" y="-74.5" font-family="Helvetica,sans-Serif" font-size="10.00">QualityControl/MonitorObject</text>
<text text-anchor="middle" x="199.5" y="-63.5" font-family="Helvetica,sans-Serif" font-size="10.00">Collection.h</text>
</a>
</g>
</g>
<!-- Node10&#45;&gt;Node15 -->
<g id="edge16" class="edge"><title>Node10&#45;&gt;Node15</title>
<path fill="none" stroke="midnightblue" d="M192.646,-123.475C193.588,-116.471 194.97,-106.192 196.247,-96.6956"/>
<polygon fill="midnightblue" stroke="midnightblue" points="199.751,-96.9002 197.615,-86.523 192.813,-95.9674 199.751,-96.9002"/>
</g>
<!-- Node18 -->
<g id="node18" class="node"><title>Node18</title>
<g id="a_node18"><a xlink:href="TaskConfig_8h.html" target="_top" xlink:title="QualityControl/TaskConfig.h">
<polygon fill="none" stroke="black" points="289.5,-62 289.5,-81 429.5,-81 429.5,-62 289.5,-62"/>
<text text-anchor="middle" x="359.5" y="-69" font-family="Helvetica,sans-Serif" font-size="10.00">QualityControl/TaskConfig.h</text>
</a>
</g>
</g>
<!-- Node10&#45;&gt;Node18 -->
<g id="edge19" class="edge"><title>Node10&#45;&gt;Node18</title>
<path fill="none" stroke="midnightblue" d="M215.57,-123.475C244.513,-113.225 293.262,-95.9593 325.902,-84.3994"/>
<polygon fill="midnightblue" stroke="midnightblue" points="327.217,-87.6468 335.474,-81.0091 324.88,-81.0484 327.217,-87.6468"/>
</g>
<!-- Node11&#45;&gt;Node3 -->
<g id="edge12" class="edge"><title>Node11&#45;&gt;Node3</title>
<path fill="none" stroke="midnightblue" d="M712.401,-61.9751C729.468,-52.2106 757.661,-36.0807 777.762,-24.5808"/>
<polygon fill="midnightblue" stroke="midnightblue" points="779.685,-27.513 786.627,-19.5091 776.209,-21.4371 779.685,-27.513"/>
</g>
<!-- Node11&#45;&gt;Node5 -->
<g id="edge11" class="edge"><title>Node11&#45;&gt;Node5</title>
<path fill="none" stroke="midnightblue" d="M659.586,-61.992C619.56,-52.8654 554.422,-37.6042 488.798,-19.9644"/>
<polygon fill="midnightblue" stroke="midnightblue" points="489.682,-16.5778 479.115,-17.345 487.854,-23.335 489.682,-16.5778"/>
</g>
<!-- Node12 -->
<g id="node12" class="node"><title>Node12</title>
<polygon fill="none" stroke="#bfbfbf" points="709.5,-0.5 709.5,-19.5 765.5,-19.5 765.5,-0.5 709.5,-0.5"/>
<text text-anchor="middle" x="737.5" y="-7.5" font-family="Helvetica,sans-Serif" font-size="10.00">Rtypes.h</text>
</g>
<!-- Node11&#45;&gt;Node12 -->
<g id="edge13" class="edge"><title>Node11&#45;&gt;Node12</title>
<path fill="none" stroke="midnightblue" d="M703.231,-61.9751C709.172,-53.1384 718.617,-39.0886 726.088,-27.975"/>
<polygon fill="midnightblue" stroke="midnightblue" points="729.105,-29.7608 731.78,-19.5091 723.296,-25.8554 729.105,-29.7608"/>
</g>
<!-- Node13 -->
<g id="node13" class="node"><title>Node13</title>
<polygon fill="none" stroke="#bfbfbf" points="498,-0.5 498,-19.5 557,-19.5 557,-0.5 498,-0.5"/>
<text text-anchor="middle" x="527.5" y="-7.5" font-family="Helvetica,sans-Serif" font-size="10.00">TObject.h</text>
</g>
<!-- Node11&#45;&gt;Node13 -->
<g id="edge14" class="edge"><title>Node11&#45;&gt;Node13</title>
<path fill="none" stroke="midnightblue" d="M673.143,-61.9751C643.856,-51.7246 594.526,-34.4593 561.498,-22.8994"/>
<polygon fill="midnightblue" stroke="midnightblue" points="562.407,-19.5091 551.812,-19.5091 560.094,-26.1162 562.407,-19.5091"/>
</g>
<!-- Node14 -->
<g id="node14" class="node"><title>Node14</title>
<polygon fill="none" stroke="#bfbfbf" points="575.5,-0.5 575.5,-19.5 691.5,-19.5 691.5,-0.5 575.5,-0.5"/>
<text text-anchor="middle" x="633.5" y="-7.5" font-family="Helvetica,sans-Serif" font-size="10.00">Common/Exceptions.h</text>
</g>
<!-- Node11&#45;&gt;Node14 -->
<g id="edge15" class="edge"><title>Node11&#45;&gt;Node14</title>
<path fill="none" stroke="midnightblue" d="M688.33,-61.9751C678.35,-52.6966 662.188,-37.6706 649.991,-26.331"/>
<polygon fill="midnightblue" stroke="midnightblue" points="652.36,-23.7547 642.653,-19.5091 647.593,-28.8814 652.36,-23.7547"/>
</g>
<!-- Node16 -->
<g id="node16" class="node"><title>Node16</title>
<polygon fill="none" stroke="#bfbfbf" points="259,-0.5 259,-19.5 328,-19.5 328,-0.5 259,-0.5"/>
<text text-anchor="middle" x="293.5" y="-7.5" font-family="Helvetica,sans-Serif" font-size="10.00">TObjArray.h</text>
</g>
<!-- Node15&#45;&gt;Node16 -->
<g id="edge17" class="edge"><title>Node15&#45;&gt;Node16</title>
<path fill="none" stroke="midnightblue" d="M221.777,-56.3993C236.703,-46.9511 256.281,-34.5589 271.21,-25.1089"/>
<polygon fill="midnightblue" stroke="midnightblue" points="273.245,-27.9636 279.822,-19.6578 269.501,-22.0489 273.245,-27.9636"/>
</g>
<!-- Node17 -->
<g id="node17" class="node"><title>Node17</title>
<polygon fill="none" stroke="#bfbfbf" points="112.5,-0.5 112.5,-19.5 240.5,-19.5 240.5,-0.5 112.5,-0.5"/>
<text text-anchor="middle" x="176.5" y="-7.5" font-family="Helvetica,sans-Serif" font-size="10.00">Mergers/MergeInterface.h</text>
</g>
<!-- Node15&#45;&gt;Node17 -->
<g id="edge18" class="edge"><title>Node15&#45;&gt;Node17</title>
<path fill="none" stroke="midnightblue" d="M194.049,-56.3993C190.879,-48.1989 186.852,-37.7809 183.456,-28.9936"/>
<polygon fill="midnightblue" stroke="midnightblue" points="186.717,-27.7232 179.847,-19.6578 180.188,-30.2471 186.717,-27.7232"/>
</g>
<!-- Node18&#45;&gt;Node5 -->
<g id="edge20" class="edge"><title>Node18&#45;&gt;Node5</title>
<path fill="none" stroke="midnightblue" d="M373.684,-61.9751C389.858,-52.2548 416.526,-36.2266 435.643,-24.7372"/>
<polygon fill="midnightblue" stroke="midnightblue" points="437.574,-27.6603 444.342,-19.5091 433.968,-21.6606 437.574,-27.6603"/>
</g>
<!-- Node18&#45;&gt;Node6 -->
<g id="edge21" class="edge"><title>Node18&#45;&gt;Node6</title>
<path fill="none" stroke="midnightblue" d="M313.938,-61.9751C255.454,-51.0323 154.245,-32.0954 93.0184,-20.6394"/>
<polygon fill="midnightblue" stroke="midnightblue" points="93.652,-17.1973 83.1789,-18.7984 92.3645,-24.0779 93.652,-17.1973"/>
</g>
<!-- Node20 -->
<g id="node20" class="node"><title>Node20</title>
<polygon fill="none" stroke="#bfbfbf" points="829.5,-123.5 829.5,-142.5 959.5,-142.5 959.5,-123.5 829.5,-123.5"/>
<text text-anchor="middle" x="894.5" y="-130.5" font-family="Helvetica,sans-Serif" font-size="10.00">InfoLogger/InfoLogger.hxx</text>
</g>
<!-- Node19&#45;&gt;Node20 -->
<g id="edge25" class="edge"><title>Node19&#45;&gt;Node20</title>
<path fill="none" stroke="midnightblue" d="M804.691,-179.324C821.851,-170.664 848.446,-157.242 868.247,-147.249"/>
<polygon fill="midnightblue" stroke="midnightblue" points="870.001,-150.285 877.351,-142.655 866.847,-144.035 870.001,-150.285"/>
</g>
</g>
</svg>
        <g id="navigator" transform="translate(0 0)" fill="#404254">
                <rect fill="#f2f5e9" fill-opacity="0.5" stroke="#606060" stroke-width=".5" x="0" y="0" width="60" height="60"/>
                <use id="zoomplus" xlink:href="#zoomPlus" x="17" y="9" onmousedown="handleZoom(evt,'in')"/>
                <use id="zoomminus" xlink:href="#zoomMin" x="42" y="9" onmousedown="handleZoom(evt,'out')"/>
                <use id="reset" xlink:href="#resetDef" x="30" y="36" onmousedown="handleReset()"/>
                <g id="arrowUp" xlink:href="#dirArrow" transform="translate(30 24)" onmousedown="handlePan(0,-1)">
                  <use xlink:href="#rim" fill="#404040">
                        <set attributeName="fill" to="#808080" begin="arrowUp.mouseover" end="arrowUp.mouseout"/>
                  </use>
                  <path fill="none" stroke="white" stroke-width="1.5" d="M0,-3.0v7 M-2.5,-0.5L0,-3.0L2.5,-0.5"/>
                </g>
                <g id="arrowRight" xlink:href="#dirArrow" transform="rotate(90) translate(36 -43)" onmousedown="handlePan(1,0)">
                  <use xlink:href="#rim" fill="#404040">
                        <set attributeName="fill" to="#808080" begin="arrowRight.mouseover" end="arrowRight.mouseout"/>
                  </use>
                  <path fill="none" stroke="white" stroke-width="1.5" d="M0,-3.0v7 M-2.5,-0.5L0,-3.0L2.5,-0.5"/>
                </g>
                <g id="arrowDown" xlink:href="#dirArrow" transform="rotate(180) translate(-30 -48)" onmousedown="handlePan(0,1)">
                  <use xlink:href="#rim" fill="#404040">
                        <set attributeName="fill" to="#808080" begin="arrowDown.mouseover" end="arrowDown.mouseout"/>
                  </use>
                  <path fill="none" stroke="white" stroke-width="1.5" d="M0,-3.0v7 M-2.5,-0.5L0,-3.0L2.5,-0.5"/>
                </g>
                <g id="arrowLeft" xlink:href="#dirArrow" transform="rotate(270) translate(-36 17)" onmousedown="handlePan(-1,0)">
                  <use xlink:href="#rim" fill="#404040">
                        <set attributeName="fill" to="#808080" begin="arrowLeft.mouseover" end="arrowLeft.mouseout"/>
                  </use>
                  <path fill="none" stroke="white" stroke-width="1.5" d="M0,-3.0v7 M-2.5,-0.5L0,-3.0L2.5,-0.5"/>
                </g>
        </g>
        <svg viewBox="0 0 15 15" width="100%" height="30px" preserveAspectRatio="xMaxYMin meet">
         <g id="arrow_out" transform="scale(0.3 0.3)">
          <a xlink:href="TaskInterface_8cxx__incl_org.svg" target="_base">
           <rect id="button" ry="5" rx="5" y="6" x="6" height="38" width="38"
                fill="#f2f5e9" fill-opacity="0.5" stroke="#606060" stroke-width="1.0"/>
           <path id="arrow"
             d="M 11.500037,31.436501 C 11.940474,20.09759 22.043105,11.32322 32.158766,21.979434 L 37.068811,17.246167 C 37.068811,17.246167 37.088388,32 37.088388,32 L 22.160133,31.978069 C 22.160133,31.978069 26.997745,27.140456 26.997745,27.140456 C 18.528582,18.264221 13.291696,25.230495 11.500037,31.436501 z"
             style="fill:#404040;"/>
          </a>
         </g>
        </svg>
</svg>
