<?xml version="1.0" encoding="UTF-8" standalone="no"?>
<!DOCTYPE svg PUBLIC "-//W3C//DTD SVG 1.1//EN"
 "http://www.w3.org/Graphics/SVG/1.1/DTD/svg11.dtd">
<!-- Generated by graphviz version 2.38.0 (20140413.2041)
 -->
<!-- Title: Modules/Example/test/testQcExample.cxx Pages: 1 -->
<!--zoomable 341 -->
<svg id="main" version="1.1" xmlns="http://www.w3.org/2000/svg" xmlns:xlink="http://www.w3.org/1999/xlink" xml:space="preserve" onload="init(evt)">
<style type="text/css"><![CDATA[
.edge:hover path { stroke: red; }
.edge:hover polygon { stroke: red; fill: red; }
]]></style>
<script type="text/javascript"><![CDATA[
var edges = document.getElementsByTagName('g');
if (edges && edges.length) {
  for (var i=0;i<edges.length;i++) {
    if (edges[i].id.substr(0,4)=='edge') {
      edges[i].setAttribute('class','edge');
    }
  }
}
]]></script>
        <defs>
                <circle id="rim" cx="0" cy="0" r="7"/>
                <circle id="rim2" cx="0" cy="0" r="3.5"/>
                <g id="zoomPlus">
                        <use xlink:href="#rim" fill="#404040">
                                <set attributeName="fill" to="#808080" begin="zoomplus.mouseover" end="zoomplus.mouseout"/>
                        </use>
                        <path d="M-4,0h8M0,-4v8" fill="none" stroke="white" stroke-width="1.5" pointer-events="none"/>
                </g>
                <g id="zoomMin">
                        <use xlink:href="#rim" fill="#404040">
                                <set attributeName="fill" to="#808080" begin="zoomminus.mouseover" end="zoomminus.mouseout"/>
                        </use>
                        <path d="M-4,0h8" fill="none" stroke="white" stroke-width="1.5" pointer-events="none"/>
                </g>
                <g id="dirArrow">
                        <path fill="none" stroke="white" stroke-width="1.5" d="M0,-3.0v7 M-2.5,-0.5L0,-3.0L2.5,-0.5"/>
                </g>
               <g id="resetDef">
                       <use xlink:href="#rim2" fill="#404040">
                               <set attributeName="fill" to="#808080" begin="reset.mouseover" end="reset.mouseout"/>
                       </use>
               </g>
        </defs>

<script type="text/javascript">
var viewWidth = 1440;
var viewHeight = 341;
var sectionId = 'dynsection-0';
</script>
<script xlink:href="svgpan.js"/>
<svg id="graph" class="graph">
<g id="viewport">
<title>Modules/Example/test/testQcExample.cxx</title>
<!-- Node1 -->
<g id="node1" class="node"><title>Node1</title>
<polygon fill="#bfbfbf" stroke="black" points="1142.5,-302.5 1142.5,-332.5 1256.5,-332.5 1256.5,-302.5 1142.5,-302.5"/>
<text text-anchor="start" x="1150.5" y="-320.5" font-family="Helvetica,sans-Serif" font-size="10.00">Modules/Example/test</text>
<text text-anchor="middle" x="1199.5" y="-309.5" font-family="Helvetica,sans-Serif" font-size="10.00">/testQcExample.cxx</text>
</g>
<!-- Node2 -->
<g id="node2" class="node"><title>Node2</title>
<g id="a_node2"><a xlink:href="ExampleTask_8h.html" target="_top" xlink:title="../include/Example\l/ExampleTask.h">
<polygon fill="none" stroke="black" points="797.5,-235.5 797.5,-265.5 895.5,-265.5 895.5,-235.5 797.5,-235.5"/>
<text text-anchor="start" x="805.5" y="-253.5" font-family="Helvetica,sans-Serif" font-size="10.00">../include/Example</text>
<text text-anchor="middle" x="846.5" y="-242.5" font-family="Helvetica,sans-Serif" font-size="10.00">/ExampleTask.h</text>
</a>
</g>
</g>
<!-- Node1&#45;&gt;Node2 -->
<g id="edge1" class="edge"><title>Node1&#45;&gt;Node2</title>
<path fill="none" stroke="midnightblue" d="M1142.39,-305.984C1077.38,-294.013 971.682,-274.55 905.779,-262.415"/>
<polygon fill="midnightblue" stroke="midnightblue" points="906.025,-258.902 895.556,-260.533 904.757,-265.786 906.025,-258.902"/>
</g>
<!-- Node20 -->
<g id="node20" class="node"><title>Node20</title>
<g id="a_node20"><a xlink:href="TaskFactory_8h.html" target="_top" xlink:title="QualityControl/TaskFactory.h">
<polygon fill="none" stroke="black" points="1004,-241 1004,-260 1149,-260 1149,-241 1004,-241"/>
<text text-anchor="middle" x="1076.5" y="-248" font-family="Helvetica,sans-Serif" font-size="10.00">QualityControl/TaskFactory.h</text>
</a>
</g>
</g>
<!-- Node1&#45;&gt;Node20 -->
<g id="edge25" class="edge"><title>Node1&#45;&gt;Node20</title>
<path fill="none" stroke="midnightblue" d="M1172.81,-302.396C1151.61,-291.193 1122.18,-275.641 1101.45,-264.685"/>
<polygon fill="midnightblue" stroke="midnightblue" points="1103.07,-261.585 1092.6,-260.007 1099.8,-267.774 1103.07,-261.585"/>
</g>
<!-- Node21 -->
<g id="node21" class="node"><title>Node21</title>
<polygon fill="none" stroke="#bfbfbf" points="1167,-241 1167,-260 1232,-260 1232,-241 1167,-241"/>
<text text-anchor="middle" x="1199.5" y="-248" font-family="Helvetica,sans-Serif" font-size="10.00">TSystem.h</text>
</g>
<!-- Node1&#45;&gt;Node21 -->
<g id="edge29" class="edge"><title>Node1&#45;&gt;Node21</title>
<path fill="none" stroke="midnightblue" d="M1199.5,-302.396C1199.5,-293.064 1199.5,-280.714 1199.5,-270.517"/>
<polygon fill="midnightblue" stroke="midnightblue" points="1203,-270.195 1199.5,-260.195 1196,-270.195 1203,-270.195"/>
</g>
<!-- Node22 -->
<g id="node22" class="node"><title>Node22</title>
<polygon fill="none" stroke="#bfbfbf" points="1250,-241 1250,-260 1369,-260 1369,-241 1250,-241"/>
<text text-anchor="middle" x="1309.5" y="-248" font-family="Helvetica,sans-Serif" font-size="10.00">boost/test/unit_test.hpp</text>
</g>
<!-- Node1&#45;&gt;Node22 -->
<g id="edge30" class="edge"><title>Node1&#45;&gt;Node22</title>
<path fill="none" stroke="midnightblue" d="M1223.37,-302.396C1242.07,-291.344 1267.94,-276.061 1286.43,-265.132"/>
<polygon fill="midnightblue" stroke="midnightblue" points="1288.27,-268.108 1295.1,-260.007 1284.71,-262.081 1288.27,-268.108"/>
</g>
<!-- Node23 -->
<g id="node23" class="node"><title>Node23</title>
<polygon fill="none" stroke="#bfbfbf" points="1387.5,-241 1387.5,-260 1431.5,-260 1431.5,-241 1387.5,-241"/>
<text text-anchor="middle" x="1409.5" y="-248" font-family="Helvetica,sans-Serif" font-size="10.00">TH1.h</text>
</g>
<!-- Node1&#45;&gt;Node23 -->
<g id="edge31" class="edge"><title>Node1&#45;&gt;Node23</title>
<path fill="none" stroke="midnightblue" d="M1256.69,-302.896C1292.21,-293.827 1338.55,-280.865 1378.5,-266 1379.93,-265.469 1381.38,-264.899 1382.84,-264.303"/>
<polygon fill="midnightblue" stroke="midnightblue" points="1384.58,-267.359 1392.33,-260.135 1381.77,-260.949 1384.58,-267.359"/>
</g>
<!-- Node3 -->
<g id="node3" class="node"><title>Node3</title>
<g id="a_node3"><a xlink:href="TaskInterface_8h.html" target="_top" xlink:title="QualityControl/TaskInterface.h">
<polygon fill="none" stroke="black" points="590.5,-179.5 590.5,-198.5 740.5,-198.5 740.5,-179.5 590.5,-179.5"/>
<text text-anchor="middle" x="665.5" y="-186.5" font-family="Helvetica,sans-Serif" font-size="10.00">QualityControl/TaskInterface.h</text>
</a>
</g>
</g>
<!-- Node2&#45;&gt;Node3 -->
<g id="edge2" class="edge"><title>Node2&#45;&gt;Node3</title>
<path fill="none" stroke="midnightblue" d="M803.606,-235.399C772.465,-225.163 730.813,-211.47 701.421,-201.808"/>
<polygon fill="midnightblue" stroke="midnightblue" points="702.166,-198.369 691.573,-198.571 699.98,-205.019 702.166,-198.369"/>
</g>
<!-- Node4 -->
<g id="node4" class="node"><title>Node4</title>
<polygon fill="none" stroke="#bfbfbf" points="0,-0.5 0,-19.5 35,-19.5 35,-0.5 0,-0.5"/>
<text text-anchor="middle" x="17.5" y="-7.5" font-family="Helvetica,sans-Serif" font-size="10.00">map</text>
</g>
<!-- Node3&#45;&gt;Node4 -->
<g id="edge3" class="edge"><title>Node3&#45;&gt;Node4</title>
<path fill="none" stroke="midnightblue" d="M590.449,-180.407C456.589,-165.923 182.775,-131.763 98.5,-87 70.6558,-72.2105 45.3381,-45.3117 30.6775,-27.8041"/>
<polygon fill="midnightblue" stroke="midnightblue" points="33.0483,-25.1718 24.0254,-19.6186 27.616,-29.5865 33.0483,-25.1718"/>
</g>
<!-- Node5 -->
<g id="node5" class="node"><title>Node5</title>
<polygon fill="none" stroke="#bfbfbf" points="502.5,-62 502.5,-81 554.5,-81 554.5,-62 502.5,-62"/>
<text text-anchor="middle" x="528.5" y="-69" font-family="Helvetica,sans-Serif" font-size="10.00">memory</text>
</g>
<!-- Node3&#45;&gt;Node5 -->
<g id="edge4" class="edge"><title>Node3&#45;&gt;Node5</title>
<path fill="none" stroke="midnightblue" d="M635.128,-179.35C614.443,-172.25 587.476,-160.486 568.5,-143 552.86,-128.589 541.746,-106.624 535.265,-91.0455"/>
<polygon fill="midnightblue" stroke="midnightblue" points="538.416,-89.4944 531.519,-81.4523 531.896,-92.0405 538.416,-89.4944"/>
</g>
<!-- Node6 -->
<g id="node6" class="node"><title>Node6</title>
<polygon fill="none" stroke="#bfbfbf" points="574,-0.5 574,-19.5 615,-19.5 615,-0.5 574,-0.5"/>
<text text-anchor="middle" x="594.5" y="-7.5" font-family="Helvetica,sans-Serif" font-size="10.00">string</text>
</g>
<!-- Node3&#45;&gt;Node6 -->
<g id="edge5" class="edge"><title>Node3&#45;&gt;Node6</title>
<path fill="none" stroke="midnightblue" d="M657.65,-179.376C643.233,-162.898 612.967,-125.172 601.5,-87 595.85,-68.1909 594.396,-45.6855 594.173,-30.069"/>
<polygon fill="midnightblue" stroke="midnightblue" points="597.674,-29.6521 594.193,-19.6452 590.674,-29.6383 597.674,-29.6521"/>
</g>
<!-- Node7 -->
<g id="node7" class="node"><title>Node7</title>
<polygon fill="none" stroke="#bfbfbf" points="688,-0.5 688,-19.5 771,-19.5 771,-0.5 688,-0.5"/>
<text text-anchor="middle" x="729.5" y="-7.5" font-family="Helvetica,sans-Serif" font-size="10.00">unordered_map</text>
</g>
<!-- Node3&#45;&gt;Node7 -->
<g id="edge6" class="edge"><title>Node3&#45;&gt;Node7</title>
<path fill="none" stroke="midnightblue" d="M656.929,-179.295C645.008,-166.113 626.296,-140.747 639.5,-123 672.738,-78.327 726.262,-131.673 759.5,-87 773.056,-68.7802 757.925,-43.6262 744.685,-27.3363"/>
<polygon fill="midnightblue" stroke="midnightblue" points="747.281,-24.9882 738.095,-19.7094 741.984,-29.5646 747.281,-24.9882"/>
</g>
<!-- Node8 -->
<g id="node8" class="node"><title>Node8</title>
<polygon fill="none" stroke="#bfbfbf" points="649,-123.5 649,-142.5 774,-142.5 774,-123.5 649,-123.5"/>
<text text-anchor="middle" x="711.5" y="-130.5" font-family="Helvetica,sans-Serif" font-size="10.00">Framework/InitContext.h</text>
</g>
<!-- Node3&#45;&gt;Node8 -->
<g id="edge7" class="edge"><title>Node3&#45;&gt;Node8</title>
<path fill="none" stroke="midnightblue" d="M673.096,-179.083C679.727,-171.298 689.521,-159.801 697.558,-150.367"/>
<polygon fill="midnightblue" stroke="midnightblue" points="700.225,-152.633 704.045,-142.751 694.896,-148.094 700.225,-152.633"/>
</g>
<!-- Node9 -->
<g id="node9" class="node"><title>Node9</title>
<polygon fill="none" stroke="#bfbfbf" points="792.5,-123.5 792.5,-142.5 952.5,-142.5 952.5,-123.5 792.5,-123.5"/>
<text text-anchor="middle" x="872.5" y="-130.5" font-family="Helvetica,sans-Serif" font-size="10.00">Framework/ProcessingContext.h</text>
</g>
<!-- Node3&#45;&gt;Node9 -->
<g id="edge8" class="edge"><title>Node3&#45;&gt;Node9</title>
<path fill="none" stroke="midnightblue" d="M698.3,-179.444C733.88,-170.162 790.814,-155.309 829.847,-145.127"/>
<polygon fill="midnightblue" stroke="midnightblue" points="831.061,-148.427 839.854,-142.516 829.294,-141.654 831.061,-148.427"/>
</g>
<!-- Node10 -->
<g id="node10" class="node"><title>Node10</title>
<g id="a_node10"><a xlink:href="Activity_8h.html" target="_top" xlink:title="QualityControl/Activity.h">
<polygon fill="none" stroke="black" points="971,-123.5 971,-142.5 1094,-142.5 1094,-123.5 971,-123.5"/>
<text text-anchor="middle" x="1032.5" y="-130.5" font-family="Helvetica,sans-Serif" font-size="10.00">QualityControl/Activity.h</text>
</a>
</g>
</g>
<!-- Node3&#45;&gt;Node10 -->
<g id="edge9" class="edge"><title>Node3&#45;&gt;Node10</title>
<path fill="none" stroke="midnightblue" d="M723.652,-179.444C789.151,-169.806 895.463,-154.163 964.685,-143.978"/>
<polygon fill="midnightblue" stroke="midnightblue" points="965.236,-147.435 974.62,-142.516 964.217,-140.51 965.236,-147.435"/>
</g>
<!-- Node11 -->
<g id="node11" class="node"><title>Node11</title>
<g id="a_node11"><a xlink:href="ObjectsManager_8h.html" target="_top" xlink:title="QualityControl/ObjectsManager.h">
<polygon fill="none" stroke="black" points="355,-123.5 355,-142.5 516,-142.5 516,-123.5 355,-123.5"/>
<text text-anchor="middle" x="435.5" y="-130.5" font-family="Helvetica,sans-Serif" font-size="10.00">QualityControl/ObjectsManager.h</text>
</a>
</g>
</g>
<!-- Node3&#45;&gt;Node11 -->
<g id="edge10" class="edge"><title>Node3&#45;&gt;Node11</title>
<path fill="none" stroke="midnightblue" d="M629.056,-179.444C589.101,-170.063 524.913,-154.993 481.515,-144.804"/>
<polygon fill="midnightblue" stroke="midnightblue" points="482.309,-141.395 471.774,-142.516 480.709,-148.21 482.309,-141.395"/>
</g>
<!-- Node11&#45;&gt;Node5 -->
<g id="edge24" class="edge"><title>Node11&#45;&gt;Node5</title>
<path fill="none" stroke="midnightblue" d="M448.825,-123.475C463.88,-113.843 488.616,-98.0175 506.537,-86.5517"/>
<polygon fill="midnightblue" stroke="midnightblue" points="508.663,-89.3466 515.2,-81.0091 504.89,-83.4501 508.663,-89.3466"/>
</g>
<!-- Node11&#45;&gt;Node6 -->
<g id="edge23" class="edge"><title>Node11&#45;&gt;Node6</title>
<path fill="none" stroke="midnightblue" d="M440.145,-123.35C448.796,-107.949 468.763,-75.5594 493.5,-56 504.999,-46.9081 538.725,-32.6481 564.065,-22.6225"/>
<polygon fill="midnightblue" stroke="midnightblue" points="565.604,-25.7789 573.641,-18.8758 563.053,-19.26 565.604,-25.7789"/>
</g>
<!-- Node12 -->
<g id="node12" class="node"><title>Node12</title>
<g id="a_node12"><a xlink:href="MonitorObject_8h.html" target="_top" xlink:title="QualityControl/MonitorObject.h">
<polygon fill="none" stroke="black" points="108,-62 108,-81 259,-81 259,-62 108,-62"/>
<text text-anchor="middle" x="183.5" y="-69" font-family="Helvetica,sans-Serif" font-size="10.00">QualityControl/MonitorObject.h</text>
</a>
</g>
</g>
<!-- Node11&#45;&gt;Node12 -->
<g id="edge11" class="edge"><title>Node11&#45;&gt;Node12</title>
<path fill="none" stroke="midnightblue" d="M399.395,-123.475C354.671,-112.915 278.417,-94.911 229.533,-83.3689"/>
<polygon fill="midnightblue" stroke="midnightblue" points="230.075,-79.9007 219.538,-81.0091 228.467,-86.7134 230.075,-79.9007"/>
</g>
<!-- Node16 -->
<g id="node16" class="node"><title>Node16</title>
<g id="a_node16"><a xlink:href="MonitorObjectCollection_8h.html" target="_top" xlink:title="QualityControl/MonitorObject\lCollection.h">
<polygon fill="none" stroke="black" points="303,-56.5 303,-86.5 446,-86.5 446,-56.5 303,-56.5"/>
<text text-anchor="start" x="311" y="-74.5" font-family="Helvetica,sans-Serif" font-size="10.00">QualityControl/MonitorObject</text>
<text text-anchor="middle" x="374.5" y="-63.5" font-family="Helvetica,sans-Serif" font-size="10.00">Collection.h</text>
</a>
</g>
</g>
<!-- Node11&#45;&gt;Node16 -->
<g id="edge17" class="edge"><title>Node11&#45;&gt;Node16</title>
<path fill="none" stroke="midnightblue" d="M426.76,-123.475C418.807,-115.718 406.736,-103.943 396.198,-93.6645"/>
<polygon fill="midnightblue" stroke="midnightblue" points="398.479,-91 388.876,-86.523 393.591,-96.011 398.479,-91"/>
</g>
<!-- Node19 -->
<g id="node19" class="node"><title>Node19</title>
<g id="a_node19"><a xlink:href="TaskConfig_8h.html" target="_top" xlink:title="QualityControl/TaskConfig.h">
<polygon fill="none" stroke="black" points="610.5,-62 610.5,-81 750.5,-81 750.5,-62 610.5,-62"/>
<text text-anchor="middle" x="680.5" y="-69" font-family="Helvetica,sans-Serif" font-size="10.00">QualityControl/TaskConfig.h</text>
</a>
</g>
</g>
<!-- Node11&#45;&gt;Node19 -->
<g id="edge20" class="edge"><title>Node11&#45;&gt;Node19</title>
<path fill="none" stroke="midnightblue" d="M470.603,-123.475C513.993,-112.937 587.909,-94.9863 635.447,-83.4415"/>
<polygon fill="midnightblue" stroke="midnightblue" points="636.571,-86.7703 645.463,-81.0091 634.919,-79.968 636.571,-86.7703"/>
</g>
<!-- Node12&#45;&gt;Node4 -->
<g id="edge13" class="edge"><title>Node12&#45;&gt;Node4</title>
<path fill="none" stroke="midnightblue" d="M159.716,-61.9751C129.3,-51.0729 76.7454,-32.2355 44.7491,-20.767"/>
<polygon fill="midnightblue" stroke="midnightblue" points="45.7317,-17.4012 35.1372,-17.3218 43.3698,-23.9907 45.7317,-17.4012"/>
</g>
<!-- Node12&#45;&gt;Node6 -->
<g id="edge12" class="edge"><title>Node12&#45;&gt;Node6</title>
<path fill="none" stroke="midnightblue" d="M248.165,-61.9617C344.747,-49.2051 519.405,-26.1196 563.907,-19.331"/>
<polygon fill="midnightblue" stroke="midnightblue" points="564.678,-22.7505 573.956,-17.6346 563.513,-15.8482 564.678,-22.7505"/>
</g>
<!-- Node13 -->
<g id="node13" class="node"><title>Node13</title>
<polygon fill="none" stroke="#bfbfbf" points="53.5,-0.5 53.5,-19.5 109.5,-19.5 109.5,-0.5 53.5,-0.5"/>
<text text-anchor="middle" x="81.5" y="-7.5" font-family="Helvetica,sans-Serif" font-size="10.00">Rtypes.h</text>
</g>
<!-- Node12&#45;&gt;Node13 -->
<g id="edge14" class="edge"><title>Node12&#45;&gt;Node13</title>
<path fill="none" stroke="midnightblue" d="M168.886,-61.9751C152.147,-52.2106 124.496,-36.0807 104.781,-24.5808"/>
<polygon fill="midnightblue" stroke="midnightblue" points="106.488,-21.5246 96.087,-19.5091 102.961,-27.5711 106.488,-21.5246"/>
</g>
<!-- Node14 -->
<g id="node14" class="node"><title>Node14</title>
<polygon fill="none" stroke="#bfbfbf" points="128,-0.5 128,-19.5 187,-19.5 187,-0.5 128,-0.5"/>
<text text-anchor="middle" x="157.5" y="-7.5" font-family="Helvetica,sans-Serif" font-size="10.00">TObject.h</text>
</g>
<!-- Node12&#45;&gt;Node14 -->
<g id="edge15" class="edge"><title>Node12&#45;&gt;Node14</title>
<path fill="none" stroke="midnightblue" d="M179.775,-61.9751C176.029,-53.4035 170.14,-39.9269 165.358,-28.983"/>
<polygon fill="midnightblue" stroke="midnightblue" points="168.43,-27.271 161.218,-19.5091 162.015,-30.0739 168.43,-27.271"/>
</g>
<!-- Node15 -->
<g id="node15" class="node"><title>Node15</title>
<polygon fill="none" stroke="#bfbfbf" points="205.5,-0.5 205.5,-19.5 321.5,-19.5 321.5,-0.5 205.5,-0.5"/>
<text text-anchor="middle" x="263.5" y="-7.5" font-family="Helvetica,sans-Serif" font-size="10.00">Common/Exceptions.h</text>
</g>
<!-- Node12&#45;&gt;Node15 -->
<g id="edge16" class="edge"><title>Node12&#45;&gt;Node15</title>
<path fill="none" stroke="midnightblue" d="M194.962,-61.9751C207.675,-52.5199 228.413,-37.0961 243.753,-25.6871"/>
<polygon fill="midnightblue" stroke="midnightblue" points="246.124,-28.2854 252.059,-19.5091 241.946,-22.6686 246.124,-28.2854"/>
</g>
<!-- Node17 -->
<g id="node17" class="node"><title>Node17</title>
<polygon fill="none" stroke="#bfbfbf" points="340,-0.5 340,-19.5 409,-19.5 409,-0.5 340,-0.5"/>
<text text-anchor="middle" x="374.5" y="-7.5" font-family="Helvetica,sans-Serif" font-size="10.00">TObjArray.h</text>
</g>
<!-- Node16&#45;&gt;Node17 -->
<g id="edge18" class="edge"><title>Node16&#45;&gt;Node17</title>
<path fill="none" stroke="midnightblue" d="M374.5,-56.3993C374.5,-48.4664 374.5,-38.458 374.5,-29.8583"/>
<polygon fill="midnightblue" stroke="midnightblue" points="378,-29.6577 374.5,-19.6578 371,-29.6578 378,-29.6577"/>
</g>
<!-- Node18 -->
<g id="node18" class="node"><title>Node18</title>
<polygon fill="none" stroke="#bfbfbf" points="427.5,-0.5 427.5,-19.5 555.5,-19.5 555.5,-0.5 427.5,-0.5"/>
<text text-anchor="middle" x="491.5" y="-7.5" font-family="Helvetica,sans-Serif" font-size="10.00">Mergers/MergeInterface.h</text>
</g>
<!-- Node16&#45;&gt;Node18 -->
<g id="edge19" class="edge"><title>Node16&#45;&gt;Node18</title>
<path fill="none" stroke="midnightblue" d="M402.227,-56.3993C421.332,-46.6837 446.558,-33.8551 465.32,-24.3137"/>
<polygon fill="midnightblue" stroke="midnightblue" points="467.148,-27.3106 474.475,-19.6578 463.975,-21.071 467.148,-27.3106"/>
</g>
<!-- Node19&#45;&gt;Node6 -->
<g id="edge21" class="edge"><title>Node19&#45;&gt;Node6</title>
<path fill="none" stroke="midnightblue" d="M668.178,-61.9751C654.384,-52.4315 631.801,-36.8073 615.268,-25.3683"/>
<polygon fill="midnightblue" stroke="midnightblue" points="617.014,-22.3205 606.799,-19.5091 613.031,-28.077 617.014,-22.3205"/>
</g>
<!-- Node19&#45;&gt;Node7 -->
<g id="edge22" class="edge"><title>Node19&#45;&gt;Node7</title>
<path fill="none" stroke="midnightblue" d="M687.521,-61.9751C694.943,-52.9617 706.833,-38.5246 716.067,-27.3118"/>
<polygon fill="midnightblue" stroke="midnightblue" points="718.837,-29.4534 722.493,-19.5091 713.434,-25.0034 718.837,-29.4534"/>
</g>
<!-- Node20&#45;&gt;Node3 -->
<g id="edge28" class="edge"><title>Node20&#45;&gt;Node3</title>
<path fill="none" stroke="midnightblue" d="M1017.61,-240.975C942.687,-230.128 813.503,-211.426 734.174,-199.942"/>
<polygon fill="midnightblue" stroke="midnightblue" points="734.675,-196.478 724.277,-198.509 733.672,-203.406 734.675,-196.478"/>
</g>
<!-- Node20&#45;&gt;Node5 -->
<g id="edge26" class="edge"><title>Node20&#45;&gt;Node5</title>
<path fill="none" stroke="midnightblue" d="M1082.79,-240.783C1098.33,-218.138 1135.02,-156.861 1103.5,-123 1065.4,-82.0681 656.921,-94.4618 601.5,-87 589.417,-85.3731 576.323,-82.9756 564.606,-80.5965"/>
<polygon fill="midnightblue" stroke="midnightblue" points="565.228,-77.1509 554.723,-78.5304 563.795,-84.0028 565.228,-77.1509"/>
</g>
<!-- Node20&#45;&gt;Node19 -->
<g id="edge27" class="edge"><title>Node20&#45;&gt;Node19</title>
<path fill="none" stroke="midnightblue" d="M1093.27,-240.891C1107.74,-232.423 1127.65,-218.01 1136.5,-199 1150.75,-168.376 1159.03,-148.165 1136.5,-123 1111.95,-95.5841 885.211,-81.4338 760.993,-75.6837"/>
<polygon fill="midnightblue" stroke="midnightblue" points="760.915,-72.1767 750.767,-75.2186 760.597,-79.1694 760.915,-72.1767"/>
</g>
</g>
</svg>
        <g id="navigator" transform="translate(0 0)" fill="#404254">
                <rect fill="#f2f5e9" fill-opacity="0.5" stroke="#606060" stroke-width=".5" x="0" y="0" width="60" height="60"/>
                <use id="zoomplus" xlink:href="#zoomPlus" x="17" y="9" onmousedown="handleZoom(evt,'in')"/>
                <use id="zoomminus" xlink:href="#zoomMin" x="42" y="9" onmousedown="handleZoom(evt,'out')"/>
                <use id="reset" xlink:href="#resetDef" x="30" y="36" onmousedown="handleReset()"/>
                <g id="arrowUp" xlink:href="#dirArrow" transform="translate(30 24)" onmousedown="handlePan(0,-1)">
                  <use xlink:href="#rim" fill="#404040">
                        <set attributeName="fill" to="#808080" begin="arrowUp.mouseover" end="arrowUp.mouseout"/>
                  </use>
                  <path fill="none" stroke="white" stroke-width="1.5" d="M0,-3.0v7 M-2.5,-0.5L0,-3.0L2.5,-0.5"/>
                </g>
                <g id="arrowRight" xlink:href="#dirArrow" transform="rotate(90) translate(36 -43)" onmousedown="handlePan(1,0)">
                  <use xlink:href="#rim" fill="#404040">
                        <set attributeName="fill" to="#808080" begin="arrowRight.mouseover" end="arrowRight.mouseout"/>
                  </use>
                  <path fill="none" stroke="white" stroke-width="1.5" d="M0,-3.0v7 M-2.5,-0.5L0,-3.0L2.5,-0.5"/>
                </g>
                <g id="arrowDown" xlink:href="#dirArrow" transform="rotate(180) translate(-30 -48)" onmousedown="handlePan(0,1)">
                  <use xlink:href="#rim" fill="#404040">
                        <set attributeName="fill" to="#808080" begin="arrowDown.mouseover" end="arrowDown.mouseout"/>
                  </use>
                  <path fill="none" stroke="white" stroke-width="1.5" d="M0,-3.0v7 M-2.5,-0.5L0,-3.0L2.5,-0.5"/>
                </g>
                <g id="arrowLeft" xlink:href="#dirArrow" transform="rotate(270) translate(-36 17)" onmousedown="handlePan(-1,0)">
                  <use xlink:href="#rim" fill="#404040">
                        <set attributeName="fill" to="#808080" begin="arrowLeft.mouseover" end="arrowLeft.mouseout"/>
                  </use>
                  <path fill="none" stroke="white" stroke-width="1.5" d="M0,-3.0v7 M-2.5,-0.5L0,-3.0L2.5,-0.5"/>
                </g>
        </g>
        <svg viewBox="0 0 15 15" width="100%" height="30px" preserveAspectRatio="xMaxYMin meet">
         <g id="arrow_out" transform="scale(0.3 0.3)">
          <a xlink:href="testQcExample_8cxx__incl_org.svg" target="_base">
           <rect id="button" ry="5" rx="5" y="6" x="6" height="38" width="38"
                fill="#f2f5e9" fill-opacity="0.5" stroke="#606060" stroke-width="1.0"/>
           <path id="arrow"
             d="M 11.500037,31.436501 C 11.940474,20.09759 22.043105,11.32322 32.158766,21.979434 L 37.068811,17.246167 C 37.068811,17.246167 37.088388,32 37.088388,32 L 22.160133,31.978069 C 22.160133,31.978069 26.997745,27.140456 26.997745,27.140456 C 18.528582,18.264221 13.291696,25.230495 11.500037,31.436501 z"
             style="fill:#404040;"/>
          </a>
         </g>
        </svg>
</svg>
