<?xml version="1.0" encoding="UTF-8" standalone="no"?>
<!DOCTYPE svg PUBLIC "-//W3C//DTD SVG 1.1//EN"
 "http://www.w3.org/Graphics/SVG/1.1/DTD/svg11.dtd">
<!-- Generated by graphviz version 2.38.0 (20140413.2041)
 -->
<!-- Title: Framework/test/testQuality.cxx Pages: 1 -->
<svg width="443pt" height="140pt"
 viewBox="0.00 0.00 442.50 140.00" xmlns="http://www.w3.org/2000/svg" xmlns:xlink="http://www.w3.org/1999/xlink">
<g id="graph0" class="graph" transform="scale(1 1) rotate(0) translate(4 136)">
<title>Framework/test/testQuality.cxx</title>
<!-- Node1 -->
<g id="node1" class="node"><title>Node1</title>
<polygon fill="#bfbfbf" stroke="black" points="146,-112.5 146,-131.5 300,-131.5 300,-112.5 146,-112.5"/>
<text text-anchor="middle" x="223" y="-119.5" font-family="Helvetica,sans-Serif" font-size="10.00">Framework/test/testQuality.cxx</text>
</g>
<!-- Node2 -->
<g id="node2" class="node"><title>Node2</title>
<g id="a_node2"><a xlink:href="Quality_8h.html" target="_top" xlink:title="QualityControl/Quality.h">
<polygon fill="none" stroke="black" points="9.5,-56.5 9.5,-75.5 130.5,-75.5 130.5,-56.5 9.5,-56.5"/>
<text text-anchor="middle" x="70" y="-63.5" font-family="Helvetica,sans-Serif" font-size="10.00">QualityControl/Quality.h</text>
</a>
</g>
</g>
<!-- Node1&#45;&gt;Node2 -->
<g id="edge1" class="edge"><title>Node1&#45;&gt;Node2</title>
<path fill="none" stroke="midnightblue" d="M198.757,-112.444C173.129,-103.399 132.515,-89.064 103.762,-78.9158"/>
<polygon fill="midnightblue" stroke="midnightblue" points="104.725,-75.5442 94.1299,-75.5164 102.395,-82.1452 104.725,-75.5442"/>
</g>
<!-- Node5 -->
<g id="node5" class="node"><title>Node5</title>
<g id="a_node5"><a xlink:href="QcInfoLogger_8h.html" target="_top" xlink:title="QualityControl/QcInfoLogger.h">
<polygon fill="none" stroke="black" points="148.5,-56.5 148.5,-75.5 297.5,-75.5 297.5,-56.5 148.5,-56.5"/>
<text text-anchor="middle" x="223" y="-63.5" font-family="Helvetica,sans-Serif" font-size="10.00">QualityControl/QcInfoLogger.h</text>
</a>
</g>
</g>
<!-- Node1&#45;&gt;Node5 -->
<g id="edge4" class="edge"><title>Node1&#45;&gt;Node5</title>
<path fill="none" stroke="midnightblue" d="M223,-112.083C223,-105.006 223,-94.8611 223,-85.9865"/>
<polygon fill="midnightblue" stroke="midnightblue" points="226.5,-85.751 223,-75.7511 219.5,-85.7511 226.5,-85.751"/>
</g>
<!-- Node7 -->
<g id="node7" class="node"><title>Node7</title>
<polygon fill="none" stroke="#bfbfbf" points="315.5,-56.5 315.5,-75.5 434.5,-75.5 434.5,-56.5 315.5,-56.5"/>
<text text-anchor="middle" x="375" y="-63.5" font-family="Helvetica,sans-Serif" font-size="10.00">boost/test/unit_test.hpp</text>
</g>
<!-- Node1&#45;&gt;Node7 -->
<g id="edge6" class="edge"><title>Node1&#45;&gt;Node7</title>
<path fill="none" stroke="midnightblue" d="M247.085,-112.444C272.545,-103.399 312.894,-89.064 341.459,-78.9158"/>
<polygon fill="midnightblue" stroke="midnightblue" points="342.777,-82.1622 351.028,-75.5164 340.433,-75.5661 342.777,-82.1622"/>
</g>
<!-- Node3 -->
<g id="node3" class="node"><title>Node3</title>
<polygon fill="none" stroke="#bfbfbf" points="0,-0.5 0,-19.5 56,-19.5 56,-0.5 0,-0.5"/>
<text text-anchor="middle" x="28" y="-7.5" font-family="Helvetica,sans-Serif" font-size="10.00">Rtypes.h</text>
</g>
<!-- Node2&#45;&gt;Node3 -->
<g id="edge2" class="edge"><title>Node2&#45;&gt;Node3</title>
<path fill="none" stroke="midnightblue" d="M63.0646,-56.083C57.0708,-48.3768 48.2482,-37.0333 40.9524,-27.6531"/>
<polygon fill="midnightblue" stroke="midnightblue" points="43.7086,-25.4958 34.8064,-19.7511 38.1831,-29.7934 43.7086,-25.4958"/>
</g>
<!-- Node4 -->
<g id="node4" class="node"><title>Node4</title>
<polygon fill="none" stroke="#bfbfbf" points="74.5,-0.5 74.5,-19.5 115.5,-19.5 115.5,-0.5 74.5,-0.5"/>
<text text-anchor="middle" x="95" y="-7.5" font-family="Helvetica,sans-Serif" font-size="10.00">string</text>
</g>
<!-- Node2&#45;&gt;Node4 -->
<g id="edge3" class="edge"><title>Node2&#45;&gt;Node4</title>
<path fill="none" stroke="midnightblue" d="M74.1282,-56.083C77.5139,-48.77 82.416,-38.1814 86.6188,-29.1034"/>
<polygon fill="midnightblue" stroke="midnightblue" points="89.9234,-30.2962 90.9486,-19.7511 83.5711,-27.3553 89.9234,-30.2962"/>
</g>
<!-- Node6 -->
<g id="node6" class="node"><title>Node6</title>
<polygon fill="none" stroke="#bfbfbf" points="158,-0.5 158,-19.5 288,-19.5 288,-0.5 158,-0.5"/>
<text text-anchor="middle" x="223" y="-7.5" font-family="Helvetica,sans-Serif" font-size="10.00">InfoLogger/InfoLogger.hxx</text>
</g>
<!-- Node5&#45;&gt;Node6 -->
<g id="edge5" class="edge"><title>Node5&#45;&gt;Node6</title>
<path fill="none" stroke="midnightblue" d="M223,-56.083C223,-49.0059 223,-38.8611 223,-29.9865"/>
<polygon fill="midnightblue" stroke="midnightblue" points="226.5,-29.751 223,-19.7511 219.5,-29.7511 226.5,-29.751"/>
</g>
</g>
</svg>
