<?xml version="1.0" encoding="UTF-8" standalone="no"?>
<!DOCTYPE svg PUBLIC "-//W3C//DTD SVG 1.1//EN"
 "http://www.w3.org/Graphics/SVG/1.1/DTD/svg11.dtd">
<!-- Generated by graphviz version 2.38.0 (20140413.2041)
 -->
<!-- Title: Framework/test/testQualityObject.cxx Pages: 1 -->
<!--zoomable 207 -->
<svg id="main" version="1.1" xmlns="http://www.w3.org/2000/svg" xmlns:xlink="http://www.w3.org/1999/xlink" xml:space="preserve" onload="init(evt)">
<style type="text/css"><![CDATA[
.edge:hover path { stroke: red; }
.edge:hover polygon { stroke: red; fill: red; }
]]></style>
<script type="text/javascript"><![CDATA[
var edges = document.getElementsByTagName('g');
if (edges && edges.length) {
  for (var i=0;i<edges.length;i++) {
    if (edges[i].id.substr(0,4)=='edge') {
      edges[i].setAttribute('class','edge');
    }
  }
}
]]></script>
        <defs>
                <circle id="rim" cx="0" cy="0" r="7"/>
                <circle id="rim2" cx="0" cy="0" r="3.5"/>
                <g id="zoomPlus">
                        <use xlink:href="#rim" fill="#404040">
                                <set attributeName="fill" to="#808080" begin="zoomplus.mouseover" end="zoomplus.mouseout"/>
                        </use>
                        <path d="M-4,0h8M0,-4v8" fill="none" stroke="white" stroke-width="1.5" pointer-events="none"/>
                </g>
                <g id="zoomMin">
                        <use xlink:href="#rim" fill="#404040">
                                <set attributeName="fill" to="#808080" begin="zoomminus.mouseover" end="zoomminus.mouseout"/>
                        </use>
                        <path d="M-4,0h8" fill="none" stroke="white" stroke-width="1.5" pointer-events="none"/>
                </g>
                <g id="dirArrow">
                        <path fill="none" stroke="white" stroke-width="1.5" d="M0,-3.0v7 M-2.5,-0.5L0,-3.0L2.5,-0.5"/>
                </g>
               <g id="resetDef">
                       <use xlink:href="#rim2" fill="#404040">
                               <set attributeName="fill" to="#808080" begin="reset.mouseover" end="reset.mouseout"/>
                       </use>
               </g>
        </defs>

<script type="text/javascript">
var viewWidth = 705;
var viewHeight = 207;
var sectionId = 'dynsection-0';
</script>
<script xlink:href="svgpan.js"/>
<svg id="graph" class="graph">
<g id="viewport">
<title>Framework/test/testQualityObject.cxx</title>
<!-- Node1 -->
<g id="node1" class="node"><title>Node1</title>
<polygon fill="#bfbfbf" stroke="black" points="417.5,-168.5 417.5,-198.5 552.5,-198.5 552.5,-168.5 417.5,-168.5"/>
<text text-anchor="start" x="425.5" y="-186.5" font-family="Helvetica,sans-Serif" font-size="10.00">Framework/test/testQuality</text>
<text text-anchor="middle" x="485" y="-175.5" font-family="Helvetica,sans-Serif" font-size="10.00">Object.cxx</text>
</g>
<!-- Node2 -->
<g id="node2" class="node"><title>Node2</title>
<g id="a_node2"><a xlink:href="QualityObject_8h_source.html" target="_top" xlink:title="QualityControl/QualityObject.h">
<polygon fill="none" stroke="black" points="133.5,-112.5 133.5,-131.5 282.5,-131.5 282.5,-112.5 133.5,-112.5"/>
<text text-anchor="middle" x="208" y="-119.5" font-family="Helvetica,sans-Serif" font-size="10.00">QualityControl/QualityObject.h</text>
</a>
</g>
</g>
<!-- Node1&#45;&gt;Node2 -->
<g id="edge1" class="edge"><title>Node1&#45;&gt;Node2</title>
<path fill="none" stroke="midnightblue" d="M419.706,-168.475C370.039,-157.806 302.748,-143.352 257.477,-133.628"/>
<polygon fill="midnightblue" stroke="midnightblue" points="258.113,-130.185 247.601,-131.506 256.643,-137.029 258.113,-130.185"/>
</g>
<!-- Node10 -->
<g id="node10" class="node"><title>Node10</title>
<g id="a_node10"><a xlink:href="QcInfoLogger_8h.html" target="_top" xlink:title="QualityControl/QcInfoLogger.h">
<polygon fill="none" stroke="black" points="410.5,-112.5 410.5,-131.5 559.5,-131.5 559.5,-112.5 410.5,-112.5"/>
<text text-anchor="middle" x="485" y="-119.5" font-family="Helvetica,sans-Serif" font-size="10.00">QualityControl/QcInfoLogger.h</text>
</a>
</g>
</g>
<!-- Node1&#45;&gt;Node10 -->
<g id="edge9" class="edge"><title>Node1&#45;&gt;Node10</title>
<path fill="none" stroke="midnightblue" d="M485,-168.399C485,-160.466 485,-150.458 485,-141.858"/>
<polygon fill="midnightblue" stroke="midnightblue" points="488.5,-141.658 485,-131.658 481.5,-141.658 488.5,-141.658"/>
</g>
<!-- Node12 -->
<g id="node12" class="node"><title>Node12</title>
<polygon fill="none" stroke="#bfbfbf" points="577.5,-112.5 577.5,-131.5 696.5,-131.5 696.5,-112.5 577.5,-112.5"/>
<text text-anchor="middle" x="637" y="-119.5" font-family="Helvetica,sans-Serif" font-size="10.00">boost/test/unit_test.hpp</text>
</g>
<!-- Node1&#45;&gt;Node12 -->
<g id="edge11" class="edge"><title>Node1&#45;&gt;Node12</title>
<path fill="none" stroke="midnightblue" d="M521.022,-168.399C546.639,-158.372 580.727,-145.028 605.31,-135.405"/>
<polygon fill="midnightblue" stroke="midnightblue" points="606.846,-138.562 614.883,-131.658 604.295,-132.044 606.846,-138.562"/>
</g>
<!-- Node3 -->
<g id="node3" class="node"><title>Node3</title>
<polygon fill="none" stroke="#bfbfbf" points="0,-56.5 0,-75.5 54,-75.5 54,-56.5 0,-56.5"/>
<text text-anchor="middle" x="27" y="-63.5" font-family="Helvetica,sans-Serif" font-size="10.00">iostream</text>
</g>
<!-- Node2&#45;&gt;Node3 -->
<g id="edge2" class="edge"><title>Node2&#45;&gt;Node3</title>
<path fill="none" stroke="midnightblue" d="M179.32,-112.444C148.02,-103.105 97.8204,-88.1287 63.6762,-77.9421"/>
<polygon fill="midnightblue" stroke="midnightblue" points="64.651,-74.5805 54.0677,-75.0755 62.6497,-81.2883 64.651,-74.5805"/>
</g>
<!-- Node4 -->
<g id="node4" class="node"><title>Node4</title>
<polygon fill="none" stroke="#bfbfbf" points="72.5,-56.5 72.5,-75.5 107.5,-75.5 107.5,-56.5 72.5,-56.5"/>
<text text-anchor="middle" x="90" y="-63.5" font-family="Helvetica,sans-Serif" font-size="10.00">map</text>
</g>
<!-- Node2&#45;&gt;Node4 -->
<g id="edge3" class="edge"><title>Node2&#45;&gt;Node4</title>
<path fill="none" stroke="midnightblue" d="M189.303,-112.444C169.829,-103.532 139.135,-89.4856 117.025,-79.3674"/>
<polygon fill="midnightblue" stroke="midnightblue" points="118.387,-76.1417 107.838,-75.1629 115.474,-82.5068 118.387,-76.1417"/>
</g>
<!-- Node5 -->
<g id="node5" class="node"><title>Node5</title>
<polygon fill="none" stroke="#bfbfbf" points="125.5,-56.5 125.5,-75.5 184.5,-75.5 184.5,-56.5 125.5,-56.5"/>
<text text-anchor="middle" x="155" y="-63.5" font-family="Helvetica,sans-Serif" font-size="10.00">TObject.h</text>
</g>
<!-- Node2&#45;&gt;Node5 -->
<g id="edge4" class="edge"><title>Node2&#45;&gt;Node5</title>
<path fill="none" stroke="midnightblue" d="M199.248,-112.083C191.53,-104.22 180.095,-92.5688 170.783,-83.0813"/>
<polygon fill="midnightblue" stroke="midnightblue" points="173.092,-80.4363 163.589,-75.7511 168.096,-85.3396 173.092,-80.4363"/>
</g>
<!-- Node6 -->
<g id="node6" class="node"><title>Node6</title>
<polygon fill="none" stroke="#bfbfbf" points="203,-56.5 203,-75.5 319,-75.5 319,-56.5 203,-56.5"/>
<text text-anchor="middle" x="261" y="-63.5" font-family="Helvetica,sans-Serif" font-size="10.00">Common/Exceptions.h</text>
</g>
<!-- Node2&#45;&gt;Node6 -->
<g id="edge5" class="edge"><title>Node2&#45;&gt;Node6</title>
<path fill="none" stroke="midnightblue" d="M216.752,-112.083C224.47,-104.22 235.905,-92.5688 245.217,-83.0813"/>
<polygon fill="midnightblue" stroke="midnightblue" points="247.904,-85.3396 252.411,-75.7511 242.908,-80.4363 247.904,-85.3396"/>
</g>
<!-- Node7 -->
<g id="node7" class="node"><title>Node7</title>
<g id="a_node7"><a xlink:href="Quality_8h.html" target="_top" xlink:title="QualityControl/Quality.h">
<polygon fill="none" stroke="black" points="337.5,-56.5 337.5,-75.5 458.5,-75.5 458.5,-56.5 337.5,-56.5"/>
<text text-anchor="middle" x="398" y="-63.5" font-family="Helvetica,sans-Serif" font-size="10.00">QualityControl/Quality.h</text>
</a>
</g>
</g>
<!-- Node2&#45;&gt;Node7 -->
<g id="edge6" class="edge"><title>Node2&#45;&gt;Node7</title>
<path fill="none" stroke="midnightblue" d="M238.106,-112.444C270.626,-103.201 322.579,-88.4356 358.391,-78.2572"/>
<polygon fill="midnightblue" stroke="midnightblue" points="359.373,-81.617 368.035,-75.5164 357.459,-74.8837 359.373,-81.617"/>
</g>
<!-- Node8 -->
<g id="node8" class="node"><title>Node8</title>
<polygon fill="none" stroke="#bfbfbf" points="336,-0.5 336,-19.5 392,-19.5 392,-0.5 336,-0.5"/>
<text text-anchor="middle" x="364" y="-7.5" font-family="Helvetica,sans-Serif" font-size="10.00">Rtypes.h</text>
</g>
<!-- Node7&#45;&gt;Node8 -->
<g id="edge7" class="edge"><title>Node7&#45;&gt;Node8</title>
<path fill="none" stroke="midnightblue" d="M392.386,-56.083C387.633,-48.5341 380.682,-37.4948 374.848,-28.2298"/>
<polygon fill="midnightblue" stroke="midnightblue" points="377.8,-26.3486 369.51,-19.7511 371.876,-30.0783 377.8,-26.3486"/>
</g>
<!-- Node9 -->
<g id="node9" class="node"><title>Node9</title>
<polygon fill="none" stroke="#bfbfbf" points="410.5,-0.5 410.5,-19.5 451.5,-19.5 451.5,-0.5 410.5,-0.5"/>
<text text-anchor="middle" x="431" y="-7.5" font-family="Helvetica,sans-Serif" font-size="10.00">string</text>
</g>
<!-- Node7&#45;&gt;Node9 -->
<g id="edge8" class="edge"><title>Node7&#45;&gt;Node9</title>
<path fill="none" stroke="midnightblue" d="M403.449,-56.083C408.014,-48.6127 414.668,-37.7244 420.293,-28.5199"/>
<polygon fill="midnightblue" stroke="midnightblue" points="423.424,-30.109 425.652,-19.7511 417.451,-26.4588 423.424,-30.109"/>
</g>
<!-- Node11 -->
<g id="node11" class="node"><title>Node11</title>
<polygon fill="none" stroke="#bfbfbf" points="477,-56.5 477,-75.5 607,-75.5 607,-56.5 477,-56.5"/>
<text text-anchor="middle" x="542" y="-63.5" font-family="Helvetica,sans-Serif" font-size="10.00">InfoLogger/InfoLogger.hxx</text>
</g>
<!-- Node10&#45;&gt;Node11 -->
<g id="edge10" class="edge"><title>Node10&#45;&gt;Node11</title>
<path fill="none" stroke="midnightblue" d="M494.158,-112.324C502.501,-104.42 515.032,-92.5482 525.177,-82.9377"/>
<polygon fill="midnightblue" stroke="midnightblue" points="527.823,-85.2522 532.675,-75.8339 523.009,-80.1705 527.823,-85.2522"/>
</g>
</g>
</svg>
        <g id="navigator" transform="translate(0 0)" fill="#404254">
                <rect fill="#f2f5e9" fill-opacity="0.5" stroke="#606060" stroke-width=".5" x="0" y="0" width="60" height="60"/>
                <use id="zoomplus" xlink:href="#zoomPlus" x="17" y="9" onmousedown="handleZoom(evt,'in')"/>
                <use id="zoomminus" xlink:href="#zoomMin" x="42" y="9" onmousedown="handleZoom(evt,'out')"/>
                <use id="reset" xlink:href="#resetDef" x="30" y="36" onmousedown="handleReset()"/>
                <g id="arrowUp" xlink:href="#dirArrow" transform="translate(30 24)" onmousedown="handlePan(0,-1)">
                  <use xlink:href="#rim" fill="#404040">
                        <set attributeName="fill" to="#808080" begin="arrowUp.mouseover" end="arrowUp.mouseout"/>
                  </use>
                  <path fill="none" stroke="white" stroke-width="1.5" d="M0,-3.0v7 M-2.5,-0.5L0,-3.0L2.5,-0.5"/>
                </g>
                <g id="arrowRight" xlink:href="#dirArrow" transform="rotate(90) translate(36 -43)" onmousedown="handlePan(1,0)">
                  <use xlink:href="#rim" fill="#404040">
                        <set attributeName="fill" to="#808080" begin="arrowRight.mouseover" end="arrowRight.mouseout"/>
                  </use>
                  <path fill="none" stroke="white" stroke-width="1.5" d="M0,-3.0v7 M-2.5,-0.5L0,-3.0L2.5,-0.5"/>
                </g>
                <g id="arrowDown" xlink:href="#dirArrow" transform="rotate(180) translate(-30 -48)" onmousedown="handlePan(0,1)">
                  <use xlink:href="#rim" fill="#404040">
                        <set attributeName="fill" to="#808080" begin="arrowDown.mouseover" end="arrowDown.mouseout"/>
                  </use>
                  <path fill="none" stroke="white" stroke-width="1.5" d="M0,-3.0v7 M-2.5,-0.5L0,-3.0L2.5,-0.5"/>
                </g>
                <g id="arrowLeft" xlink:href="#dirArrow" transform="rotate(270) translate(-36 17)" onmousedown="handlePan(-1,0)">
                  <use xlink:href="#rim" fill="#404040">
                        <set attributeName="fill" to="#808080" begin="arrowLeft.mouseover" end="arrowLeft.mouseout"/>
                  </use>
                  <path fill="none" stroke="white" stroke-width="1.5" d="M0,-3.0v7 M-2.5,-0.5L0,-3.0L2.5,-0.5"/>
                </g>
        </g>
        <svg viewBox="0 0 15 15" width="100%" height="30px" preserveAspectRatio="xMaxYMin meet">
         <g id="arrow_out" transform="scale(0.3 0.3)">
          <a xlink:href="testQualityObject_8cxx__incl_org.svg" target="_base">
           <rect id="button" ry="5" rx="5" y="6" x="6" height="38" width="38"
                fill="#f2f5e9" fill-opacity="0.5" stroke="#606060" stroke-width="1.0"/>
           <path id="arrow"
             d="M 11.500037,31.436501 C 11.940474,20.09759 22.043105,11.32322 32.158766,21.979434 L 37.068811,17.246167 C 37.068811,17.246167 37.088388,32 37.088388,32 L 22.160133,31.978069 C 22.160133,31.978069 26.997745,27.140456 26.997745,27.140456 C 18.528582,18.264221 13.291696,25.230495 11.500037,31.436501 z"
             style="fill:#404040;"/>
          </a>
         </g>
        </svg>
</svg>
