<?xml version="1.0" encoding="UTF-8" standalone="no"?>
<!DOCTYPE svg PUBLIC "-//W3C//DTD SVG 1.1//EN"
 "http://www.w3.org/Graphics/SVG/1.1/DTD/svg11.dtd">
<!-- Generated by graphviz version 2.38.0 (20140413.2041)
 -->
<!-- Title: Framework/test/testPostProcessingInterface.cxx Pages: 1 -->
<svg width="783pt" height="229pt"
 viewBox="0.00 0.00 782.50 229.00" xmlns="http://www.w3.org/2000/svg" xmlns:xlink="http://www.w3.org/1999/xlink">
<g id="graph0" class="graph" transform="scale(1 1) rotate(0) translate(4 225)">
<title>Framework/test/testPostProcessingInterface.cxx</title>
<!-- Node1 -->
<g id="node1" class="node"><title>Node1</title>
<polygon fill="#bfbfbf" stroke="black" points="322.5,-190.5 322.5,-220.5 495.5,-220.5 495.5,-190.5 322.5,-190.5"/>
<text text-anchor="start" x="330.5" y="-208.5" font-family="Helvetica,sans-Serif" font-size="10.00">Framework/test/testPostProcessing</text>
<text text-anchor="middle" x="409" y="-197.5" font-family="Helvetica,sans-Serif" font-size="10.00">Interface.cxx</text>
</g>
<!-- Node2 -->
<g id="node2" class="node"><title>Node2</title>
<polygon fill="none" stroke="#bfbfbf" points="27.5,-129 27.5,-148 146.5,-148 146.5,-129 27.5,-129"/>
<text text-anchor="middle" x="87" y="-136" font-family="Helvetica,sans-Serif" font-size="10.00">getTestDataDirectory.h</text>
</g>
<!-- Node1&#45;&gt;Node2 -->
<g id="edge1" class="edge"><title>Node1&#45;&gt;Node2</title>
<path fill="none" stroke="midnightblue" d="M336.961,-190.453C286.083,-180.464 216.319,-166.633 155,-154 149.092,-152.783 142.9,-151.489 136.76,-150.193"/>
<polygon fill="midnightblue" stroke="midnightblue" points="137.042,-146.676 126.534,-148.027 135.591,-153.524 137.042,-146.676"/>
</g>
<!-- Node3 -->
<g id="node3" class="node"><title>Node3</title>
<g id="a_node3"><a xlink:href="PostProcessingInterface_8h.html" target="_top" xlink:title="QualityControl/PostProcessing\lInterface.h">
<polygon fill="none" stroke="black" points="164.5,-123.5 164.5,-153.5 315.5,-153.5 315.5,-123.5 164.5,-123.5"/>
<text text-anchor="start" x="172.5" y="-141.5" font-family="Helvetica,sans-Serif" font-size="10.00">QualityControl/PostProcessing</text>
<text text-anchor="middle" x="240" y="-130.5" font-family="Helvetica,sans-Serif" font-size="10.00">Interface.h</text>
</a>
</g>
</g>
<!-- Node1&#45;&gt;Node3 -->
<g id="edge2" class="edge"><title>Node1&#45;&gt;Node3</title>
<path fill="none" stroke="midnightblue" d="M372.33,-190.396C347.083,-180.686 313.343,-167.709 286.251,-157.289"/>
<polygon fill="midnightblue" stroke="midnightblue" points="287.189,-153.9 276.599,-153.577 284.676,-160.433 287.189,-153.9"/>
</g>
<!-- Node8 -->
<g id="node8" class="node"><title>Node8</title>
<g id="a_node8"><a xlink:href="PostProcessingFactory_8h.html" target="_top" xlink:title="QualityControl/PostProcessing\lFactory.h">
<polygon fill="none" stroke="black" points="333.5,-123.5 333.5,-153.5 484.5,-153.5 484.5,-123.5 333.5,-123.5"/>
<text text-anchor="start" x="341.5" y="-141.5" font-family="Helvetica,sans-Serif" font-size="10.00">QualityControl/PostProcessing</text>
<text text-anchor="middle" x="409" y="-130.5" font-family="Helvetica,sans-Serif" font-size="10.00">Factory.h</text>
</a>
</g>
</g>
<!-- Node1&#45;&gt;Node8 -->
<g id="edge8" class="edge"><title>Node1&#45;&gt;Node8</title>
<path fill="none" stroke="midnightblue" d="M409,-190.396C409,-182.645 409,-172.812 409,-163.86"/>
<polygon fill="midnightblue" stroke="midnightblue" points="412.5,-163.576 409,-153.577 405.5,-163.577 412.5,-163.576"/>
</g>
<!-- Node11 -->
<g id="node11" class="node"><title>Node11</title>
<polygon fill="none" stroke="#bfbfbf" points="502.5,-123.5 502.5,-153.5 637.5,-153.5 637.5,-123.5 502.5,-123.5"/>
<text text-anchor="start" x="510.5" y="-141.5" font-family="Helvetica,sans-Serif" font-size="10.00">Configuration/Configuration</text>
<text text-anchor="middle" x="570" y="-130.5" font-family="Helvetica,sans-Serif" font-size="10.00">Factory.h</text>
</g>
<!-- Node1&#45;&gt;Node11 -->
<g id="edge12" class="edge"><title>Node1&#45;&gt;Node11</title>
<path fill="none" stroke="midnightblue" d="M443.935,-190.396C467.881,-180.728 499.847,-167.823 525.598,-157.426"/>
<polygon fill="midnightblue" stroke="midnightblue" points="527.171,-160.566 535.134,-153.577 524.55,-154.075 527.171,-160.566"/>
</g>
<!-- Node12 -->
<g id="node12" class="node"><title>Node12</title>
<polygon fill="none" stroke="#bfbfbf" points="655.5,-129 655.5,-148 774.5,-148 774.5,-129 655.5,-129"/>
<text text-anchor="middle" x="715" y="-136" font-family="Helvetica,sans-Serif" font-size="10.00">boost/test/unit_test.hpp</text>
</g>
<!-- Node1&#45;&gt;Node12 -->
<g id="edge13" class="edge"><title>Node1&#45;&gt;Node12</title>
<path fill="none" stroke="midnightblue" d="M475.176,-190.477C522.933,-180.353 588.952,-166.347 647,-154 652.824,-152.761 658.928,-151.461 664.989,-150.17"/>
<polygon fill="midnightblue" stroke="midnightblue" points="666.039,-153.525 675.089,-148.017 664.579,-146.679 666.039,-153.525"/>
</g>
<!-- Node4 -->
<g id="node4" class="node"><title>Node4</title>
<polygon fill="none" stroke="#bfbfbf" points="297.5,-0.5 297.5,-19.5 338.5,-19.5 338.5,-0.5 297.5,-0.5"/>
<text text-anchor="middle" x="318" y="-7.5" font-family="Helvetica,sans-Serif" font-size="10.00">string</text>
</g>
<!-- Node3&#45;&gt;Node4 -->
<g id="edge3" class="edge"><title>Node3&#45;&gt;Node4</title>
<path fill="none" stroke="midnightblue" d="M261.95,-123.348C274.255,-114.339 288.912,-101.63 298,-87 308.892,-69.4672 313.895,-46.116 316.166,-29.9457"/>
<polygon fill="midnightblue" stroke="midnightblue" points="319.687,-29.9671 317.381,-19.6263 312.735,-29.1481 319.687,-29.9671"/>
</g>
<!-- Node5 -->
<g id="node5" class="node"><title>Node5</title>
<polygon fill="none" stroke="#bfbfbf" points="0,-62 0,-81 146,-81 146,-62 0,-62"/>
<text text-anchor="middle" x="73" y="-69" font-family="Helvetica,sans-Serif" font-size="10.00">Framework/ServiceRegistry.h</text>
</g>
<!-- Node3&#45;&gt;Node5 -->
<g id="edge4" class="edge"><title>Node3&#45;&gt;Node5</title>
<path fill="none" stroke="midnightblue" d="M203.763,-123.396C174.072,-111.84 132.494,-95.6562 104.249,-84.6629"/>
<polygon fill="midnightblue" stroke="midnightblue" points="105.445,-81.3726 94.8565,-81.007 102.906,-87.8959 105.445,-81.3726"/>
</g>
<!-- Node6 -->
<g id="node6" class="node"><title>Node6</title>
<g id="a_node6"><a xlink:href="Triggers_8h.html" target="_top" xlink:title="QualityControl/Triggers.h">
<polygon fill="none" stroke="black" points="164.5,-62 164.5,-81 289.5,-81 289.5,-62 164.5,-62"/>
<text text-anchor="middle" x="227" y="-69" font-family="Helvetica,sans-Serif" font-size="10.00">QualityControl/Triggers.h</text>
</a>
</g>
</g>
<!-- Node3&#45;&gt;Node6 -->
<g id="edge5" class="edge"><title>Node3&#45;&gt;Node6</title>
<path fill="none" stroke="midnightblue" d="M237.179,-123.396C235.293,-113.963 232.79,-101.448 230.738,-91.1891"/>
<polygon fill="midnightblue" stroke="midnightblue" points="234.132,-90.3139 228.739,-81.1945 227.268,-91.6868 234.132,-90.3139"/>
</g>
<!-- Node6&#45;&gt;Node4 -->
<g id="edge6" class="edge"><title>Node6&#45;&gt;Node4</title>
<path fill="none" stroke="midnightblue" d="M240.038,-61.9751C254.769,-52.3431 278.973,-36.5175 296.509,-25.0517"/>
<polygon fill="midnightblue" stroke="midnightblue" points="298.532,-27.911 304.986,-19.5091 294.701,-22.0522 298.532,-27.911"/>
</g>
<!-- Node7 -->
<g id="node7" class="node"><title>Node7</title>
<polygon fill="none" stroke="#bfbfbf" points="197.5,-0.5 197.5,-19.5 256.5,-19.5 256.5,-0.5 197.5,-0.5"/>
<text text-anchor="middle" x="227" y="-7.5" font-family="Helvetica,sans-Serif" font-size="10.00">functional</text>
</g>
<!-- Node6&#45;&gt;Node7 -->
<g id="edge7" class="edge"><title>Node6&#45;&gt;Node7</title>
<path fill="none" stroke="midnightblue" d="M227,-61.9751C227,-53.5803 227,-40.4806 227,-29.6631"/>
<polygon fill="midnightblue" stroke="midnightblue" points="230.5,-29.5091 227,-19.5091 223.5,-29.5091 230.5,-29.5091"/>
</g>
<!-- Node9 -->
<g id="node9" class="node"><title>Node9</title>
<g id="a_node9"><a xlink:href="PostProcessingConfig_8h.html" target="_top" xlink:title="QualityControl/PostProcessing\lConfig.h">
<polygon fill="none" stroke="black" points="346.5,-56.5 346.5,-86.5 497.5,-86.5 497.5,-56.5 346.5,-56.5"/>
<text text-anchor="start" x="354.5" y="-74.5" font-family="Helvetica,sans-Serif" font-size="10.00">QualityControl/PostProcessing</text>
<text text-anchor="middle" x="422" y="-63.5" font-family="Helvetica,sans-Serif" font-size="10.00">Config.h</text>
</a>
</g>
</g>
<!-- Node8&#45;&gt;Node9 -->
<g id="edge9" class="edge"><title>Node8&#45;&gt;Node9</title>
<path fill="none" stroke="midnightblue" d="M411.821,-123.396C413.388,-115.56 415.381,-105.596 417.187,-96.5653"/>
<polygon fill="midnightblue" stroke="midnightblue" points="420.655,-97.0687 419.185,-86.5765 413.791,-95.6959 420.655,-97.0687"/>
</g>
<!-- Node9&#45;&gt;Node4 -->
<g id="edge11" class="edge"><title>Node9&#45;&gt;Node4</title>
<path fill="none" stroke="midnightblue" d="M397.353,-56.3993C380.683,-46.8619 358.769,-34.3248 342.195,-24.8422"/>
<polygon fill="midnightblue" stroke="midnightblue" points="343.551,-21.5858 333.133,-19.6578 340.075,-27.6617 343.551,-21.5858"/>
</g>
<!-- Node10 -->
<g id="node10" class="node"><title>Node10</title>
<polygon fill="none" stroke="#bfbfbf" points="400,-0.5 400,-19.5 444,-19.5 444,-0.5 400,-0.5"/>
<text text-anchor="middle" x="422" y="-7.5" font-family="Helvetica,sans-Serif" font-size="10.00">vector</text>
</g>
<!-- Node9&#45;&gt;Node10 -->
<g id="edge10" class="edge"><title>Node9&#45;&gt;Node10</title>
<path fill="none" stroke="midnightblue" d="M422,-56.3993C422,-48.4664 422,-38.458 422,-29.8583"/>
<polygon fill="midnightblue" stroke="midnightblue" points="425.5,-29.6577 422,-19.6578 418.5,-29.6578 425.5,-29.6577"/>
</g>
</g>
</svg>
