<?xml version="1.0" encoding="UTF-8" standalone="no"?>
<!DOCTYPE svg PUBLIC "-//W3C//DTD SVG 1.1//EN"
 "http://www.w3.org/Graphics/SVG/1.1/DTD/svg11.dtd">
<!-- Generated by graphviz version 2.38.0 (20140413.2041)
 -->
<!-- Title: Framework/test/testMonitorObject.cxx Pages: 1 -->
<!--zoomable 151 -->
<svg id="main" version="1.1" xmlns="http://www.w3.org/2000/svg" xmlns:xlink="http://www.w3.org/1999/xlink" xml:space="preserve" onload="init(evt)">
<style type="text/css"><![CDATA[
.edge:hover path { stroke: red; }
.edge:hover polygon { stroke: red; fill: red; }
]]></style>
<script type="text/javascript"><![CDATA[
var edges = document.getElementsByTagName('g');
if (edges && edges.length) {
  for (var i=0;i<edges.length;i++) {
    if (edges[i].id.substr(0,4)=='edge') {
      edges[i].setAttribute('class','edge');
    }
  }
}
]]></script>
        <defs>
                <circle id="rim" cx="0" cy="0" r="7"/>
                <circle id="rim2" cx="0" cy="0" r="3.5"/>
                <g id="zoomPlus">
                        <use xlink:href="#rim" fill="#404040">
                                <set attributeName="fill" to="#808080" begin="zoomplus.mouseover" end="zoomplus.mouseout"/>
                        </use>
                        <path d="M-4,0h8M0,-4v8" fill="none" stroke="white" stroke-width="1.5" pointer-events="none"/>
                </g>
                <g id="zoomMin">
                        <use xlink:href="#rim" fill="#404040">
                                <set attributeName="fill" to="#808080" begin="zoomminus.mouseover" end="zoomminus.mouseout"/>
                        </use>
                        <path d="M-4,0h8" fill="none" stroke="white" stroke-width="1.5" pointer-events="none"/>
                </g>
                <g id="dirArrow">
                        <path fill="none" stroke="white" stroke-width="1.5" d="M0,-3.0v7 M-2.5,-0.5L0,-3.0L2.5,-0.5"/>
                </g>
               <g id="resetDef">
                       <use xlink:href="#rim2" fill="#404040">
                               <set attributeName="fill" to="#808080" begin="reset.mouseover" end="reset.mouseout"/>
                       </use>
               </g>
        </defs>

<script type="text/javascript">
var viewWidth = 924;
var viewHeight = 151;
var sectionId = 'dynsection-0';
</script>
<script xlink:href="svgpan.js"/>
<svg id="graph" class="graph">
<g id="viewport">
<title>Framework/test/testMonitorObject.cxx</title>
<!-- Node1 -->
<g id="node1" class="node"><title>Node1</title>
<polygon fill="#bfbfbf" stroke="black" points="608,-112.5 608,-142.5 745,-142.5 745,-112.5 608,-112.5"/>
<text text-anchor="start" x="616" y="-130.5" font-family="Helvetica,sans-Serif" font-size="10.00">Framework/test/testMonitor</text>
<text text-anchor="middle" x="676.5" y="-119.5" font-family="Helvetica,sans-Serif" font-size="10.00">Object.cxx</text>
</g>
<!-- Node2 -->
<g id="node2" class="node"><title>Node2</title>
<g id="a_node2"><a xlink:href="MonitorObject_8h.html" target="_top" xlink:title="QualityControl/MonitorObject.h">
<polygon fill="none" stroke="black" points="103,-56.5 103,-75.5 254,-75.5 254,-56.5 103,-56.5"/>
<text text-anchor="middle" x="178.5" y="-63.5" font-family="Helvetica,sans-Serif" font-size="10.00">QualityControl/MonitorObject.h</text>
</a>
</g>
</g>
<!-- Node1&#45;&gt;Node2 -->
<g id="edge1" class="edge"><title>Node1&#45;&gt;Node2</title>
<path fill="none" stroke="midnightblue" d="M607.778,-118.289C516.808,-107.42 356.645,-88.2844 259.775,-76.7106"/>
<polygon fill="midnightblue" stroke="midnightblue" points="260.079,-73.2221 249.734,-75.5109 259.249,-80.1727 260.079,-73.2221"/>
</g>
<!-- Node8 -->
<g id="node8" class="node"><title>Node8</title>
<g id="a_node8"><a xlink:href="QcInfoLogger_8h.html" target="_top" xlink:title="QualityControl/QcInfoLogger.h">
<polygon fill="none" stroke="black" points="349,-56.5 349,-75.5 498,-75.5 498,-56.5 349,-56.5"/>
<text text-anchor="middle" x="423.5" y="-63.5" font-family="Helvetica,sans-Serif" font-size="10.00">QualityControl/QcInfoLogger.h</text>
</a>
</g>
</g>
<!-- Node1&#45;&gt;Node8 -->
<g id="edge7" class="edge"><title>Node1&#45;&gt;Node8</title>
<path fill="none" stroke="midnightblue" d="M616.863,-112.475C571.786,-101.874 510.813,-87.534 469.475,-77.8123"/>
<polygon fill="midnightblue" stroke="midnightblue" points="470.206,-74.3887 459.67,-75.5064 468.603,-81.2028 470.206,-74.3887"/>
</g>
<!-- Node10 -->
<g id="node10" class="node"><title>Node10</title>
<polygon fill="none" stroke="#bfbfbf" points="516,-56.5 516,-75.5 635,-75.5 635,-56.5 516,-56.5"/>
<text text-anchor="middle" x="575.5" y="-63.5" font-family="Helvetica,sans-Serif" font-size="10.00">boost/test/unit_test.hpp</text>
</g>
<!-- Node1&#45;&gt;Node10 -->
<g id="edge9" class="edge"><title>Node1&#45;&gt;Node10</title>
<path fill="none" stroke="midnightblue" d="M652.564,-112.399C636.375,-102.862 615.093,-90.3248 598.997,-80.8422"/>
<polygon fill="midnightblue" stroke="midnightblue" points="600.589,-77.718 590.196,-75.6578 597.036,-83.7492 600.589,-77.718"/>
</g>
<!-- Node11 -->
<g id="node11" class="node"><title>Node11</title>
<polygon fill="none" stroke="#bfbfbf" points="653.5,-56.5 653.5,-75.5 699.5,-75.5 699.5,-56.5 653.5,-56.5"/>
<text text-anchor="middle" x="676.5" y="-63.5" font-family="Helvetica,sans-Serif" font-size="10.00">chrono</text>
</g>
<!-- Node1&#45;&gt;Node11 -->
<g id="edge10" class="edge"><title>Node1&#45;&gt;Node11</title>
<path fill="none" stroke="midnightblue" d="M676.5,-112.399C676.5,-104.466 676.5,-94.458 676.5,-85.8583"/>
<polygon fill="midnightblue" stroke="midnightblue" points="680,-85.6577 676.5,-75.6578 673,-85.6578 680,-85.6577"/>
</g>
<!-- Node12 -->
<g id="node12" class="node"><title>Node12</title>
<polygon fill="none" stroke="#bfbfbf" points="717.5,-56.5 717.5,-75.5 767.5,-75.5 767.5,-56.5 717.5,-56.5"/>
<text text-anchor="middle" x="742.5" y="-63.5" font-family="Helvetica,sans-Serif" font-size="10.00">TH1F.h</text>
</g>
<!-- Node1&#45;&gt;Node12 -->
<g id="edge11" class="edge"><title>Node1&#45;&gt;Node12</title>
<path fill="none" stroke="midnightblue" d="M692.141,-112.399C702.127,-103.397 715.078,-91.7214 725.345,-82.4652"/>
<polygon fill="midnightblue" stroke="midnightblue" points="727.813,-84.9533 732.896,-75.6578 723.125,-79.7541 727.813,-84.9533"/>
</g>
<!-- Node13 -->
<g id="node13" class="node"><title>Node13</title>
<polygon fill="none" stroke="#bfbfbf" points="786,-56.5 786,-75.5 833,-75.5 833,-56.5 786,-56.5"/>
<text text-anchor="middle" x="809.5" y="-63.5" font-family="Helvetica,sans-Serif" font-size="10.00">TFile.h</text>
</g>
<!-- Node1&#45;&gt;Node13 -->
<g id="edge12" class="edge"><title>Node1&#45;&gt;Node13</title>
<path fill="none" stroke="midnightblue" d="M708.019,-112.399C730.135,-102.505 759.467,-89.3832 780.906,-79.7919"/>
<polygon fill="midnightblue" stroke="midnightblue" points="782.448,-82.9364 790.147,-75.6578 779.59,-76.5466 782.448,-82.9364"/>
</g>
<!-- Node14 -->
<g id="node14" class="node"><title>Node14</title>
<polygon fill="none" stroke="#bfbfbf" points="851,-56.5 851,-75.5 916,-75.5 916,-56.5 851,-56.5"/>
<text text-anchor="middle" x="883.5" y="-63.5" font-family="Helvetica,sans-Serif" font-size="10.00">TSystem.h</text>
</g>
<!-- Node1&#45;&gt;Node14 -->
<g id="edge13" class="edge"><title>Node1&#45;&gt;Node14</title>
<path fill="none" stroke="midnightblue" d="M725.294,-112.475C761.474,-102.075 810.169,-88.0783 843.936,-78.3722"/>
<polygon fill="midnightblue" stroke="midnightblue" points="845.262,-81.6328 853.906,-75.5064 843.329,-74.9052 845.262,-81.6328"/>
</g>
<!-- Node3 -->
<g id="node3" class="node"><title>Node3</title>
<polygon fill="none" stroke="#bfbfbf" points="0,-0.5 0,-19.5 41,-19.5 41,-0.5 0,-0.5"/>
<text text-anchor="middle" x="20.5" y="-7.5" font-family="Helvetica,sans-Serif" font-size="10.00">string</text>
</g>
<!-- Node2&#45;&gt;Node3 -->
<g id="edge2" class="edge"><title>Node2&#45;&gt;Node3</title>
<path fill="none" stroke="midnightblue" d="M153.464,-56.4435C125.633,-46.9316 80.6855,-31.5697 50.8674,-21.3787"/>
<polygon fill="midnightblue" stroke="midnightblue" points="51.9764,-18.059 41.3818,-18.1368 49.7125,-24.6829 51.9764,-18.059"/>
</g>
<!-- Node4 -->
<g id="node4" class="node"><title>Node4</title>
<polygon fill="none" stroke="#bfbfbf" points="59,-0.5 59,-19.5 94,-19.5 94,-0.5 59,-0.5"/>
<text text-anchor="middle" x="76.5" y="-7.5" font-family="Helvetica,sans-Serif" font-size="10.00">map</text>
</g>
<!-- Node2&#45;&gt;Node4 -->
<g id="edge3" class="edge"><title>Node2&#45;&gt;Node4</title>
<path fill="none" stroke="midnightblue" d="M162.112,-56.324C145.829,-47.7034 120.633,-34.3643 101.784,-24.3855"/>
<polygon fill="midnightblue" stroke="midnightblue" points="103.323,-21.2402 92.8474,-19.6545 100.048,-27.4267 103.323,-21.2402"/>
</g>
<!-- Node5 -->
<g id="node5" class="node"><title>Node5</title>
<polygon fill="none" stroke="#bfbfbf" points="112.5,-0.5 112.5,-19.5 168.5,-19.5 168.5,-0.5 112.5,-0.5"/>
<text text-anchor="middle" x="140.5" y="-7.5" font-family="Helvetica,sans-Serif" font-size="10.00">Rtypes.h</text>
</g>
<!-- Node2&#45;&gt;Node5 -->
<g id="edge4" class="edge"><title>Node2&#45;&gt;Node5</title>
<path fill="none" stroke="midnightblue" d="M172.225,-56.083C166.858,-48.4554 158.982,-37.2645 152.421,-27.9408"/>
<polygon fill="midnightblue" stroke="midnightblue" points="155.275,-25.9149 146.658,-19.7511 149.551,-29.9434 155.275,-25.9149"/>
</g>
<!-- Node6 -->
<g id="node6" class="node"><title>Node6</title>
<polygon fill="none" stroke="#bfbfbf" points="187,-0.5 187,-19.5 246,-19.5 246,-0.5 187,-0.5"/>
<text text-anchor="middle" x="216.5" y="-7.5" font-family="Helvetica,sans-Serif" font-size="10.00">TObject.h</text>
</g>
<!-- Node2&#45;&gt;Node6 -->
<g id="edge5" class="edge"><title>Node2&#45;&gt;Node6</title>
<path fill="none" stroke="midnightblue" d="M184.775,-56.083C190.142,-48.4554 198.018,-37.2645 204.579,-27.9408"/>
<polygon fill="midnightblue" stroke="midnightblue" points="207.449,-29.9434 210.342,-19.7511 201.725,-25.9149 207.449,-29.9434"/>
</g>
<!-- Node7 -->
<g id="node7" class="node"><title>Node7</title>
<polygon fill="none" stroke="#bfbfbf" points="264.5,-0.5 264.5,-19.5 380.5,-19.5 380.5,-0.5 264.5,-0.5"/>
<text text-anchor="middle" x="322.5" y="-7.5" font-family="Helvetica,sans-Serif" font-size="10.00">Common/Exceptions.h</text>
</g>
<!-- Node2&#45;&gt;Node7 -->
<g id="edge6" class="edge"><title>Node2&#45;&gt;Node7</title>
<path fill="none" stroke="midnightblue" d="M201.317,-56.4435C225.332,-47.4381 263.329,-33.1891 290.369,-23.049"/>
<polygon fill="midnightblue" stroke="midnightblue" points="291.655,-26.3049 299.79,-19.5164 289.197,-19.7506 291.655,-26.3049"/>
</g>
<!-- Node9 -->
<g id="node9" class="node"><title>Node9</title>
<polygon fill="none" stroke="#bfbfbf" points="398.5,-0.5 398.5,-19.5 528.5,-19.5 528.5,-0.5 398.5,-0.5"/>
<text text-anchor="middle" x="463.5" y="-7.5" font-family="Helvetica,sans-Serif" font-size="10.00">InfoLogger/InfoLogger.hxx</text>
</g>
<!-- Node8&#45;&gt;Node9 -->
<g id="edge8" class="edge"><title>Node8&#45;&gt;Node9</title>
<path fill="none" stroke="midnightblue" d="M430.105,-56.083C435.755,-48.4554 444.045,-37.2645 450.951,-27.9408"/>
<polygon fill="midnightblue" stroke="midnightblue" points="453.878,-29.87 457.018,-19.7511 448.253,-25.7034 453.878,-29.87"/>
</g>
</g>
</svg>
        <g id="navigator" transform="translate(0 0)" fill="#404254">
                <rect fill="#f2f5e9" fill-opacity="0.5" stroke="#606060" stroke-width=".5" x="0" y="0" width="60" height="60"/>
                <use id="zoomplus" xlink:href="#zoomPlus" x="17" y="9" onmousedown="handleZoom(evt,'in')"/>
                <use id="zoomminus" xlink:href="#zoomMin" x="42" y="9" onmousedown="handleZoom(evt,'out')"/>
                <use id="reset" xlink:href="#resetDef" x="30" y="36" onmousedown="handleReset()"/>
                <g id="arrowUp" xlink:href="#dirArrow" transform="translate(30 24)" onmousedown="handlePan(0,-1)">
                  <use xlink:href="#rim" fill="#404040">
                        <set attributeName="fill" to="#808080" begin="arrowUp.mouseover" end="arrowUp.mouseout"/>
                  </use>
                  <path fill="none" stroke="white" stroke-width="1.5" d="M0,-3.0v7 M-2.5,-0.5L0,-3.0L2.5,-0.5"/>
                </g>
                <g id="arrowRight" xlink:href="#dirArrow" transform="rotate(90) translate(36 -43)" onmousedown="handlePan(1,0)">
                  <use xlink:href="#rim" fill="#404040">
                        <set attributeName="fill" to="#808080" begin="arrowRight.mouseover" end="arrowRight.mouseout"/>
                  </use>
                  <path fill="none" stroke="white" stroke-width="1.5" d="M0,-3.0v7 M-2.5,-0.5L0,-3.0L2.5,-0.5"/>
                </g>
                <g id="arrowDown" xlink:href="#dirArrow" transform="rotate(180) translate(-30 -48)" onmousedown="handlePan(0,1)">
                  <use xlink:href="#rim" fill="#404040">
                        <set attributeName="fill" to="#808080" begin="arrowDown.mouseover" end="arrowDown.mouseout"/>
                  </use>
                  <path fill="none" stroke="white" stroke-width="1.5" d="M0,-3.0v7 M-2.5,-0.5L0,-3.0L2.5,-0.5"/>
                </g>
                <g id="arrowLeft" xlink:href="#dirArrow" transform="rotate(270) translate(-36 17)" onmousedown="handlePan(-1,0)">
                  <use xlink:href="#rim" fill="#404040">
                        <set attributeName="fill" to="#808080" begin="arrowLeft.mouseover" end="arrowLeft.mouseout"/>
                  </use>
                  <path fill="none" stroke="white" stroke-width="1.5" d="M0,-3.0v7 M-2.5,-0.5L0,-3.0L2.5,-0.5"/>
                </g>
        </g>
        <svg viewBox="0 0 15 15" width="100%" height="30px" preserveAspectRatio="xMaxYMin meet">
         <g id="arrow_out" transform="scale(0.3 0.3)">
          <a xlink:href="testMonitorObject_8cxx__incl_org.svg" target="_base">
           <rect id="button" ry="5" rx="5" y="6" x="6" height="38" width="38"
                fill="#f2f5e9" fill-opacity="0.5" stroke="#606060" stroke-width="1.0"/>
           <path id="arrow"
             d="M 11.500037,31.436501 C 11.940474,20.09759 22.043105,11.32322 32.158766,21.979434 L 37.068811,17.246167 C 37.068811,17.246167 37.088388,32 37.088388,32 L 22.160133,31.978069 C 22.160133,31.978069 26.997745,27.140456 26.997745,27.140456 C 18.528582,18.264221 13.291696,25.230495 11.500037,31.436501 z"
             style="fill:#404040;"/>
          </a>
         </g>
        </svg>
</svg>
