<?xml version="1.0" encoding="UTF-8" standalone="no"?>
<!DOCTYPE svg PUBLIC "-//W3C//DTD SVG 1.1//EN"
 "http://www.w3.org/Graphics/SVG/1.1/DTD/svg11.dtd">
<!-- Generated by graphviz version 2.38.0 (20140413.2041)
 -->
<!-- Title: Modules/Common/test/testCommonReductors.cxx Pages: 1 -->
<!--zoomable 207 -->
<svg id="main" version="1.1" xmlns="http://www.w3.org/2000/svg" xmlns:xlink="http://www.w3.org/1999/xlink" xml:space="preserve" onload="init(evt)">
<style type="text/css"><![CDATA[
.edge:hover path { stroke: red; }
.edge:hover polygon { stroke: red; fill: red; }
]]></style>
<script type="text/javascript"><![CDATA[
var edges = document.getElementsByTagName('g');
if (edges && edges.length) {
  for (var i=0;i<edges.length;i++) {
    if (edges[i].id.substr(0,4)=='edge') {
      edges[i].setAttribute('class','edge');
    }
  }
}
]]></script>
        <defs>
                <circle id="rim" cx="0" cy="0" r="7"/>
                <circle id="rim2" cx="0" cy="0" r="3.5"/>
                <g id="zoomPlus">
                        <use xlink:href="#rim" fill="#404040">
                                <set attributeName="fill" to="#808080" begin="zoomplus.mouseover" end="zoomplus.mouseout"/>
                        </use>
                        <path d="M-4,0h8M0,-4v8" fill="none" stroke="white" stroke-width="1.5" pointer-events="none"/>
                </g>
                <g id="zoomMin">
                        <use xlink:href="#rim" fill="#404040">
                                <set attributeName="fill" to="#808080" begin="zoomminus.mouseover" end="zoomminus.mouseout"/>
                        </use>
                        <path d="M-4,0h8" fill="none" stroke="white" stroke-width="1.5" pointer-events="none"/>
                </g>
                <g id="dirArrow">
                        <path fill="none" stroke="white" stroke-width="1.5" d="M0,-3.0v7 M-2.5,-0.5L0,-3.0L2.5,-0.5"/>
                </g>
               <g id="resetDef">
                       <use xlink:href="#rim2" fill="#404040">
                               <set attributeName="fill" to="#808080" begin="reset.mouseover" end="reset.mouseout"/>
                       </use>
               </g>
        </defs>

<script type="text/javascript">
var viewWidth = 957;
var viewHeight = 207;
var sectionId = 'dynsection-0';
</script>
<script xlink:href="svgpan.js"/>
<svg id="graph" class="graph">
<g id="viewport">
<title>Modules/Common/test/testCommonReductors.cxx</title>
<!-- Node1 -->
<g id="node1" class="node"><title>Node1</title>
<polygon fill="#bfbfbf" stroke="black" points="468.294,-168.5 468.294,-198.5 608.294,-198.5 608.294,-168.5 468.294,-168.5"/>
<text text-anchor="start" x="476.294" y="-186.5" font-family="Helvetica,sans-Serif" font-size="10.00">Modules/Common/test</text>
<text text-anchor="middle" x="538.294" y="-175.5" font-family="Helvetica,sans-Serif" font-size="10.00">/testCommonReductors.cxx</text>
</g>
<!-- Node2 -->
<g id="node2" class="node"><title>Node2</title>
<g id="a_node2"><a xlink:href="Reductor_8h.html" target="_top" xlink:title="QualityControl/Reductor.h">
<polygon fill="none" stroke="black" points="145.294,-56.5 145.294,-75.5 275.294,-75.5 275.294,-56.5 145.294,-56.5"/>
<text text-anchor="middle" x="210.294" y="-63.5" font-family="Helvetica,sans-Serif" font-size="10.00">QualityControl/Reductor.h</text>
</a>
</g>
</g>
<!-- Node1&#45;&gt;Node2 -->
<g id="edge1" class="edge"><title>Node1&#45;&gt;Node2</title>
<path fill="none" stroke="midnightblue" d="M468.051,-180.93C331.41,-177.147 40.5078,-165.241 10.2943,-132 -29.8699,-87.811 62.9247,-73.5541 135.179,-69.0197"/>
<polygon fill="midnightblue" stroke="midnightblue" points="135.44,-72.5106 145.222,-68.4424 135.038,-65.5222 135.44,-72.5106"/>
</g>
<!-- Node4 -->
<g id="node4" class="node"><title>Node4</title>
<g id="a_node4"><a xlink:href="QualityObject_8h_source.html" target="_top" xlink:title="QualityControl/QualityObject.h">
<polygon fill="none" stroke="black" points="463.794,-112.5 463.794,-131.5 612.794,-131.5 612.794,-112.5 463.794,-112.5"/>
<text text-anchor="middle" x="538.294" y="-119.5" font-family="Helvetica,sans-Serif" font-size="10.00">QualityControl/QualityObject.h</text>
</a>
</g>
</g>
<!-- Node1&#45;&gt;Node4 -->
<g id="edge3" class="edge"><title>Node1&#45;&gt;Node4</title>
<path fill="none" stroke="midnightblue" d="M538.294,-168.399C538.294,-160.466 538.294,-150.458 538.294,-141.858"/>
<polygon fill="midnightblue" stroke="midnightblue" points="541.794,-141.658 538.294,-131.658 534.794,-141.658 541.794,-141.658"/>
</g>
<!-- Node11 -->
<g id="node11" class="node"><title>Node11</title>
<g id="a_node11"><a xlink:href="TH1Reductor_8h.html" target="_top" xlink:title="Common/TH1Reductor.h">
<polygon fill="none" stroke="black" points="19.2943,-112.5 19.2943,-131.5 145.294,-131.5 145.294,-112.5 19.2943,-112.5"/>
<text text-anchor="middle" x="82.2943" y="-119.5" font-family="Helvetica,sans-Serif" font-size="10.00">Common/TH1Reductor.h</text>
</a>
</g>
</g>
<!-- Node1&#45;&gt;Node11 -->
<g id="edge11" class="edge"><title>Node1&#45;&gt;Node11</title>
<path fill="none" stroke="midnightblue" d="M468.044,-173.334C383.333,-162.28 241.64,-143.792 155.591,-132.564"/>
<polygon fill="midnightblue" stroke="midnightblue" points="156.007,-129.089 145.638,-131.265 155.101,-136.03 156.007,-129.089"/>
</g>
<!-- Node12 -->
<g id="node12" class="node"><title>Node12</title>
<g id="a_node12"><a xlink:href="TH2Reductor_8h.html" target="_top" xlink:title="Common/TH2Reductor.h">
<polygon fill="none" stroke="black" points="163.294,-112.5 163.294,-131.5 289.294,-131.5 289.294,-112.5 163.294,-112.5"/>
<text text-anchor="middle" x="226.294" y="-119.5" font-family="Helvetica,sans-Serif" font-size="10.00">Common/TH2Reductor.h</text>
</a>
</g>
</g>
<!-- Node1&#45;&gt;Node12 -->
<g id="edge13" class="edge"><title>Node1&#45;&gt;Node12</title>
<path fill="none" stroke="midnightblue" d="M468.275,-169.147C411.681,-158.354 333.131,-143.374 281.063,-133.445"/>
<polygon fill="midnightblue" stroke="midnightblue" points="281.496,-129.964 271.017,-131.529 280.184,-136.84 281.496,-129.964"/>
</g>
<!-- Node13 -->
<g id="node13" class="node"><title>Node13</title>
<g id="a_node13"><a xlink:href="QualityReductor_8h.html" target="_top" xlink:title="Common/QualityReductor.h">
<polygon fill="none" stroke="black" points="307.294,-112.5 307.294,-131.5 445.294,-131.5 445.294,-112.5 307.294,-112.5"/>
<text text-anchor="middle" x="376.294" y="-119.5" font-family="Helvetica,sans-Serif" font-size="10.00">Common/QualityReductor.h</text>
</a>
</g>
</g>
<!-- Node1&#45;&gt;Node13 -->
<g id="edge15" class="edge"><title>Node1&#45;&gt;Node13</title>
<path fill="none" stroke="midnightblue" d="M499.903,-168.399C472.358,-158.283 435.623,-144.791 409.373,-135.149"/>
<polygon fill="midnightblue" stroke="midnightblue" points="410.46,-131.82 399.867,-131.658 408.047,-138.391 410.46,-131.82"/>
</g>
<!-- Node14 -->
<g id="node14" class="node"><title>Node14</title>
<polygon fill="none" stroke="#bfbfbf" points="630.794,-112.5 630.794,-131.5 677.794,-131.5 677.794,-112.5 630.794,-112.5"/>
<text text-anchor="middle" x="654.294" y="-119.5" font-family="Helvetica,sans-Serif" font-size="10.00">TH1I.h</text>
</g>
<!-- Node1&#45;&gt;Node14 -->
<g id="edge18" class="edge"><title>Node1&#45;&gt;Node14</title>
<path fill="none" stroke="midnightblue" d="M565.785,-168.399C584.726,-158.684 609.737,-145.855 628.338,-136.314"/>
<polygon fill="midnightblue" stroke="midnightblue" points="630.115,-139.336 637.415,-131.658 626.92,-133.108 630.115,-139.336"/>
</g>
<!-- Node15 -->
<g id="node15" class="node"><title>Node15</title>
<polygon fill="none" stroke="#bfbfbf" points="695.794,-112.5 695.794,-131.5 742.794,-131.5 742.794,-112.5 695.794,-112.5"/>
<text text-anchor="middle" x="719.294" y="-119.5" font-family="Helvetica,sans-Serif" font-size="10.00">TH2I.h</text>
</g>
<!-- Node1&#45;&gt;Node15 -->
<g id="edge19" class="edge"><title>Node1&#45;&gt;Node15</title>
<path fill="none" stroke="midnightblue" d="M581.189,-168.399C613.17,-157.886 656.241,-143.728 685.73,-134.034"/>
<polygon fill="midnightblue" stroke="midnightblue" points="687.146,-137.252 695.553,-130.804 684.96,-130.602 687.146,-137.252"/>
</g>
<!-- Node16 -->
<g id="node16" class="node"><title>Node16</title>
<polygon fill="none" stroke="#bfbfbf" points="761.294,-112.5 761.294,-131.5 811.294,-131.5 811.294,-112.5 761.294,-112.5"/>
<text text-anchor="middle" x="786.294" y="-119.5" font-family="Helvetica,sans-Serif" font-size="10.00">TTree.h</text>
</g>
<!-- Node1&#45;&gt;Node16 -->
<g id="edge20" class="edge"><title>Node1&#45;&gt;Node16</title>
<path fill="none" stroke="midnightblue" d="M599.744,-168.463C640.234,-159.107 694.662,-146.327 751.227,-132.221"/>
<polygon fill="midnightblue" stroke="midnightblue" points="752.212,-135.583 761.063,-129.76 750.512,-128.792 752.212,-135.583"/>
</g>
<!-- Node17 -->
<g id="node17" class="node"><title>Node17</title>
<polygon fill="none" stroke="#bfbfbf" points="829.794,-112.5 829.794,-131.5 948.794,-131.5 948.794,-112.5 829.794,-112.5"/>
<text text-anchor="middle" x="889.294" y="-119.5" font-family="Helvetica,sans-Serif" font-size="10.00">boost/test/unit_test.hpp</text>
</g>
<!-- Node1&#45;&gt;Node17 -->
<g id="edge21" class="edge"><title>Node1&#45;&gt;Node17</title>
<path fill="none" stroke="midnightblue" d="M608.481,-170.602C673.104,-159.648 767.958,-143.568 829.176,-133.191"/>
<polygon fill="midnightblue" stroke="midnightblue" points="829.802,-136.635 839.076,-131.513 828.632,-129.733 829.802,-136.635"/>
</g>
<!-- Node3 -->
<g id="node3" class="node"><title>Node3</title>
<polygon fill="none" stroke="#bfbfbf" points="233.794,-0.5 233.794,-19.5 292.794,-19.5 292.794,-0.5 233.794,-0.5"/>
<text text-anchor="middle" x="263.294" y="-7.5" font-family="Helvetica,sans-Serif" font-size="10.00">TObject.h</text>
</g>
<!-- Node2&#45;&gt;Node3 -->
<g id="edge2" class="edge"><title>Node2&#45;&gt;Node3</title>
<path fill="none" stroke="midnightblue" d="M219.046,-56.083C226.764,-48.2195 238.199,-36.5688 247.511,-27.0813"/>
<polygon fill="midnightblue" stroke="midnightblue" points="250.199,-29.3396 254.705,-19.7511 245.203,-24.4363 250.199,-29.3396"/>
</g>
<!-- Node4&#45;&gt;Node3 -->
<g id="edge6" class="edge"><title>Node4&#45;&gt;Node3</title>
<path fill="none" stroke="midnightblue" d="M476.516,-112.476C422.288,-104.213 348.146,-90.7871 322.294,-76 301.918,-64.3446 284.702,-43.1834 274.221,-28.1749"/>
<polygon fill="midnightblue" stroke="midnightblue" points="277.065,-26.1319 268.597,-19.765 271.246,-30.0232 277.065,-26.1319"/>
</g>
<!-- Node5 -->
<g id="node5" class="node"><title>Node5</title>
<polygon fill="none" stroke="#bfbfbf" points="471.294,-56.5 471.294,-75.5 525.294,-75.5 525.294,-56.5 471.294,-56.5"/>
<text text-anchor="middle" x="498.294" y="-63.5" font-family="Helvetica,sans-Serif" font-size="10.00">iostream</text>
</g>
<!-- Node4&#45;&gt;Node5 -->
<g id="edge4" class="edge"><title>Node4&#45;&gt;Node5</title>
<path fill="none" stroke="midnightblue" d="M531.689,-112.083C526.039,-104.455 517.749,-93.2645 510.843,-83.9408"/>
<polygon fill="midnightblue" stroke="midnightblue" points="513.541,-81.7034 504.777,-75.7511 507.916,-85.87 513.541,-81.7034"/>
</g>
<!-- Node6 -->
<g id="node6" class="node"><title>Node6</title>
<polygon fill="none" stroke="#bfbfbf" points="543.794,-56.5 543.794,-75.5 578.794,-75.5 578.794,-56.5 543.794,-56.5"/>
<text text-anchor="middle" x="561.294" y="-63.5" font-family="Helvetica,sans-Serif" font-size="10.00">map</text>
</g>
<!-- Node4&#45;&gt;Node6 -->
<g id="edge5" class="edge"><title>Node4&#45;&gt;Node6</title>
<path fill="none" stroke="midnightblue" d="M542.092,-112.083C545.207,-104.77 549.717,-94.1814 553.584,-85.1034"/>
<polygon fill="midnightblue" stroke="midnightblue" points="556.868,-86.3229 557.567,-75.7511 550.428,-83.5798 556.868,-86.3229"/>
</g>
<!-- Node7 -->
<g id="node7" class="node"><title>Node7</title>
<polygon fill="none" stroke="#bfbfbf" points="597.294,-56.5 597.294,-75.5 713.294,-75.5 713.294,-56.5 597.294,-56.5"/>
<text text-anchor="middle" x="655.294" y="-63.5" font-family="Helvetica,sans-Serif" font-size="10.00">Common/Exceptions.h</text>
</g>
<!-- Node4&#45;&gt;Node7 -->
<g id="edge7" class="edge"><title>Node4&#45;&gt;Node7</title>
<path fill="none" stroke="midnightblue" d="M556.833,-112.444C575.917,-103.636 605.869,-89.8116 627.73,-79.722"/>
<polygon fill="midnightblue" stroke="midnightblue" points="629.229,-82.8849 636.842,-75.5164 626.296,-76.5292 629.229,-82.8849"/>
</g>
<!-- Node8 -->
<g id="node8" class="node"><title>Node8</title>
<g id="a_node8"><a xlink:href="Quality_8h.html" target="_top" xlink:title="QualityControl/Quality.h">
<polygon fill="none" stroke="black" points="331.794,-56.5 331.794,-75.5 452.794,-75.5 452.794,-56.5 331.794,-56.5"/>
<text text-anchor="middle" x="392.294" y="-63.5" font-family="Helvetica,sans-Serif" font-size="10.00">QualityControl/Quality.h</text>
</a>
</g>
</g>
<!-- Node4&#45;&gt;Node8 -->
<g id="edge8" class="edge"><title>Node4&#45;&gt;Node8</title>
<path fill="none" stroke="midnightblue" d="M515.16,-112.444C490.812,-103.438 452.287,-89.1891 424.871,-79.049"/>
<polygon fill="midnightblue" stroke="midnightblue" points="425.913,-75.7028 415.32,-75.5164 423.485,-82.2681 425.913,-75.7028"/>
</g>
<!-- Node9 -->
<g id="node9" class="node"><title>Node9</title>
<polygon fill="none" stroke="#bfbfbf" points="330.294,-0.5 330.294,-19.5 386.294,-19.5 386.294,-0.5 330.294,-0.5"/>
<text text-anchor="middle" x="358.294" y="-7.5" font-family="Helvetica,sans-Serif" font-size="10.00">Rtypes.h</text>
</g>
<!-- Node8&#45;&gt;Node9 -->
<g id="edge9" class="edge"><title>Node8&#45;&gt;Node9</title>
<path fill="none" stroke="midnightblue" d="M386.68,-56.083C381.927,-48.5341 374.976,-37.4948 369.143,-28.2298"/>
<polygon fill="midnightblue" stroke="midnightblue" points="372.094,-26.3486 363.804,-19.7511 366.171,-30.0783 372.094,-26.3486"/>
</g>
<!-- Node10 -->
<g id="node10" class="node"><title>Node10</title>
<polygon fill="none" stroke="#bfbfbf" points="404.794,-0.5 404.794,-19.5 445.794,-19.5 445.794,-0.5 404.794,-0.5"/>
<text text-anchor="middle" x="425.294" y="-7.5" font-family="Helvetica,sans-Serif" font-size="10.00">string</text>
</g>
<!-- Node8&#45;&gt;Node10 -->
<g id="edge10" class="edge"><title>Node8&#45;&gt;Node10</title>
<path fill="none" stroke="midnightblue" d="M397.744,-56.083C402.309,-48.6127 408.963,-37.7244 414.588,-28.5199"/>
<polygon fill="midnightblue" stroke="midnightblue" points="417.718,-30.109 419.946,-19.7511 411.745,-26.4588 417.718,-30.109"/>
</g>
<!-- Node11&#45;&gt;Node2 -->
<g id="edge12" class="edge"><title>Node11&#45;&gt;Node2</title>
<path fill="none" stroke="midnightblue" d="M102.576,-112.444C123.642,-103.557 156.811,-89.5632 180.78,-79.4514"/>
<polygon fill="midnightblue" stroke="midnightblue" points="182.254,-82.6283 190.107,-75.5164 179.533,-76.1787 182.254,-82.6283"/>
</g>
<!-- Node12&#45;&gt;Node2 -->
<g id="edge14" class="edge"><title>Node12&#45;&gt;Node2</title>
<path fill="none" stroke="midnightblue" d="M223.652,-112.083C221.509,-104.849 218.415,-94.4087 215.745,-85.3968"/>
<polygon fill="midnightblue" stroke="midnightblue" points="219.084,-84.3447 212.887,-75.7511 212.372,-86.3334 219.084,-84.3447"/>
</g>
<!-- Node13&#45;&gt;Node2 -->
<g id="edge16" class="edge"><title>Node13&#45;&gt;Node2</title>
<path fill="none" stroke="midnightblue" d="M349.991,-112.444C321.943,-103.32 277.35,-88.8133 246.11,-78.6509"/>
<polygon fill="midnightblue" stroke="midnightblue" points="247.067,-75.2816 236.474,-75.5164 244.901,-81.9383 247.067,-75.2816"/>
</g>
<!-- Node13&#45;&gt;Node8 -->
<g id="edge17" class="edge"><title>Node13&#45;&gt;Node8</title>
<path fill="none" stroke="midnightblue" d="M378.936,-112.083C381.08,-104.849 384.173,-94.4087 386.843,-85.3968"/>
<polygon fill="midnightblue" stroke="midnightblue" points="390.216,-86.3334 389.701,-75.7511 383.505,-84.3447 390.216,-86.3334"/>
</g>
</g>
</svg>
        <g id="navigator" transform="translate(0 0)" fill="#404254">
                <rect fill="#f2f5e9" fill-opacity="0.5" stroke="#606060" stroke-width=".5" x="0" y="0" width="60" height="60"/>
                <use id="zoomplus" xlink:href="#zoomPlus" x="17" y="9" onmousedown="handleZoom(evt,'in')"/>
                <use id="zoomminus" xlink:href="#zoomMin" x="42" y="9" onmousedown="handleZoom(evt,'out')"/>
                <use id="reset" xlink:href="#resetDef" x="30" y="36" onmousedown="handleReset()"/>
                <g id="arrowUp" xlink:href="#dirArrow" transform="translate(30 24)" onmousedown="handlePan(0,-1)">
                  <use xlink:href="#rim" fill="#404040">
                        <set attributeName="fill" to="#808080" begin="arrowUp.mouseover" end="arrowUp.mouseout"/>
                  </use>
                  <path fill="none" stroke="white" stroke-width="1.5" d="M0,-3.0v7 M-2.5,-0.5L0,-3.0L2.5,-0.5"/>
                </g>
                <g id="arrowRight" xlink:href="#dirArrow" transform="rotate(90) translate(36 -43)" onmousedown="handlePan(1,0)">
                  <use xlink:href="#rim" fill="#404040">
                        <set attributeName="fill" to="#808080" begin="arrowRight.mouseover" end="arrowRight.mouseout"/>
                  </use>
                  <path fill="none" stroke="white" stroke-width="1.5" d="M0,-3.0v7 M-2.5,-0.5L0,-3.0L2.5,-0.5"/>
                </g>
                <g id="arrowDown" xlink:href="#dirArrow" transform="rotate(180) translate(-30 -48)" onmousedown="handlePan(0,1)">
                  <use xlink:href="#rim" fill="#404040">
                        <set attributeName="fill" to="#808080" begin="arrowDown.mouseover" end="arrowDown.mouseout"/>
                  </use>
                  <path fill="none" stroke="white" stroke-width="1.5" d="M0,-3.0v7 M-2.5,-0.5L0,-3.0L2.5,-0.5"/>
                </g>
                <g id="arrowLeft" xlink:href="#dirArrow" transform="rotate(270) translate(-36 17)" onmousedown="handlePan(-1,0)">
                  <use xlink:href="#rim" fill="#404040">
                        <set attributeName="fill" to="#808080" begin="arrowLeft.mouseover" end="arrowLeft.mouseout"/>
                  </use>
                  <path fill="none" stroke="white" stroke-width="1.5" d="M0,-3.0v7 M-2.5,-0.5L0,-3.0L2.5,-0.5"/>
                </g>
        </g>
        <svg viewBox="0 0 15 15" width="100%" height="30px" preserveAspectRatio="xMaxYMin meet">
         <g id="arrow_out" transform="scale(0.3 0.3)">
          <a xlink:href="testCommonReductors_8cxx__incl_org.svg" target="_base">
           <rect id="button" ry="5" rx="5" y="6" x="6" height="38" width="38"
                fill="#f2f5e9" fill-opacity="0.5" stroke="#606060" stroke-width="1.0"/>
           <path id="arrow"
             d="M 11.500037,31.436501 C 11.940474,20.09759 22.043105,11.32322 32.158766,21.979434 L 37.068811,17.246167 C 37.068811,17.246167 37.088388,32 37.088388,32 L 22.160133,31.978069 C 22.160133,31.978069 26.997745,27.140456 26.997745,27.140456 C 18.528582,18.264221 13.291696,25.230495 11.500037,31.436501 z"
             style="fill:#404040;"/>
          </a>
         </g>
        </svg>
</svg>
