<?xml version="1.0" encoding="UTF-8" standalone="no"?>
<!DOCTYPE svg PUBLIC "-//W3C//DTD SVG 1.1//EN"
 "http://www.w3.org/Graphics/SVG/1.1/DTD/svg11.dtd">
<!-- Generated by graphviz version 2.38.0 (20140413.2041)
 -->
<!-- Title: Framework/test/testWorkflow.cxx Pages: 1 -->
<!--zoomable 330 -->
<svg id="main" version="1.1" xmlns="http://www.w3.org/2000/svg" xmlns:xlink="http://www.w3.org/1999/xlink" xml:space="preserve" onload="init(evt)">
<style type="text/css"><![CDATA[
.edge:hover path { stroke: red; }
.edge:hover polygon { stroke: red; fill: red; }
]]></style>
<script type="text/javascript"><![CDATA[
var edges = document.getElementsByTagName('g');
if (edges && edges.length) {
  for (var i=0;i<edges.length;i++) {
    if (edges[i].id.substr(0,4)=='edge') {
      edges[i].setAttribute('class','edge');
    }
  }
}
]]></script>
        <defs>
                <circle id="rim" cx="0" cy="0" r="7"/>
                <circle id="rim2" cx="0" cy="0" r="3.5"/>
                <g id="zoomPlus">
                        <use xlink:href="#rim" fill="#404040">
                                <set attributeName="fill" to="#808080" begin="zoomplus.mouseover" end="zoomplus.mouseout"/>
                        </use>
                        <path d="M-4,0h8M0,-4v8" fill="none" stroke="white" stroke-width="1.5" pointer-events="none"/>
                </g>
                <g id="zoomMin">
                        <use xlink:href="#rim" fill="#404040">
                                <set attributeName="fill" to="#808080" begin="zoomminus.mouseover" end="zoomminus.mouseout"/>
                        </use>
                        <path d="M-4,0h8" fill="none" stroke="white" stroke-width="1.5" pointer-events="none"/>
                </g>
                <g id="dirArrow">
                        <path fill="none" stroke="white" stroke-width="1.5" d="M0,-3.0v7 M-2.5,-0.5L0,-3.0L2.5,-0.5"/>
                </g>
               <g id="resetDef">
                       <use xlink:href="#rim2" fill="#404040">
                               <set attributeName="fill" to="#808080" begin="reset.mouseover" end="reset.mouseout"/>
                       </use>
               </g>
        </defs>

<script type="text/javascript">
var viewWidth = 1824;
var viewHeight = 330;
var sectionId = 'dynsection-0';
</script>
<script xlink:href="svgpan.js"/>
<svg id="graph" class="graph">
<g id="viewport">
<title>Framework/test/testWorkflow.cxx</title>
<!-- Node1 -->
<g id="node1" class="node"><title>Node1</title>
<polygon fill="#bfbfbf" stroke="black" points="1013.5,-302.5 1013.5,-321.5 1177.5,-321.5 1177.5,-302.5 1013.5,-302.5"/>
<text text-anchor="middle" x="1095.5" y="-309.5" font-family="Helvetica,sans-Serif" font-size="10.00">Framework/test/testWorkflow.cxx</text>
</g>
<!-- Node2 -->
<g id="node2" class="node"><title>Node2</title>
<polygon fill="none" stroke="#bfbfbf" points="0,-246.5 0,-265.5 119,-265.5 119,-246.5 0,-246.5"/>
<text text-anchor="middle" x="59.5" y="-253.5" font-family="Helvetica,sans-Serif" font-size="10.00">getTestDataDirectory.h</text>
</g>
<!-- Node1&#45;&gt;Node2 -->
<g id="edge1" class="edge"><title>Node1&#45;&gt;Node2</title>
<path fill="none" stroke="midnightblue" d="M1013.33,-309.213C846.994,-305.143 458.595,-293.335 133.5,-266 132.194,-265.89 130.876,-265.775 129.548,-265.655"/>
<polygon fill="midnightblue" stroke="midnightblue" points="129.527,-262.137 119.235,-264.651 128.849,-269.104 129.527,-262.137"/>
</g>
<!-- Node3 -->
<g id="node3" class="node"><title>Node3</title>
<g id="a_node3"><a xlink:href="CheckRunner_8h.html" target="_top" xlink:title="QualityControl/CheckRunner.h">
<polygon fill="none" stroke="black" points="934.5,-246.5 934.5,-265.5 1084.5,-265.5 1084.5,-246.5 934.5,-246.5"/>
<text text-anchor="middle" x="1009.5" y="-253.5" font-family="Helvetica,sans-Serif" font-size="10.00">QualityControl/CheckRunner.h</text>
</a>
</g>
</g>
<!-- Node1&#45;&gt;Node3 -->
<g id="edge2" class="edge"><title>Node1&#45;&gt;Node3</title>
<path fill="none" stroke="midnightblue" d="M1081.68,-302.324C1068.27,-293.9 1047.68,-280.971 1031.91,-271.074"/>
<polygon fill="midnightblue" stroke="midnightblue" points="1033.61,-268.008 1023.28,-265.655 1029.89,-273.936 1033.61,-268.008"/>
</g>
<!-- Node30 -->
<g id="node30" class="node"><title>Node30</title>
<g id="a_node30"><a xlink:href="InfrastructureGenerator_8h.html" target="_top" xlink:title="QualityControl/Infrastructure\lGenerator.h">
<polygon fill="none" stroke="black" points="213.5,-179.5 213.5,-209.5 353.5,-209.5 353.5,-179.5 213.5,-179.5"/>
<text text-anchor="start" x="221.5" y="-197.5" font-family="Helvetica,sans-Serif" font-size="10.00">QualityControl/Infrastructure</text>
<text text-anchor="middle" x="283.5" y="-186.5" font-family="Helvetica,sans-Serif" font-size="10.00">Generator.h</text>
</a>
</g>
</g>
<!-- Node1&#45;&gt;Node30 -->
<g id="edge58" class="edge"><title>Node1&#45;&gt;Node30</title>
<path fill="none" stroke="midnightblue" d="M1028.64,-302.477C900.293,-285.947 610.522,-247.823 367.5,-210 366.225,-209.802 364.94,-209.6 363.646,-209.395"/>
<polygon fill="midnightblue" stroke="midnightblue" points="364.027,-205.912 353.598,-207.779 362.915,-212.823 364.027,-205.912"/>
</g>
<!-- Node32 -->
<g id="node32" class="node"><title>Node32</title>
<g id="a_node32"><a xlink:href="runnerUtils_8h.html" target="_top" xlink:title="QualityControl/runnerUtils.h">
<polygon fill="none" stroke="black" points="50,-67.5 50,-86.5 187,-86.5 187,-67.5 50,-67.5"/>
<text text-anchor="middle" x="118.5" y="-74.5" font-family="Helvetica,sans-Serif" font-size="10.00">QualityControl/runnerUtils.h</text>
</a>
</g>
</g>
<!-- Node1&#45;&gt;Node32 -->
<g id="edge63" class="edge"><title>Node1&#45;&gt;Node32</title>
<path fill="none" stroke="midnightblue" d="M1013.21,-310.643C818.899,-308.4 337.951,-294.247 204.5,-210 161.449,-182.822 135.536,-125.38 124.6,-96.0528"/>
<polygon fill="midnightblue" stroke="midnightblue" points="127.896,-94.875 121.244,-86.6284 121.301,-97.2231 127.896,-94.875"/>
</g>
<!-- Node34 -->
<g id="node34" class="node"><title>Node34</title>
<polygon fill="none" stroke="#bfbfbf" points="1102.5,-246.5 1102.5,-265.5 1262.5,-265.5 1262.5,-246.5 1102.5,-246.5"/>
<text text-anchor="middle" x="1182.5" y="-253.5" font-family="Helvetica,sans-Serif" font-size="10.00">Framework/runDataProcessing.h</text>
</g>
<!-- Node1&#45;&gt;Node34 -->
<g id="edge67" class="edge"><title>Node1&#45;&gt;Node34</title>
<path fill="none" stroke="midnightblue" d="M1109.48,-302.324C1123.05,-293.9 1143.88,-280.971 1159.82,-271.074"/>
<polygon fill="midnightblue" stroke="midnightblue" points="1161.91,-273.902 1168.56,-265.655 1158.21,-267.954 1161.91,-273.902"/>
</g>
<!-- Node35 -->
<g id="node35" class="node"><title>Node35</title>
<polygon fill="none" stroke="#bfbfbf" points="1281,-246.5 1281,-265.5 1422,-265.5 1422,-246.5 1281,-246.5"/>
<text text-anchor="middle" x="1351.5" y="-253.5" font-family="Helvetica,sans-Serif" font-size="10.00">Framework/ControlService.h</text>
</g>
<!-- Node1&#45;&gt;Node35 -->
<g id="edge68" class="edge"><title>Node1&#45;&gt;Node35</title>
<path fill="none" stroke="midnightblue" d="M1136.06,-302.444C1180.82,-293.004 1252.88,-277.802 1301.2,-267.611"/>
<polygon fill="midnightblue" stroke="midnightblue" points="1302.06,-271.005 1311.13,-265.516 1300.62,-264.156 1302.06,-271.005"/>
</g>
<!-- Node36 -->
<g id="node36" class="node"><title>Node36</title>
<polygon fill="none" stroke="#bfbfbf" points="1440.5,-246.5 1440.5,-265.5 1578.5,-265.5 1578.5,-246.5 1440.5,-246.5"/>
<text text-anchor="middle" x="1509.5" y="-253.5" font-family="Helvetica,sans-Serif" font-size="10.00">Framework/DataSampling.h</text>
</g>
<!-- Node1&#45;&gt;Node36 -->
<g id="edge69" class="edge"><title>Node1&#45;&gt;Node36</title>
<path fill="none" stroke="midnightblue" d="M1161.1,-302.444C1235.29,-292.767 1355.9,-277.035 1433.96,-266.853"/>
<polygon fill="midnightblue" stroke="midnightblue" points="1434.74,-270.281 1444.21,-265.516 1433.84,-263.339 1434.74,-270.281"/>
</g>
<!-- Node37 -->
<g id="node37" class="node"><title>Node37</title>
<polygon fill="none" stroke="#bfbfbf" points="1596.5,-246.5 1596.5,-265.5 1646.5,-265.5 1646.5,-246.5 1596.5,-246.5"/>
<text text-anchor="middle" x="1621.5" y="-253.5" font-family="Helvetica,sans-Serif" font-size="10.00">TH1F.h</text>
</g>
<!-- Node1&#45;&gt;Node37 -->
<g id="edge70" class="edge"><title>Node1&#45;&gt;Node37</title>
<path fill="none" stroke="midnightblue" d="M1177.89,-307.685C1273.86,-302.875 1437.21,-291.751 1586.11,-265.96"/>
<polygon fill="midnightblue" stroke="midnightblue" points="1587.11,-269.338 1596.35,-264.159 1585.9,-262.444 1587.11,-269.338"/>
</g>
<!-- Node4 -->
<g id="node4" class="node"><title>Node4</title>
<polygon fill="none" stroke="#bfbfbf" points="1664.5,-185 1664.5,-204 1710.5,-204 1710.5,-185 1664.5,-185"/>
<text text-anchor="middle" x="1687.5" y="-192" font-family="Helvetica,sans-Serif" font-size="10.00">chrono</text>
</g>
<!-- Node3&#45;&gt;Node4 -->
<g id="edge3" class="edge"><title>Node3&#45;&gt;Node4</title>
<path fill="none" stroke="midnightblue" d="M1084.59,-246.794C1087.6,-246.516 1090.58,-246.25 1093.5,-246 1342.88,-224.663 1412.67,-270.639 1655.5,-210 1657.71,-209.448 1659.96,-208.748 1662.19,-207.955"/>
<polygon fill="midnightblue" stroke="midnightblue" points="1663.72,-211.106 1671.63,-204.054 1661.05,-204.636 1663.72,-211.106"/>
</g>
<!-- Node5 -->
<g id="node5" class="node"><title>Node5</title>
<polygon fill="none" stroke="#bfbfbf" points="895.5,-123.5 895.5,-142.5 947.5,-142.5 947.5,-123.5 895.5,-123.5"/>
<text text-anchor="middle" x="921.5" y="-130.5" font-family="Helvetica,sans-Serif" font-size="10.00">memory</text>
</g>
<!-- Node3&#45;&gt;Node5 -->
<g id="edge4" class="edge"><title>Node3&#45;&gt;Node5</title>
<path fill="none" stroke="midnightblue" d="M954.761,-246.448C914.609,-238.926 865,-226.587 852.5,-210 844.208,-198.997 845.938,-191.115 852.5,-179 860.249,-164.696 874.734,-154.219 888.44,-146.992"/>
<polygon fill="midnightblue" stroke="midnightblue" points="890.238,-150.01 897.712,-142.501 887.186,-143.71 890.238,-150.01"/>
</g>
<!-- Node6 -->
<g id="node6" class="node"><title>Node6</title>
<polygon fill="none" stroke="#bfbfbf" points="793,-6 793,-25 834,-25 834,-6 793,-6"/>
<text text-anchor="middle" x="813.5" y="-13" font-family="Helvetica,sans-Serif" font-size="10.00">string</text>
</g>
<!-- Node3&#45;&gt;Node6 -->
<g id="edge5" class="edge"><title>Node3&#45;&gt;Node6</title>
<path fill="none" stroke="midnightblue" d="M934.5,-254.036C784.616,-250.21 457.527,-231.663 400.5,-143 356.766,-75.0045 679.688,-31.8092 782.65,-19.874"/>
<polygon fill="midnightblue" stroke="midnightblue" points="783.19,-23.3352 792.729,-18.7246 782.396,-16.3803 783.19,-23.3352"/>
</g>
<!-- Node7 -->
<g id="node7" class="node"><title>Node7</title>
<polygon fill="none" stroke="#bfbfbf" points="1449,-6 1449,-25 1484,-25 1484,-6 1449,-6"/>
<text text-anchor="middle" x="1466.5" y="-13" font-family="Helvetica,sans-Serif" font-size="10.00">map</text>
</g>
<!-- Node3&#45;&gt;Node7 -->
<g id="edge6" class="edge"><title>Node3&#45;&gt;Node7</title>
<path fill="none" stroke="midnightblue" d="M1084.59,-246.754C1087.6,-246.487 1090.58,-246.234 1093.5,-246 1168.48,-239.991 1708.3,-253.732 1769.5,-210 1821.57,-172.788 1832.21,-111.798 1786.5,-67 1745.32,-26.6433 1564.84,-18.5372 1494.61,-16.9091"/>
<polygon fill="midnightblue" stroke="midnightblue" points="1494.39,-13.404 1484.32,-16.6995 1494.25,-20.4026 1494.39,-13.404"/>
</g>
<!-- Node8 -->
<g id="node8" class="node"><title>Node8</title>
<polygon fill="none" stroke="#bfbfbf" points="591.5,-123.5 591.5,-142.5 635.5,-142.5 635.5,-123.5 591.5,-123.5"/>
<text text-anchor="middle" x="613.5" y="-130.5" font-family="Helvetica,sans-Serif" font-size="10.00">vector</text>
</g>
<!-- Node3&#45;&gt;Node8 -->
<g id="edge7" class="edge"><title>Node3&#45;&gt;Node8</title>
<path fill="none" stroke="midnightblue" d="M934.492,-250.966C829.327,-244.599 648.385,-230.766 626.5,-210 611.206,-195.488 609.81,-170.066 611,-152.651"/>
<polygon fill="midnightblue" stroke="midnightblue" points="614.497,-152.863 612.036,-142.558 607.533,-152.149 614.497,-152.863"/>
</g>
<!-- Node9 -->
<g id="node9" class="node"><title>Node9</title>
<polygon fill="none" stroke="#bfbfbf" points="1037.5,-185 1037.5,-204 1115.5,-204 1115.5,-185 1037.5,-185"/>
<text text-anchor="middle" x="1076.5" y="-192" font-family="Helvetica,sans-Serif" font-size="10.00">unordered_set</text>
</g>
<!-- Node3&#45;&gt;Node9 -->
<g id="edge8" class="edge"><title>Node3&#45;&gt;Node9</title>
<path fill="none" stroke="midnightblue" d="M1019.1,-246.475C1029.55,-237.197 1046.47,-222.171 1059.24,-210.831"/>
<polygon fill="midnightblue" stroke="midnightblue" points="1061.77,-213.266 1066.92,-204.009 1057.12,-208.032 1061.77,-213.266"/>
</g>
<!-- Node10 -->
<g id="node10" class="node"><title>Node10</title>
<polygon fill="none" stroke="#bfbfbf" points="1133.5,-185 1133.5,-204 1225.5,-204 1225.5,-185 1133.5,-185"/>
<text text-anchor="middle" x="1179.5" y="-192" font-family="Helvetica,sans-Serif" font-size="10.00">Common/Timer.h</text>
</g>
<!-- Node3&#45;&gt;Node10 -->
<g id="edge9" class="edge"><title>Node3&#45;&gt;Node10</title>
<path fill="none" stroke="midnightblue" d="M1033.86,-246.475C1063.14,-236.225 1112.47,-218.959 1145.5,-207.399"/>
<polygon fill="midnightblue" stroke="midnightblue" points="1146.91,-210.616 1155.19,-204.009 1144.59,-204.009 1146.91,-210.616"/>
</g>
<!-- Node11 -->
<g id="node11" class="node"><title>Node11</title>
<polygon fill="none" stroke="#bfbfbf" points="1243.5,-185 1243.5,-204 1341.5,-204 1341.5,-185 1243.5,-185"/>
<text text-anchor="middle" x="1292.5" y="-192" font-family="Helvetica,sans-Serif" font-size="10.00">Framework/Task.h</text>
</g>
<!-- Node3&#45;&gt;Node11 -->
<g id="edge10" class="edge"><title>Node3&#45;&gt;Node11</title>
<path fill="none" stroke="midnightblue" d="M1055.31,-246.499C1100.87,-237.89 1172.7,-223.896 1234.5,-210 1239.44,-208.89 1244.6,-207.677 1249.72,-206.44"/>
<polygon fill="midnightblue" stroke="midnightblue" points="1250.56,-209.836 1259.44,-204.054 1248.89,-203.038 1250.56,-209.836"/>
</g>
<!-- Node12 -->
<g id="node12" class="node"><title>Node12</title>
<polygon fill="none" stroke="#bfbfbf" points="1360,-185 1360,-204 1477,-204 1477,-185 1360,-185"/>
<text text-anchor="middle" x="1418.5" y="-192" font-family="Helvetica,sans-Serif" font-size="10.00">Headers/DataHeader.h</text>
</g>
<!-- Node3&#45;&gt;Node12 -->
<g id="edge11" class="edge"><title>Node3&#45;&gt;Node12</title>
<path fill="none" stroke="midnightblue" d="M1084.59,-246.815C1153.86,-238.857 1259.43,-225.693 1350.5,-210 1357.21,-208.843 1364.27,-207.492 1371.2,-206.087"/>
<polygon fill="midnightblue" stroke="midnightblue" points="1372.11,-209.472 1381.19,-204.009 1370.69,-202.618 1372.11,-209.472"/>
</g>
<!-- Node13 -->
<g id="node13" class="node"><title>Node13</title>
<polygon fill="none" stroke="#bfbfbf" points="1495,-185 1495,-204 1646,-204 1646,-185 1495,-185"/>
<text text-anchor="middle" x="1570.5" y="-192" font-family="Helvetica,sans-Serif" font-size="10.00">Monitoring/MonitoringFactory.h</text>
</g>
<!-- Node3&#45;&gt;Node13 -->
<g id="edge12" class="edge"><title>Node3&#45;&gt;Node13</title>
<path fill="none" stroke="midnightblue" d="M1084.6,-246.897C1087.61,-246.59 1090.58,-246.29 1093.5,-246 1267.6,-228.68 1312.03,-232.727 1485.5,-210 1494.86,-208.773 1504.77,-207.27 1514.39,-205.702"/>
<polygon fill="midnightblue" stroke="midnightblue" points="1514.99,-209.151 1524.28,-204.053 1513.84,-202.247 1514.99,-209.151"/>
</g>
<!-- Node14 -->
<g id="node14" class="node"><title>Node14</title>
<polygon fill="none" stroke="#bfbfbf" points="409.5,-123.5 409.5,-142.5 573.5,-142.5 573.5,-123.5 409.5,-123.5"/>
<text text-anchor="middle" x="491.5" y="-130.5" font-family="Helvetica,sans-Serif" font-size="10.00">Framework/DataProcessorSpec.h</text>
</g>
<!-- Node3&#45;&gt;Node14 -->
<g id="edge13" class="edge"><title>Node3&#45;&gt;Node14</title>
<path fill="none" stroke="midnightblue" d="M934.342,-250.707C835.263,-244.337 666.703,-230.845 608.5,-210 569.647,-196.085 530.685,-167.027 508.969,-149.147"/>
<polygon fill="midnightblue" stroke="midnightblue" points="511.181,-146.434 501.274,-142.679 506.677,-151.792 511.181,-146.434"/>
</g>
<!-- Node15 -->
<g id="node15" class="node"><title>Node15</title>
<g id="a_node15"><a xlink:href="CheckInterface_8h.html" target="_top" xlink:title="QualityControl/CheckInterface.h">
<polygon fill="none" stroke="black" points="1323,-123.5 1323,-142.5 1480,-142.5 1480,-123.5 1323,-123.5"/>
<text text-anchor="middle" x="1401.5" y="-130.5" font-family="Helvetica,sans-Serif" font-size="10.00">QualityControl/CheckInterface.h</text>
</a>
</g>
</g>
<!-- Node3&#45;&gt;Node15 -->
<g id="edge14" class="edge"><title>Node3&#45;&gt;Node15</title>
<path fill="none" stroke="midnightblue" d="M1008.8,-246.364C1008.02,-230.388 1008.92,-196.276 1028.5,-179 1033.82,-174.305 1204.35,-155.19 1312.97,-143.435"/>
<polygon fill="midnightblue" stroke="midnightblue" points="1313.39,-146.911 1322.95,-142.357 1312.63,-139.951 1313.39,-146.911"/>
</g>
<!-- Node18 -->
<g id="node18" class="node"><title>Node18</title>
<g id="a_node18"><a xlink:href="MonitorObject_8h.html" target="_top" xlink:title="QualityControl/MonitorObject.h">
<polygon fill="none" stroke="black" points="1249,-67.5 1249,-86.5 1400,-86.5 1400,-67.5 1249,-67.5"/>
<text text-anchor="middle" x="1324.5" y="-74.5" font-family="Helvetica,sans-Serif" font-size="10.00">QualityControl/MonitorObject.h</text>
</a>
</g>
</g>
<!-- Node3&#45;&gt;Node18 -->
<g id="edge40" class="edge"><title>Node3&#45;&gt;Node18</title>
<path fill="none" stroke="midnightblue" d="M1084.59,-246.769C1087.6,-246.498 1090.58,-246.241 1093.5,-246 1162.94,-240.287 1671.67,-260.659 1719.5,-210 1728.96,-199.982 1727.91,-189.916 1719.5,-179 1698.65,-151.932 1484.58,-108.244 1380.59,-88.4018"/>
<polygon fill="midnightblue" stroke="midnightblue" points="1381.06,-84.9279 1370.58,-86.5003 1379.75,-91.805 1381.06,-84.9279"/>
</g>
<!-- Node22 -->
<g id="node22" class="node"><title>Node22</title>
<g id="a_node22"><a xlink:href="DatabaseInterface_8h.html" target="_top" xlink:title="QualityControl/DatabaseInterface.h">
<polygon fill="none" stroke="black" points="635.5,-185 635.5,-204 805.5,-204 805.5,-185 635.5,-185"/>
<text text-anchor="middle" x="720.5" y="-192" font-family="Helvetica,sans-Serif" font-size="10.00">QualityControl/DatabaseInterface.h</text>
</a>
</g>
</g>
<!-- Node3&#45;&gt;Node22 -->
<g id="edge28" class="edge"><title>Node3&#45;&gt;Node22</title>
<path fill="none" stroke="midnightblue" d="M968.093,-246.475C916.374,-235.827 827.887,-217.609 771.891,-206.081"/>
<polygon fill="midnightblue" stroke="midnightblue" points="772.33,-202.598 761.83,-204.009 770.919,-209.454 772.33,-202.598"/>
</g>
<!-- Node25 -->
<g id="node25" class="node"><title>Node25</title>
<g id="a_node25"><a xlink:href="QcInfoLogger_8h.html" target="_top" xlink:title="QualityControl/QcInfoLogger.h">
<polygon fill="none" stroke="black" points="1638,-123.5 1638,-142.5 1787,-142.5 1787,-123.5 1638,-123.5"/>
<text text-anchor="middle" x="1712.5" y="-130.5" font-family="Helvetica,sans-Serif" font-size="10.00">QualityControl/QcInfoLogger.h</text>
</a>
</g>
</g>
<!-- Node3&#45;&gt;Node25 -->
<g id="edge41" class="edge"><title>Node3&#45;&gt;Node25</title>
<path fill="none" stroke="midnightblue" d="M1084.59,-246.759C1087.6,-246.491 1090.58,-246.236 1093.5,-246 1130.05,-243.046 1727.29,-236.624 1752.5,-210 1769.3,-192.255 1748.19,-166.08 1730.83,-149.543"/>
<polygon fill="midnightblue" stroke="midnightblue" points="1733.03,-146.809 1723.27,-142.687 1728.33,-151.996 1733.03,-146.809"/>
</g>
<!-- Node27 -->
<g id="node27" class="node"><title>Node27</title>
<g id="a_node27"><a xlink:href="Check_8h_source.html" target="_top" xlink:title="QualityControl/Check.h">
<polygon fill="none" stroke="black" points="862,-185 862,-204 981,-204 981,-185 862,-185"/>
<text text-anchor="middle" x="921.5" y="-192" font-family="Helvetica,sans-Serif" font-size="10.00">QualityControl/Check.h</text>
</a>
</g>
</g>
<!-- Node3&#45;&gt;Node27 -->
<g id="edge43" class="edge"><title>Node3&#45;&gt;Node27</title>
<path fill="none" stroke="midnightblue" d="M996.892,-246.475C982.777,-236.931 959.669,-221.307 942.751,-209.868"/>
<polygon fill="midnightblue" stroke="midnightblue" points="944.329,-206.711 934.085,-204.009 940.409,-212.51 944.329,-206.711"/>
</g>
<!-- Node15&#45;&gt;Node6 -->
<g id="edge15" class="edge"><title>Node15&#45;&gt;Node6</title>
<path fill="none" stroke="midnightblue" d="M1362.15,-123.438C1328.89,-115.643 1280.28,-102.931 1239.5,-87 1221.36,-79.9123 1219.13,-72.676 1200.5,-67 1069.93,-27.2275 1030.54,-50.8922 895.5,-31 878.417,-28.4836 859.426,-25.159 844.024,-22.3282"/>
<polygon fill="midnightblue" stroke="midnightblue" points="844.475,-18.852 834.003,-20.4632 843.194,-25.7338 844.475,-18.852"/>
</g>
<!-- Node15&#45;&gt;Node7 -->
<g id="edge16" class="edge"><title>Node15&#45;&gt;Node7</title>
<path fill="none" stroke="midnightblue" d="M1411.54,-123.264C1420.72,-114.801 1434.11,-101.196 1442.5,-87 1452.14,-70.677 1458.61,-49.9248 1462.38,-35.1718"/>
<polygon fill="midnightblue" stroke="midnightblue" points="1465.84,-35.7706 1464.74,-25.2322 1459.03,-34.1514 1465.84,-35.7706"/>
</g>
<!-- Node16 -->
<g id="node16" class="node"><title>Node16</title>
<polygon fill="none" stroke="#bfbfbf" points="970,-67.5 970,-86.5 1053,-86.5 1053,-67.5 970,-67.5"/>
<text text-anchor="middle" x="1011.5" y="-74.5" font-family="Helvetica,sans-Serif" font-size="10.00">unordered_map</text>
</g>
<!-- Node15&#45;&gt;Node16 -->
<g id="edge17" class="edge"><title>Node15&#45;&gt;Node16</title>
<path fill="none" stroke="midnightblue" d="M1329.72,-123.484C1263.1,-115.355 1160.92,-102.318 1063.26,-87.2214"/>
<polygon fill="midnightblue" stroke="midnightblue" points="1063.64,-83.7377 1053.22,-85.6588 1062.56,-90.6545 1063.64,-83.7377"/>
</g>
<!-- Node17 -->
<g id="node17" class="node"><title>Node17</title>
<polygon fill="none" stroke="#bfbfbf" points="1296.5,-6 1296.5,-25 1352.5,-25 1352.5,-6 1296.5,-6"/>
<text text-anchor="middle" x="1324.5" y="-13" font-family="Helvetica,sans-Serif" font-size="10.00">Rtypes.h</text>
</g>
<!-- Node15&#45;&gt;Node17 -->
<g id="edge18" class="edge"><title>Node15&#45;&gt;Node17</title>
<path fill="none" stroke="midnightblue" d="M1405.47,-123.353C1410.84,-110.248 1418.67,-84.9801 1408.5,-67 1398.46,-49.2547 1379.42,-37.0581 1362,-29.1033"/>
<polygon fill="midnightblue" stroke="midnightblue" points="1363.13,-25.7816 1352.56,-25.1121 1360.41,-32.2293 1363.13,-25.7816"/>
</g>
<!-- Node15&#45;&gt;Node18 -->
<g id="edge19" class="edge"><title>Node15&#45;&gt;Node18</title>
<path fill="none" stroke="midnightblue" d="M1389.13,-123.324C1377.34,-115.058 1359.37,-102.453 1345.36,-92.6322"/>
<polygon fill="midnightblue" stroke="midnightblue" points="1347.04,-89.5307 1336.84,-86.6545 1343.02,-95.2619 1347.04,-89.5307"/>
</g>
<!-- Node21 -->
<g id="node21" class="node"><title>Node21</title>
<g id="a_node21"><a xlink:href="Quality_8h.html" target="_top" xlink:title="QualityControl/Quality.h">
<polygon fill="none" stroke="black" points="1071,-67.5 1071,-86.5 1192,-86.5 1192,-67.5 1071,-67.5"/>
<text text-anchor="middle" x="1131.5" y="-74.5" font-family="Helvetica,sans-Serif" font-size="10.00">QualityControl/Quality.h</text>
</a>
</g>
</g>
<!-- Node15&#45;&gt;Node21 -->
<g id="edge25" class="edge"><title>Node15&#45;&gt;Node21</title>
<path fill="none" stroke="midnightblue" d="M1358.72,-123.444C1311.32,-113.964 1234.87,-98.6747 1183.92,-88.4835"/>
<polygon fill="midnightblue" stroke="midnightblue" points="1184.57,-85.0456 1174.08,-86.5164 1183.2,-91.9097 1184.57,-85.0456"/>
</g>
<!-- Node18&#45;&gt;Node6 -->
<g id="edge20" class="edge"><title>Node18&#45;&gt;Node6</title>
<path fill="none" stroke="midnightblue" d="M1248.95,-68.3683C1135.19,-56.8317 929.52,-35.786 895.5,-31 878.518,-28.6109 859.667,-25.3224 844.326,-22.4811"/>
<polygon fill="midnightblue" stroke="midnightblue" points="844.806,-19.0102 834.331,-20.6021 843.512,-25.8897 844.806,-19.0102"/>
</g>
<!-- Node18&#45;&gt;Node7 -->
<g id="edge21" class="edge"><title>Node18&#45;&gt;Node7</title>
<path fill="none" stroke="midnightblue" d="M1344.85,-67.4751C1369.71,-57.0579 1411.86,-39.3959 1439.44,-27.84"/>
<polygon fill="midnightblue" stroke="midnightblue" points="1441.01,-30.9763 1448.88,-23.8836 1438.3,-24.5202 1441.01,-30.9763"/>
</g>
<!-- Node18&#45;&gt;Node17 -->
<g id="edge22" class="edge"><title>Node18&#45;&gt;Node17</title>
<path fill="none" stroke="midnightblue" d="M1324.5,-67.4751C1324.5,-59.0803 1324.5,-45.9806 1324.5,-35.1631"/>
<polygon fill="midnightblue" stroke="midnightblue" points="1328,-35.0091 1324.5,-25.0091 1321,-35.0091 1328,-35.0091"/>
</g>
<!-- Node19 -->
<g id="node19" class="node"><title>Node19</title>
<polygon fill="none" stroke="#bfbfbf" points="905,-6 905,-25 964,-25 964,-6 905,-6"/>
<text text-anchor="middle" x="934.5" y="-13" font-family="Helvetica,sans-Serif" font-size="10.00">TObject.h</text>
</g>
<!-- Node18&#45;&gt;Node19 -->
<g id="edge23" class="edge"><title>Node18&#45;&gt;Node19</title>
<path fill="none" stroke="midnightblue" d="M1268.62,-67.4751C1188.89,-55.3105 1044.4,-33.2668 974.505,-22.6033"/>
<polygon fill="midnightblue" stroke="midnightblue" points="974.763,-19.1023 964.349,-21.0539 973.707,-26.0222 974.763,-19.1023"/>
</g>
<!-- Node20 -->
<g id="node20" class="node"><title>Node20</title>
<polygon fill="none" stroke="#bfbfbf" points="567.5,-6 567.5,-25 683.5,-25 683.5,-6 567.5,-6"/>
<text text-anchor="middle" x="625.5" y="-13" font-family="Helvetica,sans-Serif" font-size="10.00">Common/Exceptions.h</text>
</g>
<!-- Node18&#45;&gt;Node20 -->
<g id="edge24" class="edge"><title>Node18&#45;&gt;Node20</title>
<path fill="none" stroke="midnightblue" d="M1248.77,-69.906C1144.14,-61.4388 949.45,-45.5163 783.5,-31 754.05,-28.4239 721.525,-25.4594 693.678,-22.8849"/>
<polygon fill="midnightblue" stroke="midnightblue" points="693.924,-19.3929 683.644,-21.9555 693.279,-26.363 693.924,-19.3929"/>
</g>
<!-- Node21&#45;&gt;Node6 -->
<g id="edge27" class="edge"><title>Node21&#45;&gt;Node6</title>
<path fill="none" stroke="midnightblue" d="M1085.94,-67.4751C1020.27,-55.1887 900.746,-32.8243 844.426,-22.2864"/>
<polygon fill="midnightblue" stroke="midnightblue" points="844.828,-18.8011 834.355,-20.4022 843.541,-25.6817 844.828,-18.8011"/>
</g>
<!-- Node21&#45;&gt;Node17 -->
<g id="edge26" class="edge"><title>Node21&#45;&gt;Node17</title>
<path fill="none" stroke="midnightblue" d="M1159.15,-67.4751C1192.69,-57.1362 1249.37,-39.6611 1286.87,-28.1017"/>
<polygon fill="midnightblue" stroke="midnightblue" points="1288.37,-31.2999 1296.9,-25.0091 1286.31,-24.6106 1288.37,-31.2999"/>
</g>
<!-- Node22&#45;&gt;Node5 -->
<g id="edge30" class="edge"><title>Node22&#45;&gt;Node5</title>
<path fill="none" stroke="midnightblue" d="M749.298,-184.975C785.171,-174.356 846.476,-156.209 885.437,-144.675"/>
<polygon fill="midnightblue" stroke="midnightblue" points="886.718,-147.946 895.313,-141.752 884.731,-141.234 886.718,-147.946"/>
</g>
<!-- Node22&#45;&gt;Node6 -->
<g id="edge29" class="edge"><title>Node22&#45;&gt;Node6</title>
<path fill="none" stroke="midnightblue" d="M709.919,-184.792C695.594,-171.875 672.765,-146.614 681.5,-123 698.655,-76.6253 750.1,-45.2657 783.469,-29.1766"/>
<polygon fill="midnightblue" stroke="midnightblue" points="785.175,-32.2435 792.772,-24.8586 782.228,-25.8941 785.175,-32.2435"/>
</g>
<!-- Node22&#45;&gt;Node8 -->
<g id="edge31" class="edge"><title>Node22&#45;&gt;Node8</title>
<path fill="none" stroke="midnightblue" d="M705.17,-184.975C687.53,-175.166 658.34,-158.935 637.642,-147.425"/>
<polygon fill="midnightblue" stroke="midnightblue" points="639.243,-144.31 628.802,-142.509 635.841,-150.428 639.243,-144.31"/>
</g>
<!-- Node22&#45;&gt;Node16 -->
<g id="edge32" class="edge"><title>Node22&#45;&gt;Node16</title>
<path fill="none" stroke="midnightblue" d="M744.415,-184.951C770.374,-175.467 812.89,-159.337 848.5,-143 865.847,-135.042 869.035,-130.695 886.5,-123 915.568,-110.192 949.537,-98.1416 974.721,-89.7399"/>
<polygon fill="midnightblue" stroke="midnightblue" points="975.854,-93.0516 984.253,-86.5938 973.66,-86.4043 975.854,-93.0516"/>
</g>
<!-- Node22&#45;&gt;Node18 -->
<g id="edge39" class="edge"><title>Node22&#45;&gt;Node18</title>
<path fill="none" stroke="midnightblue" d="M794.275,-184.957C901.32,-172.447 1090.37,-149.882 1121.5,-143 1183.33,-129.332 1253.19,-104.897 1292.73,-90.1941"/>
<polygon fill="midnightblue" stroke="midnightblue" points="1294.21,-93.3783 1302.34,-86.5893 1291.75,-86.8242 1294.21,-93.3783"/>
</g>
<!-- Node23 -->
<g id="node23" class="node"><title>Node23</title>
<g id="a_node23"><a xlink:href="QualityObject_8h_source.html" target="_top" xlink:title="QualityControl/QualityObject.h">
<polygon fill="none" stroke="black" points="691,-123.5 691,-142.5 840,-142.5 840,-123.5 691,-123.5"/>
<text text-anchor="middle" x="765.5" y="-130.5" font-family="Helvetica,sans-Serif" font-size="10.00">QualityControl/QualityObject.h</text>
</a>
</g>
</g>
<!-- Node22&#45;&gt;Node23 -->
<g id="edge33" class="edge"><title>Node22&#45;&gt;Node23</title>
<path fill="none" stroke="midnightblue" d="M726.947,-184.975C733.697,-176.05 744.469,-161.807 752.913,-150.643"/>
<polygon fill="midnightblue" stroke="midnightblue" points="755.824,-152.596 759.065,-142.509 750.241,-148.374 755.824,-152.596"/>
</g>
<!-- Node23&#45;&gt;Node7 -->
<g id="edge35" class="edge"><title>Node23&#45;&gt;Node7</title>
<path fill="none" stroke="midnightblue" d="M785.844,-123.464C820.841,-109.18 895,-80.6628 960.5,-67 1135.67,-30.4613 1183.71,-51.2449 1361.5,-31 1387.78,-28.0078 1417.64,-23.8052 1438.79,-20.6944"/>
<polygon fill="midnightblue" stroke="midnightblue" points="1439.32,-24.1537 1448.7,-19.2223 1438.29,-17.2297 1439.32,-24.1537"/>
</g>
<!-- Node23&#45;&gt;Node19 -->
<g id="edge36" class="edge"><title>Node23&#45;&gt;Node19</title>
<path fill="none" stroke="midnightblue" d="M778.202,-123.319C806.953,-103.67 877.276,-55.6087 912.966,-31.2169"/>
<polygon fill="midnightblue" stroke="midnightblue" points="915.369,-33.8141 921.65,-25.282 911.419,-28.0349 915.369,-33.8141"/>
</g>
<!-- Node23&#45;&gt;Node20 -->
<g id="edge37" class="edge"><title>Node23&#45;&gt;Node20</title>
<path fill="none" stroke="midnightblue" d="M754.977,-123.319C731.363,-103.837 673.894,-56.4247 644.1,-31.8448"/>
<polygon fill="midnightblue" stroke="midnightblue" points="646.086,-28.9461 636.145,-25.282 641.631,-34.3457 646.086,-28.9461"/>
</g>
<!-- Node23&#45;&gt;Node21 -->
<g id="edge38" class="edge"><title>Node23&#45;&gt;Node21</title>
<path fill="none" stroke="midnightblue" d="M823.494,-123.444C888.814,-113.806 994.837,-98.1635 1063.87,-87.9782"/>
<polygon fill="midnightblue" stroke="midnightblue" points="1064.4,-91.4386 1073.78,-86.5164 1063.37,-84.5136 1064.4,-91.4386"/>
</g>
<!-- Node24 -->
<g id="node24" class="node"><title>Node24</title>
<polygon fill="none" stroke="#bfbfbf" points="738.5,-67.5 738.5,-86.5 792.5,-86.5 792.5,-67.5 738.5,-67.5"/>
<text text-anchor="middle" x="765.5" y="-74.5" font-family="Helvetica,sans-Serif" font-size="10.00">iostream</text>
</g>
<!-- Node23&#45;&gt;Node24 -->
<g id="edge34" class="edge"><title>Node23&#45;&gt;Node24</title>
<path fill="none" stroke="midnightblue" d="M765.5,-123.083C765.5,-116.006 765.5,-105.861 765.5,-96.9865"/>
<polygon fill="midnightblue" stroke="midnightblue" points="769,-96.751 765.5,-86.7511 762,-96.7511 769,-96.751"/>
</g>
<!-- Node26 -->
<g id="node26" class="node"><title>Node26</title>
<polygon fill="none" stroke="#bfbfbf" points="1647.5,-67.5 1647.5,-86.5 1777.5,-86.5 1777.5,-67.5 1647.5,-67.5"/>
<text text-anchor="middle" x="1712.5" y="-74.5" font-family="Helvetica,sans-Serif" font-size="10.00">InfoLogger/InfoLogger.hxx</text>
</g>
<!-- Node25&#45;&gt;Node26 -->
<g id="edge42" class="edge"><title>Node25&#45;&gt;Node26</title>
<path fill="none" stroke="midnightblue" d="M1712.5,-123.083C1712.5,-116.006 1712.5,-105.861 1712.5,-96.9865"/>
<polygon fill="midnightblue" stroke="midnightblue" points="1716,-96.751 1712.5,-86.7511 1709,-96.7511 1716,-96.751"/>
</g>
<!-- Node27&#45;&gt;Node5 -->
<g id="edge47" class="edge"><title>Node27&#45;&gt;Node5</title>
<path fill="none" stroke="midnightblue" d="M921.5,-184.975C921.5,-176.58 921.5,-163.481 921.5,-152.663"/>
<polygon fill="midnightblue" stroke="midnightblue" points="925,-152.509 921.5,-142.509 918,-152.509 925,-152.509"/>
</g>
<!-- Node27&#45;&gt;Node7 -->
<g id="edge45" class="edge"><title>Node27&#45;&gt;Node7</title>
<path fill="none" stroke="midnightblue" d="M979.733,-184.966C995.534,-182.827 1012.65,-180.668 1028.5,-179 1081.58,-173.414 1471.2,-182.129 1507.5,-143 1536.56,-111.675 1502.17,-59.5253 1480.89,-33.0346"/>
<polygon fill="midnightblue" stroke="midnightblue" points="1483.37,-30.5472 1474.28,-25.1017 1477.99,-35.0262 1483.37,-30.5472"/>
</g>
<!-- Node27&#45;&gt;Node8 -->
<g id="edge46" class="edge"><title>Node27&#45;&gt;Node8</title>
<path fill="none" stroke="midnightblue" d="M877.371,-184.975C814.552,-172.84 700.839,-150.872 645.491,-140.18"/>
<polygon fill="midnightblue" stroke="midnightblue" points="646.029,-136.719 635.546,-138.259 644.701,-143.592 646.029,-136.719"/>
</g>
<!-- Node27&#45;&gt;Node14 -->
<g id="edge49" class="edge"><title>Node27&#45;&gt;Node14</title>
<path fill="none" stroke="midnightblue" d="M861.71,-185.227C783.543,-174.411 646.766,-155.484 563.143,-143.913"/>
<polygon fill="midnightblue" stroke="midnightblue" points="563.601,-140.444 553.216,-142.54 562.642,-147.377 563.601,-140.444"/>
</g>
<!-- Node27&#45;&gt;Node15 -->
<g id="edge53" class="edge"><title>Node27&#45;&gt;Node15</title>
<path fill="none" stroke="midnightblue" d="M961.72,-184.989C972.647,-182.849 984.5,-180.684 995.5,-179 1026.01,-174.329 1202.73,-155.205 1312.73,-143.443"/>
<polygon fill="midnightblue" stroke="midnightblue" points="1313.26,-146.906 1322.83,-142.363 1312.51,-139.946 1313.26,-146.906"/>
</g>
<!-- Node27&#45;&gt;Node16 -->
<g id="edge48" class="edge"><title>Node27&#45;&gt;Node16</title>
<path fill="none" stroke="midnightblue" d="M960.251,-184.996C1016.97,-172.366 1116.48,-149.445 1121.5,-143 1141.9,-116.815 1100.87,-99.0337 1063.26,-88.7781"/>
<polygon fill="midnightblue" stroke="midnightblue" points="1063.86,-85.3188 1053.3,-86.2084 1062.11,-92.0966 1063.86,-85.3188"/>
</g>
<!-- Node27&#45;&gt;Node18 -->
<g id="edge52" class="edge"><title>Node27&#45;&gt;Node18</title>
<path fill="none" stroke="midnightblue" d="M979.737,-184.999C995.537,-182.859 1012.66,-180.692 1028.5,-179 1079.48,-173.556 1453.69,-180.639 1488.5,-143 1518.11,-110.983 1464.05,-94.4737 1410.23,-86.1257"/>
<polygon fill="midnightblue" stroke="midnightblue" points="1410.6,-82.6434 1400.2,-84.66 1409.59,-89.5698 1410.6,-82.6434"/>
</g>
<!-- Node27&#45;&gt;Node21 -->
<g id="edge50" class="edge"><title>Node27&#45;&gt;Node21</title>
<path fill="none" stroke="midnightblue" d="M964.296,-184.957C1025.95,-172.446 1133.04,-149.882 1138.5,-143 1148.95,-129.839 1144.97,-110.159 1139.76,-95.9026"/>
<polygon fill="midnightblue" stroke="midnightblue" points="1142.99,-94.555 1135.93,-86.6515 1136.52,-97.23 1142.99,-94.555"/>
</g>
<!-- Node27&#45;&gt;Node23 -->
<g id="edge51" class="edge"><title>Node27&#45;&gt;Node23</title>
<path fill="none" stroke="midnightblue" d="M899.149,-184.975C872.505,-174.813 827.786,-157.756 797.486,-146.2"/>
<polygon fill="midnightblue" stroke="midnightblue" points="798.4,-142.803 787.81,-142.509 795.906,-149.343 798.4,-142.803"/>
</g>
<!-- Node27&#45;&gt;Node25 -->
<g id="edge54" class="edge"><title>Node27&#45;&gt;Node25</title>
<path fill="none" stroke="midnightblue" d="M978.327,-184.999C994.509,-182.796 1012.18,-180.597 1028.5,-179 1292.61,-153.164 1360,-164.504 1624.5,-143 1625.44,-142.924 1626.38,-142.846 1627.33,-142.767"/>
<polygon fill="midnightblue" stroke="midnightblue" points="1627.97,-146.225 1637.63,-141.871 1627.36,-139.251 1627.97,-146.225"/>
</g>
<!-- Node28 -->
<g id="node28" class="node"><title>Node28</title>
<polygon fill="none" stroke="#bfbfbf" points="1246,-123.5 1246,-142.5 1305,-142.5 1305,-123.5 1246,-123.5"/>
<text text-anchor="middle" x="1275.5" y="-130.5" font-family="Helvetica,sans-Serif" font-size="10.00">functional</text>
</g>
<!-- Node27&#45;&gt;Node28 -->
<g id="edge44" class="edge"><title>Node27&#45;&gt;Node28</title>
<path fill="none" stroke="midnightblue" d="M963.318,-184.987C973.809,-182.939 985.053,-180.819 995.5,-179 1100.03,-160.795 1127.05,-161.637 1231.5,-143 1232.94,-142.743 1234.4,-142.476 1235.88,-142.201"/>
<polygon fill="midnightblue" stroke="midnightblue" points="1236.56,-145.634 1245.72,-140.304 1235.24,-138.761 1236.56,-145.634"/>
</g>
<!-- Node29 -->
<g id="node29" class="node"><title>Node29</title>
<g id="a_node29"><a xlink:href="CheckConfig_8h.html" target="_top" xlink:title="QualityControl/CheckConfig.h">
<polygon fill="none" stroke="black" points="966,-123.5 966,-142.5 1113,-142.5 1113,-123.5 966,-123.5"/>
<text text-anchor="middle" x="1039.5" y="-130.5" font-family="Helvetica,sans-Serif" font-size="10.00">QualityControl/CheckConfig.h</text>
</a>
</g>
</g>
<!-- Node27&#45;&gt;Node29 -->
<g id="edge55" class="edge"><title>Node27&#45;&gt;Node29</title>
<path fill="none" stroke="midnightblue" d="M938.407,-184.975C958.034,-175.078 990.631,-158.642 1013.49,-147.115"/>
<polygon fill="midnightblue" stroke="midnightblue" points="1015.27,-150.137 1022.62,-142.509 1012.12,-143.886 1015.27,-150.137"/>
</g>
<!-- Node29&#45;&gt;Node6 -->
<g id="edge56" class="edge"><title>Node29&#45;&gt;Node6</title>
<path fill="none" stroke="midnightblue" d="M1022.51,-123.319C983.316,-103.286 886.333,-53.7221 839.556,-29.8164"/>
<polygon fill="midnightblue" stroke="midnightblue" points="840.873,-26.5587 830.376,-25.1245 837.687,-32.7919 840.873,-26.5587"/>
</g>
<!-- Node29&#45;&gt;Node16 -->
<g id="edge57" class="edge"><title>Node29&#45;&gt;Node16</title>
<path fill="none" stroke="midnightblue" d="M1034.88,-123.083C1031.04,-115.691 1025.48,-104.953 1020.74,-95.8111"/>
<polygon fill="midnightblue" stroke="midnightblue" points="1023.75,-94.0175 1016.04,-86.7511 1017.53,-97.2398 1023.75,-94.0175"/>
</g>
<!-- Node30&#45;&gt;Node6 -->
<g id="edge60" class="edge"><title>Node30&#45;&gt;Node6</title>
<path fill="none" stroke="midnightblue" d="M247.216,-179.436C219.365,-166.467 188.213,-145.817 204.5,-123 268.435,-33.431 650.181,-35.8794 692.5,-31 723.259,-27.4536 758.392,-23.2233 782.847,-20.2501"/>
<polygon fill="midnightblue" stroke="midnightblue" points="783.45,-23.7026 792.953,-19.019 782.604,-16.7539 783.45,-23.7026"/>
</g>
<!-- Node30&#45;&gt;Node8 -->
<g id="edge59" class="edge"><title>Node30&#45;&gt;Node8</title>
<path fill="none" stroke="midnightblue" d="M353.728,-183.975C412.289,-175.498 498.047,-161.849 581.348,-143.055"/>
<polygon fill="midnightblue" stroke="midnightblue" points="582.259,-146.437 591.229,-140.799 580.701,-139.613 582.259,-146.437"/>
</g>
<!-- Node30&#45;&gt;Node14 -->
<g id="edge62" class="edge"><title>Node30&#45;&gt;Node14</title>
<path fill="none" stroke="midnightblue" d="M332.53,-179.475C368.884,-169.075 417.814,-155.078 451.745,-145.372"/>
<polygon fill="midnightblue" stroke="midnightblue" points="453.112,-148.622 461.763,-142.506 451.186,-141.892 453.112,-148.622"/>
</g>
<!-- Node31 -->
<g id="node31" class="node"><title>Node31</title>
<polygon fill="none" stroke="#bfbfbf" points="213.5,-123.5 213.5,-142.5 353.5,-142.5 353.5,-123.5 213.5,-123.5"/>
<text text-anchor="middle" x="283.5" y="-130.5" font-family="Helvetica,sans-Serif" font-size="10.00">Framework/WorkflowSpec.h</text>
</g>
<!-- Node30&#45;&gt;Node31 -->
<g id="edge61" class="edge"><title>Node30&#45;&gt;Node31</title>
<path fill="none" stroke="midnightblue" d="M283.5,-179.399C283.5,-171.466 283.5,-161.458 283.5,-152.858"/>
<polygon fill="midnightblue" stroke="midnightblue" points="287,-152.658 283.5,-142.658 280,-152.658 287,-152.658"/>
</g>
<!-- Node32&#45;&gt;Node6 -->
<g id="edge64" class="edge"><title>Node32&#45;&gt;Node6</title>
<path fill="none" stroke="midnightblue" d="M187.324,-68.3506C192.12,-67.875 196.881,-67.4196 201.5,-67 419.411,-47.203 474.704,-52.0228 692.5,-31 723.319,-28.0252 758.444,-23.713 782.88,-20.5647"/>
<polygon fill="midnightblue" stroke="midnightblue" points="783.513,-24.012 792.978,-19.2516 782.61,-17.0705 783.513,-24.012"/>
</g>
<!-- Node32&#45;&gt;Node20 -->
<g id="edge66" class="edge"><title>Node32&#45;&gt;Node20</title>
<path fill="none" stroke="midnightblue" d="M187.14,-67.9446C284.203,-56.5536 460.504,-35.8634 557.318,-24.5017"/>
<polygon fill="midnightblue" stroke="midnightblue" points="557.767,-27.9731 567.291,-23.3313 556.951,-21.0208 557.767,-27.9731"/>
</g>
<!-- Node33 -->
<g id="node33" class="node"><title>Node33</title>
<polygon fill="none" stroke="#bfbfbf" points="51,-0.5 51,-30.5 186,-30.5 186,-0.5 51,-0.5"/>
<text text-anchor="start" x="59" y="-18.5" font-family="Helvetica,sans-Serif" font-size="10.00">Configuration/Configuration</text>
<text text-anchor="middle" x="118.5" y="-7.5" font-family="Helvetica,sans-Serif" font-size="10.00">Factory.h</text>
</g>
<!-- Node32&#45;&gt;Node33 -->
<g id="edge65" class="edge"><title>Node32&#45;&gt;Node33</title>
<path fill="none" stroke="midnightblue" d="M118.5,-67.4751C118.5,-60.471 118.5,-50.1919 118.5,-40.6956"/>
<polygon fill="midnightblue" stroke="midnightblue" points="122,-40.5229 118.5,-30.523 115,-40.523 122,-40.5229"/>
</g>
</g>
</svg>
        <g id="navigator" transform="translate(0 0)" fill="#404254">
                <rect fill="#f2f5e9" fill-opacity="0.5" stroke="#606060" stroke-width=".5" x="0" y="0" width="60" height="60"/>
                <use id="zoomplus" xlink:href="#zoomPlus" x="17" y="9" onmousedown="handleZoom(evt,'in')"/>
                <use id="zoomminus" xlink:href="#zoomMin" x="42" y="9" onmousedown="handleZoom(evt,'out')"/>
                <use id="reset" xlink:href="#resetDef" x="30" y="36" onmousedown="handleReset()"/>
                <g id="arrowUp" xlink:href="#dirArrow" transform="translate(30 24)" onmousedown="handlePan(0,-1)">
                  <use xlink:href="#rim" fill="#404040">
                        <set attributeName="fill" to="#808080" begin="arrowUp.mouseover" end="arrowUp.mouseout"/>
                  </use>
                  <path fill="none" stroke="white" stroke-width="1.5" d="M0,-3.0v7 M-2.5,-0.5L0,-3.0L2.5,-0.5"/>
                </g>
                <g id="arrowRight" xlink:href="#dirArrow" transform="rotate(90) translate(36 -43)" onmousedown="handlePan(1,0)">
                  <use xlink:href="#rim" fill="#404040">
                        <set attributeName="fill" to="#808080" begin="arrowRight.mouseover" end="arrowRight.mouseout"/>
                  </use>
                  <path fill="none" stroke="white" stroke-width="1.5" d="M0,-3.0v7 M-2.5,-0.5L0,-3.0L2.5,-0.5"/>
                </g>
                <g id="arrowDown" xlink:href="#dirArrow" transform="rotate(180) translate(-30 -48)" onmousedown="handlePan(0,1)">
                  <use xlink:href="#rim" fill="#404040">
                        <set attributeName="fill" to="#808080" begin="arrowDown.mouseover" end="arrowDown.mouseout"/>
                  </use>
                  <path fill="none" stroke="white" stroke-width="1.5" d="M0,-3.0v7 M-2.5,-0.5L0,-3.0L2.5,-0.5"/>
                </g>
                <g id="arrowLeft" xlink:href="#dirArrow" transform="rotate(270) translate(-36 17)" onmousedown="handlePan(-1,0)">
                  <use xlink:href="#rim" fill="#404040">
                        <set attributeName="fill" to="#808080" begin="arrowLeft.mouseover" end="arrowLeft.mouseout"/>
                  </use>
                  <path fill="none" stroke="white" stroke-width="1.5" d="M0,-3.0v7 M-2.5,-0.5L0,-3.0L2.5,-0.5"/>
                </g>
        </g>
        <svg viewBox="0 0 15 15" width="100%" height="30px" preserveAspectRatio="xMaxYMin meet">
         <g id="arrow_out" transform="scale(0.3 0.3)">
          <a xlink:href="testWorkflow_8cxx__incl_org.svg" target="_base">
           <rect id="button" ry="5" rx="5" y="6" x="6" height="38" width="38"
                fill="#f2f5e9" fill-opacity="0.5" stroke="#606060" stroke-width="1.0"/>
           <path id="arrow"
             d="M 11.500037,31.436501 C 11.940474,20.09759 22.043105,11.32322 32.158766,21.979434 L 37.068811,17.246167 C 37.068811,17.246167 37.088388,32 37.088388,32 L 22.160133,31.978069 C 22.160133,31.978069 26.997745,27.140456 26.997745,27.140456 C 18.528582,18.264221 13.291696,25.230495 11.500037,31.436501 z"
             style="fill:#404040;"/>
          </a>
         </g>
        </svg>
</svg>
