<?xml version="1.0" encoding="UTF-8" standalone="no"?>
<!DOCTYPE svg PUBLIC "-//W3C//DTD SVG 1.1//EN"
 "http://www.w3.org/Graphics/SVG/1.1/DTD/svg11.dtd">
<!-- Generated by graphviz version 2.38.0 (20140413.2041)
 -->
<!-- Title: Framework/test/testPostProcessingRunner.cxx Pages: 1 -->
<!--zoomable 341 -->
<svg id="main" version="1.1" xmlns="http://www.w3.org/2000/svg" xmlns:xlink="http://www.w3.org/1999/xlink" xml:space="preserve" onload="init(evt)">
<style type="text/css"><![CDATA[
.edge:hover path { stroke: red; }
.edge:hover polygon { stroke: red; fill: red; }
]]></style>
<script type="text/javascript"><![CDATA[
var edges = document.getElementsByTagName('g');
if (edges && edges.length) {
  for (var i=0;i<edges.length;i++) {
    if (edges[i].id.substr(0,4)=='edge') {
      edges[i].setAttribute('class','edge');
    }
  }
}
]]></script>
        <defs>
                <circle id="rim" cx="0" cy="0" r="7"/>
                <circle id="rim2" cx="0" cy="0" r="3.5"/>
                <g id="zoomPlus">
                        <use xlink:href="#rim" fill="#404040">
                                <set attributeName="fill" to="#808080" begin="zoomplus.mouseover" end="zoomplus.mouseout"/>
                        </use>
                        <path d="M-4,0h8M0,-4v8" fill="none" stroke="white" stroke-width="1.5" pointer-events="none"/>
                </g>
                <g id="zoomMin">
                        <use xlink:href="#rim" fill="#404040">
                                <set attributeName="fill" to="#808080" begin="zoomminus.mouseover" end="zoomminus.mouseout"/>
                        </use>
                        <path d="M-4,0h8" fill="none" stroke="white" stroke-width="1.5" pointer-events="none"/>
                </g>
                <g id="dirArrow">
                        <path fill="none" stroke="white" stroke-width="1.5" d="M0,-3.0v7 M-2.5,-0.5L0,-3.0L2.5,-0.5"/>
                </g>
               <g id="resetDef">
                       <use xlink:href="#rim2" fill="#404040">
                               <set attributeName="fill" to="#808080" begin="reset.mouseover" end="reset.mouseout"/>
                       </use>
               </g>
        </defs>

<script type="text/javascript">
var viewWidth = 1010;
var viewHeight = 341;
var sectionId = 'dynsection-0';
</script>
<script xlink:href="svgpan.js"/>
<svg id="graph" class="graph">
<g id="viewport">
<title>Framework/test/testPostProcessingRunner.cxx</title>
<!-- Node1 -->
<g id="node1" class="node"><title>Node1</title>
<polygon fill="#bfbfbf" stroke="black" points="245.5,-302.5 245.5,-332.5 418.5,-332.5 418.5,-302.5 245.5,-302.5"/>
<text text-anchor="start" x="253.5" y="-320.5" font-family="Helvetica,sans-Serif" font-size="10.00">Framework/test/testPostProcessing</text>
<text text-anchor="middle" x="332" y="-309.5" font-family="Helvetica,sans-Serif" font-size="10.00">Runner.cxx</text>
</g>
<!-- Node2 -->
<g id="node2" class="node"><title>Node2</title>
<polygon fill="none" stroke="#bfbfbf" points="119.5,-241 119.5,-260 238.5,-260 238.5,-241 119.5,-241"/>
<text text-anchor="middle" x="179" y="-248" font-family="Helvetica,sans-Serif" font-size="10.00">getTestDataDirectory.h</text>
</g>
<!-- Node1&#45;&gt;Node2 -->
<g id="edge1" class="edge"><title>Node1&#45;&gt;Node2</title>
<path fill="none" stroke="midnightblue" d="M298.801,-302.396C271.837,-290.941 234.171,-274.938 208.31,-263.952"/>
<polygon fill="midnightblue" stroke="midnightblue" points="209.597,-260.696 199.024,-260.007 206.859,-267.139 209.597,-260.696"/>
</g>
<!-- Node3 -->
<g id="node3" class="node"><title>Node3</title>
<g id="a_node3"><a xlink:href="PostProcessingRunner_8h.html" target="_top" xlink:title="QualityControl/PostProcessing\lRunner.h">
<polygon fill="none" stroke="black" points="256.5,-235.5 256.5,-265.5 407.5,-265.5 407.5,-235.5 256.5,-235.5"/>
<text text-anchor="start" x="264.5" y="-253.5" font-family="Helvetica,sans-Serif" font-size="10.00">QualityControl/PostProcessing</text>
<text text-anchor="middle" x="332" y="-242.5" font-family="Helvetica,sans-Serif" font-size="10.00">Runner.h</text>
</a>
</g>
</g>
<!-- Node1&#45;&gt;Node3 -->
<g id="edge2" class="edge"><title>Node1&#45;&gt;Node3</title>
<path fill="none" stroke="midnightblue" d="M332,-302.396C332,-294.645 332,-284.812 332,-275.86"/>
<polygon fill="midnightblue" stroke="midnightblue" points="335.5,-275.576 332,-265.577 328.5,-275.577 335.5,-275.576"/>
</g>
<!-- Node22 -->
<g id="node22" class="node"><title>Node22</title>
<polygon fill="none" stroke="#bfbfbf" points="425.5,-241 425.5,-260 544.5,-260 544.5,-241 425.5,-241"/>
<text text-anchor="middle" x="485" y="-248" font-family="Helvetica,sans-Serif" font-size="10.00">boost/test/unit_test.hpp</text>
</g>
<!-- Node1&#45;&gt;Node22 -->
<g id="edge34" class="edge"><title>Node1&#45;&gt;Node22</title>
<path fill="none" stroke="midnightblue" d="M365.199,-302.396C392.163,-290.941 429.829,-274.938 455.69,-263.952"/>
<polygon fill="midnightblue" stroke="midnightblue" points="457.141,-267.139 464.976,-260.007 454.403,-260.696 457.141,-267.139"/>
</g>
<!-- Node4 -->
<g id="node4" class="node"><title>Node4</title>
<polygon fill="none" stroke="#bfbfbf" points="453,-112.5 453,-131.5 505,-131.5 505,-112.5 453,-112.5"/>
<text text-anchor="middle" x="479" y="-119.5" font-family="Helvetica,sans-Serif" font-size="10.00">memory</text>
</g>
<!-- Node3&#45;&gt;Node4 -->
<g id="edge3" class="edge"><title>Node3&#45;&gt;Node4</title>
<path fill="none" stroke="midnightblue" d="M407.518,-236.904C430.121,-229.489 452.885,-217.711 468,-199 480.933,-182.99 482.268,-158.652 481.29,-141.852"/>
<polygon fill="midnightblue" stroke="midnightblue" points="484.751,-141.262 480.358,-131.621 477.78,-141.897 484.751,-141.262"/>
</g>
<!-- Node5 -->
<g id="node5" class="node"><title>Node5</title>
<polygon fill="none" stroke="#bfbfbf" points="0,-112.5 0,-131.5 146,-131.5 146,-112.5 0,-112.5"/>
<text text-anchor="middle" x="73" y="-119.5" font-family="Helvetica,sans-Serif" font-size="10.00">Framework/ServiceRegistry.h</text>
</g>
<!-- Node3&#45;&gt;Node5 -->
<g id="edge4" class="edge"><title>Node3&#45;&gt;Node5</title>
<path fill="none" stroke="midnightblue" d="M256.394,-235.676C188.005,-222.861 97.0663,-204.911 91,-199 75.7835,-184.174 72.4505,-159.028 72.1546,-141.748"/>
<polygon fill="midnightblue" stroke="midnightblue" points="75.6546,-141.766 72.3044,-131.715 68.6554,-141.662 75.6546,-141.766"/>
</g>
<!-- Node6 -->
<g id="node6" class="node"><title>Node6</title>
<g id="a_node6"><a xlink:href="PostProcessingInterface_8h.html" target="_top" xlink:title="QualityControl/PostProcessing\lInterface.h">
<polygon fill="none" stroke="black" points="100.5,-168.5 100.5,-198.5 251.5,-198.5 251.5,-168.5 100.5,-168.5"/>
<text text-anchor="start" x="108.5" y="-186.5" font-family="Helvetica,sans-Serif" font-size="10.00">QualityControl/PostProcessing</text>
<text text-anchor="middle" x="176" y="-175.5" font-family="Helvetica,sans-Serif" font-size="10.00">Interface.h</text>
</a>
</g>
</g>
<!-- Node3&#45;&gt;Node6 -->
<g id="edge5" class="edge"><title>Node3&#45;&gt;Node6</title>
<path fill="none" stroke="midnightblue" d="M298.15,-235.396C274.948,-225.728 243.974,-212.823 219.023,-202.426"/>
<polygon fill="midnightblue" stroke="midnightblue" points="220.361,-199.192 209.784,-198.577 217.668,-205.653 220.361,-199.192"/>
</g>
<!-- Node8 -->
<g id="node8" class="node"><title>Node8</title>
<g id="a_node8"><a xlink:href="Triggers_8h.html" target="_top" xlink:title="QualityControl/Triggers.h">
<polygon fill="none" stroke="black" points="206.5,-112.5 206.5,-131.5 331.5,-131.5 331.5,-112.5 206.5,-112.5"/>
<text text-anchor="middle" x="269" y="-119.5" font-family="Helvetica,sans-Serif" font-size="10.00">QualityControl/Triggers.h</text>
</a>
</g>
</g>
<!-- Node3&#45;&gt;Node8 -->
<g id="edge14" class="edge"><title>Node3&#45;&gt;Node8</title>
<path fill="none" stroke="midnightblue" d="M321.662,-235.385C314.711,-225.509 305.641,-211.837 299,-199 289.15,-179.959 280.475,-156.914 275.02,-141.228"/>
<polygon fill="midnightblue" stroke="midnightblue" points="278.31,-140.029 271.783,-131.683 271.681,-142.277 278.31,-140.029"/>
</g>
<!-- Node10 -->
<g id="node10" class="node"><title>Node10</title>
<g id="a_node10"><a xlink:href="PostProcessingConfig_8h.html" target="_top" xlink:title="QualityControl/PostProcessing\lConfig.h">
<polygon fill="none" stroke="black" points="308.5,-168.5 308.5,-198.5 459.5,-198.5 459.5,-168.5 308.5,-168.5"/>
<text text-anchor="start" x="316.5" y="-186.5" font-family="Helvetica,sans-Serif" font-size="10.00">QualityControl/PostProcessing</text>
<text text-anchor="middle" x="384" y="-175.5" font-family="Helvetica,sans-Serif" font-size="10.00">Config.h</text>
</a>
</g>
</g>
<!-- Node3&#45;&gt;Node10 -->
<g id="edge11" class="edge"><title>Node3&#45;&gt;Node10</title>
<path fill="none" stroke="midnightblue" d="M343.283,-235.396C350.029,-226.963 358.746,-216.067 366.383,-206.522"/>
<polygon fill="midnightblue" stroke="midnightblue" points="369.225,-208.572 372.739,-198.577 363.759,-204.199 369.225,-208.572"/>
</g>
<!-- Node12 -->
<g id="node12" class="node"><title>Node12</title>
<g id="a_node12"><a xlink:href="DatabaseInterface_8h.html" target="_top" xlink:title="QualityControl/DatabaseInterface.h">
<polygon fill="none" stroke="black" points="516,-174 516,-193 686,-193 686,-174 516,-174"/>
<text text-anchor="middle" x="601" y="-181" font-family="Helvetica,sans-Serif" font-size="10.00">QualityControl/DatabaseInterface.h</text>
</a>
</g>
</g>
<!-- Node3&#45;&gt;Node12 -->
<g id="edge15" class="edge"><title>Node3&#45;&gt;Node12</title>
<path fill="none" stroke="midnightblue" d="M390.038,-235.476C439.72,-223.471 510.246,-206.43 555.814,-195.419"/>
<polygon fill="midnightblue" stroke="midnightblue" points="556.806,-198.78 565.704,-193.029 555.162,-191.975 556.806,-198.78"/>
</g>
<!-- Node6&#45;&gt;Node5 -->
<g id="edge7" class="edge"><title>Node6&#45;&gt;Node5</title>
<path fill="none" stroke="midnightblue" d="M151.59,-168.399C135.08,-158.862 113.377,-146.325 96.9622,-136.842"/>
<polygon fill="midnightblue" stroke="midnightblue" points="98.3972,-133.629 87.9874,-131.658 94.8957,-139.691 98.3972,-133.629"/>
</g>
<!-- Node7 -->
<g id="node7" class="node"><title>Node7</title>
<polygon fill="none" stroke="#bfbfbf" points="394.5,-0.5 394.5,-19.5 435.5,-19.5 435.5,-0.5 394.5,-0.5"/>
<text text-anchor="middle" x="415" y="-7.5" font-family="Helvetica,sans-Serif" font-size="10.00">string</text>
</g>
<!-- Node6&#45;&gt;Node7 -->
<g id="edge6" class="edge"><title>Node6&#45;&gt;Node7</title>
<path fill="none" stroke="midnightblue" d="M177.273,-168.331C180.498,-141.562 191.536,-83.7592 228,-56 274.363,-20.7044 344.408,-12.6181 384.307,-11.0467"/>
<polygon fill="midnightblue" stroke="midnightblue" points="384.581,-14.5406 394.479,-10.7629 384.385,-7.54328 384.581,-14.5406"/>
</g>
<!-- Node6&#45;&gt;Node8 -->
<g id="edge8" class="edge"><title>Node6&#45;&gt;Node8</title>
<path fill="none" stroke="midnightblue" d="M198.04,-168.399C212.808,-158.951 232.177,-146.559 246.947,-137.109"/>
<polygon fill="midnightblue" stroke="midnightblue" points="248.93,-139.995 255.468,-131.658 245.158,-134.099 248.93,-139.995"/>
</g>
<!-- Node8&#45;&gt;Node7 -->
<g id="edge9" class="edge"><title>Node8&#45;&gt;Node7</title>
<path fill="none" stroke="midnightblue" d="M279.136,-112.304C294.113,-99.5625 323.17,-75.2462 349,-56 363.318,-45.3316 379.928,-34.0119 392.903,-25.3944"/>
<polygon fill="midnightblue" stroke="midnightblue" points="395.201,-28.0715 401.624,-19.6451 391.348,-22.2272 395.201,-28.0715"/>
</g>
<!-- Node9 -->
<g id="node9" class="node"><title>Node9</title>
<polygon fill="none" stroke="#bfbfbf" points="237.5,-56.5 237.5,-75.5 296.5,-75.5 296.5,-56.5 237.5,-56.5"/>
<text text-anchor="middle" x="267" y="-63.5" font-family="Helvetica,sans-Serif" font-size="10.00">functional</text>
</g>
<!-- Node8&#45;&gt;Node9 -->
<g id="edge10" class="edge"><title>Node8&#45;&gt;Node9</title>
<path fill="none" stroke="midnightblue" d="M268.67,-112.083C268.408,-105.006 268.032,-94.8611 267.703,-85.9865"/>
<polygon fill="midnightblue" stroke="midnightblue" points="271.192,-85.6147 267.324,-75.7511 264.197,-85.8738 271.192,-85.6147"/>
</g>
<!-- Node10&#45;&gt;Node7 -->
<g id="edge13" class="edge"><title>Node10&#45;&gt;Node7</title>
<path fill="none" stroke="midnightblue" d="M383.29,-168.355C382.818,-158.233 382.243,-144.282 382,-132 381.824,-123.113 380.602,-120.778 382,-112 386.77,-82.0422 399.029,-48.8962 407.187,-29.0196"/>
<polygon fill="midnightblue" stroke="midnightblue" points="410.463,-30.2584 411.121,-19.684 404.012,-27.54 410.463,-30.2584"/>
</g>
<!-- Node11 -->
<g id="node11" class="node"><title>Node11</title>
<polygon fill="none" stroke="#bfbfbf" points="391,-112.5 391,-131.5 435,-131.5 435,-112.5 391,-112.5"/>
<text text-anchor="middle" x="413" y="-119.5" font-family="Helvetica,sans-Serif" font-size="10.00">vector</text>
</g>
<!-- Node10&#45;&gt;Node11 -->
<g id="edge12" class="edge"><title>Node10&#45;&gt;Node11</title>
<path fill="none" stroke="midnightblue" d="M390.873,-168.399C394.913,-160.11 400.058,-149.554 404.369,-140.708"/>
<polygon fill="midnightblue" stroke="midnightblue" points="407.545,-142.18 408.78,-131.658 401.253,-139.113 407.545,-142.18"/>
</g>
<!-- Node12&#45;&gt;Node4 -->
<g id="edge17" class="edge"><title>Node12&#45;&gt;Node4</title>
<path fill="none" stroke="midnightblue" d="M583.52,-173.975C563.137,-164.034 529.225,-147.495 505.575,-135.961"/>
<polygon fill="midnightblue" stroke="midnightblue" points="506.969,-132.747 496.447,-131.509 503.901,-139.038 506.969,-132.747"/>
</g>
<!-- Node12&#45;&gt;Node7 -->
<g id="edge16" class="edge"><title>Node12&#45;&gt;Node7</title>
<path fill="none" stroke="midnightblue" d="M591.776,-173.995C562.336,-146.85 470.309,-61.9972 431.999,-26.6742"/>
<polygon fill="midnightblue" stroke="midnightblue" points="434.004,-23.7616 424.279,-19.556 429.259,-28.9079 434.004,-23.7616"/>
</g>
<!-- Node12&#45;&gt;Node11 -->
<g id="edge18" class="edge"><title>Node12&#45;&gt;Node11</title>
<path fill="none" stroke="midnightblue" d="M574.064,-173.975C539.912,-163.166 481.115,-144.558 444.797,-133.063"/>
<polygon fill="midnightblue" stroke="midnightblue" points="445.778,-129.703 435.188,-130.022 443.666,-136.377 445.778,-129.703"/>
</g>
<!-- Node13 -->
<g id="node13" class="node"><title>Node13</title>
<polygon fill="none" stroke="#bfbfbf" points="561.5,-112.5 561.5,-131.5 644.5,-131.5 644.5,-112.5 561.5,-112.5"/>
<text text-anchor="middle" x="603" y="-119.5" font-family="Helvetica,sans-Serif" font-size="10.00">unordered_map</text>
</g>
<!-- Node12&#45;&gt;Node13 -->
<g id="edge19" class="edge"><title>Node12&#45;&gt;Node13</title>
<path fill="none" stroke="midnightblue" d="M601.287,-173.975C601.569,-165.58 602.009,-152.481 602.373,-141.663"/>
<polygon fill="midnightblue" stroke="midnightblue" points="605.876,-141.621 602.714,-131.509 598.88,-141.386 605.876,-141.621"/>
</g>
<!-- Node14 -->
<g id="node14" class="node"><title>Node14</title>
<g id="a_node14"><a xlink:href="QualityObject_8h_source.html" target="_top" xlink:title="QualityControl/QualityObject.h">
<polygon fill="none" stroke="black" points="662.5,-112.5 662.5,-131.5 811.5,-131.5 811.5,-112.5 662.5,-112.5"/>
<text text-anchor="middle" x="737" y="-119.5" font-family="Helvetica,sans-Serif" font-size="10.00">QualityControl/QualityObject.h</text>
</a>
</g>
</g>
<!-- Node12&#45;&gt;Node14 -->
<g id="edge20" class="edge"><title>Node12&#45;&gt;Node14</title>
<path fill="none" stroke="midnightblue" d="M620.485,-173.975C643.41,-163.945 681.685,-147.2 708.075,-135.655"/>
<polygon fill="midnightblue" stroke="midnightblue" points="709.792,-138.724 717.551,-131.509 706.986,-132.311 709.792,-138.724"/>
</g>
<!-- Node21 -->
<g id="node21" class="node"><title>Node21</title>
<g id="a_node21"><a xlink:href="MonitorObject_8h.html" target="_top" xlink:title="QualityControl/MonitorObject.h">
<polygon fill="none" stroke="black" points="845.5,-112.5 845.5,-131.5 996.5,-131.5 996.5,-112.5 845.5,-112.5"/>
<text text-anchor="middle" x="921" y="-119.5" font-family="Helvetica,sans-Serif" font-size="10.00">QualityControl/MonitorObject.h</text>
</a>
</g>
</g>
<!-- Node12&#45;&gt;Node21 -->
<g id="edge28" class="edge"><title>Node12&#45;&gt;Node21</title>
<path fill="none" stroke="midnightblue" d="M646.848,-173.975C704.472,-163.261 803.315,-144.882 865.25,-133.366"/>
<polygon fill="midnightblue" stroke="midnightblue" points="866.045,-136.778 875.237,-131.509 864.766,-129.896 866.045,-136.778"/>
</g>
<!-- Node15 -->
<g id="node15" class="node"><title>Node15</title>
<polygon fill="none" stroke="#bfbfbf" points="496,-56.5 496,-75.5 550,-75.5 550,-56.5 496,-56.5"/>
<text text-anchor="middle" x="523" y="-63.5" font-family="Helvetica,sans-Serif" font-size="10.00">iostream</text>
</g>
<!-- Node14&#45;&gt;Node15 -->
<g id="edge21" class="edge"><title>Node14&#45;&gt;Node15</title>
<path fill="none" stroke="midnightblue" d="M703.091,-112.444C664.086,-102.601 600.26,-86.4955 559.998,-76.336"/>
<polygon fill="midnightblue" stroke="midnightblue" points="560.852,-72.9417 550.299,-73.8886 559.139,-79.729 560.852,-72.9417"/>
</g>
<!-- Node16 -->
<g id="node16" class="node"><title>Node16</title>
<polygon fill="none" stroke="#bfbfbf" points="919.5,-56.5 919.5,-75.5 954.5,-75.5 954.5,-56.5 919.5,-56.5"/>
<text text-anchor="middle" x="937" y="-63.5" font-family="Helvetica,sans-Serif" font-size="10.00">map</text>
</g>
<!-- Node14&#45;&gt;Node16 -->
<g id="edge22" class="edge"><title>Node14&#45;&gt;Node16</title>
<path fill="none" stroke="midnightblue" d="M772.645,-112.472C805.702,-104.399 856.452,-91.5897 909.422,-76.0169"/>
<polygon fill="midnightblue" stroke="midnightblue" points="910.743,-79.276 919.335,-73.0775 908.753,-72.5649 910.743,-79.276"/>
</g>
<!-- Node17 -->
<g id="node17" class="node"><title>Node17</title>
<polygon fill="none" stroke="#bfbfbf" points="707.5,-56.5 707.5,-75.5 766.5,-75.5 766.5,-56.5 707.5,-56.5"/>
<text text-anchor="middle" x="737" y="-63.5" font-family="Helvetica,sans-Serif" font-size="10.00">TObject.h</text>
</g>
<!-- Node14&#45;&gt;Node17 -->
<g id="edge23" class="edge"><title>Node14&#45;&gt;Node17</title>
<path fill="none" stroke="midnightblue" d="M737,-112.083C737,-105.006 737,-94.8611 737,-85.9865"/>
<polygon fill="midnightblue" stroke="midnightblue" points="740.5,-85.751 737,-75.7511 733.5,-85.7511 740.5,-85.751"/>
</g>
<!-- Node18 -->
<g id="node18" class="node"><title>Node18</title>
<polygon fill="none" stroke="#bfbfbf" points="785,-56.5 785,-75.5 901,-75.5 901,-56.5 785,-56.5"/>
<text text-anchor="middle" x="843" y="-63.5" font-family="Helvetica,sans-Serif" font-size="10.00">Common/Exceptions.h</text>
</g>
<!-- Node14&#45;&gt;Node18 -->
<g id="edge24" class="edge"><title>Node14&#45;&gt;Node18</title>
<path fill="none" stroke="midnightblue" d="M754.031,-112.324C771.03,-103.664 797.376,-90.2424 816.993,-80.249"/>
<polygon fill="midnightblue" stroke="midnightblue" points="818.69,-83.3125 826.012,-75.6545 815.512,-77.0752 818.69,-83.3125"/>
</g>
<!-- Node19 -->
<g id="node19" class="node"><title>Node19</title>
<g id="a_node19"><a xlink:href="Quality_8h.html" target="_top" xlink:title="QualityControl/Quality.h">
<polygon fill="none" stroke="black" points="568.5,-56.5 568.5,-75.5 689.5,-75.5 689.5,-56.5 568.5,-56.5"/>
<text text-anchor="middle" x="629" y="-63.5" font-family="Helvetica,sans-Serif" font-size="10.00">QualityControl/Quality.h</text>
</a>
</g>
</g>
<!-- Node14&#45;&gt;Node19 -->
<g id="edge25" class="edge"><title>Node14&#45;&gt;Node19</title>
<path fill="none" stroke="midnightblue" d="M719.648,-112.324C702.328,-103.664 675.485,-90.2424 655.498,-80.249"/>
<polygon fill="midnightblue" stroke="midnightblue" points="656.819,-76.9962 646.309,-75.6545 653.688,-83.2572 656.819,-76.9962"/>
</g>
<!-- Node19&#45;&gt;Node7 -->
<g id="edge27" class="edge"><title>Node19&#45;&gt;Node7</title>
<path fill="none" stroke="midnightblue" d="M595.091,-56.4435C553.871,-46.0423 484.931,-28.6462 445.376,-18.6651"/>
<polygon fill="midnightblue" stroke="midnightblue" points="446.069,-15.2303 435.517,-16.1772 444.357,-22.0175 446.069,-15.2303"/>
</g>
<!-- Node20 -->
<g id="node20" class="node"><title>Node20</title>
<polygon fill="none" stroke="#bfbfbf" points="797,-0.5 797,-19.5 853,-19.5 853,-0.5 797,-0.5"/>
<text text-anchor="middle" x="825" y="-7.5" font-family="Helvetica,sans-Serif" font-size="10.00">Rtypes.h</text>
</g>
<!-- Node19&#45;&gt;Node20 -->
<g id="edge26" class="edge"><title>Node19&#45;&gt;Node20</title>
<path fill="none" stroke="midnightblue" d="M660.057,-56.4435C694.491,-46.9565 750.048,-31.65 787.039,-21.4588"/>
<polygon fill="midnightblue" stroke="midnightblue" points="788.235,-24.7595 796.946,-18.729 786.376,-18.011 788.235,-24.7595"/>
</g>
<!-- Node21&#45;&gt;Node7 -->
<g id="edge29" class="edge"><title>Node21&#45;&gt;Node7</title>
<path fill="none" stroke="midnightblue" d="M933.885,-112.386C951.913,-99.3231 980.686,-74.1102 964,-56 928.724,-17.7142 556.262,-12.0018 445.745,-11.1495"/>
<polygon fill="midnightblue" stroke="midnightblue" points="445.622,-7.64864 435.598,-11.0795 445.573,-14.6485 445.622,-7.64864"/>
</g>
<!-- Node21&#45;&gt;Node16 -->
<g id="edge30" class="edge"><title>Node21&#45;&gt;Node16</title>
<path fill="none" stroke="midnightblue" d="M923.642,-112.083C925.786,-104.849 928.879,-94.4087 931.549,-85.3968"/>
<polygon fill="midnightblue" stroke="midnightblue" points="934.922,-86.3334 934.407,-75.7511 928.21,-84.3447 934.922,-86.3334"/>
</g>
<!-- Node21&#45;&gt;Node17 -->
<g id="edge32" class="edge"><title>Node21&#45;&gt;Node17</title>
<path fill="none" stroke="midnightblue" d="M891.845,-112.444C860.487,-103.241 810.469,-88.5617 775.803,-78.3879"/>
<polygon fill="midnightblue" stroke="midnightblue" points="776.6,-74.9742 766.019,-75.5164 774.629,-81.6909 776.6,-74.9742"/>
</g>
<!-- Node21&#45;&gt;Node18 -->
<g id="edge33" class="edge"><title>Node21&#45;&gt;Node18</title>
<path fill="none" stroke="midnightblue" d="M908.468,-112.324C896.414,-103.979 877.973,-91.2122 863.731,-81.3524"/>
<polygon fill="midnightblue" stroke="midnightblue" points="865.715,-78.469 855.501,-75.6545 861.731,-84.2243 865.715,-78.469"/>
</g>
<!-- Node21&#45;&gt;Node20 -->
<g id="edge31" class="edge"><title>Node21&#45;&gt;Node20</title>
<path fill="none" stroke="midnightblue" d="M945.575,-112.43C974.194,-101.101 1015.36,-79.7752 997,-56 980.813,-35.0334 909.02,-21.9536 863.457,-15.6095"/>
<polygon fill="midnightblue" stroke="midnightblue" points="863.703,-12.1112 853.326,-14.2491 862.771,-19.0489 863.703,-12.1112"/>
</g>
</g>
</svg>
        <g id="navigator" transform="translate(0 0)" fill="#404254">
                <rect fill="#f2f5e9" fill-opacity="0.5" stroke="#606060" stroke-width=".5" x="0" y="0" width="60" height="60"/>
                <use id="zoomplus" xlink:href="#zoomPlus" x="17" y="9" onmousedown="handleZoom(evt,'in')"/>
                <use id="zoomminus" xlink:href="#zoomMin" x="42" y="9" onmousedown="handleZoom(evt,'out')"/>
                <use id="reset" xlink:href="#resetDef" x="30" y="36" onmousedown="handleReset()"/>
                <g id="arrowUp" xlink:href="#dirArrow" transform="translate(30 24)" onmousedown="handlePan(0,-1)">
                  <use xlink:href="#rim" fill="#404040">
                        <set attributeName="fill" to="#808080" begin="arrowUp.mouseover" end="arrowUp.mouseout"/>
                  </use>
                  <path fill="none" stroke="white" stroke-width="1.5" d="M0,-3.0v7 M-2.5,-0.5L0,-3.0L2.5,-0.5"/>
                </g>
                <g id="arrowRight" xlink:href="#dirArrow" transform="rotate(90) translate(36 -43)" onmousedown="handlePan(1,0)">
                  <use xlink:href="#rim" fill="#404040">
                        <set attributeName="fill" to="#808080" begin="arrowRight.mouseover" end="arrowRight.mouseout"/>
                  </use>
                  <path fill="none" stroke="white" stroke-width="1.5" d="M0,-3.0v7 M-2.5,-0.5L0,-3.0L2.5,-0.5"/>
                </g>
                <g id="arrowDown" xlink:href="#dirArrow" transform="rotate(180) translate(-30 -48)" onmousedown="handlePan(0,1)">
                  <use xlink:href="#rim" fill="#404040">
                        <set attributeName="fill" to="#808080" begin="arrowDown.mouseover" end="arrowDown.mouseout"/>
                  </use>
                  <path fill="none" stroke="white" stroke-width="1.5" d="M0,-3.0v7 M-2.5,-0.5L0,-3.0L2.5,-0.5"/>
                </g>
                <g id="arrowLeft" xlink:href="#dirArrow" transform="rotate(270) translate(-36 17)" onmousedown="handlePan(-1,0)">
                  <use xlink:href="#rim" fill="#404040">
                        <set attributeName="fill" to="#808080" begin="arrowLeft.mouseover" end="arrowLeft.mouseout"/>
                  </use>
                  <path fill="none" stroke="white" stroke-width="1.5" d="M0,-3.0v7 M-2.5,-0.5L0,-3.0L2.5,-0.5"/>
                </g>
        </g>
        <svg viewBox="0 0 15 15" width="100%" height="30px" preserveAspectRatio="xMaxYMin meet">
         <g id="arrow_out" transform="scale(0.3 0.3)">
          <a xlink:href="testPostProcessingRunner_8cxx__incl_org.svg" target="_base">
           <rect id="button" ry="5" rx="5" y="6" x="6" height="38" width="38"
                fill="#f2f5e9" fill-opacity="0.5" stroke="#606060" stroke-width="1.0"/>
           <path id="arrow"
             d="M 11.500037,31.436501 C 11.940474,20.09759 22.043105,11.32322 32.158766,21.979434 L 37.068811,17.246167 C 37.068811,17.246167 37.088388,32 37.088388,32 L 22.160133,31.978069 C 22.160133,31.978069 26.997745,27.140456 26.997745,27.140456 C 18.528582,18.264221 13.291696,25.230495 11.500037,31.436501 z"
             style="fill:#404040;"/>
          </a>
         </g>
        </svg>
</svg>
