<?xml version="1.0" encoding="UTF-8" standalone="no"?>
<!DOCTYPE svg PUBLIC "-//W3C//DTD SVG 1.1//EN"
 "http://www.w3.org/Graphics/SVG/1.1/DTD/svg11.dtd">
<!-- Generated by graphviz version 2.38.0 (20140413.2041)
 -->
<!-- Title: Framework/test/testCheckInterface.cxx Pages: 1 -->
<svg width="785pt" height="207pt"
 viewBox="0.00 0.00 785.00 207.00" xmlns="http://www.w3.org/2000/svg" xmlns:xlink="http://www.w3.org/1999/xlink">
<g id="graph0" class="graph" transform="scale(1 1) rotate(0) translate(4 203)">
<title>Framework/test/testCheckInterface.cxx</title>
<!-- Node1 -->
<g id="node1" class="node"><title>Node1</title>
<polygon fill="#bfbfbf" stroke="black" points="518,-168.5 518,-198.5 651,-198.5 651,-168.5 518,-168.5"/>
<text text-anchor="start" x="526" y="-186.5" font-family="Helvetica,sans-Serif" font-size="10.00">Framework/test/testCheck</text>
<text text-anchor="middle" x="584.5" y="-175.5" font-family="Helvetica,sans-Serif" font-size="10.00">Interface.cxx</text>
</g>
<!-- Node2 -->
<g id="node2" class="node"><title>Node2</title>
<g id="a_node2"><a xlink:href="CheckInterface_8h.html" target="_top" xlink:title="QualityControl/CheckInterface.h">
<polygon fill="none" stroke="black" points="246,-112.5 246,-131.5 403,-131.5 403,-112.5 246,-112.5"/>
<text text-anchor="middle" x="324.5" y="-119.5" font-family="Helvetica,sans-Serif" font-size="10.00">QualityControl/CheckInterface.h</text>
</a>
</g>
</g>
<!-- Node1&#45;&gt;Node2 -->
<g id="edge1" class="edge"><title>Node1&#45;&gt;Node2</title>
<path fill="none" stroke="midnightblue" d="M523.213,-168.475C476.791,-157.851 413.963,-143.473 371.478,-133.751"/>
<polygon fill="midnightblue" stroke="midnightblue" points="372.199,-130.325 361.671,-131.506 370.638,-137.149 372.199,-130.325"/>
</g>
<!-- Node3 -->
<g id="node3" class="node"><title>Node3</title>
<polygon fill="none" stroke="#bfbfbf" points="437,-0.5 437,-19.5 478,-19.5 478,-0.5 437,-0.5"/>
<text text-anchor="middle" x="457.5" y="-7.5" font-family="Helvetica,sans-Serif" font-size="10.00">string</text>
</g>
<!-- Node1&#45;&gt;Node3 -->
<g id="edge17" class="edge"><title>Node1&#45;&gt;Node3</title>
<path fill="none" stroke="midnightblue" d="M576.011,-168.328C561.445,-144.383 530.275,-94.7429 499.5,-56 491.441,-45.854 481.594,-35.2242 473.461,-26.8449"/>
<polygon fill="midnightblue" stroke="midnightblue" points="475.817,-24.2501 466.302,-19.59 470.834,-29.1665 475.817,-24.2501"/>
</g>
<!-- Node11 -->
<g id="node11" class="node"><title>Node11</title>
<polygon fill="none" stroke="#bfbfbf" points="569,-112.5 569,-131.5 688,-131.5 688,-112.5 569,-112.5"/>
<text text-anchor="middle" x="628.5" y="-119.5" font-family="Helvetica,sans-Serif" font-size="10.00">boost/test/unit_test.hpp</text>
</g>
<!-- Node1&#45;&gt;Node11 -->
<g id="edge15" class="edge"><title>Node1&#45;&gt;Node11</title>
<path fill="none" stroke="midnightblue" d="M594.927,-168.399C601.255,-159.842 609.369,-148.871 616.034,-139.857"/>
<polygon fill="midnightblue" stroke="midnightblue" points="618.966,-141.779 622.098,-131.658 613.338,-137.617 618.966,-141.779"/>
</g>
<!-- Node12 -->
<g id="node12" class="node"><title>Node12</title>
<polygon fill="none" stroke="#bfbfbf" points="706,-112.5 706,-131.5 777,-131.5 777,-112.5 706,-112.5"/>
<text text-anchor="middle" x="741.5" y="-119.5" font-family="Helvetica,sans-Serif" font-size="10.00">TObjString.h</text>
</g>
<!-- Node1&#45;&gt;Node12 -->
<g id="edge16" class="edge"><title>Node1&#45;&gt;Node12</title>
<path fill="none" stroke="midnightblue" d="M621.707,-168.399C648.284,-158.327 683.689,-144.909 709.105,-135.277"/>
<polygon fill="midnightblue" stroke="midnightblue" points="710.544,-138.475 718.655,-131.658 708.064,-131.929 710.544,-138.475"/>
</g>
<!-- Node2&#45;&gt;Node3 -->
<g id="edge2" class="edge"><title>Node2&#45;&gt;Node3</title>
<path fill="none" stroke="midnightblue" d="M380.344,-112.467C420.928,-104.991 470.868,-92.7037 483.5,-76 494.549,-61.3893 483.576,-41.4522 472.682,-27.5249"/>
<polygon fill="midnightblue" stroke="midnightblue" points="475.23,-25.1173 466.106,-19.7311 469.88,-29.6312 475.23,-25.1173"/>
</g>
<!-- Node4 -->
<g id="node4" class="node"><title>Node4</title>
<polygon fill="none" stroke="#bfbfbf" points="0,-0.5 0,-19.5 35,-19.5 35,-0.5 0,-0.5"/>
<text text-anchor="middle" x="17.5" y="-7.5" font-family="Helvetica,sans-Serif" font-size="10.00">map</text>
</g>
<!-- Node2&#45;&gt;Node4 -->
<g id="edge3" class="edge"><title>Node2&#45;&gt;Node4</title>
<path fill="none" stroke="midnightblue" d="M245.856,-118.306C170.8,-114.099 64.7987,-103.36 34.5,-76 21.6686,-64.4133 17.9967,-44.4544 17.1793,-29.702"/>
<polygon fill="midnightblue" stroke="midnightblue" points="20.6782,-29.5987 17.0063,-19.6606 13.6792,-29.7194 20.6782,-29.5987"/>
</g>
<!-- Node5 -->
<g id="node5" class="node"><title>Node5</title>
<polygon fill="none" stroke="#bfbfbf" points="44,-56.5 44,-75.5 127,-75.5 127,-56.5 44,-56.5"/>
<text text-anchor="middle" x="85.5" y="-63.5" font-family="Helvetica,sans-Serif" font-size="10.00">unordered_map</text>
</g>
<!-- Node2&#45;&gt;Node5 -->
<g id="edge4" class="edge"><title>Node2&#45;&gt;Node5</title>
<path fill="none" stroke="midnightblue" d="M286.63,-112.444C245.024,-103.043 178.131,-87.9291 133.031,-77.7393"/>
<polygon fill="midnightblue" stroke="midnightblue" points="133.719,-74.3064 123.193,-75.5164 132.176,-81.1343 133.719,-74.3064"/>
</g>
<!-- Node6 -->
<g id="node6" class="node"><title>Node6</title>
<polygon fill="none" stroke="#bfbfbf" points="296.5,-0.5 296.5,-19.5 352.5,-19.5 352.5,-0.5 296.5,-0.5"/>
<text text-anchor="middle" x="324.5" y="-7.5" font-family="Helvetica,sans-Serif" font-size="10.00">Rtypes.h</text>
</g>
<!-- Node2&#45;&gt;Node6 -->
<g id="edge5" class="edge"><title>Node2&#45;&gt;Node6</title>
<path fill="none" stroke="midnightblue" d="M324.5,-112.368C324.5,-94.617 324.5,-53.6664 324.5,-29.5974"/>
<polygon fill="midnightblue" stroke="midnightblue" points="328,-29.5914 324.5,-19.5914 321,-29.5915 328,-29.5914"/>
</g>
<!-- Node7 -->
<g id="node7" class="node"><title>Node7</title>
<g id="a_node7"><a xlink:href="MonitorObject_8h.html" target="_top" xlink:title="QualityControl/MonitorObject.h">
<polygon fill="none" stroke="black" points="145,-56.5 145,-75.5 296,-75.5 296,-56.5 145,-56.5"/>
<text text-anchor="middle" x="220.5" y="-63.5" font-family="Helvetica,sans-Serif" font-size="10.00">QualityControl/MonitorObject.h</text>
</a>
</g>
</g>
<!-- Node2&#45;&gt;Node7 -->
<g id="edge6" class="edge"><title>Node2&#45;&gt;Node7</title>
<path fill="none" stroke="midnightblue" d="M307.791,-112.324C291.188,-103.703 265.498,-90.3643 246.28,-80.3855"/>
<polygon fill="midnightblue" stroke="midnightblue" points="247.656,-77.1565 237.168,-75.6545 244.43,-83.3689 247.656,-77.1565"/>
</g>
<!-- Node10 -->
<g id="node10" class="node"><title>Node10</title>
<g id="a_node10"><a xlink:href="Quality_8h.html" target="_top" xlink:title="QualityControl/Quality.h">
<polygon fill="none" stroke="black" points="353,-56.5 353,-75.5 474,-75.5 474,-56.5 353,-56.5"/>
<text text-anchor="middle" x="413.5" y="-63.5" font-family="Helvetica,sans-Serif" font-size="10.00">QualityControl/Quality.h</text>
</a>
</g>
</g>
<!-- Node2&#45;&gt;Node10 -->
<g id="edge12" class="edge"><title>Node2&#45;&gt;Node10</title>
<path fill="none" stroke="midnightblue" d="M338.799,-112.324C352.683,-103.9 373.992,-90.9709 390.304,-81.0741"/>
<polygon fill="midnightblue" stroke="midnightblue" points="392.502,-83.8341 399.236,-75.6545 388.871,-77.8495 392.502,-83.8341"/>
</g>
<!-- Node7&#45;&gt;Node3 -->
<g id="edge7" class="edge"><title>Node7&#45;&gt;Node3</title>
<path fill="none" stroke="midnightblue" d="M258.053,-56.4435C304.839,-45.7836 383.87,-27.7765 427.066,-17.9343"/>
<polygon fill="midnightblue" stroke="midnightblue" points="428.01,-21.3091 436.982,-15.6749 426.455,-14.484 428.01,-21.3091"/>
</g>
<!-- Node7&#45;&gt;Node4 -->
<g id="edge8" class="edge"><title>Node7&#45;&gt;Node4</title>
<path fill="none" stroke="midnightblue" d="M188.334,-56.4435C148.684,-45.8963 81.9953,-28.1564 44.7512,-18.2491"/>
<polygon fill="midnightblue" stroke="midnightblue" points="45.6379,-14.8633 35.0742,-15.6749 43.8384,-21.6281 45.6379,-14.8633"/>
</g>
<!-- Node7&#45;&gt;Node6 -->
<g id="edge9" class="edge"><title>Node7&#45;&gt;Node6</title>
<path fill="none" stroke="midnightblue" d="M237.209,-56.324C253.812,-47.7034 279.502,-34.3643 298.72,-24.3855"/>
<polygon fill="midnightblue" stroke="midnightblue" points="300.57,-27.3689 307.832,-19.6545 297.344,-21.1565 300.57,-27.3689"/>
</g>
<!-- Node8 -->
<g id="node8" class="node"><title>Node8</title>
<polygon fill="none" stroke="#bfbfbf" points="205,-0.5 205,-19.5 264,-19.5 264,-0.5 205,-0.5"/>
<text text-anchor="middle" x="234.5" y="-7.5" font-family="Helvetica,sans-Serif" font-size="10.00">TObject.h</text>
</g>
<!-- Node7&#45;&gt;Node8 -->
<g id="edge10" class="edge"><title>Node7&#45;&gt;Node8</title>
<path fill="none" stroke="midnightblue" d="M222.812,-56.083C224.667,-48.9272 227.335,-38.6353 229.654,-29.6911"/>
<polygon fill="midnightblue" stroke="midnightblue" points="233.109,-30.3094 232.231,-19.7511 226.334,-28.5527 233.109,-30.3094"/>
</g>
<!-- Node9 -->
<g id="node9" class="node"><title>Node9</title>
<polygon fill="none" stroke="#bfbfbf" points="70.5,-0.5 70.5,-19.5 186.5,-19.5 186.5,-0.5 70.5,-0.5"/>
<text text-anchor="middle" x="128.5" y="-7.5" font-family="Helvetica,sans-Serif" font-size="10.00">Common/Exceptions.h</text>
</g>
<!-- Node7&#45;&gt;Node9 -->
<g id="edge11" class="edge"><title>Node7&#45;&gt;Node9</title>
<path fill="none" stroke="midnightblue" d="M205.719,-56.324C191.233,-47.8215 168.927,-34.7288 152.007,-24.7975"/>
<polygon fill="midnightblue" stroke="midnightblue" points="153.641,-21.6981 143.245,-19.6545 150.097,-27.735 153.641,-21.6981"/>
</g>
<!-- Node10&#45;&gt;Node3 -->
<g id="edge14" class="edge"><title>Node10&#45;&gt;Node3</title>
<path fill="none" stroke="midnightblue" d="M420.766,-56.083C427.045,-48.3768 436.288,-37.0333 443.931,-27.6531"/>
<polygon fill="midnightblue" stroke="midnightblue" points="446.766,-29.7143 450.369,-19.7511 441.339,-25.2926 446.766,-29.7143"/>
</g>
<!-- Node10&#45;&gt;Node6 -->
<g id="edge13" class="edge"><title>Node10&#45;&gt;Node6</title>
<path fill="none" stroke="midnightblue" d="M399.201,-56.324C385.317,-47.9002 364.008,-34.9709 347.696,-25.0741"/>
<polygon fill="midnightblue" stroke="midnightblue" points="349.129,-21.8495 338.764,-19.6545 345.498,-27.8341 349.129,-21.8495"/>
</g>
</g>
</svg>
