<?xml version="1.0" encoding="UTF-8" standalone="no"?>
<!DOCTYPE svg PUBLIC "-//W3C//DTD SVG 1.1//EN"
 "http://www.w3.org/Graphics/SVG/1.1/DTD/svg11.dtd">
<!-- Generated by graphviz version 2.38.0 (20140413.2041)
 -->
<!-- Title: Framework/test/testQcInfoLogger.cxx Pages: 1 -->
<svg width="383pt" height="151pt"
 viewBox="0.00 0.00 383.00 151.00" xmlns="http://www.w3.org/2000/svg" xmlns:xlink="http://www.w3.org/1999/xlink">
<g id="graph0" class="graph" transform="scale(1 1) rotate(0) translate(4 147)">
<title>Framework/test/testQcInfoLogger.cxx</title>
<!-- Node1 -->
<g id="node1" class="node"><title>Node1</title>
<polygon fill="#bfbfbf" stroke="black" points="159.5,-112.5 159.5,-142.5 293.5,-142.5 293.5,-112.5 159.5,-112.5"/>
<text text-anchor="start" x="167.5" y="-130.5" font-family="Helvetica,sans-Serif" font-size="10.00">Framework/test/testQcInfo</text>
<text text-anchor="middle" x="226.5" y="-119.5" font-family="Helvetica,sans-Serif" font-size="10.00">Logger.cxx</text>
</g>
<!-- Node2 -->
<g id="node2" class="node"><title>Node2</title>
<g id="a_node2"><a xlink:href="QcInfoLogger_8h.html" target="_top" xlink:title="QualityControl/QcInfoLogger.h">
<polygon fill="none" stroke="black" points="-1.42109e-14,-56.5 -1.42109e-14,-75.5 149,-75.5 149,-56.5 -1.42109e-14,-56.5"/>
<text text-anchor="middle" x="74.5" y="-63.5" font-family="Helvetica,sans-Serif" font-size="10.00">QualityControl/QcInfoLogger.h</text>
</a>
</g>
</g>
<!-- Node1&#45;&gt;Node2 -->
<g id="edge1" class="edge"><title>Node1&#45;&gt;Node2</title>
<path fill="none" stroke="midnightblue" d="M190.478,-112.399C164.861,-102.372 130.773,-89.028 106.19,-79.405"/>
<polygon fill="midnightblue" stroke="midnightblue" points="107.205,-76.0438 96.6173,-75.6578 104.654,-82.5622 107.205,-76.0438"/>
</g>
<!-- Node4 -->
<g id="node4" class="node"><title>Node4</title>
<polygon fill="none" stroke="#bfbfbf" points="167,-56.5 167,-75.5 286,-75.5 286,-56.5 167,-56.5"/>
<text text-anchor="middle" x="226.5" y="-63.5" font-family="Helvetica,sans-Serif" font-size="10.00">boost/test/unit_test.hpp</text>
</g>
<!-- Node1&#45;&gt;Node4 -->
<g id="edge3" class="edge"><title>Node1&#45;&gt;Node4</title>
<path fill="none" stroke="midnightblue" d="M226.5,-112.399C226.5,-104.466 226.5,-94.458 226.5,-85.8583"/>
<polygon fill="midnightblue" stroke="midnightblue" points="230,-85.6577 226.5,-75.6578 223,-85.6578 230,-85.6577"/>
</g>
<!-- Node5 -->
<g id="node5" class="node"><title>Node5</title>
<polygon fill="none" stroke="#bfbfbf" points="304,-56.5 304,-75.5 375,-75.5 375,-56.5 304,-56.5"/>
<text text-anchor="middle" x="339.5" y="-63.5" font-family="Helvetica,sans-Serif" font-size="10.00">FairLogger.h</text>
</g>
<!-- Node1&#45;&gt;Node5 -->
<g id="edge4" class="edge"><title>Node1&#45;&gt;Node5</title>
<path fill="none" stroke="midnightblue" d="M253.279,-112.399C271.562,-102.773 295.648,-90.0902 313.715,-80.5772"/>
<polygon fill="midnightblue" stroke="midnightblue" points="315.84,-83.4138 323.057,-75.6578 312.578,-77.22 315.84,-83.4138"/>
</g>
<!-- Node3 -->
<g id="node3" class="node"><title>Node3</title>
<polygon fill="none" stroke="#bfbfbf" points="9.5,-0.5 9.5,-19.5 139.5,-19.5 139.5,-0.5 9.5,-0.5"/>
<text text-anchor="middle" x="74.5" y="-7.5" font-family="Helvetica,sans-Serif" font-size="10.00">InfoLogger/InfoLogger.hxx</text>
</g>
<!-- Node2&#45;&gt;Node3 -->
<g id="edge2" class="edge"><title>Node2&#45;&gt;Node3</title>
<path fill="none" stroke="midnightblue" d="M74.5,-56.083C74.5,-49.0059 74.5,-38.8611 74.5,-29.9865"/>
<polygon fill="midnightblue" stroke="midnightblue" points="78.0001,-29.751 74.5,-19.7511 71.0001,-29.7511 78.0001,-29.751"/>
</g>
</g>
</svg>
