<?xml version="1.0" encoding="UTF-8" standalone="no"?>
<!DOCTYPE svg PUBLIC "-//W3C//DTD SVG 1.1//EN"
 "http://www.w3.org/Graphics/SVG/1.1/DTD/svg11.dtd">
<!-- Generated by graphviz version 2.38.0 (20140413.2041)
 -->
<!-- Title: Framework/test/testCheckRunner.cxx Pages: 1 -->
<!--zoomable 330 -->
<svg id="main" version="1.1" xmlns="http://www.w3.org/2000/svg" xmlns:xlink="http://www.w3.org/1999/xlink" xml:space="preserve" onload="init(evt)">
<style type="text/css"><![CDATA[
.edge:hover path { stroke: red; }
.edge:hover polygon { stroke: red; fill: red; }
]]></style>
<script type="text/javascript"><![CDATA[
var edges = document.getElementsByTagName('g');
if (edges && edges.length) {
  for (var i=0;i<edges.length;i++) {
    if (edges[i].id.substr(0,4)=='edge') {
      edges[i].setAttribute('class','edge');
    }
  }
}
]]></script>
        <defs>
                <circle id="rim" cx="0" cy="0" r="7"/>
                <circle id="rim2" cx="0" cy="0" r="3.5"/>
                <g id="zoomPlus">
                        <use xlink:href="#rim" fill="#404040">
                                <set attributeName="fill" to="#808080" begin="zoomplus.mouseover" end="zoomplus.mouseout"/>
                        </use>
                        <path d="M-4,0h8M0,-4v8" fill="none" stroke="white" stroke-width="1.5" pointer-events="none"/>
                </g>
                <g id="zoomMin">
                        <use xlink:href="#rim" fill="#404040">
                                <set attributeName="fill" to="#808080" begin="zoomminus.mouseover" end="zoomminus.mouseout"/>
                        </use>
                        <path d="M-4,0h8" fill="none" stroke="white" stroke-width="1.5" pointer-events="none"/>
                </g>
                <g id="dirArrow">
                        <path fill="none" stroke="white" stroke-width="1.5" d="M0,-3.0v7 M-2.5,-0.5L0,-3.0L2.5,-0.5"/>
                </g>
               <g id="resetDef">
                       <use xlink:href="#rim2" fill="#404040">
                               <set attributeName="fill" to="#808080" begin="reset.mouseover" end="reset.mouseout"/>
                       </use>
               </g>
        </defs>

<script type="text/javascript">
var viewWidth = 1839;
var viewHeight = 330;
var sectionId = 'dynsection-0';
</script>
<script xlink:href="svgpan.js"/>
<svg id="graph" class="graph">
<g id="viewport">
<title>Framework/test/testCheckRunner.cxx</title>
<!-- Node1 -->
<g id="node1" class="node"><title>Node1</title>
<polygon fill="#bfbfbf" stroke="black" points="1303,-291.5 1303,-321.5 1436,-321.5 1436,-291.5 1303,-291.5"/>
<text text-anchor="start" x="1311" y="-309.5" font-family="Helvetica,sans-Serif" font-size="10.00">Framework/test/testCheck</text>
<text text-anchor="middle" x="1369.5" y="-298.5" font-family="Helvetica,sans-Serif" font-size="10.00">Runner.cxx</text>
</g>
<!-- Node2 -->
<g id="node2" class="node"><title>Node2</title>
<g id="a_node2"><a xlink:href="CheckRunnerFactory_8h.html" target="_top" xlink:title="QualityControl/CheckRunner\lFactory.h">
<polygon fill="none" stroke="black" points="220.5,-224.5 220.5,-254.5 362.5,-254.5 362.5,-224.5 220.5,-224.5"/>
<text text-anchor="start" x="228.5" y="-242.5" font-family="Helvetica,sans-Serif" font-size="10.00">QualityControl/CheckRunner</text>
<text text-anchor="middle" x="291.5" y="-231.5" font-family="Helvetica,sans-Serif" font-size="10.00">Factory.h</text>
</a>
</g>
</g>
<!-- Node1&#45;&gt;Node2 -->
<g id="edge1" class="edge"><title>Node1&#45;&gt;Node2</title>
<path fill="none" stroke="midnightblue" d="M1302.88,-301.483C1114.41,-290.119 577.857,-257.766 372.663,-245.394"/>
<polygon fill="midnightblue" stroke="midnightblue" points="372.75,-241.893 362.557,-244.785 372.328,-248.88 372.75,-241.893"/>
</g>
<!-- Node23 -->
<g id="node23" class="node"><title>Node23</title>
<g id="a_node23"><a xlink:href="CheckRunner_8h.html" target="_top" xlink:title="QualityControl/CheckRunner.h">
<polygon fill="none" stroke="black" points="1132.5,-230 1132.5,-249 1282.5,-249 1282.5,-230 1132.5,-230"/>
<text text-anchor="middle" x="1207.5" y="-237" font-family="Helvetica,sans-Serif" font-size="10.00">QualityControl/CheckRunner.h</text>
</a>
</g>
</g>
<!-- Node1&#45;&gt;Node23 -->
<g id="edge39" class="edge"><title>Node1&#45;&gt;Node23</title>
<path fill="none" stroke="midnightblue" d="M1334.35,-291.396C1305.67,-279.89 1265.56,-263.797 1238.17,-252.807"/>
<polygon fill="midnightblue" stroke="midnightblue" points="1239.29,-249.483 1228.7,-249.007 1236.68,-255.979 1239.29,-249.483"/>
</g>
<!-- Node31 -->
<g id="node31" class="node"><title>Node31</title>
<polygon fill="none" stroke="#bfbfbf" points="1300.5,-230 1300.5,-249 1438.5,-249 1438.5,-230 1300.5,-230"/>
<text text-anchor="middle" x="1369.5" y="-237" font-family="Helvetica,sans-Serif" font-size="10.00">Framework/DataSampling.h</text>
</g>
<!-- Node1&#45;&gt;Node31 -->
<g id="edge62" class="edge"><title>Node1&#45;&gt;Node31</title>
<path fill="none" stroke="midnightblue" d="M1369.5,-291.396C1369.5,-282.064 1369.5,-269.714 1369.5,-259.517"/>
<polygon fill="midnightblue" stroke="midnightblue" points="1373,-259.195 1369.5,-249.195 1366,-259.195 1373,-259.195"/>
</g>
<!-- Node32 -->
<g id="node32" class="node"><title>Node32</title>
<polygon fill="none" stroke="#bfbfbf" points="1457,-230 1457,-249 1576,-249 1576,-230 1457,-230"/>
<text text-anchor="middle" x="1516.5" y="-237" font-family="Helvetica,sans-Serif" font-size="10.00">getTestDataDirectory.h</text>
</g>
<!-- Node1&#45;&gt;Node32 -->
<g id="edge63" class="edge"><title>Node1&#45;&gt;Node32</title>
<path fill="none" stroke="midnightblue" d="M1401.4,-291.396C1427.19,-279.991 1463.17,-264.079 1488.01,-253.098"/>
<polygon fill="midnightblue" stroke="midnightblue" points="1489.53,-256.252 1497.26,-249.007 1486.7,-249.85 1489.53,-256.252"/>
</g>
<!-- Node33 -->
<g id="node33" class="node"><title>Node33</title>
<polygon fill="none" stroke="#bfbfbf" points="1594,-230 1594,-249 1713,-249 1713,-230 1594,-230"/>
<text text-anchor="middle" x="1653.5" y="-237" font-family="Helvetica,sans-Serif" font-size="10.00">boost/test/unit_test.hpp</text>
</g>
<!-- Node1&#45;&gt;Node33 -->
<g id="edge64" class="edge"><title>Node1&#45;&gt;Node33</title>
<path fill="none" stroke="midnightblue" d="M1430.77,-291.476C1483.45,-279.421 1558.31,-262.286 1606.4,-251.28"/>
<polygon fill="midnightblue" stroke="midnightblue" points="1607.27,-254.672 1616.24,-249.029 1605.71,-247.848 1607.27,-254.672"/>
</g>
<!-- Node3 -->
<g id="node3" class="node"><title>Node3</title>
<polygon fill="none" stroke="#bfbfbf" points="664,-0.5 664,-19.5 705,-19.5 705,-0.5 664,-0.5"/>
<text text-anchor="middle" x="684.5" y="-7.5" font-family="Helvetica,sans-Serif" font-size="10.00">string</text>
</g>
<!-- Node2&#45;&gt;Node3 -->
<g id="edge2" class="edge"><title>Node2&#45;&gt;Node3</title>
<path fill="none" stroke="midnightblue" d="M268.069,-224.352C232.106,-200.853 170.452,-152.364 200.5,-112 255.277,-38.416 555.972,-17.2994 653.761,-12.3327"/>
<polygon fill="midnightblue" stroke="midnightblue" points="654.062,-15.8223 663.88,-11.8403 653.721,-8.83062 654.062,-15.8223"/>
</g>
<!-- Node4 -->
<g id="node4" class="node"><title>Node4</title>
<polygon fill="none" stroke="#bfbfbf" points="209.5,-112.5 209.5,-131.5 373.5,-131.5 373.5,-112.5 209.5,-112.5"/>
<text text-anchor="middle" x="291.5" y="-119.5" font-family="Helvetica,sans-Serif" font-size="10.00">Framework/DataProcessorSpec.h</text>
</g>
<!-- Node2&#45;&gt;Node4 -->
<g id="edge3" class="edge"><title>Node2&#45;&gt;Node4</title>
<path fill="none" stroke="midnightblue" d="M291.5,-224.337C291.5,-203.622 291.5,-165.016 291.5,-141.899"/>
<polygon fill="midnightblue" stroke="midnightblue" points="295,-141.669 291.5,-131.669 288,-141.669 295,-141.669"/>
</g>
<!-- Node5 -->
<g id="node5" class="node"><title>Node5</title>
<polygon fill="none" stroke="#bfbfbf" points="0,-168.5 0,-187.5 153,-187.5 153,-168.5 0,-168.5"/>
<text text-anchor="middle" x="76.5" y="-175.5" font-family="Helvetica,sans-Serif" font-size="10.00">Framework/CompletionPolicy.h</text>
</g>
<!-- Node2&#45;&gt;Node5 -->
<g id="edge4" class="edge"><title>Node2&#45;&gt;Node5</title>
<path fill="none" stroke="midnightblue" d="M240.82,-224.475C203.08,-214.03 152.229,-199.958 117.14,-190.247"/>
<polygon fill="midnightblue" stroke="midnightblue" points="117.809,-186.8 107.237,-187.506 115.942,-193.547 117.809,-186.8"/>
</g>
<!-- Node6 -->
<g id="node6" class="node"><title>Node6</title>
<g id="a_node6"><a xlink:href="Check_8h_source.html" target="_top" xlink:title="QualityControl/Check.h">
<polygon fill="none" stroke="black" points="604,-168.5 604,-187.5 723,-187.5 723,-168.5 604,-168.5"/>
<text text-anchor="middle" x="663.5" y="-175.5" font-family="Helvetica,sans-Serif" font-size="10.00">QualityControl/Check.h</text>
</a>
</g>
</g>
<!-- Node2&#45;&gt;Node6 -->
<g id="edge5" class="edge"><title>Node2&#45;&gt;Node6</title>
<path fill="none" stroke="midnightblue" d="M362.785,-227.098C431.373,-216.128 534.104,-199.696 599.964,-189.162"/>
<polygon fill="midnightblue" stroke="midnightblue" points="600.885,-192.56 610.206,-187.524 599.779,-185.647 600.885,-192.56"/>
</g>
<!-- Node6&#45;&gt;Node4 -->
<g id="edge11" class="edge"><title>Node6&#45;&gt;Node4</title>
<path fill="none" stroke="midnightblue" d="M604.555,-168.444C538.165,-158.806 430.404,-143.163 360.239,-132.978"/>
<polygon fill="midnightblue" stroke="midnightblue" points="360.568,-129.489 350.169,-131.516 359.562,-136.417 360.568,-129.489"/>
</g>
<!-- Node7 -->
<g id="node7" class="node"><title>Node7</title>
<polygon fill="none" stroke="#bfbfbf" points="634,-112.5 634,-131.5 693,-131.5 693,-112.5 634,-112.5"/>
<text text-anchor="middle" x="663.5" y="-119.5" font-family="Helvetica,sans-Serif" font-size="10.00">functional</text>
</g>
<!-- Node6&#45;&gt;Node7 -->
<g id="edge6" class="edge"><title>Node6&#45;&gt;Node7</title>
<path fill="none" stroke="midnightblue" d="M663.5,-168.083C663.5,-161.006 663.5,-150.861 663.5,-141.986"/>
<polygon fill="midnightblue" stroke="midnightblue" points="667,-141.751 663.5,-131.751 660,-141.751 667,-141.751"/>
</g>
<!-- Node8 -->
<g id="node8" class="node"><title>Node8</title>
<polygon fill="none" stroke="#bfbfbf" points="1063,-0.5 1063,-19.5 1098,-19.5 1098,-0.5 1063,-0.5"/>
<text text-anchor="middle" x="1080.5" y="-7.5" font-family="Helvetica,sans-Serif" font-size="10.00">map</text>
</g>
<!-- Node6&#45;&gt;Node8 -->
<g id="edge7" class="edge"><title>Node6&#45;&gt;Node8</title>
<path fill="none" stroke="midnightblue" d="M723.019,-170.592C802.345,-161.623 934.942,-144.969 953.5,-132 985.134,-109.894 967.967,-83.0429 995.5,-56 1011.88,-39.9084 1035.2,-28.1188 1053.26,-20.6532"/>
<polygon fill="midnightblue" stroke="midnightblue" points="1054.66,-23.866 1062.68,-16.9507 1052.1,-17.3511 1054.66,-23.866"/>
</g>
<!-- Node9 -->
<g id="node9" class="node"><title>Node9</title>
<polygon fill="none" stroke="#bfbfbf" points="1039.5,-112.5 1039.5,-131.5 1083.5,-131.5 1083.5,-112.5 1039.5,-112.5"/>
<text text-anchor="middle" x="1061.5" y="-119.5" font-family="Helvetica,sans-Serif" font-size="10.00">vector</text>
</g>
<!-- Node6&#45;&gt;Node9 -->
<g id="edge8" class="edge"><title>Node6&#45;&gt;Node9</title>
<path fill="none" stroke="midnightblue" d="M723.096,-171.828C795.122,-165.063 919.817,-151.704 1025.5,-132 1026.75,-131.768 1028.01,-131.518 1029.29,-131.254"/>
<polygon fill="midnightblue" stroke="midnightblue" points="1030.14,-134.652 1039.12,-129.04 1028.6,-127.823 1030.14,-134.652"/>
</g>
<!-- Node10 -->
<g id="node10" class="node"><title>Node10</title>
<polygon fill="none" stroke="#bfbfbf" points="1343.5,-112.5 1343.5,-131.5 1395.5,-131.5 1395.5,-112.5 1343.5,-112.5"/>
<text text-anchor="middle" x="1369.5" y="-119.5" font-family="Helvetica,sans-Serif" font-size="10.00">memory</text>
</g>
<!-- Node6&#45;&gt;Node10 -->
<g id="edge9" class="edge"><title>Node6&#45;&gt;Node10</title>
<path fill="none" stroke="midnightblue" d="M723.19,-171.765C738.598,-170.472 755.162,-169.134 770.5,-168 1017.69,-149.717 1084.68,-170.878 1333.18,-131.912"/>
<polygon fill="midnightblue" stroke="midnightblue" points="1333.91,-135.34 1343.24,-130.318 1332.81,-128.426 1333.91,-135.34"/>
</g>
<!-- Node11 -->
<g id="node11" class="node"><title>Node11</title>
<polygon fill="none" stroke="#bfbfbf" points="567,-56.5 567,-75.5 650,-75.5 650,-56.5 567,-56.5"/>
<text text-anchor="middle" x="608.5" y="-63.5" font-family="Helvetica,sans-Serif" font-size="10.00">unordered_map</text>
</g>
<!-- Node6&#45;&gt;Node11 -->
<g id="edge10" class="edge"><title>Node6&#45;&gt;Node11</title>
<path fill="none" stroke="midnightblue" d="M653.691,-168.321C644.775,-159.899 631.915,-146.322 624.5,-132 616.986,-117.487 612.899,-99.3047 610.742,-85.8637"/>
<polygon fill="midnightblue" stroke="midnightblue" points="614.196,-85.2946 609.35,-75.873 607.263,-86.2603 614.196,-85.2946"/>
</g>
<!-- Node12 -->
<g id="node12" class="node"><title>Node12</title>
<g id="a_node12"><a xlink:href="Quality_8h.html" target="_top" xlink:title="QualityControl/Quality.h">
<polygon fill="none" stroke="black" points="713,-56.5 713,-75.5 834,-75.5 834,-56.5 713,-56.5"/>
<text text-anchor="middle" x="773.5" y="-63.5" font-family="Helvetica,sans-Serif" font-size="10.00">QualityControl/Quality.h</text>
</a>
</g>
</g>
<!-- Node6&#45;&gt;Node12 -->
<g id="edge12" class="edge"><title>Node6&#45;&gt;Node12</title>
<path fill="none" stroke="midnightblue" d="M672.132,-168.368C690.606,-149.894 734.207,-106.293 757.756,-82.7436"/>
<polygon fill="midnightblue" stroke="midnightblue" points="760.312,-85.1374 764.909,-75.5914 755.363,-80.1876 760.312,-85.1374"/>
</g>
<!-- Node14 -->
<g id="node14" class="node"><title>Node14</title>
<g id="a_node14"><a xlink:href="QualityObject_8h_source.html" target="_top" xlink:title="QualityControl/QualityObject.h">
<polygon fill="none" stroke="black" points="1177,-112.5 1177,-131.5 1326,-131.5 1326,-112.5 1177,-112.5"/>
<text text-anchor="middle" x="1251.5" y="-119.5" font-family="Helvetica,sans-Serif" font-size="10.00">QualityControl/QualityObject.h</text>
</a>
</g>
</g>
<!-- Node6&#45;&gt;Node14 -->
<g id="edge15" class="edge"><title>Node6&#45;&gt;Node14</title>
<path fill="none" stroke="midnightblue" d="M723.116,-171.525C827.943,-161.898 1045.58,-141.911 1166.26,-130.828"/>
<polygon fill="midnightblue" stroke="midnightblue" points="1166.93,-134.282 1176.56,-129.882 1166.29,-127.311 1166.93,-134.282"/>
</g>
<!-- Node18 -->
<g id="node18" class="node"><title>Node18</title>
<g id="a_node18"><a xlink:href="MonitorObject_8h.html" target="_top" xlink:title="QualityControl/MonitorObject.h">
<polygon fill="none" stroke="black" points="1005,-56.5 1005,-75.5 1156,-75.5 1156,-56.5 1005,-56.5"/>
<text text-anchor="middle" x="1080.5" y="-63.5" font-family="Helvetica,sans-Serif" font-size="10.00">QualityControl/MonitorObject.h</text>
</a>
</g>
</g>
<!-- Node6&#45;&gt;Node18 -->
<g id="edge21" class="edge"><title>Node6&#45;&gt;Node18</title>
<path fill="none" stroke="midnightblue" d="M723.316,-172.065C803.352,-164.886 940.649,-150.388 987.5,-132 1016.97,-120.435 1046.09,-97.7751 1063.68,-82.5077"/>
<polygon fill="midnightblue" stroke="midnightblue" points="1066.2,-84.9503 1071.35,-75.6876 1061.55,-79.7212 1066.2,-84.9503"/>
</g>
<!-- Node19 -->
<g id="node19" class="node"><title>Node19</title>
<g id="a_node19"><a xlink:href="CheckInterface_8h.html" target="_top" xlink:title="QualityControl/CheckInterface.h">
<polygon fill="none" stroke="black" points="788,-112.5 788,-131.5 945,-131.5 945,-112.5 788,-112.5"/>
<text text-anchor="middle" x="866.5" y="-119.5" font-family="Helvetica,sans-Serif" font-size="10.00">QualityControl/CheckInterface.h</text>
</a>
</g>
</g>
<!-- Node6&#45;&gt;Node19 -->
<g id="edge27" class="edge"><title>Node6&#45;&gt;Node19</title>
<path fill="none" stroke="midnightblue" d="M695.666,-168.444C730.559,-159.162 786.393,-144.309 824.671,-134.127"/>
<polygon fill="midnightblue" stroke="midnightblue" points="825.72,-137.47 834.485,-131.516 823.921,-130.705 825.72,-137.47"/>
</g>
<!-- Node20 -->
<g id="node20" class="node"><title>Node20</title>
<g id="a_node20"><a xlink:href="QcInfoLogger_8h.html" target="_top" xlink:title="QualityControl/QcInfoLogger.h">
<polygon fill="none" stroke="black" points="1520,-112.5 1520,-131.5 1669,-131.5 1669,-112.5 1520,-112.5"/>
<text text-anchor="middle" x="1594.5" y="-119.5" font-family="Helvetica,sans-Serif" font-size="10.00">QualityControl/QcInfoLogger.h</text>
</a>
</g>
</g>
<!-- Node6&#45;&gt;Node20 -->
<g id="edge34" class="edge"><title>Node6&#45;&gt;Node20</title>
<path fill="none" stroke="midnightblue" d="M723.183,-171.668C738.591,-170.377 755.157,-169.064 770.5,-168 912.281,-158.168 1329.21,-136.548 1509.66,-127.316"/>
<polygon fill="midnightblue" stroke="midnightblue" points="1510.09,-130.799 1519.89,-126.793 1509.73,-123.808 1510.09,-130.799"/>
</g>
<!-- Node22 -->
<g id="node22" class="node"><title>Node22</title>
<g id="a_node22"><a xlink:href="CheckConfig_8h.html" target="_top" xlink:title="QualityControl/CheckConfig.h">
<polygon fill="none" stroke="black" points="430,-112.5 430,-131.5 577,-131.5 577,-112.5 430,-112.5"/>
<text text-anchor="middle" x="503.5" y="-119.5" font-family="Helvetica,sans-Serif" font-size="10.00">QualityControl/CheckConfig.h</text>
</a>
</g>
</g>
<!-- Node6&#45;&gt;Node22 -->
<g id="edge36" class="edge"><title>Node6&#45;&gt;Node22</title>
<path fill="none" stroke="midnightblue" d="M638.148,-168.444C611.231,-159.359 568.504,-144.939 538.413,-134.783"/>
<polygon fill="midnightblue" stroke="midnightblue" points="539.328,-131.398 528.734,-131.516 537.09,-138.031 539.328,-131.398"/>
</g>
<!-- Node12&#45;&gt;Node3 -->
<g id="edge14" class="edge"><title>Node12&#45;&gt;Node3</title>
<path fill="none" stroke="midnightblue" d="M759.201,-56.324C745.317,-47.9002 724.008,-34.9709 707.696,-25.0741"/>
<polygon fill="midnightblue" stroke="midnightblue" points="709.129,-21.8495 698.764,-19.6545 705.498,-27.8341 709.129,-21.8495"/>
</g>
<!-- Node13 -->
<g id="node13" class="node"><title>Node13</title>
<polygon fill="none" stroke="#bfbfbf" points="834.5,-0.5 834.5,-19.5 890.5,-19.5 890.5,-0.5 834.5,-0.5"/>
<text text-anchor="middle" x="862.5" y="-7.5" font-family="Helvetica,sans-Serif" font-size="10.00">Rtypes.h</text>
</g>
<!-- Node12&#45;&gt;Node13 -->
<g id="edge13" class="edge"><title>Node12&#45;&gt;Node13</title>
<path fill="none" stroke="midnightblue" d="M787.799,-56.324C801.683,-47.9002 822.992,-34.9709 839.304,-25.0741"/>
<polygon fill="midnightblue" stroke="midnightblue" points="841.502,-27.8341 848.236,-19.6545 837.871,-21.8495 841.502,-27.8341"/>
</g>
<!-- Node14&#45;&gt;Node8 -->
<g id="edge17" class="edge"><title>Node14&#45;&gt;Node8</title>
<path fill="none" stroke="midnightblue" d="M1252.24,-112.149C1252.89,-98.3055 1252.01,-71.5136 1237.5,-56 1219.9,-37.1791 1148.15,-22.3996 1108.01,-15.4102"/>
<polygon fill="midnightblue" stroke="midnightblue" points="1108.52,-11.9456 1098.07,-13.7257 1107.35,-18.8472 1108.52,-11.9456"/>
</g>
<!-- Node14&#45;&gt;Node12 -->
<g id="edge20" class="edge"><title>Node14&#45;&gt;Node12</title>
<path fill="none" stroke="midnightblue" d="M1176.81,-112.562C1085.79,-102.28 933.153,-85.0361 844.051,-74.9702"/>
<polygon fill="midnightblue" stroke="midnightblue" points="844.369,-71.4839 834.039,-73.8391 843.583,-78.4397 844.369,-71.4839"/>
</g>
<!-- Node15 -->
<g id="node15" class="node"><title>Node15</title>
<polygon fill="none" stroke="#bfbfbf" points="1174.5,-56.5 1174.5,-75.5 1228.5,-75.5 1228.5,-56.5 1174.5,-56.5"/>
<text text-anchor="middle" x="1201.5" y="-63.5" font-family="Helvetica,sans-Serif" font-size="10.00">iostream</text>
</g>
<!-- Node14&#45;&gt;Node15 -->
<g id="edge16" class="edge"><title>Node14&#45;&gt;Node15</title>
<path fill="none" stroke="midnightblue" d="M1243.24,-112.083C1236.04,-104.298 1225.39,-92.8015 1216.65,-83.3665"/>
<polygon fill="midnightblue" stroke="midnightblue" points="1218.97,-80.7108 1209.6,-75.7511 1213.83,-85.4666 1218.97,-80.7108"/>
</g>
<!-- Node16 -->
<g id="node16" class="node"><title>Node16</title>
<polygon fill="none" stroke="#bfbfbf" points="1400,-0.5 1400,-19.5 1459,-19.5 1459,-0.5 1400,-0.5"/>
<text text-anchor="middle" x="1429.5" y="-7.5" font-family="Helvetica,sans-Serif" font-size="10.00">TObject.h</text>
</g>
<!-- Node14&#45;&gt;Node16 -->
<g id="edge18" class="edge"><title>Node14&#45;&gt;Node16</title>
<path fill="none" stroke="midnightblue" d="M1265.47,-112.368C1296.14,-93.4121 1369.63,-48.0006 1406.94,-24.9424"/>
<polygon fill="midnightblue" stroke="midnightblue" points="1408.93,-27.8258 1415.6,-19.5914 1405.25,-21.8711 1408.93,-27.8258"/>
</g>
<!-- Node17 -->
<g id="node17" class="node"><title>Node17</title>
<polygon fill="none" stroke="#bfbfbf" points="1176.5,-0.5 1176.5,-19.5 1292.5,-19.5 1292.5,-0.5 1176.5,-0.5"/>
<text text-anchor="middle" x="1234.5" y="-7.5" font-family="Helvetica,sans-Serif" font-size="10.00">Common/Exceptions.h</text>
</g>
<!-- Node14&#45;&gt;Node17 -->
<g id="edge19" class="edge"><title>Node14&#45;&gt;Node17</title>
<path fill="none" stroke="midnightblue" d="M1257.38,-112.495C1265.27,-99.9919 1277.5,-75.9695 1270.5,-56 1266.71,-45.2094 1259.13,-35.084 1251.9,-27.1808"/>
<polygon fill="midnightblue" stroke="midnightblue" points="1254.17,-24.4943 1244.66,-19.8145 1249.17,-29.4005 1254.17,-24.4943"/>
</g>
<!-- Node18&#45;&gt;Node3 -->
<g id="edge22" class="edge"><title>Node18&#45;&gt;Node3</title>
<path fill="none" stroke="midnightblue" d="M1017.75,-56.4435C931.606,-44.6962 780.026,-24.0263 715.253,-15.1936"/>
<polygon fill="midnightblue" stroke="midnightblue" points="715.65,-11.7154 705.269,-13.8321 714.704,-18.6512 715.65,-11.7154"/>
</g>
<!-- Node18&#45;&gt;Node8 -->
<g id="edge23" class="edge"><title>Node18&#45;&gt;Node8</title>
<path fill="none" stroke="midnightblue" d="M1080.5,-56.083C1080.5,-49.0059 1080.5,-38.8611 1080.5,-29.9865"/>
<polygon fill="midnightblue" stroke="midnightblue" points="1084,-29.751 1080.5,-19.7511 1077,-29.7511 1084,-29.751"/>
</g>
<!-- Node18&#45;&gt;Node13 -->
<g id="edge24" class="edge"><title>Node18&#45;&gt;Node13</title>
<path fill="none" stroke="midnightblue" d="M1045.96,-56.4435C1006.33,-46.6286 941.566,-30.5852 900.533,-20.421"/>
<polygon fill="midnightblue" stroke="midnightblue" points="901.19,-16.9781 890.642,-17.971 899.507,-23.7728 901.19,-16.9781"/>
</g>
<!-- Node18&#45;&gt;Node16 -->
<g id="edge25" class="edge"><title>Node18&#45;&gt;Node16</title>
<path fill="none" stroke="midnightblue" d="M1135.8,-56.4435C1206.48,-45.5076 1327.13,-26.8391 1389.52,-17.1864"/>
<polygon fill="midnightblue" stroke="midnightblue" points="1390.39,-20.5929 1399.74,-15.6049 1389.32,-13.6752 1390.39,-20.5929"/>
</g>
<!-- Node18&#45;&gt;Node17 -->
<g id="edge26" class="edge"><title>Node18&#45;&gt;Node17</title>
<path fill="none" stroke="midnightblue" d="M1104.9,-56.4435C1130.7,-47.3986 1171.58,-33.064 1200.52,-22.9158"/>
<polygon fill="midnightblue" stroke="midnightblue" points="1201.93,-26.1283 1210.21,-19.5164 1199.62,-19.5226 1201.93,-26.1283"/>
</g>
<!-- Node19&#45;&gt;Node3 -->
<g id="edge28" class="edge"><title>Node19&#45;&gt;Node3</title>
<path fill="none" stroke="midnightblue" d="M787.866,-115.416C758.025,-109.522 725.878,-98.0444 703.5,-76 691.34,-64.0209 686.861,-44.7225 685.263,-30.2598"/>
<polygon fill="midnightblue" stroke="midnightblue" points="688.727,-29.6477 684.506,-19.93 681.746,-30.159 688.727,-29.6477"/>
</g>
<!-- Node19&#45;&gt;Node8 -->
<g id="edge29" class="edge"><title>Node19&#45;&gt;Node8</title>
<path fill="none" stroke="midnightblue" d="M877.496,-112.305C894.809,-98.911 929.825,-73.001 962.5,-56 992.283,-40.504 1028.65,-27.4457 1053.08,-19.4531"/>
<polygon fill="midnightblue" stroke="midnightblue" points="1054.31,-22.7344 1062.76,-16.3454 1052.17,-16.0693 1054.31,-22.7344"/>
</g>
<!-- Node19&#45;&gt;Node11 -->
<g id="edge30" class="edge"><title>Node19&#45;&gt;Node11</title>
<path fill="none" stroke="midnightblue" d="M825.619,-112.444C780.517,-103.004 707.888,-87.802 659.198,-77.6111"/>
<polygon fill="midnightblue" stroke="midnightblue" points="659.695,-74.1394 649.19,-75.5164 658.26,-80.9909 659.695,-74.1394"/>
</g>
<!-- Node19&#45;&gt;Node12 -->
<g id="edge33" class="edge"><title>Node19&#45;&gt;Node12</title>
<path fill="none" stroke="midnightblue" d="M851.558,-112.324C836.915,-103.822 814.366,-90.7288 797.262,-80.7975"/>
<polygon fill="midnightblue" stroke="midnightblue" points="798.81,-77.6491 788.405,-75.6545 795.295,-83.7027 798.81,-77.6491"/>
</g>
<!-- Node19&#45;&gt;Node13 -->
<g id="edge31" class="edge"><title>Node19&#45;&gt;Node13</title>
<path fill="none" stroke="midnightblue" d="M866.186,-112.368C865.541,-94.617 864.052,-53.6664 863.176,-29.5974"/>
<polygon fill="midnightblue" stroke="midnightblue" points="866.674,-29.4576 862.812,-19.5914 859.678,-29.712 866.674,-29.4576"/>
</g>
<!-- Node19&#45;&gt;Node18 -->
<g id="edge32" class="edge"><title>Node19&#45;&gt;Node18</title>
<path fill="none" stroke="midnightblue" d="M900.409,-112.444C937.349,-103.122 996.554,-88.1828 1036.92,-77.9972"/>
<polygon fill="midnightblue" stroke="midnightblue" points="1037.91,-81.3568 1046.75,-75.5164 1036.2,-74.5695 1037.91,-81.3568"/>
</g>
<!-- Node21 -->
<g id="node21" class="node"><title>Node21</title>
<polygon fill="none" stroke="#bfbfbf" points="1543.5,-56.5 1543.5,-75.5 1673.5,-75.5 1673.5,-56.5 1543.5,-56.5"/>
<text text-anchor="middle" x="1608.5" y="-63.5" font-family="Helvetica,sans-Serif" font-size="10.00">InfoLogger/InfoLogger.hxx</text>
</g>
<!-- Node20&#45;&gt;Node21 -->
<g id="edge35" class="edge"><title>Node20&#45;&gt;Node21</title>
<path fill="none" stroke="midnightblue" d="M1596.81,-112.083C1598.67,-104.927 1601.34,-94.6353 1603.65,-85.6911"/>
<polygon fill="midnightblue" stroke="midnightblue" points="1607.11,-86.3094 1606.23,-75.7511 1600.33,-84.5527 1607.11,-86.3094"/>
</g>
<!-- Node22&#45;&gt;Node3 -->
<g id="edge37" class="edge"><title>Node22&#45;&gt;Node3</title>
<path fill="none" stroke="midnightblue" d="M508.658,-112.132C517.149,-98.2659 535.359,-71.4432 557.5,-56 586.802,-35.5618 626.343,-23.4937 653.477,-17.083"/>
<polygon fill="midnightblue" stroke="midnightblue" points="654.58,-20.4228 663.574,-14.8228 653.051,-13.5919 654.58,-20.4228"/>
</g>
<!-- Node22&#45;&gt;Node11 -->
<g id="edge38" class="edge"><title>Node22&#45;&gt;Node11</title>
<path fill="none" stroke="midnightblue" d="M520.37,-112.324C537.209,-103.664 563.307,-90.2424 582.738,-80.249"/>
<polygon fill="midnightblue" stroke="midnightblue" points="584.38,-83.3405 591.672,-75.6545 581.178,-77.1155 584.38,-83.3405"/>
</g>
<!-- Node23&#45;&gt;Node3 -->
<g id="edge42" class="edge"><title>Node23&#45;&gt;Node3</title>
<path fill="none" stroke="midnightblue" d="M1132.19,-237.824C1015.78,-235.544 785.62,-226.102 594.5,-188 514.828,-172.116 468.343,-197.658 420.5,-132 358.703,-47.1929 571.882,-20.305 653.773,-13.2144"/>
<polygon fill="midnightblue" stroke="midnightblue" points="654.072,-16.7018 663.751,-12.393 653.497,-9.7254 654.072,-16.7018"/>
</g>
<!-- Node23&#45;&gt;Node4 -->
<g id="edge50" class="edge"><title>Node23&#45;&gt;Node4</title>
<path fill="none" stroke="midnightblue" d="M1132.29,-238.907C956.645,-239.052 524.03,-234.512 387.5,-188 356.555,-177.458 326.233,-154.128 308.2,-138.48"/>
<polygon fill="midnightblue" stroke="midnightblue" points="310.177,-135.553 300.386,-131.506 305.515,-140.776 310.177,-135.553"/>
</g>
<!-- Node23&#45;&gt;Node6 -->
<g id="edge61" class="edge"><title>Node23&#45;&gt;Node6</title>
<path fill="none" stroke="midnightblue" d="M1132.17,-230.734C1039.32,-221.086 876.719,-203.945 737.5,-188 736.198,-187.851 734.884,-187.7 733.559,-187.546"/>
<polygon fill="midnightblue" stroke="midnightblue" points="733.605,-184.028 723.266,-186.342 732.791,-190.98 733.605,-184.028"/>
</g>
<!-- Node23&#45;&gt;Node8 -->
<g id="edge43" class="edge"><title>Node23&#45;&gt;Node8</title>
<path fill="none" stroke="midnightblue" d="M1255.88,-229.93C1267.54,-227.927 1279.95,-225.841 1291.5,-224 1346.06,-215.3 1501.37,-229.8 1537.5,-188 1543.31,-181.275 1542.24,-175.521 1537.5,-168 1489.38,-91.6158 1199.15,-32.6961 1107.92,-15.866"/>
<polygon fill="midnightblue" stroke="midnightblue" points="1108.51,-12.4165 1098.05,-14.0664 1107.26,-19.303 1108.51,-12.4165"/>
</g>
<!-- Node23&#45;&gt;Node9 -->
<g id="edge44" class="edge"><title>Node23&#45;&gt;Node9</title>
<path fill="none" stroke="midnightblue" d="M1185.84,-229.87C1165.75,-221.203 1135.71,-206.496 1113.5,-188 1097.08,-174.323 1082.28,-154.758 1072.71,-140.672"/>
<polygon fill="midnightblue" stroke="midnightblue" points="1075.38,-138.365 1066.96,-131.934 1069.53,-142.212 1075.38,-138.365"/>
</g>
<!-- Node23&#45;&gt;Node10 -->
<g id="edge41" class="edge"><title>Node23&#45;&gt;Node10</title>
<path fill="none" stroke="midnightblue" d="M1227.12,-229.867C1246.79,-220.786 1277.51,-205.413 1301.5,-188 1321.61,-173.404 1341.83,-153.199 1354.93,-139.207"/>
<polygon fill="midnightblue" stroke="midnightblue" points="1357.57,-141.506 1361.77,-131.777 1352.42,-136.767 1357.57,-141.506"/>
</g>
<!-- Node23&#45;&gt;Node18 -->
<g id="edge59" class="edge"><title>Node23&#45;&gt;Node18</title>
<path fill="none" stroke="midnightblue" d="M1251.26,-229.923C1299.73,-217.717 1374.95,-190.032 1404.5,-132 1408.53,-124.079 1410.34,-118.704 1404.5,-112 1396.66,-102.999 1259.38,-86.4121 1166.05,-76.0852"/>
<polygon fill="midnightblue" stroke="midnightblue" points="1166.36,-72.5977 1156.03,-74.9819 1165.59,-79.5556 1166.36,-72.5977"/>
</g>
<!-- Node23&#45;&gt;Node19 -->
<g id="edge51" class="edge"><title>Node23&#45;&gt;Node19</title>
<path fill="none" stroke="midnightblue" d="M1132.17,-235.16C1013.52,-229.119 794.095,-214.478 770.5,-188 749.842,-164.817 788.945,-145.971 823.284,-134.653"/>
<polygon fill="midnightblue" stroke="midnightblue" points="824.759,-137.858 833.252,-131.524 822.663,-131.179 824.759,-137.858"/>
</g>
<!-- Node23&#45;&gt;Node20 -->
<g id="edge60" class="edge"><title>Node23&#45;&gt;Node20</title>
<path fill="none" stroke="midnightblue" d="M1254.98,-229.941C1266.88,-227.895 1279.65,-225.787 1291.5,-224 1353.32,-214.681 1521.61,-226.953 1570.5,-188 1584.45,-176.89 1590.29,-156.856 1592.74,-141.956"/>
<polygon fill="midnightblue" stroke="midnightblue" points="1596.24,-142.156 1594.02,-131.795 1589.29,-141.275 1596.24,-142.156"/>
</g>
<!-- Node24 -->
<g id="node24" class="node"><title>Node24</title>
<polygon fill="none" stroke="#bfbfbf" points="1386.5,-168.5 1386.5,-187.5 1432.5,-187.5 1432.5,-168.5 1386.5,-168.5"/>
<text text-anchor="middle" x="1409.5" y="-175.5" font-family="Helvetica,sans-Serif" font-size="10.00">chrono</text>
</g>
<!-- Node23&#45;&gt;Node24 -->
<g id="edge40" class="edge"><title>Node23&#45;&gt;Node24</title>
<path fill="none" stroke="midnightblue" d="M1236.44,-229.975C1273.49,-219.061 1337.54,-200.195 1376.47,-188.73"/>
<polygon fill="midnightblue" stroke="midnightblue" points="1377.66,-192.027 1386.26,-185.844 1375.68,-185.313 1377.66,-192.027"/>
</g>
<!-- Node25 -->
<g id="node25" class="node"><title>Node25</title>
<polygon fill="none" stroke="#bfbfbf" points="1450.5,-168.5 1450.5,-187.5 1528.5,-187.5 1528.5,-168.5 1450.5,-168.5"/>
<text text-anchor="middle" x="1489.5" y="-175.5" font-family="Helvetica,sans-Serif" font-size="10.00">unordered_set</text>
</g>
<!-- Node23&#45;&gt;Node25 -->
<g id="edge45" class="edge"><title>Node23&#45;&gt;Node25</title>
<path fill="none" stroke="midnightblue" d="M1247.9,-229.975C1298.66,-219.266 1385.7,-200.902 1440.28,-189.385"/>
<polygon fill="midnightblue" stroke="midnightblue" points="1441.02,-192.806 1450.08,-187.317 1439.57,-185.957 1441.02,-192.806"/>
</g>
<!-- Node26 -->
<g id="node26" class="node"><title>Node26</title>
<polygon fill="none" stroke="#bfbfbf" points="1622.5,-168.5 1622.5,-187.5 1714.5,-187.5 1714.5,-168.5 1622.5,-168.5"/>
<text text-anchor="middle" x="1668.5" y="-175.5" font-family="Helvetica,sans-Serif" font-size="10.00">Common/Timer.h</text>
</g>
<!-- Node23&#45;&gt;Node26 -->
<g id="edge46" class="edge"><title>Node23&#45;&gt;Node26</title>
<path fill="none" stroke="midnightblue" d="M1254.08,-229.966C1266.24,-227.874 1279.34,-225.738 1291.5,-224 1431.87,-203.932 1467.92,-206.52 1608.5,-188 1609.76,-187.834 1611.04,-187.663 1612.33,-187.489"/>
<polygon fill="midnightblue" stroke="midnightblue" points="1612.91,-190.941 1622.34,-186.095 1611.95,-184.008 1612.91,-190.941"/>
</g>
<!-- Node27 -->
<g id="node27" class="node"><title>Node27</title>
<polygon fill="none" stroke="#bfbfbf" points="1732.5,-168.5 1732.5,-187.5 1830.5,-187.5 1830.5,-168.5 1732.5,-168.5"/>
<text text-anchor="middle" x="1781.5" y="-175.5" font-family="Helvetica,sans-Serif" font-size="10.00">Framework/Task.h</text>
</g>
<!-- Node23&#45;&gt;Node27 -->
<g id="edge47" class="edge"><title>Node23&#45;&gt;Node27</title>
<path fill="none" stroke="midnightblue" d="M1252.73,-229.943C1265.25,-227.778 1278.88,-225.612 1291.5,-224 1479.35,-200.007 1530.45,-210.413 1722.35,-188.052"/>
<polygon fill="midnightblue" stroke="midnightblue" points="1722.96,-191.503 1732.49,-186.855 1722.14,-184.552 1722.96,-191.503"/>
</g>
<!-- Node28 -->
<g id="node28" class="node"><title>Node28</title>
<polygon fill="none" stroke="#bfbfbf" points="780,-168.5 780,-187.5 897,-187.5 897,-168.5 780,-168.5"/>
<text text-anchor="middle" x="838.5" y="-175.5" font-family="Helvetica,sans-Serif" font-size="10.00">Headers/DataHeader.h</text>
</g>
<!-- Node23&#45;&gt;Node28 -->
<g id="edge48" class="edge"><title>Node23&#45;&gt;Node28</title>
<path fill="none" stroke="midnightblue" d="M1154.63,-229.975C1087.77,-219.194 972.794,-200.654 901.467,-189.153"/>
<polygon fill="midnightblue" stroke="midnightblue" points="901.7,-185.646 891.271,-187.509 900.586,-192.556 901.7,-185.646"/>
</g>
<!-- Node29 -->
<g id="node29" class="node"><title>Node29</title>
<polygon fill="none" stroke="#bfbfbf" points="915,-168.5 915,-187.5 1066,-187.5 1066,-168.5 915,-168.5"/>
<text text-anchor="middle" x="990.5" y="-175.5" font-family="Helvetica,sans-Serif" font-size="10.00">Monitoring/MonitoringFactory.h</text>
</g>
<!-- Node23&#45;&gt;Node29 -->
<g id="edge49" class="edge"><title>Node23&#45;&gt;Node29</title>
<path fill="none" stroke="midnightblue" d="M1176.41,-229.975C1138.22,-219.504 1073.33,-201.712 1031.2,-190.16"/>
<polygon fill="midnightblue" stroke="midnightblue" points="1032.1,-186.778 1021.53,-187.509 1030.25,-193.529 1032.1,-186.778"/>
</g>
<!-- Node30 -->
<g id="node30" class="node"><title>Node30</title>
<g id="a_node30"><a xlink:href="DatabaseInterface_8h.html" target="_top" xlink:title="QualityControl/DatabaseInterface.h">
<polygon fill="none" stroke="black" points="1122.5,-168.5 1122.5,-187.5 1292.5,-187.5 1292.5,-168.5 1122.5,-168.5"/>
<text text-anchor="middle" x="1207.5" y="-175.5" font-family="Helvetica,sans-Serif" font-size="10.00">QualityControl/DatabaseInterface.h</text>
</a>
</g>
</g>
<!-- Node23&#45;&gt;Node30 -->
<g id="edge52" class="edge"><title>Node23&#45;&gt;Node30</title>
<path fill="none" stroke="midnightblue" d="M1207.5,-229.975C1207.5,-221.58 1207.5,-208.481 1207.5,-197.663"/>
<polygon fill="midnightblue" stroke="midnightblue" points="1211,-197.509 1207.5,-187.509 1204,-197.509 1211,-197.509"/>
</g>
<!-- Node30&#45;&gt;Node3 -->
<g id="edge53" class="edge"><title>Node30&#45;&gt;Node3</title>
<path fill="none" stroke="midnightblue" d="M1192.37,-168.304C1162.36,-151.075 1097.72,-114.077 1092.5,-112 957.019,-58.113 784.475,-26.8159 715.258,-15.6732"/>
<polygon fill="midnightblue" stroke="midnightblue" points="715.482,-12.1651 705.058,-14.0575 714.387,-19.0789 715.482,-12.1651"/>
</g>
<!-- Node30&#45;&gt;Node9 -->
<g id="edge55" class="edge"><title>Node30&#45;&gt;Node9</title>
<path fill="none" stroke="midnightblue" d="M1184.37,-168.444C1159.73,-159.332 1120.58,-144.853 1093.11,-134.693"/>
<polygon fill="midnightblue" stroke="midnightblue" points="1094.16,-131.349 1083.57,-131.163 1091.74,-137.915 1094.16,-131.349"/>
</g>
<!-- Node30&#45;&gt;Node10 -->
<g id="edge54" class="edge"><title>Node30&#45;&gt;Node10</title>
<path fill="none" stroke="midnightblue" d="M1233.17,-168.444C1260.42,-159.359 1303.68,-144.939 1334.15,-134.783"/>
<polygon fill="midnightblue" stroke="midnightblue" points="1335.57,-137.999 1343.95,-131.516 1333.36,-131.358 1335.57,-137.999"/>
</g>
<!-- Node30&#45;&gt;Node11 -->
<g id="edge56" class="edge"><title>Node30&#45;&gt;Node11</title>
<path fill="none" stroke="midnightblue" d="M1122.24,-170.702C1016.27,-162.413 841.682,-147.118 778.5,-132 726.422,-119.539 668.795,-95.0914 635.788,-79.9877"/>
<polygon fill="midnightblue" stroke="midnightblue" points="636.913,-76.6517 626.368,-75.624 633.971,-83.0033 636.913,-76.6517"/>
</g>
<!-- Node30&#45;&gt;Node14 -->
<g id="edge57" class="edge"><title>Node30&#45;&gt;Node14</title>
<path fill="none" stroke="midnightblue" d="M1214.77,-168.083C1221.04,-160.377 1230.29,-149.033 1237.93,-139.653"/>
<polygon fill="midnightblue" stroke="midnightblue" points="1240.77,-141.714 1244.37,-131.751 1235.34,-137.293 1240.77,-141.714"/>
</g>
<!-- Node30&#45;&gt;Node18 -->
<g id="edge58" class="edge"><title>Node30&#45;&gt;Node18</title>
<path fill="none" stroke="midnightblue" d="M1197.53,-168.368C1176.11,-149.814 1125.43,-105.913 1098.32,-82.4376"/>
<polygon fill="midnightblue" stroke="midnightblue" points="1100.27,-79.4929 1090.42,-75.5914 1095.69,-84.7841 1100.27,-79.4929"/>
</g>
</g>
</svg>
        <g id="navigator" transform="translate(0 0)" fill="#404254">
                <rect fill="#f2f5e9" fill-opacity="0.5" stroke="#606060" stroke-width=".5" x="0" y="0" width="60" height="60"/>
                <use id="zoomplus" xlink:href="#zoomPlus" x="17" y="9" onmousedown="handleZoom(evt,'in')"/>
                <use id="zoomminus" xlink:href="#zoomMin" x="42" y="9" onmousedown="handleZoom(evt,'out')"/>
                <use id="reset" xlink:href="#resetDef" x="30" y="36" onmousedown="handleReset()"/>
                <g id="arrowUp" xlink:href="#dirArrow" transform="translate(30 24)" onmousedown="handlePan(0,-1)">
                  <use xlink:href="#rim" fill="#404040">
                        <set attributeName="fill" to="#808080" begin="arrowUp.mouseover" end="arrowUp.mouseout"/>
                  </use>
                  <path fill="none" stroke="white" stroke-width="1.5" d="M0,-3.0v7 M-2.5,-0.5L0,-3.0L2.5,-0.5"/>
                </g>
                <g id="arrowRight" xlink:href="#dirArrow" transform="rotate(90) translate(36 -43)" onmousedown="handlePan(1,0)">
                  <use xlink:href="#rim" fill="#404040">
                        <set attributeName="fill" to="#808080" begin="arrowRight.mouseover" end="arrowRight.mouseout"/>
                  </use>
                  <path fill="none" stroke="white" stroke-width="1.5" d="M0,-3.0v7 M-2.5,-0.5L0,-3.0L2.5,-0.5"/>
                </g>
                <g id="arrowDown" xlink:href="#dirArrow" transform="rotate(180) translate(-30 -48)" onmousedown="handlePan(0,1)">
                  <use xlink:href="#rim" fill="#404040">
                        <set attributeName="fill" to="#808080" begin="arrowDown.mouseover" end="arrowDown.mouseout"/>
                  </use>
                  <path fill="none" stroke="white" stroke-width="1.5" d="M0,-3.0v7 M-2.5,-0.5L0,-3.0L2.5,-0.5"/>
                </g>
                <g id="arrowLeft" xlink:href="#dirArrow" transform="rotate(270) translate(-36 17)" onmousedown="handlePan(-1,0)">
                  <use xlink:href="#rim" fill="#404040">
                        <set attributeName="fill" to="#808080" begin="arrowLeft.mouseover" end="arrowLeft.mouseout"/>
                  </use>
                  <path fill="none" stroke="white" stroke-width="1.5" d="M0,-3.0v7 M-2.5,-0.5L0,-3.0L2.5,-0.5"/>
                </g>
        </g>
        <svg viewBox="0 0 15 15" width="100%" height="30px" preserveAspectRatio="xMaxYMin meet">
         <g id="arrow_out" transform="scale(0.3 0.3)">
          <a xlink:href="testCheckRunner_8cxx__incl_org.svg" target="_base">
           <rect id="button" ry="5" rx="5" y="6" x="6" height="38" width="38"
                fill="#f2f5e9" fill-opacity="0.5" stroke="#606060" stroke-width="1.0"/>
           <path id="arrow"
             d="M 11.500037,31.436501 C 11.940474,20.09759 22.043105,11.32322 32.158766,21.979434 L 37.068811,17.246167 C 37.068811,17.246167 37.088388,32 37.088388,32 L 22.160133,31.978069 C 22.160133,31.978069 26.997745,27.140456 26.997745,27.140456 C 18.528582,18.264221 13.291696,25.230495 11.500037,31.436501 z"
             style="fill:#404040;"/>
          </a>
         </g>
        </svg>
</svg>
