<?xml version="1.0" encoding="UTF-8" standalone="no"?>
<!DOCTYPE svg PUBLIC "-//W3C//DTD SVG 1.1//EN"
 "http://www.w3.org/Graphics/SVG/1.1/DTD/svg11.dtd">
<!-- Generated by graphviz version 2.38.0 (20140413.2041)
 -->
<!-- Title: Modules/Skeleton/test/testQcSkeleton.cxx Pages: 1 -->
<svg width="1296pt" height="330pt"
 viewBox="0.00 0.00 1296.00 330.00" xmlns="http://www.w3.org/2000/svg" xmlns:xlink="http://www.w3.org/1999/xlink">
<g id="graph0" class="graph" transform="scale(1 1) rotate(0) translate(4 326)">
<title>Modules/Skeleton/test/testQcSkeleton.cxx</title>
<!-- Node1 -->
<g id="node1" class="node"><title>Node1</title>
<polygon fill="#bfbfbf" stroke="black" points="1021.5,-291.5 1021.5,-321.5 1135.5,-321.5 1135.5,-291.5 1021.5,-291.5"/>
<text text-anchor="start" x="1029.5" y="-309.5" font-family="Helvetica,sans-Serif" font-size="10.00">Modules/Skeleton/test</text>
<text text-anchor="middle" x="1078.5" y="-298.5" font-family="Helvetica,sans-Serif" font-size="10.00">/testQcSkeleton.cxx</text>
</g>
<!-- Node2 -->
<g id="node2" class="node"><title>Node2</title>
<g id="a_node2"><a xlink:href="SkeletonTask_8h.html" target="_top" xlink:title="Skeleton/SkeletonTask.h">
<polygon fill="none" stroke="black" points="774.5,-235.5 774.5,-254.5 900.5,-254.5 900.5,-235.5 774.5,-235.5"/>
<text text-anchor="middle" x="837.5" y="-242.5" font-family="Helvetica,sans-Serif" font-size="10.00">Skeleton/SkeletonTask.h</text>
</a>
</g>
</g>
<!-- Node1&#45;&gt;Node2 -->
<g id="edge1" class="edge"><title>Node1&#45;&gt;Node2</title>
<path fill="none" stroke="midnightblue" d="M1021.69,-291.475C978.934,-280.918 921.162,-266.655 881.795,-256.936"/>
<polygon fill="midnightblue" stroke="midnightblue" points="882.502,-253.505 871.954,-254.506 880.824,-260.301 882.502,-253.505"/>
</g>
<!-- Node20 -->
<g id="node20" class="node"><title>Node20</title>
<g id="a_node20"><a xlink:href="TaskFactory_8h.html" target="_top" xlink:title="QualityControl/TaskFactory.h">
<polygon fill="none" stroke="black" points="1006,-235.5 1006,-254.5 1151,-254.5 1151,-235.5 1006,-235.5"/>
<text text-anchor="middle" x="1078.5" y="-242.5" font-family="Helvetica,sans-Serif" font-size="10.00">QualityControl/TaskFactory.h</text>
</a>
</g>
</g>
<!-- Node1&#45;&gt;Node20 -->
<g id="edge25" class="edge"><title>Node1&#45;&gt;Node20</title>
<path fill="none" stroke="midnightblue" d="M1078.5,-291.399C1078.5,-283.466 1078.5,-273.458 1078.5,-264.858"/>
<polygon fill="midnightblue" stroke="midnightblue" points="1082,-264.658 1078.5,-254.658 1075,-264.658 1082,-264.658"/>
</g>
<!-- Node21 -->
<g id="node21" class="node"><title>Node21</title>
<polygon fill="none" stroke="#bfbfbf" points="1169,-235.5 1169,-254.5 1288,-254.5 1288,-235.5 1169,-235.5"/>
<text text-anchor="middle" x="1228.5" y="-242.5" font-family="Helvetica,sans-Serif" font-size="10.00">boost/test/unit_test.hpp</text>
</g>
<!-- Node1&#45;&gt;Node21 -->
<g id="edge29" class="edge"><title>Node1&#45;&gt;Node21</title>
<path fill="none" stroke="midnightblue" d="M1114.05,-291.399C1139.33,-281.372 1172.97,-268.028 1197.23,-258.405"/>
<polygon fill="midnightblue" stroke="midnightblue" points="1198.67,-261.598 1206.67,-254.658 1196.09,-255.092 1198.67,-261.598"/>
</g>
<!-- Node3 -->
<g id="node3" class="node"><title>Node3</title>
<g id="a_node3"><a xlink:href="TaskInterface_8h.html" target="_top" xlink:title="QualityControl/TaskInterface.h">
<polygon fill="none" stroke="black" points="588.5,-179.5 588.5,-198.5 738.5,-198.5 738.5,-179.5 588.5,-179.5"/>
<text text-anchor="middle" x="663.5" y="-186.5" font-family="Helvetica,sans-Serif" font-size="10.00">QualityControl/TaskInterface.h</text>
</a>
</g>
</g>
<!-- Node2&#45;&gt;Node3 -->
<g id="edge2" class="edge"><title>Node2&#45;&gt;Node3</title>
<path fill="none" stroke="midnightblue" d="M809.929,-235.444C780.403,-226.28 733.382,-211.688 700.617,-201.519"/>
<polygon fill="midnightblue" stroke="midnightblue" points="701.53,-198.138 690.942,-198.516 699.455,-204.823 701.53,-198.138"/>
</g>
<!-- Node4 -->
<g id="node4" class="node"><title>Node4</title>
<polygon fill="none" stroke="#bfbfbf" points="0,-0.5 0,-19.5 35,-19.5 35,-0.5 0,-0.5"/>
<text text-anchor="middle" x="17.5" y="-7.5" font-family="Helvetica,sans-Serif" font-size="10.00">map</text>
</g>
<!-- Node3&#45;&gt;Node4 -->
<g id="edge3" class="edge"><title>Node3&#45;&gt;Node4</title>
<path fill="none" stroke="midnightblue" d="M588.453,-180.349C454.973,-165.801 182.432,-131.58 98.5,-87 70.6558,-72.2105 45.3381,-45.3117 30.6775,-27.8041"/>
<polygon fill="midnightblue" stroke="midnightblue" points="33.0483,-25.1718 24.0254,-19.6186 27.616,-29.5865 33.0483,-25.1718"/>
</g>
<!-- Node5 -->
<g id="node5" class="node"><title>Node5</title>
<polygon fill="none" stroke="#bfbfbf" points="502.5,-62 502.5,-81 554.5,-81 554.5,-62 502.5,-62"/>
<text text-anchor="middle" x="528.5" y="-69" font-family="Helvetica,sans-Serif" font-size="10.00">memory</text>
</g>
<!-- Node3&#45;&gt;Node5 -->
<g id="edge4" class="edge"><title>Node3&#45;&gt;Node5</title>
<path fill="none" stroke="midnightblue" d="M634.191,-179.365C613.877,-172.217 587.22,-160.388 568.5,-143 552.918,-128.526 541.794,-106.573 535.294,-91.0141"/>
<polygon fill="midnightblue" stroke="midnightblue" points="538.446,-89.4655 531.535,-81.4351 531.93,-92.0226 538.446,-89.4655"/>
</g>
<!-- Node6 -->
<g id="node6" class="node"><title>Node6</title>
<polygon fill="none" stroke="#bfbfbf" points="574,-0.5 574,-19.5 615,-19.5 615,-0.5 574,-0.5"/>
<text text-anchor="middle" x="594.5" y="-7.5" font-family="Helvetica,sans-Serif" font-size="10.00">string</text>
</g>
<!-- Node3&#45;&gt;Node6 -->
<g id="edge5" class="edge"><title>Node3&#45;&gt;Node6</title>
<path fill="none" stroke="midnightblue" d="M655.944,-179.313C642.058,-162.729 612.865,-124.834 601.5,-87 595.85,-68.1909 594.396,-45.6855 594.173,-30.069"/>
<polygon fill="midnightblue" stroke="midnightblue" points="597.674,-29.6521 594.193,-19.6452 590.674,-29.6383 597.674,-29.6521"/>
</g>
<!-- Node7 -->
<g id="node7" class="node"><title>Node7</title>
<polygon fill="none" stroke="#bfbfbf" points="688,-0.5 688,-19.5 771,-19.5 771,-0.5 688,-0.5"/>
<text text-anchor="middle" x="729.5" y="-7.5" font-family="Helvetica,sans-Serif" font-size="10.00">unordered_map</text>
</g>
<!-- Node3&#45;&gt;Node7 -->
<g id="edge6" class="edge"><title>Node3&#45;&gt;Node7</title>
<path fill="none" stroke="midnightblue" d="M655.367,-179.249C644.075,-166.008 626.431,-140.565 639.5,-123 672.738,-78.327 726.262,-131.673 759.5,-87 773.056,-68.7802 757.925,-43.6262 744.685,-27.3363"/>
<polygon fill="midnightblue" stroke="midnightblue" points="747.281,-24.9882 738.095,-19.7094 741.984,-29.5646 747.281,-24.9882"/>
</g>
<!-- Node8 -->
<g id="node8" class="node"><title>Node8</title>
<polygon fill="none" stroke="#bfbfbf" points="649,-123.5 649,-142.5 774,-142.5 774,-123.5 649,-123.5"/>
<text text-anchor="middle" x="711.5" y="-130.5" font-family="Helvetica,sans-Serif" font-size="10.00">Framework/InitContext.h</text>
</g>
<!-- Node3&#45;&gt;Node8 -->
<g id="edge7" class="edge"><title>Node3&#45;&gt;Node8</title>
<path fill="none" stroke="midnightblue" d="M671.426,-179.083C678.346,-171.298 688.565,-159.801 696.952,-150.367"/>
<polygon fill="midnightblue" stroke="midnightblue" points="699.694,-152.55 703.721,-142.751 694.462,-147.9 699.694,-152.55"/>
</g>
<!-- Node9 -->
<g id="node9" class="node"><title>Node9</title>
<polygon fill="none" stroke="#bfbfbf" points="792.5,-123.5 792.5,-142.5 952.5,-142.5 952.5,-123.5 792.5,-123.5"/>
<text text-anchor="middle" x="872.5" y="-130.5" font-family="Helvetica,sans-Serif" font-size="10.00">Framework/ProcessingContext.h</text>
</g>
<!-- Node3&#45;&gt;Node9 -->
<g id="edge8" class="edge"><title>Node3&#45;&gt;Node9</title>
<path fill="none" stroke="midnightblue" d="M696.617,-179.444C732.618,-170.142 790.27,-155.246 829.686,-145.062"/>
<polygon fill="midnightblue" stroke="midnightblue" points="830.732,-148.407 839.538,-142.516 828.981,-141.629 830.732,-148.407"/>
</g>
<!-- Node10 -->
<g id="node10" class="node"><title>Node10</title>
<g id="a_node10"><a xlink:href="Activity_8h.html" target="_top" xlink:title="QualityControl/Activity.h">
<polygon fill="none" stroke="black" points="971,-123.5 971,-142.5 1094,-142.5 1094,-123.5 971,-123.5"/>
<text text-anchor="middle" x="1032.5" y="-130.5" font-family="Helvetica,sans-Serif" font-size="10.00">QualityControl/Activity.h</text>
</a>
</g>
</g>
<!-- Node3&#45;&gt;Node10 -->
<g id="edge9" class="edge"><title>Node3&#45;&gt;Node10</title>
<path fill="none" stroke="midnightblue" d="M721.969,-179.444C787.825,-169.806 894.716,-154.163 964.316,-143.978"/>
<polygon fill="midnightblue" stroke="midnightblue" points="964.917,-147.428 974.304,-142.516 963.903,-140.501 964.917,-147.428"/>
</g>
<!-- Node11 -->
<g id="node11" class="node"><title>Node11</title>
<g id="a_node11"><a xlink:href="ObjectsManager_8h.html" target="_top" xlink:title="QualityControl/ObjectsManager.h">
<polygon fill="none" stroke="black" points="355,-123.5 355,-142.5 516,-142.5 516,-123.5 355,-123.5"/>
<text text-anchor="middle" x="435.5" y="-130.5" font-family="Helvetica,sans-Serif" font-size="10.00">QualityControl/ObjectsManager.h</text>
</a>
</g>
</g>
<!-- Node3&#45;&gt;Node11 -->
<g id="edge10" class="edge"><title>Node3&#45;&gt;Node11</title>
<path fill="none" stroke="midnightblue" d="M627.373,-179.444C587.849,-170.083 524.403,-155.056 481.387,-144.868"/>
<polygon fill="midnightblue" stroke="midnightblue" points="481.996,-141.415 471.458,-142.516 480.382,-148.227 481.996,-141.415"/>
</g>
<!-- Node11&#45;&gt;Node5 -->
<g id="edge24" class="edge"><title>Node11&#45;&gt;Node5</title>
<path fill="none" stroke="midnightblue" d="M448.825,-123.475C463.88,-113.843 488.616,-98.0175 506.537,-86.5517"/>
<polygon fill="midnightblue" stroke="midnightblue" points="508.663,-89.3466 515.2,-81.0091 504.89,-83.4501 508.663,-89.3466"/>
</g>
<!-- Node11&#45;&gt;Node6 -->
<g id="edge23" class="edge"><title>Node11&#45;&gt;Node6</title>
<path fill="none" stroke="midnightblue" d="M440.145,-123.35C448.796,-107.949 468.763,-75.5594 493.5,-56 504.999,-46.9081 538.725,-32.6481 564.065,-22.6225"/>
<polygon fill="midnightblue" stroke="midnightblue" points="565.604,-25.7789 573.641,-18.8758 563.053,-19.26 565.604,-25.7789"/>
</g>
<!-- Node12 -->
<g id="node12" class="node"><title>Node12</title>
<g id="a_node12"><a xlink:href="MonitorObject_8h.html" target="_top" xlink:title="QualityControl/MonitorObject.h">
<polygon fill="none" stroke="black" points="108,-62 108,-81 259,-81 259,-62 108,-62"/>
<text text-anchor="middle" x="183.5" y="-69" font-family="Helvetica,sans-Serif" font-size="10.00">QualityControl/MonitorObject.h</text>
</a>
</g>
</g>
<!-- Node11&#45;&gt;Node12 -->
<g id="edge11" class="edge"><title>Node11&#45;&gt;Node12</title>
<path fill="none" stroke="midnightblue" d="M399.395,-123.475C354.671,-112.915 278.417,-94.911 229.533,-83.3689"/>
<polygon fill="midnightblue" stroke="midnightblue" points="230.075,-79.9007 219.538,-81.0091 228.467,-86.7134 230.075,-79.9007"/>
</g>
<!-- Node16 -->
<g id="node16" class="node"><title>Node16</title>
<g id="a_node16"><a xlink:href="MonitorObjectCollection_8h.html" target="_top" xlink:title="QualityControl/MonitorObject\lCollection.h">
<polygon fill="none" stroke="black" points="303,-56.5 303,-86.5 446,-86.5 446,-56.5 303,-56.5"/>
<text text-anchor="start" x="311" y="-74.5" font-family="Helvetica,sans-Serif" font-size="10.00">QualityControl/MonitorObject</text>
<text text-anchor="middle" x="374.5" y="-63.5" font-family="Helvetica,sans-Serif" font-size="10.00">Collection.h</text>
</a>
</g>
</g>
<!-- Node11&#45;&gt;Node16 -->
<g id="edge17" class="edge"><title>Node11&#45;&gt;Node16</title>
<path fill="none" stroke="midnightblue" d="M426.76,-123.475C418.807,-115.718 406.736,-103.943 396.198,-93.6645"/>
<polygon fill="midnightblue" stroke="midnightblue" points="398.479,-91 388.876,-86.523 393.591,-96.011 398.479,-91"/>
</g>
<!-- Node19 -->
<g id="node19" class="node"><title>Node19</title>
<g id="a_node19"><a xlink:href="TaskConfig_8h.html" target="_top" xlink:title="QualityControl/TaskConfig.h">
<polygon fill="none" stroke="black" points="610.5,-62 610.5,-81 750.5,-81 750.5,-62 610.5,-62"/>
<text text-anchor="middle" x="680.5" y="-69" font-family="Helvetica,sans-Serif" font-size="10.00">QualityControl/TaskConfig.h</text>
</a>
</g>
</g>
<!-- Node11&#45;&gt;Node19 -->
<g id="edge20" class="edge"><title>Node11&#45;&gt;Node19</title>
<path fill="none" stroke="midnightblue" d="M470.603,-123.475C513.993,-112.937 587.909,-94.9863 635.447,-83.4415"/>
<polygon fill="midnightblue" stroke="midnightblue" points="636.571,-86.7703 645.463,-81.0091 634.919,-79.968 636.571,-86.7703"/>
</g>
<!-- Node12&#45;&gt;Node4 -->
<g id="edge13" class="edge"><title>Node12&#45;&gt;Node4</title>
<path fill="none" stroke="midnightblue" d="M159.716,-61.9751C129.3,-51.0729 76.7454,-32.2355 44.7491,-20.767"/>
<polygon fill="midnightblue" stroke="midnightblue" points="45.7317,-17.4012 35.1372,-17.3218 43.3698,-23.9907 45.7317,-17.4012"/>
</g>
<!-- Node12&#45;&gt;Node6 -->
<g id="edge12" class="edge"><title>Node12&#45;&gt;Node6</title>
<path fill="none" stroke="midnightblue" d="M248.165,-61.9617C344.747,-49.2051 519.405,-26.1196 563.907,-19.331"/>
<polygon fill="midnightblue" stroke="midnightblue" points="564.678,-22.7505 573.956,-17.6346 563.513,-15.8482 564.678,-22.7505"/>
</g>
<!-- Node13 -->
<g id="node13" class="node"><title>Node13</title>
<polygon fill="none" stroke="#bfbfbf" points="53.5,-0.5 53.5,-19.5 109.5,-19.5 109.5,-0.5 53.5,-0.5"/>
<text text-anchor="middle" x="81.5" y="-7.5" font-family="Helvetica,sans-Serif" font-size="10.00">Rtypes.h</text>
</g>
<!-- Node12&#45;&gt;Node13 -->
<g id="edge14" class="edge"><title>Node12&#45;&gt;Node13</title>
<path fill="none" stroke="midnightblue" d="M168.886,-61.9751C152.147,-52.2106 124.496,-36.0807 104.781,-24.5808"/>
<polygon fill="midnightblue" stroke="midnightblue" points="106.488,-21.5246 96.087,-19.5091 102.961,-27.5711 106.488,-21.5246"/>
</g>
<!-- Node14 -->
<g id="node14" class="node"><title>Node14</title>
<polygon fill="none" stroke="#bfbfbf" points="128,-0.5 128,-19.5 187,-19.5 187,-0.5 128,-0.5"/>
<text text-anchor="middle" x="157.5" y="-7.5" font-family="Helvetica,sans-Serif" font-size="10.00">TObject.h</text>
</g>
<!-- Node12&#45;&gt;Node14 -->
<g id="edge15" class="edge"><title>Node12&#45;&gt;Node14</title>
<path fill="none" stroke="midnightblue" d="M179.775,-61.9751C176.029,-53.4035 170.14,-39.9269 165.358,-28.983"/>
<polygon fill="midnightblue" stroke="midnightblue" points="168.43,-27.271 161.218,-19.5091 162.015,-30.0739 168.43,-27.271"/>
</g>
<!-- Node15 -->
<g id="node15" class="node"><title>Node15</title>
<polygon fill="none" stroke="#bfbfbf" points="205.5,-0.5 205.5,-19.5 321.5,-19.5 321.5,-0.5 205.5,-0.5"/>
<text text-anchor="middle" x="263.5" y="-7.5" font-family="Helvetica,sans-Serif" font-size="10.00">Common/Exceptions.h</text>
</g>
<!-- Node12&#45;&gt;Node15 -->
<g id="edge16" class="edge"><title>Node12&#45;&gt;Node15</title>
<path fill="none" stroke="midnightblue" d="M194.962,-61.9751C207.675,-52.5199 228.413,-37.0961 243.753,-25.6871"/>
<polygon fill="midnightblue" stroke="midnightblue" points="246.124,-28.2854 252.059,-19.5091 241.946,-22.6686 246.124,-28.2854"/>
</g>
<!-- Node17 -->
<g id="node17" class="node"><title>Node17</title>
<polygon fill="none" stroke="#bfbfbf" points="340,-0.5 340,-19.5 409,-19.5 409,-0.5 340,-0.5"/>
<text text-anchor="middle" x="374.5" y="-7.5" font-family="Helvetica,sans-Serif" font-size="10.00">TObjArray.h</text>
</g>
<!-- Node16&#45;&gt;Node17 -->
<g id="edge18" class="edge"><title>Node16&#45;&gt;Node17</title>
<path fill="none" stroke="midnightblue" d="M374.5,-56.3993C374.5,-48.4664 374.5,-38.458 374.5,-29.8583"/>
<polygon fill="midnightblue" stroke="midnightblue" points="378,-29.6577 374.5,-19.6578 371,-29.6578 378,-29.6577"/>
</g>
<!-- Node18 -->
<g id="node18" class="node"><title>Node18</title>
<polygon fill="none" stroke="#bfbfbf" points="427.5,-0.5 427.5,-19.5 555.5,-19.5 555.5,-0.5 427.5,-0.5"/>
<text text-anchor="middle" x="491.5" y="-7.5" font-family="Helvetica,sans-Serif" font-size="10.00">Mergers/MergeInterface.h</text>
</g>
<!-- Node16&#45;&gt;Node18 -->
<g id="edge19" class="edge"><title>Node16&#45;&gt;Node18</title>
<path fill="none" stroke="midnightblue" d="M402.227,-56.3993C421.332,-46.6837 446.558,-33.8551 465.32,-24.3137"/>
<polygon fill="midnightblue" stroke="midnightblue" points="467.148,-27.3106 474.475,-19.6578 463.975,-21.071 467.148,-27.3106"/>
</g>
<!-- Node19&#45;&gt;Node6 -->
<g id="edge21" class="edge"><title>Node19&#45;&gt;Node6</title>
<path fill="none" stroke="midnightblue" d="M668.178,-61.9751C654.384,-52.4315 631.801,-36.8073 615.268,-25.3683"/>
<polygon fill="midnightblue" stroke="midnightblue" points="617.014,-22.3205 606.799,-19.5091 613.031,-28.077 617.014,-22.3205"/>
</g>
<!-- Node19&#45;&gt;Node7 -->
<g id="edge22" class="edge"><title>Node19&#45;&gt;Node7</title>
<path fill="none" stroke="midnightblue" d="M687.521,-61.9751C694.943,-52.9617 706.833,-38.5246 716.067,-27.3118"/>
<polygon fill="midnightblue" stroke="midnightblue" points="718.837,-29.4534 722.493,-19.5091 713.434,-25.0034 718.837,-29.4534"/>
</g>
<!-- Node20&#45;&gt;Node3 -->
<g id="edge28" class="edge"><title>Node20&#45;&gt;Node3</title>
<path fill="none" stroke="midnightblue" d="M1012.74,-235.444C938.373,-225.767 817.474,-210.035 739.224,-199.853"/>
<polygon fill="midnightblue" stroke="midnightblue" points="739.318,-196.336 728.95,-198.516 738.415,-203.278 739.318,-196.336"/>
</g>
<!-- Node20&#45;&gt;Node5 -->
<g id="edge26" class="edge"><title>Node20&#45;&gt;Node5</title>
<path fill="none" stroke="midnightblue" d="M1084.65,-235.339C1099.41,-213.416 1133.46,-155.187 1103.5,-123 1065.4,-82.0681 656.921,-94.4618 601.5,-87 589.417,-85.3731 576.323,-82.9756 564.606,-80.5965"/>
<polygon fill="midnightblue" stroke="midnightblue" points="565.228,-77.1509 554.723,-78.5304 563.795,-84.0028 565.228,-77.1509"/>
</g>
<!-- Node20&#45;&gt;Node19 -->
<g id="edge27" class="edge"><title>Node20&#45;&gt;Node19</title>
<path fill="none" stroke="midnightblue" d="M1096.89,-235.471C1110.6,-227.997 1128.31,-215.71 1136.5,-199 1151.36,-168.666 1159.03,-148.165 1136.5,-123 1111.95,-95.5841 885.211,-81.4338 760.993,-75.6837"/>
<polygon fill="midnightblue" stroke="midnightblue" points="760.915,-72.1767 750.767,-75.2186 760.597,-79.1694 760.915,-72.1767"/>
</g>
</g>
</svg>
