<?xml version="1.0" encoding="UTF-8" standalone="no"?>
<!DOCTYPE svg PUBLIC "-//W3C//DTD SVG 1.1//EN"
 "http://www.w3.org/Graphics/SVG/1.1/DTD/svg11.dtd">
<!-- Generated by graphviz version 2.38.0 (20140413.2041)
 -->
<!-- Title: Framework/test/testCheckWorkflow.cxx Pages: 1 -->
<!--zoomable 352 -->
<svg id="main" version="1.1" xmlns="http://www.w3.org/2000/svg" xmlns:xlink="http://www.w3.org/1999/xlink" xml:space="preserve" onload="init(evt)">
<style type="text/css"><![CDATA[
.edge:hover path { stroke: red; }
.edge:hover polygon { stroke: red; fill: red; }
]]></style>
<script type="text/javascript"><![CDATA[
var edges = document.getElementsByTagName('g');
if (edges && edges.length) {
  for (var i=0;i<edges.length;i++) {
    if (edges[i].id.substr(0,4)=='edge') {
      edges[i].setAttribute('class','edge');
    }
  }
}
]]></script>
        <defs>
                <circle id="rim" cx="0" cy="0" r="7"/>
                <circle id="rim2" cx="0" cy="0" r="3.5"/>
                <g id="zoomPlus">
                        <use xlink:href="#rim" fill="#404040">
                                <set attributeName="fill" to="#808080" begin="zoomplus.mouseover" end="zoomplus.mouseout"/>
                        </use>
                        <path d="M-4,0h8M0,-4v8" fill="none" stroke="white" stroke-width="1.5" pointer-events="none"/>
                </g>
                <g id="zoomMin">
                        <use xlink:href="#rim" fill="#404040">
                                <set attributeName="fill" to="#808080" begin="zoomminus.mouseover" end="zoomminus.mouseout"/>
                        </use>
                        <path d="M-4,0h8" fill="none" stroke="white" stroke-width="1.5" pointer-events="none"/>
                </g>
                <g id="dirArrow">
                        <path fill="none" stroke="white" stroke-width="1.5" d="M0,-3.0v7 M-2.5,-0.5L0,-3.0L2.5,-0.5"/>
                </g>
               <g id="resetDef">
                       <use xlink:href="#rim2" fill="#404040">
                               <set attributeName="fill" to="#808080" begin="reset.mouseover" end="reset.mouseout"/>
                       </use>
               </g>
        </defs>

<script type="text/javascript">
var viewWidth = 2305;
var viewHeight = 352;
var sectionId = 'dynsection-0';
</script>
<script xlink:href="svgpan.js"/>
<svg id="graph" class="graph">
<g id="viewport">
<title>Framework/test/testCheckWorkflow.cxx</title>
<!-- Node1 -->
<g id="node1" class="node"><title>Node1</title>
<polygon fill="#bfbfbf" stroke="black" points="546.5,-313.5 546.5,-343.5 679.5,-343.5 679.5,-313.5 546.5,-313.5"/>
<text text-anchor="start" x="554.5" y="-331.5" font-family="Helvetica,sans-Serif" font-size="10.00">Framework/test/testCheck</text>
<text text-anchor="middle" x="613" y="-320.5" font-family="Helvetica,sans-Serif" font-size="10.00">Workflow.cxx</text>
</g>
<!-- Node2 -->
<g id="node2" class="node"><title>Node2</title>
<polygon fill="none" stroke="#bfbfbf" points="0,-252 0,-271 138,-271 138,-252 0,-252"/>
<text text-anchor="middle" x="69" y="-259" font-family="Helvetica,sans-Serif" font-size="10.00">Framework/DataSampling.h</text>
</g>
<!-- Node1&#45;&gt;Node2 -->
<g id="edge1" class="edge"><title>Node1&#45;&gt;Node2</title>
<path fill="none" stroke="midnightblue" d="M546.433,-321.886C455.821,-313.881 288.701,-297.818 147,-277 138.862,-275.804 130.276,-274.378 121.894,-272.892"/>
<polygon fill="midnightblue" stroke="midnightblue" points="122.279,-269.405 111.815,-271.064 121.03,-276.293 122.279,-269.405"/>
</g>
<!-- Node3 -->
<g id="node3" class="node"><title>Node3</title>
<polygon fill="none" stroke="#bfbfbf" points="156.5,-246.5 156.5,-276.5 301.5,-276.5 301.5,-246.5 156.5,-246.5"/>
<text text-anchor="start" x="164.5" y="-264.5" font-family="Helvetica,sans-Serif" font-size="10.00">Framework/CompletionPolicy</text>
<text text-anchor="middle" x="229" y="-253.5" font-family="Helvetica,sans-Serif" font-size="10.00">Helpers.h</text>
</g>
<!-- Node1&#45;&gt;Node3 -->
<g id="edge2" class="edge"><title>Node1&#45;&gt;Node3</title>
<path fill="none" stroke="midnightblue" d="M546.394,-316.546C487.453,-306.81 398.817,-292.067 311.91,-277.148"/>
<polygon fill="midnightblue" stroke="midnightblue" points="312.32,-273.667 301.871,-275.422 311.134,-280.566 312.32,-273.667"/>
</g>
<!-- Node4 -->
<g id="node4" class="node"><title>Node4</title>
<polygon fill="none" stroke="#bfbfbf" points="320,-252 320,-271 450,-271 450,-252 320,-252"/>
<text text-anchor="middle" x="385" y="-259" font-family="Helvetica,sans-Serif" font-size="10.00">Framework/DeviceSpec.h</text>
</g>
<!-- Node1&#45;&gt;Node4 -->
<g id="edge3" class="edge"><title>Node1&#45;&gt;Node4</title>
<path fill="none" stroke="midnightblue" d="M563.808,-313.476C522.229,-301.622 463.426,-284.858 424.77,-273.838"/>
<polygon fill="midnightblue" stroke="midnightblue" points="425.492,-270.404 414.916,-271.029 423.573,-277.136 425.492,-270.404"/>
</g>
<!-- Node5 -->
<g id="node5" class="node"><title>Node5</title>
<g id="a_node5"><a xlink:href="InfrastructureGenerator_8h.html" target="_top" xlink:title="QualityControl/Infrastructure\lGenerator.h">
<polygon fill="none" stroke="black" points="451,-179.5 451,-209.5 591,-209.5 591,-179.5 451,-179.5"/>
<text text-anchor="start" x="459" y="-197.5" font-family="Helvetica,sans-Serif" font-size="10.00">QualityControl/Infrastructure</text>
<text text-anchor="middle" x="521" y="-186.5" font-family="Helvetica,sans-Serif" font-size="10.00">Generator.h</text>
</a>
</g>
</g>
<!-- Node1&#45;&gt;Node5 -->
<g id="edge4" class="edge"><title>Node1&#45;&gt;Node5</title>
<path fill="none" stroke="midnightblue" d="M603.154,-313.374C587.245,-290.548 555.75,-245.359 536.713,-218.045"/>
<polygon fill="midnightblue" stroke="midnightblue" points="539.364,-215.727 530.775,-209.525 533.621,-219.73 539.364,-215.727"/>
</g>
<!-- Node10 -->
<g id="node10" class="node"><title>Node10</title>
<polygon fill="none" stroke="#bfbfbf" points="1198.5,-252 1198.5,-271 1317.5,-271 1317.5,-252 1198.5,-252"/>
<text text-anchor="middle" x="1258" y="-259" font-family="Helvetica,sans-Serif" font-size="10.00">getTestDataDirectory.h</text>
</g>
<!-- Node1&#45;&gt;Node10 -->
<g id="edge9" class="edge"><title>Node1&#45;&gt;Node10</title>
<path fill="none" stroke="midnightblue" d="M679.824,-324.243C787.482,-318.413 1005.8,-304.181 1189,-277 1196.24,-275.926 1203.87,-274.562 1211.3,-273.102"/>
<polygon fill="midnightblue" stroke="midnightblue" points="1212.16,-276.498 1221.26,-271.071 1210.77,-269.639 1212.16,-276.498"/>
</g>
<!-- Node11 -->
<g id="node11" class="node"><title>Node11</title>
<g id="a_node11"><a xlink:href="CheckRunner_8h.html" target="_top" xlink:title="QualityControl/CheckRunner.h">
<polygon fill="none" stroke="black" points="1030,-252 1030,-271 1180,-271 1180,-252 1030,-252"/>
<text text-anchor="middle" x="1105" y="-259" font-family="Helvetica,sans-Serif" font-size="10.00">QualityControl/CheckRunner.h</text>
</a>
</g>
</g>
<!-- Node1&#45;&gt;Node11 -->
<g id="edge10" class="edge"><title>Node1&#45;&gt;Node11</title>
<path fill="none" stroke="midnightblue" d="M679.609,-318.7C771.046,-306.62 934.944,-284.967 1030.4,-272.356"/>
<polygon fill="midnightblue" stroke="midnightblue" points="1031.1,-275.794 1040.55,-271.014 1030.18,-268.854 1031.1,-275.794"/>
</g>
<!-- Node28 -->
<g id="node28" class="node"><title>Node28</title>
<g id="a_node28"><a xlink:href="QualityObject_8h_source.html" target="_top" xlink:title="QualityControl/QualityObject.h">
<polygon fill="none" stroke="black" points="1135.5,-123.5 1135.5,-142.5 1284.5,-142.5 1284.5,-123.5 1135.5,-123.5"/>
<text text-anchor="middle" x="1210" y="-130.5" font-family="Helvetica,sans-Serif" font-size="10.00">QualityControl/QualityObject.h</text>
</a>
</g>
</g>
<!-- Node1&#45;&gt;Node28 -->
<g id="edge66" class="edge"><title>Node1&#45;&gt;Node28</title>
<path fill="none" stroke="midnightblue" d="M617.839,-313.373C629.158,-282.749 660.529,-210.474 714,-179 748.519,-158.682 992.928,-144.201 1125.3,-137.752"/>
<polygon fill="midnightblue" stroke="midnightblue" points="1125.59,-141.242 1135.41,-137.264 1125.25,-134.25 1125.59,-141.242"/>
</g>
<!-- Node35 -->
<g id="node35" class="node"><title>Node35</title>
<g id="a_node35"><a xlink:href="runnerUtils_8h.html" target="_top" xlink:title="QualityControl/runnerUtils.h">
<polygon fill="none" stroke="black" points="529.5,-67.5 529.5,-86.5 666.5,-86.5 666.5,-67.5 529.5,-67.5"/>
<text text-anchor="middle" x="598" y="-74.5" font-family="Helvetica,sans-Serif" font-size="10.00">QualityControl/runnerUtils.h</text>
</a>
</g>
</g>
<!-- Node1&#45;&gt;Node35 -->
<g id="edge67" class="edge"><title>Node1&#45;&gt;Node35</title>
<path fill="none" stroke="midnightblue" d="M574.031,-313.452C532.713,-296.205 469.676,-262.597 442,-210 423.995,-175.781 418.754,-153.899 442,-123 453.434,-107.802 496.158,-96.1231 534.009,-88.4759"/>
<polygon fill="midnightblue" stroke="midnightblue" points="534.87,-91.8741 544.014,-86.5228 533.528,-85.0038 534.87,-91.8741"/>
</g>
<!-- Node37 -->
<g id="node37" class="node"><title>Node37</title>
<polygon fill="none" stroke="#bfbfbf" points="1336,-252 1336,-271 1496,-271 1496,-252 1336,-252"/>
<text text-anchor="middle" x="1416" y="-259" font-family="Helvetica,sans-Serif" font-size="10.00">Framework/runDataProcessing.h</text>
</g>
<!-- Node1&#45;&gt;Node37 -->
<g id="edge71" class="edge"><title>Node1&#45;&gt;Node37</title>
<path fill="none" stroke="midnightblue" d="M679.535,-324.768C805.86,-319.141 1089.01,-304.428 1326,-277 1336.37,-275.8 1347.36,-274.257 1357.97,-272.626"/>
<polygon fill="midnightblue" stroke="midnightblue" points="1358.67,-276.06 1368,-271.045 1357.58,-269.146 1358.67,-276.06"/>
</g>
<!-- Node38 -->
<g id="node38" class="node"><title>Node38</title>
<polygon fill="none" stroke="#bfbfbf" points="1514.5,-252 1514.5,-271 1655.5,-271 1655.5,-252 1514.5,-252"/>
<text text-anchor="middle" x="1585" y="-259" font-family="Helvetica,sans-Serif" font-size="10.00">Framework/ControlService.h</text>
</g>
<!-- Node1&#45;&gt;Node38 -->
<g id="edge72" class="edge"><title>Node1&#45;&gt;Node38</title>
<path fill="none" stroke="midnightblue" d="M679.543,-326.521C828.108,-323.726 1197.9,-313.385 1505,-277 1514.16,-275.915 1523.86,-274.438 1533.22,-272.841"/>
<polygon fill="midnightblue" stroke="midnightblue" points="1533.97,-276.263 1543.21,-271.074 1532.75,-269.37 1533.97,-276.263"/>
</g>
<!-- Node6 -->
<g id="node6" class="node"><title>Node6</title>
<polygon fill="none" stroke="#bfbfbf" points="961,-123.5 961,-142.5 1005,-142.5 1005,-123.5 961,-123.5"/>
<text text-anchor="middle" x="983" y="-130.5" font-family="Helvetica,sans-Serif" font-size="10.00">vector</text>
</g>
<!-- Node5&#45;&gt;Node6 -->
<g id="edge5" class="edge"><title>Node5&#45;&gt;Node6</title>
<path fill="none" stroke="midnightblue" d="M591.168,-184.463C692.699,-171.387 876.524,-147.713 950.686,-138.162"/>
<polygon fill="midnightblue" stroke="midnightblue" points="951.338,-141.607 960.809,-136.858 950.444,-134.664 951.338,-141.607"/>
</g>
<!-- Node7 -->
<g id="node7" class="node"><title>Node7</title>
<polygon fill="none" stroke="#bfbfbf" points="1547.5,-6 1547.5,-25 1588.5,-25 1588.5,-6 1547.5,-6"/>
<text text-anchor="middle" x="1568" y="-13" font-family="Helvetica,sans-Serif" font-size="10.00">string</text>
</g>
<!-- Node5&#45;&gt;Node7 -->
<g id="edge6" class="edge"><title>Node5&#45;&gt;Node7</title>
<path fill="none" stroke="midnightblue" d="M552.752,-179.371C590.447,-163.196 655.574,-137.121 714,-123 795.653,-103.265 1392.9,-36.0145 1536.85,-19.9615"/>
<polygon fill="midnightblue" stroke="midnightblue" points="1537.61,-23.3987 1547.16,-18.8129 1536.83,-16.4417 1537.61,-23.3987"/>
</g>
<!-- Node8 -->
<g id="node8" class="node"><title>Node8</title>
<polygon fill="none" stroke="#bfbfbf" points="451,-123.5 451,-142.5 591,-142.5 591,-123.5 451,-123.5"/>
<text text-anchor="middle" x="521" y="-130.5" font-family="Helvetica,sans-Serif" font-size="10.00">Framework/WorkflowSpec.h</text>
</g>
<!-- Node5&#45;&gt;Node8 -->
<g id="edge7" class="edge"><title>Node5&#45;&gt;Node8</title>
<path fill="none" stroke="midnightblue" d="M521,-179.399C521,-171.466 521,-161.458 521,-152.858"/>
<polygon fill="midnightblue" stroke="midnightblue" points="524.5,-152.658 521,-142.658 517.5,-152.658 524.5,-152.658"/>
</g>
<!-- Node9 -->
<g id="node9" class="node"><title>Node9</title>
<polygon fill="none" stroke="#bfbfbf" points="723,-123.5 723,-142.5 887,-142.5 887,-123.5 723,-123.5"/>
<text text-anchor="middle" x="805" y="-130.5" font-family="Helvetica,sans-Serif" font-size="10.00">Framework/DataProcessorSpec.h</text>
</g>
<!-- Node5&#45;&gt;Node9 -->
<g id="edge8" class="edge"><title>Node5&#45;&gt;Node9</title>
<path fill="none" stroke="midnightblue" d="M587.944,-179.475C638.973,-168.784 708.148,-154.291 754.564,-144.567"/>
<polygon fill="midnightblue" stroke="midnightblue" points="755.328,-147.983 764.398,-142.506 753.893,-141.131 755.328,-147.983"/>
</g>
<!-- Node11&#45;&gt;Node6 -->
<g id="edge15" class="edge"><title>Node11&#45;&gt;Node6</title>
<path fill="none" stroke="midnightblue" d="M1029.7,-256.055C921.957,-248.917 734.478,-233.293 714,-210 704.903,-199.652 705.098,-189.515 714,-179 721.639,-169.977 881.125,-147.638 950.848,-138.257"/>
<polygon fill="midnightblue" stroke="midnightblue" points="951.396,-141.715 960.843,-136.918 950.467,-134.776 951.396,-141.715"/>
</g>
<!-- Node11&#45;&gt;Node7 -->
<g id="edge13" class="edge"><title>Node11&#45;&gt;Node7</title>
<path fill="none" stroke="midnightblue" d="M1148.89,-251.925C1161.77,-249.68 1175.91,-247.477 1189,-246 1380.04,-224.438 1936.81,-299.84 2048,-143 2102.56,-66.0399 1712.72,-28.1929 1598.7,-18.8473"/>
<polygon fill="midnightblue" stroke="midnightblue" points="1598.8,-15.3441 1588.55,-18.0315 1598.24,-22.3216 1598.8,-15.3441"/>
</g>
<!-- Node11&#45;&gt;Node9 -->
<g id="edge21" class="edge"><title>Node11&#45;&gt;Node9</title>
<path fill="none" stroke="midnightblue" d="M1029.6,-256.311C919.42,-249.409 725.147,-233.977 704,-210 694.887,-199.667 696.498,-190.556 704,-179 714.407,-162.97 731.996,-152.602 749.607,-145.916"/>
<polygon fill="midnightblue" stroke="midnightblue" points="751.028,-149.129 759.347,-142.569 748.752,-142.509 751.028,-149.129"/>
</g>
<!-- Node12 -->
<g id="node12" class="node"><title>Node12</title>
<polygon fill="none" stroke="#bfbfbf" points="723,-185 723,-204 769,-204 769,-185 723,-185"/>
<text text-anchor="middle" x="746" y="-192" font-family="Helvetica,sans-Serif" font-size="10.00">chrono</text>
</g>
<!-- Node11&#45;&gt;Node12 -->
<g id="edge11" class="edge"><title>Node11&#45;&gt;Node12</title>
<path fill="none" stroke="midnightblue" d="M1029.7,-254.731C962.586,-248.217 862.236,-235.076 778,-210 776.071,-209.426 774.107,-208.759 772.15,-208.032"/>
<polygon fill="midnightblue" stroke="midnightblue" points="773.187,-204.672 762.61,-204.059 770.496,-211.134 773.187,-204.672"/>
</g>
<!-- Node13 -->
<g id="node13" class="node"><title>Node13</title>
<polygon fill="none" stroke="#bfbfbf" points="1454,-123.5 1454,-142.5 1506,-142.5 1506,-123.5 1454,-123.5"/>
<text text-anchor="middle" x="1480" y="-130.5" font-family="Helvetica,sans-Serif" font-size="10.00">memory</text>
</g>
<!-- Node11&#45;&gt;Node13 -->
<g id="edge12" class="edge"><title>Node11&#45;&gt;Node13</title>
<path fill="none" stroke="midnightblue" d="M1150.23,-251.935C1162.75,-249.77 1176.37,-247.607 1189,-246 1237.33,-239.85 1592.99,-245.837 1626,-210 1635.33,-199.866 1634.18,-190.085 1626,-179 1612.88,-161.223 1554.99,-147.525 1516.17,-140.126"/>
<polygon fill="midnightblue" stroke="midnightblue" points="1516.74,-136.671 1506.27,-138.295 1515.46,-143.554 1516.74,-136.671"/>
</g>
<!-- Node14 -->
<g id="node14" class="node"><title>Node14</title>
<polygon fill="none" stroke="#bfbfbf" points="1957.5,-6 1957.5,-25 1992.5,-25 1992.5,-6 1957.5,-6"/>
<text text-anchor="middle" x="1975" y="-13" font-family="Helvetica,sans-Serif" font-size="10.00">map</text>
</g>
<!-- Node11&#45;&gt;Node14 -->
<g id="edge14" class="edge"><title>Node11&#45;&gt;Node14</title>
<path fill="none" stroke="midnightblue" d="M1148.01,-251.938C1161.12,-249.636 1175.61,-247.399 1189,-246 1402.87,-223.661 1947.59,-262.982 2156,-210 2220.92,-193.497 2255.7,-199.927 2291,-143 2301.69,-125.76 2296.51,-82.3072 2281,-67 2241.98,-28.4855 2071.37,-19.2899 2003.25,-17.1398"/>
<polygon fill="midnightblue" stroke="midnightblue" points="2002.96,-13.6302 1992.86,-16.8424 2002.76,-20.6273 2002.96,-13.6302"/>
</g>
<!-- Node15 -->
<g id="node15" class="node"><title>Node15</title>
<polygon fill="none" stroke="#bfbfbf" points="787,-185 787,-204 865,-204 865,-185 787,-185"/>
<text text-anchor="middle" x="826" y="-192" font-family="Helvetica,sans-Serif" font-size="10.00">unordered_set</text>
</g>
<!-- Node11&#45;&gt;Node15 -->
<g id="edge16" class="edge"><title>Node11&#45;&gt;Node15</title>
<path fill="none" stroke="midnightblue" d="M1060.9,-251.927C1014.24,-242.606 938.563,-226.782 874,-210 870.33,-209.046 866.519,-207.997 862.721,-206.912"/>
<polygon fill="midnightblue" stroke="midnightblue" points="863.387,-203.46 852.806,-204.001 861.414,-210.177 863.387,-203.46"/>
</g>
<!-- Node16 -->
<g id="node16" class="node"><title>Node16</title>
<polygon fill="none" stroke="#bfbfbf" points="883,-185 883,-204 975,-204 975,-185 883,-185"/>
<text text-anchor="middle" x="929" y="-192" font-family="Helvetica,sans-Serif" font-size="10.00">Common/Timer.h</text>
</g>
<!-- Node11&#45;&gt;Node16 -->
<g id="edge17" class="edge"><title>Node11&#45;&gt;Node16</title>
<path fill="none" stroke="midnightblue" d="M1081.63,-251.869C1050.91,-240.522 996.759,-220.525 961.904,-207.652"/>
<polygon fill="midnightblue" stroke="midnightblue" points="962.781,-204.245 952.188,-204.064 960.356,-210.811 962.781,-204.245"/>
</g>
<!-- Node17 -->
<g id="node17" class="node"><title>Node17</title>
<polygon fill="none" stroke="#bfbfbf" points="993,-185 993,-204 1091,-204 1091,-185 993,-185"/>
<text text-anchor="middle" x="1042" y="-192" font-family="Helvetica,sans-Serif" font-size="10.00">Framework/Task.h</text>
</g>
<!-- Node11&#45;&gt;Node17 -->
<g id="edge18" class="edge"><title>Node11&#45;&gt;Node17</title>
<path fill="none" stroke="midnightblue" d="M1096.5,-251.734C1086.49,-241.403 1069.66,-224.037 1057.34,-211.332"/>
<polygon fill="midnightblue" stroke="midnightblue" points="1059.83,-208.872 1050.36,-204.127 1054.81,-213.744 1059.83,-208.872"/>
</g>
<!-- Node18 -->
<g id="node18" class="node"><title>Node18</title>
<polygon fill="none" stroke="#bfbfbf" points="1109.5,-185 1109.5,-204 1226.5,-204 1226.5,-185 1109.5,-185"/>
<text text-anchor="middle" x="1168" y="-192" font-family="Helvetica,sans-Serif" font-size="10.00">Headers/DataHeader.h</text>
</g>
<!-- Node11&#45;&gt;Node18 -->
<g id="edge19" class="edge"><title>Node11&#45;&gt;Node18</title>
<path fill="none" stroke="midnightblue" d="M1113.5,-251.734C1123.51,-241.403 1140.34,-224.037 1152.66,-211.332"/>
<polygon fill="midnightblue" stroke="midnightblue" points="1155.19,-213.744 1159.64,-204.127 1150.17,-208.872 1155.19,-213.744"/>
</g>
<!-- Node19 -->
<g id="node19" class="node"><title>Node19</title>
<polygon fill="none" stroke="#bfbfbf" points="1244.5,-185 1244.5,-204 1395.5,-204 1395.5,-185 1244.5,-185"/>
<text text-anchor="middle" x="1320" y="-192" font-family="Helvetica,sans-Serif" font-size="10.00">Monitoring/MonitoringFactory.h</text>
</g>
<!-- Node11&#45;&gt;Node19 -->
<g id="edge20" class="edge"><title>Node11&#45;&gt;Node19</title>
<path fill="none" stroke="midnightblue" d="M1133.55,-251.869C1171.73,-240.327 1239.51,-219.835 1281.98,-206.996"/>
<polygon fill="midnightblue" stroke="midnightblue" points="1283.11,-210.308 1291.67,-204.064 1281.09,-203.607 1283.11,-210.308"/>
</g>
<!-- Node20 -->
<g id="node20" class="node"><title>Node20</title>
<g id="a_node20"><a xlink:href="CheckInterface_8h.html" target="_top" xlink:title="QualityControl/CheckInterface.h">
<polygon fill="none" stroke="black" points="1881.5,-123.5 1881.5,-142.5 2038.5,-142.5 2038.5,-123.5 1881.5,-123.5"/>
<text text-anchor="middle" x="1960" y="-130.5" font-family="Helvetica,sans-Serif" font-size="10.00">QualityControl/CheckInterface.h</text>
</a>
</g>
</g>
<!-- Node11&#45;&gt;Node20 -->
<g id="edge22" class="edge"><title>Node11&#45;&gt;Node20</title>
<path fill="none" stroke="midnightblue" d="M1148.9,-251.961C1161.78,-249.717 1175.92,-247.506 1189,-246 1462.33,-214.55 1541.09,-280.627 1807,-210 1856.96,-196.73 1909.81,-166.3 1938.46,-148.227"/>
<polygon fill="midnightblue" stroke="midnightblue" points="1940.68,-150.961 1947.21,-142.615 1936.9,-145.069 1940.68,-150.961"/>
</g>
<!-- Node23 -->
<g id="node23" class="node"><title>Node23</title>
<g id="a_node23"><a xlink:href="MonitorObject_8h.html" target="_top" xlink:title="QualityControl/MonitorObject.h">
<polygon fill="none" stroke="black" points="1440.5,-67.5 1440.5,-86.5 1591.5,-86.5 1591.5,-67.5 1440.5,-67.5"/>
<text text-anchor="middle" x="1516" y="-74.5" font-family="Helvetica,sans-Serif" font-size="10.00">QualityControl/MonitorObject.h</text>
</a>
</g>
</g>
<!-- Node11&#45;&gt;Node23 -->
<g id="edge48" class="edge"><title>Node11&#45;&gt;Node23</title>
<path fill="none" stroke="midnightblue" d="M1150.23,-251.991C1162.76,-249.826 1176.38,-247.649 1189,-246 1233.69,-240.162 1562.58,-243.251 1593,-210 1602.3,-199.834 1601.51,-189.833 1593,-179 1551.17,-125.775 1486.83,-196.225 1445,-143 1429,-122.638 1458.39,-103.109 1484.08,-90.8664"/>
<polygon fill="midnightblue" stroke="midnightblue" points="1485.62,-94.011 1493.28,-86.6975 1482.73,-87.6343 1485.62,-94.011"/>
</g>
<!-- Node27 -->
<g id="node27" class="node"><title>Node27</title>
<g id="a_node27"><a xlink:href="DatabaseInterface_8h.html" target="_top" xlink:title="QualityControl/DatabaseInterface.h">
<polygon fill="none" stroke="black" points="1414,-185 1414,-204 1584,-204 1584,-185 1414,-185"/>
<text text-anchor="middle" x="1499" y="-192" font-family="Helvetica,sans-Serif" font-size="10.00">QualityControl/DatabaseInterface.h</text>
</a>
</g>
</g>
<!-- Node11&#45;&gt;Node27 -->
<g id="edge36" class="edge"><title>Node11&#45;&gt;Node27</title>
<path fill="none" stroke="midnightblue" d="M1153.85,-251.988C1165.37,-250.002 1177.62,-247.91 1189,-246 1274.33,-231.686 1372.97,-215.716 1435.64,-205.642"/>
<polygon fill="midnightblue" stroke="midnightblue" points="1436.45,-209.057 1445.77,-204.015 1435.34,-202.146 1436.45,-209.057"/>
</g>
<!-- Node30 -->
<g id="node30" class="node"><title>Node30</title>
<g id="a_node30"><a xlink:href="QcInfoLogger_8h.html" target="_top" xlink:title="QualityControl/QcInfoLogger.h">
<polygon fill="none" stroke="black" points="2132.5,-123.5 2132.5,-142.5 2281.5,-142.5 2281.5,-123.5 2132.5,-123.5"/>
<text text-anchor="middle" x="2207" y="-130.5" font-family="Helvetica,sans-Serif" font-size="10.00">QualityControl/QcInfoLogger.h</text>
</a>
</g>
</g>
<!-- Node11&#45;&gt;Node30 -->
<g id="edge49" class="edge"><title>Node11&#45;&gt;Node30</title>
<path fill="none" stroke="midnightblue" d="M1148.01,-251.95C1161.12,-249.648 1175.61,-247.409 1189,-246 1291.84,-235.181 2022.8,-247.927 2119,-210 2150.31,-197.657 2178.16,-169.157 2193.78,-150.78"/>
<polygon fill="midnightblue" stroke="midnightblue" points="2196.78,-152.636 2200.43,-142.687 2191.38,-148.194 2196.78,-152.636"/>
</g>
<!-- Node32 -->
<g id="node32" class="node"><title>Node32</title>
<g id="a_node32"><a xlink:href="Check_8h_source.html" target="_top" xlink:title="QualityControl/Check.h">
<polygon fill="none" stroke="black" points="1678.5,-185 1678.5,-204 1797.5,-204 1797.5,-185 1678.5,-185"/>
<text text-anchor="middle" x="1738" y="-192" font-family="Helvetica,sans-Serif" font-size="10.00">QualityControl/Check.h</text>
</a>
</g>
</g>
<!-- Node11&#45;&gt;Node32 -->
<g id="edge51" class="edge"><title>Node11&#45;&gt;Node32</title>
<path fill="none" stroke="midnightblue" d="M1149.78,-251.956C1162.43,-249.765 1176.22,-247.583 1189,-246 1399.11,-219.964 1454.2,-238.405 1664,-210 1672.12,-208.901 1680.69,-207.473 1689,-205.943"/>
<polygon fill="midnightblue" stroke="midnightblue" points="1689.8,-209.353 1698.97,-204.041 1688.49,-202.477 1689.8,-209.353"/>
</g>
<!-- Node20&#45;&gt;Node7 -->
<g id="edge23" class="edge"><title>Node20&#45;&gt;Node7</title>
<path fill="none" stroke="midnightblue" d="M1952.14,-123.132C1938.84,-108.759 1910.37,-80.6148 1880,-67 1784.04,-23.9861 1656.9,-17.0726 1599.04,-16.3148"/>
<polygon fill="midnightblue" stroke="midnightblue" points="1598.77,-12.8128 1588.75,-16.237 1598.72,-19.8126 1598.77,-12.8128"/>
</g>
<!-- Node20&#45;&gt;Node14 -->
<g id="edge24" class="edge"><title>Node20&#45;&gt;Node14</title>
<path fill="none" stroke="midnightblue" d="M1961.13,-123.319C1963.54,-104.757 1969.24,-60.8391 1972.54,-35.4734"/>
<polygon fill="midnightblue" stroke="midnightblue" points="1976.04,-35.6495 1973.86,-25.282 1969.1,-34.7479 1976.04,-35.6495"/>
</g>
<!-- Node21 -->
<g id="node21" class="node"><title>Node21</title>
<polygon fill="none" stroke="#bfbfbf" points="1648.5,-67.5 1648.5,-86.5 1731.5,-86.5 1731.5,-67.5 1648.5,-67.5"/>
<text text-anchor="middle" x="1690" y="-74.5" font-family="Helvetica,sans-Serif" font-size="10.00">unordered_map</text>
</g>
<!-- Node20&#45;&gt;Node21 -->
<g id="edge25" class="edge"><title>Node20&#45;&gt;Node21</title>
<path fill="none" stroke="midnightblue" d="M1917.22,-123.444C1869.54,-113.908 1792.47,-98.4946 1741.52,-88.3042"/>
<polygon fill="midnightblue" stroke="midnightblue" points="1742.19,-84.8682 1731.69,-86.339 1740.81,-91.7323 1742.19,-84.8682"/>
</g>
<!-- Node22 -->
<g id="node22" class="node"><title>Node22</title>
<polygon fill="none" stroke="#bfbfbf" points="1782,-6 1782,-25 1838,-25 1838,-6 1782,-6"/>
<text text-anchor="middle" x="1810" y="-13" font-family="Helvetica,sans-Serif" font-size="10.00">Rtypes.h</text>
</g>
<!-- Node20&#45;&gt;Node22 -->
<g id="edge26" class="edge"><title>Node20&#45;&gt;Node22</title>
<path fill="none" stroke="midnightblue" d="M1955.59,-123.386C1948.3,-109.868 1932.59,-83.5129 1913,-67 1893.02,-50.1587 1866.46,-37.3142 1845.32,-28.794"/>
<polygon fill="midnightblue" stroke="midnightblue" points="1846.31,-25.4273 1835.72,-25.0727 1843.78,-31.9532 1846.31,-25.4273"/>
</g>
<!-- Node20&#45;&gt;Node23 -->
<g id="edge27" class="edge"><title>Node20&#45;&gt;Node23</title>
<path fill="none" stroke="midnightblue" d="M1889.65,-123.444C1809.76,-113.727 1679.68,-97.9066 1595.99,-87.7289"/>
<polygon fill="midnightblue" stroke="midnightblue" points="1596.37,-84.2494 1586.02,-86.5164 1595.53,-91.1982 1596.37,-84.2494"/>
</g>
<!-- Node26 -->
<g id="node26" class="node"><title>Node26</title>
<g id="a_node26"><a xlink:href="Quality_8h.html" target="_top" xlink:title="QualityControl/Quality.h">
<polygon fill="none" stroke="black" points="1749.5,-67.5 1749.5,-86.5 1870.5,-86.5 1870.5,-67.5 1749.5,-67.5"/>
<text text-anchor="middle" x="1810" y="-74.5" font-family="Helvetica,sans-Serif" font-size="10.00">QualityControl/Quality.h</text>
</a>
</g>
</g>
<!-- Node20&#45;&gt;Node26 -->
<g id="edge33" class="edge"><title>Node20&#45;&gt;Node26</title>
<path fill="none" stroke="midnightblue" d="M1936.23,-123.444C1911.11,-114.399 1871.29,-100.064 1843.1,-89.9158"/>
<polygon fill="midnightblue" stroke="midnightblue" points="1844.25,-86.6106 1833.66,-86.5164 1841.88,-93.1968 1844.25,-86.6106"/>
</g>
<!-- Node23&#45;&gt;Node7 -->
<g id="edge28" class="edge"><title>Node23&#45;&gt;Node7</title>
<path fill="none" stroke="midnightblue" d="M1523.45,-67.4751C1531.33,-58.4617 1543.94,-44.0246 1553.74,-32.8118"/>
<polygon fill="midnightblue" stroke="midnightblue" points="1556.62,-34.842 1560.56,-25.0091 1551.35,-30.2356 1556.62,-34.842"/>
</g>
<!-- Node23&#45;&gt;Node14 -->
<g id="edge29" class="edge"><title>Node23&#45;&gt;Node14</title>
<path fill="none" stroke="midnightblue" d="M1581.76,-67.4751C1683.86,-54.2407 1876.15,-29.3134 1947.47,-20.0686"/>
<polygon fill="midnightblue" stroke="midnightblue" points="1948,-23.5291 1957.47,-18.7725 1947.1,-16.5872 1948,-23.5291"/>
</g>
<!-- Node23&#45;&gt;Node22 -->
<g id="edge30" class="edge"><title>Node23&#45;&gt;Node22</title>
<path fill="none" stroke="midnightblue" d="M1558.12,-67.4751C1615.25,-55.9132 1716.48,-35.4269 1771.61,-24.2695"/>
<polygon fill="midnightblue" stroke="midnightblue" points="1772.56,-27.6475 1781.67,-22.2334 1771.17,-20.7866 1772.56,-27.6475"/>
</g>
<!-- Node24 -->
<g id="node24" class="node"><title>Node24</title>
<polygon fill="none" stroke="#bfbfbf" points="1362.5,-6 1362.5,-25 1421.5,-25 1421.5,-6 1362.5,-6"/>
<text text-anchor="middle" x="1392" y="-13" font-family="Helvetica,sans-Serif" font-size="10.00">TObject.h</text>
</g>
<!-- Node23&#45;&gt;Node24 -->
<g id="edge31" class="edge"><title>Node23&#45;&gt;Node24</title>
<path fill="none" stroke="midnightblue" d="M1498.23,-67.4751C1477.52,-57.5338 1443.05,-40.9947 1419.01,-29.461"/>
<polygon fill="midnightblue" stroke="midnightblue" points="1420.26,-26.1797 1409.73,-25.0091 1417.23,-32.4908 1420.26,-26.1797"/>
</g>
<!-- Node25 -->
<g id="node25" class="node"><title>Node25</title>
<polygon fill="none" stroke="#bfbfbf" points="1068,-6 1068,-25 1184,-25 1184,-6 1068,-6"/>
<text text-anchor="middle" x="1126" y="-13" font-family="Helvetica,sans-Serif" font-size="10.00">Common/Exceptions.h</text>
</g>
<!-- Node23&#45;&gt;Node25 -->
<g id="edge32" class="edge"><title>Node23&#45;&gt;Node25</title>
<path fill="none" stroke="midnightblue" d="M1460.12,-67.4751C1389.31,-56.6723 1267.44,-38.0784 1192.09,-26.5825"/>
<polygon fill="midnightblue" stroke="midnightblue" points="1192.19,-23.0574 1181.77,-25.0091 1191.13,-29.9773 1192.19,-23.0574"/>
</g>
<!-- Node26&#45;&gt;Node7 -->
<g id="edge35" class="edge"><title>Node26&#45;&gt;Node7</title>
<path fill="none" stroke="midnightblue" d="M1775.33,-67.4751C1727.92,-55.8189 1643.62,-35.0922 1598.5,-23.9985"/>
<polygon fill="midnightblue" stroke="midnightblue" points="1599.25,-20.5791 1588.7,-21.5902 1597.58,-27.3766 1599.25,-20.5791"/>
</g>
<!-- Node26&#45;&gt;Node22 -->
<g id="edge34" class="edge"><title>Node26&#45;&gt;Node22</title>
<path fill="none" stroke="midnightblue" d="M1810,-67.4751C1810,-59.0803 1810,-45.9806 1810,-35.1631"/>
<polygon fill="midnightblue" stroke="midnightblue" points="1813.5,-35.0091 1810,-25.0091 1806.5,-35.0091 1813.5,-35.0091"/>
</g>
<!-- Node27&#45;&gt;Node6 -->
<g id="edge39" class="edge"><title>Node27&#45;&gt;Node6</title>
<path fill="none" stroke="midnightblue" d="M1445.8,-184.949C1432.19,-182.88 1417.57,-180.76 1404,-179 1259.43,-160.251 1086.2,-143.545 1015.47,-136.969"/>
<polygon fill="midnightblue" stroke="midnightblue" points="1015.69,-133.474 1005.41,-136.037 1015.04,-140.444 1015.69,-133.474"/>
</g>
<!-- Node27&#45;&gt;Node7 -->
<g id="edge37" class="edge"><title>Node27&#45;&gt;Node7</title>
<path fill="none" stroke="midnightblue" d="M1437.11,-184.927C1394.73,-175.861 1348.88,-157.828 1365,-123 1396,-56.0425 1488.57,-30.2105 1537.27,-21.0549"/>
<polygon fill="midnightblue" stroke="midnightblue" points="1538,-24.4805 1547.24,-19.2992 1536.78,-17.5866 1538,-24.4805"/>
</g>
<!-- Node27&#45;&gt;Node13 -->
<g id="edge38" class="edge"><title>Node27&#45;&gt;Node13</title>
<path fill="none" stroke="midnightblue" d="M1496.28,-184.975C1493.57,-176.492 1489.33,-163.204 1485.85,-152.322"/>
<polygon fill="midnightblue" stroke="midnightblue" points="1489.09,-150.97 1482.72,-142.509 1482.43,-153.1 1489.09,-150.97"/>
</g>
<!-- Node27&#45;&gt;Node21 -->
<g id="edge40" class="edge"><title>Node27&#45;&gt;Node21</title>
<path fill="none" stroke="midnightblue" d="M1483.93,-184.86C1462.3,-171.389 1426.94,-144.678 1445,-123 1457.28,-108.264 1570.18,-92.3429 1638.36,-83.9547"/>
<polygon fill="midnightblue" stroke="midnightblue" points="1638.98,-87.405 1648.49,-82.7237 1638.14,-80.4561 1638.98,-87.405"/>
</g>
<!-- Node27&#45;&gt;Node23 -->
<g id="edge47" class="edge"><title>Node27&#45;&gt;Node23</title>
<path fill="none" stroke="midnightblue" d="M1450.34,-184.951C1405.85,-174.906 1350.3,-155.366 1374,-123 1387.51,-104.551 1408.62,-93.4773 1430.48,-86.8858"/>
<polygon fill="midnightblue" stroke="midnightblue" points="1431.48,-90.2422 1440.21,-84.2446 1429.64,-83.4866 1431.48,-90.2422"/>
</g>
<!-- Node27&#45;&gt;Node28 -->
<g id="edge41" class="edge"><title>Node27&#45;&gt;Node28</title>
<path fill="none" stroke="midnightblue" d="M1457.59,-184.975C1405.87,-174.327 1317.39,-156.109 1261.39,-144.581"/>
<polygon fill="midnightblue" stroke="midnightblue" points="1261.83,-141.098 1251.33,-142.509 1260.42,-147.954 1261.83,-141.098"/>
</g>
<!-- Node28&#45;&gt;Node14 -->
<g id="edge43" class="edge"><title>Node28&#45;&gt;Node14</title>
<path fill="none" stroke="midnightblue" d="M1233.49,-123.397C1273.46,-109.146 1357.51,-80.8441 1431,-67 1613.37,-32.6466 1662.34,-49.4462 1847,-31 1881.47,-27.5572 1921.08,-22.973 1946.99,-19.8886"/>
<polygon fill="midnightblue" stroke="midnightblue" points="1947.69,-23.3298 1957.21,-18.6662 1946.86,-16.3794 1947.69,-23.3298"/>
</g>
<!-- Node28&#45;&gt;Node24 -->
<g id="edge44" class="edge"><title>Node28&#45;&gt;Node24</title>
<path fill="none" stroke="midnightblue" d="M1201.09,-123.227C1188.69,-109.956 1169.24,-84.4752 1183,-67 1203.66,-40.7529 1297.58,-26.5234 1352.23,-20.3363"/>
<polygon fill="midnightblue" stroke="midnightblue" points="1352.71,-23.8041 1362.27,-19.2392 1351.95,-16.8454 1352.71,-23.8041"/>
</g>
<!-- Node28&#45;&gt;Node25 -->
<g id="edge45" class="edge"><title>Node28&#45;&gt;Node25</title>
<path fill="none" stroke="midnightblue" d="M1193.56,-123.374C1180.1,-115.541 1161.47,-102.808 1150,-87 1138.75,-71.4893 1132.48,-50.3066 1129.2,-35.2192"/>
<polygon fill="midnightblue" stroke="midnightblue" points="1132.57,-34.2195 1127.23,-25.0648 1125.69,-35.5472 1132.57,-34.2195"/>
</g>
<!-- Node28&#45;&gt;Node26 -->
<g id="edge46" class="edge"><title>Node28&#45;&gt;Node26</title>
<path fill="none" stroke="midnightblue" d="M1284.85,-126.727C1385.74,-119.381 1571.22,-105.034 1739.41,-87.1309"/>
<polygon fill="midnightblue" stroke="midnightblue" points="1739.87,-90.6018 1749.44,-86.0568 1739.12,-83.6416 1739.87,-90.6018"/>
</g>
<!-- Node29 -->
<g id="node29" class="node"><title>Node29</title>
<polygon fill="none" stroke="#bfbfbf" points="1192,-67.5 1192,-86.5 1246,-86.5 1246,-67.5 1192,-67.5"/>
<text text-anchor="middle" x="1219" y="-74.5" font-family="Helvetica,sans-Serif" font-size="10.00">iostream</text>
</g>
<!-- Node28&#45;&gt;Node29 -->
<g id="edge42" class="edge"><title>Node28&#45;&gt;Node29</title>
<path fill="none" stroke="midnightblue" d="M1211.49,-123.083C1212.68,-115.927 1214.39,-105.635 1215.88,-96.6911"/>
<polygon fill="midnightblue" stroke="midnightblue" points="1219.35,-97.1904 1217.54,-86.7511 1212.45,-96.0396 1219.35,-97.1904"/>
</g>
<!-- Node31 -->
<g id="node31" class="node"><title>Node31</title>
<polygon fill="none" stroke="#bfbfbf" points="2142,-67.5 2142,-86.5 2272,-86.5 2272,-67.5 2142,-67.5"/>
<text text-anchor="middle" x="2207" y="-74.5" font-family="Helvetica,sans-Serif" font-size="10.00">InfoLogger/InfoLogger.hxx</text>
</g>
<!-- Node30&#45;&gt;Node31 -->
<g id="edge50" class="edge"><title>Node30&#45;&gt;Node31</title>
<path fill="none" stroke="midnightblue" d="M2207,-123.083C2207,-116.006 2207,-105.861 2207,-96.9865"/>
<polygon fill="midnightblue" stroke="midnightblue" points="2210.5,-96.751 2207,-86.7511 2203.5,-96.7511 2210.5,-96.751"/>
</g>
<!-- Node32&#45;&gt;Node6 -->
<g id="edge54" class="edge"><title>Node32&#45;&gt;Node6</title>
<path fill="none" stroke="midnightblue" d="M1678.42,-187.189C1652.23,-184.507 1621.1,-181.441 1593,-179 1372.4,-159.836 1106.45,-142.035 1015.4,-136.092"/>
<polygon fill="midnightblue" stroke="midnightblue" points="1015.38,-132.583 1005.17,-135.426 1014.93,-139.569 1015.38,-132.583"/>
</g>
<!-- Node32&#45;&gt;Node9 -->
<g id="edge57" class="edge"><title>Node32&#45;&gt;Node9</title>
<path fill="none" stroke="midnightblue" d="M1678.44,-186.954C1652.25,-184.228 1621.12,-181.195 1593,-179 1308.53,-156.799 1236.85,-159.719 952,-143 934.232,-141.957 915.259,-140.816 897.048,-139.707"/>
<polygon fill="midnightblue" stroke="midnightblue" points="897.217,-136.211 887.023,-139.095 896.791,-143.198 897.217,-136.211"/>
</g>
<!-- Node32&#45;&gt;Node13 -->
<g id="edge55" class="edge"><title>Node32&#45;&gt;Node13</title>
<path fill="none" stroke="midnightblue" d="M1701.03,-184.975C1651.73,-173.605 1565.01,-153.605 1516.13,-142.333"/>
<polygon fill="midnightblue" stroke="midnightblue" points="1516.84,-138.904 1506.31,-140.067 1515.26,-145.725 1516.84,-138.904"/>
</g>
<!-- Node32&#45;&gt;Node14 -->
<g id="edge53" class="edge"><title>Node32&#45;&gt;Node14</title>
<path fill="none" stroke="midnightblue" d="M1797.7,-192.6C1878.58,-189.973 2016.52,-180.024 2048,-143 2078.63,-106.979 2025.91,-56.3176 1995.01,-31.4548"/>
<polygon fill="midnightblue" stroke="midnightblue" points="1996.99,-28.5635 1986.96,-25.1599 1992.68,-34.0775 1996.99,-28.5635"/>
</g>
<!-- Node32&#45;&gt;Node20 -->
<g id="edge61" class="edge"><title>Node32&#45;&gt;Node20</title>
<path fill="none" stroke="midnightblue" d="M1769.81,-184.975C1808.88,-174.504 1875.26,-156.712 1918.36,-145.16"/>
<polygon fill="midnightblue" stroke="midnightblue" points="1919.5,-148.479 1928.25,-142.509 1917.69,-141.717 1919.5,-148.479"/>
</g>
<!-- Node32&#45;&gt;Node21 -->
<g id="edge56" class="edge"><title>Node32&#45;&gt;Node21</title>
<path fill="none" stroke="midnightblue" d="M1754.46,-184.839C1776.67,-171.98 1811.75,-146.79 1796,-123 1788.11,-111.084 1755.98,-98.4451 1729.15,-89.6056"/>
<polygon fill="midnightblue" stroke="midnightblue" points="1730.14,-86.2498 1719.55,-86.5292 1728.01,-92.9155 1730.14,-86.2498"/>
</g>
<!-- Node32&#45;&gt;Node23 -->
<g id="edge60" class="edge"><title>Node32&#45;&gt;Node23</title>
<path fill="none" stroke="midnightblue" d="M1701.27,-184.992C1651.03,-173.121 1565.76,-152.028 1554,-143 1538.48,-131.085 1528.12,-110.884 1522.19,-96.1585"/>
<polygon fill="midnightblue" stroke="midnightblue" points="1525.4,-94.7591 1518.64,-86.6007 1518.84,-97.1937 1525.4,-94.7591"/>
</g>
<!-- Node32&#45;&gt;Node26 -->
<g id="edge58" class="edge"><title>Node32&#45;&gt;Node26</title>
<path fill="none" stroke="midnightblue" d="M1760.36,-184.906C1777.67,-176.923 1800.41,-163.201 1811,-143 1818.45,-128.787 1817.32,-110.31 1814.83,-96.691"/>
<polygon fill="midnightblue" stroke="midnightblue" points="1818.18,-95.5969 1812.59,-86.5933 1811.34,-97.1142 1818.18,-95.5969"/>
</g>
<!-- Node32&#45;&gt;Node28 -->
<g id="edge59" class="edge"><title>Node32&#45;&gt;Node28</title>
<path fill="none" stroke="midnightblue" d="M1678.46,-186.79C1584.66,-176.22 1402.15,-155.653 1294.71,-143.546"/>
<polygon fill="midnightblue" stroke="midnightblue" points="1294.89,-140.044 1284.56,-142.402 1294.1,-147 1294.89,-140.044"/>
</g>
<!-- Node32&#45;&gt;Node30 -->
<g id="edge62" class="edge"><title>Node32&#45;&gt;Node30</title>
<path fill="none" stroke="midnightblue" d="M1797.88,-185.904C1882.37,-175.184 2036.66,-155.61 2129.71,-143.805"/>
<polygon fill="midnightblue" stroke="midnightblue" points="2130.43,-147.242 2139.91,-142.511 2129.55,-140.297 2130.43,-147.242"/>
</g>
<!-- Node33 -->
<g id="node33" class="node"><title>Node33</title>
<polygon fill="none" stroke="#bfbfbf" points="1727.5,-123.5 1727.5,-142.5 1786.5,-142.5 1786.5,-123.5 1727.5,-123.5"/>
<text text-anchor="middle" x="1757" y="-130.5" font-family="Helvetica,sans-Serif" font-size="10.00">functional</text>
</g>
<!-- Node32&#45;&gt;Node33 -->
<g id="edge52" class="edge"><title>Node32&#45;&gt;Node33</title>
<path fill="none" stroke="midnightblue" d="M1740.72,-184.975C1743.43,-176.492 1747.67,-163.204 1751.15,-152.322"/>
<polygon fill="midnightblue" stroke="midnightblue" points="1754.57,-153.1 1754.28,-142.509 1747.91,-150.97 1754.57,-153.1"/>
</g>
<!-- Node34 -->
<g id="node34" class="node"><title>Node34</title>
<g id="a_node34"><a xlink:href="CheckConfig_8h.html" target="_top" xlink:title="QualityControl/CheckConfig.h">
<polygon fill="none" stroke="black" points="1562.5,-123.5 1562.5,-142.5 1709.5,-142.5 1709.5,-123.5 1562.5,-123.5"/>
<text text-anchor="middle" x="1636" y="-130.5" font-family="Helvetica,sans-Serif" font-size="10.00">QualityControl/CheckConfig.h</text>
</a>
</g>
</g>
<!-- Node32&#45;&gt;Node34 -->
<g id="edge63" class="edge"><title>Node32&#45;&gt;Node34</title>
<path fill="none" stroke="midnightblue" d="M1723.39,-184.975C1706.65,-175.211 1679,-159.081 1659.28,-147.581"/>
<polygon fill="midnightblue" stroke="midnightblue" points="1660.99,-144.525 1650.59,-142.509 1657.46,-150.571 1660.99,-144.525"/>
</g>
<!-- Node34&#45;&gt;Node7 -->
<g id="edge64" class="edge"><title>Node34&#45;&gt;Node7</title>
<path fill="none" stroke="midnightblue" d="M1631.69,-123.458C1625.3,-110.909 1612.79,-86.8302 1601,-67 1594.27,-55.6751 1586.18,-43.2861 1579.7,-33.6133"/>
<polygon fill="midnightblue" stroke="midnightblue" points="1582.58,-31.6168 1574.07,-25.2951 1576.78,-35.539 1582.58,-31.6168"/>
</g>
<!-- Node34&#45;&gt;Node21 -->
<g id="edge65" class="edge"><title>Node34&#45;&gt;Node21</title>
<path fill="none" stroke="midnightblue" d="M1644.92,-123.083C1652.78,-115.22 1664.43,-103.569 1673.92,-94.0813"/>
<polygon fill="midnightblue" stroke="midnightblue" points="1676.65,-96.2971 1681.25,-86.7511 1671.7,-91.3473 1676.65,-96.2971"/>
</g>
<!-- Node35&#45;&gt;Node7 -->
<g id="edge68" class="edge"><title>Node35&#45;&gt;Node7</title>
<path fill="none" stroke="midnightblue" d="M666.813,-68.217C671.611,-67.7732 676.376,-67.3615 681,-67 1013.26,-41.0246 1097.7,-56.4233 1430,-31 1467.06,-28.1646 1509.58,-23.48 1537.51,-20.2051"/>
<polygon fill="midnightblue" stroke="midnightblue" points="1537.94,-23.6786 1547.46,-19.0258 1537.12,-16.7273 1537.94,-23.6786"/>
</g>
<!-- Node35&#45;&gt;Node25 -->
<g id="edge70" class="edge"><title>Node35&#45;&gt;Node25</title>
<path fill="none" stroke="midnightblue" d="M666.756,-68.2519C768.144,-56.8265 956.639,-35.5852 1057.74,-24.192"/>
<polygon fill="midnightblue" stroke="midnightblue" points="1058.3,-27.6517 1067.84,-23.0538 1057.51,-20.6957 1058.3,-27.6517"/>
</g>
<!-- Node36 -->
<g id="node36" class="node"><title>Node36</title>
<polygon fill="none" stroke="#bfbfbf" points="530.5,-0.5 530.5,-30.5 665.5,-30.5 665.5,-0.5 530.5,-0.5"/>
<text text-anchor="start" x="538.5" y="-18.5" font-family="Helvetica,sans-Serif" font-size="10.00">Configuration/Configuration</text>
<text text-anchor="middle" x="598" y="-7.5" font-family="Helvetica,sans-Serif" font-size="10.00">Factory.h</text>
</g>
<!-- Node35&#45;&gt;Node36 -->
<g id="edge69" class="edge"><title>Node35&#45;&gt;Node36</title>
<path fill="none" stroke="midnightblue" d="M598,-67.4751C598,-60.471 598,-50.1919 598,-40.6956"/>
<polygon fill="midnightblue" stroke="midnightblue" points="601.5,-40.5229 598,-30.523 594.5,-40.523 601.5,-40.5229"/>
</g>
</g>
</svg>
        <g id="navigator" transform="translate(0 0)" fill="#404254">
                <rect fill="#f2f5e9" fill-opacity="0.5" stroke="#606060" stroke-width=".5" x="0" y="0" width="60" height="60"/>
                <use id="zoomplus" xlink:href="#zoomPlus" x="17" y="9" onmousedown="handleZoom(evt,'in')"/>
                <use id="zoomminus" xlink:href="#zoomMin" x="42" y="9" onmousedown="handleZoom(evt,'out')"/>
                <use id="reset" xlink:href="#resetDef" x="30" y="36" onmousedown="handleReset()"/>
                <g id="arrowUp" xlink:href="#dirArrow" transform="translate(30 24)" onmousedown="handlePan(0,-1)">
                  <use xlink:href="#rim" fill="#404040">
                        <set attributeName="fill" to="#808080" begin="arrowUp.mouseover" end="arrowUp.mouseout"/>
                  </use>
                  <path fill="none" stroke="white" stroke-width="1.5" d="M0,-3.0v7 M-2.5,-0.5L0,-3.0L2.5,-0.5"/>
                </g>
                <g id="arrowRight" xlink:href="#dirArrow" transform="rotate(90) translate(36 -43)" onmousedown="handlePan(1,0)">
                  <use xlink:href="#rim" fill="#404040">
                        <set attributeName="fill" to="#808080" begin="arrowRight.mouseover" end="arrowRight.mouseout"/>
                  </use>
                  <path fill="none" stroke="white" stroke-width="1.5" d="M0,-3.0v7 M-2.5,-0.5L0,-3.0L2.5,-0.5"/>
                </g>
                <g id="arrowDown" xlink:href="#dirArrow" transform="rotate(180) translate(-30 -48)" onmousedown="handlePan(0,1)">
                  <use xlink:href="#rim" fill="#404040">
                        <set attributeName="fill" to="#808080" begin="arrowDown.mouseover" end="arrowDown.mouseout"/>
                  </use>
                  <path fill="none" stroke="white" stroke-width="1.5" d="M0,-3.0v7 M-2.5,-0.5L0,-3.0L2.5,-0.5"/>
                </g>
                <g id="arrowLeft" xlink:href="#dirArrow" transform="rotate(270) translate(-36 17)" onmousedown="handlePan(-1,0)">
                  <use xlink:href="#rim" fill="#404040">
                        <set attributeName="fill" to="#808080" begin="arrowLeft.mouseover" end="arrowLeft.mouseout"/>
                  </use>
                  <path fill="none" stroke="white" stroke-width="1.5" d="M0,-3.0v7 M-2.5,-0.5L0,-3.0L2.5,-0.5"/>
                </g>
        </g>
        <svg viewBox="0 0 15 15" width="100%" height="30px" preserveAspectRatio="xMaxYMin meet">
         <g id="arrow_out" transform="scale(0.3 0.3)">
          <a xlink:href="testCheckWorkflow_8cxx__incl_org.svg" target="_base">
           <rect id="button" ry="5" rx="5" y="6" x="6" height="38" width="38"
                fill="#f2f5e9" fill-opacity="0.5" stroke="#606060" stroke-width="1.0"/>
           <path id="arrow"
             d="M 11.500037,31.436501 C 11.940474,20.09759 22.043105,11.32322 32.158766,21.979434 L 37.068811,17.246167 C 37.068811,17.246167 37.088388,32 37.088388,32 L 22.160133,31.978069 C 22.160133,31.978069 26.997745,27.140456 26.997745,27.140456 C 18.528582,18.264221 13.291696,25.230495 11.500037,31.436501 z"
             style="fill:#404040;"/>
          </a>
         </g>
        </svg>
</svg>
