<?xml version="1.0" encoding="UTF-8" standalone="no"?>
<!DOCTYPE svg PUBLIC "-//W3C//DTD SVG 1.1//EN"
 "http://www.w3.org/Graphics/SVG/1.1/DTD/svg11.dtd">
<!-- Generated by graphviz version 2.38.0 (20140413.2041)
 -->
<!-- Title: Framework/test/testTriggerHelpers.cxx Pages: 1 -->
<svg width="300pt" height="207pt"
 viewBox="0.00 0.00 299.50 207.00" xmlns="http://www.w3.org/2000/svg" xmlns:xlink="http://www.w3.org/1999/xlink">
<g id="graph0" class="graph" transform="scale(1 1) rotate(0) translate(4 203)">
<title>Framework/test/testTriggerHelpers.cxx</title>
<!-- Node1 -->
<g id="node1" class="node"><title>Node1</title>
<polygon fill="#bfbfbf" stroke="black" points="87,-168.5 87,-198.5 221,-198.5 221,-168.5 87,-168.5"/>
<text text-anchor="start" x="95" y="-186.5" font-family="Helvetica,sans-Serif" font-size="10.00">Framework/test/testTrigger</text>
<text text-anchor="middle" x="154" y="-175.5" font-family="Helvetica,sans-Serif" font-size="10.00">Helpers.cxx</text>
</g>
<!-- Node2 -->
<g id="node2" class="node"><title>Node2</title>
<g id="a_node2"><a xlink:href="TriggerHelpers_8h.html" target="_top" xlink:title="QualityControl/TriggerHelpers.h">
<polygon fill="none" stroke="black" points="0,-112.5 0,-131.5 154,-131.5 154,-112.5 0,-112.5"/>
<text text-anchor="middle" x="77" y="-119.5" font-family="Helvetica,sans-Serif" font-size="10.00">QualityControl/TriggerHelpers.h</text>
</a>
</g>
</g>
<!-- Node1&#45;&gt;Node2 -->
<g id="edge1" class="edge"><title>Node1&#45;&gt;Node2</title>
<path fill="none" stroke="midnightblue" d="M135.752,-168.399C123.871,-159.218 108.393,-147.258 96.3059,-137.918"/>
<polygon fill="midnightblue" stroke="midnightblue" points="98.2571,-135.003 88.2042,-131.658 93.977,-140.542 98.2571,-135.003"/>
</g>
<!-- Node6 -->
<g id="node6" class="node"><title>Node6</title>
<polygon fill="none" stroke="#bfbfbf" points="172.5,-112.5 172.5,-131.5 291.5,-131.5 291.5,-112.5 172.5,-112.5"/>
<text text-anchor="middle" x="232" y="-119.5" font-family="Helvetica,sans-Serif" font-size="10.00">boost/test/unit_test.hpp</text>
</g>
<!-- Node1&#45;&gt;Node6 -->
<g id="edge5" class="edge"><title>Node1&#45;&gt;Node6</title>
<path fill="none" stroke="midnightblue" d="M172.485,-168.399C184.52,-159.218 200.2,-147.258 212.443,-137.918"/>
<polygon fill="midnightblue" stroke="midnightblue" points="214.822,-140.506 220.65,-131.658 210.577,-134.94 214.822,-140.506"/>
</g>
<!-- Node3 -->
<g id="node3" class="node"><title>Node3</title>
<g id="a_node3"><a xlink:href="Triggers_8h.html" target="_top" xlink:title="QualityControl/Triggers.h">
<polygon fill="none" stroke="black" points="14.5,-56.5 14.5,-75.5 139.5,-75.5 139.5,-56.5 14.5,-56.5"/>
<text text-anchor="middle" x="77" y="-63.5" font-family="Helvetica,sans-Serif" font-size="10.00">QualityControl/Triggers.h</text>
</a>
</g>
</g>
<!-- Node2&#45;&gt;Node3 -->
<g id="edge2" class="edge"><title>Node2&#45;&gt;Node3</title>
<path fill="none" stroke="midnightblue" d="M77,-112.083C77,-105.006 77,-94.8611 77,-85.9865"/>
<polygon fill="midnightblue" stroke="midnightblue" points="80.5001,-85.751 77,-75.7511 73.5001,-85.7511 80.5001,-85.751"/>
</g>
<!-- Node4 -->
<g id="node4" class="node"><title>Node4</title>
<polygon fill="none" stroke="#bfbfbf" points="22.5,-0.5 22.5,-19.5 63.5,-19.5 63.5,-0.5 22.5,-0.5"/>
<text text-anchor="middle" x="43" y="-7.5" font-family="Helvetica,sans-Serif" font-size="10.00">string</text>
</g>
<!-- Node3&#45;&gt;Node4 -->
<g id="edge3" class="edge"><title>Node3&#45;&gt;Node4</title>
<path fill="none" stroke="midnightblue" d="M71.3856,-56.083C66.6326,-48.5341 59.6819,-37.4948 53.8484,-28.2298"/>
<polygon fill="midnightblue" stroke="midnightblue" points="56.7999,-26.3486 48.5099,-19.7511 50.8763,-30.0783 56.7999,-26.3486"/>
</g>
<!-- Node5 -->
<g id="node5" class="node"><title>Node5</title>
<polygon fill="none" stroke="#bfbfbf" points="81.5,-0.5 81.5,-19.5 140.5,-19.5 140.5,-0.5 81.5,-0.5"/>
<text text-anchor="middle" x="111" y="-7.5" font-family="Helvetica,sans-Serif" font-size="10.00">functional</text>
</g>
<!-- Node3&#45;&gt;Node5 -->
<g id="edge4" class="edge"><title>Node3&#45;&gt;Node5</title>
<path fill="none" stroke="midnightblue" d="M82.6144,-56.083C87.3674,-48.5341 94.3181,-37.4948 100.152,-28.2298"/>
<polygon fill="midnightblue" stroke="midnightblue" points="103.124,-30.0783 105.49,-19.7511 97.2001,-26.3486 103.124,-30.0783"/>
</g>
</g>
</svg>
