<?xml version="1.0" encoding="UTF-8" standalone="no"?>
<!DOCTYPE svg PUBLIC "-//W3C//DTD SVG 1.1//EN"
 "http://www.w3.org/Graphics/SVG/1.1/DTD/svg11.dtd">
<!-- Generated by graphviz version 2.38.0 (20140413.2041)
 -->
<!-- Title: Framework/test/testCcdbDatabase.cxx Pages: 1 -->
<svg width="1153pt" height="308pt"
 viewBox="0.00 0.00 1153.00 308.00" xmlns="http://www.w3.org/2000/svg" xmlns:xlink="http://www.w3.org/1999/xlink">
<g id="graph0" class="graph" transform="scale(1 1) rotate(0) translate(4 304)">
<title>Framework/test/testCcdbDatabase.cxx</title>
<!-- Node1 -->
<g id="node1" class="node"><title>Node1</title>
<polygon fill="#bfbfbf" stroke="black" points="630,-280.5 630,-299.5 818,-299.5 818,-280.5 630,-280.5"/>
<text text-anchor="middle" x="724" y="-287.5" font-family="Helvetica,sans-Serif" font-size="10.00">Framework/test/testCcdbDatabase.cxx</text>
</g>
<!-- Node2 -->
<g id="node2" class="node"><title>Node2</title>
<g id="a_node2"><a xlink:href="DatabaseFactory_8h.html" target="_top" xlink:title="QualityControl/DatabaseFactory.h">
<polygon fill="none" stroke="black" points="255.5,-224.5 255.5,-243.5 420.5,-243.5 420.5,-224.5 255.5,-224.5"/>
<text text-anchor="middle" x="338" y="-231.5" font-family="Helvetica,sans-Serif" font-size="10.00">QualityControl/DatabaseFactory.h</text>
</a>
</g>
</g>
<!-- Node1&#45;&gt;Node2 -->
<g id="edge1" class="edge"><title>Node1&#45;&gt;Node2</title>
<path fill="none" stroke="midnightblue" d="M662.837,-280.444C593.806,-270.786 481.673,-255.099 408.879,-244.916"/>
<polygon fill="midnightblue" stroke="midnightblue" points="409.265,-241.436 398.877,-243.516 408.295,-248.368 409.265,-241.436"/>
</g>
<!-- Node7 -->
<g id="node7" class="node"><title>Node7</title>
<polygon fill="none" stroke="#bfbfbf" points="590.5,-112.5 590.5,-131.5 673.5,-131.5 673.5,-112.5 590.5,-112.5"/>
<text text-anchor="middle" x="632" y="-119.5" font-family="Helvetica,sans-Serif" font-size="10.00">unordered_map</text>
</g>
<!-- Node1&#45;&gt;Node7 -->
<g id="edge22" class="edge"><title>Node1&#45;&gt;Node7</title>
<path fill="none" stroke="midnightblue" d="M693.13,-280.495C674.78,-273.736 652.84,-262.305 641,-244 620.861,-212.863 624.163,-167.332 628.191,-141.927"/>
<polygon fill="midnightblue" stroke="midnightblue" points="631.688,-142.256 630.011,-131.794 624.798,-141.018 631.688,-142.256"/>
</g>
<!-- Node16 -->
<g id="node16" class="node"><title>Node16</title>
<g id="a_node16"><a xlink:href="CcdbDatabase_8h.html" target="_top" xlink:title="QualityControl/CcdbDatabase.h">
<polygon fill="none" stroke="black" points="438.5,-224.5 438.5,-243.5 593.5,-243.5 593.5,-224.5 438.5,-224.5"/>
<text text-anchor="middle" x="516" y="-231.5" font-family="Helvetica,sans-Serif" font-size="10.00">QualityControl/CcdbDatabase.h</text>
</a>
</g>
</g>
<!-- Node1&#45;&gt;Node16 -->
<g id="edge23" class="edge"><title>Node1&#45;&gt;Node16</title>
<path fill="none" stroke="midnightblue" d="M691.042,-280.444C655.213,-271.142 597.837,-256.246 558.609,-246.062"/>
<polygon fill="midnightblue" stroke="midnightblue" points="559.363,-242.642 548.804,-243.516 557.604,-249.417 559.363,-242.642"/>
</g>
<!-- Node18 -->
<g id="node18" class="node"><title>Node18</title>
<g id="a_node18"><a xlink:href="QcInfoLogger_8h.html" target="_top" xlink:title="QualityControl/QcInfoLogger.h">
<polygon fill="none" stroke="black" points="649.5,-224.5 649.5,-243.5 798.5,-243.5 798.5,-224.5 649.5,-224.5"/>
<text text-anchor="middle" x="724" y="-231.5" font-family="Helvetica,sans-Serif" font-size="10.00">QualityControl/QcInfoLogger.h</text>
</a>
</g>
</g>
<!-- Node1&#45;&gt;Node18 -->
<g id="edge26" class="edge"><title>Node1&#45;&gt;Node18</title>
<path fill="none" stroke="midnightblue" d="M724,-280.083C724,-273.006 724,-262.861 724,-253.986"/>
<polygon fill="midnightblue" stroke="midnightblue" points="727.5,-253.751 724,-243.751 720.5,-253.751 727.5,-253.751"/>
</g>
<!-- Node20 -->
<g id="node20" class="node"><title>Node20</title>
<polygon fill="none" stroke="#bfbfbf" points="816.5,-224.5 816.5,-243.5 939.5,-243.5 939.5,-224.5 816.5,-224.5"/>
<text text-anchor="middle" x="878" y="-231.5" font-family="Helvetica,sans-Serif" font-size="10.00">QualityControl/Version.h</text>
</g>
<!-- Node1&#45;&gt;Node20 -->
<g id="edge28" class="edge"><title>Node1&#45;&gt;Node20</title>
<path fill="none" stroke="midnightblue" d="M748.402,-280.444C774.197,-271.399 815.077,-257.064 844.018,-246.916"/>
<polygon fill="midnightblue" stroke="midnightblue" points="845.434,-250.128 853.712,-243.516 843.118,-243.523 845.434,-250.128"/>
</g>
<!-- Node21 -->
<g id="node21" class="node"><title>Node21</title>
<polygon fill="none" stroke="#bfbfbf" points="957.5,-224.5 957.5,-243.5 1076.5,-243.5 1076.5,-224.5 957.5,-224.5"/>
<text text-anchor="middle" x="1017" y="-231.5" font-family="Helvetica,sans-Serif" font-size="10.00">boost/test/unit_test.hpp</text>
</g>
<!-- Node1&#45;&gt;Node21 -->
<g id="edge29" class="edge"><title>Node1&#45;&gt;Node21</title>
<path fill="none" stroke="midnightblue" d="M770.427,-280.444C822.076,-270.925 905.512,-255.547 960.807,-245.356"/>
<polygon fill="midnightblue" stroke="midnightblue" points="961.591,-248.771 970.79,-243.516 960.322,-241.887 961.591,-248.771"/>
</g>
<!-- Node22 -->
<g id="node22" class="node"><title>Node22</title>
<polygon fill="none" stroke="#bfbfbf" points="1095,-224.5 1095,-243.5 1145,-243.5 1145,-224.5 1095,-224.5"/>
<text text-anchor="middle" x="1120" y="-231.5" font-family="Helvetica,sans-Serif" font-size="10.00">TH1F.h</text>
</g>
<!-- Node1&#45;&gt;Node22 -->
<g id="edge30" class="edge"><title>Node1&#45;&gt;Node22</title>
<path fill="none" stroke="midnightblue" d="M818.304,-280.8C889.246,-273.812 988.961,-262.253 1084.96,-243.973"/>
<polygon fill="midnightblue" stroke="midnightblue" points="1085.68,-247.399 1094.84,-242.066 1084.35,-240.526 1085.68,-247.399"/>
</g>
<!-- Node3 -->
<g id="node3" class="node"><title>Node3</title>
<polygon fill="none" stroke="#bfbfbf" points="84,-112.5 84,-131.5 136,-131.5 136,-112.5 84,-112.5"/>
<text text-anchor="middle" x="110" y="-119.5" font-family="Helvetica,sans-Serif" font-size="10.00">memory</text>
</g>
<!-- Node2&#45;&gt;Node3 -->
<g id="edge2" class="edge"><title>Node2&#45;&gt;Node3</title>
<path fill="none" stroke="midnightblue" d="M320.109,-224.368C280.318,-205.171 184.29,-158.842 137.099,-136.074"/>
<polygon fill="midnightblue" stroke="midnightblue" points="138.335,-132.784 127.808,-131.591 135.293,-139.089 138.335,-132.784"/>
</g>
<!-- Node4 -->
<g id="node4" class="node"><title>Node4</title>
<g id="a_node4"><a xlink:href="DatabaseInterface_8h.html" target="_top" xlink:title="QualityControl/DatabaseInterface.h">
<polygon fill="none" stroke="black" points="267,-168.5 267,-187.5 437,-187.5 437,-168.5 267,-168.5"/>
<text text-anchor="middle" x="352" y="-175.5" font-family="Helvetica,sans-Serif" font-size="10.00">QualityControl/DatabaseInterface.h</text>
</a>
</g>
</g>
<!-- Node2&#45;&gt;Node4 -->
<g id="edge3" class="edge"><title>Node2&#45;&gt;Node4</title>
<path fill="none" stroke="midnightblue" d="M340.312,-224.083C342.167,-216.927 344.835,-206.635 347.154,-197.691"/>
<polygon fill="midnightblue" stroke="midnightblue" points="350.609,-198.309 349.731,-187.751 343.834,-196.553 350.609,-198.309"/>
</g>
<!-- Node4&#45;&gt;Node3 -->
<g id="edge5" class="edge"><title>Node4&#45;&gt;Node3</title>
<path fill="none" stroke="midnightblue" d="M309.644,-168.428C269.661,-160.204 207.799,-147.142 146.207,-132.465"/>
<polygon fill="midnightblue" stroke="midnightblue" points="146.868,-129.024 136.327,-130.096 145.236,-135.831 146.868,-129.024"/>
</g>
<!-- Node5 -->
<g id="node5" class="node"><title>Node5</title>
<polygon fill="none" stroke="#bfbfbf" points="503.5,-0.5 503.5,-19.5 544.5,-19.5 544.5,-0.5 503.5,-0.5"/>
<text text-anchor="middle" x="524" y="-7.5" font-family="Helvetica,sans-Serif" font-size="10.00">string</text>
</g>
<!-- Node4&#45;&gt;Node5 -->
<g id="edge4" class="edge"><title>Node4&#45;&gt;Node5</title>
<path fill="none" stroke="midnightblue" d="M428.935,-168.487C475.166,-161.608 527.728,-150.047 542,-132 565.725,-101.999 547.161,-54.326 534.067,-28.6927"/>
<polygon fill="midnightblue" stroke="midnightblue" points="537.072,-26.8917 529.253,-19.7427 530.907,-30.2075 537.072,-26.8917"/>
</g>
<!-- Node6 -->
<g id="node6" class="node"><title>Node6</title>
<polygon fill="none" stroke="#bfbfbf" points="320,-112.5 320,-131.5 364,-131.5 364,-112.5 320,-112.5"/>
<text text-anchor="middle" x="342" y="-119.5" font-family="Helvetica,sans-Serif" font-size="10.00">vector</text>
</g>
<!-- Node4&#45;&gt;Node6 -->
<g id="edge6" class="edge"><title>Node4&#45;&gt;Node6</title>
<path fill="none" stroke="midnightblue" d="M350.349,-168.083C349.024,-160.927 347.118,-150.635 345.461,-141.691"/>
<polygon fill="midnightblue" stroke="midnightblue" points="348.883,-140.947 343.621,-131.751 342,-142.221 348.883,-140.947"/>
</g>
<!-- Node4&#45;&gt;Node7 -->
<g id="edge7" class="edge"><title>Node4&#45;&gt;Node7</title>
<path fill="none" stroke="midnightblue" d="M396.367,-168.444C446.346,-158.805 527.473,-143.159 580.285,-132.974"/>
<polygon fill="midnightblue" stroke="midnightblue" points="580.971,-136.406 590.127,-131.075 579.645,-129.533 580.971,-136.406"/>
</g>
<!-- Node8 -->
<g id="node8" class="node"><title>Node8</title>
<g id="a_node8"><a xlink:href="QualityObject_8h_source.html" target="_top" xlink:title="QualityControl/QualityObject.h">
<polygon fill="none" stroke="black" points="153.5,-112.5 153.5,-131.5 302.5,-131.5 302.5,-112.5 153.5,-112.5"/>
<text text-anchor="middle" x="228" y="-119.5" font-family="Helvetica,sans-Serif" font-size="10.00">QualityControl/QualityObject.h</text>
</a>
</g>
</g>
<!-- Node4&#45;&gt;Node8 -->
<g id="edge8" class="edge"><title>Node4&#45;&gt;Node8</title>
<path fill="none" stroke="midnightblue" d="M332.352,-168.444C312.035,-159.596 280.097,-145.687 256.902,-135.586"/>
<polygon fill="midnightblue" stroke="midnightblue" points="258.122,-132.3 247.556,-131.516 255.327,-138.718 258.122,-132.3"/>
</g>
<!-- Node15 -->
<g id="node15" class="node"><title>Node15</title>
<g id="a_node15"><a xlink:href="MonitorObject_8h.html" target="_top" xlink:title="QualityControl/MonitorObject.h">
<polygon fill="none" stroke="black" points="382.5,-112.5 382.5,-131.5 533.5,-131.5 533.5,-112.5 382.5,-112.5"/>
<text text-anchor="middle" x="458" y="-119.5" font-family="Helvetica,sans-Serif" font-size="10.00">QualityControl/MonitorObject.h</text>
</a>
</g>
</g>
<!-- Node4&#45;&gt;Node15 -->
<g id="edge16" class="edge"><title>Node4&#45;&gt;Node15</title>
<path fill="none" stroke="midnightblue" d="M369.031,-168.324C386.03,-159.664 412.376,-146.242 431.993,-136.249"/>
<polygon fill="midnightblue" stroke="midnightblue" points="433.69,-139.312 441.012,-131.655 430.512,-133.075 433.69,-139.312"/>
</g>
<!-- Node9 -->
<g id="node9" class="node"><title>Node9</title>
<polygon fill="none" stroke="#bfbfbf" points="0,-56.5 0,-75.5 54,-75.5 54,-56.5 0,-56.5"/>
<text text-anchor="middle" x="27" y="-63.5" font-family="Helvetica,sans-Serif" font-size="10.00">iostream</text>
</g>
<!-- Node8&#45;&gt;Node9 -->
<g id="edge9" class="edge"><title>Node8&#45;&gt;Node9</title>
<path fill="none" stroke="midnightblue" d="M196.151,-112.444C160.332,-102.821 102.227,-87.2102 64.3112,-77.0239"/>
<polygon fill="midnightblue" stroke="midnightblue" points="64.7534,-73.5187 54.1878,-74.3042 62.9372,-80.279 64.7534,-73.5187"/>
</g>
<!-- Node10 -->
<g id="node10" class="node"><title>Node10</title>
<polygon fill="none" stroke="#bfbfbf" points="211.5,-56.5 211.5,-75.5 246.5,-75.5 246.5,-56.5 211.5,-56.5"/>
<text text-anchor="middle" x="229" y="-63.5" font-family="Helvetica,sans-Serif" font-size="10.00">map</text>
</g>
<!-- Node8&#45;&gt;Node10 -->
<g id="edge10" class="edge"><title>Node8&#45;&gt;Node10</title>
<path fill="none" stroke="midnightblue" d="M228.165,-112.083C228.296,-105.006 228.484,-94.8611 228.648,-85.9865"/>
<polygon fill="midnightblue" stroke="midnightblue" points="232.152,-85.8142 228.838,-75.7511 225.153,-85.6845 232.152,-85.8142"/>
</g>
<!-- Node11 -->
<g id="node11" class="node"><title>Node11</title>
<polygon fill="none" stroke="#bfbfbf" points="264.5,-56.5 264.5,-75.5 323.5,-75.5 323.5,-56.5 264.5,-56.5"/>
<text text-anchor="middle" x="294" y="-63.5" font-family="Helvetica,sans-Serif" font-size="10.00">TObject.h</text>
</g>
<!-- Node8&#45;&gt;Node11 -->
<g id="edge11" class="edge"><title>Node8&#45;&gt;Node11</title>
<path fill="none" stroke="midnightblue" d="M238.604,-112.324C248.456,-104.263 263.351,-92.0765 275.215,-82.3695"/>
<polygon fill="midnightblue" stroke="midnightblue" points="277.68,-84.8752 283.203,-75.8339 273.247,-79.4575 277.68,-84.8752"/>
</g>
<!-- Node12 -->
<g id="node12" class="node"><title>Node12</title>
<polygon fill="none" stroke="#bfbfbf" points="342,-56.5 342,-75.5 458,-75.5 458,-56.5 342,-56.5"/>
<text text-anchor="middle" x="400" y="-63.5" font-family="Helvetica,sans-Serif" font-size="10.00">Common/Exceptions.h</text>
</g>
<!-- Node8&#45;&gt;Node12 -->
<g id="edge12" class="edge"><title>Node8&#45;&gt;Node12</title>
<path fill="none" stroke="midnightblue" d="M255.254,-112.444C284.441,-103.28 330.921,-88.6876 363.309,-78.5192"/>
<polygon fill="midnightblue" stroke="midnightblue" points="364.381,-81.8512 372.874,-75.5164 362.284,-75.1726 364.381,-81.8512"/>
</g>
<!-- Node13 -->
<g id="node13" class="node"><title>Node13</title>
<g id="a_node13"><a xlink:href="Quality_8h.html" target="_top" xlink:title="QualityControl/Quality.h">
<polygon fill="none" stroke="black" points="72.5,-56.5 72.5,-75.5 193.5,-75.5 193.5,-56.5 72.5,-56.5"/>
<text text-anchor="middle" x="133" y="-63.5" font-family="Helvetica,sans-Serif" font-size="10.00">QualityControl/Quality.h</text>
</a>
</g>
</g>
<!-- Node8&#45;&gt;Node13 -->
<g id="edge13" class="edge"><title>Node8&#45;&gt;Node13</title>
<path fill="none" stroke="midnightblue" d="M212.737,-112.324C197.779,-103.822 174.745,-90.7288 157.273,-80.7975"/>
<polygon fill="midnightblue" stroke="midnightblue" points="158.649,-77.5534 148.226,-75.6545 155.19,-83.639 158.649,-77.5534"/>
</g>
<!-- Node13&#45;&gt;Node5 -->
<g id="edge15" class="edge"><title>Node13&#45;&gt;Node5</title>
<path fill="none" stroke="midnightblue" d="M193.665,-56.6217C278.395,-44.9199 429.007,-24.1192 493.412,-15.2244"/>
<polygon fill="midnightblue" stroke="midnightblue" points="493.914,-18.6885 503.341,-13.8532 492.956,-11.7543 493.914,-18.6885"/>
</g>
<!-- Node14 -->
<g id="node14" class="node"><title>Node14</title>
<polygon fill="none" stroke="#bfbfbf" points="267,-0.5 267,-19.5 323,-19.5 323,-0.5 267,-0.5"/>
<text text-anchor="middle" x="295" y="-7.5" font-family="Helvetica,sans-Serif" font-size="10.00">Rtypes.h</text>
</g>
<!-- Node13&#45;&gt;Node14 -->
<g id="edge14" class="edge"><title>Node13&#45;&gt;Node14</title>
<path fill="none" stroke="midnightblue" d="M158.669,-56.4435C185.923,-47.3591 229.184,-32.9388 259.651,-22.7831"/>
<polygon fill="midnightblue" stroke="midnightblue" points="261.071,-25.9992 269.451,-19.5164 258.857,-19.3584 261.071,-25.9992"/>
</g>
<!-- Node15&#45;&gt;Node5 -->
<g id="edge17" class="edge"><title>Node15&#45;&gt;Node5</title>
<path fill="none" stroke="midnightblue" d="M468.215,-112.262C477.57,-103.798 491.253,-90.1923 500,-76 508.875,-61.5989 515.242,-43.4057 519.178,-29.932"/>
<polygon fill="midnightblue" stroke="midnightblue" points="522.656,-30.4798 521.914,-19.911 515.903,-28.6359 522.656,-30.4798"/>
</g>
<!-- Node15&#45;&gt;Node10 -->
<g id="edge18" class="edge"><title>Node15&#45;&gt;Node10</title>
<path fill="none" stroke="midnightblue" d="M412.477,-112.468C373.271,-104.772 315.035,-92.5122 256.339,-76.1477"/>
<polygon fill="midnightblue" stroke="midnightblue" points="257.11,-72.7286 246.535,-73.3766 255.206,-79.4647 257.11,-72.7286"/>
</g>
<!-- Node15&#45;&gt;Node11 -->
<g id="edge20" class="edge"><title>Node15&#45;&gt;Node11</title>
<path fill="none" stroke="midnightblue" d="M432.014,-112.444C404.304,-103.32 360.248,-88.8133 329.384,-78.6509"/>
<polygon fill="midnightblue" stroke="midnightblue" points="330.458,-75.3196 319.865,-75.5164 328.268,-81.9684 330.458,-75.3196"/>
</g>
<!-- Node15&#45;&gt;Node12 -->
<g id="edge21" class="edge"><title>Node15&#45;&gt;Node12</title>
<path fill="none" stroke="midnightblue" d="M448.681,-112.324C440.107,-104.341 427.188,-92.3128 416.812,-82.6529"/>
<polygon fill="midnightblue" stroke="midnightblue" points="419.192,-80.0865 409.488,-75.8339 414.422,-85.2098 419.192,-80.0865"/>
</g>
<!-- Node15&#45;&gt;Node14 -->
<g id="edge19" class="edge"><title>Node15&#45;&gt;Node14</title>
<path fill="none" stroke="midnightblue" d="M462.775,-112.405C469.556,-98.9124 479.81,-72.5925 467,-56 450.813,-35.0334 379.02,-21.9536 333.457,-15.6095"/>
<polygon fill="midnightblue" stroke="midnightblue" points="333.703,-12.1112 323.326,-14.2491 332.771,-19.0489 333.703,-12.1112"/>
</g>
<!-- Node16&#45;&gt;Node4 -->
<g id="edge25" class="edge"><title>Node16&#45;&gt;Node4</title>
<path fill="none" stroke="midnightblue" d="M490.014,-224.444C462.304,-215.32 418.248,-200.813 387.384,-190.651"/>
<polygon fill="midnightblue" stroke="midnightblue" points="388.458,-187.32 377.865,-187.516 386.268,-193.968 388.458,-187.32"/>
</g>
<!-- Node17 -->
<g id="node17" class="node"><title>Node17</title>
<polygon fill="none" stroke="#bfbfbf" points="468.5,-168.5 468.5,-187.5 563.5,-187.5 563.5,-168.5 468.5,-168.5"/>
<text text-anchor="middle" x="516" y="-175.5" font-family="Helvetica,sans-Serif" font-size="10.00">CCDB/CcdbApi.h</text>
</g>
<!-- Node16&#45;&gt;Node17 -->
<g id="edge24" class="edge"><title>Node16&#45;&gt;Node17</title>
<path fill="none" stroke="midnightblue" d="M516,-224.083C516,-217.006 516,-206.861 516,-197.986"/>
<polygon fill="midnightblue" stroke="midnightblue" points="519.5,-197.751 516,-187.751 512.5,-197.751 519.5,-197.751"/>
</g>
<!-- Node19 -->
<g id="node19" class="node"><title>Node19</title>
<polygon fill="none" stroke="#bfbfbf" points="659,-168.5 659,-187.5 789,-187.5 789,-168.5 659,-168.5"/>
<text text-anchor="middle" x="724" y="-175.5" font-family="Helvetica,sans-Serif" font-size="10.00">InfoLogger/InfoLogger.hxx</text>
</g>
<!-- Node18&#45;&gt;Node19 -->
<g id="edge27" class="edge"><title>Node18&#45;&gt;Node19</title>
<path fill="none" stroke="midnightblue" d="M724,-224.083C724,-217.006 724,-206.861 724,-197.986"/>
<polygon fill="midnightblue" stroke="midnightblue" points="727.5,-197.751 724,-187.751 720.5,-197.751 727.5,-197.751"/>
</g>
</g>
</svg>
