<?xml version="1.0" encoding="UTF-8" standalone="no"?>
<!DOCTYPE svg PUBLIC "-//W3C//DTD SVG 1.1//EN"
 "http://www.w3.org/Graphics/SVG/1.1/DTD/svg11.dtd">
<!-- Generated by graphviz version 2.38.0 (20140413.2041)
 -->
<!-- Title: Framework/test/testTaskRunner.cxx Pages: 1 -->
<svg width="1266pt" height="330pt"
 viewBox="0.00 0.00 1265.50 330.00" xmlns="http://www.w3.org/2000/svg" xmlns:xlink="http://www.w3.org/1999/xlink">
<g id="graph0" class="graph" transform="scale(1 1) rotate(0) translate(4 326)">
<title>Framework/test/testTaskRunner.cxx</title>
<!-- Node1 -->
<g id="node1" class="node"><title>Node1</title>
<polygon fill="#bfbfbf" stroke="black" points="596.5,-302.5 596.5,-321.5 772.5,-321.5 772.5,-302.5 596.5,-302.5"/>
<text text-anchor="middle" x="684.5" y="-309.5" font-family="Helvetica,sans-Serif" font-size="10.00">Framework/test/testTaskRunner.cxx</text>
</g>
<!-- Node2 -->
<g id="node2" class="node"><title>Node2</title>
<polygon fill="none" stroke="#bfbfbf" points="18,-241 18,-260 137,-260 137,-241 18,-241"/>
<text text-anchor="middle" x="77.5" y="-248" font-family="Helvetica,sans-Serif" font-size="10.00">getTestDataDirectory.h</text>
</g>
<!-- Node1&#45;&gt;Node2 -->
<g id="edge1" class="edge"><title>Node1&#45;&gt;Node2</title>
<path fill="none" stroke="midnightblue" d="M596.349,-307.076C489.289,-301.521 303.419,-289.333 145.5,-266 138.275,-264.933 130.668,-263.56 123.262,-262.086"/>
<polygon fill="midnightblue" stroke="midnightblue" points="123.844,-258.632 113.342,-260.032 122.425,-265.487 123.844,-258.632"/>
</g>
<!-- Node3 -->
<g id="node3" class="node"><title>Node3</title>
<g id="a_node3"><a xlink:href="TaskRunnerFactory_8h.html" target="_top" xlink:title="QualityControl/TaskRunner\lFactory.h">
<polygon fill="none" stroke="black" points="155,-235.5 155,-265.5 290,-265.5 290,-235.5 155,-235.5"/>
<text text-anchor="start" x="163" y="-253.5" font-family="Helvetica,sans-Serif" font-size="10.00">QualityControl/TaskRunner</text>
<text text-anchor="middle" x="222.5" y="-242.5" font-family="Helvetica,sans-Serif" font-size="10.00">Factory.h</text>
</a>
</g>
</g>
<!-- Node1&#45;&gt;Node3 -->
<g id="edge2" class="edge"><title>Node1&#45;&gt;Node3</title>
<path fill="none" stroke="midnightblue" d="M618.307,-302.475C534.22,-291.646 389.342,-272.987 300.132,-261.498"/>
<polygon fill="midnightblue" stroke="midnightblue" points="300.438,-258.009 290.073,-260.203 299.544,-264.951 300.438,-258.009"/>
</g>
<!-- Node7 -->
<g id="node7" class="node"><title>Node7</title>
<g id="a_node7"><a xlink:href="TaskRunner_8h.html" target="_top" xlink:title="QualityControl/TaskRunner.h">
<polygon fill="none" stroke="black" points="534,-241 534,-260 677,-260 677,-241 534,-241"/>
<text text-anchor="middle" x="605.5" y="-248" font-family="Helvetica,sans-Serif" font-size="10.00">QualityControl/TaskRunner.h</text>
</a>
</g>
</g>
<!-- Node1&#45;&gt;Node7 -->
<g id="edge6" class="edge"><title>Node1&#45;&gt;Node7</title>
<path fill="none" stroke="midnightblue" d="M673.181,-302.475C660.627,-293.02 640.149,-277.596 625.001,-266.187"/>
<polygon fill="midnightblue" stroke="midnightblue" points="626.891,-263.23 616.798,-260.009 622.68,-268.821 626.891,-263.23"/>
</g>
<!-- Node29 -->
<g id="node29" class="node"><title>Node29</title>
<polygon fill="none" stroke="#bfbfbf" points="695.5,-241 695.5,-260 833.5,-260 833.5,-241 695.5,-241"/>
<text text-anchor="middle" x="764.5" y="-248" font-family="Helvetica,sans-Serif" font-size="10.00">Framework/DataSampling.h</text>
</g>
<!-- Node1&#45;&gt;Node29 -->
<g id="edge37" class="edge"><title>Node1&#45;&gt;Node29</title>
<path fill="none" stroke="midnightblue" d="M695.962,-302.475C708.675,-293.02 729.413,-277.596 744.753,-266.187"/>
<polygon fill="midnightblue" stroke="midnightblue" points="747.124,-268.785 753.059,-260.009 742.946,-263.169 747.124,-268.785"/>
</g>
<!-- Node30 -->
<g id="node30" class="node"><title>Node30</title>
<polygon fill="none" stroke="#bfbfbf" points="851.5,-241 851.5,-260 991.5,-260 991.5,-241 851.5,-241"/>
<text text-anchor="middle" x="921.5" y="-248" font-family="Helvetica,sans-Serif" font-size="10.00">Framework/DataSpecUtils.h</text>
</g>
<!-- Node1&#45;&gt;Node30 -->
<g id="edge38" class="edge"><title>Node1&#45;&gt;Node30</title>
<path fill="none" stroke="midnightblue" d="M718.456,-302.475C760.342,-291.959 831.633,-274.062 877.628,-262.514"/>
<polygon fill="midnightblue" stroke="midnightblue" points="878.76,-265.839 887.607,-260.009 877.055,-259.049 878.76,-265.839"/>
</g>
<!-- Node31 -->
<g id="node31" class="node"><title>Node31</title>
<polygon fill="none" stroke="#bfbfbf" points="1010,-241 1010,-260 1129,-260 1129,-241 1010,-241"/>
<text text-anchor="middle" x="1069.5" y="-248" font-family="Helvetica,sans-Serif" font-size="10.00">boost/test/unit_test.hpp</text>
</g>
<!-- Node1&#45;&gt;Node31 -->
<g id="edge39" class="edge"><title>Node1&#45;&gt;Node31</title>
<path fill="none" stroke="midnightblue" d="M753.748,-302.469C817.909,-294.25 915.909,-280.895 1000.5,-266 1007.22,-264.816 1014.29,-263.46 1021.23,-262.063"/>
<polygon fill="midnightblue" stroke="midnightblue" points="1022.17,-265.443 1031.26,-260.002 1020.76,-258.587 1022.17,-265.443"/>
</g>
<!-- Node4 -->
<g id="node4" class="node"><title>Node4</title>
<polygon fill="none" stroke="#bfbfbf" points="339,-0.5 339,-19.5 380,-19.5 380,-0.5 339,-0.5"/>
<text text-anchor="middle" x="359.5" y="-7.5" font-family="Helvetica,sans-Serif" font-size="10.00">string</text>
</g>
<!-- Node3&#45;&gt;Node4 -->
<g id="edge3" class="edge"><title>Node3&#45;&gt;Node4</title>
<path fill="none" stroke="midnightblue" d="M155.118,-235.445C119.139,-226.428 80.1118,-213.678 69.5,-199 64.292,-191.797 64.6563,-186.453 69.5,-179 124.36,-94.5829 192.277,-142.158 276.5,-87 302.907,-69.706 329.041,-43.9704 344.729,-27.3364"/>
<polygon fill="midnightblue" stroke="midnightblue" points="347.317,-29.6926 351.547,-19.9786 342.183,-24.9349 347.317,-29.6926"/>
</g>
<!-- Node5 -->
<g id="node5" class="node"><title>Node5</title>
<polygon fill="none" stroke="#bfbfbf" points="78.5,-179.5 78.5,-198.5 122.5,-198.5 122.5,-179.5 78.5,-179.5"/>
<text text-anchor="middle" x="100.5" y="-186.5" font-family="Helvetica,sans-Serif" font-size="10.00">vector</text>
</g>
<!-- Node3&#45;&gt;Node5 -->
<g id="edge4" class="edge"><title>Node3&#45;&gt;Node5</title>
<path fill="none" stroke="midnightblue" d="M193.588,-235.399C173.484,-225.595 146.879,-212.619 127.262,-203.052"/>
<polygon fill="midnightblue" stroke="midnightblue" points="128.774,-199.896 118.252,-198.658 125.706,-206.187 128.774,-199.896"/>
</g>
<!-- Node6 -->
<g id="node6" class="node"><title>Node6</title>
<polygon fill="none" stroke="#bfbfbf" points="140.5,-179.5 140.5,-198.5 304.5,-198.5 304.5,-179.5 140.5,-179.5"/>
<text text-anchor="middle" x="222.5" y="-186.5" font-family="Helvetica,sans-Serif" font-size="10.00">Framework/DataProcessorSpec.h</text>
</g>
<!-- Node3&#45;&gt;Node6 -->
<g id="edge5" class="edge"><title>Node3&#45;&gt;Node6</title>
<path fill="none" stroke="midnightblue" d="M222.5,-235.399C222.5,-227.466 222.5,-217.458 222.5,-208.858"/>
<polygon fill="midnightblue" stroke="midnightblue" points="226,-208.658 222.5,-198.658 219,-208.658 226,-208.658"/>
</g>
<!-- Node7&#45;&gt;Node6 -->
<g id="edge9" class="edge"><title>Node7&#45;&gt;Node6</title>
<path fill="none" stroke="midnightblue" d="M550.625,-240.975C481.088,-230.172 361.4,-211.578 287.401,-200.083"/>
<polygon fill="midnightblue" stroke="midnightblue" points="287.692,-196.586 277.273,-198.509 286.617,-203.503 287.692,-196.586"/>
</g>
<!-- Node8 -->
<g id="node8" class="node"><title>Node8</title>
<polygon fill="none" stroke="#bfbfbf" points="1165.5,-179.5 1165.5,-198.5 1257.5,-198.5 1257.5,-179.5 1165.5,-179.5"/>
<text text-anchor="middle" x="1211.5" y="-186.5" font-family="Helvetica,sans-Serif" font-size="10.00">Common/Timer.h</text>
</g>
<!-- Node7&#45;&gt;Node8 -->
<g id="edge7" class="edge"><title>Node7&#45;&gt;Node8</title>
<path fill="none" stroke="midnightblue" d="M648.675,-240.947C660.868,-238.756 674.172,-236.577 686.5,-235 892.11,-208.704 945.539,-222.389 1151.5,-199 1152.77,-198.856 1154.05,-198.706 1155.34,-198.55"/>
<polygon fill="midnightblue" stroke="midnightblue" points="1155.88,-202.009 1165.36,-197.262 1154.99,-195.066 1155.88,-202.009"/>
</g>
<!-- Node9 -->
<g id="node9" class="node"><title>Node9</title>
<polygon fill="none" stroke="#bfbfbf" points="322.5,-179.5 322.5,-198.5 420.5,-198.5 420.5,-179.5 322.5,-179.5"/>
<text text-anchor="middle" x="371.5" y="-186.5" font-family="Helvetica,sans-Serif" font-size="10.00">Framework/Task.h</text>
</g>
<!-- Node7&#45;&gt;Node9 -->
<g id="edge8" class="edge"><title>Node7&#45;&gt;Node9</title>
<path fill="none" stroke="midnightblue" d="M571.974,-240.975C530.618,-230.459 460.229,-212.562 414.816,-201.014"/>
<polygon fill="midnightblue" stroke="midnightblue" points="415.518,-197.581 404.964,-198.509 413.793,-204.366 415.518,-197.581"/>
</g>
<!-- Node10 -->
<g id="node10" class="node"><title>Node10</title>
<polygon fill="none" stroke="#bfbfbf" points="439,-179.5 439,-198.5 592,-198.5 592,-179.5 439,-179.5"/>
<text text-anchor="middle" x="515.5" y="-186.5" font-family="Helvetica,sans-Serif" font-size="10.00">Framework/CompletionPolicy.h</text>
</g>
<!-- Node7&#45;&gt;Node10 -->
<g id="edge10" class="edge"><title>Node7&#45;&gt;Node10</title>
<path fill="none" stroke="midnightblue" d="M592.605,-240.975C578.036,-231.343 554.098,-215.517 536.755,-204.052"/>
<polygon fill="midnightblue" stroke="midnightblue" points="538.643,-201.104 528.371,-198.509 534.783,-206.944 538.643,-201.104"/>
</g>
<!-- Node11 -->
<g id="node11" class="node"><title>Node11</title>
<polygon fill="none" stroke="#bfbfbf" points="610.5,-179.5 610.5,-198.5 780.5,-198.5 780.5,-179.5 610.5,-179.5"/>
<text text-anchor="middle" x="695.5" y="-186.5" font-family="Helvetica,sans-Serif" font-size="10.00">Framework/EndOfStreamContext.h</text>
</g>
<!-- Node7&#45;&gt;Node11 -->
<g id="edge11" class="edge"><title>Node7&#45;&gt;Node11</title>
<path fill="none" stroke="midnightblue" d="M618.395,-240.975C632.964,-231.343 656.902,-215.517 674.245,-204.052"/>
<polygon fill="midnightblue" stroke="midnightblue" points="676.217,-206.944 682.629,-198.509 672.357,-201.104 676.217,-206.944"/>
</g>
<!-- Node12 -->
<g id="node12" class="node"><title>Node12</title>
<polygon fill="none" stroke="#bfbfbf" points="799,-179.5 799,-198.5 916,-198.5 916,-179.5 799,-179.5"/>
<text text-anchor="middle" x="857.5" y="-186.5" font-family="Helvetica,sans-Serif" font-size="10.00">Headers/DataHeader.h</text>
</g>
<!-- Node7&#45;&gt;Node12 -->
<g id="edge12" class="edge"><title>Node7&#45;&gt;Node12</title>
<path fill="none" stroke="midnightblue" d="M641.605,-240.975C686.329,-230.415 762.583,-212.411 811.467,-200.869"/>
<polygon fill="midnightblue" stroke="midnightblue" points="812.533,-204.213 821.462,-198.509 810.925,-197.401 812.533,-204.213"/>
</g>
<!-- Node13 -->
<g id="node13" class="node"><title>Node13</title>
<g id="a_node13"><a xlink:href="TaskConfig_8h.html" target="_top" xlink:title="QualityControl/TaskConfig.h">
<polygon fill="none" stroke="black" points="789.5,-62 789.5,-81 929.5,-81 929.5,-62 789.5,-62"/>
<text text-anchor="middle" x="859.5" y="-69" font-family="Helvetica,sans-Serif" font-size="10.00">QualityControl/TaskConfig.h</text>
</a>
</g>
</g>
<!-- Node7&#45;&gt;Node13 -->
<g id="edge13" class="edge"><title>Node7&#45;&gt;Node13</title>
<path fill="none" stroke="midnightblue" d="M649.107,-240.96C661.185,-238.795 674.322,-236.625 686.5,-235 731.5,-228.994 1062.85,-232.486 1093.5,-199 1107.83,-183.346 1102.35,-144.774 1080.5,-123 1060.65,-103.221 994.515,-89.8218 939.72,-81.824"/>
<polygon fill="midnightblue" stroke="midnightblue" points="940.027,-78.3325 929.635,-80.3931 939.044,-85.2631 940.027,-78.3325"/>
</g>
<!-- Node15 -->
<g id="node15" class="node"><title>Node15</title>
<g id="a_node15"><a xlink:href="TaskInterface_8h.html" target="_top" xlink:title="QualityControl/TaskInterface.h">
<polygon fill="none" stroke="black" points="934.5,-179.5 934.5,-198.5 1084.5,-198.5 1084.5,-179.5 934.5,-179.5"/>
<text text-anchor="middle" x="1009.5" y="-186.5" font-family="Helvetica,sans-Serif" font-size="10.00">QualityControl/TaskInterface.h</text>
</a>
</g>
</g>
<!-- Node7&#45;&gt;Node15 -->
<g id="edge16" class="edge"><title>Node7&#45;&gt;Node15</title>
<path fill="none" stroke="midnightblue" d="M651.283,-240.985C662.767,-238.938 675.072,-236.818 686.5,-235 770.492,-221.637 867.125,-208.462 932.646,-199.856"/>
<polygon fill="midnightblue" stroke="midnightblue" points="933.427,-203.284 942.888,-198.515 932.518,-196.343 933.427,-203.284"/>
</g>
<!-- Node13&#45;&gt;Node4 -->
<g id="edge14" class="edge"><title>Node13&#45;&gt;Node4</title>
<path fill="none" stroke="midnightblue" d="M789.435,-64.4023C700.229,-56.246 541.469,-40.4138 406.5,-20 401.194,-19.1975 395.573,-18.2269 390.135,-17.2243"/>
<polygon fill="midnightblue" stroke="midnightblue" points="390.51,-13.7327 380.031,-15.2923 389.195,-20.6082 390.51,-13.7327"/>
</g>
<!-- Node14 -->
<g id="node14" class="node"><title>Node14</title>
<polygon fill="none" stroke="#bfbfbf" points="938,-0.5 938,-19.5 1021,-19.5 1021,-0.5 938,-0.5"/>
<text text-anchor="middle" x="979.5" y="-7.5" font-family="Helvetica,sans-Serif" font-size="10.00">unordered_map</text>
</g>
<!-- Node13&#45;&gt;Node14 -->
<g id="edge15" class="edge"><title>Node13&#45;&gt;Node14</title>
<path fill="none" stroke="midnightblue" d="M876.693,-61.9751C896.743,-52.0338 930.099,-35.4947 953.36,-23.961"/>
<polygon fill="midnightblue" stroke="midnightblue" points="954.934,-27.0871 962.339,-19.5091 951.825,-20.8157 954.934,-27.0871"/>
</g>
<!-- Node15&#45;&gt;Node4 -->
<g id="edge19" class="edge"><title>Node15&#45;&gt;Node4</title>
<path fill="none" stroke="midnightblue" d="M934.427,-179.898C931.073,-179.585 927.752,-179.283 924.5,-179 866.14,-173.915 444.921,-178.732 398.5,-143 363.562,-116.107 358.727,-59.4109 358.752,-29.8418"/>
<polygon fill="midnightblue" stroke="midnightblue" points="362.255,-29.7028 358.959,-19.6337 355.256,-29.5604 362.255,-29.7028"/>
</g>
<!-- Node15&#45;&gt;Node14 -->
<g id="edge20" class="edge"><title>Node15&#45;&gt;Node14</title>
<path fill="none" stroke="midnightblue" d="M1034.66,-179.378C1050.92,-172.343 1070.79,-160.645 1080.5,-143 1084.78,-135.212 1083.69,-131.297 1080.5,-123 1064.37,-81.0236 1024.42,-44.9593 999.876,-25.768"/>
<polygon fill="midnightblue" stroke="midnightblue" points="1001.98,-22.9698 991.9,-19.7014 997.74,-28.5412 1001.98,-22.9698"/>
</g>
<!-- Node16 -->
<g id="node16" class="node"><title>Node16</title>
<polygon fill="none" stroke="#bfbfbf" points="0,-0.5 0,-19.5 35,-19.5 35,-0.5 0,-0.5"/>
<text text-anchor="middle" x="17.5" y="-7.5" font-family="Helvetica,sans-Serif" font-size="10.00">map</text>
</g>
<!-- Node15&#45;&gt;Node16 -->
<g id="edge17" class="edge"><title>Node15&#45;&gt;Node16</title>
<path fill="none" stroke="midnightblue" d="M934.428,-179.888C931.074,-179.577 927.753,-179.279 924.5,-179 742.466,-163.379 271.785,-166.944 107.5,-87 77.158,-72.2351 48.5409,-44.9311 32.0299,-27.3853"/>
<polygon fill="midnightblue" stroke="midnightblue" points="34.2797,-24.6601 24.9424,-19.6536 29.1196,-29.3902 34.2797,-24.6601"/>
</g>
<!-- Node17 -->
<g id="node17" class="node"><title>Node17</title>
<polygon fill="none" stroke="#bfbfbf" points="578.5,-62 578.5,-81 630.5,-81 630.5,-62 578.5,-62"/>
<text text-anchor="middle" x="604.5" y="-69" font-family="Helvetica,sans-Serif" font-size="10.00">memory</text>
</g>
<!-- Node15&#45;&gt;Node17 -->
<g id="edge18" class="edge"><title>Node15&#45;&gt;Node17</title>
<path fill="none" stroke="midnightblue" d="M934.406,-179.968C821.137,-167.774 619.367,-145.715 616.5,-143 602.861,-130.086 601.151,-107.815 602.035,-91.7564"/>
<polygon fill="midnightblue" stroke="midnightblue" points="605.558,-91.6652 603.003,-81.3832 598.589,-91.0148 605.558,-91.6652"/>
</g>
<!-- Node18 -->
<g id="node18" class="node"><title>Node18</title>
<polygon fill="none" stroke="#bfbfbf" points="626,-123.5 626,-142.5 751,-142.5 751,-123.5 626,-123.5"/>
<text text-anchor="middle" x="688.5" y="-130.5" font-family="Helvetica,sans-Serif" font-size="10.00">Framework/InitContext.h</text>
</g>
<!-- Node15&#45;&gt;Node18 -->
<g id="edge21" class="edge"><title>Node15&#45;&gt;Node18</title>
<path fill="none" stroke="midnightblue" d="M958.637,-179.444C901.817,-169.885 809.883,-154.419 749.31,-144.23"/>
<polygon fill="midnightblue" stroke="midnightblue" points="749.568,-140.724 739.125,-142.516 748.406,-147.627 749.568,-140.724"/>
</g>
<!-- Node19 -->
<g id="node19" class="node"><title>Node19</title>
<polygon fill="none" stroke="#bfbfbf" points="769.5,-123.5 769.5,-142.5 929.5,-142.5 929.5,-123.5 769.5,-123.5"/>
<text text-anchor="middle" x="849.5" y="-130.5" font-family="Helvetica,sans-Serif" font-size="10.00">Framework/ProcessingContext.h</text>
</g>
<!-- Node15&#45;&gt;Node19 -->
<g id="edge22" class="edge"><title>Node15&#45;&gt;Node19</title>
<path fill="none" stroke="midnightblue" d="M984.148,-179.444C957.231,-170.359 914.504,-155.939 884.413,-145.783"/>
<polygon fill="midnightblue" stroke="midnightblue" points="885.328,-142.398 874.734,-142.516 883.09,-149.031 885.328,-142.398"/>
</g>
<!-- Node20 -->
<g id="node20" class="node"><title>Node20</title>
<g id="a_node20"><a xlink:href="Activity_8h.html" target="_top" xlink:title="QualityControl/Activity.h">
<polygon fill="none" stroke="black" points="948,-123.5 948,-142.5 1071,-142.5 1071,-123.5 948,-123.5"/>
<text text-anchor="middle" x="1009.5" y="-130.5" font-family="Helvetica,sans-Serif" font-size="10.00">QualityControl/Activity.h</text>
</a>
</g>
</g>
<!-- Node15&#45;&gt;Node20 -->
<g id="edge23" class="edge"><title>Node15&#45;&gt;Node20</title>
<path fill="none" stroke="midnightblue" d="M1009.5,-179.083C1009.5,-172.006 1009.5,-161.861 1009.5,-152.986"/>
<polygon fill="midnightblue" stroke="midnightblue" points="1013,-152.751 1009.5,-142.751 1006,-152.751 1013,-152.751"/>
</g>
<!-- Node21 -->
<g id="node21" class="node"><title>Node21</title>
<g id="a_node21"><a xlink:href="ObjectsManager_8h.html" target="_top" xlink:title="QualityControl/ObjectsManager.h">
<polygon fill="none" stroke="black" points="408,-123.5 408,-142.5 569,-142.5 569,-123.5 408,-123.5"/>
<text text-anchor="middle" x="488.5" y="-130.5" font-family="Helvetica,sans-Serif" font-size="10.00">QualityControl/ObjectsManager.h</text>
</a>
</g>
</g>
<!-- Node15&#45;&gt;Node21 -->
<g id="edge24" class="edge"><title>Node15&#45;&gt;Node21</title>
<path fill="none" stroke="midnightblue" d="M934.414,-180.039C931.064,-179.687 927.747,-179.339 924.5,-179 805.166,-166.524 667.435,-152.346 579.238,-143.295"/>
<polygon fill="midnightblue" stroke="midnightblue" points="579.571,-139.81 569.266,-142.271 578.856,-146.774 579.571,-139.81"/>
</g>
<!-- Node21&#45;&gt;Node4 -->
<g id="edge35" class="edge"><title>Node21&#45;&gt;Node4</title>
<path fill="none" stroke="midnightblue" d="M466.653,-123.463C449.171,-115.84 424.802,-103.355 407.5,-87 389.844,-70.3097 375.91,-45.8112 367.701,-29.1747"/>
<polygon fill="midnightblue" stroke="midnightblue" points="370.788,-27.5149 363.348,-19.9721 364.461,-30.5084 370.788,-27.5149"/>
</g>
<!-- Node21&#45;&gt;Node13 -->
<g id="edge34" class="edge"><title>Node21&#45;&gt;Node13</title>
<path fill="none" stroke="midnightblue" d="M541.655,-123.475C608.876,-112.694 724.478,-94.1544 796.192,-82.6532"/>
<polygon fill="midnightblue" stroke="midnightblue" points="797.124,-86.0485 806.443,-81.0091 796.015,-79.1369 797.124,-86.0485"/>
</g>
<!-- Node21&#45;&gt;Node17 -->
<g id="edge36" class="edge"><title>Node21&#45;&gt;Node17</title>
<path fill="none" stroke="midnightblue" d="M505.12,-123.475C524.415,-113.578 556.459,-97.1416 578.931,-85.6151"/>
<polygon fill="midnightblue" stroke="midnightblue" points="580.61,-88.6873 587.911,-81.0091 577.416,-82.4589 580.61,-88.6873"/>
</g>
<!-- Node22 -->
<g id="node22" class="node"><title>Node22</title>
<g id="a_node22"><a xlink:href="MonitorObject_8h.html" target="_top" xlink:title="QualityControl/MonitorObject.h">
<polygon fill="none" stroke="black" points="117,-62 117,-81 268,-81 268,-62 117,-62"/>
<text text-anchor="middle" x="192.5" y="-69" font-family="Helvetica,sans-Serif" font-size="10.00">QualityControl/MonitorObject.h</text>
</a>
</g>
</g>
<!-- Node21&#45;&gt;Node22 -->
<g id="edge25" class="edge"><title>Node21&#45;&gt;Node22</title>
<path fill="none" stroke="midnightblue" d="M446.09,-123.475C393.008,-112.805 302.112,-94.5335 244.779,-83.0089"/>
<polygon fill="midnightblue" stroke="midnightblue" points="245.325,-79.5485 234.831,-81.0091 243.945,-86.4112 245.325,-79.5485"/>
</g>
<!-- Node26 -->
<g id="node26" class="node"><title>Node26</title>
<g id="a_node26"><a xlink:href="MonitorObjectCollection_8h.html" target="_top" xlink:title="QualityControl/MonitorObject\lCollection.h">
<polygon fill="none" stroke="black" points="417,-56.5 417,-86.5 560,-86.5 560,-56.5 417,-56.5"/>
<text text-anchor="start" x="425" y="-74.5" font-family="Helvetica,sans-Serif" font-size="10.00">QualityControl/MonitorObject</text>
<text text-anchor="middle" x="488.5" y="-63.5" font-family="Helvetica,sans-Serif" font-size="10.00">Collection.h</text>
</a>
</g>
</g>
<!-- Node21&#45;&gt;Node26 -->
<g id="edge31" class="edge"><title>Node21&#45;&gt;Node26</title>
<path fill="none" stroke="midnightblue" d="M488.5,-123.475C488.5,-116.471 488.5,-106.192 488.5,-96.6956"/>
<polygon fill="midnightblue" stroke="midnightblue" points="492,-96.5229 488.5,-86.523 485,-96.523 492,-96.5229"/>
</g>
<!-- Node22&#45;&gt;Node4 -->
<g id="edge26" class="edge"><title>Node22&#45;&gt;Node4</title>
<path fill="none" stroke="midnightblue" d="M216.427,-61.9751C246.05,-51.4208 296.546,-33.4298 328.943,-21.8871"/>
<polygon fill="midnightblue" stroke="midnightblue" points="330.531,-25.0369 338.776,-18.3836 328.182,-18.4429 330.531,-25.0369"/>
</g>
<!-- Node22&#45;&gt;Node16 -->
<g id="edge27" class="edge"><title>Node22&#45;&gt;Node16</title>
<path fill="none" stroke="midnightblue" d="M167.427,-61.9751C134.88,-50.9092 78.2886,-31.6681 44.722,-20.2555"/>
<polygon fill="midnightblue" stroke="midnightblue" points="45.6905,-16.8881 35.0961,-16.9827 43.4371,-23.5155 45.6905,-16.8881"/>
</g>
<!-- Node23 -->
<g id="node23" class="node"><title>Node23</title>
<polygon fill="none" stroke="#bfbfbf" points="187.5,-0.5 187.5,-19.5 243.5,-19.5 243.5,-0.5 187.5,-0.5"/>
<text text-anchor="middle" x="215.5" y="-7.5" font-family="Helvetica,sans-Serif" font-size="10.00">Rtypes.h</text>
</g>
<!-- Node22&#45;&gt;Node23 -->
<g id="edge28" class="edge"><title>Node22&#45;&gt;Node23</title>
<path fill="none" stroke="midnightblue" d="M195.795,-61.9751C199.109,-53.4035 204.318,-39.9269 208.549,-28.983"/>
<polygon fill="midnightblue" stroke="midnightblue" points="211.87,-30.0984 212.211,-19.5091 205.341,-27.5745 211.87,-30.0984"/>
</g>
<!-- Node24 -->
<g id="node24" class="node"><title>Node24</title>
<polygon fill="none" stroke="#bfbfbf" points="262,-0.5 262,-19.5 321,-19.5 321,-0.5 262,-0.5"/>
<text text-anchor="middle" x="291.5" y="-7.5" font-family="Helvetica,sans-Serif" font-size="10.00">TObject.h</text>
</g>
<!-- Node22&#45;&gt;Node24 -->
<g id="edge29" class="edge"><title>Node22&#45;&gt;Node24</title>
<path fill="none" stroke="midnightblue" d="M206.684,-61.9751C222.858,-52.2548 249.526,-36.2266 268.643,-24.7372"/>
<polygon fill="midnightblue" stroke="midnightblue" points="270.574,-27.6603 277.342,-19.5091 266.968,-21.6606 270.574,-27.6603"/>
</g>
<!-- Node25 -->
<g id="node25" class="node"><title>Node25</title>
<polygon fill="none" stroke="#bfbfbf" points="53.5,-0.5 53.5,-19.5 169.5,-19.5 169.5,-0.5 53.5,-0.5"/>
<text text-anchor="middle" x="111.5" y="-7.5" font-family="Helvetica,sans-Serif" font-size="10.00">Common/Exceptions.h</text>
</g>
<!-- Node22&#45;&gt;Node25 -->
<g id="edge30" class="edge"><title>Node22&#45;&gt;Node25</title>
<path fill="none" stroke="midnightblue" d="M180.895,-61.9751C168.023,-52.5199 147.026,-37.0961 131.494,-25.6871"/>
<polygon fill="midnightblue" stroke="midnightblue" points="133.215,-22.6085 123.084,-19.5091 129.071,-28.25 133.215,-22.6085"/>
</g>
<!-- Node27 -->
<g id="node27" class="node"><title>Node27</title>
<polygon fill="none" stroke="#bfbfbf" points="562,-0.5 562,-19.5 631,-19.5 631,-0.5 562,-0.5"/>
<text text-anchor="middle" x="596.5" y="-7.5" font-family="Helvetica,sans-Serif" font-size="10.00">TObjArray.h</text>
</g>
<!-- Node26&#45;&gt;Node27 -->
<g id="edge32" class="edge"><title>Node26&#45;&gt;Node27</title>
<path fill="none" stroke="midnightblue" d="M514.094,-56.3993C531.568,-46.7728 554.588,-34.0902 571.856,-24.5772"/>
<polygon fill="midnightblue" stroke="midnightblue" points="573.715,-27.5488 580.785,-19.6578 570.337,-21.4177 573.715,-27.5488"/>
</g>
<!-- Node28 -->
<g id="node28" class="node"><title>Node28</title>
<polygon fill="none" stroke="#bfbfbf" points="415.5,-0.5 415.5,-19.5 543.5,-19.5 543.5,-0.5 415.5,-0.5"/>
<text text-anchor="middle" x="479.5" y="-7.5" font-family="Helvetica,sans-Serif" font-size="10.00">Mergers/MergeInterface.h</text>
</g>
<!-- Node26&#45;&gt;Node28 -->
<g id="edge33" class="edge"><title>Node26&#45;&gt;Node28</title>
<path fill="none" stroke="midnightblue" d="M486.367,-56.3993C485.154,-48.3772 483.619,-38.2328 482.309,-29.569"/>
<polygon fill="midnightblue" stroke="midnightblue" points="485.766,-29.0218 480.81,-19.6578 478.845,-30.0688 485.766,-29.0218"/>
</g>
</g>
</svg>
