<?xml version="1.0" encoding="UTF-8" standalone="no"?>
<!DOCTYPE svg PUBLIC "-//W3C//DTD SVG 1.1//EN"
 "http://www.w3.org/Graphics/SVG/1.1/DTD/svg11.dtd">
<!-- Generated by graphviz version 2.38.0 (20140413.2041)
 -->
<!-- Title: Framework/test/testDbFactory.cxx Pages: 1 -->
<svg width="942pt" height="308pt"
 viewBox="0.00 0.00 941.50 308.00" xmlns="http://www.w3.org/2000/svg" xmlns:xlink="http://www.w3.org/1999/xlink">
<g id="graph0" class="graph" transform="scale(1 1) rotate(0) translate(4 304)">
<title>Framework/test/testDbFactory.cxx</title>
<!-- Node1 -->
<g id="node1" class="node"><title>Node1</title>
<polygon fill="#bfbfbf" stroke="black" points="363,-280.5 363,-299.5 532,-299.5 532,-280.5 363,-280.5"/>
<text text-anchor="middle" x="447.5" y="-287.5" font-family="Helvetica,sans-Serif" font-size="10.00">Framework/test/testDbFactory.cxx</text>
</g>
<!-- Node2 -->
<g id="node2" class="node"><title>Node2</title>
<g id="a_node2"><a xlink:href="DatabaseFactory_8h.html" target="_top" xlink:title="QualityControl/DatabaseFactory.h">
<polygon fill="none" stroke="black" points="205,-224.5 205,-243.5 370,-243.5 370,-224.5 205,-224.5"/>
<text text-anchor="middle" x="287.5" y="-231.5" font-family="Helvetica,sans-Serif" font-size="10.00">QualityControl/DatabaseFactory.h</text>
</a>
</g>
</g>
<!-- Node1&#45;&gt;Node2 -->
<g id="edge1" class="edge"><title>Node1&#45;&gt;Node2</title>
<path fill="none" stroke="midnightblue" d="M422.148,-280.444C395.231,-271.359 352.504,-256.939 322.413,-246.783"/>
<polygon fill="midnightblue" stroke="midnightblue" points="323.328,-243.398 312.734,-243.516 321.09,-250.031 323.328,-243.398"/>
</g>
<!-- Node15 -->
<g id="node15" class="node"><title>Node15</title>
<g id="a_node15"><a xlink:href="MonitorObject_8h.html" target="_top" xlink:title="QualityControl/MonitorObject.h">
<polygon fill="none" stroke="black" points="101,-112.5 101,-131.5 252,-131.5 252,-112.5 101,-112.5"/>
<text text-anchor="middle" x="176.5" y="-119.5" font-family="Helvetica,sans-Serif" font-size="10.00">QualityControl/MonitorObject.h</text>
</a>
</g>
</g>
<!-- Node1&#45;&gt;Node15 -->
<g id="edge30" class="edge"><title>Node1&#45;&gt;Node15</title>
<path fill="none" stroke="midnightblue" d="M362.753,-284.249C298.868,-278.828 218.471,-267.457 195.5,-244 168.813,-216.748 170.196,-168.28 173.415,-141.707"/>
<polygon fill="midnightblue" stroke="midnightblue" points="176.883,-142.179 174.83,-131.785 169.953,-141.191 176.883,-142.179"/>
</g>
<!-- Node16 -->
<g id="node16" class="node"><title>Node16</title>
<g id="a_node16"><a xlink:href="QcInfoLogger_8h.html" target="_top" xlink:title="QualityControl/QcInfoLogger.h">
<polygon fill="none" stroke="black" points="0,-224.5 0,-243.5 149,-243.5 149,-224.5 0,-224.5"/>
<text text-anchor="middle" x="74.5" y="-231.5" font-family="Helvetica,sans-Serif" font-size="10.00">QualityControl/QcInfoLogger.h</text>
</a>
</g>
</g>
<!-- Node1&#45;&gt;Node16 -->
<g id="edge22" class="edge"><title>Node1&#45;&gt;Node16</title>
<path fill="none" stroke="midnightblue" d="M388.397,-280.444C321.828,-270.806 213.777,-255.163 143.424,-244.978"/>
<polygon fill="midnightblue" stroke="midnightblue" points="143.725,-241.485 133.326,-243.516 142.722,-248.413 143.725,-241.485"/>
</g>
<!-- Node18 -->
<g id="node18" class="node"><title>Node18</title>
<polygon fill="none" stroke="#bfbfbf" points="388,-224.5 388,-243.5 507,-243.5 507,-224.5 388,-224.5"/>
<text text-anchor="middle" x="447.5" y="-231.5" font-family="Helvetica,sans-Serif" font-size="10.00">boost/test/unit_test.hpp</text>
</g>
<!-- Node1&#45;&gt;Node18 -->
<g id="edge24" class="edge"><title>Node1&#45;&gt;Node18</title>
<path fill="none" stroke="midnightblue" d="M447.5,-280.083C447.5,-273.006 447.5,-262.861 447.5,-253.986"/>
<polygon fill="midnightblue" stroke="midnightblue" points="451,-253.751 447.5,-243.751 444,-253.751 451,-253.751"/>
</g>
<!-- Node19 -->
<g id="node19" class="node"><title>Node19</title>
<g id="a_node19"><a xlink:href="DummyDatabase_8h.html" target="_top" xlink:title="QualityControl/DummyDatabase.h">
<polygon fill="none" stroke="black" points="525,-224.5 525,-243.5 692,-243.5 692,-224.5 525,-224.5"/>
<text text-anchor="middle" x="608.5" y="-231.5" font-family="Helvetica,sans-Serif" font-size="10.00">QualityControl/DummyDatabase.h</text>
</a>
</g>
</g>
<!-- Node1&#45;&gt;Node19 -->
<g id="edge25" class="edge"><title>Node1&#45;&gt;Node19</title>
<path fill="none" stroke="midnightblue" d="M473.011,-280.444C500.096,-271.359 543.09,-256.939 573.369,-246.783"/>
<polygon fill="midnightblue" stroke="midnightblue" points="574.74,-250.015 583.108,-243.516 572.514,-243.378 574.74,-250.015"/>
</g>
<!-- Node20 -->
<g id="node20" class="node"><title>Node20</title>
<g id="a_node20"><a xlink:href="CcdbDatabase_8h.html" target="_top" xlink:title="QualityControl/CcdbDatabase.h">
<polygon fill="none" stroke="black" points="710,-224.5 710,-243.5 865,-243.5 865,-224.5 710,-224.5"/>
<text text-anchor="middle" x="787.5" y="-231.5" font-family="Helvetica,sans-Serif" font-size="10.00">QualityControl/CcdbDatabase.h</text>
</a>
</g>
</g>
<!-- Node1&#45;&gt;Node20 -->
<g id="edge27" class="edge"><title>Node1&#45;&gt;Node20</title>
<path fill="none" stroke="midnightblue" d="M501.374,-280.444C561.805,-270.846 659.738,-255.292 723.884,-245.104"/>
<polygon fill="midnightblue" stroke="midnightblue" points="724.551,-248.542 733.878,-243.516 723.453,-241.628 724.551,-248.542"/>
</g>
<!-- Node22 -->
<g id="node22" class="node"><title>Node22</title>
<polygon fill="none" stroke="#bfbfbf" points="883.5,-224.5 883.5,-243.5 933.5,-243.5 933.5,-224.5 883.5,-224.5"/>
<text text-anchor="middle" x="908.5" y="-231.5" font-family="Helvetica,sans-Serif" font-size="10.00">TH1F.h</text>
</g>
<!-- Node1&#45;&gt;Node22 -->
<g id="edge31" class="edge"><title>Node1&#45;&gt;Node22</title>
<path fill="none" stroke="midnightblue" d="M532.309,-283.92C616.586,-277.995 749.593,-266.28 873.316,-243.957"/>
<polygon fill="midnightblue" stroke="midnightblue" points="874.141,-247.364 883.347,-242.119 872.88,-240.478 874.141,-247.364"/>
</g>
<!-- Node3 -->
<g id="node3" class="node"><title>Node3</title>
<polygon fill="none" stroke="#bfbfbf" points="270.5,-112.5 270.5,-131.5 322.5,-131.5 322.5,-112.5 270.5,-112.5"/>
<text text-anchor="middle" x="296.5" y="-119.5" font-family="Helvetica,sans-Serif" font-size="10.00">memory</text>
</g>
<!-- Node2&#45;&gt;Node3 -->
<g id="edge2" class="edge"><title>Node2&#45;&gt;Node3</title>
<path fill="none" stroke="midnightblue" d="M288.206,-224.368C289.659,-206.617 293.009,-165.666 294.978,-141.597"/>
<polygon fill="midnightblue" stroke="midnightblue" points="298.47,-141.844 295.797,-131.591 291.493,-141.273 298.47,-141.844"/>
</g>
<!-- Node4 -->
<g id="node4" class="node"><title>Node4</title>
<g id="a_node4"><a xlink:href="DatabaseInterface_8h.html" target="_top" xlink:title="QualityControl/DatabaseInterface.h">
<polygon fill="none" stroke="black" points="431.5,-168.5 431.5,-187.5 601.5,-187.5 601.5,-168.5 431.5,-168.5"/>
<text text-anchor="middle" x="516.5" y="-175.5" font-family="Helvetica,sans-Serif" font-size="10.00">QualityControl/DatabaseInterface.h</text>
</a>
</g>
</g>
<!-- Node2&#45;&gt;Node4 -->
<g id="edge3" class="edge"><title>Node2&#45;&gt;Node4</title>
<path fill="none" stroke="midnightblue" d="M323.786,-224.444C363.483,-215.083 427.207,-200.056 470.412,-189.868"/>
<polygon fill="midnightblue" stroke="midnightblue" points="471.454,-193.218 480.384,-187.516 469.848,-186.405 471.454,-193.218"/>
</g>
<!-- Node4&#45;&gt;Node3 -->
<g id="edge5" class="edge"><title>Node4&#45;&gt;Node3</title>
<path fill="none" stroke="midnightblue" d="M480.655,-168.428C445.4,-159.964 389.789,-146.527 332.77,-132.296"/>
<polygon fill="midnightblue" stroke="midnightblue" points="333.414,-128.849 322.864,-129.819 331.716,-135.64 333.414,-128.849"/>
</g>
<!-- Node5 -->
<g id="node5" class="node"><title>Node5</title>
<polygon fill="none" stroke="#bfbfbf" points="474,-0.5 474,-19.5 515,-19.5 515,-0.5 474,-0.5"/>
<text text-anchor="middle" x="494.5" y="-7.5" font-family="Helvetica,sans-Serif" font-size="10.00">string</text>
</g>
<!-- Node4&#45;&gt;Node5 -->
<g id="edge4" class="edge"><title>Node4&#45;&gt;Node5</title>
<path fill="none" stroke="midnightblue" d="M537.517,-168.46C580.395,-149.801 671.104,-103.267 636.5,-56 611.136,-21.3548 558.943,-12.7203 525.39,-10.9302"/>
<polygon fill="midnightblue" stroke="midnightblue" points="525.328,-7.42582 515.209,-10.5652 525.077,-14.4213 525.328,-7.42582"/>
</g>
<!-- Node6 -->
<g id="node6" class="node"><title>Node6</title>
<polygon fill="none" stroke="#bfbfbf" points="683.5,-112.5 683.5,-131.5 727.5,-131.5 727.5,-112.5 683.5,-112.5"/>
<text text-anchor="middle" x="705.5" y="-119.5" font-family="Helvetica,sans-Serif" font-size="10.00">vector</text>
</g>
<!-- Node4&#45;&gt;Node6 -->
<g id="edge6" class="edge"><title>Node4&#45;&gt;Node6</title>
<path fill="none" stroke="midnightblue" d="M546.448,-168.444C581.121,-158.537 638.004,-142.285 673.519,-132.137"/>
<polygon fill="midnightblue" stroke="midnightblue" points="674.716,-135.436 683.37,-129.323 672.793,-128.705 674.716,-135.436"/>
</g>
<!-- Node7 -->
<g id="node7" class="node"><title>Node7</title>
<polygon fill="none" stroke="#bfbfbf" points="341,-112.5 341,-131.5 424,-131.5 424,-112.5 341,-112.5"/>
<text text-anchor="middle" x="382.5" y="-119.5" font-family="Helvetica,sans-Serif" font-size="10.00">unordered_map</text>
</g>
<!-- Node4&#45;&gt;Node7 -->
<g id="edge7" class="edge"><title>Node4&#45;&gt;Node7</title>
<path fill="none" stroke="midnightblue" d="M495.267,-168.444C473.116,-159.517 438.181,-145.439 413.064,-135.317"/>
<polygon fill="midnightblue" stroke="midnightblue" points="414.217,-132.008 403.633,-131.516 411.6,-138.501 414.217,-132.008"/>
</g>
<!-- Node8 -->
<g id="node8" class="node"><title>Node8</title>
<g id="a_node8"><a xlink:href="QualityObject_8h_source.html" target="_top" xlink:title="QualityControl/QualityObject.h">
<polygon fill="none" stroke="black" points="442,-112.5 442,-131.5 591,-131.5 591,-112.5 442,-112.5"/>
<text text-anchor="middle" x="516.5" y="-119.5" font-family="Helvetica,sans-Serif" font-size="10.00">QualityControl/QualityObject.h</text>
</a>
</g>
</g>
<!-- Node4&#45;&gt;Node8 -->
<g id="edge8" class="edge"><title>Node4&#45;&gt;Node8</title>
<path fill="none" stroke="midnightblue" d="M516.5,-168.083C516.5,-161.006 516.5,-150.861 516.5,-141.986"/>
<polygon fill="midnightblue" stroke="midnightblue" points="520,-141.751 516.5,-131.751 513,-141.751 520,-141.751"/>
</g>
<!-- Node4&#45;&gt;Node15 -->
<g id="edge16" class="edge"><title>Node4&#45;&gt;Node15</title>
<path fill="none" stroke="midnightblue" d="M462.626,-168.444C402.195,-158.846 304.262,-143.292 240.116,-133.104"/>
<polygon fill="midnightblue" stroke="midnightblue" points="240.547,-129.628 230.122,-131.516 239.449,-136.542 240.547,-129.628"/>
</g>
<!-- Node9 -->
<g id="node9" class="node"><title>Node9</title>
<polygon fill="none" stroke="#bfbfbf" points="573.5,-56.5 573.5,-75.5 627.5,-75.5 627.5,-56.5 573.5,-56.5"/>
<text text-anchor="middle" x="600.5" y="-63.5" font-family="Helvetica,sans-Serif" font-size="10.00">iostream</text>
</g>
<!-- Node8&#45;&gt;Node9 -->
<g id="edge9" class="edge"><title>Node8&#45;&gt;Node9</title>
<path fill="none" stroke="midnightblue" d="M529.996,-112.324C543.1,-103.9 563.212,-90.9709 578.607,-81.0741"/>
<polygon fill="midnightblue" stroke="midnightblue" points="580.518,-84.0063 587.037,-75.6545 576.733,-78.118 580.518,-84.0063"/>
</g>
<!-- Node10 -->
<g id="node10" class="node"><title>Node10</title>
<polygon fill="none" stroke="#bfbfbf" points="381,-56.5 381,-75.5 416,-75.5 416,-56.5 381,-56.5"/>
<text text-anchor="middle" x="398.5" y="-63.5" font-family="Helvetica,sans-Serif" font-size="10.00">map</text>
</g>
<!-- Node8&#45;&gt;Node10 -->
<g id="edge10" class="edge"><title>Node8&#45;&gt;Node10</title>
<path fill="none" stroke="midnightblue" d="M497.803,-112.444C478.329,-103.532 447.635,-89.4856 425.525,-79.3674"/>
<polygon fill="midnightblue" stroke="midnightblue" points="426.887,-76.1417 416.338,-75.1629 423.974,-82.5068 426.887,-76.1417"/>
</g>
<!-- Node11 -->
<g id="node11" class="node"><title>Node11</title>
<polygon fill="none" stroke="#bfbfbf" points="169,-56.5 169,-75.5 228,-75.5 228,-56.5 169,-56.5"/>
<text text-anchor="middle" x="198.5" y="-63.5" font-family="Helvetica,sans-Serif" font-size="10.00">TObject.h</text>
</g>
<!-- Node8&#45;&gt;Node11 -->
<g id="edge11" class="edge"><title>Node8&#45;&gt;Node11</title>
<path fill="none" stroke="midnightblue" d="M456.427,-112.497C401.998,-104.524 319.376,-91.7535 238.162,-76.0185"/>
<polygon fill="midnightblue" stroke="midnightblue" points="238.752,-72.5678 228.267,-74.0851 237.41,-79.4379 238.752,-72.5678"/>
</g>
<!-- Node12 -->
<g id="node12" class="node"><title>Node12</title>
<polygon fill="none" stroke="#bfbfbf" points="246.5,-56.5 246.5,-75.5 362.5,-75.5 362.5,-56.5 246.5,-56.5"/>
<text text-anchor="middle" x="304.5" y="-63.5" font-family="Helvetica,sans-Serif" font-size="10.00">Common/Exceptions.h</text>
</g>
<!-- Node8&#45;&gt;Node12 -->
<g id="edge12" class="edge"><title>Node8&#45;&gt;Node12</title>
<path fill="none" stroke="midnightblue" d="M482.908,-112.444C446.313,-103.122 387.662,-88.1828 347.674,-77.9972"/>
<polygon fill="midnightblue" stroke="midnightblue" points="348.489,-74.5932 337.935,-75.5164 346.761,-81.3766 348.489,-74.5932"/>
</g>
<!-- Node13 -->
<g id="node13" class="node"><title>Node13</title>
<g id="a_node13"><a xlink:href="Quality_8h.html" target="_top" xlink:title="QualityControl/Quality.h">
<polygon fill="none" stroke="black" points="434,-56.5 434,-75.5 555,-75.5 555,-56.5 434,-56.5"/>
<text text-anchor="middle" x="494.5" y="-63.5" font-family="Helvetica,sans-Serif" font-size="10.00">QualityControl/Quality.h</text>
</a>
</g>
</g>
<!-- Node8&#45;&gt;Node13 -->
<g id="edge13" class="edge"><title>Node8&#45;&gt;Node13</title>
<path fill="none" stroke="midnightblue" d="M512.867,-112.083C509.888,-104.77 505.574,-94.1814 501.875,-85.1034"/>
<polygon fill="midnightblue" stroke="midnightblue" points="505.08,-83.6914 498.065,-75.7511 498.597,-86.3326 505.08,-83.6914"/>
</g>
<!-- Node13&#45;&gt;Node5 -->
<g id="edge15" class="edge"><title>Node13&#45;&gt;Node5</title>
<path fill="none" stroke="midnightblue" d="M494.5,-56.083C494.5,-49.0059 494.5,-38.8611 494.5,-29.9865"/>
<polygon fill="midnightblue" stroke="midnightblue" points="498,-29.751 494.5,-19.7511 491,-29.7511 498,-29.751"/>
</g>
<!-- Node14 -->
<g id="node14" class="node"><title>Node14</title>
<polygon fill="none" stroke="#bfbfbf" points="237.5,-0.5 237.5,-19.5 293.5,-19.5 293.5,-0.5 237.5,-0.5"/>
<text text-anchor="middle" x="265.5" y="-7.5" font-family="Helvetica,sans-Serif" font-size="10.00">Rtypes.h</text>
</g>
<!-- Node13&#45;&gt;Node14 -->
<g id="edge14" class="edge"><title>Node13&#45;&gt;Node14</title>
<path fill="none" stroke="midnightblue" d="M458.214,-56.4435C415.948,-46.4769 346.446,-30.0877 303.471,-19.954"/>
<polygon fill="midnightblue" stroke="midnightblue" points="304.211,-16.5325 293.675,-17.6439 302.605,-23.3456 304.211,-16.5325"/>
</g>
<!-- Node15&#45;&gt;Node5 -->
<g id="edge17" class="edge"><title>Node15&#45;&gt;Node5</title>
<path fill="none" stroke="midnightblue" d="M169.869,-112.301C160.334,-98.6662 145.37,-72.1548 159.5,-56 179.379,-33.2722 383.833,-18.0025 463.222,-12.8895"/>
<polygon fill="midnightblue" stroke="midnightblue" points="463.803,-16.3598 473.562,-12.2357 463.361,-9.37377 463.803,-16.3598"/>
</g>
<!-- Node15&#45;&gt;Node10 -->
<g id="edge18" class="edge"><title>Node15&#45;&gt;Node10</title>
<path fill="none" stroke="midnightblue" d="M218.634,-112.485C256.235,-104.617 312.951,-92.0894 371.129,-75.8882"/>
<polygon fill="midnightblue" stroke="midnightblue" points="372.179,-79.2286 380.856,-73.1484 370.281,-72.4908 372.179,-79.2286"/>
</g>
<!-- Node15&#45;&gt;Node11 -->
<g id="edge20" class="edge"><title>Node15&#45;&gt;Node11</title>
<path fill="none" stroke="midnightblue" d="M180.133,-112.083C183.112,-104.77 187.426,-94.1814 191.125,-85.1034"/>
<polygon fill="midnightblue" stroke="midnightblue" points="194.403,-86.3326 194.935,-75.7511 187.92,-83.6914 194.403,-86.3326"/>
</g>
<!-- Node15&#45;&gt;Node12 -->
<g id="edge21" class="edge"><title>Node15&#45;&gt;Node12</title>
<path fill="none" stroke="midnightblue" d="M196.782,-112.444C217.847,-103.557 251.017,-89.5632 274.986,-79.4514"/>
<polygon fill="midnightblue" stroke="midnightblue" points="276.46,-82.6283 284.313,-75.5164 273.739,-76.1787 276.46,-82.6283"/>
</g>
<!-- Node15&#45;&gt;Node14 -->
<g id="edge19" class="edge"><title>Node15&#45;&gt;Node14</title>
<path fill="none" stroke="midnightblue" d="M161.582,-112.49C141.928,-100.177 111.51,-76.6094 126.5,-56 149.32,-24.6262 194.488,-14.6784 227.155,-11.7534"/>
<polygon fill="midnightblue" stroke="midnightblue" points="227.551,-15.2341 237.277,-11.0322 227.054,-8.25178 227.551,-15.2341"/>
</g>
<!-- Node17 -->
<g id="node17" class="node"><title>Node17</title>
<polygon fill="none" stroke="#bfbfbf" points="9.5,-168.5 9.5,-187.5 139.5,-187.5 139.5,-168.5 9.5,-168.5"/>
<text text-anchor="middle" x="74.5" y="-175.5" font-family="Helvetica,sans-Serif" font-size="10.00">InfoLogger/InfoLogger.hxx</text>
</g>
<!-- Node16&#45;&gt;Node17 -->
<g id="edge23" class="edge"><title>Node16&#45;&gt;Node17</title>
<path fill="none" stroke="midnightblue" d="M74.5,-224.083C74.5,-217.006 74.5,-206.861 74.5,-197.986"/>
<polygon fill="midnightblue" stroke="midnightblue" points="78.0001,-197.751 74.5,-187.751 71.0001,-197.751 78.0001,-197.751"/>
</g>
<!-- Node19&#45;&gt;Node4 -->
<g id="edge26" class="edge"><title>Node19&#45;&gt;Node4</title>
<path fill="none" stroke="midnightblue" d="M593.719,-224.324C579.233,-215.822 556.927,-202.729 540.007,-192.797"/>
<polygon fill="midnightblue" stroke="midnightblue" points="541.641,-189.698 531.245,-187.655 538.097,-195.735 541.641,-189.698"/>
</g>
<!-- Node20&#45;&gt;Node4 -->
<g id="edge29" class="edge"><title>Node20&#45;&gt;Node4</title>
<path fill="none" stroke="midnightblue" d="M744.559,-224.444C696.987,-214.964 620.256,-199.675 569.111,-189.483"/>
<polygon fill="midnightblue" stroke="midnightblue" points="569.731,-186.038 559.24,-187.516 568.363,-192.903 569.731,-186.038"/>
</g>
<!-- Node21 -->
<g id="node21" class="node"><title>Node21</title>
<polygon fill="none" stroke="#bfbfbf" points="740,-168.5 740,-187.5 835,-187.5 835,-168.5 740,-168.5"/>
<text text-anchor="middle" x="787.5" y="-175.5" font-family="Helvetica,sans-Serif" font-size="10.00">CCDB/CcdbApi.h</text>
</g>
<!-- Node20&#45;&gt;Node21 -->
<g id="edge28" class="edge"><title>Node20&#45;&gt;Node21</title>
<path fill="none" stroke="midnightblue" d="M787.5,-224.083C787.5,-217.006 787.5,-206.861 787.5,-197.986"/>
<polygon fill="midnightblue" stroke="midnightblue" points="791,-197.751 787.5,-187.751 784,-197.751 791,-197.751"/>
</g>
</g>
</svg>
