<?xml version="1.0" encoding="UTF-8" standalone="no"?>
<!DOCTYPE svg PUBLIC "-//W3C//DTD SVG 1.1//EN"
 "http://www.w3.org/Graphics/SVG/1.1/DTD/svg11.dtd">
<!-- Generated by graphviz version 2.38.0 (20140413.2041)
 -->
<!-- Title: Modules/TOF/test/testTOF.cxx Pages: 1 -->
<!--zoomable 319 -->
<svg id="main" version="1.1" xmlns="http://www.w3.org/2000/svg" xmlns:xlink="http://www.w3.org/1999/xlink" xml:space="preserve" onload="init(evt)">
<style type="text/css"><![CDATA[
.edge:hover path { stroke: red; }
.edge:hover polygon { stroke: red; fill: red; }
]]></style>
<script type="text/javascript"><![CDATA[
var edges = document.getElementsByTagName('g');
if (edges && edges.length) {
  for (var i=0;i<edges.length;i++) {
    if (edges[i].id.substr(0,4)=='edge') {
      edges[i].setAttribute('class','edge');
    }
  }
}
]]></script>
        <defs>
                <circle id="rim" cx="0" cy="0" r="7"/>
                <circle id="rim2" cx="0" cy="0" r="3.5"/>
                <g id="zoomPlus">
                        <use xlink:href="#rim" fill="#404040">
                                <set attributeName="fill" to="#808080" begin="zoomplus.mouseover" end="zoomplus.mouseout"/>
                        </use>
                        <path d="M-4,0h8M0,-4v8" fill="none" stroke="white" stroke-width="1.5" pointer-events="none"/>
                </g>
                <g id="zoomMin">
                        <use xlink:href="#rim" fill="#404040">
                                <set attributeName="fill" to="#808080" begin="zoomminus.mouseover" end="zoomminus.mouseout"/>
                        </use>
                        <path d="M-4,0h8" fill="none" stroke="white" stroke-width="1.5" pointer-events="none"/>
                </g>
                <g id="dirArrow">
                        <path fill="none" stroke="white" stroke-width="1.5" d="M0,-3.0v7 M-2.5,-0.5L0,-3.0L2.5,-0.5"/>
                </g>
               <g id="resetDef">
                       <use xlink:href="#rim2" fill="#404040">
                               <set attributeName="fill" to="#808080" begin="reset.mouseover" end="reset.mouseout"/>
                       </use>
               </g>
        </defs>

<script type="text/javascript">
var viewWidth = 985;
var viewHeight = 319;
var sectionId = 'dynsection-0';
</script>
<script xlink:href="svgpan.js"/>
<svg id="graph" class="graph">
<g id="viewport">
<title>Modules/TOF/test/testTOF.cxx</title>
<!-- Node1 -->
<g id="node1" class="node"><title>Node1</title>
<polygon fill="#bfbfbf" stroke="black" points="432.5,-291.5 432.5,-310.5 585.5,-310.5 585.5,-291.5 432.5,-291.5"/>
<text text-anchor="middle" x="509" y="-298.5" font-family="Helvetica,sans-Serif" font-size="10.00">Modules/TOF/test/testTOF.cxx</text>
</g>
<!-- Node2 -->
<g id="node2" class="node"><title>Node2</title>
<g id="a_node2"><a xlink:href="TaskFactory_8h.html" target="_top" xlink:title="QualityControl/TaskFactory.h">
<polygon fill="none" stroke="black" points="361.5,-235.5 361.5,-254.5 506.5,-254.5 506.5,-235.5 361.5,-235.5"/>
<text text-anchor="middle" x="434" y="-242.5" font-family="Helvetica,sans-Serif" font-size="10.00">QualityControl/TaskFactory.h</text>
</a>
</g>
</g>
<!-- Node1&#45;&gt;Node2 -->
<g id="edge1" class="edge"><title>Node1&#45;&gt;Node2</title>
<path fill="none" stroke="midnightblue" d="M496.95,-291.324C485.537,-283.107 468.169,-270.602 454.565,-260.807"/>
<polygon fill="midnightblue" stroke="midnightblue" points="456.43,-257.837 446.269,-254.834 452.34,-263.517 456.43,-257.837"/>
</g>
<!-- Node20 -->
<g id="node20" class="node"><title>Node20</title>
<polygon fill="none" stroke="#bfbfbf" points="524.5,-235.5 524.5,-254.5 643.5,-254.5 643.5,-235.5 524.5,-235.5"/>
<text text-anchor="middle" x="584" y="-242.5" font-family="Helvetica,sans-Serif" font-size="10.00">boost/test/unit_test.hpp</text>
</g>
<!-- Node1&#45;&gt;Node20 -->
<g id="edge27" class="edge"><title>Node1&#45;&gt;Node20</title>
<path fill="none" stroke="midnightblue" d="M521.05,-291.324C532.463,-283.107 549.831,-270.602 563.435,-260.807"/>
<polygon fill="midnightblue" stroke="midnightblue" points="565.66,-263.517 571.731,-254.834 561.57,-257.837 565.66,-263.517"/>
</g>
<!-- Node3 -->
<g id="node3" class="node"><title>Node3</title>
<polygon fill="none" stroke="#bfbfbf" points="0,-62 0,-81 52,-81 52,-62 0,-62"/>
<text text-anchor="middle" x="26" y="-69" font-family="Helvetica,sans-Serif" font-size="10.00">memory</text>
</g>
<!-- Node2&#45;&gt;Node3 -->
<g id="edge2" class="edge"><title>Node2&#45;&gt;Node3</title>
<path fill="none" stroke="midnightblue" d="M361.163,-241.871C279.259,-235.848 146.439,-214.72 60,-143 44.0259,-129.746 35.0098,-107.209 30.3354,-91.1856"/>
<polygon fill="midnightblue" stroke="midnightblue" points="33.6742,-90.1184 27.7608,-81.3273 26.9013,-91.8872 33.6742,-90.1184"/>
</g>
<!-- Node4 -->
<g id="node4" class="node"><title>Node4</title>
<g id="a_node4"><a xlink:href="TaskConfig_8h.html" target="_top" xlink:title="QualityControl/TaskConfig.h">
<polygon fill="none" stroke="black" points="811,-62 811,-81 951,-81 951,-62 811,-62"/>
<text text-anchor="middle" x="881" y="-69" font-family="Helvetica,sans-Serif" font-size="10.00">QualityControl/TaskConfig.h</text>
</a>
</g>
</g>
<!-- Node2&#45;&gt;Node4 -->
<g id="edge3" class="edge"><title>Node2&#45;&gt;Node4</title>
<path fill="none" stroke="midnightblue" d="M482.17,-235.487C551.291,-222.085 681.464,-192.381 783,-143 813.728,-128.056 845.064,-103.553 863.771,-87.7275"/>
<polygon fill="midnightblue" stroke="midnightblue" points="866.136,-90.3098 871.43,-81.1324 861.569,-85.0054 866.136,-90.3098"/>
</g>
<!-- Node7 -->
<g id="node7" class="node"><title>Node7</title>
<g id="a_node7"><a xlink:href="TaskInterface_8h.html" target="_top" xlink:title="QualityControl/TaskInterface.h">
<polygon fill="none" stroke="black" points="359,-179.5 359,-198.5 509,-198.5 509,-179.5 359,-179.5"/>
<text text-anchor="middle" x="434" y="-186.5" font-family="Helvetica,sans-Serif" font-size="10.00">QualityControl/TaskInterface.h</text>
</a>
</g>
</g>
<!-- Node2&#45;&gt;Node7 -->
<g id="edge6" class="edge"><title>Node2&#45;&gt;Node7</title>
<path fill="none" stroke="midnightblue" d="M434,-235.083C434,-228.006 434,-217.861 434,-208.986"/>
<polygon fill="midnightblue" stroke="midnightblue" points="437.5,-208.751 434,-198.751 430.5,-208.751 437.5,-208.751"/>
</g>
<!-- Node5 -->
<g id="node5" class="node"><title>Node5</title>
<polygon fill="none" stroke="#bfbfbf" points="452.5,-0.5 452.5,-19.5 493.5,-19.5 493.5,-0.5 452.5,-0.5"/>
<text text-anchor="middle" x="473" y="-7.5" font-family="Helvetica,sans-Serif" font-size="10.00">string</text>
</g>
<!-- Node4&#45;&gt;Node5 -->
<g id="edge4" class="edge"><title>Node4&#45;&gt;Node5</title>
<path fill="none" stroke="midnightblue" d="M812.717,-61.9748C718.942,-50.1821 556.707,-29.4506 503.44,-19.6134"/>
<polygon fill="midnightblue" stroke="midnightblue" points="504.038,-16.1636 493.545,-17.6317 502.663,-23.0273 504.038,-16.1636"/>
</g>
<!-- Node6 -->
<g id="node6" class="node"><title>Node6</title>
<polygon fill="none" stroke="#bfbfbf" points="893.5,-0.5 893.5,-19.5 976.5,-19.5 976.5,-0.5 893.5,-0.5"/>
<text text-anchor="middle" x="935" y="-7.5" font-family="Helvetica,sans-Serif" font-size="10.00">unordered_map</text>
</g>
<!-- Node4&#45;&gt;Node6 -->
<g id="edge5" class="edge"><title>Node4&#45;&gt;Node6</title>
<path fill="none" stroke="midnightblue" d="M888.737,-61.9751C896.997,-52.8733 910.277,-38.241 920.494,-26.983"/>
<polygon fill="midnightblue" stroke="midnightblue" points="923.149,-29.2663 927.277,-19.5091 917.965,-24.5619 923.149,-29.2663"/>
</g>
<!-- Node7&#45;&gt;Node3 -->
<g id="edge8" class="edge"><title>Node7&#45;&gt;Node3</title>
<path fill="none" stroke="midnightblue" d="M358.864,-184.395C271.517,-179.142 133.512,-167.24 88,-143 65.1509,-130.83 46.7887,-106.624 36.141,-90.0013"/>
<polygon fill="midnightblue" stroke="midnightblue" points="38.9878,-87.9475 30.7877,-81.2387 33.0143,-91.5969 38.9878,-87.9475"/>
</g>
<!-- Node7&#45;&gt;Node5 -->
<g id="edge9" class="edge"><title>Node7&#45;&gt;Node5</title>
<path fill="none" stroke="midnightblue" d="M358.808,-188.05C276.187,-186.315 151.154,-177.8 121,-143 115.179,-136.282 115.753,-130.175 121,-123 125.951,-116.229 358.032,-45.684 442.592,-20.1559"/>
<polygon fill="midnightblue" stroke="midnightblue" points="443.813,-23.4435 452.376,-17.2045 441.791,-16.7418 443.813,-23.4435"/>
</g>
<!-- Node7&#45;&gt;Node6 -->
<g id="edge10" class="edge"><title>Node7&#45;&gt;Node6</title>
<path fill="none" stroke="midnightblue" d="M509.142,-185.593C641.599,-179.52 907.628,-158.5 960,-87 973.02,-69.2252 960.306,-44.2985 948.751,-27.9074"/>
<polygon fill="midnightblue" stroke="midnightblue" points="951.436,-25.6559 942.621,-19.7791 945.847,-29.8706 951.436,-25.6559"/>
</g>
<!-- Node8 -->
<g id="node8" class="node"><title>Node8</title>
<polygon fill="none" stroke="#bfbfbf" points="797.5,-0.5 797.5,-19.5 832.5,-19.5 832.5,-0.5 797.5,-0.5"/>
<text text-anchor="middle" x="815" y="-7.5" font-family="Helvetica,sans-Serif" font-size="10.00">map</text>
</g>
<!-- Node7&#45;&gt;Node8 -->
<g id="edge7" class="edge"><title>Node7&#45;&gt;Node8</title>
<path fill="none" stroke="midnightblue" d="M509.152,-186.438C594.129,-183.203 725.667,-173.296 764,-143 773.305,-135.646 797.59,-64.2819 808.962,-29.6579"/>
<polygon fill="midnightblue" stroke="midnightblue" points="812.392,-30.4274 812.165,-19.835 805.737,-28.2573 812.392,-30.4274"/>
</g>
<!-- Node9 -->
<g id="node9" class="node"><title>Node9</title>
<polygon fill="none" stroke="#bfbfbf" points="130.5,-123.5 130.5,-142.5 255.5,-142.5 255.5,-123.5 130.5,-123.5"/>
<text text-anchor="middle" x="193" y="-130.5" font-family="Helvetica,sans-Serif" font-size="10.00">Framework/InitContext.h</text>
</g>
<!-- Node7&#45;&gt;Node9 -->
<g id="edge11" class="edge"><title>Node7&#45;&gt;Node9</title>
<path fill="none" stroke="midnightblue" d="M395.813,-179.444C353.859,-170.043 286.406,-154.929 240.929,-144.739"/>
<polygon fill="midnightblue" stroke="midnightblue" points="241.532,-141.288 231.009,-142.516 240.001,-148.118 241.532,-141.288"/>
</g>
<!-- Node10 -->
<g id="node10" class="node"><title>Node10</title>
<polygon fill="none" stroke="#bfbfbf" points="274,-123.5 274,-142.5 434,-142.5 434,-123.5 274,-123.5"/>
<text text-anchor="middle" x="354" y="-130.5" font-family="Helvetica,sans-Serif" font-size="10.00">Framework/ProcessingContext.h</text>
</g>
<!-- Node7&#45;&gt;Node10 -->
<g id="edge12" class="edge"><title>Node7&#45;&gt;Node10</title>
<path fill="none" stroke="midnightblue" d="M421.147,-179.324C408.784,-170.979 389.87,-158.212 375.263,-148.352"/>
<polygon fill="midnightblue" stroke="midnightblue" points="377.068,-145.348 366.821,-142.655 373.152,-151.15 377.068,-145.348"/>
</g>
<!-- Node11 -->
<g id="node11" class="node"><title>Node11</title>
<g id="a_node11"><a xlink:href="Activity_8h.html" target="_top" xlink:title="QualityControl/Activity.h">
<polygon fill="none" stroke="black" points="452.5,-123.5 452.5,-142.5 575.5,-142.5 575.5,-123.5 452.5,-123.5"/>
<text text-anchor="middle" x="514" y="-130.5" font-family="Helvetica,sans-Serif" font-size="10.00">QualityControl/Activity.h</text>
</a>
</g>
</g>
<!-- Node7&#45;&gt;Node11 -->
<g id="edge13" class="edge"><title>Node7&#45;&gt;Node11</title>
<path fill="none" stroke="midnightblue" d="M446.853,-179.324C459.216,-170.979 478.13,-158.212 492.737,-148.352"/>
<polygon fill="midnightblue" stroke="midnightblue" points="494.848,-151.15 501.179,-142.655 490.932,-145.348 494.848,-151.15"/>
</g>
<!-- Node12 -->
<g id="node12" class="node"><title>Node12</title>
<g id="a_node12"><a xlink:href="ObjectsManager_8h.html" target="_top" xlink:title="QualityControl/ObjectsManager.h">
<polygon fill="none" stroke="black" points="593.5,-123.5 593.5,-142.5 754.5,-142.5 754.5,-123.5 593.5,-123.5"/>
<text text-anchor="middle" x="674" y="-130.5" font-family="Helvetica,sans-Serif" font-size="10.00">QualityControl/ObjectsManager.h</text>
</a>
</g>
</g>
<!-- Node7&#45;&gt;Node12 -->
<g id="edge14" class="edge"><title>Node7&#45;&gt;Node12</title>
<path fill="none" stroke="midnightblue" d="M472.029,-179.444C513.808,-170.043 580.982,-154.929 626.27,-144.739"/>
<polygon fill="midnightblue" stroke="midnightblue" points="627.161,-148.126 636.149,-142.516 625.625,-141.297 627.161,-148.126"/>
</g>
<!-- Node12&#45;&gt;Node3 -->
<g id="edge26" class="edge"><title>Node12&#45;&gt;Node3</title>
<path fill="none" stroke="midnightblue" d="M593.058,-123.787C590,-123.514 586.973,-123.251 584,-123 351.831,-103.406 287.819,-140.286 61,-87 58.3308,-86.3729 55.6028,-85.5656 52.9059,-84.6533"/>
<polygon fill="midnightblue" stroke="midnightblue" points="54.0259,-81.3343 43.4356,-81.0241 51.5209,-87.8708 54.0259,-81.3343"/>
</g>
<!-- Node12&#45;&gt;Node4 -->
<g id="edge24" class="edge"><title>Node12&#45;&gt;Node4</title>
<path fill="none" stroke="midnightblue" d="M703.658,-123.475C739.934,-113.048 801.464,-95.3618 841.664,-83.8066"/>
<polygon fill="midnightblue" stroke="midnightblue" points="842.753,-87.1355 851.397,-81.0091 840.819,-80.4079 842.753,-87.1355"/>
</g>
<!-- Node12&#45;&gt;Node5 -->
<g id="edge25" class="edge"><title>Node12&#45;&gt;Node5</title>
<path fill="none" stroke="midnightblue" d="M656.81,-123.493C639.456,-114.767 612.004,-100.585 589,-87 554.776,-66.7885 516.453,-41.0396 493.55,-25.3001"/>
<polygon fill="midnightblue" stroke="midnightblue" points="495.507,-22.3987 485.29,-19.5976 491.53,-28.1593 495.507,-22.3987"/>
</g>
<!-- Node13 -->
<g id="node13" class="node"><title>Node13</title>
<g id="a_node13"><a xlink:href="MonitorObject_8h.html" target="_top" xlink:title="QualityControl/MonitorObject.h">
<polygon fill="none" stroke="black" points="598.5,-62 598.5,-81 749.5,-81 749.5,-62 598.5,-62"/>
<text text-anchor="middle" x="674" y="-69" font-family="Helvetica,sans-Serif" font-size="10.00">QualityControl/MonitorObject.h</text>
</a>
</g>
</g>
<!-- Node12&#45;&gt;Node13 -->
<g id="edge15" class="edge"><title>Node12&#45;&gt;Node13</title>
<path fill="none" stroke="midnightblue" d="M674,-123.475C674,-115.08 674,-101.981 674,-91.1631"/>
<polygon fill="midnightblue" stroke="midnightblue" points="677.5,-91.0091 674,-81.0091 670.5,-91.0091 677.5,-91.0091"/>
</g>
<!-- Node17 -->
<g id="node17" class="node"><title>Node17</title>
<g id="a_node17"><a xlink:href="MonitorObjectCollection_8h.html" target="_top" xlink:title="QualityControl/MonitorObject\lCollection.h">
<polygon fill="none" stroke="black" points="70.5,-56.5 70.5,-86.5 213.5,-86.5 213.5,-56.5 70.5,-56.5"/>
<text text-anchor="start" x="78.5" y="-74.5" font-family="Helvetica,sans-Serif" font-size="10.00">QualityControl/MonitorObject</text>
<text text-anchor="middle" x="142" y="-63.5" font-family="Helvetica,sans-Serif" font-size="10.00">Collection.h</text>
</a>
</g>
</g>
<!-- Node12&#45;&gt;Node17 -->
<g id="edge21" class="edge"><title>Node12&#45;&gt;Node17</title>
<path fill="none" stroke="midnightblue" d="M597.777,-123.475C498.513,-112.373 325.677,-93.0429 223.761,-81.6444"/>
<polygon fill="midnightblue" stroke="midnightblue" points="224.148,-78.1659 213.821,-80.5326 223.37,-85.1225 224.148,-78.1659"/>
</g>
<!-- Node13&#45;&gt;Node5 -->
<g id="edge16" class="edge"><title>Node13&#45;&gt;Node5</title>
<path fill="none" stroke="midnightblue" d="M644.943,-61.96C612.772,-52.496 559.122,-36.6867 503.35,-20.095"/>
<polygon fill="midnightblue" stroke="midnightblue" points="504.236,-16.707 493.653,-17.2087 502.239,-23.4161 504.236,-16.707"/>
</g>
<!-- Node13&#45;&gt;Node8 -->
<g id="edge17" class="edge"><title>Node13&#45;&gt;Node8</title>
<path fill="none" stroke="midnightblue" d="M694.202,-61.9751C718.752,-51.6151 760.283,-34.0897 787.674,-22.531"/>
<polygon fill="midnightblue" stroke="midnightblue" points="789.216,-25.6794 797.068,-18.5669 786.494,-19.2301 789.216,-25.6794"/>
</g>
<!-- Node14 -->
<g id="node14" class="node"><title>Node14</title>
<polygon fill="none" stroke="#bfbfbf" points="646,-0.5 646,-19.5 702,-19.5 702,-0.5 646,-0.5"/>
<text text-anchor="middle" x="674" y="-7.5" font-family="Helvetica,sans-Serif" font-size="10.00">Rtypes.h</text>
</g>
<!-- Node13&#45;&gt;Node14 -->
<g id="edge18" class="edge"><title>Node13&#45;&gt;Node14</title>
<path fill="none" stroke="midnightblue" d="M674,-61.9751C674,-53.5803 674,-40.4806 674,-29.6631"/>
<polygon fill="midnightblue" stroke="midnightblue" points="677.5,-29.5091 674,-19.5091 670.5,-29.5091 677.5,-29.5091"/>
</g>
<!-- Node15 -->
<g id="node15" class="node"><title>Node15</title>
<polygon fill="none" stroke="#bfbfbf" points="720.5,-0.5 720.5,-19.5 779.5,-19.5 779.5,-0.5 720.5,-0.5"/>
<text text-anchor="middle" x="750" y="-7.5" font-family="Helvetica,sans-Serif" font-size="10.00">TObject.h</text>
</g>
<!-- Node13&#45;&gt;Node15 -->
<g id="edge19" class="edge"><title>Node13&#45;&gt;Node15</title>
<path fill="none" stroke="midnightblue" d="M684.889,-61.9751C696.966,-52.5199 716.667,-37.0961 731.24,-25.6871"/>
<polygon fill="midnightblue" stroke="midnightblue" points="733.415,-28.4295 739.131,-19.5091 729.1,-22.9177 733.415,-28.4295"/>
</g>
<!-- Node16 -->
<g id="node16" class="node"><title>Node16</title>
<polygon fill="none" stroke="#bfbfbf" points="512,-0.5 512,-19.5 628,-19.5 628,-0.5 512,-0.5"/>
<text text-anchor="middle" x="570" y="-7.5" font-family="Helvetica,sans-Serif" font-size="10.00">Common/Exceptions.h</text>
</g>
<!-- Node13&#45;&gt;Node16 -->
<g id="edge20" class="edge"><title>Node13&#45;&gt;Node16</title>
<path fill="none" stroke="midnightblue" d="M659.099,-61.9751C642.032,-52.2106 613.839,-36.0807 593.738,-24.5808"/>
<polygon fill="midnightblue" stroke="midnightblue" points="595.291,-21.4371 584.873,-19.5091 591.815,-27.513 595.291,-21.4371"/>
</g>
<!-- Node18 -->
<g id="node18" class="node"><title>Node18</title>
<polygon fill="none" stroke="#bfbfbf" points="166.5,-0.5 166.5,-19.5 235.5,-19.5 235.5,-0.5 166.5,-0.5"/>
<text text-anchor="middle" x="201" y="-7.5" font-family="Helvetica,sans-Serif" font-size="10.00">TObjArray.h</text>
</g>
<!-- Node17&#45;&gt;Node18 -->
<g id="edge22" class="edge"><title>Node17&#45;&gt;Node18</title>
<path fill="none" stroke="midnightblue" d="M155.982,-56.3993C164.732,-47.575 176.029,-36.1827 185.117,-27.0178"/>
<polygon fill="midnightblue" stroke="midnightblue" points="187.859,-29.2231 192.415,-19.6578 182.888,-24.2942 187.859,-29.2231"/>
</g>
<!-- Node19 -->
<g id="node19" class="node"><title>Node19</title>
<polygon fill="none" stroke="#bfbfbf" points="20,-0.5 20,-19.5 148,-19.5 148,-0.5 20,-0.5"/>
<text text-anchor="middle" x="84" y="-7.5" font-family="Helvetica,sans-Serif" font-size="10.00">Mergers/MergeInterface.h</text>
</g>
<!-- Node17&#45;&gt;Node19 -->
<g id="edge23" class="edge"><title>Node17&#45;&gt;Node19</title>
<path fill="none" stroke="midnightblue" d="M128.255,-56.3993C119.653,-47.575 108.548,-36.1827 99.614,-27.0178"/>
<polygon fill="midnightblue" stroke="midnightblue" points="101.926,-24.3755 92.4395,-19.6578 96.9135,-29.2616 101.926,-24.3755"/>
</g>
</g>
</svg>
        <g id="navigator" transform="translate(0 0)" fill="#404254">
                <rect fill="#f2f5e9" fill-opacity="0.5" stroke="#606060" stroke-width=".5" x="0" y="0" width="60" height="60"/>
                <use id="zoomplus" xlink:href="#zoomPlus" x="17" y="9" onmousedown="handleZoom(evt,'in')"/>
                <use id="zoomminus" xlink:href="#zoomMin" x="42" y="9" onmousedown="handleZoom(evt,'out')"/>
                <use id="reset" xlink:href="#resetDef" x="30" y="36" onmousedown="handleReset()"/>
                <g id="arrowUp" xlink:href="#dirArrow" transform="translate(30 24)" onmousedown="handlePan(0,-1)">
                  <use xlink:href="#rim" fill="#404040">
                        <set attributeName="fill" to="#808080" begin="arrowUp.mouseover" end="arrowUp.mouseout"/>
                  </use>
                  <path fill="none" stroke="white" stroke-width="1.5" d="M0,-3.0v7 M-2.5,-0.5L0,-3.0L2.5,-0.5"/>
                </g>
                <g id="arrowRight" xlink:href="#dirArrow" transform="rotate(90) translate(36 -43)" onmousedown="handlePan(1,0)">
                  <use xlink:href="#rim" fill="#404040">
                        <set attributeName="fill" to="#808080" begin="arrowRight.mouseover" end="arrowRight.mouseout"/>
                  </use>
                  <path fill="none" stroke="white" stroke-width="1.5" d="M0,-3.0v7 M-2.5,-0.5L0,-3.0L2.5,-0.5"/>
                </g>
                <g id="arrowDown" xlink:href="#dirArrow" transform="rotate(180) translate(-30 -48)" onmousedown="handlePan(0,1)">
                  <use xlink:href="#rim" fill="#404040">
                        <set attributeName="fill" to="#808080" begin="arrowDown.mouseover" end="arrowDown.mouseout"/>
                  </use>
                  <path fill="none" stroke="white" stroke-width="1.5" d="M0,-3.0v7 M-2.5,-0.5L0,-3.0L2.5,-0.5"/>
                </g>
                <g id="arrowLeft" xlink:href="#dirArrow" transform="rotate(270) translate(-36 17)" onmousedown="handlePan(-1,0)">
                  <use xlink:href="#rim" fill="#404040">
                        <set attributeName="fill" to="#808080" begin="arrowLeft.mouseover" end="arrowLeft.mouseout"/>
                  </use>
                  <path fill="none" stroke="white" stroke-width="1.5" d="M0,-3.0v7 M-2.5,-0.5L0,-3.0L2.5,-0.5"/>
                </g>
        </g>
        <svg viewBox="0 0 15 15" width="100%" height="30px" preserveAspectRatio="xMaxYMin meet">
         <g id="arrow_out" transform="scale(0.3 0.3)">
          <a xlink:href="testTOF_8cxx__incl_org.svg" target="_base">
           <rect id="button" ry="5" rx="5" y="6" x="6" height="38" width="38"
                fill="#f2f5e9" fill-opacity="0.5" stroke="#606060" stroke-width="1.0"/>
           <path id="arrow"
             d="M 11.500037,31.436501 C 11.940474,20.09759 22.043105,11.32322 32.158766,21.979434 L 37.068811,17.246167 C 37.068811,17.246167 37.088388,32 37.088388,32 L 22.160133,31.978069 C 22.160133,31.978069 26.997745,27.140456 26.997745,27.140456 C 18.528582,18.264221 13.291696,25.230495 11.500037,31.436501 z"
             style="fill:#404040;"/>
          </a>
         </g>
        </svg>
</svg>
