<?xml version="1.0" encoding="UTF-8" standalone="no"?>
<!DOCTYPE svg PUBLIC "-//W3C//DTD SVG 1.1//EN"
 "http://www.w3.org/Graphics/SVG/1.1/DTD/svg11.dtd">
<!-- Generated by graphviz version 2.38.0 (20140413.2041)
 -->
<!-- Title: Framework/test/testTaskInterface.cxx Pages: 1 -->
<svg width="1424pt" height="319pt"
 viewBox="0.00 0.00 1423.50 319.00" xmlns="http://www.w3.org/2000/svg" xmlns:xlink="http://www.w3.org/1999/xlink">
<g id="graph0" class="graph" transform="scale(1 1) rotate(0) translate(4 315)">
<title>Framework/test/testTaskInterface.cxx</title>
<!-- Node1 -->
<g id="node1" class="node"><title>Node1</title>
<polygon fill="#bfbfbf" stroke="black" points="759.5,-291.5 759.5,-310.5 942.5,-310.5 942.5,-291.5 759.5,-291.5"/>
<text text-anchor="middle" x="851" y="-298.5" font-family="Helvetica,sans-Serif" font-size="10.00">Framework/test/testTaskInterface.cxx</text>
</g>
<!-- Node2 -->
<g id="node2" class="node"><title>Node2</title>
<g id="a_node2"><a xlink:href="TaskFactory_8h.html" target="_top" xlink:title="QualityControl/TaskFactory.h">
<polygon fill="none" stroke="black" points="432.5,-235.5 432.5,-254.5 577.5,-254.5 577.5,-235.5 432.5,-235.5"/>
<text text-anchor="middle" x="505" y="-242.5" font-family="Helvetica,sans-Serif" font-size="10.00">QualityControl/TaskFactory.h</text>
</a>
</g>
</g>
<!-- Node1&#45;&gt;Node2 -->
<g id="edge1" class="edge"><title>Node1&#45;&gt;Node2</title>
<path fill="none" stroke="midnightblue" d="M796.175,-291.444C734.678,-281.846 635.016,-266.292 569.739,-256.104"/>
<polygon fill="midnightblue" stroke="midnightblue" points="569.988,-252.6 559.568,-254.516 568.909,-259.517 569.988,-252.6"/>
</g>
<!-- Node7 -->
<g id="node7" class="node"><title>Node7</title>
<g id="a_node7"><a xlink:href="TaskInterface_8h.html" target="_top" xlink:title="QualityControl/TaskInterface.h">
<polygon fill="none" stroke="black" points="571,-179.5 571,-198.5 721,-198.5 721,-179.5 571,-179.5"/>
<text text-anchor="middle" x="646" y="-186.5" font-family="Helvetica,sans-Serif" font-size="10.00">QualityControl/TaskInterface.h</text>
</a>
</g>
</g>
<!-- Node1&#45;&gt;Node7 -->
<g id="edge27" class="edge"><title>Node1&#45;&gt;Node7</title>
<path fill="none" stroke="midnightblue" d="M822.908,-291.398C798.834,-283.494 763.618,-270.65 735,-255 708.696,-240.616 681.251,-219.489 663.915,-205.263"/>
<polygon fill="midnightblue" stroke="midnightblue" points="665.753,-202.238 655.83,-198.524 661.271,-207.615 665.753,-202.238"/>
</g>
<!-- Node9 -->
<g id="node9" class="node"><title>Node9</title>
<polygon fill="none" stroke="#bfbfbf" points="928.5,-123.5 928.5,-142.5 1053.5,-142.5 1053.5,-123.5 928.5,-123.5"/>
<text text-anchor="middle" x="991" y="-130.5" font-family="Helvetica,sans-Serif" font-size="10.00">Framework/InitContext.h</text>
</g>
<!-- Node1&#45;&gt;Node9 -->
<g id="edge31" class="edge"><title>Node1&#45;&gt;Node9</title>
<path fill="none" stroke="midnightblue" d="M818.014,-291.438C799.537,-284.769 778.048,-273.453 767,-255 756.626,-237.674 762.391,-194.063 777,-179 787.385,-168.293 865.67,-153.773 924.574,-144.156"/>
<polygon fill="midnightblue" stroke="midnightblue" points="925.272,-147.589 934.585,-142.538 924.155,-140.679 925.272,-147.589"/>
</g>
<!-- Node20 -->
<g id="node20" class="node"><title>Node20</title>
<g id="a_node20"><a xlink:href="QcInfoLogger_8h.html" target="_top" xlink:title="QualityControl/QcInfoLogger.h">
<polygon fill="none" stroke="black" points="776.5,-235.5 776.5,-254.5 925.5,-254.5 925.5,-235.5 776.5,-235.5"/>
<text text-anchor="middle" x="851" y="-242.5" font-family="Helvetica,sans-Serif" font-size="10.00">QualityControl/QcInfoLogger.h</text>
</a>
</g>
</g>
<!-- Node1&#45;&gt;Node20 -->
<g id="edge28" class="edge"><title>Node1&#45;&gt;Node20</title>
<path fill="none" stroke="midnightblue" d="M851,-291.083C851,-284.006 851,-273.861 851,-264.986"/>
<polygon fill="midnightblue" stroke="midnightblue" points="854.5,-264.751 851,-254.751 847.5,-264.751 854.5,-264.751"/>
</g>
<!-- Node22 -->
<g id="node22" class="node"><title>Node22</title>
<polygon fill="none" stroke="#bfbfbf" points="944,-235.5 944,-254.5 1114,-254.5 1114,-235.5 944,-235.5"/>
<text text-anchor="middle" x="1029" y="-242.5" font-family="Helvetica,sans-Serif" font-size="10.00">Framework/ConfigParamRegistry.h</text>
</g>
<!-- Node1&#45;&gt;Node22 -->
<g id="edge30" class="edge"><title>Node1&#45;&gt;Node22</title>
<path fill="none" stroke="midnightblue" d="M879.205,-291.444C909.41,-282.28 957.511,-267.688 991.029,-257.519"/>
<polygon fill="midnightblue" stroke="midnightblue" points="992.374,-260.769 1000.93,-254.516 990.342,-254.07 992.374,-260.769"/>
</g>
<!-- Node23 -->
<g id="node23" class="node"><title>Node23</title>
<polygon fill="none" stroke="#bfbfbf" points="1132,-235.5 1132,-254.5 1278,-254.5 1278,-235.5 1132,-235.5"/>
<text text-anchor="middle" x="1205" y="-242.5" font-family="Helvetica,sans-Serif" font-size="10.00">Framework/ServiceRegistry.h</text>
</g>
<!-- Node1&#45;&gt;Node23 -->
<g id="edge32" class="edge"><title>Node1&#45;&gt;Node23</title>
<path fill="none" stroke="midnightblue" d="M907.092,-291.444C970.141,-281.826 1072.4,-266.228 1139.18,-256.041"/>
<polygon fill="midnightblue" stroke="midnightblue" points="1139.81,-259.484 1149.17,-254.516 1138.76,-252.565 1139.81,-259.484"/>
</g>
<!-- Node24 -->
<g id="node24" class="node"><title>Node24</title>
<polygon fill="none" stroke="#bfbfbf" points="1296.5,-235.5 1296.5,-254.5 1415.5,-254.5 1415.5,-235.5 1296.5,-235.5"/>
<text text-anchor="middle" x="1356" y="-242.5" font-family="Helvetica,sans-Serif" font-size="10.00">boost/test/unit_test.hpp</text>
</g>
<!-- Node1&#45;&gt;Node24 -->
<g id="edge33" class="edge"><title>Node1&#45;&gt;Node24</title>
<path fill="none" stroke="midnightblue" d="M940.425,-291.479C1026.29,-283.135 1159.93,-269.723 1285.95,-255.094"/>
<polygon fill="midnightblue" stroke="midnightblue" points="1286.65,-258.537 1296.17,-253.903 1285.84,-251.585 1286.65,-258.537"/>
</g>
<!-- Node3 -->
<g id="node3" class="node"><title>Node3</title>
<polygon fill="none" stroke="#bfbfbf" points="39,-62 39,-81 91,-81 91,-62 39,-62"/>
<text text-anchor="middle" x="65" y="-69" font-family="Helvetica,sans-Serif" font-size="10.00">memory</text>
</g>
<!-- Node2&#45;&gt;Node3 -->
<g id="edge2" class="edge"><title>Node2&#45;&gt;Node3</title>
<path fill="none" stroke="midnightblue" d="M471.323,-235.453C413.117,-220.173 290.473,-185.735 192,-143 153.641,-126.353 111.692,-101.694 86.8968,-86.3854"/>
<polygon fill="midnightblue" stroke="midnightblue" points="88.6148,-83.332 78.277,-81.0124 84.9119,-89.2725 88.6148,-83.332"/>
</g>
<!-- Node4 -->
<g id="node4" class="node"><title>Node4</title>
<g id="a_node4"><a xlink:href="TaskConfig_8h.html" target="_top" xlink:title="QualityControl/TaskConfig.h">
<polygon fill="none" stroke="black" points="478,-62 478,-81 618,-81 618,-62 478,-62"/>
<text text-anchor="middle" x="548" y="-69" font-family="Helvetica,sans-Serif" font-size="10.00">QualityControl/TaskConfig.h</text>
</a>
</g>
</g>
<!-- Node2&#45;&gt;Node4 -->
<g id="edge3" class="edge"><title>Node2&#45;&gt;Node4</title>
<path fill="none" stroke="midnightblue" d="M500.221,-235.295C489.6,-214.695 466.387,-161.774 485,-123 492.541,-107.29 507.614,-94.9298 521.126,-86.3701"/>
<polygon fill="midnightblue" stroke="midnightblue" points="523.289,-89.1569 530.119,-81.0568 519.729,-83.1302 523.289,-89.1569"/>
</g>
<!-- Node2&#45;&gt;Node7 -->
<g id="edge6" class="edge"><title>Node2&#45;&gt;Node7</title>
<path fill="none" stroke="midnightblue" d="M527.342,-235.444C550.753,-226.478 587.736,-212.314 614.19,-202.183"/>
<polygon fill="midnightblue" stroke="midnightblue" points="615.676,-205.361 623.763,-198.516 613.172,-198.824 615.676,-205.361"/>
</g>
<!-- Node5 -->
<g id="node5" class="node"><title>Node5</title>
<polygon fill="none" stroke="#bfbfbf" points="523.5,-0.5 523.5,-19.5 564.5,-19.5 564.5,-0.5 523.5,-0.5"/>
<text text-anchor="middle" x="544" y="-7.5" font-family="Helvetica,sans-Serif" font-size="10.00">string</text>
</g>
<!-- Node4&#45;&gt;Node5 -->
<g id="edge4" class="edge"><title>Node4&#45;&gt;Node5</title>
<path fill="none" stroke="midnightblue" d="M547.427,-61.9751C546.863,-53.5803 545.982,-40.4806 545.255,-29.6631"/>
<polygon fill="midnightblue" stroke="midnightblue" points="548.735,-29.2518 544.572,-19.5091 541.751,-29.7214 548.735,-29.2518"/>
</g>
<!-- Node6 -->
<g id="node6" class="node"><title>Node6</title>
<polygon fill="none" stroke="#bfbfbf" points="668.5,-0.5 668.5,-19.5 751.5,-19.5 751.5,-0.5 668.5,-0.5"/>
<text text-anchor="middle" x="710" y="-7.5" font-family="Helvetica,sans-Serif" font-size="10.00">unordered_map</text>
</g>
<!-- Node4&#45;&gt;Node6 -->
<g id="edge5" class="edge"><title>Node4&#45;&gt;Node6</title>
<path fill="none" stroke="midnightblue" d="M571.211,-61.9751C598.999,-51.7687 645.723,-34.608 677.194,-23.0492"/>
<polygon fill="midnightblue" stroke="midnightblue" points="678.652,-26.2422 686.832,-19.5091 676.239,-19.6714 678.652,-26.2422"/>
</g>
<!-- Node7&#45;&gt;Node3 -->
<g id="edge8" class="edge"><title>Node7&#45;&gt;Node3</title>
<path fill="none" stroke="midnightblue" d="M570.854,-184.007C492.845,-178.745 367.677,-167.158 262,-143 200.236,-128.881 131.19,-101.276 93.4532,-85.1152"/>
<polygon fill="midnightblue" stroke="midnightblue" points="94.6819,-81.8333 84.1142,-81.0747 91.9022,-88.2578 94.6819,-81.8333"/>
</g>
<!-- Node7&#45;&gt;Node5 -->
<g id="edge9" class="edge"><title>Node7&#45;&gt;Node5</title>
<path fill="none" stroke="midnightblue" d="M647.229,-179.339C649.953,-156.76 654.263,-95.1347 627,-56 614.509,-38.0702 592.52,-26.6111 574.311,-19.7458"/>
<polygon fill="midnightblue" stroke="midnightblue" points="575.264,-16.3715 564.669,-16.3924 572.964,-22.983 575.264,-16.3715"/>
</g>
<!-- Node7&#45;&gt;Node6 -->
<g id="edge10" class="edge"><title>Node7&#45;&gt;Node6</title>
<path fill="none" stroke="midnightblue" d="M653.439,-179.271C660.469,-170.601 670.832,-156.661 677,-143 694.274,-104.742 703.467,-55.9938 707.475,-29.7536"/>
<polygon fill="midnightblue" stroke="midnightblue" points="710.963,-30.0865 708.923,-19.69 704.034,-29.0896 710.963,-30.0865"/>
</g>
<!-- Node8 -->
<g id="node8" class="node"><title>Node8</title>
<polygon fill="none" stroke="#bfbfbf" points="604.5,-0.5 604.5,-19.5 639.5,-19.5 639.5,-0.5 604.5,-0.5"/>
<text text-anchor="middle" x="622" y="-7.5" font-family="Helvetica,sans-Serif" font-size="10.00">map</text>
</g>
<!-- Node7&#45;&gt;Node8 -->
<g id="edge7" class="edge"><title>Node7&#45;&gt;Node8</title>
<path fill="none" stroke="midnightblue" d="M649.497,-179.339C657.67,-157.758 676.148,-100.152 660,-56 655.943,-44.9083 647.812,-34.6651 640.109,-26.7625"/>
<polygon fill="midnightblue" stroke="midnightblue" points="642.362,-24.0747 632.714,-19.6955 637.525,-29.1351 642.362,-24.0747"/>
</g>
<!-- Node7&#45;&gt;Node9 -->
<g id="edge11" class="edge"><title>Node7&#45;&gt;Node9</title>
<path fill="none" stroke="midnightblue" d="M700.666,-179.444C761.986,-169.846 861.359,-154.292 926.449,-144.104"/>
<polygon fill="midnightblue" stroke="midnightblue" points="927.251,-147.521 936.589,-142.516 926.169,-140.605 927.251,-147.521"/>
</g>
<!-- Node10 -->
<g id="node10" class="node"><title>Node10</title>
<polygon fill="none" stroke="#bfbfbf" points="750,-123.5 750,-142.5 910,-142.5 910,-123.5 750,-123.5"/>
<text text-anchor="middle" x="830" y="-130.5" font-family="Helvetica,sans-Serif" font-size="10.00">Framework/ProcessingContext.h</text>
</g>
<!-- Node7&#45;&gt;Node10 -->
<g id="edge12" class="edge"><title>Node7&#45;&gt;Node10</title>
<path fill="none" stroke="midnightblue" d="M675.155,-179.444C706.513,-170.241 756.531,-155.562 791.197,-145.388"/>
<polygon fill="midnightblue" stroke="midnightblue" points="792.371,-148.691 800.981,-142.516 790.4,-141.974 792.371,-148.691"/>
</g>
<!-- Node11 -->
<g id="node11" class="node"><title>Node11</title>
<g id="a_node11"><a xlink:href="Activity_8h.html" target="_top" xlink:title="QualityControl/Activity.h">
<polygon fill="none" stroke="black" points="494.5,-123.5 494.5,-142.5 617.5,-142.5 617.5,-123.5 494.5,-123.5"/>
<text text-anchor="middle" x="556" y="-130.5" font-family="Helvetica,sans-Serif" font-size="10.00">QualityControl/Activity.h</text>
</a>
</g>
</g>
<!-- Node7&#45;&gt;Node11 -->
<g id="edge13" class="edge"><title>Node7&#45;&gt;Node11</title>
<path fill="none" stroke="midnightblue" d="M631.54,-179.324C617.5,-170.9 595.952,-157.971 579.457,-148.074"/>
<polygon fill="midnightblue" stroke="midnightblue" points="580.8,-144.798 570.424,-142.655 577.198,-150.801 580.8,-144.798"/>
</g>
<!-- Node12 -->
<g id="node12" class="node"><title>Node12</title>
<g id="a_node12"><a xlink:href="ObjectsManager_8h.html" target="_top" xlink:title="QualityControl/ObjectsManager.h">
<polygon fill="none" stroke="black" points="271.5,-123.5 271.5,-142.5 432.5,-142.5 432.5,-123.5 271.5,-123.5"/>
<text text-anchor="middle" x="352" y="-130.5" font-family="Helvetica,sans-Serif" font-size="10.00">QualityControl/ObjectsManager.h</text>
</a>
</g>
</g>
<!-- Node7&#45;&gt;Node12 -->
<g id="edge14" class="edge"><title>Node7&#45;&gt;Node12</title>
<path fill="none" stroke="midnightblue" d="M599.415,-179.444C547.59,-169.925 463.868,-154.547 408.385,-144.356"/>
<polygon fill="midnightblue" stroke="midnightblue" points="408.835,-140.881 398.367,-142.516 407.57,-147.765 408.835,-140.881"/>
</g>
<!-- Node12&#45;&gt;Node3 -->
<g id="edge26" class="edge"><title>Node12&#45;&gt;Node3</title>
<path fill="none" stroke="midnightblue" d="M280.994,-123.496C229.98,-116.382 159.927,-104.54 100,-87 97.7098,-86.3297 95.3657,-85.5581 93.0291,-84.7275"/>
<polygon fill="midnightblue" stroke="midnightblue" points="94.2117,-81.4322 83.6224,-81.0883 91.6859,-87.9607 94.2117,-81.4322"/>
</g>
<!-- Node12&#45;&gt;Node4 -->
<g id="edge24" class="edge"><title>Node12&#45;&gt;Node4</title>
<path fill="none" stroke="midnightblue" d="M380.082,-123.475C414.285,-113.092 472.197,-95.5116 510.27,-83.9538"/>
<polygon fill="midnightblue" stroke="midnightblue" points="511.418,-87.2631 519.97,-81.0091 509.385,-80.5649 511.418,-87.2631"/>
</g>
<!-- Node12&#45;&gt;Node5 -->
<g id="edge25" class="edge"><title>Node12&#45;&gt;Node5</title>
<path fill="none" stroke="midnightblue" d="M368.562,-123.374C384.652,-114.78 409.578,-100.895 430,-87 448.307,-74.5444 450.801,-68.612 469,-56 485.279,-44.7189 504.438,-33.2519 519.317,-24.7168"/>
<polygon fill="midnightblue" stroke="midnightblue" points="521.433,-27.541 528.404,-19.5628 517.979,-21.4522 521.433,-27.541"/>
</g>
<!-- Node13 -->
<g id="node13" class="node"><title>Node13</title>
<g id="a_node13"><a xlink:href="MonitorObject_8h.html" target="_top" xlink:title="QualityControl/MonitorObject.h">
<polygon fill="none" stroke="black" points="270.5,-62 270.5,-81 421.5,-81 421.5,-62 270.5,-62"/>
<text text-anchor="middle" x="346" y="-69" font-family="Helvetica,sans-Serif" font-size="10.00">QualityControl/MonitorObject.h</text>
</a>
</g>
</g>
<!-- Node12&#45;&gt;Node13 -->
<g id="edge15" class="edge"><title>Node12&#45;&gt;Node13</title>
<path fill="none" stroke="midnightblue" d="M351.14,-123.475C350.294,-115.08 348.973,-101.981 347.882,-91.1631"/>
<polygon fill="midnightblue" stroke="midnightblue" points="351.344,-90.6074 346.858,-81.0091 344.379,-91.3098 351.344,-90.6074"/>
</g>
<!-- Node17 -->
<g id="node17" class="node"><title>Node17</title>
<g id="a_node17"><a xlink:href="MonitorObjectCollection_8h.html" target="_top" xlink:title="QualityControl/MonitorObject\lCollection.h">
<polygon fill="none" stroke="black" points="109.5,-56.5 109.5,-86.5 252.5,-86.5 252.5,-56.5 109.5,-56.5"/>
<text text-anchor="start" x="117.5" y="-74.5" font-family="Helvetica,sans-Serif" font-size="10.00">QualityControl/MonitorObject</text>
<text text-anchor="middle" x="181" y="-63.5" font-family="Helvetica,sans-Serif" font-size="10.00">Collection.h</text>
</a>
</g>
</g>
<!-- Node12&#45;&gt;Node17 -->
<g id="edge21" class="edge"><title>Node12&#45;&gt;Node17</title>
<path fill="none" stroke="midnightblue" d="M327.5,-123.475C302.392,-114.739 262.641,-100.907 230.877,-89.855"/>
<polygon fill="midnightblue" stroke="midnightblue" points="231.896,-86.5037 221.301,-86.523 229.596,-93.1149 231.896,-86.5037"/>
</g>
<!-- Node13&#45;&gt;Node5 -->
<g id="edge16" class="edge"><title>Node13&#45;&gt;Node5</title>
<path fill="none" stroke="midnightblue" d="M374.369,-61.9751C411.217,-50.9019 475.306,-31.6428 513.275,-20.233"/>
<polygon fill="midnightblue" stroke="midnightblue" points="514.678,-23.4662 523.247,-17.2363 512.663,-16.7623 514.678,-23.4662"/>
</g>
<!-- Node13&#45;&gt;Node8 -->
<g id="edge17" class="edge"><title>Node13&#45;&gt;Node8</title>
<path fill="none" stroke="midnightblue" d="M385.544,-61.9751C442.201,-49.7609 545.059,-27.587 594.291,-16.9735"/>
<polygon fill="midnightblue" stroke="midnightblue" points="595.185,-20.3613 604.223,-14.8324 593.71,-13.5185 595.185,-20.3613"/>
</g>
<!-- Node14 -->
<g id="node14" class="node"><title>Node14</title>
<polygon fill="none" stroke="#bfbfbf" points="445,-0.5 445,-19.5 501,-19.5 501,-0.5 445,-0.5"/>
<text text-anchor="middle" x="473" y="-7.5" font-family="Helvetica,sans-Serif" font-size="10.00">Rtypes.h</text>
</g>
<!-- Node13&#45;&gt;Node14 -->
<g id="edge18" class="edge"><title>Node13&#45;&gt;Node14</title>
<path fill="none" stroke="midnightblue" d="M364.196,-61.9751C385.509,-51.9897 421.031,-35.3476 445.663,-23.8075"/>
<polygon fill="midnightblue" stroke="midnightblue" points="447.267,-26.9211 454.838,-19.5091 444.297,-20.5822 447.267,-26.9211"/>
</g>
<!-- Node15 -->
<g id="node15" class="node"><title>Node15</title>
<polygon fill="none" stroke="#bfbfbf" points="233.5,-0.5 233.5,-19.5 292.5,-19.5 292.5,-0.5 233.5,-0.5"/>
<text text-anchor="middle" x="263" y="-7.5" font-family="Helvetica,sans-Serif" font-size="10.00">TObject.h</text>
</g>
<!-- Node13&#45;&gt;Node15 -->
<g id="edge19" class="edge"><title>Node13&#45;&gt;Node15</title>
<path fill="none" stroke="midnightblue" d="M334.108,-61.9751C320.795,-52.4315 299,-36.8073 283.043,-25.3683"/>
<polygon fill="midnightblue" stroke="midnightblue" points="285.036,-22.4908 274.87,-19.5091 280.958,-28.18 285.036,-22.4908"/>
</g>
<!-- Node16 -->
<g id="node16" class="node"><title>Node16</title>
<polygon fill="none" stroke="#bfbfbf" points="311,-0.5 311,-19.5 427,-19.5 427,-0.5 311,-0.5"/>
<text text-anchor="middle" x="369" y="-7.5" font-family="Helvetica,sans-Serif" font-size="10.00">Common/Exceptions.h</text>
</g>
<!-- Node13&#45;&gt;Node16 -->
<g id="edge20" class="edge"><title>Node13&#45;&gt;Node16</title>
<path fill="none" stroke="midnightblue" d="M349.295,-61.9751C352.609,-53.4035 357.818,-39.9269 362.049,-28.983"/>
<polygon fill="midnightblue" stroke="midnightblue" points="365.37,-30.0984 365.711,-19.5091 358.841,-27.5745 365.37,-30.0984"/>
</g>
<!-- Node18 -->
<g id="node18" class="node"><title>Node18</title>
<polygon fill="none" stroke="#bfbfbf" points="146.5,-0.5 146.5,-19.5 215.5,-19.5 215.5,-0.5 146.5,-0.5"/>
<text text-anchor="middle" x="181" y="-7.5" font-family="Helvetica,sans-Serif" font-size="10.00">TObjArray.h</text>
</g>
<!-- Node17&#45;&gt;Node18 -->
<g id="edge22" class="edge"><title>Node17&#45;&gt;Node18</title>
<path fill="none" stroke="midnightblue" d="M181,-56.3993C181,-48.4664 181,-38.458 181,-29.8583"/>
<polygon fill="midnightblue" stroke="midnightblue" points="184.5,-29.6577 181,-19.6578 177.5,-29.6578 184.5,-29.6577"/>
</g>
<!-- Node19 -->
<g id="node19" class="node"><title>Node19</title>
<polygon fill="none" stroke="#bfbfbf" points="0,-0.5 0,-19.5 128,-19.5 128,-0.5 0,-0.5"/>
<text text-anchor="middle" x="64" y="-7.5" font-family="Helvetica,sans-Serif" font-size="10.00">Mergers/MergeInterface.h</text>
</g>
<!-- Node17&#45;&gt;Node19 -->
<g id="edge23" class="edge"><title>Node17&#45;&gt;Node19</title>
<path fill="none" stroke="midnightblue" d="M153.273,-56.3993C134.168,-46.6837 108.942,-33.8551 90.1799,-24.3137"/>
<polygon fill="midnightblue" stroke="midnightblue" points="91.5247,-21.071 81.0245,-19.6578 88.3516,-27.3106 91.5247,-21.071"/>
</g>
<!-- Node21 -->
<g id="node21" class="node"><title>Node21</title>
<polygon fill="none" stroke="#bfbfbf" points="786,-179.5 786,-198.5 916,-198.5 916,-179.5 786,-179.5"/>
<text text-anchor="middle" x="851" y="-186.5" font-family="Helvetica,sans-Serif" font-size="10.00">InfoLogger/InfoLogger.hxx</text>
</g>
<!-- Node20&#45;&gt;Node21 -->
<g id="edge29" class="edge"><title>Node20&#45;&gt;Node21</title>
<path fill="none" stroke="midnightblue" d="M851,-235.083C851,-228.006 851,-217.861 851,-208.986"/>
<polygon fill="midnightblue" stroke="midnightblue" points="854.5,-208.751 851,-198.751 847.5,-208.751 854.5,-208.751"/>
</g>
</g>
</svg>
