<?xml version="1.0" encoding="UTF-8" standalone="no"?>
<!DOCTYPE svg PUBLIC "-//W3C//DTD SVG 1.1//EN"
 "http://www.w3.org/Graphics/SVG/1.1/DTD/svg11.dtd">
<!-- Generated by graphviz version 2.38.0 (20140413.2041)
 -->
<!-- Title: Framework/test/testTrendingTask.cxx Pages: 1 -->
<!--zoomable 352 -->
<svg id="main" version="1.1" xmlns="http://www.w3.org/2000/svg" xmlns:xlink="http://www.w3.org/1999/xlink" xml:space="preserve" onload="init(evt)">
<style type="text/css"><![CDATA[
.edge:hover path { stroke: red; }
.edge:hover polygon { stroke: red; fill: red; }
]]></style>
<script type="text/javascript"><![CDATA[
var edges = document.getElementsByTagName('g');
if (edges && edges.length) {
  for (var i=0;i<edges.length;i++) {
    if (edges[i].id.substr(0,4)=='edge') {
      edges[i].setAttribute('class','edge');
    }
  }
}
]]></script>
        <defs>
                <circle id="rim" cx="0" cy="0" r="7"/>
                <circle id="rim2" cx="0" cy="0" r="3.5"/>
                <g id="zoomPlus">
                        <use xlink:href="#rim" fill="#404040">
                                <set attributeName="fill" to="#808080" begin="zoomplus.mouseover" end="zoomplus.mouseout"/>
                        </use>
                        <path d="M-4,0h8M0,-4v8" fill="none" stroke="white" stroke-width="1.5" pointer-events="none"/>
                </g>
                <g id="zoomMin">
                        <use xlink:href="#rim" fill="#404040">
                                <set attributeName="fill" to="#808080" begin="zoomminus.mouseover" end="zoomminus.mouseout"/>
                        </use>
                        <path d="M-4,0h8" fill="none" stroke="white" stroke-width="1.5" pointer-events="none"/>
                </g>
                <g id="dirArrow">
                        <path fill="none" stroke="white" stroke-width="1.5" d="M0,-3.0v7 M-2.5,-0.5L0,-3.0L2.5,-0.5"/>
                </g>
               <g id="resetDef">
                       <use xlink:href="#rim2" fill="#404040">
                               <set attributeName="fill" to="#808080" begin="reset.mouseover" end="reset.mouseout"/>
                       </use>
               </g>
        </defs>

<script type="text/javascript">
var viewWidth = 1493;
var viewHeight = 352;
var sectionId = 'dynsection-0';
</script>
<script xlink:href="svgpan.js"/>
<svg id="graph" class="graph">
<g id="viewport">
<title>Framework/test/testTrendingTask.cxx</title>
<!-- Node1 -->
<g id="node1" class="node"><title>Node1</title>
<polygon fill="#bfbfbf" stroke="black" points="756.5,-313.5 756.5,-343.5 898.5,-343.5 898.5,-313.5 756.5,-313.5"/>
<text text-anchor="start" x="764.5" y="-331.5" font-family="Helvetica,sans-Serif" font-size="10.00">Framework/test/testTrending</text>
<text text-anchor="middle" x="827.5" y="-320.5" font-family="Helvetica,sans-Serif" font-size="10.00">Task.cxx</text>
</g>
<!-- Node2 -->
<g id="node2" class="node"><title>Node2</title>
<polygon fill="none" stroke="#bfbfbf" points="0,-252 0,-271 119,-271 119,-252 0,-252"/>
<text text-anchor="middle" x="59.5" y="-259" font-family="Helvetica,sans-Serif" font-size="10.00">getTestDataDirectory.h</text>
</g>
<!-- Node1&#45;&gt;Node2 -->
<g id="edge1" class="edge"><title>Node1&#45;&gt;Node2</title>
<path fill="none" stroke="midnightblue" d="M756.275,-325.158C630.226,-320.382 359.802,-307.292 133.5,-277 125.382,-275.913 116.812,-274.492 108.496,-272.964"/>
<polygon fill="midnightblue" stroke="midnightblue" points="109.005,-269.498 98.5263,-271.063 107.694,-276.374 109.005,-269.498"/>
</g>
<!-- Node3 -->
<g id="node3" class="node"><title>Node3</title>
<g id="a_node3"><a xlink:href="TrendingTask_8h.html" target="_top" xlink:title="QualityControl/TrendingTask.h">
<polygon fill="none" stroke="black" points="601,-190.5 601,-209.5 750,-209.5 750,-190.5 601,-190.5"/>
<text text-anchor="middle" x="675.5" y="-197.5" font-family="Helvetica,sans-Serif" font-size="10.00">QualityControl/TrendingTask.h</text>
</a>
</g>
</g>
<!-- Node1&#45;&gt;Node3 -->
<g id="edge2" class="edge"><title>Node1&#45;&gt;Node3</title>
<path fill="none" stroke="midnightblue" d="M795.261,-313.432C776.931,-304.534 754.181,-291.909 736.5,-277 716.173,-259.86 697.814,-235.123 686.668,-218.575"/>
<polygon fill="midnightblue" stroke="midnightblue" points="689.389,-216.341 680.978,-209.898 683.535,-220.18 689.389,-216.341"/>
</g>
<!-- Node6 -->
<g id="node6" class="node"><title>Node6</title>
<polygon fill="none" stroke="#bfbfbf" points="102.5,-62 102.5,-81 248.5,-81 248.5,-62 102.5,-62"/>
<text text-anchor="middle" x="175.5" y="-69" font-family="Helvetica,sans-Serif" font-size="10.00">Framework/ServiceRegistry.h</text>
</g>
<!-- Node1&#45;&gt;Node6 -->
<g id="edge43" class="edge"><title>Node1&#45;&gt;Node6</title>
<path fill="none" stroke="midnightblue" d="M756.175,-326.112C668.557,-322.854 516.09,-312.116 390.5,-277 291.092,-249.205 240.985,-245.649 193.5,-154 183.209,-134.138 178.784,-108.594 176.893,-91.4433"/>
<polygon fill="midnightblue" stroke="midnightblue" points="180.342,-90.724 175.947,-81.0836 173.371,-91.3605 180.342,-90.724"/>
</g>
<!-- Node7 -->
<g id="node7" class="node"><title>Node7</title>
<g id="a_node7"><a xlink:href="Triggers_8h.html" target="_top" xlink:title="QualityControl/Triggers.h">
<polygon fill="none" stroke="black" points="295,-62 295,-81 420,-81 420,-62 295,-62"/>
<text text-anchor="middle" x="357.5" y="-69" font-family="Helvetica,sans-Serif" font-size="10.00">QualityControl/Triggers.h</text>
</a>
</g>
</g>
<!-- Node1&#45;&gt;Node7 -->
<g id="edge42" class="edge"><title>Node1&#45;&gt;Node7</title>
<path fill="none" stroke="midnightblue" d="M756.407,-318.448C607.647,-297.897 271.732,-242.514 204.5,-154 176.181,-116.716 238.78,-94.6496 292.256,-83.0739"/>
<polygon fill="midnightblue" stroke="midnightblue" points="293.028,-86.4883 302.111,-81.0332 291.609,-79.6337 293.028,-86.4883"/>
</g>
<!-- Node17 -->
<g id="node17" class="node"><title>Node17</title>
<g id="a_node17"><a xlink:href="DatabaseFactory_8h.html" target="_top" xlink:title="QualityControl/DatabaseFactory.h">
<polygon fill="none" stroke="black" points="745,-252 745,-271 910,-271 910,-252 745,-252"/>
<text text-anchor="middle" x="827.5" y="-259" font-family="Helvetica,sans-Serif" font-size="10.00">QualityControl/DatabaseFactory.h</text>
</a>
</g>
</g>
<!-- Node1&#45;&gt;Node17 -->
<g id="edge20" class="edge"><title>Node1&#45;&gt;Node17</title>
<path fill="none" stroke="midnightblue" d="M827.5,-313.396C827.5,-304.064 827.5,-291.714 827.5,-281.517"/>
<polygon fill="midnightblue" stroke="midnightblue" points="831,-281.195 827.5,-271.195 824,-281.195 831,-281.195"/>
</g>
<!-- Node25 -->
<g id="node25" class="node"><title>Node25</title>
<g id="a_node25"><a xlink:href="MonitorObject_8h.html" target="_top" xlink:title="QualityControl/MonitorObject.h">
<polygon fill="none" stroke="black" points="1248,-129 1248,-148 1399,-148 1399,-129 1248,-129"/>
<text text-anchor="middle" x="1323.5" y="-136" font-family="Helvetica,sans-Serif" font-size="10.00">QualityControl/MonitorObject.h</text>
</a>
</g>
</g>
<!-- Node1&#45;&gt;Node25 -->
<g id="edge41" class="edge"><title>Node1&#45;&gt;Node25</title>
<path fill="none" stroke="midnightblue" d="M857.291,-313.437C893.58,-296.527 956.926,-267.711 1012.5,-246 1109.99,-207.914 1227.4,-169.741 1286.16,-151.151"/>
<polygon fill="midnightblue" stroke="midnightblue" points="1287.27,-154.471 1295.76,-148.125 1285.17,-147.795 1287.27,-154.471"/>
</g>
<!-- Node26 -->
<g id="node26" class="node"><title>Node26</title>
<polygon fill="none" stroke="#bfbfbf" points="1021,-246.5 1021,-276.5 1156,-276.5 1156,-246.5 1021,-246.5"/>
<text text-anchor="start" x="1029" y="-264.5" font-family="Helvetica,sans-Serif" font-size="10.00">Configuration/Configuration</text>
<text text-anchor="middle" x="1088.5" y="-253.5" font-family="Helvetica,sans-Serif" font-size="10.00">Factory.h</text>
</g>
<!-- Node1&#45;&gt;Node26 -->
<g id="edge44" class="edge"><title>Node1&#45;&gt;Node26</title>
<path fill="none" stroke="midnightblue" d="M883.812,-313.476C924.408,-303.366 979.347,-289.684 1022.09,-279.04"/>
<polygon fill="midnightblue" stroke="midnightblue" points="1022.98,-282.424 1031.84,-276.611 1021.29,-275.631 1022.98,-282.424"/>
</g>
<!-- Node27 -->
<g id="node27" class="node"><title>Node27</title>
<polygon fill="none" stroke="#bfbfbf" points="1174,-252 1174,-271 1221,-271 1221,-252 1174,-252"/>
<text text-anchor="middle" x="1197.5" y="-259" font-family="Helvetica,sans-Serif" font-size="10.00">TH1I.h</text>
</g>
<!-- Node1&#45;&gt;Node27 -->
<g id="edge45" class="edge"><title>Node1&#45;&gt;Node27</title>
<path fill="none" stroke="midnightblue" d="M898.645,-322.626C967.909,-316.545 1075.59,-303.526 1165.5,-277 1167.43,-276.43 1169.4,-275.767 1171.35,-275.043"/>
<polygon fill="midnightblue" stroke="midnightblue" points="1173.01,-278.146 1180.9,-271.076 1170.32,-271.683 1173.01,-278.146"/>
</g>
<!-- Node28 -->
<g id="node28" class="node"><title>Node28</title>
<polygon fill="none" stroke="#bfbfbf" points="1239,-252 1239,-271 1358,-271 1358,-252 1239,-252"/>
<text text-anchor="middle" x="1298.5" y="-259" font-family="Helvetica,sans-Serif" font-size="10.00">boost/test/unit_test.hpp</text>
</g>
<!-- Node1&#45;&gt;Node28 -->
<g id="edge46" class="edge"><title>Node1&#45;&gt;Node28</title>
<path fill="none" stroke="midnightblue" d="M898.746,-320.432C979.492,-311.991 1114.91,-296.529 1230.5,-277 1237.22,-275.865 1244.28,-274.526 1251.2,-273.127"/>
<polygon fill="midnightblue" stroke="midnightblue" points="1252.12,-276.512 1261.2,-271.053 1250.7,-269.658 1252.12,-276.512"/>
</g>
<!-- Node4 -->
<g id="node4" class="node"><title>Node4</title>
<g id="a_node4"><a xlink:href="PostProcessingInterface_8h.html" target="_top" xlink:title="QualityControl/PostProcessing\lInterface.h">
<polygon fill="none" stroke="black" points="282,-123.5 282,-153.5 433,-153.5 433,-123.5 282,-123.5"/>
<text text-anchor="start" x="290" y="-141.5" font-family="Helvetica,sans-Serif" font-size="10.00">QualityControl/PostProcessing</text>
<text text-anchor="middle" x="357.5" y="-130.5" font-family="Helvetica,sans-Serif" font-size="10.00">Interface.h</text>
</a>
</g>
</g>
<!-- Node3&#45;&gt;Node4 -->
<g id="edge3" class="edge"><title>Node3&#45;&gt;Node4</title>
<path fill="none" stroke="midnightblue" d="M629.938,-190.475C581.134,-181.343 502.577,-166.645 442.33,-155.372"/>
<polygon fill="midnightblue" stroke="midnightblue" points="442.919,-151.922 432.446,-153.523 441.632,-158.803 442.919,-151.922"/>
</g>
<!-- Node9 -->
<g id="node9" class="node"><title>Node9</title>
<g id="a_node9"><a xlink:href="TrendingTaskConfig_8h.html" target="_top" xlink:title="QualityControl/TrendingTask\lConfig.h">
<polygon fill="none" stroke="black" points="451,-123.5 451,-153.5 592,-153.5 592,-123.5 451,-123.5"/>
<text text-anchor="start" x="459" y="-141.5" font-family="Helvetica,sans-Serif" font-size="10.00">QualityControl/TrendingTask</text>
<text text-anchor="middle" x="521.5" y="-130.5" font-family="Helvetica,sans-Serif" font-size="10.00">Config.h</text>
</a>
</g>
</g>
<!-- Node3&#45;&gt;Node9 -->
<g id="edge9" class="edge"><title>Node3&#45;&gt;Node9</title>
<path fill="none" stroke="midnightblue" d="M653.436,-190.475C631.019,-181.814 595.641,-168.145 567.16,-157.141"/>
<polygon fill="midnightblue" stroke="midnightblue" points="568.384,-153.862 557.795,-153.523 565.861,-160.392 568.384,-153.862"/>
</g>
<!-- Node12 -->
<g id="node12" class="node"><title>Node12</title>
<g id="a_node12"><a xlink:href="Reductor_8h.html" target="_top" xlink:title="QualityControl/Reductor.h">
<polygon fill="none" stroke="black" points="610.5,-129 610.5,-148 740.5,-148 740.5,-129 610.5,-129"/>
<text text-anchor="middle" x="675.5" y="-136" font-family="Helvetica,sans-Serif" font-size="10.00">QualityControl/Reductor.h</text>
</a>
</g>
</g>
<!-- Node3&#45;&gt;Node12 -->
<g id="edge15" class="edge"><title>Node3&#45;&gt;Node12</title>
<path fill="none" stroke="midnightblue" d="M675.5,-190.475C675.5,-182.08 675.5,-168.981 675.5,-158.163"/>
<polygon fill="midnightblue" stroke="midnightblue" points="679,-158.009 675.5,-148.009 672,-158.009 679,-158.009"/>
</g>
<!-- Node14 -->
<g id="node14" class="node"><title>Node14</title>
<polygon fill="none" stroke="#bfbfbf" points="758.5,-129 758.5,-148 810.5,-148 810.5,-129 758.5,-129"/>
<text text-anchor="middle" x="784.5" y="-136" font-family="Helvetica,sans-Serif" font-size="10.00">memory</text>
</g>
<!-- Node3&#45;&gt;Node14 -->
<g id="edge17" class="edge"><title>Node3&#45;&gt;Node14</title>
<path fill="none" stroke="midnightblue" d="M691.117,-190.475C709.086,-180.666 738.821,-164.435 759.906,-152.925"/>
<polygon fill="midnightblue" stroke="midnightblue" points="761.811,-155.873 768.912,-148.009 758.458,-149.728 761.811,-155.873"/>
</g>
<!-- Node15 -->
<g id="node15" class="node"><title>Node15</title>
<polygon fill="none" stroke="#bfbfbf" points="829,-129 829,-148 912,-148 912,-129 829,-129"/>
<text text-anchor="middle" x="870.5" y="-136" font-family="Helvetica,sans-Serif" font-size="10.00">unordered_map</text>
</g>
<!-- Node3&#45;&gt;Node15 -->
<g id="edge18" class="edge"><title>Node3&#45;&gt;Node15</title>
<path fill="none" stroke="midnightblue" d="M703.439,-190.475C737.467,-180.092 795.084,-162.512 832.962,-150.954"/>
<polygon fill="midnightblue" stroke="midnightblue" points="834.07,-154.275 842.613,-148.009 832.027,-147.58 834.07,-154.275"/>
</g>
<!-- Node16 -->
<g id="node16" class="node"><title>Node16</title>
<polygon fill="none" stroke="#bfbfbf" points="213.5,-129 213.5,-148 263.5,-148 263.5,-129 213.5,-129"/>
<text text-anchor="middle" x="238.5" y="-136" font-family="Helvetica,sans-Serif" font-size="10.00">TTree.h</text>
</g>
<!-- Node3&#45;&gt;Node16 -->
<g id="edge19" class="edge"><title>Node3&#45;&gt;Node16</title>
<path fill="none" stroke="midnightblue" d="M600.647,-196.891C519.052,-193.15 385.202,-182.774 273.5,-154 270.992,-153.354 268.428,-152.564 265.883,-151.689"/>
<polygon fill="midnightblue" stroke="midnightblue" points="266.923,-148.339 256.333,-148.021 264.414,-154.874 266.923,-148.339"/>
</g>
<!-- Node5 -->
<g id="node5" class="node"><title>Node5</title>
<polygon fill="none" stroke="#bfbfbf" points="747,-0.5 747,-19.5 788,-19.5 788,-0.5 747,-0.5"/>
<text text-anchor="middle" x="767.5" y="-7.5" font-family="Helvetica,sans-Serif" font-size="10.00">string</text>
</g>
<!-- Node4&#45;&gt;Node5 -->
<g id="edge4" class="edge"><title>Node4&#45;&gt;Node5</title>
<path fill="none" stroke="midnightblue" d="M433.021,-124.474C436.222,-123.967 439.392,-123.474 442.5,-123 561.309,-104.892 606.832,-147.798 710.5,-87 733.441,-73.5459 750.096,-46.8876 759.283,-28.9973"/>
<polygon fill="midnightblue" stroke="midnightblue" points="762.495,-30.3956 763.715,-19.8713 756.198,-27.3373 762.495,-30.3956"/>
</g>
<!-- Node4&#45;&gt;Node6 -->
<g id="edge5" class="edge"><title>Node4&#45;&gt;Node6</title>
<path fill="none" stroke="midnightblue" d="M318.009,-123.396C285.368,-111.739 239.545,-95.3731 208.753,-84.3761"/>
<polygon fill="midnightblue" stroke="midnightblue" points="209.914,-81.0743 199.32,-81.007 207.56,-87.6665 209.914,-81.0743"/>
</g>
<!-- Node4&#45;&gt;Node7 -->
<g id="edge6" class="edge"><title>Node4&#45;&gt;Node7</title>
<path fill="none" stroke="midnightblue" d="M357.5,-123.396C357.5,-114.064 357.5,-101.714 357.5,-91.5173"/>
<polygon fill="midnightblue" stroke="midnightblue" points="361,-91.1945 357.5,-81.1945 354,-91.1946 361,-91.1945"/>
</g>
<!-- Node7&#45;&gt;Node5 -->
<g id="edge7" class="edge"><title>Node7&#45;&gt;Node5</title>
<path fill="none" stroke="midnightblue" d="M416.243,-61.9751C504.728,-49.1339 669.071,-25.2843 736.951,-15.4334"/>
<polygon fill="midnightblue" stroke="midnightblue" points="737.597,-18.8764 746.99,-13.9764 736.591,-11.9489 737.597,-18.8764"/>
</g>
<!-- Node8 -->
<g id="node8" class="node"><title>Node8</title>
<polygon fill="none" stroke="#bfbfbf" points="328,-0.5 328,-19.5 387,-19.5 387,-0.5 328,-0.5"/>
<text text-anchor="middle" x="357.5" y="-7.5" font-family="Helvetica,sans-Serif" font-size="10.00">functional</text>
</g>
<!-- Node7&#45;&gt;Node8 -->
<g id="edge8" class="edge"><title>Node7&#45;&gt;Node8</title>
<path fill="none" stroke="midnightblue" d="M357.5,-61.9751C357.5,-53.5803 357.5,-40.4806 357.5,-29.6631"/>
<polygon fill="midnightblue" stroke="midnightblue" points="361,-29.5091 357.5,-19.5091 354,-29.5091 361,-29.5091"/>
</g>
<!-- Node9&#45;&gt;Node5 -->
<g id="edge11" class="edge"><title>Node9&#45;&gt;Node5</title>
<path fill="none" stroke="midnightblue" d="M590.773,-123.474C653.748,-110.457 737.731,-92.3136 743.5,-87 759.53,-72.2364 764.92,-46.8719 766.694,-29.5389"/>
<polygon fill="midnightblue" stroke="midnightblue" points="770.19,-29.7251 767.414,-19.5005 763.208,-29.2246 770.19,-29.7251"/>
</g>
<!-- Node10 -->
<g id="node10" class="node"><title>Node10</title>
<polygon fill="none" stroke="#bfbfbf" points="603.5,-0.5 603.5,-19.5 647.5,-19.5 647.5,-0.5 603.5,-0.5"/>
<text text-anchor="middle" x="625.5" y="-7.5" font-family="Helvetica,sans-Serif" font-size="10.00">vector</text>
</g>
<!-- Node9&#45;&gt;Node10 -->
<g id="edge10" class="edge"><title>Node9&#45;&gt;Node10</title>
<path fill="none" stroke="midnightblue" d="M521.585,-123.329C522.391,-105.784 526.14,-75.7992 541.5,-56 554.592,-39.1254 575.84,-27.8265 593.69,-20.771"/>
<polygon fill="midnightblue" stroke="midnightblue" points="595.006,-24.0162 603.183,-17.2794 592.59,-17.4464 595.006,-24.0162"/>
</g>
<!-- Node11 -->
<g id="node11" class="node"><title>Node11</title>
<g id="a_node11"><a xlink:href="PostProcessingConfig_8h.html" target="_top" xlink:title="QualityControl/PostProcessing\lConfig.h">
<polygon fill="none" stroke="black" points="550,-56.5 550,-86.5 701,-86.5 701,-56.5 550,-56.5"/>
<text text-anchor="start" x="558" y="-74.5" font-family="Helvetica,sans-Serif" font-size="10.00">QualityControl/PostProcessing</text>
<text text-anchor="middle" x="625.5" y="-63.5" font-family="Helvetica,sans-Serif" font-size="10.00">Config.h</text>
</a>
</g>
</g>
<!-- Node9&#45;&gt;Node11 -->
<g id="edge12" class="edge"><title>Node9&#45;&gt;Node11</title>
<path fill="none" stroke="midnightblue" d="M544.066,-123.396C558.785,-114.197 578.195,-102.066 594.373,-91.9546"/>
<polygon fill="midnightblue" stroke="midnightblue" points="596.353,-94.8445 602.978,-86.5765 592.643,-88.9085 596.353,-94.8445"/>
</g>
<!-- Node11&#45;&gt;Node5 -->
<g id="edge14" class="edge"><title>Node11&#45;&gt;Node5</title>
<path fill="none" stroke="midnightblue" d="M659.152,-56.3993C682.977,-46.4163 714.646,-33.1465 737.588,-23.5335"/>
<polygon fill="midnightblue" stroke="midnightblue" points="738.967,-26.7505 746.838,-19.6578 736.262,-20.2944 738.967,-26.7505"/>
</g>
<!-- Node11&#45;&gt;Node10 -->
<g id="edge13" class="edge"><title>Node11&#45;&gt;Node10</title>
<path fill="none" stroke="midnightblue" d="M625.5,-56.3993C625.5,-48.4664 625.5,-38.458 625.5,-29.8583"/>
<polygon fill="midnightblue" stroke="midnightblue" points="629,-29.6577 625.5,-19.6578 622,-29.6578 629,-29.6577"/>
</g>
<!-- Node13 -->
<g id="node13" class="node"><title>Node13</title>
<polygon fill="none" stroke="#bfbfbf" points="1188,-62 1188,-81 1247,-81 1247,-62 1188,-62"/>
<text text-anchor="middle" x="1217.5" y="-69" font-family="Helvetica,sans-Serif" font-size="10.00">TObject.h</text>
</g>
<!-- Node12&#45;&gt;Node13 -->
<g id="edge16" class="edge"><title>Node12&#45;&gt;Node13</title>
<path fill="none" stroke="midnightblue" d="M714.921,-128.942C726.06,-126.751 738.219,-124.573 749.5,-123 939.443,-96.5214 992.513,-129.605 1179.5,-87 1182.5,-86.3161 1185.58,-85.4447 1188.63,-84.4695"/>
<polygon fill="midnightblue" stroke="midnightblue" points="1189.85,-87.7491 1198.1,-81.1028 1187.51,-81.1531 1189.85,-87.7491"/>
</g>
<!-- Node17&#45;&gt;Node14 -->
<g id="edge21" class="edge"><title>Node17&#45;&gt;Node14</title>
<path fill="none" stroke="midnightblue" d="M821.713,-251.943C815.373,-242.193 805.33,-225.586 799.5,-210 793.204,-193.168 789.251,-173.035 786.994,-158.601"/>
<polygon fill="midnightblue" stroke="midnightblue" points="790.418,-157.822 785.535,-148.42 783.489,-158.815 790.418,-157.822"/>
</g>
<!-- Node18 -->
<g id="node18" class="node"><title>Node18</title>
<g id="a_node18"><a xlink:href="DatabaseInterface_8h.html" target="_top" xlink:title="QualityControl/DatabaseInterface.h">
<polygon fill="none" stroke="black" points="808.5,-190.5 808.5,-209.5 978.5,-209.5 978.5,-190.5 808.5,-190.5"/>
<text text-anchor="middle" x="893.5" y="-197.5" font-family="Helvetica,sans-Serif" font-size="10.00">QualityControl/DatabaseInterface.h</text>
</a>
</g>
</g>
<!-- Node17&#45;&gt;Node18 -->
<g id="edge22" class="edge"><title>Node17&#45;&gt;Node18</title>
<path fill="none" stroke="midnightblue" d="M836.956,-251.975C847.248,-242.697 863.916,-227.671 876.494,-216.331"/>
<polygon fill="midnightblue" stroke="midnightblue" points="878.978,-218.805 884.061,-209.509 874.29,-213.605 878.978,-218.805"/>
</g>
<!-- Node18&#45;&gt;Node5 -->
<g id="edge23" class="edge"><title>Node18&#45;&gt;Node5</title>
<path fill="none" stroke="midnightblue" d="M913.406,-190.41C927.725,-183.04 945.958,-170.916 954.5,-154 975.032,-113.339 958.911,-85.8457 924.5,-56 888.685,-24.9363 832.68,-15.2539 798.137,-12.2743"/>
<polygon fill="midnightblue" stroke="midnightblue" points="798.379,-8.78275 788.152,-11.5485 797.871,-15.7643 798.379,-8.78275"/>
</g>
<!-- Node18&#45;&gt;Node10 -->
<g id="edge25" class="edge"><title>Node18&#45;&gt;Node10</title>
<path fill="none" stroke="midnightblue" d="M901.558,-190.366C914.382,-175.542 936.525,-144.75 921.5,-123 860.686,-34.9672 721.116,-16.057 657.795,-12.0478"/>
<polygon fill="midnightblue" stroke="midnightblue" points="657.778,-8.54168 647.602,-11.4911 657.396,-15.5313 657.778,-8.54168"/>
</g>
<!-- Node18&#45;&gt;Node14 -->
<g id="edge24" class="edge"><title>Node18&#45;&gt;Node14</title>
<path fill="none" stroke="midnightblue" d="M877.883,-190.475C859.914,-180.666 830.179,-164.435 809.094,-152.925"/>
<polygon fill="midnightblue" stroke="midnightblue" points="810.542,-149.728 800.088,-148.009 807.189,-155.873 810.542,-149.728"/>
</g>
<!-- Node18&#45;&gt;Node15 -->
<g id="edge26" class="edge"><title>Node18&#45;&gt;Node15</title>
<path fill="none" stroke="midnightblue" d="M890.205,-190.475C886.891,-181.904 881.682,-168.427 877.451,-157.483"/>
<polygon fill="midnightblue" stroke="midnightblue" points="880.659,-156.075 873.789,-148.009 874.13,-158.598 880.659,-156.075"/>
</g>
<!-- Node19 -->
<g id="node19" class="node"><title>Node19</title>
<g id="a_node19"><a xlink:href="QualityObject_8h_source.html" target="_top" xlink:title="QualityControl/QualityObject.h">
<polygon fill="none" stroke="black" points="1058,-129 1058,-148 1207,-148 1207,-129 1058,-129"/>
<text text-anchor="middle" x="1132.5" y="-136" font-family="Helvetica,sans-Serif" font-size="10.00">QualityControl/QualityObject.h</text>
</a>
</g>
</g>
<!-- Node18&#45;&gt;Node19 -->
<g id="edge27" class="edge"><title>Node18&#45;&gt;Node19</title>
<path fill="none" stroke="midnightblue" d="M927.743,-190.475C970.071,-179.937 1042.18,-161.986 1088.55,-150.441"/>
<polygon fill="midnightblue" stroke="midnightblue" points="1089.46,-153.821 1098.32,-148.009 1087.77,-147.029 1089.46,-153.821"/>
</g>
<!-- Node18&#45;&gt;Node25 -->
<g id="edge35" class="edge"><title>Node18&#45;&gt;Node25</title>
<path fill="none" stroke="midnightblue" d="M955.109,-190.475C1033.58,-179.617 1168.93,-160.888 1251.9,-149.407"/>
<polygon fill="midnightblue" stroke="midnightblue" points="1252.58,-152.847 1262.01,-148.009 1251.62,-145.913 1252.58,-152.847"/>
</g>
<!-- Node19&#45;&gt;Node13 -->
<g id="edge30" class="edge"><title>Node19&#45;&gt;Node13</title>
<path fill="none" stroke="midnightblue" d="M1143.96,-128.734C1157.86,-118.111 1181.48,-100.049 1198.19,-87.2642"/>
<polygon fill="midnightblue" stroke="midnightblue" points="1200.4,-89.9821 1206.22,-81.1273 1196.15,-84.4216 1200.4,-89.9821"/>
</g>
<!-- Node20 -->
<g id="node20" class="node"><title>Node20</title>
<polygon fill="none" stroke="#bfbfbf" points="976.5,-62 976.5,-81 1030.5,-81 1030.5,-62 976.5,-62"/>
<text text-anchor="middle" x="1003.5" y="-69" font-family="Helvetica,sans-Serif" font-size="10.00">iostream</text>
</g>
<!-- Node19&#45;&gt;Node20 -->
<g id="edge28" class="edge"><title>Node19&#45;&gt;Node20</title>
<path fill="none" stroke="midnightblue" d="M1115.37,-128.869C1093.49,-117.845 1055.41,-98.6554 1029.83,-85.7678"/>
<polygon fill="midnightblue" stroke="midnightblue" points="1031.21,-82.5414 1020.7,-81.1672 1028.06,-88.7927 1031.21,-82.5414"/>
</g>
<!-- Node21 -->
<g id="node21" class="node"><title>Node21</title>
<polygon fill="none" stroke="#bfbfbf" points="1400,-62 1400,-81 1435,-81 1435,-62 1400,-62"/>
<text text-anchor="middle" x="1417.5" y="-69" font-family="Helvetica,sans-Serif" font-size="10.00">map</text>
</g>
<!-- Node19&#45;&gt;Node21 -->
<g id="edge29" class="edge"><title>Node19&#45;&gt;Node21</title>
<path fill="none" stroke="midnightblue" d="M1185.94,-128.975C1250.08,-118.408 1353.59,-100.184 1390.5,-87 1391.74,-86.557 1392.99,-86.0642 1394.24,-85.5353"/>
<polygon fill="midnightblue" stroke="midnightblue" points="1396.11,-88.5205 1403.57,-81.003 1393.05,-82.224 1396.11,-88.5205"/>
</g>
<!-- Node22 -->
<g id="node22" class="node"><title>Node22</title>
<polygon fill="none" stroke="#bfbfbf" points="1265.5,-62 1265.5,-81 1381.5,-81 1381.5,-62 1265.5,-62"/>
<text text-anchor="middle" x="1323.5" y="-69" font-family="Helvetica,sans-Serif" font-size="10.00">Common/Exceptions.h</text>
</g>
<!-- Node19&#45;&gt;Node22 -->
<g id="edge31" class="edge"><title>Node19&#45;&gt;Node22</title>
<path fill="none" stroke="midnightblue" d="M1157.86,-128.869C1191.49,-117.424 1250.98,-97.1807 1288.76,-84.3223"/>
<polygon fill="midnightblue" stroke="midnightblue" points="1290,-87.5988 1298.34,-81.0637 1287.74,-80.972 1290,-87.5988"/>
</g>
<!-- Node23 -->
<g id="node23" class="node"><title>Node23</title>
<g id="a_node23"><a xlink:href="Quality_8h.html" target="_top" xlink:title="QualityControl/Quality.h">
<polygon fill="none" stroke="black" points="1049,-62 1049,-81 1170,-81 1170,-62 1049,-62"/>
<text text-anchor="middle" x="1109.5" y="-69" font-family="Helvetica,sans-Serif" font-size="10.00">QualityControl/Quality.h</text>
</a>
</g>
</g>
<!-- Node19&#45;&gt;Node23 -->
<g id="edge32" class="edge"><title>Node19&#45;&gt;Node23</title>
<path fill="none" stroke="midnightblue" d="M1129.4,-128.734C1125.98,-119.085 1120.4,-103.3 1116.01,-90.9063"/>
<polygon fill="midnightblue" stroke="midnightblue" points="1119.19,-89.387 1112.55,-81.1273 1112.59,-91.7221 1119.19,-89.387"/>
</g>
<!-- Node23&#45;&gt;Node5 -->
<g id="edge34" class="edge"><title>Node23&#45;&gt;Node5</title>
<path fill="none" stroke="midnightblue" d="M1069.58,-61.9403C1059.76,-59.9152 1049.26,-57.8176 1039.5,-56 952.078,-39.7209 848.289,-23.3697 797.932,-15.6248"/>
<polygon fill="midnightblue" stroke="midnightblue" points="798.437,-12.1615 788.022,-14.1059 797.376,-19.0807 798.437,-12.1615"/>
</g>
<!-- Node24 -->
<g id="node24" class="node"><title>Node24</title>
<polygon fill="none" stroke="#bfbfbf" points="1277.5,-0.5 1277.5,-19.5 1333.5,-19.5 1333.5,-0.5 1277.5,-0.5"/>
<text text-anchor="middle" x="1305.5" y="-7.5" font-family="Helvetica,sans-Serif" font-size="10.00">Rtypes.h</text>
</g>
<!-- Node23&#45;&gt;Node24 -->
<g id="edge33" class="edge"><title>Node23&#45;&gt;Node24</title>
<path fill="none" stroke="midnightblue" d="M1137.58,-61.9751C1171.79,-51.592 1229.7,-34.0116 1267.77,-22.4538"/>
<polygon fill="midnightblue" stroke="midnightblue" points="1268.92,-25.7631 1277.47,-19.5091 1266.88,-19.0649 1268.92,-25.7631"/>
</g>
<!-- Node25&#45;&gt;Node5 -->
<g id="edge36" class="edge"><title>Node25&#45;&gt;Node5</title>
<path fill="none" stroke="midnightblue" d="M1357.78,-128.909C1403.58,-115.909 1475.56,-89.1964 1444.5,-56 1399.87,-8.31005 924.44,-9.47719 798.154,-10.641"/>
<polygon fill="midnightblue" stroke="midnightblue" points="797.986,-7.1424 788.021,-10.7415 798.055,-14.1421 797.986,-7.1424"/>
</g>
<!-- Node25&#45;&gt;Node13 -->
<g id="edge39" class="edge"><title>Node25&#45;&gt;Node13</title>
<path fill="none" stroke="midnightblue" d="M1309.2,-128.734C1291.48,-117.867 1261.07,-99.2161 1240.16,-86.3931"/>
<polygon fill="midnightblue" stroke="midnightblue" points="1241.92,-83.3712 1231.57,-81.1273 1238.26,-89.3386 1241.92,-83.3712"/>
</g>
<!-- Node25&#45;&gt;Node21 -->
<g id="edge37" class="edge"><title>Node25&#45;&gt;Node21</title>
<path fill="none" stroke="midnightblue" d="M1336.18,-128.734C1351.68,-118.013 1378.14,-99.7165 1396.66,-86.9137"/>
<polygon fill="midnightblue" stroke="midnightblue" points="1398.79,-89.6937 1405.02,-81.1273 1394.81,-83.9361 1398.79,-89.6937"/>
</g>
<!-- Node25&#45;&gt;Node22 -->
<g id="edge40" class="edge"><title>Node25&#45;&gt;Node22</title>
<path fill="none" stroke="midnightblue" d="M1323.5,-128.734C1323.5,-119.183 1323.5,-103.618 1323.5,-91.2829"/>
<polygon fill="midnightblue" stroke="midnightblue" points="1327,-91.1273 1323.5,-81.1273 1320,-91.1273 1327,-91.1273"/>
</g>
<!-- Node25&#45;&gt;Node24 -->
<g id="edge38" class="edge"><title>Node25&#45;&gt;Node24</title>
<path fill="none" stroke="midnightblue" d="M1379.35,-128.953C1434.99,-118.012 1508.05,-95.5673 1477.5,-56 1461.31,-35.0334 1389.52,-21.9536 1343.96,-15.6095"/>
<polygon fill="midnightblue" stroke="midnightblue" points="1344.2,-12.1112 1333.83,-14.2491 1343.27,-19.0489 1344.2,-12.1112"/>
</g>
</g>
</svg>
        <g id="navigator" transform="translate(0 0)" fill="#404254">
                <rect fill="#f2f5e9" fill-opacity="0.5" stroke="#606060" stroke-width=".5" x="0" y="0" width="60" height="60"/>
                <use id="zoomplus" xlink:href="#zoomPlus" x="17" y="9" onmousedown="handleZoom(evt,'in')"/>
                <use id="zoomminus" xlink:href="#zoomMin" x="42" y="9" onmousedown="handleZoom(evt,'out')"/>
                <use id="reset" xlink:href="#resetDef" x="30" y="36" onmousedown="handleReset()"/>
                <g id="arrowUp" xlink:href="#dirArrow" transform="translate(30 24)" onmousedown="handlePan(0,-1)">
                  <use xlink:href="#rim" fill="#404040">
                        <set attributeName="fill" to="#808080" begin="arrowUp.mouseover" end="arrowUp.mouseout"/>
                  </use>
                  <path fill="none" stroke="white" stroke-width="1.5" d="M0,-3.0v7 M-2.5,-0.5L0,-3.0L2.5,-0.5"/>
                </g>
                <g id="arrowRight" xlink:href="#dirArrow" transform="rotate(90) translate(36 -43)" onmousedown="handlePan(1,0)">
                  <use xlink:href="#rim" fill="#404040">
                        <set attributeName="fill" to="#808080" begin="arrowRight.mouseover" end="arrowRight.mouseout"/>
                  </use>
                  <path fill="none" stroke="white" stroke-width="1.5" d="M0,-3.0v7 M-2.5,-0.5L0,-3.0L2.5,-0.5"/>
                </g>
                <g id="arrowDown" xlink:href="#dirArrow" transform="rotate(180) translate(-30 -48)" onmousedown="handlePan(0,1)">
                  <use xlink:href="#rim" fill="#404040">
                        <set attributeName="fill" to="#808080" begin="arrowDown.mouseover" end="arrowDown.mouseout"/>
                  </use>
                  <path fill="none" stroke="white" stroke-width="1.5" d="M0,-3.0v7 M-2.5,-0.5L0,-3.0L2.5,-0.5"/>
                </g>
                <g id="arrowLeft" xlink:href="#dirArrow" transform="rotate(270) translate(-36 17)" onmousedown="handlePan(-1,0)">
                  <use xlink:href="#rim" fill="#404040">
                        <set attributeName="fill" to="#808080" begin="arrowLeft.mouseover" end="arrowLeft.mouseout"/>
                  </use>
                  <path fill="none" stroke="white" stroke-width="1.5" d="M0,-3.0v7 M-2.5,-0.5L0,-3.0L2.5,-0.5"/>
                </g>
        </g>
        <svg viewBox="0 0 15 15" width="100%" height="30px" preserveAspectRatio="xMaxYMin meet">
         <g id="arrow_out" transform="scale(0.3 0.3)">
          <a xlink:href="testTrendingTask_8cxx__incl_org.svg" target="_base">
           <rect id="button" ry="5" rx="5" y="6" x="6" height="38" width="38"
                fill="#f2f5e9" fill-opacity="0.5" stroke="#606060" stroke-width="1.0"/>
           <path id="arrow"
             d="M 11.500037,31.436501 C 11.940474,20.09759 22.043105,11.32322 32.158766,21.979434 L 37.068811,17.246167 C 37.068811,17.246167 37.088388,32 37.088388,32 L 22.160133,31.978069 C 22.160133,31.978069 26.997745,27.140456 26.997745,27.140456 C 18.528582,18.264221 13.291696,25.230495 11.500037,31.436501 z"
             style="fill:#404040;"/>
          </a>
         </g>
        </svg>
</svg>
