<?xml version="1.0" encoding="UTF-8" standalone="no"?>
<!DOCTYPE svg PUBLIC "-//W3C//DTD SVG 1.1//EN"
 "http://www.w3.org/Graphics/SVG/1.1/DTD/svg11.dtd">
<!-- Generated by graphviz version 2.38.0 (20140413.2041)
 -->
<!-- Title: Modules/TOF/src/TOFCheckRawsToT.cxx Pages: 1 -->
<!--zoomable 263 -->
<svg id="main" version="1.1" xmlns="http://www.w3.org/2000/svg" xmlns:xlink="http://www.w3.org/1999/xlink" xml:space="preserve" onload="init(evt)">
<style type="text/css"><![CDATA[
.edge:hover path { stroke: red; }
.edge:hover polygon { stroke: red; fill: red; }
]]></style>
<script type="text/javascript"><![CDATA[
var edges = document.getElementsByTagName('g');
if (edges && edges.length) {
  for (var i=0;i<edges.length;i++) {
    if (edges[i].id.substr(0,4)=='edge') {
      edges[i].setAttribute('class','edge');
    }
  }
}
]]></script>
        <defs>
                <circle id="rim" cx="0" cy="0" r="7"/>
                <circle id="rim2" cx="0" cy="0" r="3.5"/>
                <g id="zoomPlus">
                        <use xlink:href="#rim" fill="#404040">
                                <set attributeName="fill" to="#808080" begin="zoomplus.mouseover" end="zoomplus.mouseout"/>
                        </use>
                        <path d="M-4,0h8M0,-4v8" fill="none" stroke="white" stroke-width="1.5" pointer-events="none"/>
                </g>
                <g id="zoomMin">
                        <use xlink:href="#rim" fill="#404040">
                                <set attributeName="fill" to="#808080" begin="zoomminus.mouseover" end="zoomminus.mouseout"/>
                        </use>
                        <path d="M-4,0h8" fill="none" stroke="white" stroke-width="1.5" pointer-events="none"/>
                </g>
                <g id="dirArrow">
                        <path fill="none" stroke="white" stroke-width="1.5" d="M0,-3.0v7 M-2.5,-0.5L0,-3.0L2.5,-0.5"/>
                </g>
               <g id="resetDef">
                       <use xlink:href="#rim2" fill="#404040">
                               <set attributeName="fill" to="#808080" begin="reset.mouseover" end="reset.mouseout"/>
                       </use>
               </g>
        </defs>

<script type="text/javascript">
var viewWidth = 656;
var viewHeight = 263;
var sectionId = 'dynsection-0';
</script>
<script xlink:href="svgpan.js"/>
<svg id="graph" class="graph">
<g id="viewport">
<title>Modules/TOF/src/TOFCheckRawsToT.cxx</title>
<!-- Node1 -->
<g id="node1" class="node"><title>Node1</title>
<polygon fill="#bfbfbf" stroke="black" points="398,-224.5 398,-254.5 541,-254.5 541,-224.5 398,-224.5"/>
<text text-anchor="start" x="406" y="-242.5" font-family="Helvetica,sans-Serif" font-size="10.00">Modules/TOF/src/TOFCheck</text>
<text text-anchor="middle" x="469.5" y="-231.5" font-family="Helvetica,sans-Serif" font-size="10.00">RawsToT.cxx</text>
</g>
<!-- Node2 -->
<g id="node2" class="node"><title>Node2</title>
<g id="a_node2"><a xlink:href="TOFCheckRawsToT_8h.html" target="_top" xlink:title="TOF/TOFCheckRawsToT.h">
<polygon fill="none" stroke="black" points="176.5,-168.5 176.5,-187.5 314.5,-187.5 314.5,-168.5 176.5,-168.5"/>
<text text-anchor="middle" x="245.5" y="-175.5" font-family="Helvetica,sans-Serif" font-size="10.00">TOF/TOFCheckRawsToT.h</text>
</a>
</g>
</g>
<!-- Node1&#45;&gt;Node2 -->
<g id="edge1" class="edge"><title>Node1&#45;&gt;Node2</title>
<path fill="none" stroke="midnightblue" d="M416.699,-224.475C377.21,-213.986 323.944,-199.837 287.371,-190.122"/>
<polygon fill="midnightblue" stroke="midnightblue" points="288.087,-186.691 277.524,-187.506 286.29,-193.456 288.087,-186.691"/>
</g>
<!-- Node12 -->
<g id="node12" class="node"><title>Node12</title>
<polygon fill="none" stroke="#bfbfbf" points="333,-168.5 333,-187.5 430,-187.5 430,-168.5 333,-168.5"/>
<text text-anchor="middle" x="381.5" y="-175.5" font-family="Helvetica,sans-Serif" font-size="10.00">fairlogger/Logger.h</text>
</g>
<!-- Node1&#45;&gt;Node12 -->
<g id="edge18" class="edge"><title>Node1&#45;&gt;Node12</title>
<path fill="none" stroke="midnightblue" d="M448.645,-224.399C434.803,-215.04 416.689,-202.792 402.764,-193.377"/>
<polygon fill="midnightblue" stroke="midnightblue" points="404.549,-190.36 394.305,-187.658 400.628,-196.158 404.549,-190.36"/>
</g>
<!-- Node13 -->
<g id="node13" class="node"><title>Node13</title>
<polygon fill="none" stroke="#bfbfbf" points="447.5,-168.5 447.5,-187.5 491.5,-187.5 491.5,-168.5 447.5,-168.5"/>
<text text-anchor="middle" x="469.5" y="-175.5" font-family="Helvetica,sans-Serif" font-size="10.00">TH1.h</text>
</g>
<!-- Node1&#45;&gt;Node13 -->
<g id="edge19" class="edge"><title>Node1&#45;&gt;Node13</title>
<path fill="none" stroke="midnightblue" d="M469.5,-224.399C469.5,-216.466 469.5,-206.458 469.5,-197.858"/>
<polygon fill="midnightblue" stroke="midnightblue" points="473,-197.658 469.5,-187.658 466,-197.658 473,-197.658"/>
</g>
<!-- Node14 -->
<g id="node14" class="node"><title>Node14</title>
<polygon fill="none" stroke="#bfbfbf" points="510,-168.5 510,-187.5 557,-187.5 557,-168.5 510,-168.5"/>
<text text-anchor="middle" x="533.5" y="-175.5" font-family="Helvetica,sans-Serif" font-size="10.00">TList.h</text>
</g>
<!-- Node1&#45;&gt;Node14 -->
<g id="edge20" class="edge"><title>Node1&#45;&gt;Node14</title>
<path fill="none" stroke="midnightblue" d="M484.667,-224.399C494.255,-215.486 506.661,-203.952 516.569,-194.741"/>
<polygon fill="midnightblue" stroke="midnightblue" points="519.247,-197.03 524.187,-187.658 514.48,-191.903 519.247,-197.03"/>
</g>
<!-- Node15 -->
<g id="node15" class="node"><title>Node15</title>
<polygon fill="none" stroke="#bfbfbf" points="575,-168.5 575,-187.5 648,-187.5 648,-168.5 575,-168.5"/>
<text text-anchor="middle" x="611.5" y="-175.5" font-family="Helvetica,sans-Serif" font-size="10.00">TPaveText.h</text>
</g>
<!-- Node1&#45;&gt;Node15 -->
<g id="edge21" class="edge"><title>Node1&#45;&gt;Node15</title>
<path fill="none" stroke="midnightblue" d="M503.152,-224.399C526.977,-214.416 558.646,-201.147 581.588,-191.534"/>
<polygon fill="midnightblue" stroke="midnightblue" points="582.967,-194.751 590.838,-187.658 580.262,-188.294 582.967,-194.751"/>
</g>
<!-- Node3 -->
<g id="node3" class="node"><title>Node3</title>
<g id="a_node3"><a xlink:href="CheckInterface_8h.html" target="_top" xlink:title="QualityControl/CheckInterface.h">
<polygon fill="none" stroke="black" points="167,-112.5 167,-131.5 324,-131.5 324,-112.5 167,-112.5"/>
<text text-anchor="middle" x="245.5" y="-119.5" font-family="Helvetica,sans-Serif" font-size="10.00">QualityControl/CheckInterface.h</text>
</a>
</g>
</g>
<!-- Node2&#45;&gt;Node3 -->
<g id="edge2" class="edge"><title>Node2&#45;&gt;Node3</title>
<path fill="none" stroke="midnightblue" d="M245.5,-168.083C245.5,-161.006 245.5,-150.861 245.5,-141.986"/>
<polygon fill="midnightblue" stroke="midnightblue" points="249,-141.751 245.5,-131.751 242,-141.751 249,-141.751"/>
</g>
<!-- Node8 -->
<g id="node8" class="node"><title>Node8</title>
<g id="a_node8"><a xlink:href="MonitorObject_8h.html" target="_top" xlink:title="QualityControl/MonitorObject.h">
<polygon fill="none" stroke="black" points="356,-56.5 356,-75.5 507,-75.5 507,-56.5 356,-56.5"/>
<text text-anchor="middle" x="431.5" y="-63.5" font-family="Helvetica,sans-Serif" font-size="10.00">QualityControl/MonitorObject.h</text>
</a>
</g>
</g>
<!-- Node2&#45;&gt;Node8 -->
<g id="edge16" class="edge"><title>Node2&#45;&gt;Node8</title>
<path fill="none" stroke="midnightblue" d="M263.453,-168.393C281.252,-159.702 309.16,-145.649 332.5,-132 360.359,-115.708 391.272,-94.9593 411.022,-81.3431"/>
<polygon fill="midnightblue" stroke="midnightblue" points="413.036,-84.2054 419.259,-75.6306 409.047,-78.4532 413.036,-84.2054"/>
</g>
<!-- Node11 -->
<g id="node11" class="node"><title>Node11</title>
<g id="a_node11"><a xlink:href="Quality_8h.html" target="_top" xlink:title="QualityControl/Quality.h">
<polygon fill="none" stroke="black" points="0,-56.5 0,-75.5 121,-75.5 121,-56.5 0,-56.5"/>
<text text-anchor="middle" x="60.5" y="-63.5" font-family="Helvetica,sans-Serif" font-size="10.00">QualityControl/Quality.h</text>
</a>
</g>
</g>
<!-- Node2&#45;&gt;Node11 -->
<g id="edge17" class="edge"><title>Node2&#45;&gt;Node11</title>
<path fill="none" stroke="midnightblue" d="M227.302,-168.47C209.27,-159.839 181.019,-145.829 157.5,-132 130.195,-115.945 100.085,-95.2734 80.7666,-81.6019"/>
<polygon fill="midnightblue" stroke="midnightblue" points="82.6294,-78.6316 72.4542,-75.6793 78.5674,-84.3326 82.6294,-78.6316"/>
</g>
<!-- Node4 -->
<g id="node4" class="node"><title>Node4</title>
<polygon fill="none" stroke="#bfbfbf" points="261,-0.5 261,-19.5 302,-19.5 302,-0.5 261,-0.5"/>
<text text-anchor="middle" x="281.5" y="-7.5" font-family="Helvetica,sans-Serif" font-size="10.00">string</text>
</g>
<!-- Node3&#45;&gt;Node4 -->
<g id="edge3" class="edge"><title>Node3&#45;&gt;Node4</title>
<path fill="none" stroke="midnightblue" d="M251.122,-112.404C256.619,-103.608 264.826,-89.3733 269.5,-76 274.771,-60.9188 277.858,-43.0173 279.578,-29.8231"/>
<polygon fill="midnightblue" stroke="midnightblue" points="283.084,-29.9653 280.757,-19.6292 276.131,-29.1606 283.084,-29.9653"/>
</g>
<!-- Node5 -->
<g id="node5" class="node"><title>Node5</title>
<polygon fill="none" stroke="#bfbfbf" points="320,-0.5 320,-19.5 355,-19.5 355,-0.5 320,-0.5"/>
<text text-anchor="middle" x="337.5" y="-7.5" font-family="Helvetica,sans-Serif" font-size="10.00">map</text>
</g>
<!-- Node3&#45;&gt;Node5 -->
<g id="edge4" class="edge"><title>Node3&#45;&gt;Node5</title>
<path fill="none" stroke="midnightblue" d="M253.865,-112.208C262.294,-103.261 275.579,-88.9107 286.5,-76 300.048,-59.9839 314.761,-41.0533 324.887,-27.7655"/>
<polygon fill="midnightblue" stroke="midnightblue" points="327.844,-29.6574 331.093,-19.5729 322.265,-25.4304 327.844,-29.6574"/>
</g>
<!-- Node6 -->
<g id="node6" class="node"><title>Node6</title>
<polygon fill="none" stroke="#bfbfbf" points="178,-56.5 178,-75.5 261,-75.5 261,-56.5 178,-56.5"/>
<text text-anchor="middle" x="219.5" y="-63.5" font-family="Helvetica,sans-Serif" font-size="10.00">unordered_map</text>
</g>
<!-- Node3&#45;&gt;Node6 -->
<g id="edge5" class="edge"><title>Node3&#45;&gt;Node6</title>
<path fill="none" stroke="midnightblue" d="M241.207,-112.083C237.648,-104.691 232.478,-93.9533 228.076,-84.8111"/>
<polygon fill="midnightblue" stroke="midnightblue" points="231.205,-83.2427 223.713,-75.7511 224.898,-86.2795 231.205,-83.2427"/>
</g>
<!-- Node7 -->
<g id="node7" class="node"><title>Node7</title>
<polygon fill="none" stroke="#bfbfbf" points="121.5,-0.5 121.5,-19.5 177.5,-19.5 177.5,-0.5 121.5,-0.5"/>
<text text-anchor="middle" x="149.5" y="-7.5" font-family="Helvetica,sans-Serif" font-size="10.00">Rtypes.h</text>
</g>
<!-- Node3&#45;&gt;Node7 -->
<g id="edge6" class="edge"><title>Node3&#45;&gt;Node7</title>
<path fill="none" stroke="midnightblue" d="M221.343,-112.485C204.246,-105.277 182.035,-93.3267 168.5,-76 158.106,-62.6944 153.394,-43.862 151.261,-29.8908"/>
<polygon fill="midnightblue" stroke="midnightblue" points="154.73,-29.4283 150.043,-19.9268 147.782,-30.2775 154.73,-29.4283"/>
</g>
<!-- Node3&#45;&gt;Node8 -->
<g id="edge7" class="edge"><title>Node3&#45;&gt;Node8</title>
<path fill="none" stroke="midnightblue" d="M274.972,-112.444C306.671,-103.241 357.232,-88.5617 392.275,-78.3879"/>
<polygon fill="midnightblue" stroke="midnightblue" points="393.538,-81.6658 402.166,-75.5164 391.586,-74.9434 393.538,-81.6658"/>
</g>
<!-- Node3&#45;&gt;Node11 -->
<g id="edge13" class="edge"><title>Node3&#45;&gt;Node11</title>
<path fill="none" stroke="midnightblue" d="M216.186,-112.444C184.658,-103.241 134.369,-88.5617 99.5143,-78.3879"/>
<polygon fill="midnightblue" stroke="midnightblue" points="100.257,-74.9587 89.6767,-75.5164 98.2954,-81.6783 100.257,-74.9587"/>
</g>
<!-- Node8&#45;&gt;Node4 -->
<g id="edge8" class="edge"><title>Node8&#45;&gt;Node4</title>
<path fill="none" stroke="midnightblue" d="M407.732,-56.4435C381.834,-47.1203 340.324,-32.1768 312.031,-21.9911"/>
<polygon fill="midnightblue" stroke="midnightblue" points="312.853,-18.5672 302.258,-18.473 310.482,-25.1534 312.853,-18.5672"/>
</g>
<!-- Node8&#45;&gt;Node5 -->
<g id="edge9" class="edge"><title>Node8&#45;&gt;Node5</title>
<path fill="none" stroke="midnightblue" d="M416.397,-56.324C401.597,-47.8215 378.806,-34.7288 361.518,-24.7975"/>
<polygon fill="midnightblue" stroke="midnightblue" points="362.98,-21.6009 352.565,-19.6545 359.493,-27.6707 362.98,-21.6009"/>
</g>
<!-- Node8&#45;&gt;Node7 -->
<g id="edge10" class="edge"><title>Node8&#45;&gt;Node7</title>
<path fill="none" stroke="midnightblue" d="M386.816,-56.4435C331.895,-45.9266 239.627,-28.2583 187.804,-18.3347"/>
<polygon fill="midnightblue" stroke="midnightblue" points="188.174,-14.8421 177.694,-16.3989 186.857,-21.7172 188.174,-14.8421"/>
</g>
<!-- Node9 -->
<g id="node9" class="node"><title>Node9</title>
<polygon fill="none" stroke="#bfbfbf" points="508,-0.5 508,-19.5 567,-19.5 567,-0.5 508,-0.5"/>
<text text-anchor="middle" x="537.5" y="-7.5" font-family="Helvetica,sans-Serif" font-size="10.00">TObject.h</text>
</g>
<!-- Node8&#45;&gt;Node9 -->
<g id="edge11" class="edge"><title>Node8&#45;&gt;Node9</title>
<path fill="none" stroke="midnightblue" d="M448.531,-56.324C465.53,-47.6641 491.876,-34.2424 511.493,-24.249"/>
<polygon fill="midnightblue" stroke="midnightblue" points="513.19,-27.3125 520.512,-19.6545 510.012,-21.0752 513.19,-27.3125"/>
</g>
<!-- Node10 -->
<g id="node10" class="node"><title>Node10</title>
<polygon fill="none" stroke="#bfbfbf" points="373.5,-0.5 373.5,-19.5 489.5,-19.5 489.5,-0.5 373.5,-0.5"/>
<text text-anchor="middle" x="431.5" y="-7.5" font-family="Helvetica,sans-Serif" font-size="10.00">Common/Exceptions.h</text>
</g>
<!-- Node8&#45;&gt;Node10 -->
<g id="edge12" class="edge"><title>Node8&#45;&gt;Node10</title>
<path fill="none" stroke="midnightblue" d="M431.5,-56.083C431.5,-49.0059 431.5,-38.8611 431.5,-29.9865"/>
<polygon fill="midnightblue" stroke="midnightblue" points="435,-29.751 431.5,-19.7511 428,-29.7511 435,-29.751"/>
</g>
<!-- Node11&#45;&gt;Node4 -->
<g id="edge15" class="edge"><title>Node11&#45;&gt;Node4</title>
<path fill="none" stroke="midnightblue" d="M95.5181,-56.4435C138.401,-45.9655 210.335,-28.3888 251.03,-18.445"/>
<polygon fill="midnightblue" stroke="midnightblue" points="252.025,-21.8052 260.908,-16.0315 250.363,-15.0052 252.025,-21.8052"/>
</g>
<!-- Node11&#45;&gt;Node7 -->
<g id="edge14" class="edge"><title>Node11&#45;&gt;Node7</title>
<path fill="none" stroke="midnightblue" d="M74.7994,-56.324C88.6829,-47.9002 109.992,-34.9709 126.304,-25.0741"/>
<polygon fill="midnightblue" stroke="midnightblue" points="128.502,-27.8341 135.236,-19.6545 124.871,-21.8495 128.502,-27.8341"/>
</g>
</g>
</svg>
        <g id="navigator" transform="translate(0 0)" fill="#404254">
                <rect fill="#f2f5e9" fill-opacity="0.5" stroke="#606060" stroke-width=".5" x="0" y="0" width="60" height="60"/>
                <use id="zoomplus" xlink:href="#zoomPlus" x="17" y="9" onmousedown="handleZoom(evt,'in')"/>
                <use id="zoomminus" xlink:href="#zoomMin" x="42" y="9" onmousedown="handleZoom(evt,'out')"/>
                <use id="reset" xlink:href="#resetDef" x="30" y="36" onmousedown="handleReset()"/>
                <g id="arrowUp" xlink:href="#dirArrow" transform="translate(30 24)" onmousedown="handlePan(0,-1)">
                  <use xlink:href="#rim" fill="#404040">
                        <set attributeName="fill" to="#808080" begin="arrowUp.mouseover" end="arrowUp.mouseout"/>
                  </use>
                  <path fill="none" stroke="white" stroke-width="1.5" d="M0,-3.0v7 M-2.5,-0.5L0,-3.0L2.5,-0.5"/>
                </g>
                <g id="arrowRight" xlink:href="#dirArrow" transform="rotate(90) translate(36 -43)" onmousedown="handlePan(1,0)">
                  <use xlink:href="#rim" fill="#404040">
                        <set attributeName="fill" to="#808080" begin="arrowRight.mouseover" end="arrowRight.mouseout"/>
                  </use>
                  <path fill="none" stroke="white" stroke-width="1.5" d="M0,-3.0v7 M-2.5,-0.5L0,-3.0L2.5,-0.5"/>
                </g>
                <g id="arrowDown" xlink:href="#dirArrow" transform="rotate(180) translate(-30 -48)" onmousedown="handlePan(0,1)">
                  <use xlink:href="#rim" fill="#404040">
                        <set attributeName="fill" to="#808080" begin="arrowDown.mouseover" end="arrowDown.mouseout"/>
                  </use>
                  <path fill="none" stroke="white" stroke-width="1.5" d="M0,-3.0v7 M-2.5,-0.5L0,-3.0L2.5,-0.5"/>
                </g>
                <g id="arrowLeft" xlink:href="#dirArrow" transform="rotate(270) translate(-36 17)" onmousedown="handlePan(-1,0)">
                  <use xlink:href="#rim" fill="#404040">
                        <set attributeName="fill" to="#808080" begin="arrowLeft.mouseover" end="arrowLeft.mouseout"/>
                  </use>
                  <path fill="none" stroke="white" stroke-width="1.5" d="M0,-3.0v7 M-2.5,-0.5L0,-3.0L2.5,-0.5"/>
                </g>
        </g>
        <svg viewBox="0 0 15 15" width="100%" height="30px" preserveAspectRatio="xMaxYMin meet">
         <g id="arrow_out" transform="scale(0.3 0.3)">
          <a xlink:href="TOFCheckRawsToT_8cxx__incl_org.svg" target="_base">
           <rect id="button" ry="5" rx="5" y="6" x="6" height="38" width="38"
                fill="#f2f5e9" fill-opacity="0.5" stroke="#606060" stroke-width="1.0"/>
           <path id="arrow"
             d="M 11.500037,31.436501 C 11.940474,20.09759 22.043105,11.32322 32.158766,21.979434 L 37.068811,17.246167 C 37.068811,17.246167 37.088388,32 37.088388,32 L 22.160133,31.978069 C 22.160133,31.978069 26.997745,27.140456 26.997745,27.140456 C 18.528582,18.264221 13.291696,25.230495 11.500037,31.436501 z"
             style="fill:#404040;"/>
          </a>
         </g>
        </svg>
</svg>
