<?xml version="1.0" encoding="UTF-8" standalone="no"?>
<!DOCTYPE svg PUBLIC "-//W3C//DTD SVG 1.1//EN"
 "http://www.w3.org/Graphics/SVG/1.1/DTD/svg11.dtd">
<!-- Generated by graphviz version 2.38.0 (20140413.2041)
 -->
<!-- Title: Modules/TOF/src/TOFCheckRawsMulti.cxx Pages: 1 -->
<svg width="910pt" height="263pt"
 viewBox="0.00 0.00 909.50 263.00" xmlns="http://www.w3.org/2000/svg" xmlns:xlink="http://www.w3.org/1999/xlink">
<g id="graph0" class="graph" transform="scale(1 1) rotate(0) translate(4 259)">
<title>Modules/TOF/src/TOFCheckRawsMulti.cxx</title>
<!-- Node1 -->
<g id="node1" class="node"><title>Node1</title>
<polygon fill="#bfbfbf" stroke="black" points="520.5,-224.5 520.5,-254.5 663.5,-254.5 663.5,-224.5 520.5,-224.5"/>
<text text-anchor="start" x="528.5" y="-242.5" font-family="Helvetica,sans-Serif" font-size="10.00">Modules/TOF/src/TOFCheck</text>
<text text-anchor="middle" x="592" y="-231.5" font-family="Helvetica,sans-Serif" font-size="10.00">RawsMulti.cxx</text>
</g>
<!-- Node2 -->
<g id="node2" class="node"><title>Node2</title>
<g id="a_node2"><a xlink:href="TOFCheckRawsMulti_8h.html" target="_top" xlink:title="TOF/TOFCheckRawsMulti.h">
<polygon fill="none" stroke="black" points="293,-168.5 293,-187.5 435,-187.5 435,-168.5 293,-168.5"/>
<text text-anchor="middle" x="364" y="-175.5" font-family="Helvetica,sans-Serif" font-size="10.00">TOF/TOFCheckRawsMulti.h</text>
</a>
</g>
</g>
<!-- Node1&#45;&gt;Node2 -->
<g id="edge1" class="edge"><title>Node1&#45;&gt;Node2</title>
<path fill="none" stroke="midnightblue" d="M538.256,-224.475C498.062,-213.986 443.845,-199.837 406.619,-190.122"/>
<polygon fill="midnightblue" stroke="midnightblue" points="407.156,-186.645 396.596,-187.506 405.388,-193.418 407.156,-186.645"/>
</g>
<!-- Node8 -->
<g id="node8" class="node"><title>Node8</title>
<g id="a_node8"><a xlink:href="MonitorObject_8h.html" target="_top" xlink:title="QualityControl/MonitorObject.h">
<polygon fill="none" stroke="black" points="84.5,-56.5 84.5,-75.5 235.5,-75.5 235.5,-56.5 84.5,-56.5"/>
<text text-anchor="middle" x="160" y="-63.5" font-family="Helvetica,sans-Serif" font-size="10.00">QualityControl/MonitorObject.h</text>
</a>
</g>
</g>
<!-- Node1&#45;&gt;Node8 -->
<g id="edge17" class="edge"><title>Node1&#45;&gt;Node8</title>
<path fill="none" stroke="midnightblue" d="M520.234,-235.542C456.259,-230.875 361.091,-218.867 284,-188 243.03,-171.596 232.806,-163.602 202,-132 188.265,-117.91 176.499,-98.6683 168.945,-84.7805"/>
<polygon fill="midnightblue" stroke="midnightblue" points="171.962,-82.9976 164.221,-75.7645 165.762,-86.2467 171.962,-82.9976"/>
</g>
<!-- Node11 -->
<g id="node11" class="node"><title>Node11</title>
<g id="a_node11"><a xlink:href="Quality_8h.html" target="_top" xlink:title="QualityControl/Quality.h">
<polygon fill="none" stroke="black" points="470.5,-56.5 470.5,-75.5 591.5,-75.5 591.5,-56.5 470.5,-56.5"/>
<text text-anchor="middle" x="531" y="-63.5" font-family="Helvetica,sans-Serif" font-size="10.00">QualityControl/Quality.h</text>
</a>
</g>
</g>
<!-- Node1&#45;&gt;Node11 -->
<g id="edge18" class="edge"><title>Node1&#45;&gt;Node11</title>
<path fill="none" stroke="midnightblue" d="M538.534,-224.464C520.218,-216.818 501.667,-205.26 491,-188 470.074,-154.14 498.314,-108.113 516.952,-83.7418"/>
<polygon fill="midnightblue" stroke="midnightblue" points="519.781,-85.8076 523.275,-75.8055 514.306,-81.4456 519.781,-85.8076"/>
</g>
<!-- Node13 -->
<g id="node13" class="node"><title>Node13</title>
<polygon fill="none" stroke="#bfbfbf" points="499.5,-168.5 499.5,-187.5 596.5,-187.5 596.5,-168.5 499.5,-168.5"/>
<text text-anchor="middle" x="548" y="-175.5" font-family="Helvetica,sans-Serif" font-size="10.00">fairlogger/Logger.h</text>
</g>
<!-- Node1&#45;&gt;Node13 -->
<g id="edge19" class="edge"><title>Node1&#45;&gt;Node13</title>
<path fill="none" stroke="midnightblue" d="M581.573,-224.399C575.245,-215.842 567.131,-204.871 560.466,-195.857"/>
<polygon fill="midnightblue" stroke="midnightblue" points="563.162,-193.617 554.402,-187.658 557.534,-197.779 563.162,-193.617"/>
</g>
<!-- Node14 -->
<g id="node14" class="node"><title>Node14</title>
<polygon fill="none" stroke="#bfbfbf" points="614,-168.5 614,-187.5 658,-187.5 658,-168.5 614,-168.5"/>
<text text-anchor="middle" x="636" y="-175.5" font-family="Helvetica,sans-Serif" font-size="10.00">TH1.h</text>
</g>
<!-- Node1&#45;&gt;Node14 -->
<g id="edge20" class="edge"><title>Node1&#45;&gt;Node14</title>
<path fill="none" stroke="midnightblue" d="M602.427,-224.399C608.755,-215.842 616.869,-204.871 623.534,-195.857"/>
<polygon fill="midnightblue" stroke="midnightblue" points="626.466,-197.779 629.598,-187.658 620.838,-193.617 626.466,-197.779"/>
</g>
<!-- Node15 -->
<g id="node15" class="node"><title>Node15</title>
<polygon fill="none" stroke="#bfbfbf" points="676.5,-168.5 676.5,-187.5 749.5,-187.5 749.5,-168.5 676.5,-168.5"/>
<text text-anchor="middle" x="713" y="-175.5" font-family="Helvetica,sans-Serif" font-size="10.00">TPaveText.h</text>
</g>
<!-- Node1&#45;&gt;Node15 -->
<g id="edge21" class="edge"><title>Node1&#45;&gt;Node15</title>
<path fill="none" stroke="midnightblue" d="M620.675,-224.399C640.524,-214.639 666.761,-201.737 686.192,-192.183"/>
<polygon fill="midnightblue" stroke="midnightblue" points="687.964,-195.211 695.393,-187.658 684.875,-188.93 687.964,-195.211"/>
</g>
<!-- Node16 -->
<g id="node16" class="node"><title>Node16</title>
<polygon fill="none" stroke="#bfbfbf" points="767.5,-168.5 767.5,-187.5 814.5,-187.5 814.5,-168.5 767.5,-168.5"/>
<text text-anchor="middle" x="791" y="-175.5" font-family="Helvetica,sans-Serif" font-size="10.00">TList.h</text>
</g>
<!-- Node1&#45;&gt;Node16 -->
<g id="edge22" class="edge"><title>Node1&#45;&gt;Node16</title>
<path fill="none" stroke="midnightblue" d="M638.908,-224.475C675.302,-213.593 724.87,-198.773 757.386,-189.05"/>
<polygon fill="midnightblue" stroke="midnightblue" points="758.727,-192.303 767.306,-186.084 756.722,-185.596 758.727,-192.303"/>
</g>
<!-- Node17 -->
<g id="node17" class="node"><title>Node17</title>
<polygon fill="none" stroke="#bfbfbf" points="832.5,-168.5 832.5,-187.5 901.5,-187.5 901.5,-168.5 832.5,-168.5"/>
<text text-anchor="middle" x="867" y="-175.5" font-family="Helvetica,sans-Serif" font-size="10.00">TObjArray.h</text>
</g>
<!-- Node1&#45;&gt;Node17 -->
<g id="edge23" class="edge"><title>Node1&#45;&gt;Node17</title>
<path fill="none" stroke="midnightblue" d="M656.823,-224.475C707.795,-213.446 777.466,-198.372 822.354,-188.66"/>
<polygon fill="midnightblue" stroke="midnightblue" points="823.339,-192.028 832.372,-186.492 821.858,-185.186 823.339,-192.028"/>
</g>
<!-- Node3 -->
<g id="node3" class="node"><title>Node3</title>
<g id="a_node3"><a xlink:href="CheckInterface_8h.html" target="_top" xlink:title="QualityControl/CheckInterface.h">
<polygon fill="none" stroke="black" points="285.5,-112.5 285.5,-131.5 442.5,-131.5 442.5,-112.5 285.5,-112.5"/>
<text text-anchor="middle" x="364" y="-119.5" font-family="Helvetica,sans-Serif" font-size="10.00">QualityControl/CheckInterface.h</text>
</a>
</g>
</g>
<!-- Node2&#45;&gt;Node3 -->
<g id="edge2" class="edge"><title>Node2&#45;&gt;Node3</title>
<path fill="none" stroke="midnightblue" d="M364,-168.083C364,-161.006 364,-150.861 364,-141.986"/>
<polygon fill="midnightblue" stroke="midnightblue" points="367.5,-141.751 364,-131.751 360.5,-141.751 367.5,-141.751"/>
</g>
<!-- Node12 -->
<g id="node12" class="node"><title>Node12</title>
<polygon fill="none" stroke="#bfbfbf" points="211,-112.5 211,-131.5 267,-131.5 267,-112.5 211,-112.5"/>
<text text-anchor="middle" x="239" y="-119.5" font-family="Helvetica,sans-Serif" font-size="10.00">TString.h</text>
</g>
<!-- Node2&#45;&gt;Node12 -->
<g id="edge16" class="edge"><title>Node2&#45;&gt;Node12</title>
<path fill="none" stroke="midnightblue" d="M344.193,-168.444C323.713,-159.596 291.517,-145.687 268.135,-135.586"/>
<polygon fill="midnightblue" stroke="midnightblue" points="269.282,-132.269 258.714,-131.516 266.506,-138.695 269.282,-132.269"/>
</g>
<!-- Node4 -->
<g id="node4" class="node"><title>Node4</title>
<polygon fill="none" stroke="#bfbfbf" points="421.5,-0.5 421.5,-19.5 462.5,-19.5 462.5,-0.5 421.5,-0.5"/>
<text text-anchor="middle" x="442" y="-7.5" font-family="Helvetica,sans-Serif" font-size="10.00">string</text>
</g>
<!-- Node3&#45;&gt;Node4 -->
<g id="edge3" class="edge"><title>Node3&#45;&gt;Node4</title>
<path fill="none" stroke="midnightblue" d="M379.746,-112.489C392.846,-104.643 411.059,-91.8317 422,-76 431.544,-62.1893 436.656,-43.6682 439.315,-29.9296"/>
<polygon fill="midnightblue" stroke="midnightblue" points="442.825,-30.1616 441.015,-19.7224 435.92,-29.0116 442.825,-30.1616"/>
</g>
<!-- Node5 -->
<g id="node5" class="node"><title>Node5</title>
<polygon fill="none" stroke="#bfbfbf" points="217.5,-0.5 217.5,-19.5 252.5,-19.5 252.5,-0.5 217.5,-0.5"/>
<text text-anchor="middle" x="235" y="-7.5" font-family="Helvetica,sans-Serif" font-size="10.00">map</text>
</g>
<!-- Node3&#45;&gt;Node5 -->
<g id="edge4" class="edge"><title>Node3&#45;&gt;Node5</title>
<path fill="none" stroke="midnightblue" d="M353.366,-112.482C342.22,-103.512 324.245,-88.9251 309,-76 289.375,-59.361 267.255,-39.8261 252.353,-26.5478"/>
<polygon fill="midnightblue" stroke="midnightblue" points="254.276,-23.5728 244.486,-19.522 249.613,-28.7937 254.276,-23.5728"/>
</g>
<!-- Node6 -->
<g id="node6" class="node"><title>Node6</title>
<polygon fill="none" stroke="#bfbfbf" points="330.5,-56.5 330.5,-75.5 413.5,-75.5 413.5,-56.5 330.5,-56.5"/>
<text text-anchor="middle" x="372" y="-63.5" font-family="Helvetica,sans-Serif" font-size="10.00">unordered_map</text>
</g>
<!-- Node3&#45;&gt;Node6 -->
<g id="edge5" class="edge"><title>Node3&#45;&gt;Node6</title>
<path fill="none" stroke="midnightblue" d="M365.321,-112.083C366.381,-104.927 367.906,-94.6353 369.231,-85.6911"/>
<polygon fill="midnightblue" stroke="midnightblue" points="372.7,-86.1561 370.704,-75.7511 365.776,-85.1302 372.7,-86.1561"/>
</g>
<!-- Node7 -->
<g id="node7" class="node"><title>Node7</title>
<polygon fill="none" stroke="#bfbfbf" points="274,-0.5 274,-19.5 330,-19.5 330,-0.5 274,-0.5"/>
<text text-anchor="middle" x="302" y="-7.5" font-family="Helvetica,sans-Serif" font-size="10.00">Rtypes.h</text>
</g>
<!-- Node3&#45;&gt;Node7 -->
<g id="edge6" class="edge"><title>Node3&#45;&gt;Node7</title>
<path fill="none" stroke="midnightblue" d="M353.3,-112.448C343.552,-104.116 329.428,-90.5992 321,-76 312.643,-61.5222 307.708,-43.0749 304.971,-29.534"/>
<polygon fill="midnightblue" stroke="midnightblue" points="308.383,-28.7284 303.163,-19.5084 301.494,-29.9708 308.383,-28.7284"/>
</g>
<!-- Node3&#45;&gt;Node8 -->
<g id="edge7" class="edge"><title>Node3&#45;&gt;Node8</title>
<path fill="none" stroke="midnightblue" d="M331.676,-112.444C296.611,-103.162 240.502,-88.3093 202.035,-78.127"/>
<polygon fill="midnightblue" stroke="midnightblue" points="202.736,-74.692 192.173,-75.5164 200.945,-81.4589 202.736,-74.692"/>
</g>
<!-- Node3&#45;&gt;Node11 -->
<g id="edge13" class="edge"><title>Node3&#45;&gt;Node11</title>
<path fill="none" stroke="midnightblue" d="M390.462,-112.444C418.678,-103.32 463.54,-88.8133 494.968,-78.6509"/>
<polygon fill="midnightblue" stroke="midnightblue" points="496.224,-81.9234 504.662,-75.5164 494.07,-75.263 496.224,-81.9234"/>
</g>
<!-- Node8&#45;&gt;Node4 -->
<g id="edge8" class="edge"><title>Node8&#45;&gt;Node4</title>
<path fill="none" stroke="midnightblue" d="M204.684,-56.4435C262.536,-45.3655 361.825,-26.3527 411.634,-16.8148"/>
<polygon fill="midnightblue" stroke="midnightblue" points="412.315,-20.2479 421.479,-14.9296 410.999,-13.3729 412.315,-20.2479"/>
</g>
<!-- Node8&#45;&gt;Node5 -->
<g id="edge9" class="edge"><title>Node8&#45;&gt;Node5</title>
<path fill="none" stroke="midnightblue" d="M172.05,-56.324C183.463,-48.1066 200.831,-35.6017 214.435,-25.8069"/>
<polygon fill="midnightblue" stroke="midnightblue" points="216.66,-28.5174 222.731,-19.8339 212.57,-22.8366 216.66,-28.5174"/>
</g>
<!-- Node8&#45;&gt;Node7 -->
<g id="edge10" class="edge"><title>Node8&#45;&gt;Node7</title>
<path fill="none" stroke="midnightblue" d="M182.5,-56.4435C206.077,-47.4776 243.322,-33.314 269.964,-23.1827"/>
<polygon fill="midnightblue" stroke="midnightblue" points="271.502,-26.3424 279.605,-19.5164 269.014,-19.7995 271.502,-26.3424"/>
</g>
<!-- Node9 -->
<g id="node9" class="node"><title>Node9</title>
<polygon fill="none" stroke="#bfbfbf" points="134.5,-0.5 134.5,-19.5 193.5,-19.5 193.5,-0.5 134.5,-0.5"/>
<text text-anchor="middle" x="164" y="-7.5" font-family="Helvetica,sans-Serif" font-size="10.00">TObject.h</text>
</g>
<!-- Node8&#45;&gt;Node9 -->
<g id="edge11" class="edge"><title>Node8&#45;&gt;Node9</title>
<path fill="none" stroke="midnightblue" d="M160.661,-56.083C161.185,-49.0059 161.936,-38.8611 162.594,-29.9865"/>
<polygon fill="midnightblue" stroke="midnightblue" points="166.103,-29.9823 163.352,-19.7511 159.123,-29.4652 166.103,-29.9823"/>
</g>
<!-- Node10 -->
<g id="node10" class="node"><title>Node10</title>
<polygon fill="none" stroke="#bfbfbf" points="0,-0.5 0,-19.5 116,-19.5 116,-0.5 0,-0.5"/>
<text text-anchor="middle" x="58" y="-7.5" font-family="Helvetica,sans-Serif" font-size="10.00">Common/Exceptions.h</text>
</g>
<!-- Node8&#45;&gt;Node10 -->
<g id="edge12" class="edge"><title>Node8&#45;&gt;Node10</title>
<path fill="none" stroke="midnightblue" d="M143.612,-56.324C127.329,-47.7034 102.133,-34.3643 83.2837,-24.3855"/>
<polygon fill="midnightblue" stroke="midnightblue" points="84.8229,-21.2402 74.3474,-19.6545 81.5477,-27.4267 84.8229,-21.2402"/>
</g>
<!-- Node11&#45;&gt;Node4 -->
<g id="edge15" class="edge"><title>Node11&#45;&gt;Node4</title>
<path fill="none" stroke="midnightblue" d="M516.701,-56.324C502.817,-47.9002 481.508,-34.9709 465.196,-25.0741"/>
<polygon fill="midnightblue" stroke="midnightblue" points="466.629,-21.8495 456.264,-19.6545 462.998,-27.8341 466.629,-21.8495"/>
</g>
<!-- Node11&#45;&gt;Node7 -->
<g id="edge14" class="edge"><title>Node11&#45;&gt;Node7</title>
<path fill="none" stroke="midnightblue" d="M494.714,-56.4435C452.448,-46.4769 382.946,-30.0877 339.971,-19.954"/>
<polygon fill="midnightblue" stroke="midnightblue" points="340.711,-16.5325 330.175,-17.6439 339.105,-23.3456 340.711,-16.5325"/>
</g>
</g>
</svg>
