<?xml version="1.0" encoding="UTF-8" standalone="no"?>
<!DOCTYPE svg PUBLIC "-//W3C//DTD SVG 1.1//EN"
 "http://www.w3.org/Graphics/SVG/1.1/DTD/svg11.dtd">
<!-- Generated by graphviz version 2.38.0 (20140413.2041)
 -->
<!-- Title: Modules/TOF/src/TOFCheckCompressedCounter.cxx Pages: 1 -->
<svg width="940pt" height="263pt"
 viewBox="0.00 0.00 940.00 263.00" xmlns="http://www.w3.org/2000/svg" xmlns:xlink="http://www.w3.org/1999/xlink">
<g id="graph0" class="graph" transform="scale(1 1) rotate(0) translate(4 259)">
<title>Modules/TOF/src/TOFCheckCompressedCounter.cxx</title>
<!-- Node1 -->
<g id="node1" class="node"><title>Node1</title>
<polygon fill="#bfbfbf" stroke="black" points="563,-224.5 563,-254.5 706,-254.5 706,-224.5 563,-224.5"/>
<text text-anchor="start" x="571" y="-242.5" font-family="Helvetica,sans-Serif" font-size="10.00">Modules/TOF/src/TOFCheck</text>
<text text-anchor="middle" x="634.5" y="-231.5" font-family="Helvetica,sans-Serif" font-size="10.00">CompressedCounter.cxx</text>
</g>
<!-- Node2 -->
<g id="node2" class="node"><title>Node2</title>
<g id="a_node2"><a xlink:href="TOFCheckCompressedCounter_8h.html" target="_top" xlink:title="TOF/TOFCheckCompressedCounter.h">
<polygon fill="none" stroke="black" points="250,-168.5 250,-187.5 435,-187.5 435,-168.5 250,-168.5"/>
<text text-anchor="middle" x="342.5" y="-175.5" font-family="Helvetica,sans-Serif" font-size="10.00">TOF/TOFCheckCompressedCounter.h</text>
</a>
</g>
</g>
<!-- Node1&#45;&gt;Node2 -->
<g id="edge1" class="edge"><title>Node1&#45;&gt;Node2</title>
<path fill="none" stroke="midnightblue" d="M565.67,-224.475C513.094,-213.761 441.782,-199.23 394.056,-189.506"/>
<polygon fill="midnightblue" stroke="midnightblue" points="394.743,-186.074 384.246,-187.506 393.345,-192.933 394.743,-186.074"/>
</g>
<!-- Node8 -->
<g id="node8" class="node"><title>Node8</title>
<g id="a_node8"><a xlink:href="MonitorObject_8h.html" target="_top" xlink:title="QualityControl/MonitorObject.h">
<polygon fill="none" stroke="black" points="40,-56.5 40,-75.5 191,-75.5 191,-56.5 40,-56.5"/>
<text text-anchor="middle" x="115.5" y="-63.5" font-family="Helvetica,sans-Serif" font-size="10.00">QualityControl/MonitorObject.h</text>
</a>
</g>
</g>
<!-- Node1&#45;&gt;Node8 -->
<g id="edge18" class="edge"><title>Node1&#45;&gt;Node8</title>
<path fill="none" stroke="midnightblue" d="M562.875,-234.727C465.163,-228.665 295.889,-214.641 240.5,-188 190.1,-163.759 147.212,-111.281 127.338,-84.0964"/>
<polygon fill="midnightblue" stroke="midnightblue" points="129.95,-81.7315 121.293,-75.6235 124.251,-85.7969 129.95,-81.7315"/>
</g>
<!-- Node11 -->
<g id="node11" class="node"><title>Node11</title>
<g id="a_node11"><a xlink:href="Quality_8h.html" target="_top" xlink:title="QualityControl/Quality.h">
<polygon fill="none" stroke="black" points="425,-56.5 425,-75.5 546,-75.5 546,-56.5 425,-56.5"/>
<text text-anchor="middle" x="485.5" y="-63.5" font-family="Helvetica,sans-Serif" font-size="10.00">QualityControl/Quality.h</text>
</a>
</g>
</g>
<!-- Node1&#45;&gt;Node11 -->
<g id="edge19" class="edge"><title>Node1&#45;&gt;Node11</title>
<path fill="none" stroke="midnightblue" d="M562.96,-229.07C537.407,-221.986 510.907,-209.607 494.5,-188 471.863,-158.187 476.317,-111.46 481.158,-85.6661"/>
<polygon fill="midnightblue" stroke="midnightblue" points="484.618,-86.2185 483.247,-75.7128 477.768,-84.781 484.618,-86.2185"/>
</g>
<!-- Node12 -->
<g id="node12" class="node"><title>Node12</title>
<g id="a_node12"><a xlink:href="QcInfoLogger_8h.html" target="_top" xlink:title="QualityControl/QcInfoLogger.h">
<polygon fill="none" stroke="black" points="503,-168.5 503,-187.5 652,-187.5 652,-168.5 503,-168.5"/>
<text text-anchor="middle" x="577.5" y="-175.5" font-family="Helvetica,sans-Serif" font-size="10.00">QualityControl/QcInfoLogger.h</text>
</a>
</g>
</g>
<!-- Node1&#45;&gt;Node12 -->
<g id="edge20" class="edge"><title>Node1&#45;&gt;Node12</title>
<path fill="none" stroke="midnightblue" d="M620.992,-224.399C612.538,-215.575 601.625,-204.183 592.845,-195.018"/>
<polygon fill="midnightblue" stroke="midnightblue" points="595.239,-192.458 585.794,-187.658 590.184,-197.3 595.239,-192.458"/>
</g>
<!-- Node14 -->
<g id="node14" class="node"><title>Node14</title>
<polygon fill="none" stroke="#bfbfbf" points="669.5,-168.5 669.5,-187.5 713.5,-187.5 713.5,-168.5 669.5,-168.5"/>
<text text-anchor="middle" x="691.5" y="-175.5" font-family="Helvetica,sans-Serif" font-size="10.00">TH1.h</text>
</g>
<!-- Node1&#45;&gt;Node14 -->
<g id="edge22" class="edge"><title>Node1&#45;&gt;Node14</title>
<path fill="none" stroke="midnightblue" d="M648.008,-224.399C656.462,-215.575 667.375,-204.183 676.155,-195.018"/>
<polygon fill="midnightblue" stroke="midnightblue" points="678.816,-197.3 683.206,-187.658 673.761,-192.458 678.816,-197.3"/>
</g>
<!-- Node15 -->
<g id="node15" class="node"><title>Node15</title>
<polygon fill="none" stroke="#bfbfbf" points="731.5,-168.5 731.5,-187.5 775.5,-187.5 775.5,-168.5 731.5,-168.5"/>
<text text-anchor="middle" x="753.5" y="-175.5" font-family="Helvetica,sans-Serif" font-size="10.00">TH2.h</text>
</g>
<!-- Node1&#45;&gt;Node15 -->
<g id="edge23" class="edge"><title>Node1&#45;&gt;Node15</title>
<path fill="none" stroke="midnightblue" d="M662.701,-224.399C682.222,-214.639 708.025,-201.737 727.135,-192.183"/>
<polygon fill="midnightblue" stroke="midnightblue" points="728.805,-195.26 736.184,-187.658 725.675,-188.999 728.805,-195.26"/>
</g>
<!-- Node16 -->
<g id="node16" class="node"><title>Node16</title>
<polygon fill="none" stroke="#bfbfbf" points="794,-168.5 794,-187.5 867,-187.5 867,-168.5 794,-168.5"/>
<text text-anchor="middle" x="830.5" y="-175.5" font-family="Helvetica,sans-Serif" font-size="10.00">TPaveText.h</text>
</g>
<!-- Node1&#45;&gt;Node16 -->
<g id="edge24" class="edge"><title>Node1&#45;&gt;Node16</title>
<path fill="none" stroke="midnightblue" d="M680.949,-224.399C714.965,-214.073 760.563,-200.231 792.433,-190.556"/>
<polygon fill="midnightblue" stroke="midnightblue" points="793.714,-193.825 802.266,-187.571 791.681,-187.127 793.714,-193.825"/>
</g>
<!-- Node17 -->
<g id="node17" class="node"><title>Node17</title>
<polygon fill="none" stroke="#bfbfbf" points="885,-168.5 885,-187.5 932,-187.5 932,-168.5 885,-168.5"/>
<text text-anchor="middle" x="908.5" y="-175.5" font-family="Helvetica,sans-Serif" font-size="10.00">TList.h</text>
</g>
<!-- Node1&#45;&gt;Node17 -->
<g id="edge25" class="edge"><title>Node1&#45;&gt;Node17</title>
<path fill="none" stroke="midnightblue" d="M706,-224.915C751.878,-215.888 812.916,-203.305 874.838,-188.295"/>
<polygon fill="midnightblue" stroke="midnightblue" points="875.899,-191.639 884.782,-185.866 874.237,-184.839 875.899,-191.639"/>
</g>
<!-- Node3 -->
<g id="node3" class="node"><title>Node3</title>
<g id="a_node3"><a xlink:href="CheckInterface_8h.html" target="_top" xlink:title="QualityControl/CheckInterface.h">
<polygon fill="none" stroke="black" points="252,-112.5 252,-131.5 409,-131.5 409,-112.5 252,-112.5"/>
<text text-anchor="middle" x="330.5" y="-119.5" font-family="Helvetica,sans-Serif" font-size="10.00">QualityControl/CheckInterface.h</text>
</a>
</g>
</g>
<!-- Node2&#45;&gt;Node3 -->
<g id="edge2" class="edge"><title>Node2&#45;&gt;Node3</title>
<path fill="none" stroke="midnightblue" d="M340.518,-168.083C338.928,-160.927 336.641,-150.635 334.654,-141.691"/>
<polygon fill="midnightblue" stroke="midnightblue" points="338.031,-140.754 332.445,-131.751 331.197,-142.272 338.031,-140.754"/>
</g>
<!-- Node2&#45;&gt;Node8 -->
<g id="edge16" class="edge"><title>Node2&#45;&gt;Node8</title>
<path fill="none" stroke="midnightblue" d="M322.821,-168.493C302.557,-159.652 270.127,-145.276 242.5,-132 206.867,-114.877 166.299,-93.839 140.801,-80.4235"/>
<polygon fill="midnightblue" stroke="midnightblue" points="142.286,-77.2497 131.808,-75.6792 139.02,-83.441 142.286,-77.2497"/>
</g>
<!-- Node2&#45;&gt;Node11 -->
<g id="edge17" class="edge"><title>Node2&#45;&gt;Node11</title>
<path fill="none" stroke="midnightblue" d="M359.27,-168.342C374.935,-159.934 398.666,-146.367 417.5,-132 437.256,-116.931 457.547,-96.8154 470.759,-82.974"/>
<polygon fill="midnightblue" stroke="midnightblue" points="473.361,-85.3168 477.663,-75.6349 468.262,-80.5205 473.361,-85.3168"/>
</g>
<!-- Node4 -->
<g id="node4" class="node"><title>Node4</title>
<polygon fill="none" stroke="#bfbfbf" points="324,-0.5 324,-19.5 365,-19.5 365,-0.5 324,-0.5"/>
<text text-anchor="middle" x="344.5" y="-7.5" font-family="Helvetica,sans-Serif" font-size="10.00">string</text>
</g>
<!-- Node3&#45;&gt;Node4 -->
<g id="edge3" class="edge"><title>Node3&#45;&gt;Node4</title>
<path fill="none" stroke="midnightblue" d="M331.599,-112.368C333.858,-94.617 339.07,-53.6664 342.133,-29.5974"/>
<polygon fill="midnightblue" stroke="midnightblue" points="345.616,-29.9533 343.407,-19.5914 338.672,-29.0695 345.616,-29.9533"/>
</g>
<!-- Node5 -->
<g id="node5" class="node"><title>Node5</title>
<polygon fill="none" stroke="#bfbfbf" points="251,-0.5 251,-19.5 286,-19.5 286,-0.5 251,-0.5"/>
<text text-anchor="middle" x="268.5" y="-7.5" font-family="Helvetica,sans-Serif" font-size="10.00">map</text>
</g>
<!-- Node3&#45;&gt;Node5 -->
<g id="edge4" class="edge"><title>Node3&#45;&gt;Node5</title>
<path fill="none" stroke="midnightblue" d="M327.104,-112.333C321.992,-99.6274 311.718,-75.3556 300.5,-56 294.852,-46.2545 287.647,-35.9751 281.505,-27.7049"/>
<polygon fill="midnightblue" stroke="midnightblue" points="284.215,-25.4872 275.38,-19.6398 278.64,-29.7206 284.215,-25.4872"/>
</g>
<!-- Node6 -->
<g id="node6" class="node"><title>Node6</title>
<polygon fill="none" stroke="#bfbfbf" points="209,-56.5 209,-75.5 292,-75.5 292,-56.5 209,-56.5"/>
<text text-anchor="middle" x="250.5" y="-63.5" font-family="Helvetica,sans-Serif" font-size="10.00">unordered_map</text>
</g>
<!-- Node3&#45;&gt;Node6 -->
<g id="edge5" class="edge"><title>Node3&#45;&gt;Node6</title>
<path fill="none" stroke="midnightblue" d="M317.647,-112.324C305.284,-103.979 286.37,-91.2122 271.763,-81.3524"/>
<polygon fill="midnightblue" stroke="midnightblue" points="273.568,-78.3483 263.321,-75.6545 269.652,-84.1503 273.568,-78.3483"/>
</g>
<!-- Node7 -->
<g id="node7" class="node"><title>Node7</title>
<polygon fill="none" stroke="#bfbfbf" points="383.5,-0.5 383.5,-19.5 439.5,-19.5 439.5,-0.5 383.5,-0.5"/>
<text text-anchor="middle" x="411.5" y="-7.5" font-family="Helvetica,sans-Serif" font-size="10.00">Rtypes.h</text>
</g>
<!-- Node3&#45;&gt;Node7 -->
<g id="edge6" class="edge"><title>Node3&#45;&gt;Node7</title>
<path fill="none" stroke="midnightblue" d="M336.856,-112.368C350.282,-94.135 381.732,-51.4257 399.221,-27.6752"/>
<polygon fill="midnightblue" stroke="midnightblue" points="402.062,-29.7192 405.174,-19.5914 396.426,-25.5685 402.062,-29.7192"/>
</g>
<!-- Node3&#45;&gt;Node8 -->
<g id="edge7" class="edge"><title>Node3&#45;&gt;Node8</title>
<path fill="none" stroke="midnightblue" d="M296.433,-112.444C259.32,-103.122 199.839,-88.1828 159.285,-77.9972"/>
<polygon fill="midnightblue" stroke="midnightblue" points="159.959,-74.5579 149.408,-75.5164 158.254,-81.347 159.959,-74.5579"/>
</g>
<!-- Node3&#45;&gt;Node11 -->
<g id="edge13" class="edge"><title>Node3&#45;&gt;Node11</title>
<path fill="none" stroke="midnightblue" d="M355.06,-112.444C381.023,-103.399 422.168,-89.064 451.297,-78.9158"/>
<polygon fill="midnightblue" stroke="midnightblue" points="452.763,-82.1116 461.055,-75.5164 450.46,-75.5013 452.763,-82.1116"/>
</g>
<!-- Node8&#45;&gt;Node4 -->
<g id="edge8" class="edge"><title>Node8&#45;&gt;Node4</title>
<path fill="none" stroke="midnightblue" d="M151.786,-56.4435C196.547,-45.8884 271.857,-28.1298 313.853,-18.2268"/>
<polygon fill="midnightblue" stroke="midnightblue" points="314.843,-21.5893 323.773,-15.8876 313.237,-14.7762 314.843,-21.5893"/>
</g>
<!-- Node8&#45;&gt;Node5 -->
<g id="edge9" class="edge"><title>Node8&#45;&gt;Node5</title>
<path fill="none" stroke="midnightblue" d="M139.743,-56.4435C167.33,-46.7069 212.284,-30.8408 241.115,-20.6654"/>
<polygon fill="midnightblue" stroke="midnightblue" points="242.32,-23.9517 250.585,-17.323 239.99,-17.3508 242.32,-23.9517"/>
</g>
<!-- Node8&#45;&gt;Node7 -->
<g id="edge10" class="edge"><title>Node8&#45;&gt;Node7</title>
<path fill="none" stroke="midnightblue" d="M170.038,-56.4606C222.381,-48.0356 303.576,-34.3651 373.5,-20 373.6,-19.9795 373.699,-19.959 373.799,-19.9384"/>
<polygon fill="midnightblue" stroke="midnightblue" points="374.29,-23.4135 383.32,-17.8725 372.805,-16.5727 374.29,-23.4135"/>
</g>
<!-- Node9 -->
<g id="node9" class="node"><title>Node9</title>
<polygon fill="none" stroke="#bfbfbf" points="0,-0.5 0,-19.5 59,-19.5 59,-0.5 0,-0.5"/>
<text text-anchor="middle" x="29.5" y="-7.5" font-family="Helvetica,sans-Serif" font-size="10.00">TObject.h</text>
</g>
<!-- Node8&#45;&gt;Node9 -->
<g id="edge11" class="edge"><title>Node8&#45;&gt;Node9</title>
<path fill="none" stroke="midnightblue" d="M101.683,-56.324C88.267,-47.9002 67.6759,-34.9709 51.9144,-25.0741"/>
<polygon fill="midnightblue" stroke="midnightblue" points="53.6132,-22.0081 43.2831,-19.6545 49.8908,-27.9364 53.6132,-22.0081"/>
</g>
<!-- Node10 -->
<g id="node10" class="node"><title>Node10</title>
<polygon fill="none" stroke="#bfbfbf" points="77.5,-0.5 77.5,-19.5 193.5,-19.5 193.5,-0.5 77.5,-0.5"/>
<text text-anchor="middle" x="135.5" y="-7.5" font-family="Helvetica,sans-Serif" font-size="10.00">Common/Exceptions.h</text>
</g>
<!-- Node8&#45;&gt;Node10 -->
<g id="edge12" class="edge"><title>Node8&#45;&gt;Node10</title>
<path fill="none" stroke="midnightblue" d="M118.803,-56.083C121.482,-48.8486 125.349,-38.4087 128.686,-29.3968"/>
<polygon fill="midnightblue" stroke="midnightblue" points="132.068,-30.3442 132.259,-19.7511 125.504,-27.9129 132.068,-30.3442"/>
</g>
<!-- Node11&#45;&gt;Node4 -->
<g id="edge15" class="edge"><title>Node11&#45;&gt;Node4</title>
<path fill="none" stroke="midnightblue" d="M463.158,-56.4435C439.334,-47.3194 401.455,-32.8125 374.92,-22.6501"/>
<polygon fill="midnightblue" stroke="midnightblue" points="375.949,-19.2963 365.358,-18.9883 373.445,-25.8333 375.949,-19.2963"/>
</g>
<!-- Node11&#45;&gt;Node7 -->
<g id="edge14" class="edge"><title>Node11&#45;&gt;Node7</title>
<path fill="none" stroke="midnightblue" d="M473.611,-56.324C462.35,-48.1066 445.213,-35.6017 431.791,-25.8069"/>
<polygon fill="midnightblue" stroke="midnightblue" points="433.747,-22.9014 423.606,-19.8339 429.62,-28.5559 433.747,-22.9014"/>
</g>
<!-- Node13 -->
<g id="node13" class="node"><title>Node13</title>
<polygon fill="none" stroke="#bfbfbf" points="512.5,-112.5 512.5,-131.5 642.5,-131.5 642.5,-112.5 512.5,-112.5"/>
<text text-anchor="middle" x="577.5" y="-119.5" font-family="Helvetica,sans-Serif" font-size="10.00">InfoLogger/InfoLogger.hxx</text>
</g>
<!-- Node12&#45;&gt;Node13 -->
<g id="edge21" class="edge"><title>Node12&#45;&gt;Node13</title>
<path fill="none" stroke="midnightblue" d="M577.5,-168.083C577.5,-161.006 577.5,-150.861 577.5,-141.986"/>
<polygon fill="midnightblue" stroke="midnightblue" points="581,-141.751 577.5,-131.751 574,-141.751 581,-141.751"/>
</g>
</g>
</svg>
