<?xml version="1.0" encoding="UTF-8" standalone="no"?>
<!DOCTYPE svg PUBLIC "-//W3C//DTD SVG 1.1//EN"
 "http://www.w3.org/Graphics/SVG/1.1/DTD/svg11.dtd">
<!-- Generated by graphviz version 2.38.0 (20140413.2041)
 -->
<!-- Title: Modules/TOF/include/TOF/TOFCheckRawsTime.h Pages: 1 -->
<svg width="575pt" height="207pt"
 viewBox="0.00 0.00 575.00 207.00" xmlns="http://www.w3.org/2000/svg" xmlns:xlink="http://www.w3.org/1999/xlink">
<g id="graph0" class="graph" transform="scale(1 1) rotate(0) translate(4 203)">
<title>Modules/TOF/include/TOF/TOFCheckRawsTime.h</title>
<!-- Node1 -->
<g id="node1" class="node"><title>Node1</title>
<polygon fill="#bfbfbf" stroke="black" points="172.5,-168.5 172.5,-198.5 318.5,-198.5 318.5,-168.5 172.5,-168.5"/>
<text text-anchor="start" x="180.5" y="-186.5" font-family="Helvetica,sans-Serif" font-size="10.00">Modules/TOF/include</text>
<text text-anchor="middle" x="245.5" y="-175.5" font-family="Helvetica,sans-Serif" font-size="10.00">/TOF/TOFCheckRawsTime.h</text>
</g>
<!-- Node2 -->
<g id="node2" class="node"><title>Node2</title>
<g id="a_node2"><a xlink:href="CheckInterface_8h.html" target="_top" xlink:title="QualityControl/CheckInterface.h">
<polygon fill="none" stroke="black" points="167,-112.5 167,-131.5 324,-131.5 324,-112.5 167,-112.5"/>
<text text-anchor="middle" x="245.5" y="-119.5" font-family="Helvetica,sans-Serif" font-size="10.00">QualityControl/CheckInterface.h</text>
</a>
</g>
</g>
<!-- Node1&#45;&gt;Node2 -->
<g id="edge1" class="edge"><title>Node1&#45;&gt;Node2</title>
<path fill="none" stroke="midnightblue" d="M245.5,-168.399C245.5,-160.466 245.5,-150.458 245.5,-141.858"/>
<polygon fill="midnightblue" stroke="midnightblue" points="249,-141.658 245.5,-131.658 242,-141.658 249,-141.658"/>
</g>
<!-- Node7 -->
<g id="node7" class="node"><title>Node7</title>
<g id="a_node7"><a xlink:href="MonitorObject_8h.html" target="_top" xlink:title="QualityControl/MonitorObject.h">
<polygon fill="none" stroke="black" points="356,-56.5 356,-75.5 507,-75.5 507,-56.5 356,-56.5"/>
<text text-anchor="middle" x="431.5" y="-63.5" font-family="Helvetica,sans-Serif" font-size="10.00">QualityControl/MonitorObject.h</text>
</a>
</g>
</g>
<!-- Node1&#45;&gt;Node7 -->
<g id="edge15" class="edge"><title>Node1&#45;&gt;Node7</title>
<path fill="none" stroke="midnightblue" d="M270.466,-168.493C287.974,-158.551 311.849,-144.76 332.5,-132 359.803,-115.13 390.617,-94.6669 410.51,-81.2642"/>
<polygon fill="midnightblue" stroke="midnightblue" points="412.504,-84.1408 418.829,-75.6413 408.584,-78.3412 412.504,-84.1408"/>
</g>
<!-- Node10 -->
<g id="node10" class="node"><title>Node10</title>
<g id="a_node10"><a xlink:href="Quality_8h.html" target="_top" xlink:title="QualityControl/Quality.h">
<polygon fill="none" stroke="black" points="0,-56.5 0,-75.5 121,-75.5 121,-56.5 0,-56.5"/>
<text text-anchor="middle" x="60.5" y="-63.5" font-family="Helvetica,sans-Serif" font-size="10.00">QualityControl/Quality.h</text>
</a>
</g>
</g>
<!-- Node1&#45;&gt;Node10 -->
<g id="edge16" class="edge"><title>Node1&#45;&gt;Node10</title>
<path fill="none" stroke="midnightblue" d="M219.808,-168.376C202.109,-158.496 178.151,-144.823 157.5,-132 130.739,-115.383 100.727,-94.9901 81.27,-81.5276"/>
<polygon fill="midnightblue" stroke="midnightblue" points="83.0845,-78.5265 72.875,-75.6954 79.0907,-84.2753 83.0845,-78.5265"/>
</g>
<!-- Node3 -->
<g id="node3" class="node"><title>Node3</title>
<polygon fill="none" stroke="#bfbfbf" points="261,-0.5 261,-19.5 302,-19.5 302,-0.5 261,-0.5"/>
<text text-anchor="middle" x="281.5" y="-7.5" font-family="Helvetica,sans-Serif" font-size="10.00">string</text>
</g>
<!-- Node2&#45;&gt;Node3 -->
<g id="edge2" class="edge"><title>Node2&#45;&gt;Node3</title>
<path fill="none" stroke="midnightblue" d="M251.122,-112.404C256.619,-103.608 264.826,-89.3733 269.5,-76 274.771,-60.9188 277.858,-43.0173 279.578,-29.8231"/>
<polygon fill="midnightblue" stroke="midnightblue" points="283.084,-29.9653 280.757,-19.6292 276.131,-29.1606 283.084,-29.9653"/>
</g>
<!-- Node4 -->
<g id="node4" class="node"><title>Node4</title>
<polygon fill="none" stroke="#bfbfbf" points="320,-0.5 320,-19.5 355,-19.5 355,-0.5 320,-0.5"/>
<text text-anchor="middle" x="337.5" y="-7.5" font-family="Helvetica,sans-Serif" font-size="10.00">map</text>
</g>
<!-- Node2&#45;&gt;Node4 -->
<g id="edge3" class="edge"><title>Node2&#45;&gt;Node4</title>
<path fill="none" stroke="midnightblue" d="M253.865,-112.208C262.294,-103.261 275.579,-88.9107 286.5,-76 300.048,-59.9839 314.761,-41.0533 324.887,-27.7655"/>
<polygon fill="midnightblue" stroke="midnightblue" points="327.844,-29.6574 331.093,-19.5729 322.265,-25.4304 327.844,-29.6574"/>
</g>
<!-- Node5 -->
<g id="node5" class="node"><title>Node5</title>
<polygon fill="none" stroke="#bfbfbf" points="178,-56.5 178,-75.5 261,-75.5 261,-56.5 178,-56.5"/>
<text text-anchor="middle" x="219.5" y="-63.5" font-family="Helvetica,sans-Serif" font-size="10.00">unordered_map</text>
</g>
<!-- Node2&#45;&gt;Node5 -->
<g id="edge4" class="edge"><title>Node2&#45;&gt;Node5</title>
<path fill="none" stroke="midnightblue" d="M241.207,-112.083C237.648,-104.691 232.478,-93.9533 228.076,-84.8111"/>
<polygon fill="midnightblue" stroke="midnightblue" points="231.205,-83.2427 223.713,-75.7511 224.898,-86.2795 231.205,-83.2427"/>
</g>
<!-- Node6 -->
<g id="node6" class="node"><title>Node6</title>
<polygon fill="none" stroke="#bfbfbf" points="121.5,-0.5 121.5,-19.5 177.5,-19.5 177.5,-0.5 121.5,-0.5"/>
<text text-anchor="middle" x="149.5" y="-7.5" font-family="Helvetica,sans-Serif" font-size="10.00">Rtypes.h</text>
</g>
<!-- Node2&#45;&gt;Node6 -->
<g id="edge5" class="edge"><title>Node2&#45;&gt;Node6</title>
<path fill="none" stroke="midnightblue" d="M221.343,-112.485C204.246,-105.277 182.035,-93.3267 168.5,-76 158.106,-62.6944 153.394,-43.862 151.261,-29.8908"/>
<polygon fill="midnightblue" stroke="midnightblue" points="154.73,-29.4283 150.043,-19.9268 147.782,-30.2775 154.73,-29.4283"/>
</g>
<!-- Node2&#45;&gt;Node7 -->
<g id="edge6" class="edge"><title>Node2&#45;&gt;Node7</title>
<path fill="none" stroke="midnightblue" d="M274.972,-112.444C306.671,-103.241 357.232,-88.5617 392.275,-78.3879"/>
<polygon fill="midnightblue" stroke="midnightblue" points="393.538,-81.6658 402.166,-75.5164 391.586,-74.9434 393.538,-81.6658"/>
</g>
<!-- Node2&#45;&gt;Node10 -->
<g id="edge12" class="edge"><title>Node2&#45;&gt;Node10</title>
<path fill="none" stroke="midnightblue" d="M216.186,-112.444C184.658,-103.241 134.369,-88.5617 99.5143,-78.3879"/>
<polygon fill="midnightblue" stroke="midnightblue" points="100.257,-74.9587 89.6767,-75.5164 98.2954,-81.6783 100.257,-74.9587"/>
</g>
<!-- Node7&#45;&gt;Node3 -->
<g id="edge7" class="edge"><title>Node7&#45;&gt;Node3</title>
<path fill="none" stroke="midnightblue" d="M407.732,-56.4435C381.834,-47.1203 340.324,-32.1768 312.031,-21.9911"/>
<polygon fill="midnightblue" stroke="midnightblue" points="312.853,-18.5672 302.258,-18.473 310.482,-25.1534 312.853,-18.5672"/>
</g>
<!-- Node7&#45;&gt;Node4 -->
<g id="edge8" class="edge"><title>Node7&#45;&gt;Node4</title>
<path fill="none" stroke="midnightblue" d="M416.397,-56.324C401.597,-47.8215 378.806,-34.7288 361.518,-24.7975"/>
<polygon fill="midnightblue" stroke="midnightblue" points="362.98,-21.6009 352.565,-19.6545 359.493,-27.6707 362.98,-21.6009"/>
</g>
<!-- Node7&#45;&gt;Node6 -->
<g id="edge9" class="edge"><title>Node7&#45;&gt;Node6</title>
<path fill="none" stroke="midnightblue" d="M386.816,-56.4435C331.895,-45.9266 239.627,-28.2583 187.804,-18.3347"/>
<polygon fill="midnightblue" stroke="midnightblue" points="188.174,-14.8421 177.694,-16.3989 186.857,-21.7172 188.174,-14.8421"/>
</g>
<!-- Node8 -->
<g id="node8" class="node"><title>Node8</title>
<polygon fill="none" stroke="#bfbfbf" points="508,-0.5 508,-19.5 567,-19.5 567,-0.5 508,-0.5"/>
<text text-anchor="middle" x="537.5" y="-7.5" font-family="Helvetica,sans-Serif" font-size="10.00">TObject.h</text>
</g>
<!-- Node7&#45;&gt;Node8 -->
<g id="edge10" class="edge"><title>Node7&#45;&gt;Node8</title>
<path fill="none" stroke="midnightblue" d="M448.531,-56.324C465.53,-47.6641 491.876,-34.2424 511.493,-24.249"/>
<polygon fill="midnightblue" stroke="midnightblue" points="513.19,-27.3125 520.512,-19.6545 510.012,-21.0752 513.19,-27.3125"/>
</g>
<!-- Node9 -->
<g id="node9" class="node"><title>Node9</title>
<polygon fill="none" stroke="#bfbfbf" points="373.5,-0.5 373.5,-19.5 489.5,-19.5 489.5,-0.5 373.5,-0.5"/>
<text text-anchor="middle" x="431.5" y="-7.5" font-family="Helvetica,sans-Serif" font-size="10.00">Common/Exceptions.h</text>
</g>
<!-- Node7&#45;&gt;Node9 -->
<g id="edge11" class="edge"><title>Node7&#45;&gt;Node9</title>
<path fill="none" stroke="midnightblue" d="M431.5,-56.083C431.5,-49.0059 431.5,-38.8611 431.5,-29.9865"/>
<polygon fill="midnightblue" stroke="midnightblue" points="435,-29.751 431.5,-19.7511 428,-29.7511 435,-29.751"/>
</g>
<!-- Node10&#45;&gt;Node3 -->
<g id="edge14" class="edge"><title>Node10&#45;&gt;Node3</title>
<path fill="none" stroke="midnightblue" d="M95.5181,-56.4435C138.401,-45.9655 210.335,-28.3888 251.03,-18.445"/>
<polygon fill="midnightblue" stroke="midnightblue" points="252.025,-21.8052 260.908,-16.0315 250.363,-15.0052 252.025,-21.8052"/>
</g>
<!-- Node10&#45;&gt;Node6 -->
<g id="edge13" class="edge"><title>Node10&#45;&gt;Node6</title>
<path fill="none" stroke="midnightblue" d="M74.7994,-56.324C88.6829,-47.9002 109.992,-34.9709 126.304,-25.0741"/>
<polygon fill="midnightblue" stroke="midnightblue" points="128.502,-27.8341 135.236,-19.6545 124.871,-21.8495 128.502,-27.8341"/>
</g>
</g>
</svg>
