<?xml version="1.0" encoding="UTF-8" standalone="no"?>
<!DOCTYPE svg PUBLIC "-//W3C//DTD SVG 1.1//EN"
 "http://www.w3.org/Graphics/SVG/1.1/DTD/svg11.dtd">
<!-- Generated by graphviz version 2.38.0 (20140413.2041)
 -->
<!-- Title: Modules/TOF/include/TOF/TOFDecoderCompressed.h Pages: 1 -->
<svg width="382pt" height="106pt"
 viewBox="0.00 0.00 382.00 106.00" xmlns="http://www.w3.org/2000/svg" xmlns:xlink="http://www.w3.org/1999/xlink">
<g id="graph0" class="graph" transform="scale(1 1) rotate(0) translate(4 102)">
<title>Modules/TOF/include/TOF/TOFDecoderCompressed.h</title>
<!-- Node1 -->
<g id="node1" class="node"><title>Node1</title>
<polygon fill="#bfbfbf" stroke="black" points="52,-67.5 52,-97.5 214,-97.5 214,-67.5 52,-67.5"/>
<text text-anchor="start" x="60" y="-85.5" font-family="Helvetica,sans-Serif" font-size="10.00">Modules/TOF/include</text>
<text text-anchor="middle" x="133" y="-74.5" font-family="Helvetica,sans-Serif" font-size="10.00">/TOF/TOFDecoderCompressed.h</text>
</g>
<!-- Node2 -->
<g id="node2" class="node"><title>Node2</title>
<polygon fill="none" stroke="#bfbfbf" points="0,-6 0,-25 44,-25 44,-6 0,-6"/>
<text text-anchor="middle" x="22" y="-13" font-family="Helvetica,sans-Serif" font-size="10.00">TH1.h</text>
</g>
<!-- Node1&#45;&gt;Node2 -->
<g id="edge1" class="edge"><title>Node1&#45;&gt;Node2</title>
<path fill="none" stroke="midnightblue" d="M108.915,-67.396C90.0417,-56.3442 63.9422,-41.0607 45.2792,-30.1319"/>
<polygon fill="midnightblue" stroke="midnightblue" points="46.9253,-27.04 36.5273,-25.007 43.388,-33.0805 46.9253,-27.04"/>
</g>
<!-- Node3 -->
<g id="node3" class="node"><title>Node3</title>
<polygon fill="none" stroke="#bfbfbf" points="62,-0.5 62,-30.5 204,-30.5 204,-0.5 62,-0.5"/>
<text text-anchor="start" x="70" y="-18.5" font-family="Helvetica,sans-Serif" font-size="10.00">TOFReconstruction/Decoder</text>
<text text-anchor="middle" x="133" y="-7.5" font-family="Helvetica,sans-Serif" font-size="10.00">Base.h</text>
</g>
<!-- Node1&#45;&gt;Node3 -->
<g id="edge2" class="edge"><title>Node1&#45;&gt;Node3</title>
<path fill="none" stroke="midnightblue" d="M133,-67.396C133,-59.6448 133,-49.8122 133,-40.8601"/>
<polygon fill="midnightblue" stroke="midnightblue" points="136.5,-40.5765 133,-30.5765 129.5,-40.5765 136.5,-40.5765"/>
</g>
<!-- Node4 -->
<g id="node4" class="node"><title>Node4</title>
<polygon fill="none" stroke="#bfbfbf" points="222,-0.5 222,-30.5 374,-30.5 374,-0.5 222,-0.5"/>
<text text-anchor="start" x="230" y="-18.5" font-family="Helvetica,sans-Serif" font-size="10.00">DataFormatsTOF/Compressed</text>
<text text-anchor="middle" x="298" y="-7.5" font-family="Helvetica,sans-Serif" font-size="10.00">DataFormat.h</text>
</g>
<!-- Node1&#45;&gt;Node4 -->
<g id="edge3" class="edge"><title>Node1&#45;&gt;Node4</title>
<path fill="none" stroke="midnightblue" d="M168.803,-67.396C193.452,-57.6858 226.393,-44.7088 252.843,-34.2889"/>
<polygon fill="midnightblue" stroke="midnightblue" points="254.246,-37.4982 262.267,-30.5765 251.68,-30.9854 254.246,-37.4982"/>
</g>
</g>
</svg>
