<?xml version="1.0" encoding="UTF-8" standalone="no"?>
<!DOCTYPE svg PUBLIC "-//W3C//DTD SVG 1.1//EN"
 "http://www.w3.org/Graphics/SVG/1.1/DTD/svg11.dtd">
<!-- Generated by graphviz version 2.38.0 (20140413.2041)
 -->
<!-- Title: Modules/TOF/include/TOF/TOFDecoderCompressed.h Pages: 1 -->
<svg width="358pt" height="162pt"
 viewBox="0.00 0.00 357.50 162.00" xmlns="http://www.w3.org/2000/svg" xmlns:xlink="http://www.w3.org/1999/xlink">
<g id="graph0" class="graph" transform="scale(1 1) rotate(0) translate(4 158)">
<title>Modules/TOF/include/TOF/TOFDecoderCompressed.h</title>
<!-- Node1 -->
<g id="node1" class="node"><title>Node1</title>
<polygon fill="#bfbfbf" stroke="black" points="108.5,-123.5 108.5,-153.5 270.5,-153.5 270.5,-123.5 108.5,-123.5"/>
<text text-anchor="start" x="116.5" y="-141.5" font-family="Helvetica,sans-Serif" font-size="10.00">Modules/TOF/include</text>
<text text-anchor="middle" x="189.5" y="-130.5" font-family="Helvetica,sans-Serif" font-size="10.00">/TOF/TOFDecoderCompressed.h</text>
</g>
<!-- Node2 -->
<g id="node2" class="node"><title>Node2</title>
<g id="a_node2"><a xlink:href="TOFTaskCompressed_8h.html" target="_top" xlink:title="Modules/TOF/include\l/TOF/TOFTaskCompressed.h">
<polygon fill="none" stroke="black" points="32,-56.5 32,-86.5 179,-86.5 179,-56.5 32,-56.5"/>
<text text-anchor="start" x="40" y="-74.5" font-family="Helvetica,sans-Serif" font-size="10.00">Modules/TOF/include</text>
<text text-anchor="middle" x="105.5" y="-63.5" font-family="Helvetica,sans-Serif" font-size="10.00">/TOF/TOFTaskCompressed.h</text>
</a>
</g>
</g>
<!-- Node1&#45;&gt;Node2 -->
<g id="edge1" class="edge"><title>Node1&#45;&gt;Node2</title>
<path fill="none" stroke="midnightblue" d="M163.224,-117.168C150.38,-107.228 135.242,-95.5144 123.691,-86.5765"/>
<polygon fill="midnightblue" stroke="midnightblue" points="161.223,-120.044 171.273,-123.396 165.506,-114.508 161.223,-120.044"/>
</g>
<!-- Node4 -->
<g id="node4" class="node"><title>Node4</title>
<g id="a_node4"><a xlink:href="TOFDecoderCompressed_8cxx.html" target="_top" xlink:title="Modules/TOF/src/TOFDecoder\lCompressed.cxx">
<polygon fill="none" stroke="black" points="197.5,-56.5 197.5,-86.5 349.5,-86.5 349.5,-56.5 197.5,-56.5"/>
<text text-anchor="start" x="205.5" y="-74.5" font-family="Helvetica,sans-Serif" font-size="10.00">Modules/TOF/src/TOFDecoder</text>
<text text-anchor="middle" x="273.5" y="-63.5" font-family="Helvetica,sans-Serif" font-size="10.00">Compressed.cxx</text>
</a>
</g>
</g>
<!-- Node1&#45;&gt;Node4 -->
<g id="edge3" class="edge"><title>Node1&#45;&gt;Node4</title>
<path fill="none" stroke="midnightblue" d="M215.776,-117.168C228.62,-107.228 243.758,-95.5144 255.309,-86.5765"/>
<polygon fill="midnightblue" stroke="midnightblue" points="213.494,-114.508 207.727,-123.396 217.777,-120.044 213.494,-114.508"/>
</g>
<!-- Node3 -->
<g id="node3" class="node"><title>Node3</title>
<g id="a_node3"><a xlink:href="TOFTaskCompressed_8cxx.html" target="_top" xlink:title="Modules/TOF/src/TOFTaskCompressed.cxx">
<polygon fill="none" stroke="black" points="0,-0.5 0,-19.5 211,-19.5 211,-0.5 0,-0.5"/>
<text text-anchor="middle" x="105.5" y="-7.5" font-family="Helvetica,sans-Serif" font-size="10.00">Modules/TOF/src/TOFTaskCompressed.cxx</text>
</a>
</g>
</g>
<!-- Node2&#45;&gt;Node3 -->
<g id="edge2" class="edge"><title>Node2&#45;&gt;Node3</title>
<path fill="none" stroke="midnightblue" d="M105.5,-46.2892C105.5,-36.857 105.5,-26.6548 105.5,-19.6578"/>
<polygon fill="midnightblue" stroke="midnightblue" points="102,-46.3993 105.5,-56.3993 109,-46.3994 102,-46.3993"/>
</g>
</g>
</svg>
