<?xml version="1.0" encoding="UTF-8" standalone="no"?>
<!DOCTYPE svg PUBLIC "-//W3C//DTD SVG 1.1//EN"
 "http://www.w3.org/Graphics/SVG/1.1/DTD/svg11.dtd">
<!-- Generated by graphviz version 2.38.0 (20140413.2041)
 -->
<!-- Title: Modules/TOF/src/TOFDecoderCompressed.cxx Pages: 1 -->
<svg width="942pt" height="162pt"
 viewBox="0.00 0.00 941.50 162.00" xmlns="http://www.w3.org/2000/svg" xmlns:xlink="http://www.w3.org/1999/xlink">
<g id="graph0" class="graph" transform="scale(1 1) rotate(0) translate(4 158)">
<title>Modules/TOF/src/TOFDecoderCompressed.cxx</title>
<!-- Node1 -->
<g id="node1" class="node"><title>Node1</title>
<polygon fill="#bfbfbf" stroke="black" points="391.5,-123.5 391.5,-153.5 543.5,-153.5 543.5,-123.5 391.5,-123.5"/>
<text text-anchor="start" x="399.5" y="-141.5" font-family="Helvetica,sans-Serif" font-size="10.00">Modules/TOF/src/TOFDecoder</text>
<text text-anchor="middle" x="467.5" y="-130.5" font-family="Helvetica,sans-Serif" font-size="10.00">Compressed.cxx</text>
</g>
<!-- Node2 -->
<g id="node2" class="node"><title>Node2</title>
<polygon fill="none" stroke="#bfbfbf" points="559.5,-0.5 559.5,-30.5 711.5,-30.5 711.5,-0.5 559.5,-0.5"/>
<text text-anchor="start" x="567.5" y="-18.5" font-family="Helvetica,sans-Serif" font-size="10.00">DataFormatsTOF/Compressed</text>
<text text-anchor="middle" x="635.5" y="-7.5" font-family="Helvetica,sans-Serif" font-size="10.00">DataFormat.h</text>
</g>
<!-- Node1&#45;&gt;Node2 -->
<g id="edge1" class="edge"><title>Node1&#45;&gt;Node2</title>
<path fill="none" stroke="midnightblue" d="M543.685,-127.99C571.068,-120.892 599.979,-108.525 619.5,-87 630.83,-74.5063 634.674,-55.7027 635.769,-40.6565"/>
<polygon fill="midnightblue" stroke="midnightblue" points="639.272,-40.6323 636.149,-30.5085 632.277,-40.3707 639.272,-40.6323"/>
</g>
<!-- Node3 -->
<g id="node3" class="node"><title>Node3</title>
<polygon fill="none" stroke="#bfbfbf" points="167.5,-67.5 167.5,-86.5 301.5,-86.5 301.5,-67.5 167.5,-67.5"/>
<text text-anchor="middle" x="234.5" y="-74.5" font-family="Helvetica,sans-Serif" font-size="10.00">Framework/DataRefUtils.h</text>
</g>
<!-- Node1&#45;&gt;Node3 -->
<g id="edge2" class="edge"><title>Node1&#45;&gt;Node3</title>
<path fill="none" stroke="midnightblue" d="M412.577,-123.475C371.327,-112.941 315.622,-98.7158 277.567,-88.9978"/>
<polygon fill="midnightblue" stroke="midnightblue" points="278.366,-85.5895 267.811,-86.5064 276.634,-92.3719 278.366,-85.5895"/>
</g>
<!-- Node4 -->
<g id="node4" class="node"><title>Node4</title>
<polygon fill="none" stroke="#bfbfbf" points="320,-67.5 320,-86.5 461,-86.5 461,-67.5 320,-67.5"/>
<text text-anchor="middle" x="390.5" y="-74.5" font-family="Helvetica,sans-Serif" font-size="10.00">Headers/RAWDataHeader.h</text>
</g>
<!-- Node1&#45;&gt;Node4 -->
<g id="edge3" class="edge"><title>Node1&#45;&gt;Node4</title>
<path fill="none" stroke="midnightblue" d="M449.252,-123.399C437.371,-114.218 421.893,-102.258 409.806,-92.9182"/>
<polygon fill="midnightblue" stroke="midnightblue" points="411.757,-90.0028 401.704,-86.6578 407.477,-95.5418 411.757,-90.0028"/>
</g>
<!-- Node5 -->
<g id="node5" class="node"><title>Node5</title>
<polygon fill="none" stroke="#bfbfbf" points="479,-67.5 479,-86.5 610,-86.5 610,-67.5 479,-67.5"/>
<text text-anchor="middle" x="544.5" y="-74.5" font-family="Helvetica,sans-Serif" font-size="10.00">DetectorsRaw/HBFUtils.h</text>
</g>
<!-- Node1&#45;&gt;Node5 -->
<g id="edge4" class="edge"><title>Node1&#45;&gt;Node5</title>
<path fill="none" stroke="midnightblue" d="M485.748,-123.399C497.629,-114.218 513.107,-102.258 525.194,-92.9182"/>
<polygon fill="midnightblue" stroke="midnightblue" points="527.523,-95.5418 533.296,-86.6578 523.243,-90.0028 527.523,-95.5418"/>
</g>
<!-- Node6 -->
<g id="node6" class="node"><title>Node6</title>
<g id="a_node6"><a xlink:href="QcInfoLogger_8h.html" target="_top" xlink:title="QualityControl/QcInfoLogger.h">
<polygon fill="none" stroke="black" points="0,-67.5 0,-86.5 149,-86.5 149,-67.5 0,-67.5"/>
<text text-anchor="middle" x="74.5" y="-74.5" font-family="Helvetica,sans-Serif" font-size="10.00">QualityControl/QcInfoLogger.h</text>
</a>
</g>
</g>
<!-- Node1&#45;&gt;Node6 -->
<g id="edge5" class="edge"><title>Node1&#45;&gt;Node6</title>
<path fill="none" stroke="midnightblue" d="M391.26,-125.957C318.498,-114.941 209.992,-98.5134 140.748,-88.0299"/>
<polygon fill="midnightblue" stroke="midnightblue" points="141.237,-84.5641 130.825,-86.5276 140.189,-91.4852 141.237,-84.5641"/>
</g>
<!-- Node8 -->
<g id="node8" class="node"><title>Node8</title>
<g id="a_node8"><a xlink:href="TOFDecoderCompressed_8h.html" target="_top" xlink:title="TOF/TOFDecoderCompressed.h">
<polygon fill="none" stroke="black" points="670,-67.5 670,-86.5 829,-86.5 829,-67.5 670,-67.5"/>
<text text-anchor="middle" x="749.5" y="-74.5" font-family="Helvetica,sans-Serif" font-size="10.00">TOF/TOFDecoderCompressed.h</text>
</a>
</g>
</g>
<!-- Node1&#45;&gt;Node8 -->
<g id="edge7" class="edge"><title>Node1&#45;&gt;Node8</title>
<path fill="none" stroke="midnightblue" d="M533.973,-123.475C584.536,-112.806 653.042,-98.352 699.129,-88.6278"/>
<polygon fill="midnightblue" stroke="midnightblue" points="700.122,-91.9955 709.184,-86.5064 698.677,-85.1463 700.122,-91.9955"/>
</g>
<!-- Node7 -->
<g id="node7" class="node"><title>Node7</title>
<polygon fill="none" stroke="#bfbfbf" points="9.5,-6 9.5,-25 139.5,-25 139.5,-6 9.5,-6"/>
<text text-anchor="middle" x="74.5" y="-13" font-family="Helvetica,sans-Serif" font-size="10.00">InfoLogger/InfoLogger.hxx</text>
</g>
<!-- Node6&#45;&gt;Node7 -->
<g id="edge6" class="edge"><title>Node6&#45;&gt;Node7</title>
<path fill="none" stroke="midnightblue" d="M74.5,-67.4751C74.5,-59.0803 74.5,-45.9806 74.5,-35.1631"/>
<polygon fill="midnightblue" stroke="midnightblue" points="78.0001,-35.0091 74.5,-25.0091 71.0001,-35.0091 78.0001,-35.0091"/>
</g>
<!-- Node8&#45;&gt;Node2 -->
<g id="edge10" class="edge"><title>Node8&#45;&gt;Node2</title>
<path fill="none" stroke="midnightblue" d="M733.167,-67.4751C717.078,-59.0777 691.969,-45.9728 671.239,-35.1534"/>
<polygon fill="midnightblue" stroke="midnightblue" points="672.852,-32.0472 662.368,-30.523 669.613,-38.2528 672.852,-32.0472"/>
</g>
<!-- Node9 -->
<g id="node9" class="node"><title>Node9</title>
<polygon fill="none" stroke="#bfbfbf" points="729.5,-6 729.5,-25 773.5,-25 773.5,-6 729.5,-6"/>
<text text-anchor="middle" x="751.5" y="-13" font-family="Helvetica,sans-Serif" font-size="10.00">TH1.h</text>
</g>
<!-- Node8&#45;&gt;Node9 -->
<g id="edge8" class="edge"><title>Node8&#45;&gt;Node9</title>
<path fill="none" stroke="midnightblue" d="M749.787,-67.4751C750.069,-59.0803 750.509,-45.9806 750.873,-35.1631"/>
<polygon fill="midnightblue" stroke="midnightblue" points="754.376,-35.1211 751.214,-25.0091 747.38,-34.8858 754.376,-35.1211"/>
</g>
<!-- Node10 -->
<g id="node10" class="node"><title>Node10</title>
<polygon fill="none" stroke="#bfbfbf" points="791.5,-0.5 791.5,-30.5 933.5,-30.5 933.5,-0.5 791.5,-0.5"/>
<text text-anchor="start" x="799.5" y="-18.5" font-family="Helvetica,sans-Serif" font-size="10.00">TOFReconstruction/Decoder</text>
<text text-anchor="middle" x="862.5" y="-7.5" font-family="Helvetica,sans-Serif" font-size="10.00">Base.h</text>
</g>
<!-- Node8&#45;&gt;Node10 -->
<g id="edge9" class="edge"><title>Node8&#45;&gt;Node10</title>
<path fill="none" stroke="midnightblue" d="M765.69,-67.4751C781.567,-59.1154 806.303,-46.0902 826.798,-35.2991"/>
<polygon fill="midnightblue" stroke="midnightblue" points="828.65,-38.279 835.868,-30.523 825.389,-32.0852 828.65,-38.279"/>
</g>
</g>
</svg>
