<?xml version="1.0" encoding="UTF-8" standalone="no"?>
<!DOCTYPE svg PUBLIC "-//W3C//DTD SVG 1.1//EN"
 "http://www.w3.org/Graphics/SVG/1.1/DTD/svg11.dtd">
<!-- Generated by graphviz version 2.38.0 (20140413.2041)
 -->
<!-- Title: Modules/TOF/src/TOFTaskCompressed.cxx Pages: 1 -->
<svg width="1541pt" height="330pt"
 viewBox="0.00 0.00 1540.50 330.00" xmlns="http://www.w3.org/2000/svg" xmlns:xlink="http://www.w3.org/1999/xlink">
<g id="graph0" class="graph" transform="scale(1 1) rotate(0) translate(4 326)">
<title>Modules/TOF/src/TOFTaskCompressed.cxx</title>
<!-- Node1 -->
<g id="node1" class="node"><title>Node1</title>
<polygon fill="#bfbfbf" stroke="black" points="836,-302.5 836,-321.5 1047,-321.5 1047,-302.5 836,-302.5"/>
<text text-anchor="middle" x="941.5" y="-309.5" font-family="Helvetica,sans-Serif" font-size="10.00">Modules/TOF/src/TOFTaskCompressed.cxx</text>
</g>
<!-- Node2 -->
<g id="node2" class="node"><title>Node2</title>
<polygon fill="none" stroke="#bfbfbf" points="500,-246.5 500,-265.5 565,-265.5 565,-246.5 500,-246.5"/>
<text text-anchor="middle" x="532.5" y="-253.5" font-family="Helvetica,sans-Serif" font-size="10.00">TCanvas.h</text>
</g>
<!-- Node1&#45;&gt;Node2 -->
<g id="edge1" class="edge"><title>Node1&#45;&gt;Node2</title>
<path fill="none" stroke="midnightblue" d="M852.298,-302.474C779.968,-295.01 675.21,-282.954 575.103,-266.146"/>
<polygon fill="midnightblue" stroke="midnightblue" points="575.564,-262.675 565.119,-264.451 574.392,-269.576 575.564,-262.675"/>
</g>
<!-- Node3 -->
<g id="node3" class="node"><title>Node3</title>
<polygon fill="none" stroke="#bfbfbf" points="1318.5,-129 1318.5,-148 1362.5,-148 1362.5,-129 1318.5,-129"/>
<text text-anchor="middle" x="1340.5" y="-136" font-family="Helvetica,sans-Serif" font-size="10.00">TH1.h</text>
</g>
<!-- Node1&#45;&gt;Node3 -->
<g id="edge2" class="edge"><title>Node1&#45;&gt;Node3</title>
<path fill="none" stroke="midnightblue" d="M1047.33,-304.99C1152.86,-297.973 1302.03,-284.87 1321.5,-266 1350.51,-237.879 1347.88,-185.838 1343.93,-158.078"/>
<polygon fill="midnightblue" stroke="midnightblue" points="1347.37,-157.417 1342.31,-148.113 1340.46,-158.546 1347.37,-157.417"/>
</g>
<!-- Node4 -->
<g id="node4" class="node"><title>Node4</title>
<polygon fill="none" stroke="#bfbfbf" points="749.5,-246.5 749.5,-265.5 799.5,-265.5 799.5,-246.5 749.5,-246.5"/>
<text text-anchor="middle" x="774.5" y="-253.5" font-family="Helvetica,sans-Serif" font-size="10.00">TH1F.h</text>
</g>
<!-- Node1&#45;&gt;Node4 -->
<g id="edge3" class="edge"><title>Node1&#45;&gt;Node4</title>
<path fill="none" stroke="midnightblue" d="M915.038,-302.444C886.49,-293.212 840.902,-278.471 809.428,-268.294"/>
<polygon fill="midnightblue" stroke="midnightblue" points="810.336,-264.909 799.745,-265.163 808.183,-271.57 810.336,-264.909"/>
</g>
<!-- Node5 -->
<g id="node5" class="node"><title>Node5</title>
<polygon fill="none" stroke="#bfbfbf" points="817.5,-246.5 817.5,-265.5 867.5,-265.5 867.5,-246.5 817.5,-246.5"/>
<text text-anchor="middle" x="842.5" y="-253.5" font-family="Helvetica,sans-Serif" font-size="10.00">TH2F.h</text>
</g>
<!-- Node1&#45;&gt;Node5 -->
<g id="edge4" class="edge"><title>Node1&#45;&gt;Node5</title>
<path fill="none" stroke="midnightblue" d="M925.594,-302.324C909.862,-293.743 885.558,-280.486 867.291,-270.522"/>
<polygon fill="midnightblue" stroke="midnightblue" points="868.822,-267.37 858.367,-265.655 865.47,-273.516 868.822,-267.37"/>
</g>
<!-- Node6 -->
<g id="node6" class="node"><title>Node6</title>
<polygon fill="none" stroke="#bfbfbf" points="886,-246.5 886,-265.5 933,-265.5 933,-246.5 886,-246.5"/>
<text text-anchor="middle" x="909.5" y="-253.5" font-family="Helvetica,sans-Serif" font-size="10.00">TH1I.h</text>
</g>
<!-- Node1&#45;&gt;Node6 -->
<g id="edge5" class="edge"><title>Node1&#45;&gt;Node6</title>
<path fill="none" stroke="midnightblue" d="M936.216,-302.083C931.789,-294.613 925.337,-283.724 919.882,-274.52"/>
<polygon fill="midnightblue" stroke="midnightblue" points="922.795,-272.57 914.686,-265.751 916.773,-276.138 922.795,-272.57"/>
</g>
<!-- Node7 -->
<g id="node7" class="node"><title>Node7</title>
<polygon fill="none" stroke="#bfbfbf" points="951,-246.5 951,-265.5 998,-265.5 998,-246.5 951,-246.5"/>
<text text-anchor="middle" x="974.5" y="-253.5" font-family="Helvetica,sans-Serif" font-size="10.00">TH2I.h</text>
</g>
<!-- Node1&#45;&gt;Node7 -->
<g id="edge6" class="edge"><title>Node1&#45;&gt;Node7</title>
<path fill="none" stroke="midnightblue" d="M946.949,-302.083C951.514,-294.613 958.168,-283.724 963.793,-274.52"/>
<polygon fill="midnightblue" stroke="midnightblue" points="966.924,-276.109 969.152,-265.751 960.951,-272.459 966.924,-276.109"/>
</g>
<!-- Node8 -->
<g id="node8" class="node"><title>Node8</title>
<polygon fill="none" stroke="#bfbfbf" points="1380.5,-123.5 1380.5,-153.5 1532.5,-153.5 1532.5,-123.5 1380.5,-123.5"/>
<text text-anchor="start" x="1388.5" y="-141.5" font-family="Helvetica,sans-Serif" font-size="10.00">DataFormatsTOF/Compressed</text>
<text text-anchor="middle" x="1456.5" y="-130.5" font-family="Helvetica,sans-Serif" font-size="10.00">DataFormat.h</text>
</g>
<!-- Node1&#45;&gt;Node8 -->
<g id="edge7" class="edge"><title>Node1&#45;&gt;Node8</title>
<path fill="none" stroke="midnightblue" d="M1047.35,-307.565C1148.47,-302.784 1292.65,-291.608 1342.5,-266 1388.53,-242.352 1424.92,-191.895 1443.32,-162.351"/>
<polygon fill="midnightblue" stroke="midnightblue" points="1446.46,-163.92 1448.66,-153.554 1440.48,-160.291 1446.46,-163.92"/>
</g>
<!-- Node9 -->
<g id="node9" class="node"><title>Node9</title>
<polygon fill="none" stroke="#bfbfbf" points="1178.5,-246.5 1178.5,-265.5 1312.5,-265.5 1312.5,-246.5 1178.5,-246.5"/>
<text text-anchor="middle" x="1245.5" y="-253.5" font-family="Helvetica,sans-Serif" font-size="10.00">Framework/DataRefUtils.h</text>
</g>
<!-- Node1&#45;&gt;Node9 -->
<g id="edge8" class="edge"><title>Node1&#45;&gt;Node9</title>
<path fill="none" stroke="midnightblue" d="M989.67,-302.444C1043.37,-292.905 1130.19,-277.483 1187.55,-267.293"/>
<polygon fill="midnightblue" stroke="midnightblue" points="1188.32,-270.712 1197.56,-265.516 1187.1,-263.819 1188.32,-270.712"/>
</g>
<!-- Node10 -->
<g id="node10" class="node"><title>Node10</title>
<g id="a_node10"><a xlink:href="QcInfoLogger_8h.html" target="_top" xlink:title="QualityControl/QcInfoLogger.h">
<polygon fill="none" stroke="black" points="583,-246.5 583,-265.5 732,-265.5 732,-246.5 583,-246.5"/>
<text text-anchor="middle" x="657.5" y="-253.5" font-family="Helvetica,sans-Serif" font-size="10.00">QualityControl/QcInfoLogger.h</text>
</a>
</g>
</g>
<!-- Node1&#45;&gt;Node10 -->
<g id="edge9" class="edge"><title>Node1&#45;&gt;Node10</title>
<path fill="none" stroke="midnightblue" d="M896.499,-302.444C846.541,-292.944 765.899,-277.611 712.301,-267.42"/>
<polygon fill="midnightblue" stroke="midnightblue" points="712.768,-263.946 702.29,-265.516 711.46,-270.823 712.768,-263.946"/>
</g>
<!-- Node12 -->
<g id="node12" class="node"><title>Node12</title>
<g id="a_node12"><a xlink:href="TOFTaskCompressed_8h.html" target="_top" xlink:title="TOF/TOFTaskCompressed.h">
<polygon fill="none" stroke="black" points="1016.5,-246.5 1016.5,-265.5 1160.5,-265.5 1160.5,-246.5 1016.5,-246.5"/>
<text text-anchor="middle" x="1088.5" y="-253.5" font-family="Helvetica,sans-Serif" font-size="10.00">TOF/TOFTaskCompressed.h</text>
</a>
</g>
</g>
<!-- Node1&#45;&gt;Node12 -->
<g id="edge11" class="edge"><title>Node1&#45;&gt;Node12</title>
<path fill="none" stroke="midnightblue" d="M964.793,-302.444C989.307,-293.438 1028.1,-279.189 1055.7,-269.049"/>
<polygon fill="midnightblue" stroke="midnightblue" points="1057.14,-272.25 1065.32,-265.516 1054.72,-265.679 1057.14,-272.25"/>
</g>
<!-- Node11 -->
<g id="node11" class="node"><title>Node11</title>
<polygon fill="none" stroke="#bfbfbf" points="566.5,-190.5 566.5,-209.5 696.5,-209.5 696.5,-190.5 566.5,-190.5"/>
<text text-anchor="middle" x="631.5" y="-197.5" font-family="Helvetica,sans-Serif" font-size="10.00">InfoLogger/InfoLogger.hxx</text>
</g>
<!-- Node10&#45;&gt;Node11 -->
<g id="edge10" class="edge"><title>Node10&#45;&gt;Node11</title>
<path fill="none" stroke="midnightblue" d="M653.207,-246.083C649.648,-238.691 644.478,-227.953 640.076,-218.811"/>
<polygon fill="midnightblue" stroke="midnightblue" points="643.205,-217.243 635.713,-209.751 636.898,-220.279 643.205,-217.243"/>
</g>
<!-- Node13 -->
<g id="node13" class="node"><title>Node13</title>
<g id="a_node13"><a xlink:href="TaskInterface_8h.html" target="_top" xlink:title="QualityControl/TaskInterface.h">
<polygon fill="none" stroke="black" points="714.5,-190.5 714.5,-209.5 864.5,-209.5 864.5,-190.5 714.5,-190.5"/>
<text text-anchor="middle" x="789.5" y="-197.5" font-family="Helvetica,sans-Serif" font-size="10.00">QualityControl/TaskInterface.h</text>
</a>
</g>
</g>
<!-- Node12&#45;&gt;Node13 -->
<g id="edge12" class="edge"><title>Node12&#45;&gt;Node13</title>
<path fill="none" stroke="midnightblue" d="M1041.12,-246.444C988.416,-236.925 903.271,-221.547 846.843,-211.356"/>
<polygon fill="midnightblue" stroke="midnightblue" points="847.119,-207.849 836.656,-209.516 845.875,-214.738 847.119,-207.849"/>
</g>
<!-- Node30 -->
<g id="node30" class="node"><title>Node30</title>
<g id="a_node30"><a xlink:href="TOFDecoderCompressed_8h.html" target="_top" xlink:title="TOF/TOFDecoderCompressed.h">
<polygon fill="none" stroke="black" points="1152,-190.5 1152,-209.5 1311,-209.5 1311,-190.5 1152,-190.5"/>
<text text-anchor="middle" x="1231.5" y="-197.5" font-family="Helvetica,sans-Serif" font-size="10.00">TOF/TOFDecoderCompressed.h</text>
</a>
</g>
</g>
<!-- Node12&#45;&gt;Node30 -->
<g id="edge35" class="edge"><title>Node12&#45;&gt;Node30</title>
<path fill="none" stroke="midnightblue" d="M1111.16,-246.444C1134.9,-237.478 1172.41,-223.314 1199.24,-213.183"/>
<polygon fill="midnightblue" stroke="midnightblue" points="1200.83,-216.324 1208.95,-209.516 1198.36,-209.775 1200.83,-216.324"/>
</g>
<!-- Node14 -->
<g id="node14" class="node"><title>Node14</title>
<polygon fill="none" stroke="#bfbfbf" points="612,-0.5 612,-19.5 647,-19.5 647,-0.5 612,-0.5"/>
<text text-anchor="middle" x="629.5" y="-7.5" font-family="Helvetica,sans-Serif" font-size="10.00">map</text>
</g>
<!-- Node13&#45;&gt;Node14 -->
<g id="edge13" class="edge"><title>Node13&#45;&gt;Node14</title>
<path fill="none" stroke="midnightblue" d="M794.185,-190.458C806.694,-166.376 837.794,-97.0255 805.5,-56 765.254,-4.87242 725.704,-35.7069 657.037,-19.7043"/>
<polygon fill="midnightblue" stroke="midnightblue" points="657.712,-16.2631 647.152,-17.1221 655.943,-23.0359 657.712,-16.2631"/>
</g>
<!-- Node15 -->
<g id="node15" class="node"><title>Node15</title>
<polygon fill="none" stroke="#bfbfbf" points="744.5,-62 744.5,-81 796.5,-81 796.5,-62 744.5,-62"/>
<text text-anchor="middle" x="770.5" y="-69" font-family="Helvetica,sans-Serif" font-size="10.00">memory</text>
</g>
<!-- Node13&#45;&gt;Node15 -->
<g id="edge14" class="edge"><title>Node13&#45;&gt;Node15</title>
<path fill="none" stroke="midnightblue" d="M788.194,-190.305C785.143,-169.994 777.492,-119.053 773.32,-91.2768"/>
<polygon fill="midnightblue" stroke="midnightblue" points="776.762,-90.6249 771.815,-81.2557 769.839,-91.6647 776.762,-90.6249"/>
</g>
<!-- Node16 -->
<g id="node16" class="node"><title>Node16</title>
<polygon fill="none" stroke="#bfbfbf" points="267,-0.5 267,-19.5 308,-19.5 308,-0.5 267,-0.5"/>
<text text-anchor="middle" x="287.5" y="-7.5" font-family="Helvetica,sans-Serif" font-size="10.00">string</text>
</g>
<!-- Node13&#45;&gt;Node16 -->
<g id="edge15" class="edge"><title>Node13&#45;&gt;Node16</title>
<path fill="none" stroke="midnightblue" d="M718.096,-190.485C569.859,-172.072 239.86,-126.987 208.5,-87 199.998,-76.1586 201.576,-67.9118 208.5,-56 218.91,-38.0899 239.409,-26.7164 256.917,-19.8846"/>
<polygon fill="midnightblue" stroke="midnightblue" points="258.535,-23.0239 266.781,-16.3719 256.187,-16.4296 258.535,-23.0239"/>
</g>
<!-- Node17 -->
<g id="node17" class="node"><title>Node17</title>
<polygon fill="none" stroke="#bfbfbf" points="138,-0.5 138,-19.5 221,-19.5 221,-0.5 138,-0.5"/>
<text text-anchor="middle" x="179.5" y="-7.5" font-family="Helvetica,sans-Serif" font-size="10.00">unordered_map</text>
</g>
<!-- Node13&#45;&gt;Node17 -->
<g id="edge16" class="edge"><title>Node13&#45;&gt;Node17</title>
<path fill="none" stroke="midnightblue" d="M714.4,-190.892C711.395,-190.587 708.419,-190.289 705.5,-190 529.192,-172.562 476.631,-209.864 308.5,-154 254.536,-136.07 233.39,-132.662 199.5,-87 187.079,-70.265 182.36,-46.4428 180.574,-29.9491"/>
<polygon fill="midnightblue" stroke="midnightblue" points="184.054,-29.5586 179.748,-19.8784 177.078,-30.1312 184.054,-29.5586"/>
</g>
<!-- Node18 -->
<g id="node18" class="node"><title>Node18</title>
<polygon fill="none" stroke="#bfbfbf" points="837,-129 837,-148 962,-148 962,-129 837,-129"/>
<text text-anchor="middle" x="899.5" y="-136" font-family="Helvetica,sans-Serif" font-size="10.00">Framework/InitContext.h</text>
</g>
<!-- Node13&#45;&gt;Node18 -->
<g id="edge17" class="edge"><title>Node13&#45;&gt;Node18</title>
<path fill="none" stroke="midnightblue" d="M805.26,-190.475C823.476,-180.622 853.673,-164.288 874.968,-152.77"/>
<polygon fill="midnightblue" stroke="midnightblue" points="876.638,-155.845 883.769,-148.009 873.308,-149.688 876.638,-155.845"/>
</g>
<!-- Node19 -->
<g id="node19" class="node"><title>Node19</title>
<polygon fill="none" stroke="#bfbfbf" points="980.5,-129 980.5,-148 1140.5,-148 1140.5,-129 980.5,-129"/>
<text text-anchor="middle" x="1060.5" y="-136" font-family="Helvetica,sans-Serif" font-size="10.00">Framework/ProcessingContext.h</text>
</g>
<!-- Node13&#45;&gt;Node19 -->
<g id="edge18" class="edge"><title>Node13&#45;&gt;Node19</title>
<path fill="none" stroke="midnightblue" d="M828.328,-190.475C876.625,-179.871 959.113,-161.76 1011.65,-150.224"/>
<polygon fill="midnightblue" stroke="midnightblue" points="1012.73,-153.572 1021.74,-148.009 1011.23,-146.735 1012.73,-153.572"/>
</g>
<!-- Node20 -->
<g id="node20" class="node"><title>Node20</title>
<g id="a_node20"><a xlink:href="Activity_8h.html" target="_top" xlink:title="QualityControl/Activity.h">
<polygon fill="none" stroke="black" points="0,-129 0,-148 123,-148 123,-129 0,-129"/>
<text text-anchor="middle" x="61.5" y="-136" font-family="Helvetica,sans-Serif" font-size="10.00">QualityControl/Activity.h</text>
</a>
</g>
</g>
<!-- Node13&#45;&gt;Node20 -->
<g id="edge19" class="edge"><title>Node13&#45;&gt;Node20</title>
<path fill="none" stroke="midnightblue" d="M714.41,-190.791C711.402,-190.514 708.423,-190.249 705.5,-190 453.463,-168.521 388.449,-185.765 137.5,-154 128.975,-152.921 119.966,-151.476 111.246,-149.915"/>
<polygon fill="midnightblue" stroke="midnightblue" points="111.66,-146.432 101.188,-148.044 110.38,-153.314 111.66,-146.432"/>
</g>
<!-- Node21 -->
<g id="node21" class="node"><title>Node21</title>
<g id="a_node21"><a xlink:href="ObjectsManager_8h.html" target="_top" xlink:title="QualityControl/ObjectsManager.h">
<polygon fill="none" stroke="black" points="491,-129 491,-148 652,-148 652,-129 491,-129"/>
<text text-anchor="middle" x="571.5" y="-136" font-family="Helvetica,sans-Serif" font-size="10.00">QualityControl/ObjectsManager.h</text>
</a>
</g>
</g>
<!-- Node13&#45;&gt;Node21 -->
<g id="edge20" class="edge"><title>Node13&#45;&gt;Node21</title>
<path fill="none" stroke="midnightblue" d="M758.266,-190.475C719.9,-180.004 654.713,-162.212 612.389,-150.66"/>
<polygon fill="midnightblue" stroke="midnightblue" points="613.245,-147.266 602.676,-148.009 611.402,-154.019 613.245,-147.266"/>
</g>
<!-- Node21&#45;&gt;Node15 -->
<g id="edge34" class="edge"><title>Node21&#45;&gt;Node15</title>
<path fill="none" stroke="midnightblue" d="M601.787,-128.929C634.702,-119.426 688.722,-103.279 734.5,-87 736.405,-86.3227 738.357,-85.605 740.32,-84.8658"/>
<polygon fill="midnightblue" stroke="midnightblue" points="742.003,-87.9665 750.051,-81.076 739.463,-81.4437 742.003,-87.9665"/>
</g>
<!-- Node21&#45;&gt;Node16 -->
<g id="edge33" class="edge"><title>Node21&#45;&gt;Node16</title>
<path fill="none" stroke="midnightblue" d="M526.764,-128.967C492.034,-121.184 443.407,-107.701 404.5,-87 385.258,-76.762 384.476,-68.3256 366.5,-56 349.467,-44.3209 329.208,-32.8249 313.47,-24.3759"/>
<polygon fill="midnightblue" stroke="midnightblue" points="314.8,-21.1199 304.325,-19.5345 311.525,-27.3065 314.8,-21.1199"/>
</g>
<!-- Node22 -->
<g id="node22" class="node"><title>Node22</title>
<g id="a_node22"><a xlink:href="MonitorObject_8h.html" target="_top" xlink:title="QualityControl/MonitorObject.h">
<polygon fill="none" stroke="black" points="414,-62 414,-81 565,-81 565,-62 414,-62"/>
<text text-anchor="middle" x="489.5" y="-69" font-family="Helvetica,sans-Serif" font-size="10.00">QualityControl/MonitorObject.h</text>
</a>
</g>
</g>
<!-- Node21&#45;&gt;Node22 -->
<g id="edge21" class="edge"><title>Node21&#45;&gt;Node22</title>
<path fill="none" stroke="midnightblue" d="M560.441,-128.734C547.162,-118.208 524.671,-100.379 508.571,-87.6174"/>
<polygon fill="midnightblue" stroke="midnightblue" points="510.394,-84.5965 500.384,-81.1273 506.046,-90.0821 510.394,-84.5965"/>
</g>
<!-- Node26 -->
<g id="node26" class="node"><title>Node26</title>
<g id="a_node26"><a xlink:href="MonitorObjectCollection_8h.html" target="_top" xlink:title="QualityControl/MonitorObject\lCollection.h">
<polygon fill="none" stroke="black" points="583,-56.5 583,-86.5 726,-86.5 726,-56.5 583,-56.5"/>
<text text-anchor="start" x="591" y="-74.5" font-family="Helvetica,sans-Serif" font-size="10.00">QualityControl/MonitorObject</text>
<text text-anchor="middle" x="654.5" y="-63.5" font-family="Helvetica,sans-Serif" font-size="10.00">Collection.h</text>
</a>
</g>
</g>
<!-- Node21&#45;&gt;Node26 -->
<g id="edge27" class="edge"><title>Node21&#45;&gt;Node26</title>
<path fill="none" stroke="midnightblue" d="M582.694,-128.734C594.342,-119.611 612.995,-105.004 628.37,-92.9631"/>
<polygon fill="midnightblue" stroke="midnightblue" points="630.794,-95.5103 636.509,-86.589 626.478,-89.9991 630.794,-95.5103"/>
</g>
<!-- Node29 -->
<g id="node29" class="node"><title>Node29</title>
<g id="a_node29"><a xlink:href="TaskConfig_8h.html" target="_top" xlink:title="QualityControl/TaskConfig.h">
<polygon fill="none" stroke="black" points="217.5,-62 217.5,-81 357.5,-81 357.5,-62 217.5,-62"/>
<text text-anchor="middle" x="287.5" y="-69" font-family="Helvetica,sans-Serif" font-size="10.00">QualityControl/TaskConfig.h</text>
</a>
</g>
</g>
<!-- Node21&#45;&gt;Node29 -->
<g id="edge30" class="edge"><title>Node21&#45;&gt;Node29</title>
<path fill="none" stroke="midnightblue" d="M534.08,-128.936C482.892,-117.22 391.018,-96.1925 335.023,-83.3768"/>
<polygon fill="midnightblue" stroke="midnightblue" points="335.532,-79.9028 325.003,-81.0834 333.97,-86.7263 335.532,-79.9028"/>
</g>
<!-- Node22&#45;&gt;Node14 -->
<g id="edge23" class="edge"><title>Node22&#45;&gt;Node14</title>
<path fill="none" stroke="midnightblue" d="M509.559,-61.9751C533.935,-51.6151 575.171,-34.0897 602.368,-22.531"/>
<polygon fill="midnightblue" stroke="midnightblue" points="603.861,-25.6995 611.696,-18.5669 601.123,-19.2572 603.861,-25.6995"/>
</g>
<!-- Node22&#45;&gt;Node16 -->
<g id="edge22" class="edge"><title>Node22&#45;&gt;Node16</title>
<path fill="none" stroke="midnightblue" d="M460.269,-61.9743C427.906,-52.5229 373.94,-36.7256 317.896,-20.1048"/>
<polygon fill="midnightblue" stroke="midnightblue" points="318.735,-16.7029 308.152,-17.213 316.743,-23.4136 318.735,-16.7029"/>
</g>
<!-- Node23 -->
<g id="node23" class="node"><title>Node23</title>
<polygon fill="none" stroke="#bfbfbf" points="460.5,-0.5 460.5,-19.5 516.5,-19.5 516.5,-0.5 460.5,-0.5"/>
<text text-anchor="middle" x="488.5" y="-7.5" font-family="Helvetica,sans-Serif" font-size="10.00">Rtypes.h</text>
</g>
<!-- Node22&#45;&gt;Node23 -->
<g id="edge24" class="edge"><title>Node22&#45;&gt;Node23</title>
<path fill="none" stroke="midnightblue" d="M489.357,-61.9751C489.216,-53.5803 488.995,-40.4806 488.814,-29.6631"/>
<polygon fill="midnightblue" stroke="midnightblue" points="492.311,-29.4488 488.643,-19.5091 485.312,-29.5665 492.311,-29.4488"/>
</g>
<!-- Node24 -->
<g id="node24" class="node"><title>Node24</title>
<polygon fill="none" stroke="#bfbfbf" points="535,-0.5 535,-19.5 594,-19.5 594,-0.5 535,-0.5"/>
<text text-anchor="middle" x="564.5" y="-7.5" font-family="Helvetica,sans-Serif" font-size="10.00">TObject.h</text>
</g>
<!-- Node22&#45;&gt;Node24 -->
<g id="edge25" class="edge"><title>Node22&#45;&gt;Node24</title>
<path fill="none" stroke="midnightblue" d="M500.246,-61.9751C512.053,-52.6082 531.243,-37.3839 545.582,-26.0081"/>
<polygon fill="midnightblue" stroke="midnightblue" points="548.115,-28.4661 553.774,-19.5091 543.765,-22.9822 548.115,-28.4661"/>
</g>
<!-- Node25 -->
<g id="node25" class="node"><title>Node25</title>
<polygon fill="none" stroke="#bfbfbf" points="326.5,-0.5 326.5,-19.5 442.5,-19.5 442.5,-0.5 326.5,-0.5"/>
<text text-anchor="middle" x="384.5" y="-7.5" font-family="Helvetica,sans-Serif" font-size="10.00">Common/Exceptions.h</text>
</g>
<!-- Node22&#45;&gt;Node25 -->
<g id="edge26" class="edge"><title>Node22&#45;&gt;Node25</title>
<path fill="none" stroke="midnightblue" d="M474.456,-61.9751C457.225,-52.2106 428.76,-36.0807 408.466,-24.5808"/>
<polygon fill="midnightblue" stroke="midnightblue" points="409.942,-21.3942 399.516,-19.5091 406.491,-27.4843 409.942,-21.3942"/>
</g>
<!-- Node27 -->
<g id="node27" class="node"><title>Node27</title>
<polygon fill="none" stroke="#bfbfbf" points="812,-0.5 812,-19.5 881,-19.5 881,-0.5 812,-0.5"/>
<text text-anchor="middle" x="846.5" y="-7.5" font-family="Helvetica,sans-Serif" font-size="10.00">TObjArray.h</text>
</g>
<!-- Node26&#45;&gt;Node27 -->
<g id="edge28" class="edge"><title>Node26&#45;&gt;Node27</title>
<path fill="none" stroke="midnightblue" d="M700.001,-56.3993C733.322,-46.0733 777.99,-32.2309 809.21,-22.5559"/>
<polygon fill="midnightblue" stroke="midnightblue" points="810.327,-25.8742 818.843,-19.5709 808.255,-19.1879 810.327,-25.8742"/>
</g>
<!-- Node28 -->
<g id="node28" class="node"><title>Node28</title>
<polygon fill="none" stroke="#bfbfbf" points="665.5,-0.5 665.5,-19.5 793.5,-19.5 793.5,-0.5 665.5,-0.5"/>
<text text-anchor="middle" x="729.5" y="-7.5" font-family="Helvetica,sans-Serif" font-size="10.00">Mergers/MergeInterface.h</text>
</g>
<!-- Node26&#45;&gt;Node28 -->
<g id="edge29" class="edge"><title>Node26&#45;&gt;Node28</title>
<path fill="none" stroke="midnightblue" d="M672.274,-56.3993C683.846,-47.2185 698.923,-35.2579 710.696,-25.9182"/>
<polygon fill="midnightblue" stroke="midnightblue" points="712.928,-28.6148 718.587,-19.6578 708.577,-23.1309 712.928,-28.6148"/>
</g>
<!-- Node29&#45;&gt;Node16 -->
<g id="edge31" class="edge"><title>Node29&#45;&gt;Node16</title>
<path fill="none" stroke="midnightblue" d="M287.5,-61.9751C287.5,-53.5803 287.5,-40.4806 287.5,-29.6631"/>
<polygon fill="midnightblue" stroke="midnightblue" points="291,-29.5091 287.5,-19.5091 284,-29.5091 291,-29.5091"/>
</g>
<!-- Node29&#45;&gt;Node17 -->
<g id="edge32" class="edge"><title>Node29&#45;&gt;Node17</title>
<path fill="none" stroke="midnightblue" d="M272.026,-61.9751C254.222,-52.1664 224.759,-35.9346 203.868,-24.425"/>
<polygon fill="midnightblue" stroke="midnightblue" points="205.393,-21.269 194.945,-19.5091 202.015,-27.4001 205.393,-21.269"/>
</g>
<!-- Node30&#45;&gt;Node3 -->
<g id="edge36" class="edge"><title>Node30&#45;&gt;Node3</title>
<path fill="none" stroke="midnightblue" d="M1247.12,-190.475C1265.09,-180.666 1294.82,-164.435 1315.91,-152.925"/>
<polygon fill="midnightblue" stroke="midnightblue" points="1317.81,-155.873 1324.91,-148.009 1314.46,-149.728 1317.81,-155.873"/>
</g>
<!-- Node30&#45;&gt;Node8 -->
<g id="edge38" class="edge"><title>Node30&#45;&gt;Node8</title>
<path fill="none" stroke="midnightblue" d="M1263.74,-190.475C1297.49,-181.551 1351.34,-167.309 1393.56,-156.144"/>
<polygon fill="midnightblue" stroke="midnightblue" points="1394.7,-159.463 1403.47,-153.523 1392.91,-152.696 1394.7,-159.463"/>
</g>
<!-- Node31 -->
<g id="node31" class="node"><title>Node31</title>
<polygon fill="none" stroke="#bfbfbf" points="1158.5,-123.5 1158.5,-153.5 1300.5,-153.5 1300.5,-123.5 1158.5,-123.5"/>
<text text-anchor="start" x="1166.5" y="-141.5" font-family="Helvetica,sans-Serif" font-size="10.00">TOFReconstruction/Decoder</text>
<text text-anchor="middle" x="1229.5" y="-130.5" font-family="Helvetica,sans-Serif" font-size="10.00">Base.h</text>
</g>
<!-- Node30&#45;&gt;Node31 -->
<g id="edge37" class="edge"><title>Node30&#45;&gt;Node31</title>
<path fill="none" stroke="midnightblue" d="M1231.21,-190.475C1230.98,-183.471 1230.63,-173.192 1230.31,-163.696"/>
<polygon fill="midnightblue" stroke="midnightblue" points="1233.81,-163.4 1229.97,-153.523 1226.81,-163.635 1233.81,-163.4"/>
</g>
</g>
</svg>
