<?xml version="1.0" encoding="UTF-8" standalone="no"?>
<!DOCTYPE svg PUBLIC "-//W3C//DTD SVG 1.1//EN"
 "http://www.w3.org/Graphics/SVG/1.1/DTD/svg11.dtd">
<!-- Generated by graphviz version 2.38.0 (20140413.2041)
 -->
<!-- Title: Modules/TOF/include/TOF/TOFTask.h Pages: 1 -->
<svg width="853pt" height="274pt"
 viewBox="0.00 0.00 852.50 274.00" xmlns="http://www.w3.org/2000/svg" xmlns:xlink="http://www.w3.org/1999/xlink">
<g id="graph0" class="graph" transform="scale(1 1) rotate(0) translate(4 270)">
<title>Modules/TOF/include/TOF/TOFTask.h</title>
<!-- Node1 -->
<g id="node1" class="node"><title>Node1</title>
<polygon fill="#bfbfbf" stroke="black" points="84.5,-235.5 84.5,-265.5 194.5,-265.5 194.5,-235.5 84.5,-235.5"/>
<text text-anchor="start" x="92.5" y="-253.5" font-family="Helvetica,sans-Serif" font-size="10.00">Modules/TOF/include</text>
<text text-anchor="middle" x="139.5" y="-242.5" font-family="Helvetica,sans-Serif" font-size="10.00">/TOF/TOFTask.h</text>
</g>
<!-- Node2 -->
<g id="node2" class="node"><title>Node2</title>
<g id="a_node2"><a xlink:href="TaskInterface_8h.html" target="_top" xlink:title="QualityControl/TaskInterface.h">
<polygon fill="none" stroke="black" points="64.5,-179.5 64.5,-198.5 214.5,-198.5 214.5,-179.5 64.5,-179.5"/>
<text text-anchor="middle" x="139.5" y="-186.5" font-family="Helvetica,sans-Serif" font-size="10.00">QualityControl/TaskInterface.h</text>
</a>
</g>
</g>
<!-- Node1&#45;&gt;Node2 -->
<g id="edge1" class="edge"><title>Node1&#45;&gt;Node2</title>
<path fill="none" stroke="midnightblue" d="M139.5,-235.399C139.5,-227.466 139.5,-217.458 139.5,-208.858"/>
<polygon fill="midnightblue" stroke="midnightblue" points="143,-208.658 139.5,-198.658 136,-208.658 143,-208.658"/>
</g>
<!-- Node3 -->
<g id="node3" class="node"><title>Node3</title>
<polygon fill="none" stroke="#bfbfbf" points="165,-0.5 165,-19.5 200,-19.5 200,-0.5 165,-0.5"/>
<text text-anchor="middle" x="182.5" y="-7.5" font-family="Helvetica,sans-Serif" font-size="10.00">map</text>
</g>
<!-- Node2&#45;&gt;Node3 -->
<g id="edge2" class="edge"><title>Node2&#45;&gt;Node3</title>
<path fill="none" stroke="midnightblue" d="M97.11,-179.451C76.919,-173.022 54.5878,-161.933 42.5,-143 21.6924,-110.409 19.7229,-87.246 42.5,-56 68.0368,-20.9681 121.292,-12.611 154.259,-10.9548"/>
<polygon fill="midnightblue" stroke="midnightblue" points="154.71,-14.4422 164.592,-10.6212 154.484,-7.4458 154.71,-14.4422"/>
</g>
<!-- Node4 -->
<g id="node4" class="node"><title>Node4</title>
<polygon fill="none" stroke="#bfbfbf" points="95.5,-62 95.5,-81 147.5,-81 147.5,-62 95.5,-62"/>
<text text-anchor="middle" x="121.5" y="-69" font-family="Helvetica,sans-Serif" font-size="10.00">memory</text>
</g>
<!-- Node2&#45;&gt;Node4 -->
<g id="edge3" class="edge"><title>Node2&#45;&gt;Node4</title>
<path fill="none" stroke="midnightblue" d="M132.61,-179.319C126.231,-170.684 117.192,-156.77 113.5,-143 108.873,-125.744 112.057,-105.413 115.686,-91.0293"/>
<polygon fill="midnightblue" stroke="midnightblue" points="119.073,-91.9137 118.426,-81.3386 112.337,-90.0091 119.073,-91.9137"/>
</g>
<!-- Node5 -->
<g id="node5" class="node"><title>Node5</title>
<polygon fill="none" stroke="#bfbfbf" points="250,-0.5 250,-19.5 291,-19.5 291,-0.5 250,-0.5"/>
<text text-anchor="middle" x="270.5" y="-7.5" font-family="Helvetica,sans-Serif" font-size="10.00">string</text>
</g>
<!-- Node2&#45;&gt;Node5 -->
<g id="edge4" class="edge"><title>Node2&#45;&gt;Node5</title>
<path fill="none" stroke="midnightblue" d="M130.63,-179.44C108.549,-157.105 55.0905,-96.0169 86.5,-56 96.0019,-43.8943 189.983,-25.4328 239.822,-16.3824"/>
<polygon fill="midnightblue" stroke="midnightblue" points="240.517,-19.8136 249.74,-14.5997 239.279,-12.924 240.517,-19.8136"/>
</g>
<!-- Node6 -->
<g id="node6" class="node"><title>Node6</title>
<polygon fill="none" stroke="#bfbfbf" points="0,-0.5 0,-19.5 83,-19.5 83,-0.5 0,-0.5"/>
<text text-anchor="middle" x="41.5" y="-7.5" font-family="Helvetica,sans-Serif" font-size="10.00">unordered_map</text>
</g>
<!-- Node2&#45;&gt;Node6 -->
<g id="edge5" class="edge"><title>Node2&#45;&gt;Node6</title>
<path fill="none" stroke="midnightblue" d="M87.5076,-179.44C65.7664,-173.1 42.3755,-162.092 28.5,-143 3.77071,-108.974 20.9503,-56.3005 32.8226,-28.9142"/>
<polygon fill="midnightblue" stroke="midnightblue" points="36.0385,-30.2976 37.0144,-19.7478 29.6725,-27.3864 36.0385,-30.2976"/>
</g>
<!-- Node7 -->
<g id="node7" class="node"><title>Node7</title>
<polygon fill="none" stroke="#bfbfbf" points="123,-123.5 123,-142.5 248,-142.5 248,-123.5 123,-123.5"/>
<text text-anchor="middle" x="185.5" y="-130.5" font-family="Helvetica,sans-Serif" font-size="10.00">Framework/InitContext.h</text>
</g>
<!-- Node2&#45;&gt;Node7 -->
<g id="edge6" class="edge"><title>Node2&#45;&gt;Node7</title>
<path fill="none" stroke="midnightblue" d="M147.096,-179.083C153.727,-171.298 163.521,-159.801 171.558,-150.367"/>
<polygon fill="midnightblue" stroke="midnightblue" points="174.225,-152.633 178.045,-142.751 168.896,-148.094 174.225,-152.633"/>
</g>
<!-- Node8 -->
<g id="node8" class="node"><title>Node8</title>
<polygon fill="none" stroke="#bfbfbf" points="266.5,-123.5 266.5,-142.5 426.5,-142.5 426.5,-123.5 266.5,-123.5"/>
<text text-anchor="middle" x="346.5" y="-130.5" font-family="Helvetica,sans-Serif" font-size="10.00">Framework/ProcessingContext.h</text>
</g>
<!-- Node2&#45;&gt;Node8 -->
<g id="edge7" class="edge"><title>Node2&#45;&gt;Node8</title>
<path fill="none" stroke="midnightblue" d="M172.3,-179.444C207.88,-170.162 264.814,-155.309 303.847,-145.127"/>
<polygon fill="midnightblue" stroke="midnightblue" points="305.061,-148.427 313.854,-142.516 303.294,-141.654 305.061,-148.427"/>
</g>
<!-- Node9 -->
<g id="node9" class="node"><title>Node9</title>
<g id="a_node9"><a xlink:href="Activity_8h.html" target="_top" xlink:title="QualityControl/Activity.h">
<polygon fill="none" stroke="black" points="445,-123.5 445,-142.5 568,-142.5 568,-123.5 445,-123.5"/>
<text text-anchor="middle" x="506.5" y="-130.5" font-family="Helvetica,sans-Serif" font-size="10.00">QualityControl/Activity.h</text>
</a>
</g>
</g>
<!-- Node2&#45;&gt;Node9 -->
<g id="edge8" class="edge"><title>Node2&#45;&gt;Node9</title>
<path fill="none" stroke="midnightblue" d="M197.652,-179.444C263.151,-169.806 369.463,-154.163 438.685,-143.978"/>
<polygon fill="midnightblue" stroke="midnightblue" points="439.236,-147.435 448.62,-142.516 438.217,-140.51 439.236,-147.435"/>
</g>
<!-- Node10 -->
<g id="node10" class="node"><title>Node10</title>
<g id="a_node10"><a xlink:href="ObjectsManager_8h.html" target="_top" xlink:title="QualityControl/ObjectsManager.h">
<polygon fill="none" stroke="black" points="586,-123.5 586,-142.5 747,-142.5 747,-123.5 586,-123.5"/>
<text text-anchor="middle" x="666.5" y="-130.5" font-family="Helvetica,sans-Serif" font-size="10.00">QualityControl/ObjectsManager.h</text>
</a>
</g>
</g>
<!-- Node2&#45;&gt;Node10 -->
<g id="edge9" class="edge"><title>Node2&#45;&gt;Node10</title>
<path fill="none" stroke="midnightblue" d="M214.726,-180.292C309.954,-170.534 473.856,-153.74 575.875,-143.286"/>
<polygon fill="midnightblue" stroke="midnightblue" points="576.265,-146.765 585.856,-142.263 575.551,-139.801 576.265,-146.765"/>
</g>
<!-- Node10&#45;&gt;Node4 -->
<g id="edge23" class="edge"><title>Node10&#45;&gt;Node4</title>
<path fill="none" stroke="midnightblue" d="M585.552,-123.855C582.496,-123.564 579.471,-123.278 576.5,-123 392.607,-105.811 343.007,-126.103 162.5,-87 159.076,-86.2582 155.546,-85.3089 152.061,-84.2516"/>
<polygon fill="midnightblue" stroke="midnightblue" points="153.077,-80.9013 142.484,-81.0689 150.87,-87.5441 153.077,-80.9013"/>
</g>
<!-- Node10&#45;&gt;Node5 -->
<g id="edge22" class="edge"><title>Node10&#45;&gt;Node5</title>
<path fill="none" stroke="midnightblue" d="M593.391,-123.499C509.116,-113.357 379.45,-96.5756 358.5,-87 354.356,-85.1057 312.269,-48.0657 287.832,-26.4071"/>
<polygon fill="midnightblue" stroke="midnightblue" points="290.104,-23.7443 280.302,-19.7247 285.458,-28.98 290.104,-23.7443"/>
</g>
<!-- Node11 -->
<g id="node11" class="node"><title>Node11</title>
<g id="a_node11"><a xlink:href="MonitorObject_8h.html" target="_top" xlink:title="QualityControl/MonitorObject.h">
<polygon fill="none" stroke="black" points="368,-62 368,-81 519,-81 519,-62 368,-62"/>
<text text-anchor="middle" x="443.5" y="-69" font-family="Helvetica,sans-Serif" font-size="10.00">QualityControl/MonitorObject.h</text>
</a>
</g>
</g>
<!-- Node10&#45;&gt;Node11 -->
<g id="edge10" class="edge"><title>Node10&#45;&gt;Node11</title>
<path fill="none" stroke="midnightblue" d="M634.55,-123.475C595.304,-113.004 528.622,-95.2118 485.327,-83.6601"/>
<polygon fill="midnightblue" stroke="midnightblue" points="485.956,-80.2054 475.391,-81.0091 484.151,-86.9688 485.956,-80.2054"/>
</g>
<!-- Node15 -->
<g id="node15" class="node"><title>Node15</title>
<g id="a_node15"><a xlink:href="MonitorObjectCollection_8h.html" target="_top" xlink:title="QualityControl/MonitorObject\lCollection.h">
<polygon fill="none" stroke="black" points="595,-56.5 595,-86.5 738,-86.5 738,-56.5 595,-56.5"/>
<text text-anchor="start" x="603" y="-74.5" font-family="Helvetica,sans-Serif" font-size="10.00">QualityControl/MonitorObject</text>
<text text-anchor="middle" x="666.5" y="-63.5" font-family="Helvetica,sans-Serif" font-size="10.00">Collection.h</text>
</a>
</g>
</g>
<!-- Node10&#45;&gt;Node15 -->
<g id="edge16" class="edge"><title>Node10&#45;&gt;Node15</title>
<path fill="none" stroke="midnightblue" d="M666.5,-123.475C666.5,-116.471 666.5,-106.192 666.5,-96.6956"/>
<polygon fill="midnightblue" stroke="midnightblue" points="670,-96.5229 666.5,-86.523 663,-96.523 670,-96.5229"/>
</g>
<!-- Node18 -->
<g id="node18" class="node"><title>Node18</title>
<g id="a_node18"><a xlink:href="TaskConfig_8h.html" target="_top" xlink:title="QualityControl/TaskConfig.h">
<polygon fill="none" stroke="black" points="171.5,-62 171.5,-81 311.5,-81 311.5,-62 171.5,-62"/>
<text text-anchor="middle" x="241.5" y="-69" font-family="Helvetica,sans-Serif" font-size="10.00">QualityControl/TaskConfig.h</text>
</a>
</g>
</g>
<!-- Node10&#45;&gt;Node18 -->
<g id="edge19" class="edge"><title>Node10&#45;&gt;Node18</title>
<path fill="none" stroke="midnightblue" d="M595.523,-123.467C526.465,-114.969 418.627,-101.177 325.5,-87 316.89,-85.6893 307.799,-84.2149 298.904,-82.7213"/>
<polygon fill="midnightblue" stroke="midnightblue" points="299.425,-79.2598 288.98,-81.0346 298.252,-86.1608 299.425,-79.2598"/>
</g>
<!-- Node11&#45;&gt;Node3 -->
<g id="edge12" class="edge"><title>Node11&#45;&gt;Node3</title>
<path fill="none" stroke="midnightblue" d="M406.105,-61.9751C353.032,-49.8761 257.091,-28.0045 210.034,-17.277"/>
<polygon fill="midnightblue" stroke="midnightblue" points="210.764,-13.8536 200.236,-15.0433 209.208,-20.6785 210.764,-13.8536"/>
</g>
<!-- Node11&#45;&gt;Node5 -->
<g id="edge11" class="edge"><title>Node11&#45;&gt;Node5</title>
<path fill="none" stroke="midnightblue" d="M418.713,-61.9751C387.639,-51.2877 334.394,-32.975 300.895,-21.4536"/>
<polygon fill="midnightblue" stroke="midnightblue" points="301.773,-18.0547 291.179,-18.112 299.497,-24.6741 301.773,-18.0547"/>
</g>
<!-- Node12 -->
<g id="node12" class="node"><title>Node12</title>
<polygon fill="none" stroke="#bfbfbf" points="339.5,-0.5 339.5,-19.5 395.5,-19.5 395.5,-0.5 339.5,-0.5"/>
<text text-anchor="middle" x="367.5" y="-7.5" font-family="Helvetica,sans-Serif" font-size="10.00">Rtypes.h</text>
</g>
<!-- Node11&#45;&gt;Node12 -->
<g id="edge13" class="edge"><title>Node11&#45;&gt;Node12</title>
<path fill="none" stroke="midnightblue" d="M432.611,-61.9751C420.534,-52.5199 400.833,-37.0961 386.26,-25.6871"/>
<polygon fill="midnightblue" stroke="midnightblue" points="388.4,-22.9177 378.369,-19.5091 384.085,-28.4295 388.4,-22.9177"/>
</g>
<!-- Node13 -->
<g id="node13" class="node"><title>Node13</title>
<polygon fill="none" stroke="#bfbfbf" points="414,-0.5 414,-19.5 473,-19.5 473,-0.5 414,-0.5"/>
<text text-anchor="middle" x="443.5" y="-7.5" font-family="Helvetica,sans-Serif" font-size="10.00">TObject.h</text>
</g>
<!-- Node11&#45;&gt;Node13 -->
<g id="edge14" class="edge"><title>Node11&#45;&gt;Node13</title>
<path fill="none" stroke="midnightblue" d="M443.5,-61.9751C443.5,-53.5803 443.5,-40.4806 443.5,-29.6631"/>
<polygon fill="midnightblue" stroke="midnightblue" points="447,-29.5091 443.5,-19.5091 440,-29.5091 447,-29.5091"/>
</g>
<!-- Node14 -->
<g id="node14" class="node"><title>Node14</title>
<polygon fill="none" stroke="#bfbfbf" points="491.5,-0.5 491.5,-19.5 607.5,-19.5 607.5,-0.5 491.5,-0.5"/>
<text text-anchor="middle" x="549.5" y="-7.5" font-family="Helvetica,sans-Serif" font-size="10.00">Common/Exceptions.h</text>
</g>
<!-- Node11&#45;&gt;Node14 -->
<g id="edge15" class="edge"><title>Node11&#45;&gt;Node14</title>
<path fill="none" stroke="midnightblue" d="M458.687,-61.9751C476.162,-52.1664 505.079,-35.9346 525.583,-24.425"/>
<polygon fill="midnightblue" stroke="midnightblue" points="527.334,-27.456 534.341,-19.5091 523.908,-21.3519 527.334,-27.456"/>
</g>
<!-- Node16 -->
<g id="node16" class="node"><title>Node16</title>
<polygon fill="none" stroke="#bfbfbf" points="629,-0.5 629,-19.5 698,-19.5 698,-0.5 629,-0.5"/>
<text text-anchor="middle" x="663.5" y="-7.5" font-family="Helvetica,sans-Serif" font-size="10.00">TObjArray.h</text>
</g>
<!-- Node15&#45;&gt;Node16 -->
<g id="edge17" class="edge"><title>Node15&#45;&gt;Node16</title>
<path fill="none" stroke="midnightblue" d="M665.789,-56.3993C665.389,-48.4664 664.884,-38.458 664.451,-29.8583"/>
<polygon fill="midnightblue" stroke="midnightblue" points="667.936,-29.4688 663.937,-19.6578 660.945,-29.8214 667.936,-29.4688"/>
</g>
<!-- Node17 -->
<g id="node17" class="node"><title>Node17</title>
<polygon fill="none" stroke="#bfbfbf" points="716.5,-0.5 716.5,-19.5 844.5,-19.5 844.5,-0.5 716.5,-0.5"/>
<text text-anchor="middle" x="780.5" y="-7.5" font-family="Helvetica,sans-Serif" font-size="10.00">Mergers/MergeInterface.h</text>
</g>
<!-- Node15&#45;&gt;Node17 -->
<g id="edge18" class="edge"><title>Node15&#45;&gt;Node17</title>
<path fill="none" stroke="midnightblue" d="M693.516,-56.3993C712.131,-46.6837 736.71,-33.8551 754.991,-24.3137"/>
<polygon fill="midnightblue" stroke="midnightblue" points="756.666,-27.3876 763.912,-19.6578 753.427,-21.182 756.666,-27.3876"/>
</g>
<!-- Node18&#45;&gt;Node5 -->
<g id="edge20" class="edge"><title>Node18&#45;&gt;Node5</title>
<path fill="none" stroke="midnightblue" d="M245.655,-61.9751C249.876,-53.3152 256.537,-39.6486 261.9,-28.6453"/>
<polygon fill="midnightblue" stroke="midnightblue" points="265.118,-30.0317 266.353,-19.5091 258.825,-26.9648 265.118,-30.0317"/>
</g>
<!-- Node18&#45;&gt;Node6 -->
<g id="edge21" class="edge"><title>Node18&#45;&gt;Node6</title>
<path fill="none" stroke="midnightblue" d="M212.845,-61.9751C177.944,-51.592 118.85,-34.0116 80.0003,-22.4538"/>
<polygon fill="midnightblue" stroke="midnightblue" points="80.6848,-19.0059 70.102,-19.5091 78.6888,-25.7153 80.6848,-19.0059"/>
</g>
</g>
</svg>
