<?xml version="1.0" encoding="UTF-8" standalone="no"?>
<!DOCTYPE svg PUBLIC "-//W3C//DTD SVG 1.1//EN"
 "http://www.w3.org/Graphics/SVG/1.1/DTD/svg11.dtd">
<!-- Generated by graphviz version 2.38.0 (20140413.2041)
 -->
<!-- Title: Modules/TOF/include/TOF/TOFTaskCompressed.h Pages: 1 -->
<!--zoomable 285 -->
<svg id="main" version="1.1" xmlns="http://www.w3.org/2000/svg" xmlns:xlink="http://www.w3.org/1999/xlink" xml:space="preserve" onload="init(evt)">
<style type="text/css"><![CDATA[
.edge:hover path { stroke: red; }
.edge:hover polygon { stroke: red; fill: red; }
]]></style>
<script type="text/javascript"><![CDATA[
var edges = document.getElementsByTagName('g');
if (edges && edges.length) {
  for (var i=0;i<edges.length;i++) {
    if (edges[i].id.substr(0,4)=='edge') {
      edges[i].setAttribute('class','edge');
    }
  }
}
]]></script>
        <defs>
                <circle id="rim" cx="0" cy="0" r="7"/>
                <circle id="rim2" cx="0" cy="0" r="3.5"/>
                <g id="zoomPlus">
                        <use xlink:href="#rim" fill="#404040">
                                <set attributeName="fill" to="#808080" begin="zoomplus.mouseover" end="zoomplus.mouseout"/>
                        </use>
                        <path d="M-4,0h8M0,-4v8" fill="none" stroke="white" stroke-width="1.5" pointer-events="none"/>
                </g>
                <g id="zoomMin">
                        <use xlink:href="#rim" fill="#404040">
                                <set attributeName="fill" to="#808080" begin="zoomminus.mouseover" end="zoomminus.mouseout"/>
                        </use>
                        <path d="M-4,0h8" fill="none" stroke="white" stroke-width="1.5" pointer-events="none"/>
                </g>
                <g id="dirArrow">
                        <path fill="none" stroke="white" stroke-width="1.5" d="M0,-3.0v7 M-2.5,-0.5L0,-3.0L2.5,-0.5"/>
                </g>
               <g id="resetDef">
                       <use xlink:href="#rim2" fill="#404040">
                               <set attributeName="fill" to="#808080" begin="reset.mouseover" end="reset.mouseout"/>
                       </use>
               </g>
        </defs>

<script type="text/javascript">
var viewWidth = 1518;
var viewHeight = 285;
var sectionId = 'dynsection-0';
</script>
<script xlink:href="svgpan.js"/>
<svg id="graph" class="graph">
<g id="viewport">
<title>Modules/TOF/include/TOF/TOFTaskCompressed.h</title>
<!-- Node1 -->
<g id="node1" class="node"><title>Node1</title>
<polygon fill="#bfbfbf" stroke="black" points="851.5,-246.5 851.5,-276.5 998.5,-276.5 998.5,-246.5 851.5,-246.5"/>
<text text-anchor="start" x="859.5" y="-264.5" font-family="Helvetica,sans-Serif" font-size="10.00">Modules/TOF/include</text>
<text text-anchor="middle" x="925" y="-253.5" font-family="Helvetica,sans-Serif" font-size="10.00">/TOF/TOFTaskCompressed.h</text>
</g>
<!-- Node2 -->
<g id="node2" class="node"><title>Node2</title>
<g id="a_node2"><a xlink:href="TaskInterface_8h.html" target="_top" xlink:title="QualityControl/TaskInterface.h">
<polygon fill="none" stroke="black" points="569,-190.5 569,-209.5 719,-209.5 719,-190.5 569,-190.5"/>
<text text-anchor="middle" x="644" y="-197.5" font-family="Helvetica,sans-Serif" font-size="10.00">QualityControl/TaskInterface.h</text>
</a>
</g>
</g>
<!-- Node1&#45;&gt;Node2 -->
<g id="edge1" class="edge"><title>Node1&#45;&gt;Node2</title>
<path fill="none" stroke="midnightblue" d="M858.763,-246.475C808.379,-235.806 740.116,-221.352 694.192,-211.628"/>
<polygon fill="midnightblue" stroke="midnightblue" points="694.681,-208.154 684.173,-209.506 693.231,-215.002 694.681,-208.154"/>
</g>
<!-- Node19 -->
<g id="node19" class="node"><title>Node19</title>
<g id="a_node19"><a xlink:href="TOFDecoderCompressed_8h.html" target="_top" xlink:title="TOF/TOFDecoderCompressed.h">
<polygon fill="none" stroke="black" points="1209.5,-190.5 1209.5,-209.5 1368.5,-209.5 1368.5,-190.5 1209.5,-190.5"/>
<text text-anchor="middle" x="1289" y="-197.5" font-family="Helvetica,sans-Serif" font-size="10.00">TOF/TOFDecoderCompressed.h</text>
</a>
</g>
</g>
<!-- Node1&#45;&gt;Node19 -->
<g id="edge24" class="edge"><title>Node1&#45;&gt;Node19</title>
<path fill="none" stroke="midnightblue" d="M998.661,-248.459C1065.67,-237.507 1163.47,-221.519 1226.68,-211.187"/>
<polygon fill="midnightblue" stroke="midnightblue" points="1227.6,-214.583 1236.91,-209.516 1226.47,-207.675 1227.6,-214.583"/>
</g>
<!-- Node3 -->
<g id="node3" class="node"><title>Node3</title>
<polygon fill="none" stroke="#bfbfbf" points="233.5,-0.5 233.5,-19.5 268.5,-19.5 268.5,-0.5 233.5,-0.5"/>
<text text-anchor="middle" x="251" y="-7.5" font-family="Helvetica,sans-Serif" font-size="10.00">map</text>
</g>
<!-- Node2&#45;&gt;Node3 -->
<g id="edge2" class="edge"><title>Node2&#45;&gt;Node3</title>
<path fill="none" stroke="midnightblue" d="M568.711,-197.112C483.952,-193.564 352.966,-183.357 314,-154 293.08,-138.239 267.875,-64.8918 256.752,-29.8011"/>
<polygon fill="midnightblue" stroke="midnightblue" points="259.975,-28.3799 253.659,-19.8737 253.292,-30.4622 259.975,-28.3799"/>
</g>
<!-- Node4 -->
<g id="node4" class="node"><title>Node4</title>
<polygon fill="none" stroke="#bfbfbf" points="39,-62 39,-81 91,-81 91,-62 39,-62"/>
<text text-anchor="middle" x="65" y="-69" font-family="Helvetica,sans-Serif" font-size="10.00">memory</text>
</g>
<!-- Node2&#45;&gt;Node4 -->
<g id="edge3" class="edge"><title>Node2&#45;&gt;Node4</title>
<path fill="none" stroke="midnightblue" d="M568.902,-195.841C492.044,-191.264 369.661,-180.232 267,-154 201.415,-137.241 128.785,-104.072 91.0285,-85.6348"/>
<polygon fill="midnightblue" stroke="midnightblue" points="92.2885,-82.3536 81.772,-81.0673 89.191,-88.631 92.2885,-82.3536"/>
</g>
<!-- Node5 -->
<g id="node5" class="node"><title>Node5</title>
<polygon fill="none" stroke="#bfbfbf" points="572.5,-0.5 572.5,-19.5 613.5,-19.5 613.5,-0.5 572.5,-0.5"/>
<text text-anchor="middle" x="593" y="-7.5" font-family="Helvetica,sans-Serif" font-size="10.00">string</text>
</g>
<!-- Node2&#45;&gt;Node5 -->
<g id="edge4" class="edge"><title>Node2&#45;&gt;Node5</title>
<path fill="none" stroke="midnightblue" d="M632.303,-190.471C610.333,-173.633 563.539,-133.679 546,-87 541.154,-74.1026 540.589,-68.671 546,-56 551.147,-43.9469 561.281,-33.5764 570.826,-25.8389"/>
<polygon fill="midnightblue" stroke="midnightblue" points="573.04,-28.5532 578.922,-19.7409 568.828,-22.9619 573.04,-28.5532"/>
</g>
<!-- Node6 -->
<g id="node6" class="node"><title>Node6</title>
<polygon fill="none" stroke="#bfbfbf" points="656.5,-0.5 656.5,-19.5 739.5,-19.5 739.5,-0.5 656.5,-0.5"/>
<text text-anchor="middle" x="698" y="-7.5" font-family="Helvetica,sans-Serif" font-size="10.00">unordered_map</text>
</g>
<!-- Node2&#45;&gt;Node6 -->
<g id="edge5" class="edge"><title>Node2&#45;&gt;Node6</title>
<path fill="none" stroke="midnightblue" d="M644.492,-190.383C645.681,-175.585 649.688,-144.83 663,-123 675.626,-102.296 693.999,-109.091 704,-87 712.25,-68.7783 708.668,-45.5849 704.349,-29.6398"/>
<polygon fill="midnightblue" stroke="midnightblue" points="707.646,-28.451 701.378,-19.9092 700.951,-30.4954 707.646,-28.451"/>
</g>
<!-- Node7 -->
<g id="node7" class="node"><title>Node7</title>
<polygon fill="none" stroke="#bfbfbf" points="672.5,-129 672.5,-148 797.5,-148 797.5,-129 672.5,-129"/>
<text text-anchor="middle" x="735" y="-136" font-family="Helvetica,sans-Serif" font-size="10.00">Framework/InitContext.h</text>
</g>
<!-- Node2&#45;&gt;Node7 -->
<g id="edge6" class="edge"><title>Node2&#45;&gt;Node7</title>
<path fill="none" stroke="midnightblue" d="M657.038,-190.475C671.769,-180.843 695.973,-165.017 713.509,-153.552"/>
<polygon fill="midnightblue" stroke="midnightblue" points="715.532,-156.411 721.986,-148.009 711.701,-150.552 715.532,-156.411"/>
</g>
<!-- Node8 -->
<g id="node8" class="node"><title>Node8</title>
<polygon fill="none" stroke="#bfbfbf" points="816,-129 816,-148 976,-148 976,-129 816,-129"/>
<text text-anchor="middle" x="896" y="-136" font-family="Helvetica,sans-Serif" font-size="10.00">Framework/ProcessingContext.h</text>
</g>
<!-- Node2&#45;&gt;Node8 -->
<g id="edge7" class="edge"><title>Node2&#45;&gt;Node8</title>
<path fill="none" stroke="midnightblue" d="M680.105,-190.475C724.829,-179.915 801.083,-161.911 849.967,-150.369"/>
<polygon fill="midnightblue" stroke="midnightblue" points="851.033,-153.713 859.962,-148.009 849.425,-146.901 851.033,-153.713"/>
</g>
<!-- Node9 -->
<g id="node9" class="node"><title>Node9</title>
<g id="a_node9"><a xlink:href="Activity_8h.html" target="_top" xlink:title="QualityControl/Activity.h">
<polygon fill="none" stroke="black" points="994.5,-129 994.5,-148 1117.5,-148 1117.5,-129 994.5,-129"/>
<text text-anchor="middle" x="1056" y="-136" font-family="Helvetica,sans-Serif" font-size="10.00">QualityControl/Activity.h</text>
</a>
</g>
</g>
<!-- Node2&#45;&gt;Node9 -->
<g id="edge8" class="edge"><title>Node2&#45;&gt;Node9</title>
<path fill="none" stroke="midnightblue" d="M719.063,-190.63C788.307,-182.546 893.867,-169.3 985,-154 992.08,-152.811 999.531,-151.432 1006.84,-150.007"/>
<polygon fill="midnightblue" stroke="midnightblue" points="1007.54,-153.436 1016.66,-148.047 1006.17,-146.571 1007.54,-153.436"/>
</g>
<!-- Node10 -->
<g id="node10" class="node"><title>Node10</title>
<g id="a_node10"><a xlink:href="ObjectsManager_8h.html" target="_top" xlink:title="QualityControl/ObjectsManager.h">
<polygon fill="none" stroke="black" points="323.5,-129 323.5,-148 484.5,-148 484.5,-129 323.5,-129"/>
<text text-anchor="middle" x="404" y="-136" font-family="Helvetica,sans-Serif" font-size="10.00">QualityControl/ObjectsManager.h</text>
</a>
</g>
</g>
<!-- Node2&#45;&gt;Node10 -->
<g id="edge9" class="edge"><title>Node2&#45;&gt;Node10</title>
<path fill="none" stroke="midnightblue" d="M609.614,-190.475C567.109,-179.937 494.701,-161.986 448.134,-150.441"/>
<polygon fill="midnightblue" stroke="midnightblue" points="448.871,-147.018 438.322,-148.009 447.186,-153.813 448.871,-147.018"/>
</g>
<!-- Node10&#45;&gt;Node4 -->
<g id="edge23" class="edge"><title>Node10&#45;&gt;Node4</title>
<path fill="none" stroke="midnightblue" d="M323.205,-129.169C261.3,-121.569 174.198,-108.23 100,-87 97.7058,-86.3435 95.3589,-85.5819 93.0202,-84.7581"/>
<polygon fill="midnightblue" stroke="midnightblue" points="94.1995,-81.4617 83.6098,-81.1317 91.6824,-87.9935 94.1995,-81.4617"/>
</g>
<!-- Node10&#45;&gt;Node5 -->
<g id="edge22" class="edge"><title>Node10&#45;&gt;Node5</title>
<path fill="none" stroke="midnightblue" d="M415.231,-128.811C438.913,-110.538 493.398,-68.7649 513,-56 530.583,-44.5501 551.243,-32.9739 567.162,-24.4303"/>
<polygon fill="midnightblue" stroke="midnightblue" points="569.2,-27.311 576.392,-19.5309 565.918,-21.1281 569.2,-27.311"/>
</g>
<!-- Node11 -->
<g id="node11" class="node"><title>Node11</title>
<g id="a_node11"><a xlink:href="MonitorObject_8h.html" target="_top" xlink:title="QualityControl/MonitorObject.h">
<polygon fill="none" stroke="black" points="309.5,-62 309.5,-81 460.5,-81 460.5,-62 309.5,-62"/>
<text text-anchor="middle" x="385" y="-69" font-family="Helvetica,sans-Serif" font-size="10.00">QualityControl/MonitorObject.h</text>
</a>
</g>
</g>
<!-- Node10&#45;&gt;Node11 -->
<g id="edge10" class="edge"><title>Node10&#45;&gt;Node11</title>
<path fill="none" stroke="midnightblue" d="M401.438,-128.734C398.617,-119.085 394.003,-103.3 390.38,-90.9063"/>
<polygon fill="midnightblue" stroke="midnightblue" points="393.687,-89.7436 387.522,-81.1273 386.968,-91.7077 393.687,-89.7436"/>
</g>
<!-- Node15 -->
<g id="node15" class="node"><title>Node15</title>
<g id="a_node15"><a xlink:href="MonitorObjectCollection_8h.html" target="_top" xlink:title="QualityControl/MonitorObject\lCollection.h">
<polygon fill="none" stroke="black" points="109.5,-56.5 109.5,-86.5 252.5,-86.5 252.5,-56.5 109.5,-56.5"/>
<text text-anchor="start" x="117.5" y="-74.5" font-family="Helvetica,sans-Serif" font-size="10.00">QualityControl/MonitorObject</text>
<text text-anchor="middle" x="181" y="-63.5" font-family="Helvetica,sans-Serif" font-size="10.00">Collection.h</text>
</a>
</g>
</g>
<!-- Node10&#45;&gt;Node15 -->
<g id="edge16" class="edge"><title>Node10&#45;&gt;Node15</title>
<path fill="none" stroke="midnightblue" d="M374.387,-128.869C339.984,-118.841 282.399,-102.056 238.994,-89.4042"/>
<polygon fill="midnightblue" stroke="midnightblue" points="239.707,-85.9663 229.127,-86.5281 237.748,-92.6867 239.707,-85.9663"/>
</g>
<!-- Node18 -->
<g id="node18" class="node"><title>Node18</title>
<g id="a_node18"><a xlink:href="TaskConfig_8h.html" target="_top" xlink:title="QualityControl/TaskConfig.h">
<polygon fill="none" stroke="black" points="555,-62 555,-81 695,-81 695,-62 555,-62"/>
<text text-anchor="middle" x="625" y="-69" font-family="Helvetica,sans-Serif" font-size="10.00">QualityControl/TaskConfig.h</text>
</a>
</g>
</g>
<!-- Node10&#45;&gt;Node18 -->
<g id="edge19" class="edge"><title>Node10&#45;&gt;Node18</title>
<path fill="none" stroke="midnightblue" d="M433.347,-128.869C472.671,-117.303 542.554,-96.7489 586.191,-83.9145"/>
<polygon fill="midnightblue" stroke="midnightblue" points="587.277,-87.2432 595.884,-81.0637 585.302,-80.5276 587.277,-87.2432"/>
</g>
<!-- Node11&#45;&gt;Node3 -->
<g id="edge12" class="edge"><title>Node11&#45;&gt;Node3</title>
<path fill="none" stroke="midnightblue" d="M365.801,-61.9751C342.828,-51.7745 304.211,-34.6274 278.18,-23.0688"/>
<polygon fill="midnightblue" stroke="midnightblue" points="279.439,-19.7981 268.879,-18.9386 276.598,-26.1957 279.439,-19.7981"/>
</g>
<!-- Node11&#45;&gt;Node5 -->
<g id="edge11" class="edge"><title>Node11&#45;&gt;Node5</title>
<path fill="none" stroke="midnightblue" d="M415.592,-61.9713C449.214,-52.5648 505.062,-36.8435 562.714,-20.0513"/>
<polygon fill="midnightblue" stroke="midnightblue" points="563.736,-23.399 572.355,-17.2378 561.775,-16.6792 563.736,-23.399"/>
</g>
<!-- Node12 -->
<g id="node12" class="node"><title>Node12</title>
<polygon fill="none" stroke="#bfbfbf" points="421,-0.5 421,-19.5 477,-19.5 477,-0.5 421,-0.5"/>
<text text-anchor="middle" x="449" y="-7.5" font-family="Helvetica,sans-Serif" font-size="10.00">Rtypes.h</text>
</g>
<!-- Node11&#45;&gt;Node12 -->
<g id="edge13" class="edge"><title>Node11&#45;&gt;Node12</title>
<path fill="none" stroke="midnightblue" d="M394.17,-61.9751C404.15,-52.6966 420.312,-37.6706 432.509,-26.331"/>
<polygon fill="midnightblue" stroke="midnightblue" points="434.907,-28.8814 439.847,-19.5091 430.14,-23.7547 434.907,-28.8814"/>
</g>
<!-- Node13 -->
<g id="node13" class="node"><title>Node13</title>
<polygon fill="none" stroke="#bfbfbf" points="495.5,-0.5 495.5,-19.5 554.5,-19.5 554.5,-0.5 495.5,-0.5"/>
<text text-anchor="middle" x="525" y="-7.5" font-family="Helvetica,sans-Serif" font-size="10.00">TObject.h</text>
</g>
<!-- Node11&#45;&gt;Node13 -->
<g id="edge14" class="edge"><title>Node11&#45;&gt;Node13</title>
<path fill="none" stroke="midnightblue" d="M405.059,-61.9751C428.762,-51.9013 468.406,-35.0525 495.583,-23.5023"/>
<polygon fill="midnightblue" stroke="midnightblue" points="497.144,-26.6417 504.979,-19.5091 494.406,-20.1994 497.144,-26.6417"/>
</g>
<!-- Node14 -->
<g id="node14" class="node"><title>Node14</title>
<polygon fill="none" stroke="#bfbfbf" points="287,-0.5 287,-19.5 403,-19.5 403,-0.5 287,-0.5"/>
<text text-anchor="middle" x="345" y="-7.5" font-family="Helvetica,sans-Serif" font-size="10.00">Common/Exceptions.h</text>
</g>
<!-- Node11&#45;&gt;Node14 -->
<g id="edge15" class="edge"><title>Node11&#45;&gt;Node14</title>
<path fill="none" stroke="midnightblue" d="M379.269,-61.9751C373.328,-53.1384 363.883,-39.0886 356.412,-27.975"/>
<polygon fill="midnightblue" stroke="midnightblue" points="359.204,-25.8554 350.72,-19.5091 353.395,-29.7608 359.204,-25.8554"/>
</g>
<!-- Node16 -->
<g id="node16" class="node"><title>Node16</title>
<polygon fill="none" stroke="#bfbfbf" points="146.5,-0.5 146.5,-19.5 215.5,-19.5 215.5,-0.5 146.5,-0.5"/>
<text text-anchor="middle" x="181" y="-7.5" font-family="Helvetica,sans-Serif" font-size="10.00">TObjArray.h</text>
</g>
<!-- Node15&#45;&gt;Node16 -->
<g id="edge17" class="edge"><title>Node15&#45;&gt;Node16</title>
<path fill="none" stroke="midnightblue" d="M181,-56.3993C181,-48.4664 181,-38.458 181,-29.8583"/>
<polygon fill="midnightblue" stroke="midnightblue" points="184.5,-29.6577 181,-19.6578 177.5,-29.6578 184.5,-29.6577"/>
</g>
<!-- Node17 -->
<g id="node17" class="node"><title>Node17</title>
<polygon fill="none" stroke="#bfbfbf" points="0,-0.5 0,-19.5 128,-19.5 128,-0.5 0,-0.5"/>
<text text-anchor="middle" x="64" y="-7.5" font-family="Helvetica,sans-Serif" font-size="10.00">Mergers/MergeInterface.h</text>
</g>
<!-- Node15&#45;&gt;Node17 -->
<g id="edge18" class="edge"><title>Node15&#45;&gt;Node17</title>
<path fill="none" stroke="midnightblue" d="M153.273,-56.3993C134.168,-46.6837 108.942,-33.8551 90.1799,-24.3137"/>
<polygon fill="midnightblue" stroke="midnightblue" points="91.5247,-21.071 81.0245,-19.6578 88.3516,-27.3106 91.5247,-21.071"/>
</g>
<!-- Node18&#45;&gt;Node5 -->
<g id="edge20" class="edge"><title>Node18&#45;&gt;Node5</title>
<path fill="none" stroke="midnightblue" d="M620.415,-61.9751C615.758,-53.3152 608.408,-39.6486 602.49,-28.6453"/>
<polygon fill="midnightblue" stroke="midnightblue" points="605.395,-26.6584 597.576,-19.5091 599.23,-29.974 605.395,-26.6584"/>
</g>
<!-- Node18&#45;&gt;Node6 -->
<g id="edge21" class="edge"><title>Node18&#45;&gt;Node6</title>
<path fill="none" stroke="midnightblue" d="M635.459,-61.9751C646.951,-52.6082 665.63,-37.3839 679.587,-26.0081"/>
<polygon fill="midnightblue" stroke="midnightblue" points="682.02,-28.54 687.56,-19.5091 677.598,-23.114 682.02,-28.54"/>
</g>
<!-- Node20 -->
<g id="node20" class="node"><title>Node20</title>
<polygon fill="none" stroke="#bfbfbf" points="1466,-129 1466,-148 1510,-148 1510,-129 1466,-129"/>
<text text-anchor="middle" x="1488" y="-136" font-family="Helvetica,sans-Serif" font-size="10.00">TH1.h</text>
</g>
<!-- Node19&#45;&gt;Node20 -->
<g id="edge25" class="edge"><title>Node19&#45;&gt;Node20</title>
<path fill="none" stroke="midnightblue" d="M1328.64,-190.46C1363.08,-182.553 1414.02,-169.669 1457,-154 1458.61,-153.412 1460.25,-152.773 1461.9,-152.1"/>
<polygon fill="midnightblue" stroke="midnightblue" points="1463.43,-155.253 1471.17,-148.026 1460.61,-148.845 1463.43,-155.253"/>
</g>
<!-- Node21 -->
<g id="node21" class="node"><title>Node21</title>
<polygon fill="none" stroke="#bfbfbf" points="1136,-123.5 1136,-153.5 1278,-153.5 1278,-123.5 1136,-123.5"/>
<text text-anchor="start" x="1144" y="-141.5" font-family="Helvetica,sans-Serif" font-size="10.00">TOFReconstruction/Decoder</text>
<text text-anchor="middle" x="1207" y="-130.5" font-family="Helvetica,sans-Serif" font-size="10.00">Base.h</text>
</g>
<!-- Node19&#45;&gt;Node21 -->
<g id="edge26" class="edge"><title>Node19&#45;&gt;Node21</title>
<path fill="none" stroke="midnightblue" d="M1277.25,-190.475C1266.15,-182.417 1249.07,-170.023 1234.53,-159.474"/>
<polygon fill="midnightblue" stroke="midnightblue" points="1236.48,-156.563 1226.33,-153.523 1232.36,-162.229 1236.48,-156.563"/>
</g>
<!-- Node22 -->
<g id="node22" class="node"><title>Node22</title>
<polygon fill="none" stroke="#bfbfbf" points="1296,-123.5 1296,-153.5 1448,-153.5 1448,-123.5 1296,-123.5"/>
<text text-anchor="start" x="1304" y="-141.5" font-family="Helvetica,sans-Serif" font-size="10.00">DataFormatsTOF/Compressed</text>
<text text-anchor="middle" x="1372" y="-130.5" font-family="Helvetica,sans-Serif" font-size="10.00">DataFormat.h</text>
</g>
<!-- Node19&#45;&gt;Node22 -->
<g id="edge27" class="edge"><title>Node19&#45;&gt;Node22</title>
<path fill="none" stroke="midnightblue" d="M1300.89,-190.475C1312.13,-182.417 1329.42,-170.023 1344.14,-159.474"/>
<polygon fill="midnightblue" stroke="midnightblue" points="1346.35,-162.194 1352.44,-153.523 1342.27,-156.505 1346.35,-162.194"/>
</g>
</g>
</svg>
        <g id="navigator" transform="translate(0 0)" fill="#404254">
                <rect fill="#f2f5e9" fill-opacity="0.5" stroke="#606060" stroke-width=".5" x="0" y="0" width="60" height="60"/>
                <use id="zoomplus" xlink:href="#zoomPlus" x="17" y="9" onmousedown="handleZoom(evt,'in')"/>
                <use id="zoomminus" xlink:href="#zoomMin" x="42" y="9" onmousedown="handleZoom(evt,'out')"/>
                <use id="reset" xlink:href="#resetDef" x="30" y="36" onmousedown="handleReset()"/>
                <g id="arrowUp" xlink:href="#dirArrow" transform="translate(30 24)" onmousedown="handlePan(0,-1)">
                  <use xlink:href="#rim" fill="#404040">
                        <set attributeName="fill" to="#808080" begin="arrowUp.mouseover" end="arrowUp.mouseout"/>
                  </use>
                  <path fill="none" stroke="white" stroke-width="1.5" d="M0,-3.0v7 M-2.5,-0.5L0,-3.0L2.5,-0.5"/>
                </g>
                <g id="arrowRight" xlink:href="#dirArrow" transform="rotate(90) translate(36 -43)" onmousedown="handlePan(1,0)">
                  <use xlink:href="#rim" fill="#404040">
                        <set attributeName="fill" to="#808080" begin="arrowRight.mouseover" end="arrowRight.mouseout"/>
                  </use>
                  <path fill="none" stroke="white" stroke-width="1.5" d="M0,-3.0v7 M-2.5,-0.5L0,-3.0L2.5,-0.5"/>
                </g>
                <g id="arrowDown" xlink:href="#dirArrow" transform="rotate(180) translate(-30 -48)" onmousedown="handlePan(0,1)">
                  <use xlink:href="#rim" fill="#404040">
                        <set attributeName="fill" to="#808080" begin="arrowDown.mouseover" end="arrowDown.mouseout"/>
                  </use>
                  <path fill="none" stroke="white" stroke-width="1.5" d="M0,-3.0v7 M-2.5,-0.5L0,-3.0L2.5,-0.5"/>
                </g>
                <g id="arrowLeft" xlink:href="#dirArrow" transform="rotate(270) translate(-36 17)" onmousedown="handlePan(-1,0)">
                  <use xlink:href="#rim" fill="#404040">
                        <set attributeName="fill" to="#808080" begin="arrowLeft.mouseover" end="arrowLeft.mouseout"/>
                  </use>
                  <path fill="none" stroke="white" stroke-width="1.5" d="M0,-3.0v7 M-2.5,-0.5L0,-3.0L2.5,-0.5"/>
                </g>
        </g>
        <svg viewBox="0 0 15 15" width="100%" height="30px" preserveAspectRatio="xMaxYMin meet">
         <g id="arrow_out" transform="scale(0.3 0.3)">
          <a xlink:href="TOFTaskCompressed_8h__incl_org.svg" target="_base">
           <rect id="button" ry="5" rx="5" y="6" x="6" height="38" width="38"
                fill="#f2f5e9" fill-opacity="0.5" stroke="#606060" stroke-width="1.0"/>
           <path id="arrow"
             d="M 11.500037,31.436501 C 11.940474,20.09759 22.043105,11.32322 32.158766,21.979434 L 37.068811,17.246167 C 37.068811,17.246167 37.088388,32 37.088388,32 L 22.160133,31.978069 C 22.160133,31.978069 26.997745,27.140456 26.997745,27.140456 C 18.528582,18.264221 13.291696,25.230495 11.500037,31.436501 z"
             style="fill:#404040;"/>
          </a>
         </g>
        </svg>
</svg>
