<?xml version="1.0" encoding="UTF-8" standalone="no"?>
<!DOCTYPE svg PUBLIC "-//W3C//DTD SVG 1.1//EN"
 "http://www.w3.org/Graphics/SVG/1.1/DTD/svg11.dtd">
<!-- Generated by graphviz version 2.38.0 (20140413.2041)
 -->
<!-- Title: Modules/TOF/src/TOFTask.cxx Pages: 1 -->
<!--zoomable 319 -->
<svg id="main" version="1.1" xmlns="http://www.w3.org/2000/svg" xmlns:xlink="http://www.w3.org/1999/xlink" xml:space="preserve" onload="init(evt)">
<style type="text/css"><![CDATA[
.edge:hover path { stroke: red; }
.edge:hover polygon { stroke: red; fill: red; }
]]></style>
<script type="text/javascript"><![CDATA[
var edges = document.getElementsByTagName('g');
if (edges && edges.length) {
  for (var i=0;i<edges.length;i++) {
    if (edges[i].id.substr(0,4)=='edge') {
      edges[i].setAttribute('class','edge');
    }
  }
}
]]></script>
        <defs>
                <circle id="rim" cx="0" cy="0" r="7"/>
                <circle id="rim2" cx="0" cy="0" r="3.5"/>
                <g id="zoomPlus">
                        <use xlink:href="#rim" fill="#404040">
                                <set attributeName="fill" to="#808080" begin="zoomplus.mouseover" end="zoomplus.mouseout"/>
                        </use>
                        <path d="M-4,0h8M0,-4v8" fill="none" stroke="white" stroke-width="1.5" pointer-events="none"/>
                </g>
                <g id="zoomMin">
                        <use xlink:href="#rim" fill="#404040">
                                <set attributeName="fill" to="#808080" begin="zoomminus.mouseover" end="zoomminus.mouseout"/>
                        </use>
                        <path d="M-4,0h8" fill="none" stroke="white" stroke-width="1.5" pointer-events="none"/>
                </g>
                <g id="dirArrow">
                        <path fill="none" stroke="white" stroke-width="1.5" d="M0,-3.0v7 M-2.5,-0.5L0,-3.0L2.5,-0.5"/>
                </g>
               <g id="resetDef">
                       <use xlink:href="#rim2" fill="#404040">
                               <set attributeName="fill" to="#808080" begin="reset.mouseover" end="reset.mouseout"/>
                       </use>
               </g>
        </defs>

<script type="text/javascript">
var viewWidth = 1565;
var viewHeight = 319;
var sectionId = 'dynsection-0';
</script>
<script xlink:href="svgpan.js"/>
<svg id="graph" class="graph">
<g id="viewport">
<title>Modules/TOF/src/TOFTask.cxx</title>
<!-- Node1 -->
<g id="node1" class="node"><title>Node1</title>
<polygon fill="#bfbfbf" stroke="black" points="260,-291.5 260,-310.5 415,-310.5 415,-291.5 260,-291.5"/>
<text text-anchor="middle" x="337.5" y="-298.5" font-family="Helvetica,sans-Serif" font-size="10.00">Modules/TOF/src/TOFTask.cxx</text>
</g>
<!-- Node2 -->
<g id="node2" class="node"><title>Node2</title>
<polygon fill="none" stroke="#bfbfbf" points="0,-235.5 0,-254.5 65,-254.5 65,-235.5 0,-235.5"/>
<text text-anchor="middle" x="32.5" y="-242.5" font-family="Helvetica,sans-Serif" font-size="10.00">TCanvas.h</text>
</g>
<!-- Node1&#45;&gt;Node2 -->
<g id="edge1" class="edge"><title>Node1&#45;&gt;Node2</title>
<path fill="none" stroke="midnightblue" d="M283.737,-291.473C232.682,-283.224 153.533,-270.045 75.0908,-255.045"/>
<polygon fill="midnightblue" stroke="midnightblue" points="75.5131,-251.562 65.0321,-253.111 74.1912,-258.436 75.5131,-251.562"/>
</g>
<!-- Node3 -->
<g id="node3" class="node"><title>Node3</title>
<polygon fill="none" stroke="#bfbfbf" points="83.5,-235.5 83.5,-254.5 127.5,-254.5 127.5,-235.5 83.5,-235.5"/>
<text text-anchor="middle" x="105.5" y="-242.5" font-family="Helvetica,sans-Serif" font-size="10.00">TH1.h</text>
</g>
<!-- Node1&#45;&gt;Node3 -->
<g id="edge2" class="edge"><title>Node1&#45;&gt;Node3</title>
<path fill="none" stroke="midnightblue" d="M295.744,-291.444C257.114,-283.353 197.883,-270.501 137.838,-255.229"/>
<polygon fill="midnightblue" stroke="midnightblue" points="138.361,-251.75 127.805,-252.656 136.623,-258.53 138.361,-251.75"/>
</g>
<!-- Node4 -->
<g id="node4" class="node"><title>Node4</title>
<polygon fill="none" stroke="#bfbfbf" points="145.5,-235.5 145.5,-254.5 195.5,-254.5 195.5,-235.5 145.5,-235.5"/>
<text text-anchor="middle" x="170.5" y="-242.5" font-family="Helvetica,sans-Serif" font-size="10.00">TH1F.h</text>
</g>
<!-- Node1&#45;&gt;Node4 -->
<g id="edge3" class="edge"><title>Node1&#45;&gt;Node4</title>
<path fill="none" stroke="midnightblue" d="M311.038,-291.444C282.49,-282.212 236.902,-267.471 205.428,-257.294"/>
<polygon fill="midnightblue" stroke="midnightblue" points="206.336,-253.909 195.745,-254.163 204.183,-260.57 206.336,-253.909"/>
</g>
<!-- Node5 -->
<g id="node5" class="node"><title>Node5</title>
<polygon fill="none" stroke="#bfbfbf" points="213.5,-235.5 213.5,-254.5 263.5,-254.5 263.5,-235.5 213.5,-235.5"/>
<text text-anchor="middle" x="238.5" y="-242.5" font-family="Helvetica,sans-Serif" font-size="10.00">TH2F.h</text>
</g>
<!-- Node1&#45;&gt;Node5 -->
<g id="edge4" class="edge"><title>Node1&#45;&gt;Node5</title>
<path fill="none" stroke="midnightblue" d="M321.594,-291.324C305.862,-282.743 281.558,-269.486 263.291,-259.522"/>
<polygon fill="midnightblue" stroke="midnightblue" points="264.822,-256.37 254.367,-254.655 261.47,-262.516 264.822,-256.37"/>
</g>
<!-- Node6 -->
<g id="node6" class="node"><title>Node6</title>
<polygon fill="none" stroke="#bfbfbf" points="282,-235.5 282,-254.5 329,-254.5 329,-235.5 282,-235.5"/>
<text text-anchor="middle" x="305.5" y="-242.5" font-family="Helvetica,sans-Serif" font-size="10.00">TH1I.h</text>
</g>
<!-- Node1&#45;&gt;Node6 -->
<g id="edge5" class="edge"><title>Node1&#45;&gt;Node6</title>
<path fill="none" stroke="midnightblue" d="M332.216,-291.083C327.789,-283.613 321.337,-272.724 315.882,-263.52"/>
<polygon fill="midnightblue" stroke="midnightblue" points="318.795,-261.57 310.686,-254.751 312.773,-265.138 318.795,-261.57"/>
</g>
<!-- Node7 -->
<g id="node7" class="node"><title>Node7</title>
<polygon fill="none" stroke="#bfbfbf" points="347,-235.5 347,-254.5 394,-254.5 394,-235.5 347,-235.5"/>
<text text-anchor="middle" x="370.5" y="-242.5" font-family="Helvetica,sans-Serif" font-size="10.00">TH2I.h</text>
</g>
<!-- Node1&#45;&gt;Node7 -->
<g id="edge6" class="edge"><title>Node1&#45;&gt;Node7</title>
<path fill="none" stroke="midnightblue" d="M342.949,-291.083C347.514,-283.613 354.168,-272.724 359.793,-263.52"/>
<polygon fill="midnightblue" stroke="midnightblue" points="362.924,-265.109 365.152,-254.751 356.951,-261.459 362.924,-265.109"/>
</g>
<!-- Node8 -->
<g id="node8" class="node"><title>Node8</title>
<polygon fill="none" stroke="#bfbfbf" points="412.5,-235.5 412.5,-254.5 502.5,-254.5 502.5,-235.5 412.5,-235.5"/>
<text text-anchor="middle" x="457.5" y="-242.5" font-family="Helvetica,sans-Serif" font-size="10.00">TOFBase/Digit.h</text>
</g>
<!-- Node1&#45;&gt;Node8 -->
<g id="edge7" class="edge"><title>Node1&#45;&gt;Node8</title>
<path fill="none" stroke="midnightblue" d="M356.514,-291.444C376.088,-282.636 406.808,-268.812 429.229,-258.722"/>
<polygon fill="midnightblue" stroke="midnightblue" points="430.892,-261.812 438.575,-254.516 428.019,-255.428 430.892,-261.812"/>
</g>
<!-- Node9 -->
<g id="node9" class="node"><title>Node9</title>
<polygon fill="none" stroke="#bfbfbf" points="520.5,-235.5 520.5,-254.5 608.5,-254.5 608.5,-235.5 520.5,-235.5"/>
<text text-anchor="middle" x="564.5" y="-242.5" font-family="Helvetica,sans-Serif" font-size="10.00">TOFBase/Geo.h</text>
</g>
<!-- Node1&#45;&gt;Node9 -->
<g id="edge8" class="edge"><title>Node1&#45;&gt;Node9</title>
<path fill="none" stroke="midnightblue" d="M373.469,-291.444C412.819,-282.083 475.987,-267.056 518.814,-256.868"/>
<polygon fill="midnightblue" stroke="midnightblue" points="519.781,-260.236 528.699,-254.516 518.161,-253.426 519.781,-260.236"/>
</g>
<!-- Node10 -->
<g id="node10" class="node"><title>Node10</title>
<g id="a_node10"><a xlink:href="QcInfoLogger_8h.html" target="_top" xlink:title="QualityControl/QcInfoLogger.h">
<polygon fill="none" stroke="black" points="626,-235.5 626,-254.5 775,-254.5 775,-235.5 626,-235.5"/>
<text text-anchor="middle" x="700.5" y="-242.5" font-family="Helvetica,sans-Serif" font-size="10.00">QualityControl/QcInfoLogger.h</text>
</a>
</g>
</g>
<!-- Node1&#45;&gt;Node10 -->
<g id="edge9" class="edge"><title>Node1&#45;&gt;Node10</title>
<path fill="none" stroke="midnightblue" d="M395.018,-291.444C459.67,-281.826 564.526,-266.228 633.003,-256.041"/>
<polygon fill="midnightblue" stroke="midnightblue" points="633.875,-259.45 643.251,-254.516 632.844,-252.526 633.875,-259.45"/>
</g>
<!-- Node12 -->
<g id="node12" class="node"><title>Node12</title>
<g id="a_node12"><a xlink:href="TOFTask_8h.html" target="_top" xlink:title="TOF/TOFTask.h">
<polygon fill="none" stroke="black" points="798,-235.5 798,-254.5 887,-254.5 887,-235.5 798,-235.5"/>
<text text-anchor="middle" x="842.5" y="-242.5" font-family="Helvetica,sans-Serif" font-size="10.00">TOF/TOFTask.h</text>
</a>
</g>
</g>
<!-- Node1&#45;&gt;Node12 -->
<g id="edge11" class="edge"><title>Node1&#45;&gt;Node12</title>
<path fill="none" stroke="midnightblue" d="M415.166,-293.454C504.442,-285.633 655.297,-271.516 784.5,-255 785.587,-254.861 786.684,-254.718 787.79,-254.571"/>
<polygon fill="midnightblue" stroke="midnightblue" points="788.462,-258.012 797.886,-253.17 787.5,-251.078 788.462,-258.012"/>
</g>
<!-- Node11 -->
<g id="node11" class="node"><title>Node11</title>
<polygon fill="none" stroke="#bfbfbf" points="629.5,-179.5 629.5,-198.5 759.5,-198.5 759.5,-179.5 629.5,-179.5"/>
<text text-anchor="middle" x="694.5" y="-186.5" font-family="Helvetica,sans-Serif" font-size="10.00">InfoLogger/InfoLogger.hxx</text>
</g>
<!-- Node10&#45;&gt;Node11 -->
<g id="edge10" class="edge"><title>Node10&#45;&gt;Node11</title>
<path fill="none" stroke="midnightblue" d="M699.509,-235.083C698.714,-227.927 697.571,-217.635 696.577,-208.691"/>
<polygon fill="midnightblue" stroke="midnightblue" points="700.055,-208.303 695.472,-198.751 693.098,-209.076 700.055,-208.303"/>
</g>
<!-- Node13 -->
<g id="node13" class="node"><title>Node13</title>
<g id="a_node13"><a xlink:href="TaskInterface_8h.html" target="_top" xlink:title="QualityControl/TaskInterface.h">
<polygon fill="none" stroke="black" points="777.5,-179.5 777.5,-198.5 927.5,-198.5 927.5,-179.5 777.5,-179.5"/>
<text text-anchor="middle" x="852.5" y="-186.5" font-family="Helvetica,sans-Serif" font-size="10.00">QualityControl/TaskInterface.h</text>
</a>
</g>
</g>
<!-- Node12&#45;&gt;Node13 -->
<g id="edge12" class="edge"><title>Node12&#45;&gt;Node13</title>
<path fill="none" stroke="midnightblue" d="M844.151,-235.083C845.476,-227.927 847.382,-217.635 849.039,-208.691"/>
<polygon fill="midnightblue" stroke="midnightblue" points="852.5,-209.221 850.879,-198.751 845.617,-207.947 852.5,-209.221"/>
</g>
<!-- Node14 -->
<g id="node14" class="node"><title>Node14</title>
<polygon fill="none" stroke="#bfbfbf" points="877,-0.5 877,-19.5 912,-19.5 912,-0.5 877,-0.5"/>
<text text-anchor="middle" x="894.5" y="-7.5" font-family="Helvetica,sans-Serif" font-size="10.00">map</text>
</g>
<!-- Node13&#45;&gt;Node14 -->
<g id="edge13" class="edge"><title>Node13&#45;&gt;Node14</title>
<path fill="none" stroke="midnightblue" d="M809.433,-179.486C789.104,-173.074 766.677,-161.991 754.5,-143 733.629,-110.45 731.723,-87.246 754.5,-56 780.037,-20.9681 833.292,-12.611 866.259,-10.9548"/>
<polygon fill="midnightblue" stroke="midnightblue" points="866.71,-14.4422 876.592,-10.6212 866.484,-7.4458 866.71,-14.4422"/>
</g>
<!-- Node15 -->
<g id="node15" class="node"><title>Node15</title>
<polygon fill="none" stroke="#bfbfbf" points="807.5,-62 807.5,-81 859.5,-81 859.5,-62 807.5,-62"/>
<text text-anchor="middle" x="833.5" y="-69" font-family="Helvetica,sans-Serif" font-size="10.00">memory</text>
</g>
<!-- Node13&#45;&gt;Node15 -->
<g id="edge14" class="edge"><title>Node13&#45;&gt;Node15</title>
<path fill="none" stroke="midnightblue" d="M845.61,-179.319C839.231,-170.684 830.192,-156.77 826.5,-143 821.88,-125.77 824.742,-105.435 828.09,-91.0438"/>
<polygon fill="midnightblue" stroke="midnightblue" points="831.482,-91.9073 830.63,-81.3467 824.711,-90.1336 831.482,-91.9073"/>
</g>
<!-- Node16 -->
<g id="node16" class="node"><title>Node16</title>
<polygon fill="none" stroke="#bfbfbf" points="962,-0.5 962,-19.5 1003,-19.5 1003,-0.5 962,-0.5"/>
<text text-anchor="middle" x="982.5" y="-7.5" font-family="Helvetica,sans-Serif" font-size="10.00">string</text>
</g>
<!-- Node13&#45;&gt;Node16 -->
<g id="edge15" class="edge"><title>Node13&#45;&gt;Node16</title>
<path fill="none" stroke="midnightblue" d="M843.521,-179.452C821.164,-157.146 767.008,-96.1226 798.5,-56 808.002,-43.8943 901.983,-25.4328 951.822,-16.3824"/>
<polygon fill="midnightblue" stroke="midnightblue" points="952.517,-19.8136 961.74,-14.5997 951.279,-12.924 952.517,-19.8136"/>
</g>
<!-- Node17 -->
<g id="node17" class="node"><title>Node17</title>
<polygon fill="none" stroke="#bfbfbf" points="712,-0.5 712,-19.5 795,-19.5 795,-0.5 712,-0.5"/>
<text text-anchor="middle" x="753.5" y="-7.5" font-family="Helvetica,sans-Serif" font-size="10.00">unordered_map</text>
</g>
<!-- Node13&#45;&gt;Node17 -->
<g id="edge16" class="edge"><title>Node13&#45;&gt;Node17</title>
<path fill="none" stroke="midnightblue" d="M798.716,-179.422C776.838,-173.088 753.463,-162.088 739.5,-143 714.647,-109.025 732.388,-56.3295 744.593,-28.9266"/>
<polygon fill="midnightblue" stroke="midnightblue" points="747.817,-30.2939 748.899,-19.7543 741.481,-27.3191 747.817,-30.2939"/>
</g>
<!-- Node18 -->
<g id="node18" class="node"><title>Node18</title>
<polygon fill="none" stroke="#bfbfbf" points="835,-123.5 835,-142.5 960,-142.5 960,-123.5 835,-123.5"/>
<text text-anchor="middle" x="897.5" y="-130.5" font-family="Helvetica,sans-Serif" font-size="10.00">Framework/InitContext.h</text>
</g>
<!-- Node13&#45;&gt;Node18 -->
<g id="edge17" class="edge"><title>Node13&#45;&gt;Node18</title>
<path fill="none" stroke="midnightblue" d="M859.931,-179.083C866.353,-171.377 875.806,-160.033 883.622,-150.653"/>
<polygon fill="midnightblue" stroke="midnightblue" points="886.494,-152.674 890.207,-142.751 881.117,-148.193 886.494,-152.674"/>
</g>
<!-- Node19 -->
<g id="node19" class="node"><title>Node19</title>
<polygon fill="none" stroke="#bfbfbf" points="978.5,-123.5 978.5,-142.5 1138.5,-142.5 1138.5,-123.5 978.5,-123.5"/>
<text text-anchor="middle" x="1058.5" y="-130.5" font-family="Helvetica,sans-Serif" font-size="10.00">Framework/ProcessingContext.h</text>
</g>
<!-- Node13&#45;&gt;Node19 -->
<g id="edge18" class="edge"><title>Node13&#45;&gt;Node19</title>
<path fill="none" stroke="midnightblue" d="M885.141,-179.444C920.55,-170.162 977.209,-155.309 1016.05,-145.127"/>
<polygon fill="midnightblue" stroke="midnightblue" points="1017.23,-148.438 1026.01,-142.516 1015.45,-141.667 1017.23,-148.438"/>
</g>
<!-- Node20 -->
<g id="node20" class="node"><title>Node20</title>
<g id="a_node20"><a xlink:href="Activity_8h.html" target="_top" xlink:title="QualityControl/Activity.h">
<polygon fill="none" stroke="black" points="1157,-123.5 1157,-142.5 1280,-142.5 1280,-123.5 1157,-123.5"/>
<text text-anchor="middle" x="1218.5" y="-130.5" font-family="Helvetica,sans-Serif" font-size="10.00">QualityControl/Activity.h</text>
</a>
</g>
</g>
<!-- Node13&#45;&gt;Node20 -->
<g id="edge19" class="edge"><title>Node13&#45;&gt;Node20</title>
<path fill="none" stroke="midnightblue" d="M910.494,-179.444C975.814,-169.806 1081.84,-154.163 1150.87,-143.978"/>
<polygon fill="midnightblue" stroke="midnightblue" points="1151.4,-147.439 1160.78,-142.516 1150.37,-140.514 1151.4,-147.439"/>
</g>
<!-- Node21 -->
<g id="node21" class="node"><title>Node21</title>
<g id="a_node21"><a xlink:href="ObjectsManager_8h.html" target="_top" xlink:title="QualityControl/ObjectsManager.h">
<polygon fill="none" stroke="black" points="1298,-123.5 1298,-142.5 1459,-142.5 1459,-123.5 1298,-123.5"/>
<text text-anchor="middle" x="1378.5" y="-130.5" font-family="Helvetica,sans-Serif" font-size="10.00">QualityControl/ObjectsManager.h</text>
</a>
</g>
</g>
<!-- Node13&#45;&gt;Node21 -->
<g id="edge20" class="edge"><title>Node13&#45;&gt;Node21</title>
<path fill="none" stroke="midnightblue" d="M927.583,-180.292C1022.49,-170.548 1185.75,-153.788 1287.61,-143.331"/>
<polygon fill="midnightblue" stroke="midnightblue" points="1287.98,-146.811 1297.57,-142.308 1287.27,-139.848 1287.98,-146.811"/>
</g>
<!-- Node21&#45;&gt;Node15 -->
<g id="edge34" class="edge"><title>Node21&#45;&gt;Node15</title>
<path fill="none" stroke="midnightblue" d="M1297.97,-123.805C1295.11,-123.531 1292.28,-123.261 1289.5,-123 1105.17,-105.686 1055.44,-126.178 874.5,-87 871.076,-86.2586 867.545,-85.3094 864.06,-84.2523"/>
<polygon fill="midnightblue" stroke="midnightblue" points="865.077,-80.902 854.483,-81.0698 862.869,-87.5448 865.077,-80.902"/>
</g>
<!-- Node21&#45;&gt;Node16 -->
<g id="edge33" class="edge"><title>Node21&#45;&gt;Node16</title>
<path fill="none" stroke="midnightblue" d="M1305.64,-123.471C1221.64,-113.301 1092.41,-96.4916 1071.5,-87 1063.23,-83.2434 1023.05,-47.6194 999.601,-26.5039"/>
<polygon fill="midnightblue" stroke="midnightblue" points="1001.85,-23.8209 992.085,-19.7162 997.161,-29.016 1001.85,-23.8209"/>
</g>
<!-- Node22 -->
<g id="node22" class="node"><title>Node22</title>
<g id="a_node22"><a xlink:href="MonitorObject_8h.html" target="_top" xlink:title="QualityControl/MonitorObject.h">
<polygon fill="none" stroke="black" points="1080,-62 1080,-81 1231,-81 1231,-62 1080,-62"/>
<text text-anchor="middle" x="1155.5" y="-69" font-family="Helvetica,sans-Serif" font-size="10.00">QualityControl/MonitorObject.h</text>
</a>
</g>
</g>
<!-- Node21&#45;&gt;Node22 -->
<g id="edge21" class="edge"><title>Node21&#45;&gt;Node22</title>
<path fill="none" stroke="midnightblue" d="M1346.55,-123.475C1307.3,-113.004 1240.62,-95.2118 1197.33,-83.6601"/>
<polygon fill="midnightblue" stroke="midnightblue" points="1197.96,-80.2054 1187.39,-81.0091 1196.15,-86.9688 1197.96,-80.2054"/>
</g>
<!-- Node26 -->
<g id="node26" class="node"><title>Node26</title>
<g id="a_node26"><a xlink:href="MonitorObjectCollection_8h.html" target="_top" xlink:title="QualityControl/MonitorObject\lCollection.h">
<polygon fill="none" stroke="black" points="1307,-56.5 1307,-86.5 1450,-86.5 1450,-56.5 1307,-56.5"/>
<text text-anchor="start" x="1315" y="-74.5" font-family="Helvetica,sans-Serif" font-size="10.00">QualityControl/MonitorObject</text>
<text text-anchor="middle" x="1378.5" y="-63.5" font-family="Helvetica,sans-Serif" font-size="10.00">Collection.h</text>
</a>
</g>
</g>
<!-- Node21&#45;&gt;Node26 -->
<g id="edge27" class="edge"><title>Node21&#45;&gt;Node26</title>
<path fill="none" stroke="midnightblue" d="M1378.5,-123.475C1378.5,-116.471 1378.5,-106.192 1378.5,-96.6956"/>
<polygon fill="midnightblue" stroke="midnightblue" points="1382,-96.5229 1378.5,-86.523 1375,-96.523 1382,-96.5229"/>
</g>
<!-- Node29 -->
<g id="node29" class="node"><title>Node29</title>
<g id="a_node29"><a xlink:href="TaskConfig_8h.html" target="_top" xlink:title="QualityControl/TaskConfig.h">
<polygon fill="none" stroke="black" points="883.5,-62 883.5,-81 1023.5,-81 1023.5,-62 883.5,-62"/>
<text text-anchor="middle" x="953.5" y="-69" font-family="Helvetica,sans-Serif" font-size="10.00">QualityControl/TaskConfig.h</text>
</a>
</g>
</g>
<!-- Node21&#45;&gt;Node29 -->
<g id="edge30" class="edge"><title>Node21&#45;&gt;Node29</title>
<path fill="none" stroke="midnightblue" d="M1307.52,-123.467C1238.47,-114.969 1130.63,-101.177 1037.5,-87 1028.89,-85.6893 1019.8,-84.2149 1010.9,-82.7213"/>
<polygon fill="midnightblue" stroke="midnightblue" points="1011.42,-79.2598 1000.98,-81.0346 1010.25,-86.1608 1011.42,-79.2598"/>
</g>
<!-- Node22&#45;&gt;Node14 -->
<g id="edge23" class="edge"><title>Node22&#45;&gt;Node14</title>
<path fill="none" stroke="midnightblue" d="M1118.11,-61.9751C1065.03,-49.8761 969.091,-28.0045 922.034,-17.277"/>
<polygon fill="midnightblue" stroke="midnightblue" points="922.764,-13.8536 912.236,-15.0433 921.208,-20.6785 922.764,-13.8536"/>
</g>
<!-- Node22&#45;&gt;Node16 -->
<g id="edge22" class="edge"><title>Node22&#45;&gt;Node16</title>
<path fill="none" stroke="midnightblue" d="M1130.71,-61.9751C1099.64,-51.2877 1046.39,-32.975 1012.89,-21.4536"/>
<polygon fill="midnightblue" stroke="midnightblue" points="1013.77,-18.0547 1003.18,-18.112 1011.5,-24.6741 1013.77,-18.0547"/>
</g>
<!-- Node23 -->
<g id="node23" class="node"><title>Node23</title>
<polygon fill="none" stroke="#bfbfbf" points="1051.5,-0.5 1051.5,-19.5 1107.5,-19.5 1107.5,-0.5 1051.5,-0.5"/>
<text text-anchor="middle" x="1079.5" y="-7.5" font-family="Helvetica,sans-Serif" font-size="10.00">Rtypes.h</text>
</g>
<!-- Node22&#45;&gt;Node23 -->
<g id="edge24" class="edge"><title>Node22&#45;&gt;Node23</title>
<path fill="none" stroke="midnightblue" d="M1144.61,-61.9751C1132.53,-52.5199 1112.83,-37.0961 1098.26,-25.6871"/>
<polygon fill="midnightblue" stroke="midnightblue" points="1100.4,-22.9177 1090.37,-19.5091 1096.09,-28.4295 1100.4,-22.9177"/>
</g>
<!-- Node24 -->
<g id="node24" class="node"><title>Node24</title>
<polygon fill="none" stroke="#bfbfbf" points="1126,-0.5 1126,-19.5 1185,-19.5 1185,-0.5 1126,-0.5"/>
<text text-anchor="middle" x="1155.5" y="-7.5" font-family="Helvetica,sans-Serif" font-size="10.00">TObject.h</text>
</g>
<!-- Node22&#45;&gt;Node24 -->
<g id="edge25" class="edge"><title>Node22&#45;&gt;Node24</title>
<path fill="none" stroke="midnightblue" d="M1155.5,-61.9751C1155.5,-53.5803 1155.5,-40.4806 1155.5,-29.6631"/>
<polygon fill="midnightblue" stroke="midnightblue" points="1159,-29.5091 1155.5,-19.5091 1152,-29.5091 1159,-29.5091"/>
</g>
<!-- Node25 -->
<g id="node25" class="node"><title>Node25</title>
<polygon fill="none" stroke="#bfbfbf" points="1203.5,-0.5 1203.5,-19.5 1319.5,-19.5 1319.5,-0.5 1203.5,-0.5"/>
<text text-anchor="middle" x="1261.5" y="-7.5" font-family="Helvetica,sans-Serif" font-size="10.00">Common/Exceptions.h</text>
</g>
<!-- Node22&#45;&gt;Node25 -->
<g id="edge26" class="edge"><title>Node22&#45;&gt;Node25</title>
<path fill="none" stroke="midnightblue" d="M1170.69,-61.9751C1188.16,-52.1664 1217.08,-35.9346 1237.58,-24.425"/>
<polygon fill="midnightblue" stroke="midnightblue" points="1239.33,-27.456 1246.34,-19.5091 1235.91,-21.3519 1239.33,-27.456"/>
</g>
<!-- Node27 -->
<g id="node27" class="node"><title>Node27</title>
<polygon fill="none" stroke="#bfbfbf" points="1341,-0.5 1341,-19.5 1410,-19.5 1410,-0.5 1341,-0.5"/>
<text text-anchor="middle" x="1375.5" y="-7.5" font-family="Helvetica,sans-Serif" font-size="10.00">TObjArray.h</text>
</g>
<!-- Node26&#45;&gt;Node27 -->
<g id="edge28" class="edge"><title>Node26&#45;&gt;Node27</title>
<path fill="none" stroke="midnightblue" d="M1377.79,-56.3993C1377.39,-48.4664 1376.88,-38.458 1376.45,-29.8583"/>
<polygon fill="midnightblue" stroke="midnightblue" points="1379.94,-29.4688 1375.94,-19.6578 1372.94,-29.8214 1379.94,-29.4688"/>
</g>
<!-- Node28 -->
<g id="node28" class="node"><title>Node28</title>
<polygon fill="none" stroke="#bfbfbf" points="1428.5,-0.5 1428.5,-19.5 1556.5,-19.5 1556.5,-0.5 1428.5,-0.5"/>
<text text-anchor="middle" x="1492.5" y="-7.5" font-family="Helvetica,sans-Serif" font-size="10.00">Mergers/MergeInterface.h</text>
</g>
<!-- Node26&#45;&gt;Node28 -->
<g id="edge29" class="edge"><title>Node26&#45;&gt;Node28</title>
<path fill="none" stroke="midnightblue" d="M1405.52,-56.3993C1424.13,-46.6837 1448.71,-33.8551 1466.99,-24.3137"/>
<polygon fill="midnightblue" stroke="midnightblue" points="1468.67,-27.3876 1475.91,-19.6578 1465.43,-21.182 1468.67,-27.3876"/>
</g>
<!-- Node29&#45;&gt;Node16 -->
<g id="edge31" class="edge"><title>Node29&#45;&gt;Node16</title>
<path fill="none" stroke="midnightblue" d="M957.655,-61.9751C961.876,-53.3152 968.537,-39.6486 973.9,-28.6453"/>
<polygon fill="midnightblue" stroke="midnightblue" points="977.118,-30.0317 978.353,-19.5091 970.825,-26.9648 977.118,-30.0317"/>
</g>
<!-- Node29&#45;&gt;Node17 -->
<g id="edge32" class="edge"><title>Node29&#45;&gt;Node17</title>
<path fill="none" stroke="midnightblue" d="M924.845,-61.9751C889.944,-51.592 830.85,-34.0116 792,-22.4538"/>
<polygon fill="midnightblue" stroke="midnightblue" points="792.685,-19.0059 782.102,-19.5091 790.689,-25.7153 792.685,-19.0059"/>
</g>
</g>
</svg>
        <g id="navigator" transform="translate(0 0)" fill="#404254">
                <rect fill="#f2f5e9" fill-opacity="0.5" stroke="#606060" stroke-width=".5" x="0" y="0" width="60" height="60"/>
                <use id="zoomplus" xlink:href="#zoomPlus" x="17" y="9" onmousedown="handleZoom(evt,'in')"/>
                <use id="zoomminus" xlink:href="#zoomMin" x="42" y="9" onmousedown="handleZoom(evt,'out')"/>
                <use id="reset" xlink:href="#resetDef" x="30" y="36" onmousedown="handleReset()"/>
                <g id="arrowUp" xlink:href="#dirArrow" transform="translate(30 24)" onmousedown="handlePan(0,-1)">
                  <use xlink:href="#rim" fill="#404040">
                        <set attributeName="fill" to="#808080" begin="arrowUp.mouseover" end="arrowUp.mouseout"/>
                  </use>
                  <path fill="none" stroke="white" stroke-width="1.5" d="M0,-3.0v7 M-2.5,-0.5L0,-3.0L2.5,-0.5"/>
                </g>
                <g id="arrowRight" xlink:href="#dirArrow" transform="rotate(90) translate(36 -43)" onmousedown="handlePan(1,0)">
                  <use xlink:href="#rim" fill="#404040">
                        <set attributeName="fill" to="#808080" begin="arrowRight.mouseover" end="arrowRight.mouseout"/>
                  </use>
                  <path fill="none" stroke="white" stroke-width="1.5" d="M0,-3.0v7 M-2.5,-0.5L0,-3.0L2.5,-0.5"/>
                </g>
                <g id="arrowDown" xlink:href="#dirArrow" transform="rotate(180) translate(-30 -48)" onmousedown="handlePan(0,1)">
                  <use xlink:href="#rim" fill="#404040">
                        <set attributeName="fill" to="#808080" begin="arrowDown.mouseover" end="arrowDown.mouseout"/>
                  </use>
                  <path fill="none" stroke="white" stroke-width="1.5" d="M0,-3.0v7 M-2.5,-0.5L0,-3.0L2.5,-0.5"/>
                </g>
                <g id="arrowLeft" xlink:href="#dirArrow" transform="rotate(270) translate(-36 17)" onmousedown="handlePan(-1,0)">
                  <use xlink:href="#rim" fill="#404040">
                        <set attributeName="fill" to="#808080" begin="arrowLeft.mouseover" end="arrowLeft.mouseout"/>
                  </use>
                  <path fill="none" stroke="white" stroke-width="1.5" d="M0,-3.0v7 M-2.5,-0.5L0,-3.0L2.5,-0.5"/>
                </g>
        </g>
        <svg viewBox="0 0 15 15" width="100%" height="30px" preserveAspectRatio="xMaxYMin meet">
         <g id="arrow_out" transform="scale(0.3 0.3)">
          <a xlink:href="TOFTask_8cxx__incl_org.svg" target="_base">
           <rect id="button" ry="5" rx="5" y="6" x="6" height="38" width="38"
                fill="#f2f5e9" fill-opacity="0.5" stroke="#606060" stroke-width="1.0"/>
           <path id="arrow"
             d="M 11.500037,31.436501 C 11.940474,20.09759 22.043105,11.32322 32.158766,21.979434 L 37.068811,17.246167 C 37.068811,17.246167 37.088388,32 37.088388,32 L 22.160133,31.978069 C 22.160133,31.978069 26.997745,27.140456 26.997745,27.140456 C 18.528582,18.264221 13.291696,25.230495 11.500037,31.436501 z"
             style="fill:#404040;"/>
          </a>
         </g>
        </svg>
</svg>
