<?xml version="1.0" encoding="UTF-8" standalone="no"?>
<!DOCTYPE svg PUBLIC "-//W3C//DTD SVG 1.1//EN"
 "http://www.w3.org/Graphics/SVG/1.1/DTD/svg11.dtd">
<!-- Generated by graphviz version 2.38.0 (20140413.2041)
 -->
<!-- Title: Modules/TPC/include/TPC/Tracks.h Pages: 1 -->
<svg width="898pt" height="274pt"
 viewBox="0.00 0.00 897.50 274.00" xmlns="http://www.w3.org/2000/svg" xmlns:xlink="http://www.w3.org/1999/xlink">
<g id="graph0" class="graph" transform="scale(1 1) rotate(0) translate(4 270)">
<title>Modules/TPC/include/TPC/Tracks.h</title>
<!-- Node1 -->
<g id="node1" class="node"><title>Node1</title>
<polygon fill="#bfbfbf" stroke="black" points="60.5,-235.5 60.5,-265.5 170.5,-265.5 170.5,-235.5 60.5,-235.5"/>
<text text-anchor="start" x="68.5" y="-253.5" font-family="Helvetica,sans-Serif" font-size="10.00">Modules/TPC/include</text>
<text text-anchor="middle" x="115.5" y="-242.5" font-family="Helvetica,sans-Serif" font-size="10.00">/TPC/Tracks.h</text>
</g>
<!-- Node2 -->
<g id="node2" class="node"><title>Node2</title>
<polygon fill="none" stroke="#bfbfbf" points="0,-179.5 0,-198.5 93,-198.5 93,-179.5 0,-179.5"/>
<text text-anchor="middle" x="46.5" y="-186.5" font-family="Helvetica,sans-Serif" font-size="10.00">TPCQC/Tracks.h</text>
</g>
<!-- Node1&#45;&gt;Node2 -->
<g id="edge1" class="edge"><title>Node1&#45;&gt;Node2</title>
<path fill="none" stroke="midnightblue" d="M99.148,-235.399C88.6046,-226.308 74.9001,-214.49 64.1164,-205.191"/>
<polygon fill="midnightblue" stroke="midnightblue" points="66.399,-202.538 56.5401,-198.658 61.8276,-207.839 66.399,-202.538"/>
</g>
<!-- Node3 -->
<g id="node3" class="node"><title>Node3</title>
<g id="a_node3"><a xlink:href="TaskInterface_8h.html" target="_top" xlink:title="QualityControl/TaskInterface.h">
<polygon fill="none" stroke="black" points="110.5,-179.5 110.5,-198.5 260.5,-198.5 260.5,-179.5 110.5,-179.5"/>
<text text-anchor="middle" x="185.5" y="-186.5" font-family="Helvetica,sans-Serif" font-size="10.00">QualityControl/TaskInterface.h</text>
</a>
</g>
</g>
<!-- Node1&#45;&gt;Node3 -->
<g id="edge2" class="edge"><title>Node1&#45;&gt;Node3</title>
<path fill="none" stroke="midnightblue" d="M132.089,-235.399C142.785,-226.308 156.688,-214.49 167.628,-205.191"/>
<polygon fill="midnightblue" stroke="midnightblue" points="169.962,-207.801 175.314,-198.658 165.428,-202.468 169.962,-207.801"/>
</g>
<!-- Node4 -->
<g id="node4" class="node"><title>Node4</title>
<polygon fill="none" stroke="#bfbfbf" points="210,-0.5 210,-19.5 245,-19.5 245,-0.5 210,-0.5"/>
<text text-anchor="middle" x="227.5" y="-7.5" font-family="Helvetica,sans-Serif" font-size="10.00">map</text>
</g>
<!-- Node3&#45;&gt;Node4 -->
<g id="edge3" class="edge"><title>Node3&#45;&gt;Node4</title>
<path fill="none" stroke="midnightblue" d="M142.433,-179.486C122.104,-173.074 99.6772,-161.991 87.5,-143 66.6288,-110.45 64.7229,-87.246 87.5,-56 113.037,-20.9681 166.292,-12.611 199.259,-10.9548"/>
<polygon fill="midnightblue" stroke="midnightblue" points="199.71,-14.4422 209.592,-10.6212 199.484,-7.4458 199.71,-14.4422"/>
</g>
<!-- Node5 -->
<g id="node5" class="node"><title>Node5</title>
<polygon fill="none" stroke="#bfbfbf" points="140.5,-62 140.5,-81 192.5,-81 192.5,-62 140.5,-62"/>
<text text-anchor="middle" x="166.5" y="-69" font-family="Helvetica,sans-Serif" font-size="10.00">memory</text>
</g>
<!-- Node3&#45;&gt;Node5 -->
<g id="edge4" class="edge"><title>Node3&#45;&gt;Node5</title>
<path fill="none" stroke="midnightblue" d="M178.349,-179.364C171.727,-170.763 162.343,-156.873 158.5,-143 153.731,-125.783 156.933,-105.447 160.605,-91.0511"/>
<polygon fill="midnightblue" stroke="midnightblue" points="163.995,-91.9279 163.381,-81.3508 157.265,-90.0022 163.995,-91.9279"/>
</g>
<!-- Node6 -->
<g id="node6" class="node"><title>Node6</title>
<polygon fill="none" stroke="#bfbfbf" points="295,-0.5 295,-19.5 336,-19.5 336,-0.5 295,-0.5"/>
<text text-anchor="middle" x="315.5" y="-7.5" font-family="Helvetica,sans-Serif" font-size="10.00">string</text>
</g>
<!-- Node3&#45;&gt;Node6 -->
<g id="edge5" class="edge"><title>Node3&#45;&gt;Node6</title>
<path fill="none" stroke="midnightblue" d="M176.521,-179.452C154.164,-157.146 100.008,-96.1226 131.5,-56 141.002,-43.8943 234.983,-25.4328 284.822,-16.3824"/>
<polygon fill="midnightblue" stroke="midnightblue" points="285.517,-19.8136 294.74,-14.5997 284.279,-12.924 285.517,-19.8136"/>
</g>
<!-- Node7 -->
<g id="node7" class="node"><title>Node7</title>
<polygon fill="none" stroke="#bfbfbf" points="45,-0.5 45,-19.5 128,-19.5 128,-0.5 45,-0.5"/>
<text text-anchor="middle" x="86.5" y="-7.5" font-family="Helvetica,sans-Serif" font-size="10.00">unordered_map</text>
</g>
<!-- Node3&#45;&gt;Node7 -->
<g id="edge6" class="edge"><title>Node3&#45;&gt;Node7</title>
<path fill="none" stroke="midnightblue" d="M132.761,-179.473C110.908,-173.143 87.4512,-162.133 73.5,-143 48.7178,-109.013 65.92,-56.3226 77.8095,-28.9237"/>
<polygon fill="midnightblue" stroke="midnightblue" points="81.0277,-30.3022 82.0076,-19.7528 74.6629,-27.3886 81.0277,-30.3022"/>
</g>
<!-- Node8 -->
<g id="node8" class="node"><title>Node8</title>
<polygon fill="none" stroke="#bfbfbf" points="168,-123.5 168,-142.5 293,-142.5 293,-123.5 168,-123.5"/>
<text text-anchor="middle" x="230.5" y="-130.5" font-family="Helvetica,sans-Serif" font-size="10.00">Framework/InitContext.h</text>
</g>
<!-- Node3&#45;&gt;Node8 -->
<g id="edge7" class="edge"><title>Node3&#45;&gt;Node8</title>
<path fill="none" stroke="midnightblue" d="M192.931,-179.083C199.353,-171.377 208.806,-160.033 216.622,-150.653"/>
<polygon fill="midnightblue" stroke="midnightblue" points="219.494,-152.674 223.207,-142.751 214.117,-148.193 219.494,-152.674"/>
</g>
<!-- Node9 -->
<g id="node9" class="node"><title>Node9</title>
<polygon fill="none" stroke="#bfbfbf" points="311.5,-123.5 311.5,-142.5 471.5,-142.5 471.5,-123.5 311.5,-123.5"/>
<text text-anchor="middle" x="391.5" y="-130.5" font-family="Helvetica,sans-Serif" font-size="10.00">Framework/ProcessingContext.h</text>
</g>
<!-- Node3&#45;&gt;Node9 -->
<g id="edge8" class="edge"><title>Node3&#45;&gt;Node9</title>
<path fill="none" stroke="midnightblue" d="M218.141,-179.444C253.55,-170.162 310.209,-155.309 349.053,-145.127"/>
<polygon fill="midnightblue" stroke="midnightblue" points="350.226,-148.438 359.011,-142.516 348.451,-141.667 350.226,-148.438"/>
</g>
<!-- Node10 -->
<g id="node10" class="node"><title>Node10</title>
<g id="a_node10"><a xlink:href="Activity_8h.html" target="_top" xlink:title="QualityControl/Activity.h">
<polygon fill="none" stroke="black" points="490,-123.5 490,-142.5 613,-142.5 613,-123.5 490,-123.5"/>
<text text-anchor="middle" x="551.5" y="-130.5" font-family="Helvetica,sans-Serif" font-size="10.00">QualityControl/Activity.h</text>
</a>
</g>
</g>
<!-- Node3&#45;&gt;Node10 -->
<g id="edge9" class="edge"><title>Node3&#45;&gt;Node10</title>
<path fill="none" stroke="midnightblue" d="M243.494,-179.444C308.814,-169.806 414.837,-154.163 483.87,-143.978"/>
<polygon fill="midnightblue" stroke="midnightblue" points="484.396,-147.439 493.778,-142.516 483.374,-140.514 484.396,-147.439"/>
</g>
<!-- Node11 -->
<g id="node11" class="node"><title>Node11</title>
<g id="a_node11"><a xlink:href="ObjectsManager_8h.html" target="_top" xlink:title="QualityControl/ObjectsManager.h">
<polygon fill="none" stroke="black" points="631,-123.5 631,-142.5 792,-142.5 792,-123.5 631,-123.5"/>
<text text-anchor="middle" x="711.5" y="-130.5" font-family="Helvetica,sans-Serif" font-size="10.00">QualityControl/ObjectsManager.h</text>
</a>
</g>
</g>
<!-- Node3&#45;&gt;Node11 -->
<g id="edge10" class="edge"><title>Node3&#45;&gt;Node11</title>
<path fill="none" stroke="midnightblue" d="M260.583,-180.292C355.494,-170.548 518.749,-153.788 620.605,-143.331"/>
<polygon fill="midnightblue" stroke="midnightblue" points="620.981,-146.811 630.572,-142.308 620.266,-139.848 620.981,-146.811"/>
</g>
<!-- Node11&#45;&gt;Node5 -->
<g id="edge24" class="edge"><title>Node11&#45;&gt;Node5</title>
<path fill="none" stroke="midnightblue" d="M630.975,-123.805C628.115,-123.531 625.283,-123.261 622.5,-123 438.174,-105.686 388.444,-126.178 207.5,-87 204.076,-86.2586 200.545,-85.3094 197.06,-84.2523"/>
<polygon fill="midnightblue" stroke="midnightblue" points="198.077,-80.902 187.483,-81.0698 195.869,-87.5448 198.077,-80.902"/>
</g>
<!-- Node11&#45;&gt;Node6 -->
<g id="edge23" class="edge"><title>Node11&#45;&gt;Node6</title>
<path fill="none" stroke="midnightblue" d="M638.391,-123.499C554.116,-113.357 424.45,-96.5756 403.5,-87 399.356,-85.1057 357.269,-48.0657 332.832,-26.4071"/>
<polygon fill="midnightblue" stroke="midnightblue" points="335.104,-23.7443 325.302,-19.7247 330.458,-28.98 335.104,-23.7443"/>
</g>
<!-- Node12 -->
<g id="node12" class="node"><title>Node12</title>
<g id="a_node12"><a xlink:href="MonitorObject_8h.html" target="_top" xlink:title="QualityControl/MonitorObject.h">
<polygon fill="none" stroke="black" points="413,-62 413,-81 564,-81 564,-62 413,-62"/>
<text text-anchor="middle" x="488.5" y="-69" font-family="Helvetica,sans-Serif" font-size="10.00">QualityControl/MonitorObject.h</text>
</a>
</g>
</g>
<!-- Node11&#45;&gt;Node12 -->
<g id="edge11" class="edge"><title>Node11&#45;&gt;Node12</title>
<path fill="none" stroke="midnightblue" d="M679.55,-123.475C640.304,-113.004 573.622,-95.2118 530.327,-83.6601"/>
<polygon fill="midnightblue" stroke="midnightblue" points="530.956,-80.2054 520.391,-81.0091 529.151,-86.9688 530.956,-80.2054"/>
</g>
<!-- Node16 -->
<g id="node16" class="node"><title>Node16</title>
<g id="a_node16"><a xlink:href="MonitorObjectCollection_8h.html" target="_top" xlink:title="QualityControl/MonitorObject\lCollection.h">
<polygon fill="none" stroke="black" points="640,-56.5 640,-86.5 783,-86.5 783,-56.5 640,-56.5"/>
<text text-anchor="start" x="648" y="-74.5" font-family="Helvetica,sans-Serif" font-size="10.00">QualityControl/MonitorObject</text>
<text text-anchor="middle" x="711.5" y="-63.5" font-family="Helvetica,sans-Serif" font-size="10.00">Collection.h</text>
</a>
</g>
</g>
<!-- Node11&#45;&gt;Node16 -->
<g id="edge17" class="edge"><title>Node11&#45;&gt;Node16</title>
<path fill="none" stroke="midnightblue" d="M711.5,-123.475C711.5,-116.471 711.5,-106.192 711.5,-96.6956"/>
<polygon fill="midnightblue" stroke="midnightblue" points="715,-96.5229 711.5,-86.523 708,-96.523 715,-96.5229"/>
</g>
<!-- Node19 -->
<g id="node19" class="node"><title>Node19</title>
<g id="a_node19"><a xlink:href="TaskConfig_8h.html" target="_top" xlink:title="QualityControl/TaskConfig.h">
<polygon fill="none" stroke="black" points="216.5,-62 216.5,-81 356.5,-81 356.5,-62 216.5,-62"/>
<text text-anchor="middle" x="286.5" y="-69" font-family="Helvetica,sans-Serif" font-size="10.00">QualityControl/TaskConfig.h</text>
</a>
</g>
</g>
<!-- Node11&#45;&gt;Node19 -->
<g id="edge20" class="edge"><title>Node11&#45;&gt;Node19</title>
<path fill="none" stroke="midnightblue" d="M640.523,-123.467C571.465,-114.969 463.627,-101.177 370.5,-87 361.89,-85.6893 352.799,-84.2149 343.904,-82.7213"/>
<polygon fill="midnightblue" stroke="midnightblue" points="344.425,-79.2598 333.98,-81.0346 343.252,-86.1608 344.425,-79.2598"/>
</g>
<!-- Node12&#45;&gt;Node4 -->
<g id="edge13" class="edge"><title>Node12&#45;&gt;Node4</title>
<path fill="none" stroke="midnightblue" d="M451.105,-61.9751C398.032,-49.8761 302.091,-28.0045 255.034,-17.277"/>
<polygon fill="midnightblue" stroke="midnightblue" points="255.764,-13.8536 245.236,-15.0433 254.208,-20.6785 255.764,-13.8536"/>
</g>
<!-- Node12&#45;&gt;Node6 -->
<g id="edge12" class="edge"><title>Node12&#45;&gt;Node6</title>
<path fill="none" stroke="midnightblue" d="M463.713,-61.9751C432.639,-51.2877 379.394,-32.975 345.895,-21.4536"/>
<polygon fill="midnightblue" stroke="midnightblue" points="346.773,-18.0547 336.179,-18.112 344.497,-24.6741 346.773,-18.0547"/>
</g>
<!-- Node13 -->
<g id="node13" class="node"><title>Node13</title>
<polygon fill="none" stroke="#bfbfbf" points="384.5,-0.5 384.5,-19.5 440.5,-19.5 440.5,-0.5 384.5,-0.5"/>
<text text-anchor="middle" x="412.5" y="-7.5" font-family="Helvetica,sans-Serif" font-size="10.00">Rtypes.h</text>
</g>
<!-- Node12&#45;&gt;Node13 -->
<g id="edge14" class="edge"><title>Node12&#45;&gt;Node13</title>
<path fill="none" stroke="midnightblue" d="M477.611,-61.9751C465.534,-52.5199 445.833,-37.0961 431.26,-25.6871"/>
<polygon fill="midnightblue" stroke="midnightblue" points="433.4,-22.9177 423.369,-19.5091 429.085,-28.4295 433.4,-22.9177"/>
</g>
<!-- Node14 -->
<g id="node14" class="node"><title>Node14</title>
<polygon fill="none" stroke="#bfbfbf" points="459,-0.5 459,-19.5 518,-19.5 518,-0.5 459,-0.5"/>
<text text-anchor="middle" x="488.5" y="-7.5" font-family="Helvetica,sans-Serif" font-size="10.00">TObject.h</text>
</g>
<!-- Node12&#45;&gt;Node14 -->
<g id="edge15" class="edge"><title>Node12&#45;&gt;Node14</title>
<path fill="none" stroke="midnightblue" d="M488.5,-61.9751C488.5,-53.5803 488.5,-40.4806 488.5,-29.6631"/>
<polygon fill="midnightblue" stroke="midnightblue" points="492,-29.5091 488.5,-19.5091 485,-29.5091 492,-29.5091"/>
</g>
<!-- Node15 -->
<g id="node15" class="node"><title>Node15</title>
<polygon fill="none" stroke="#bfbfbf" points="536.5,-0.5 536.5,-19.5 652.5,-19.5 652.5,-0.5 536.5,-0.5"/>
<text text-anchor="middle" x="594.5" y="-7.5" font-family="Helvetica,sans-Serif" font-size="10.00">Common/Exceptions.h</text>
</g>
<!-- Node12&#45;&gt;Node15 -->
<g id="edge16" class="edge"><title>Node12&#45;&gt;Node15</title>
<path fill="none" stroke="midnightblue" d="M503.687,-61.9751C521.162,-52.1664 550.079,-35.9346 570.583,-24.425"/>
<polygon fill="midnightblue" stroke="midnightblue" points="572.334,-27.456 579.341,-19.5091 568.908,-21.3519 572.334,-27.456"/>
</g>
<!-- Node17 -->
<g id="node17" class="node"><title>Node17</title>
<polygon fill="none" stroke="#bfbfbf" points="674,-0.5 674,-19.5 743,-19.5 743,-0.5 674,-0.5"/>
<text text-anchor="middle" x="708.5" y="-7.5" font-family="Helvetica,sans-Serif" font-size="10.00">TObjArray.h</text>
</g>
<!-- Node16&#45;&gt;Node17 -->
<g id="edge18" class="edge"><title>Node16&#45;&gt;Node17</title>
<path fill="none" stroke="midnightblue" d="M710.789,-56.3993C710.389,-48.4664 709.884,-38.458 709.451,-29.8583"/>
<polygon fill="midnightblue" stroke="midnightblue" points="712.936,-29.4688 708.937,-19.6578 705.945,-29.8214 712.936,-29.4688"/>
</g>
<!-- Node18 -->
<g id="node18" class="node"><title>Node18</title>
<polygon fill="none" stroke="#bfbfbf" points="761.5,-0.5 761.5,-19.5 889.5,-19.5 889.5,-0.5 761.5,-0.5"/>
<text text-anchor="middle" x="825.5" y="-7.5" font-family="Helvetica,sans-Serif" font-size="10.00">Mergers/MergeInterface.h</text>
</g>
<!-- Node16&#45;&gt;Node18 -->
<g id="edge19" class="edge"><title>Node16&#45;&gt;Node18</title>
<path fill="none" stroke="midnightblue" d="M738.516,-56.3993C757.131,-46.6837 781.71,-33.8551 799.991,-24.3137"/>
<polygon fill="midnightblue" stroke="midnightblue" points="801.666,-27.3876 808.912,-19.6578 798.427,-21.182 801.666,-27.3876"/>
</g>
<!-- Node19&#45;&gt;Node6 -->
<g id="edge21" class="edge"><title>Node19&#45;&gt;Node6</title>
<path fill="none" stroke="midnightblue" d="M290.655,-61.9751C294.876,-53.3152 301.537,-39.6486 306.9,-28.6453"/>
<polygon fill="midnightblue" stroke="midnightblue" points="310.118,-30.0317 311.353,-19.5091 303.825,-26.9648 310.118,-30.0317"/>
</g>
<!-- Node19&#45;&gt;Node7 -->
<g id="edge22" class="edge"><title>Node19&#45;&gt;Node7</title>
<path fill="none" stroke="midnightblue" d="M257.845,-61.9751C222.944,-51.592 163.85,-34.0116 125,-22.4538"/>
<polygon fill="midnightblue" stroke="midnightblue" points="125.685,-19.0059 115.102,-19.5091 123.689,-25.7153 125.685,-19.0059"/>
</g>
</g>
</svg>
