<?xml version="1.0" encoding="UTF-8" standalone="no"?>
<!DOCTYPE svg PUBLIC "-//W3C//DTD SVG 1.1//EN"
 "http://www.w3.org/Graphics/SVG/1.1/DTD/svg11.dtd">
<!-- Generated by graphviz version 2.38.0 (20140413.2041)
 -->
<!-- Title: Modules/TPC/src/Tracks.cxx Pages: 1 -->
<svg width="1201pt" height="319pt"
 viewBox="0.00 0.00 1201.00 319.00" xmlns="http://www.w3.org/2000/svg" xmlns:xlink="http://www.w3.org/1999/xlink">
<g id="graph0" class="graph" transform="scale(1 1) rotate(0) translate(4 315)">
<title>Modules/TPC/src/Tracks.cxx</title>
<!-- Node1 -->
<g id="node1" class="node"><title>Node1</title>
<polygon fill="#bfbfbf" stroke="black" points="145,-291.5 145,-310.5 290,-310.5 290,-291.5 145,-291.5"/>
<text text-anchor="middle" x="217.5" y="-298.5" font-family="Helvetica,sans-Serif" font-size="10.00">Modules/TPC/src/Tracks.cxx</text>
</g>
<!-- Node2 -->
<g id="node2" class="node"><title>Node2</title>
<polygon fill="none" stroke="#bfbfbf" points="0,-235.5 0,-254.5 65,-254.5 65,-235.5 0,-235.5"/>
<text text-anchor="middle" x="32.5" y="-242.5" font-family="Helvetica,sans-Serif" font-size="10.00">TCanvas.h</text>
</g>
<!-- Node1&#45;&gt;Node2 -->
<g id="edge1" class="edge"><title>Node1&#45;&gt;Node2</title>
<path fill="none" stroke="midnightblue" d="M188.186,-291.444C156.658,-282.241 106.369,-267.562 71.5143,-257.388"/>
<polygon fill="midnightblue" stroke="midnightblue" points="72.2568,-253.959 61.6767,-254.516 70.2954,-260.678 72.2568,-253.959"/>
</g>
<!-- Node3 -->
<g id="node3" class="node"><title>Node3</title>
<polygon fill="none" stroke="#bfbfbf" points="83.5,-235.5 83.5,-254.5 127.5,-254.5 127.5,-235.5 83.5,-235.5"/>
<text text-anchor="middle" x="105.5" y="-242.5" font-family="Helvetica,sans-Serif" font-size="10.00">TH1.h</text>
</g>
<!-- Node1&#45;&gt;Node3 -->
<g id="edge2" class="edge"><title>Node1&#45;&gt;Node3</title>
<path fill="none" stroke="midnightblue" d="M199.505,-291.324C181.462,-282.625 153.453,-269.12 132.697,-259.113"/>
<polygon fill="midnightblue" stroke="midnightblue" points="133.978,-255.845 123.45,-254.655 130.938,-262.15 133.978,-255.845"/>
</g>
<!-- Node4 -->
<g id="node4" class="node"><title>Node4</title>
<polygon fill="none" stroke="#bfbfbf" points="145.5,-235.5 145.5,-254.5 189.5,-254.5 189.5,-235.5 145.5,-235.5"/>
<text text-anchor="middle" x="167.5" y="-242.5" font-family="Helvetica,sans-Serif" font-size="10.00">TH2.h</text>
</g>
<!-- Node1&#45;&gt;Node4 -->
<g id="edge3" class="edge"><title>Node1&#45;&gt;Node4</title>
<path fill="none" stroke="midnightblue" d="M209.244,-291.083C202.035,-283.298 191.39,-271.801 182.654,-262.367"/>
<polygon fill="midnightblue" stroke="midnightblue" points="184.965,-259.711 175.603,-254.751 179.829,-264.467 184.965,-259.711"/>
</g>
<!-- Node5 -->
<g id="node5" class="node"><title>Node5</title>
<polygon fill="none" stroke="#bfbfbf" points="190.5,-123.5 190.5,-142.5 350.5,-142.5 350.5,-123.5 190.5,-123.5"/>
<text text-anchor="middle" x="270.5" y="-130.5" font-family="Helvetica,sans-Serif" font-size="10.00">Framework/ProcessingContext.h</text>
</g>
<!-- Node1&#45;&gt;Node5 -->
<g id="edge4" class="edge"><title>Node1&#45;&gt;Node5</title>
<path fill="none" stroke="midnightblue" d="M219.969,-291.135C223.49,-278.591 230.225,-254.964 236.5,-235 245.67,-205.825 257.173,-172.219 264.173,-152.066"/>
<polygon fill="midnightblue" stroke="midnightblue" points="267.483,-153.203 267.471,-142.608 260.874,-150.898 267.483,-153.203"/>
</g>
<!-- Node6 -->
<g id="node6" class="node"><title>Node6</title>
<polygon fill="none" stroke="#bfbfbf" points="245.5,-235.5 245.5,-254.5 395.5,-254.5 395.5,-235.5 245.5,-235.5"/>
<text text-anchor="middle" x="320.5" y="-242.5" font-family="Helvetica,sans-Serif" font-size="10.00">DataFormatsTPC/TrackTPC.h</text>
</g>
<!-- Node1&#45;&gt;Node6 -->
<g id="edge5" class="edge"><title>Node1&#45;&gt;Node6</title>
<path fill="none" stroke="midnightblue" d="M234.049,-291.324C250.492,-282.703 275.935,-269.364 294.968,-259.386"/>
<polygon fill="midnightblue" stroke="midnightblue" points="296.761,-262.398 303.992,-254.655 293.511,-256.198 296.761,-262.398"/>
</g>
<!-- Node7 -->
<g id="node7" class="node"><title>Node7</title>
<g id="a_node7"><a xlink:href="QcInfoLogger_8h.html" target="_top" xlink:title="QualityControl/QcInfoLogger.h">
<polygon fill="none" stroke="black" points="413,-235.5 413,-254.5 562,-254.5 562,-235.5 413,-235.5"/>
<text text-anchor="middle" x="487.5" y="-242.5" font-family="Helvetica,sans-Serif" font-size="10.00">QualityControl/QcInfoLogger.h</text>
</a>
</g>
</g>
<!-- Node1&#45;&gt;Node7 -->
<g id="edge6" class="edge"><title>Node1&#45;&gt;Node7</title>
<path fill="none" stroke="midnightblue" d="M260.282,-291.444C307.679,-281.964 384.126,-266.675 435.083,-256.483"/>
<polygon fill="midnightblue" stroke="midnightblue" points="435.798,-259.91 444.918,-254.516 434.426,-253.046 435.798,-259.91"/>
</g>
<!-- Node9 -->
<g id="node9" class="node"><title>Node9</title>
<g id="a_node9"><a xlink:href="Tracks_8h.html" target="_top" xlink:title="TPC/Tracks.h">
<polygon fill="none" stroke="black" points="580.5,-235.5 580.5,-254.5 658.5,-254.5 658.5,-235.5 580.5,-235.5"/>
<text text-anchor="middle" x="619.5" y="-242.5" font-family="Helvetica,sans-Serif" font-size="10.00">TPC/Tracks.h</text>
</a>
</g>
</g>
<!-- Node1&#45;&gt;Node9 -->
<g id="edge8" class="edge"><title>Node1&#45;&gt;Node9</title>
<path fill="none" stroke="midnightblue" d="M290.221,-292.024C359.669,-284.118 467.499,-271.092 570.308,-255.112"/>
<polygon fill="midnightblue" stroke="midnightblue" points="570.902,-258.561 580.24,-253.556 569.819,-251.646 570.902,-258.561"/>
</g>
<!-- Node8 -->
<g id="node8" class="node"><title>Node8</title>
<polygon fill="none" stroke="#bfbfbf" points="395.5,-179.5 395.5,-198.5 525.5,-198.5 525.5,-179.5 395.5,-179.5"/>
<text text-anchor="middle" x="460.5" y="-186.5" font-family="Helvetica,sans-Serif" font-size="10.00">InfoLogger/InfoLogger.hxx</text>
</g>
<!-- Node7&#45;&gt;Node8 -->
<g id="edge7" class="edge"><title>Node7&#45;&gt;Node8</title>
<path fill="none" stroke="midnightblue" d="M483.041,-235.083C479.346,-227.691 473.977,-216.953 469.406,-207.811"/>
<polygon fill="midnightblue" stroke="midnightblue" points="472.478,-206.13 464.876,-198.751 466.217,-209.261 472.478,-206.13"/>
</g>
<!-- Node10 -->
<g id="node10" class="node"><title>Node10</title>
<polygon fill="none" stroke="#bfbfbf" points="544,-179.5 544,-198.5 637,-198.5 637,-179.5 544,-179.5"/>
<text text-anchor="middle" x="590.5" y="-186.5" font-family="Helvetica,sans-Serif" font-size="10.00">TPCQC/Tracks.h</text>
</g>
<!-- Node9&#45;&gt;Node10 -->
<g id="edge9" class="edge"><title>Node9&#45;&gt;Node10</title>
<path fill="none" stroke="midnightblue" d="M614.711,-235.083C610.742,-227.691 604.975,-216.953 600.065,-207.811"/>
<polygon fill="midnightblue" stroke="midnightblue" points="603.014,-205.905 595.2,-198.751 596.847,-209.217 603.014,-205.905"/>
</g>
<!-- Node11 -->
<g id="node11" class="node"><title>Node11</title>
<g id="a_node11"><a xlink:href="TaskInterface_8h.html" target="_top" xlink:title="QualityControl/TaskInterface.h">
<polygon fill="none" stroke="black" points="654.5,-179.5 654.5,-198.5 804.5,-198.5 804.5,-179.5 654.5,-179.5"/>
<text text-anchor="middle" x="729.5" y="-186.5" font-family="Helvetica,sans-Serif" font-size="10.00">QualityControl/TaskInterface.h</text>
</a>
</g>
</g>
<!-- Node9&#45;&gt;Node11 -->
<g id="edge10" class="edge"><title>Node9&#45;&gt;Node11</title>
<path fill="none" stroke="midnightblue" d="M637.173,-235.324C654.894,-226.625 682.403,-213.12 702.788,-203.113"/>
<polygon fill="midnightblue" stroke="midnightblue" points="704.436,-206.203 711.87,-198.655 701.351,-199.919 704.436,-206.203"/>
</g>
<!-- Node11&#45;&gt;Node5 -->
<g id="edge16" class="edge"><title>Node11&#45;&gt;Node5</title>
<path fill="none" stroke="midnightblue" d="M657.023,-179.473C574.403,-169.753 439.621,-153.897 353.027,-143.709"/>
<polygon fill="midnightblue" stroke="midnightblue" points="353.315,-140.219 342.975,-142.526 352.497,-147.171 353.315,-140.219"/>
</g>
<!-- Node12 -->
<g id="node12" class="node"><title>Node12</title>
<polygon fill="none" stroke="#bfbfbf" points="1158,-0.5 1158,-19.5 1193,-19.5 1193,-0.5 1158,-0.5"/>
<text text-anchor="middle" x="1175.5" y="-7.5" font-family="Helvetica,sans-Serif" font-size="10.00">map</text>
</g>
<!-- Node11&#45;&gt;Node12 -->
<g id="edge11" class="edge"><title>Node11&#45;&gt;Node12</title>
<path fill="none" stroke="midnightblue" d="M802.384,-179.495C909.319,-165.571 1101.39,-134.606 1150.5,-87 1166.13,-71.8531 1171.99,-46.7788 1174.19,-29.6026"/>
<polygon fill="midnightblue" stroke="midnightblue" points="1177.67,-29.9343 1175.17,-19.6395 1170.71,-29.2487 1177.67,-29.9343"/>
</g>
<!-- Node13 -->
<g id="node13" class="node"><title>Node13</title>
<polygon fill="none" stroke="#bfbfbf" points="433.5,-62 433.5,-81 485.5,-81 485.5,-62 433.5,-62"/>
<text text-anchor="middle" x="459.5" y="-69" font-family="Helvetica,sans-Serif" font-size="10.00">memory</text>
</g>
<!-- Node11&#45;&gt;Node13 -->
<g id="edge12" class="edge"><title>Node11&#45;&gt;Node13</title>
<path fill="none" stroke="midnightblue" d="M661.352,-179.488C592.032,-170.241 492.919,-155.16 479.5,-143 465.238,-130.076 460.848,-107.807 459.643,-91.7511"/>
<polygon fill="midnightblue" stroke="midnightblue" points="463.125,-91.2343 459.232,-81.3805 456.13,-91.5111 463.125,-91.2343"/>
</g>
<!-- Node14 -->
<g id="node14" class="node"><title>Node14</title>
<polygon fill="none" stroke="#bfbfbf" points="813,-0.5 813,-19.5 854,-19.5 854,-0.5 813,-0.5"/>
<text text-anchor="middle" x="833.5" y="-7.5" font-family="Helvetica,sans-Serif" font-size="10.00">string</text>
</g>
<!-- Node11&#45;&gt;Node14 -->
<g id="edge13" class="edge"><title>Node11&#45;&gt;Node14</title>
<path fill="none" stroke="midnightblue" d="M804.616,-182.023C858.745,-175.974 925.183,-164.358 942.5,-143 977.825,-99.4321 901.826,-48.3621 859.444,-24.5297"/>
<polygon fill="midnightblue" stroke="midnightblue" points="860.918,-21.3463 850.467,-19.6047 857.551,-27.4833 860.918,-21.3463"/>
</g>
<!-- Node15 -->
<g id="node15" class="node"><title>Node15</title>
<polygon fill="none" stroke="#bfbfbf" points="376,-0.5 376,-19.5 459,-19.5 459,-0.5 376,-0.5"/>
<text text-anchor="middle" x="417.5" y="-7.5" font-family="Helvetica,sans-Serif" font-size="10.00">unordered_map</text>
</g>
<!-- Node11&#45;&gt;Node15 -->
<g id="edge14" class="edge"><title>Node11&#45;&gt;Node15</title>
<path fill="none" stroke="midnightblue" d="M662.43,-179.485C588.909,-169.714 479.114,-153.667 462.5,-143 437.19,-126.749 434.645,-115.316 424.5,-87 417.811,-68.3301 416.551,-45.5126 416.658,-29.7792"/>
<polygon fill="midnightblue" stroke="midnightblue" points="420.158,-29.8231 416.919,-19.7354 413.16,-29.6409 420.158,-29.8231"/>
</g>
<!-- Node16 -->
<g id="node16" class="node"><title>Node16</title>
<polygon fill="none" stroke="#bfbfbf" points="667,-123.5 667,-142.5 792,-142.5 792,-123.5 667,-123.5"/>
<text text-anchor="middle" x="729.5" y="-130.5" font-family="Helvetica,sans-Serif" font-size="10.00">Framework/InitContext.h</text>
</g>
<!-- Node11&#45;&gt;Node16 -->
<g id="edge15" class="edge"><title>Node11&#45;&gt;Node16</title>
<path fill="none" stroke="midnightblue" d="M729.5,-179.083C729.5,-172.006 729.5,-161.861 729.5,-152.986"/>
<polygon fill="midnightblue" stroke="midnightblue" points="733,-152.751 729.5,-142.751 726,-152.751 733,-152.751"/>
</g>
<!-- Node17 -->
<g id="node17" class="node"><title>Node17</title>
<g id="a_node17"><a xlink:href="Activity_8h.html" target="_top" xlink:title="QualityControl/Activity.h">
<polygon fill="none" stroke="black" points="810,-123.5 810,-142.5 933,-142.5 933,-123.5 810,-123.5"/>
<text text-anchor="middle" x="871.5" y="-130.5" font-family="Helvetica,sans-Serif" font-size="10.00">QualityControl/Activity.h</text>
</a>
</g>
</g>
<!-- Node11&#45;&gt;Node17 -->
<g id="edge17" class="edge"><title>Node11&#45;&gt;Node17</title>
<path fill="none" stroke="midnightblue" d="M752,-179.444C775.577,-170.478 812.822,-156.314 839.464,-146.183"/>
<polygon fill="midnightblue" stroke="midnightblue" points="841.002,-149.342 849.105,-142.516 838.514,-142.8 841.002,-149.342"/>
</g>
<!-- Node18 -->
<g id="node18" class="node"><title>Node18</title>
<g id="a_node18"><a xlink:href="ObjectsManager_8h.html" target="_top" xlink:title="QualityControl/ObjectsManager.h">
<polygon fill="none" stroke="black" points="488,-123.5 488,-142.5 649,-142.5 649,-123.5 488,-123.5"/>
<text text-anchor="middle" x="568.5" y="-130.5" font-family="Helvetica,sans-Serif" font-size="10.00">QualityControl/ObjectsManager.h</text>
</a>
</g>
</g>
<!-- Node11&#45;&gt;Node18 -->
<g id="edge18" class="edge"><title>Node11&#45;&gt;Node18</title>
<path fill="none" stroke="midnightblue" d="M703.989,-179.444C676.904,-170.359 633.91,-155.939 603.631,-145.783"/>
<polygon fill="midnightblue" stroke="midnightblue" points="604.486,-142.378 593.892,-142.516 602.26,-149.015 604.486,-142.378"/>
</g>
<!-- Node18&#45;&gt;Node13 -->
<g id="edge32" class="edge"><title>Node18&#45;&gt;Node13</title>
<path fill="none" stroke="midnightblue" d="M552.883,-123.475C534.914,-113.666 505.179,-97.4346 484.094,-85.925"/>
<polygon fill="midnightblue" stroke="midnightblue" points="485.542,-82.7284 475.088,-81.0091 482.189,-88.8726 485.542,-82.7284"/>
</g>
<!-- Node18&#45;&gt;Node14 -->
<g id="edge31" class="edge"><title>Node18&#45;&gt;Node14</title>
<path fill="none" stroke="midnightblue" d="M635.947,-123.46C704.209,-114.221 801.516,-99.1777 814.5,-87 830.124,-72.346 833.715,-46.9563 834.165,-29.5875"/>
<polygon fill="midnightblue" stroke="midnightblue" points="837.665,-29.5035 834.102,-19.5255 830.665,-29.5472 837.665,-29.5035"/>
</g>
<!-- Node19 -->
<g id="node19" class="node"><title>Node19</title>
<g id="a_node19"><a xlink:href="MonitorObject_8h.html" target="_top" xlink:title="QualityControl/MonitorObject.h">
<polygon fill="none" stroke="black" points="990,-62 990,-81 1141,-81 1141,-62 990,-62"/>
<text text-anchor="middle" x="1065.5" y="-69" font-family="Helvetica,sans-Serif" font-size="10.00">QualityControl/MonitorObject.h</text>
</a>
</g>
</g>
<!-- Node18&#45;&gt;Node19 -->
<g id="edge19" class="edge"><title>Node18&#45;&gt;Node19</title>
<path fill="none" stroke="midnightblue" d="M639.708,-123.475C730.866,-112.562 888.44,-93.6974 984.208,-82.2322"/>
<polygon fill="midnightblue" stroke="midnightblue" points="984.911,-85.6731 994.424,-81.0091 984.079,-78.7227 984.911,-85.6731"/>
</g>
<!-- Node23 -->
<g id="node23" class="node"><title>Node23</title>
<g id="a_node23"><a xlink:href="MonitorObjectCollection_8h.html" target="_top" xlink:title="QualityControl/MonitorObject\lCollection.h">
<polygon fill="none" stroke="black" points="504,-56.5 504,-86.5 647,-86.5 647,-56.5 504,-56.5"/>
<text text-anchor="start" x="512" y="-74.5" font-family="Helvetica,sans-Serif" font-size="10.00">QualityControl/MonitorObject</text>
<text text-anchor="middle" x="575.5" y="-63.5" font-family="Helvetica,sans-Serif" font-size="10.00">Collection.h</text>
</a>
</g>
</g>
<!-- Node18&#45;&gt;Node23 -->
<g id="edge25" class="edge"><title>Node18&#45;&gt;Node23</title>
<path fill="none" stroke="midnightblue" d="M569.503,-123.475C570.327,-116.471 571.536,-106.192 572.653,-96.6956"/>
<polygon fill="midnightblue" stroke="midnightblue" points="576.158,-96.8635 573.85,-86.523 569.206,-96.0455 576.158,-96.8635"/>
</g>
<!-- Node26 -->
<g id="node26" class="node"><title>Node26</title>
<g id="a_node26"><a xlink:href="TaskConfig_8h.html" target="_top" xlink:title="QualityControl/TaskConfig.h">
<polygon fill="none" stroke="black" points="665.5,-62 665.5,-81 805.5,-81 805.5,-62 665.5,-62"/>
<text text-anchor="middle" x="735.5" y="-69" font-family="Helvetica,sans-Serif" font-size="10.00">QualityControl/TaskConfig.h</text>
</a>
</g>
</g>
<!-- Node18&#45;&gt;Node26 -->
<g id="edge28" class="edge"><title>Node18&#45;&gt;Node26</title>
<path fill="none" stroke="midnightblue" d="M592.427,-123.475C621.197,-113.225 669.656,-95.9593 702.102,-84.3994"/>
<polygon fill="midnightblue" stroke="midnightblue" points="703.372,-87.6624 711.617,-81.0091 701.023,-81.0684 703.372,-87.6624"/>
</g>
<!-- Node19&#45;&gt;Node12 -->
<g id="edge21" class="edge"><title>Node19&#45;&gt;Node12</title>
<path fill="none" stroke="midnightblue" d="M1081.26,-61.9751C1099.48,-52.1222 1129.67,-35.7883 1150.97,-24.2697"/>
<polygon fill="midnightblue" stroke="midnightblue" points="1152.64,-27.3453 1159.77,-19.5091 1149.31,-21.1883 1152.64,-27.3453"/>
</g>
<!-- Node19&#45;&gt;Node14 -->
<g id="edge20" class="edge"><title>Node19&#45;&gt;Node14</title>
<path fill="none" stroke="midnightblue" d="M1029.24,-61.973C990.69,-52.7874 927.717,-37.446 863.945,-20.0226"/>
<polygon fill="midnightblue" stroke="midnightblue" points="864.69,-16.5979 854.12,-17.3234 862.836,-23.3477 864.69,-16.5979"/>
</g>
<!-- Node20 -->
<g id="node20" class="node"><title>Node20</title>
<polygon fill="none" stroke="#bfbfbf" points="1083.5,-0.5 1083.5,-19.5 1139.5,-19.5 1139.5,-0.5 1083.5,-0.5"/>
<text text-anchor="middle" x="1111.5" y="-7.5" font-family="Helvetica,sans-Serif" font-size="10.00">Rtypes.h</text>
</g>
<!-- Node19&#45;&gt;Node20 -->
<g id="edge22" class="edge"><title>Node19&#45;&gt;Node20</title>
<path fill="none" stroke="midnightblue" d="M1072.09,-61.9751C1078.99,-53.0501 1090,-38.8071 1098.63,-27.6425"/>
<polygon fill="midnightblue" stroke="midnightblue" points="1101.57,-29.5612 1104.92,-19.5091 1096.04,-25.2798 1101.57,-29.5612"/>
</g>
<!-- Node21 -->
<g id="node21" class="node"><title>Node21</title>
<polygon fill="none" stroke="#bfbfbf" points="872,-0.5 872,-19.5 931,-19.5 931,-0.5 872,-0.5"/>
<text text-anchor="middle" x="901.5" y="-7.5" font-family="Helvetica,sans-Serif" font-size="10.00">TObject.h</text>
</g>
<!-- Node19&#45;&gt;Node21 -->
<g id="edge23" class="edge"><title>Node19&#45;&gt;Node21</title>
<path fill="none" stroke="midnightblue" d="M1042,-61.9751C1013.87,-51.7687 966.571,-34.608 934.711,-23.0492"/>
<polygon fill="midnightblue" stroke="midnightblue" points="935.548,-19.6295 924.954,-19.5091 933.16,-26.2098 935.548,-19.6295"/>
</g>
<!-- Node22 -->
<g id="node22" class="node"><title>Node22</title>
<polygon fill="none" stroke="#bfbfbf" points="949.5,-0.5 949.5,-19.5 1065.5,-19.5 1065.5,-0.5 949.5,-0.5"/>
<text text-anchor="middle" x="1007.5" y="-7.5" font-family="Helvetica,sans-Serif" font-size="10.00">Common/Exceptions.h</text>
</g>
<!-- Node19&#45;&gt;Node22 -->
<g id="edge24" class="edge"><title>Node19&#45;&gt;Node22</title>
<path fill="none" stroke="midnightblue" d="M1057.19,-61.9751C1048.32,-52.8733 1034.05,-38.241 1023.08,-26.983"/>
<polygon fill="midnightblue" stroke="midnightblue" points="1025.28,-24.2268 1015.79,-19.5091 1020.27,-29.113 1025.28,-24.2268"/>
</g>
<!-- Node24 -->
<g id="node24" class="node"><title>Node24</title>
<polygon fill="none" stroke="#bfbfbf" points="635,-0.5 635,-19.5 704,-19.5 704,-0.5 635,-0.5"/>
<text text-anchor="middle" x="669.5" y="-7.5" font-family="Helvetica,sans-Serif" font-size="10.00">TObjArray.h</text>
</g>
<!-- Node23&#45;&gt;Node24 -->
<g id="edge26" class="edge"><title>Node23&#45;&gt;Node24</title>
<path fill="none" stroke="midnightblue" d="M597.777,-56.3993C612.703,-46.9511 632.281,-34.5589 647.21,-25.1089"/>
<polygon fill="midnightblue" stroke="midnightblue" points="649.245,-27.9636 655.822,-19.6578 645.501,-22.0489 649.245,-27.9636"/>
</g>
<!-- Node25 -->
<g id="node25" class="node"><title>Node25</title>
<polygon fill="none" stroke="#bfbfbf" points="488.5,-0.5 488.5,-19.5 616.5,-19.5 616.5,-0.5 488.5,-0.5"/>
<text text-anchor="middle" x="552.5" y="-7.5" font-family="Helvetica,sans-Serif" font-size="10.00">Mergers/MergeInterface.h</text>
</g>
<!-- Node23&#45;&gt;Node25 -->
<g id="edge27" class="edge"><title>Node23&#45;&gt;Node25</title>
<path fill="none" stroke="midnightblue" d="M570.049,-56.3993C566.879,-48.1989 562.852,-37.7809 559.456,-28.9936"/>
<polygon fill="midnightblue" stroke="midnightblue" points="562.717,-27.7232 555.847,-19.6578 556.188,-30.2471 562.717,-27.7232"/>
</g>
<!-- Node26&#45;&gt;Node14 -->
<g id="edge29" class="edge"><title>Node26&#45;&gt;Node14</title>
<path fill="none" stroke="midnightblue" d="M749.541,-61.9751C765.551,-52.2548 791.95,-36.2266 810.874,-24.7372"/>
<polygon fill="midnightblue" stroke="midnightblue" points="812.754,-27.6907 819.485,-19.5091 809.121,-21.7072 812.754,-27.6907"/>
</g>
<!-- Node26&#45;&gt;Node15 -->
<g id="edge30" class="edge"><title>Node26&#45;&gt;Node15</title>
<path fill="none" stroke="midnightblue" d="M689.938,-61.9751C631.454,-51.0323 530.245,-32.0954 469.018,-20.6394"/>
<polygon fill="midnightblue" stroke="midnightblue" points="469.652,-17.1973 459.179,-18.7984 468.365,-24.0779 469.652,-17.1973"/>
</g>
</g>
</svg>
