<?xml version="1.0" encoding="UTF-8" standalone="no"?>
<!DOCTYPE svg PUBLIC "-//W3C//DTD SVG 1.1//EN"
 "http://www.w3.org/Graphics/SVG/1.1/DTD/svg11.dtd">
<!-- Generated by graphviz version 2.38.0 (20140413.2041)
 -->
<!-- Title: Framework/src/TrendingTaskConfig.cxx Pages: 1 -->
<svg width="337pt" height="229pt"
 viewBox="0.00 0.00 336.50 229.00" xmlns="http://www.w3.org/2000/svg" xmlns:xlink="http://www.w3.org/1999/xlink">
<g id="graph0" class="graph" transform="scale(1 1) rotate(0) translate(4 225)">
<title>Framework/src/TrendingTaskConfig.cxx</title>
<!-- Node1 -->
<g id="node1" class="node"><title>Node1</title>
<polygon fill="#bfbfbf" stroke="black" points="111,-190.5 111,-220.5 255,-220.5 255,-190.5 111,-190.5"/>
<text text-anchor="start" x="119" y="-208.5" font-family="Helvetica,sans-Serif" font-size="10.00">Framework/src/TrendingTask</text>
<text text-anchor="middle" x="183" y="-197.5" font-family="Helvetica,sans-Serif" font-size="10.00">Config.cxx</text>
</g>
<!-- Node2 -->
<g id="node2" class="node"><title>Node2</title>
<g id="a_node2"><a xlink:href="TrendingTaskConfig_8h.html" target="_top" xlink:title="QualityControl/TrendingTask\lConfig.h">
<polygon fill="none" stroke="black" points="34.5,-123.5 34.5,-153.5 175.5,-153.5 175.5,-123.5 34.5,-123.5"/>
<text text-anchor="start" x="42.5" y="-141.5" font-family="Helvetica,sans-Serif" font-size="10.00">QualityControl/TrendingTask</text>
<text text-anchor="middle" x="105" y="-130.5" font-family="Helvetica,sans-Serif" font-size="10.00">Config.h</text>
</a>
</g>
</g>
<!-- Node1&#45;&gt;Node2 -->
<g id="edge1" class="edge"><title>Node1&#45;&gt;Node2</title>
<path fill="none" stroke="midnightblue" d="M166.075,-190.396C155.445,-181.538 141.552,-169.96 129.703,-160.086"/>
<polygon fill="midnightblue" stroke="midnightblue" points="131.815,-157.29 121.892,-153.577 127.333,-162.667 131.815,-157.29"/>
</g>
<!-- Node6 -->
<g id="node6" class="node"><title>Node6</title>
<polygon fill="none" stroke="#bfbfbf" points="193.5,-123.5 193.5,-153.5 328.5,-153.5 328.5,-123.5 193.5,-123.5"/>
<text text-anchor="start" x="201.5" y="-141.5" font-family="Helvetica,sans-Serif" font-size="10.00">Configuration/Configuration</text>
<text text-anchor="middle" x="261" y="-130.5" font-family="Helvetica,sans-Serif" font-size="10.00">Interface.h</text>
</g>
<!-- Node1&#45;&gt;Node6 -->
<g id="edge7" class="edge"><title>Node1&#45;&gt;Node6</title>
<path fill="none" stroke="midnightblue" d="M199.925,-190.396C210.555,-181.538 224.448,-169.96 236.297,-160.086"/>
<polygon fill="midnightblue" stroke="midnightblue" points="238.667,-162.667 244.108,-153.577 234.185,-157.29 238.667,-162.667"/>
</g>
<!-- Node3 -->
<g id="node3" class="node"><title>Node3</title>
<polygon fill="none" stroke="#bfbfbf" points="0,-0.5 0,-19.5 44,-19.5 44,-0.5 0,-0.5"/>
<text text-anchor="middle" x="22" y="-7.5" font-family="Helvetica,sans-Serif" font-size="10.00">vector</text>
</g>
<!-- Node2&#45;&gt;Node3 -->
<g id="edge2" class="edge"><title>Node2&#45;&gt;Node3</title>
<path fill="none" stroke="midnightblue" d="M63.5981,-123.401C46.9663,-115.463 29.5082,-103.709 20,-87 10.0284,-69.4771 12.6686,-45.8073 16.4203,-29.5646"/>
<polygon fill="midnightblue" stroke="midnightblue" points="19.8631,-30.237 19.0539,-19.6732 13.0988,-28.436 19.8631,-30.237"/>
</g>
<!-- Node4 -->
<g id="node4" class="node"><title>Node4</title>
<polygon fill="none" stroke="#bfbfbf" points="136.5,-0.5 136.5,-19.5 177.5,-19.5 177.5,-0.5 136.5,-0.5"/>
<text text-anchor="middle" x="157" y="-7.5" font-family="Helvetica,sans-Serif" font-size="10.00">string</text>
</g>
<!-- Node2&#45;&gt;Node4 -->
<g id="edge3" class="edge"><title>Node2&#45;&gt;Node4</title>
<path fill="none" stroke="midnightblue" d="M146.402,-123.401C163.034,-115.463 180.492,-103.709 190,-87 201.165,-67.3795 186.239,-43.2533 173.016,-27.5194"/>
<polygon fill="midnightblue" stroke="midnightblue" points="175.304,-24.8293 166.021,-19.7236 170.094,-29.5042 175.304,-24.8293"/>
</g>
<!-- Node5 -->
<g id="node5" class="node"><title>Node5</title>
<g id="a_node5"><a xlink:href="PostProcessingConfig_8h.html" target="_top" xlink:title="QualityControl/PostProcessing\lConfig.h">
<polygon fill="none" stroke="black" points="29.5,-56.5 29.5,-86.5 180.5,-86.5 180.5,-56.5 29.5,-56.5"/>
<text text-anchor="start" x="37.5" y="-74.5" font-family="Helvetica,sans-Serif" font-size="10.00">QualityControl/PostProcessing</text>
<text text-anchor="middle" x="105" y="-63.5" font-family="Helvetica,sans-Serif" font-size="10.00">Config.h</text>
</a>
</g>
</g>
<!-- Node2&#45;&gt;Node5 -->
<g id="edge4" class="edge"><title>Node2&#45;&gt;Node5</title>
<path fill="none" stroke="midnightblue" d="M105,-123.396C105,-115.645 105,-105.812 105,-96.8601"/>
<polygon fill="midnightblue" stroke="midnightblue" points="108.5,-96.5765 105,-86.5765 101.5,-96.5765 108.5,-96.5765"/>
</g>
<!-- Node5&#45;&gt;Node3 -->
<g id="edge5" class="edge"><title>Node5&#45;&gt;Node3</title>
<path fill="none" stroke="midnightblue" d="M85.3302,-56.3993C72.3989,-47.1293 55.5145,-35.0254 42.4318,-25.6469"/>
<polygon fill="midnightblue" stroke="midnightblue" points="44.2439,-22.6395 34.0772,-19.6578 40.1654,-28.3287 44.2439,-22.6395"/>
</g>
<!-- Node5&#45;&gt;Node4 -->
<g id="edge6" class="edge"><title>Node5&#45;&gt;Node4</title>
<path fill="none" stroke="midnightblue" d="M117.323,-56.3993C124.957,-47.6641 134.791,-36.4126 142.758,-27.2962"/>
<polygon fill="midnightblue" stroke="midnightblue" points="145.488,-29.4907 149.434,-19.6578 140.218,-24.8843 145.488,-29.4907"/>
</g>
</g>
</svg>
