<?xml version="1.0" encoding="UTF-8" standalone="no"?>
<!DOCTYPE svg PUBLIC "-//W3C//DTD SVG 1.1//EN"
 "http://www.w3.org/Graphics/SVG/1.1/DTD/svg11.dtd">
<!-- Generated by graphviz version 2.38.0 (20140413.2041)
 -->
<!-- Title: Framework/src/TrendingTask.cxx Pages: 1 -->
<svg width="1763pt" height="285pt"
 viewBox="0.00 0.00 1763.00 285.00" xmlns="http://www.w3.org/2000/svg" xmlns:xlink="http://www.w3.org/1999/xlink">
<g id="graph0" class="graph" transform="scale(1 1) rotate(0) translate(4 281)">
<title>Framework/src/TrendingTask.cxx</title>
<!-- Node1 -->
<g id="node1" class="node"><title>Node1</title>
<polygon fill="#bfbfbf" stroke="black" points="1233,-257.5 1233,-276.5 1396,-276.5 1396,-257.5 1233,-257.5"/>
<text text-anchor="middle" x="1314.5" y="-264.5" font-family="Helvetica,sans-Serif" font-size="10.00">Framework/src/TrendingTask.cxx</text>
</g>
<!-- Node2 -->
<g id="node2" class="node"><title>Node2</title>
<g id="a_node2"><a xlink:href="TrendingTask_8h.html" target="_top" xlink:title="QualityControl/TrendingTask.h">
<polygon fill="none" stroke="black" points="349,-196 349,-215 498,-215 498,-196 349,-196"/>
<text text-anchor="middle" x="423.5" y="-203" font-family="Helvetica,sans-Serif" font-size="10.00">QualityControl/TrendingTask.h</text>
</a>
</g>
</g>
<!-- Node1&#45;&gt;Node2 -->
<g id="edge1" class="edge"><title>Node1&#45;&gt;Node2</title>
<path fill="none" stroke="midnightblue" d="M1232.9,-263.703C1089.22,-259.136 781.815,-247.026 523.5,-221 511.432,-219.784 498.588,-218.167 486.268,-216.455"/>
<polygon fill="midnightblue" stroke="midnightblue" points="486.465,-212.948 476.071,-215.001 485.477,-219.878 486.465,-212.948"/>
</g>
<!-- Node11 -->
<g id="node11" class="node"><title>Node11</title>
<g id="a_node11"><a xlink:href="Reductor_8h.html" target="_top" xlink:title="QualityControl/Reductor.h">
<polygon fill="none" stroke="black" points="645.5,-129 645.5,-148 775.5,-148 775.5,-129 645.5,-129"/>
<text text-anchor="middle" x="710.5" y="-136" font-family="Helvetica,sans-Serif" font-size="10.00">QualityControl/Reductor.h</text>
</a>
</g>
</g>
<!-- Node1&#45;&gt;Node11 -->
<g id="edge41" class="edge"><title>Node1&#45;&gt;Node11</title>
<path fill="none" stroke="midnightblue" d="M1273.46,-257.405C1166.26,-234.953 878.077,-174.597 760.992,-150.075"/>
<polygon fill="midnightblue" stroke="midnightblue" points="761.704,-146.648 751.199,-148.024 760.269,-153.5 761.704,-146.648"/>
</g>
<!-- Node16 -->
<g id="node16" class="node"><title>Node16</title>
<g id="a_node16"><a xlink:href="QcInfoLogger_8h.html" target="_top" xlink:title="QualityControl/QcInfoLogger.h">
<polygon fill="none" stroke="black" points="1589,-129 1589,-148 1738,-148 1738,-129 1589,-129"/>
<text text-anchor="middle" x="1663.5" y="-136" font-family="Helvetica,sans-Serif" font-size="10.00">QualityControl/QcInfoLogger.h</text>
</a>
</g>
</g>
<!-- Node1&#45;&gt;Node16 -->
<g id="edge19" class="edge"><title>Node1&#45;&gt;Node16</title>
<path fill="none" stroke="midnightblue" d="M1318.57,-257.225C1326.57,-241.016 1346.02,-206.531 1373.5,-190 1374.12,-189.627 1519.44,-164.433 1604.1,-149.776"/>
<polygon fill="midnightblue" stroke="midnightblue" points="1604.85,-153.198 1614.11,-148.043 1603.66,-146.3 1604.85,-153.198"/>
</g>
<!-- Node18 -->
<g id="node18" class="node"><title>Node18</title>
<g id="a_node18"><a xlink:href="DatabaseInterface_8h.html" target="_top" xlink:title="QualityControl/DatabaseInterface.h">
<polygon fill="none" stroke="black" points="532.5,-196 532.5,-215 702.5,-215 702.5,-196 532.5,-196"/>
<text text-anchor="middle" x="617.5" y="-203" font-family="Helvetica,sans-Serif" font-size="10.00">QualityControl/DatabaseInterface.h</text>
</a>
</g>
</g>
<!-- Node1&#45;&gt;Node18 -->
<g id="edge21" class="edge"><title>Node1&#45;&gt;Node18</title>
<path fill="none" stroke="midnightblue" d="M1232.84,-259.029C1103.08,-247.952 850.433,-226.385 712.671,-214.624"/>
<polygon fill="midnightblue" stroke="midnightblue" points="712.809,-211.124 702.548,-213.76 712.214,-218.098 712.809,-211.124"/>
</g>
<!-- Node25 -->
<g id="node25" class="node"><title>Node25</title>
<g id="a_node25"><a xlink:href="MonitorObject_8h.html" target="_top" xlink:title="QualityControl/MonitorObject.h">
<polygon fill="none" stroke="black" points="961,-129 961,-148 1112,-148 1112,-129 961,-129"/>
<text text-anchor="middle" x="1036.5" y="-136" font-family="Helvetica,sans-Serif" font-size="10.00">QualityControl/MonitorObject.h</text>
</a>
</g>
</g>
<!-- Node1&#45;&gt;Node25 -->
<g id="edge40" class="edge"><title>Node1&#45;&gt;Node25</title>
<path fill="none" stroke="midnightblue" d="M1295.11,-257.444C1274.75,-248.444 1241.83,-233.832 1213.5,-221 1160.63,-197.051 1099.13,-168.598 1064.31,-152.434"/>
<polygon fill="midnightblue" stroke="midnightblue" points="1065.36,-149.061 1054.81,-148.022 1062.41,-155.409 1065.36,-149.061"/>
</g>
<!-- Node26 -->
<g id="node26" class="node"><title>Node26</title>
<g id="a_node26"><a xlink:href="RootClassFactory_8h.html" target="_top" xlink:title="RootClassFactory.h">
<polygon fill="none" stroke="black" points="1222.5,-196 1222.5,-215 1326.5,-215 1326.5,-196 1222.5,-196"/>
<text text-anchor="middle" x="1274.5" y="-203" font-family="Helvetica,sans-Serif" font-size="10.00">RootClassFactory.h</text>
</a>
</g>
</g>
<!-- Node1&#45;&gt;Node26 -->
<g id="edge42" class="edge"><title>Node1&#45;&gt;Node26</title>
<path fill="none" stroke="midnightblue" d="M1308.77,-257.475C1302.83,-248.638 1293.38,-234.589 1285.91,-223.475"/>
<polygon fill="midnightblue" stroke="midnightblue" points="1288.7,-221.355 1280.22,-215.009 1282.89,-225.261 1288.7,-221.355"/>
</g>
<!-- Node31 -->
<g id="node31" class="node"><title>Node31</title>
<polygon fill="none" stroke="#bfbfbf" points="1383,-190.5 1383,-220.5 1518,-220.5 1518,-190.5 1383,-190.5"/>
<text text-anchor="start" x="1391" y="-208.5" font-family="Helvetica,sans-Serif" font-size="10.00">Configuration/Configuration</text>
<text text-anchor="middle" x="1450.5" y="-197.5" font-family="Helvetica,sans-Serif" font-size="10.00">Interface.h</text>
</g>
<!-- Node1&#45;&gt;Node31 -->
<g id="edge50" class="edge"><title>Node1&#45;&gt;Node31</title>
<path fill="none" stroke="midnightblue" d="M1333.99,-257.475C1353.52,-248.927 1384.21,-235.501 1409.19,-224.573"/>
<polygon fill="midnightblue" stroke="midnightblue" points="1410.69,-227.738 1418.45,-220.523 1407.88,-221.325 1410.69,-227.738"/>
</g>
<!-- Node32 -->
<g id="node32" class="node"><title>Node32</title>
<polygon fill="none" stroke="#bfbfbf" points="1536.5,-196 1536.5,-215 1580.5,-215 1580.5,-196 1536.5,-196"/>
<text text-anchor="middle" x="1558.5" y="-203" font-family="Helvetica,sans-Serif" font-size="10.00">TH1.h</text>
</g>
<!-- Node1&#45;&gt;Node32 -->
<g id="edge51" class="edge"><title>Node1&#45;&gt;Node32</title>
<path fill="none" stroke="midnightblue" d="M1370.72,-257.48C1413.96,-250.114 1474.85,-237.963 1526.5,-221 1528.37,-220.386 1530.27,-219.697 1532.18,-218.961"/>
<polygon fill="midnightblue" stroke="midnightblue" points="1533.65,-222.139 1541.5,-215.025 1530.93,-215.691 1533.65,-222.139"/>
</g>
<!-- Node33 -->
<g id="node33" class="node"><title>Node33</title>
<polygon fill="none" stroke="#bfbfbf" points="1599,-196 1599,-215 1664,-215 1664,-196 1599,-196"/>
<text text-anchor="middle" x="1631.5" y="-203" font-family="Helvetica,sans-Serif" font-size="10.00">TCanvas.h</text>
</g>
<!-- Node1&#45;&gt;Node33 -->
<g id="edge52" class="edge"><title>Node1&#45;&gt;Node33</title>
<path fill="none" stroke="midnightblue" d="M1387.57,-257.489C1443.39,-250.16 1521.96,-238.054 1589.5,-221 1592.72,-220.188 1596.04,-219.24 1599.34,-218.224"/>
<polygon fill="midnightblue" stroke="midnightblue" points="1600.63,-221.482 1609.04,-215.042 1598.45,-214.83 1600.63,-221.482"/>
</g>
<!-- Node34 -->
<g id="node34" class="node"><title>Node34</title>
<polygon fill="none" stroke="#bfbfbf" points="1682,-196 1682,-215 1755,-215 1755,-196 1682,-196"/>
<text text-anchor="middle" x="1718.5" y="-203" font-family="Helvetica,sans-Serif" font-size="10.00">TPaveText.h</text>
</g>
<!-- Node1&#45;&gt;Node34 -->
<g id="edge53" class="edge"><title>Node1&#45;&gt;Node34</title>
<path fill="none" stroke="midnightblue" d="M1396.25,-259.947C1469.28,-253.543 1578.87,-241.466 1672.5,-221 1676.44,-220.139 1680.52,-219.09 1684.55,-217.953"/>
<polygon fill="midnightblue" stroke="midnightblue" points="1685.8,-221.233 1694.37,-215.005 1683.79,-214.529 1685.8,-221.233"/>
</g>
<!-- Node3 -->
<g id="node3" class="node"><title>Node3</title>
<g id="a_node3"><a xlink:href="PostProcessingInterface_8h.html" target="_top" xlink:title="QualityControl/PostProcessing\lInterface.h">
<polygon fill="none" stroke="black" points="228,-123.5 228,-153.5 379,-153.5 379,-123.5 228,-123.5"/>
<text text-anchor="start" x="236" y="-141.5" font-family="Helvetica,sans-Serif" font-size="10.00">QualityControl/PostProcessing</text>
<text text-anchor="middle" x="303.5" y="-130.5" font-family="Helvetica,sans-Serif" font-size="10.00">Interface.h</text>
</a>
</g>
</g>
<!-- Node2&#45;&gt;Node3 -->
<g id="edge2" class="edge"><title>Node2&#45;&gt;Node3</title>
<path fill="none" stroke="midnightblue" d="M407.316,-195.734C389.773,-186.231 361.242,-170.777 338.525,-158.472"/>
<polygon fill="midnightblue" stroke="midnightblue" points="339.97,-155.274 329.51,-153.589 336.636,-161.429 339.97,-155.274"/>
</g>
<!-- Node8 -->
<g id="node8" class="node"><title>Node8</title>
<g id="a_node8"><a xlink:href="TrendingTaskConfig_8h.html" target="_top" xlink:title="QualityControl/TrendingTask\lConfig.h">
<polygon fill="none" stroke="black" points="0,-123.5 0,-153.5 141,-153.5 141,-123.5 0,-123.5"/>
<text text-anchor="start" x="8" y="-141.5" font-family="Helvetica,sans-Serif" font-size="10.00">QualityControl/TrendingTask</text>
<text text-anchor="middle" x="70.5" y="-130.5" font-family="Helvetica,sans-Serif" font-size="10.00">Config.h</text>
</a>
</g>
</g>
<!-- Node2&#45;&gt;Node8 -->
<g id="edge8" class="edge"><title>Node2&#45;&gt;Node8</title>
<path fill="none" stroke="midnightblue" d="M376.988,-195.936C319.62,-185.372 221.138,-167.238 151.304,-154.379"/>
<polygon fill="midnightblue" stroke="midnightblue" points="151.685,-150.89 141.217,-152.521 150.417,-157.775 151.685,-150.89"/>
</g>
<!-- Node2&#45;&gt;Node11 -->
<g id="edge14" class="edge"><title>Node2&#45;&gt;Node11</title>
<path fill="none" stroke="midnightblue" d="M461.315,-195.936C513.152,-184.196 606.274,-163.105 662.827,-150.297"/>
<polygon fill="midnightblue" stroke="midnightblue" points="663.621,-153.706 672.601,-148.083 662.075,-146.879 663.621,-153.706"/>
</g>
<!-- Node13 -->
<g id="node13" class="node"><title>Node13</title>
<polygon fill="none" stroke="#bfbfbf" points="397.5,-129 397.5,-148 449.5,-148 449.5,-129 397.5,-129"/>
<text text-anchor="middle" x="423.5" y="-136" font-family="Helvetica,sans-Serif" font-size="10.00">memory</text>
</g>
<!-- Node2&#45;&gt;Node13 -->
<g id="edge16" class="edge"><title>Node2&#45;&gt;Node13</title>
<path fill="none" stroke="midnightblue" d="M423.5,-195.734C423.5,-186.183 423.5,-170.618 423.5,-158.283"/>
<polygon fill="midnightblue" stroke="midnightblue" points="427,-158.127 423.5,-148.127 420,-158.127 427,-158.127"/>
</g>
<!-- Node14 -->
<g id="node14" class="node"><title>Node14</title>
<polygon fill="none" stroke="#bfbfbf" points="468,-129 468,-148 551,-148 551,-129 468,-129"/>
<text text-anchor="middle" x="509.5" y="-136" font-family="Helvetica,sans-Serif" font-size="10.00">unordered_map</text>
</g>
<!-- Node2&#45;&gt;Node14 -->
<g id="edge17" class="edge"><title>Node2&#45;&gt;Node14</title>
<path fill="none" stroke="midnightblue" d="M435.098,-195.734C449.154,-185.111 473.051,-167.049 489.966,-154.264"/>
<polygon fill="midnightblue" stroke="midnightblue" points="492.218,-156.949 498.085,-148.127 487.997,-151.365 492.218,-156.949"/>
</g>
<!-- Node15 -->
<g id="node15" class="node"><title>Node15</title>
<polygon fill="none" stroke="#bfbfbf" points="159.5,-129 159.5,-148 209.5,-148 209.5,-129 159.5,-129"/>
<text text-anchor="middle" x="184.5" y="-136" font-family="Helvetica,sans-Serif" font-size="10.00">TTree.h</text>
</g>
<!-- Node2&#45;&gt;Node15 -->
<g id="edge18" class="edge"><title>Node2&#45;&gt;Node15</title>
<path fill="none" stroke="midnightblue" d="M380.127,-195.946C338.233,-187.188 273.257,-172.287 218.5,-154 216.583,-153.36 214.622,-152.657 212.659,-151.918"/>
<polygon fill="midnightblue" stroke="midnightblue" points="213.58,-148.516 202.996,-148.029 210.966,-155.01 213.58,-148.516"/>
</g>
<!-- Node4 -->
<g id="node4" class="node"><title>Node4</title>
<polygon fill="none" stroke="#bfbfbf" points="559,-0.5 559,-19.5 600,-19.5 600,-0.5 559,-0.5"/>
<text text-anchor="middle" x="579.5" y="-7.5" font-family="Helvetica,sans-Serif" font-size="10.00">string</text>
</g>
<!-- Node3&#45;&gt;Node4 -->
<g id="edge3" class="edge"><title>Node3&#45;&gt;Node4</title>
<path fill="none" stroke="midnightblue" d="M375.542,-123.449C434.457,-111.536 510.012,-95.1278 522.5,-87 544.686,-72.5604 561.458,-46.3533 570.884,-28.8099"/>
<polygon fill="midnightblue" stroke="midnightblue" points="574.138,-30.1338 575.57,-19.6362 567.904,-26.9493 574.138,-30.1338"/>
</g>
<!-- Node5 -->
<g id="node5" class="node"><title>Node5</title>
<polygon fill="none" stroke="#bfbfbf" points="367.5,-62 367.5,-81 513.5,-81 513.5,-62 367.5,-62"/>
<text text-anchor="middle" x="440.5" y="-69" font-family="Helvetica,sans-Serif" font-size="10.00">Framework/ServiceRegistry.h</text>
</g>
<!-- Node3&#45;&gt;Node5 -->
<g id="edge4" class="edge"><title>Node3&#45;&gt;Node5</title>
<path fill="none" stroke="midnightblue" d="M333.227,-123.396C357.052,-112.092 390.209,-96.3607 413.331,-85.3903"/>
<polygon fill="midnightblue" stroke="midnightblue" points="415.035,-88.4557 422.57,-81.007 412.035,-82.1314 415.035,-88.4557"/>
</g>
<!-- Node6 -->
<g id="node6" class="node"><title>Node6</title>
<g id="a_node6"><a xlink:href="Triggers_8h.html" target="_top" xlink:title="QualityControl/Triggers.h">
<polygon fill="none" stroke="black" points="224,-62 224,-81 349,-81 349,-62 224,-62"/>
<text text-anchor="middle" x="286.5" y="-69" font-family="Helvetica,sans-Serif" font-size="10.00">QualityControl/Triggers.h</text>
</a>
</g>
</g>
<!-- Node3&#45;&gt;Node6 -->
<g id="edge5" class="edge"><title>Node3&#45;&gt;Node6</title>
<path fill="none" stroke="midnightblue" d="M299.811,-123.396C297.344,-113.963 294.071,-101.448 291.388,-91.1891"/>
<polygon fill="midnightblue" stroke="midnightblue" points="294.69,-89.9835 288.774,-81.1945 287.918,-91.7548 294.69,-89.9835"/>
</g>
<!-- Node6&#45;&gt;Node4 -->
<g id="edge6" class="edge"><title>Node6&#45;&gt;Node4</title>
<path fill="none" stroke="midnightblue" d="M328.48,-61.9751C388.139,-49.86 496.051,-27.9461 548.801,-17.2341"/>
<polygon fill="midnightblue" stroke="midnightblue" points="549.781,-20.6067 558.884,-15.1865 548.388,-13.7467 549.781,-20.6067"/>
</g>
<!-- Node7 -->
<g id="node7" class="node"><title>Node7</title>
<polygon fill="none" stroke="#bfbfbf" points="257,-0.5 257,-19.5 316,-19.5 316,-0.5 257,-0.5"/>
<text text-anchor="middle" x="286.5" y="-7.5" font-family="Helvetica,sans-Serif" font-size="10.00">functional</text>
</g>
<!-- Node6&#45;&gt;Node7 -->
<g id="edge7" class="edge"><title>Node6&#45;&gt;Node7</title>
<path fill="none" stroke="midnightblue" d="M286.5,-61.9751C286.5,-53.5803 286.5,-40.4806 286.5,-29.6631"/>
<polygon fill="midnightblue" stroke="midnightblue" points="290,-29.5091 286.5,-19.5091 283,-29.5091 290,-29.5091"/>
</g>
<!-- Node8&#45;&gt;Node4 -->
<g id="edge10" class="edge"><title>Node8&#45;&gt;Node4</title>
<path fill="none" stroke="midnightblue" d="M104.616,-123.415C125.668,-114.165 152.877,-101.182 175.5,-87 194.261,-75.2394 194.081,-64.5641 214.5,-56 274.687,-30.756 471.533,-17.1321 548.376,-12.6686"/>
<polygon fill="midnightblue" stroke="midnightblue" points="549.027,-16.1374 558.812,-12.0762 548.63,-9.14866 549.027,-16.1374"/>
</g>
<!-- Node9 -->
<g id="node9" class="node"><title>Node9</title>
<polygon fill="none" stroke="#bfbfbf" points="69.5,-0.5 69.5,-19.5 113.5,-19.5 113.5,-0.5 69.5,-0.5"/>
<text text-anchor="middle" x="91.5" y="-7.5" font-family="Helvetica,sans-Serif" font-size="10.00">vector</text>
</g>
<!-- Node8&#45;&gt;Node9 -->
<g id="edge9" class="edge"><title>Node8&#45;&gt;Node9</title>
<path fill="none" stroke="midnightblue" d="M42.775,-123.456C29.1649,-114.935 14.0939,-102.665 6.5,-87 0.490025,-74.6021 -0.606665,-67.8035 6.5,-56 18.0147,-36.8752 40.6854,-25.4528 59.7192,-18.9038"/>
<polygon fill="midnightblue" stroke="midnightblue" points="60.7699,-22.2424 69.2628,-15.9083 58.6736,-15.5637 60.7699,-22.2424"/>
</g>
<!-- Node10 -->
<g id="node10" class="node"><title>Node10</title>
<g id="a_node10"><a xlink:href="PostProcessingConfig_8h.html" target="_top" xlink:title="QualityControl/PostProcessing\lConfig.h">
<polygon fill="none" stroke="black" points="16,-56.5 16,-86.5 167,-86.5 167,-56.5 16,-56.5"/>
<text text-anchor="start" x="24" y="-74.5" font-family="Helvetica,sans-Serif" font-size="10.00">QualityControl/PostProcessing</text>
<text text-anchor="middle" x="91.5" y="-63.5" font-family="Helvetica,sans-Serif" font-size="10.00">Config.h</text>
</a>
</g>
</g>
<!-- Node8&#45;&gt;Node10 -->
<g id="edge11" class="edge"><title>Node8&#45;&gt;Node10</title>
<path fill="none" stroke="midnightblue" d="M75.0567,-123.396C77.6159,-115.474 80.8776,-105.379 83.8201,-96.2712"/>
<polygon fill="midnightblue" stroke="midnightblue" points="87.2083,-97.1682 86.9522,-86.5765 80.5473,-95.0162 87.2083,-97.1682"/>
</g>
<!-- Node10&#45;&gt;Node4 -->
<g id="edge13" class="edge"><title>Node10&#45;&gt;Node4</title>
<path fill="none" stroke="midnightblue" d="M167.083,-58.0576C171.959,-57.3371 176.796,-56.6445 181.5,-56 317.895,-37.3124 481.361,-20.6157 548.453,-14.0071"/>
<polygon fill="midnightblue" stroke="midnightblue" points="549.129,-17.4576 558.74,-12.9986 548.446,-10.491 549.129,-17.4576"/>
</g>
<!-- Node10&#45;&gt;Node9 -->
<g id="edge12" class="edge"><title>Node10&#45;&gt;Node9</title>
<path fill="none" stroke="midnightblue" d="M91.5,-56.3993C91.5,-48.4664 91.5,-38.458 91.5,-29.8583"/>
<polygon fill="midnightblue" stroke="midnightblue" points="95.0001,-29.6577 91.5,-19.6578 88.0001,-29.6578 95.0001,-29.6577"/>
</g>
<!-- Node12 -->
<g id="node12" class="node"><title>Node12</title>
<polygon fill="none" stroke="#bfbfbf" points="857,-62 857,-81 916,-81 916,-62 857,-62"/>
<text text-anchor="middle" x="886.5" y="-69" font-family="Helvetica,sans-Serif" font-size="10.00">TObject.h</text>
</g>
<!-- Node11&#45;&gt;Node12 -->
<g id="edge15" class="edge"><title>Node11&#45;&gt;Node12</title>
<path fill="none" stroke="midnightblue" d="M733.778,-128.942C761.042,-118.913 807.562,-101.785 847.5,-87 849.592,-86.2257 851.746,-85.4272 853.917,-84.6217"/>
<polygon fill="midnightblue" stroke="midnightblue" points="855.251,-87.8602 863.407,-81.098 852.814,-81.298 855.251,-87.8602"/>
</g>
<!-- Node17 -->
<g id="node17" class="node"><title>Node17</title>
<polygon fill="none" stroke="#bfbfbf" points="1598.5,-62 1598.5,-81 1728.5,-81 1728.5,-62 1598.5,-62"/>
<text text-anchor="middle" x="1663.5" y="-69" font-family="Helvetica,sans-Serif" font-size="10.00">InfoLogger/InfoLogger.hxx</text>
</g>
<!-- Node16&#45;&gt;Node17 -->
<g id="edge20" class="edge"><title>Node16&#45;&gt;Node17</title>
<path fill="none" stroke="midnightblue" d="M1663.5,-128.734C1663.5,-119.183 1663.5,-103.618 1663.5,-91.2829"/>
<polygon fill="midnightblue" stroke="midnightblue" points="1667,-91.1273 1663.5,-81.1273 1660,-91.1273 1667,-91.1273"/>
</g>
<!-- Node18&#45;&gt;Node4 -->
<g id="edge22" class="edge"><title>Node18&#45;&gt;Node4</title>
<path fill="none" stroke="midnightblue" d="M616.52,-195.712C613.85,-172.614 605.813,-108.37 593.5,-56 591.391,-47.0285 588.427,-37.2399 585.769,-29.0901"/>
<polygon fill="midnightblue" stroke="midnightblue" points="589.058,-27.8874 582.549,-19.5271 582.424,-30.1212 589.058,-27.8874"/>
</g>
<!-- Node18&#45;&gt;Node9 -->
<g id="edge24" class="edge"><title>Node18&#45;&gt;Node9</title>
<path fill="none" stroke="midnightblue" d="M614.939,-195.867C606.631,-169.552 577.718,-90.0715 522.5,-56 488.747,-35.173 218.158,-18.124 123.81,-12.7604"/>
<polygon fill="midnightblue" stroke="midnightblue" points="123.891,-9.25958 113.711,-12.1928 123.498,-16.2486 123.891,-9.25958"/>
</g>
<!-- Node18&#45;&gt;Node13 -->
<g id="edge23" class="edge"><title>Node18&#45;&gt;Node13</title>
<path fill="none" stroke="midnightblue" d="M587.942,-195.935C555.822,-186.437 503.117,-170.294 458.5,-154 456.647,-153.323 454.747,-152.606 452.837,-151.867"/>
<polygon fill="midnightblue" stroke="midnightblue" points="453.959,-148.546 443.374,-148.078 451.356,-155.044 453.959,-148.546"/>
</g>
<!-- Node18&#45;&gt;Node14 -->
<g id="edge25" class="edge"><title>Node18&#45;&gt;Node14</title>
<path fill="none" stroke="midnightblue" d="M602.935,-195.734C584.879,-184.867 553.89,-166.216 532.584,-153.393"/>
<polygon fill="midnightblue" stroke="midnightblue" points="534.207,-150.285 523.835,-148.127 530.598,-156.283 534.207,-150.285"/>
</g>
<!-- Node19 -->
<g id="node19" class="node"><title>Node19</title>
<g id="a_node19"><a xlink:href="QualityObject_8h_source.html" target="_top" xlink:title="QualityControl/QualityObject.h">
<polygon fill="none" stroke="black" points="794,-129 794,-148 943,-148 943,-129 794,-129"/>
<text text-anchor="middle" x="868.5" y="-136" font-family="Helvetica,sans-Serif" font-size="10.00">QualityControl/QualityObject.h</text>
</a>
</g>
</g>
<!-- Node18&#45;&gt;Node19 -->
<g id="edge26" class="edge"><title>Node18&#45;&gt;Node19</title>
<path fill="none" stroke="midnightblue" d="M650.572,-195.936C695.531,-184.293 776.001,-163.454 825.571,-150.617"/>
<polygon fill="midnightblue" stroke="midnightblue" points="826.552,-153.979 835.355,-148.083 824.797,-147.202 826.552,-153.979"/>
</g>
<!-- Node18&#45;&gt;Node25 -->
<g id="edge34" class="edge"><title>Node18&#45;&gt;Node25</title>
<path fill="none" stroke="midnightblue" d="M676.077,-195.986C742.807,-186.206 855.095,-169.509 951.5,-154 959.892,-152.65 968.743,-151.185 977.437,-149.724"/>
<polygon fill="midnightblue" stroke="midnightblue" points="978.257,-153.135 987.533,-148.016 977.089,-146.233 978.257,-153.135"/>
</g>
<!-- Node19&#45;&gt;Node12 -->
<g id="edge29" class="edge"><title>Node19&#45;&gt;Node12</title>
<path fill="none" stroke="midnightblue" d="M870.928,-128.734C873.599,-119.085 877.971,-103.3 881.403,-90.9063"/>
<polygon fill="midnightblue" stroke="midnightblue" points="884.815,-91.6987 884.111,-81.1273 878.069,-89.8305 884.815,-91.6987"/>
</g>
<!-- Node20 -->
<g id="node20" class="node"><title>Node20</title>
<polygon fill="none" stroke="#bfbfbf" points="645.5,-62 645.5,-81 699.5,-81 699.5,-62 645.5,-62"/>
<text text-anchor="middle" x="672.5" y="-69" font-family="Helvetica,sans-Serif" font-size="10.00">iostream</text>
</g>
<!-- Node19&#45;&gt;Node20 -->
<g id="edge27" class="edge"><title>Node19&#45;&gt;Node20</title>
<path fill="none" stroke="midnightblue" d="M839.077,-128.956C806.807,-119.414 753.604,-103.174 708.5,-87 706.597,-86.3177 704.646,-85.5962 702.684,-84.854"/>
<polygon fill="midnightblue" stroke="midnightblue" points="703.544,-81.4325 692.956,-81.0569 700.999,-87.9534 703.544,-81.4325"/>
</g>
<!-- Node21 -->
<g id="node21" class="node"><title>Node21</title>
<polygon fill="none" stroke="#bfbfbf" points="934,-62 934,-81 969,-81 969,-62 934,-62"/>
<text text-anchor="middle" x="951.5" y="-69" font-family="Helvetica,sans-Serif" font-size="10.00">map</text>
</g>
<!-- Node19&#45;&gt;Node21 -->
<g id="edge28" class="edge"><title>Node19&#45;&gt;Node21</title>
<path fill="none" stroke="midnightblue" d="M879.694,-128.734C893.134,-118.208 915.9,-100.379 932.196,-87.6174"/>
<polygon fill="midnightblue" stroke="midnightblue" points="934.769,-90.0486 940.484,-81.1273 930.453,-84.5374 934.769,-90.0486"/>
</g>
<!-- Node22 -->
<g id="node22" class="node"><title>Node22</title>
<polygon fill="none" stroke="#bfbfbf" points="1025.5,-62 1025.5,-81 1141.5,-81 1141.5,-62 1025.5,-62"/>
<text text-anchor="middle" x="1083.5" y="-69" font-family="Helvetica,sans-Serif" font-size="10.00">Common/Exceptions.h</text>
</g>
<!-- Node19&#45;&gt;Node22 -->
<g id="edge30" class="edge"><title>Node19&#45;&gt;Node22</title>
<path fill="none" stroke="midnightblue" d="M897.05,-128.869C935.226,-117.327 1003.01,-96.8354 1045.48,-83.9956"/>
<polygon fill="midnightblue" stroke="midnightblue" points="1046.61,-87.3079 1055.17,-81.0637 1044.59,-80.6074 1046.61,-87.3079"/>
</g>
<!-- Node23 -->
<g id="node23" class="node"><title>Node23</title>
<g id="a_node23"><a xlink:href="Quality_8h.html" target="_top" xlink:title="QualityControl/Quality.h">
<polygon fill="none" stroke="black" points="718,-62 718,-81 839,-81 839,-62 718,-62"/>
<text text-anchor="middle" x="778.5" y="-69" font-family="Helvetica,sans-Serif" font-size="10.00">QualityControl/Quality.h</text>
</a>
</g>
</g>
<!-- Node19&#45;&gt;Node23 -->
<g id="edge31" class="edge"><title>Node19&#45;&gt;Node23</title>
<path fill="none" stroke="midnightblue" d="M856.362,-128.734C841.653,-118.111 816.644,-100.049 798.943,-87.2642"/>
<polygon fill="midnightblue" stroke="midnightblue" points="800.602,-84.1449 790.445,-81.1273 796.503,-89.8196 800.602,-84.1449"/>
</g>
<!-- Node23&#45;&gt;Node4 -->
<g id="edge33" class="edge"><title>Node23&#45;&gt;Node4</title>
<path fill="none" stroke="midnightblue" d="M749.988,-61.9751C712.855,-50.8725 648.199,-31.5406 610.077,-20.1423"/>
<polygon fill="midnightblue" stroke="midnightblue" points="610.657,-16.6627 600.073,-17.1513 608.651,-23.3693 610.657,-16.6627"/>
</g>
<!-- Node24 -->
<g id="node24" class="node"><title>Node24</title>
<polygon fill="none" stroke="#bfbfbf" points="945.5,-0.5 945.5,-19.5 1001.5,-19.5 1001.5,-0.5 945.5,-0.5"/>
<text text-anchor="middle" x="973.5" y="-7.5" font-family="Helvetica,sans-Serif" font-size="10.00">Rtypes.h</text>
</g>
<!-- Node23&#45;&gt;Node24 -->
<g id="edge32" class="edge"><title>Node23&#45;&gt;Node24</title>
<path fill="none" stroke="midnightblue" d="M806.439,-61.9751C840.467,-51.592 898.084,-34.0116 935.962,-22.4538"/>
<polygon fill="midnightblue" stroke="midnightblue" points="937.07,-25.7752 945.613,-19.5091 935.027,-19.08 937.07,-25.7752"/>
</g>
<!-- Node25&#45;&gt;Node4 -->
<g id="edge35" class="edge"><title>Node25&#45;&gt;Node4</title>
<path fill="none" stroke="midnightblue" d="M1033.06,-128.748C1025.75,-111.471 1006.92,-73.1722 977.5,-56 915.285,-19.6816 693.061,-12.6746 610.595,-11.323"/>
<polygon fill="midnightblue" stroke="midnightblue" points="610.409,-7.82 600.359,-11.173 610.307,-14.8192 610.409,-7.82"/>
</g>
<!-- Node25&#45;&gt;Node12 -->
<g id="edge38" class="edge"><title>Node25&#45;&gt;Node12</title>
<path fill="none" stroke="midnightblue" d="M1016.58,-128.869C990.805,-117.699 945.685,-98.1468 915.947,-85.2602"/>
<polygon fill="midnightblue" stroke="midnightblue" points="917.068,-81.9319 906.501,-81.1672 914.285,-88.3548 917.068,-81.9319"/>
</g>
<!-- Node25&#45;&gt;Node21 -->
<g id="edge36" class="edge"><title>Node25&#45;&gt;Node21</title>
<path fill="none" stroke="midnightblue" d="M1025.04,-128.734C1011.14,-118.111 987.525,-100.049 970.807,-87.2642"/>
<polygon fill="midnightblue" stroke="midnightblue" points="972.852,-84.4216 962.782,-81.1273 968.599,-89.9821 972.852,-84.4216"/>
</g>
<!-- Node25&#45;&gt;Node22 -->
<g id="edge39" class="edge"><title>Node25&#45;&gt;Node22</title>
<path fill="none" stroke="midnightblue" d="M1042.84,-128.734C1050.1,-118.695 1062.16,-102.014 1071.26,-89.4213"/>
<polygon fill="midnightblue" stroke="midnightblue" points="1074.24,-91.2816 1077.26,-81.1273 1068.57,-87.18 1074.24,-91.2816"/>
</g>
<!-- Node25&#45;&gt;Node24 -->
<g id="edge37" class="edge"><title>Node25&#45;&gt;Node24</title>
<path fill="none" stroke="midnightblue" d="M1069.2,-128.934C1111.58,-116.235 1177.08,-90.1871 1150.5,-56 1133.63,-34.3004 1058.42,-21.3522 1011.63,-15.2549"/>
<polygon fill="midnightblue" stroke="midnightblue" points="1011.9,-11.7612 1001.54,-13.9883 1011.03,-18.7067 1011.9,-11.7612"/>
</g>
<!-- Node26&#45;&gt;Node4 -->
<g id="edge43" class="edge"><title>Node26&#45;&gt;Node4</title>
<path fill="none" stroke="midnightblue" d="M1310.96,-195.945C1332.92,-188.709 1359.15,-175.899 1372.5,-154 1379.67,-142.236 1380.72,-134.061 1372.5,-123 1311.05,-40.2631 1251.79,-75.0469 1150.5,-56 946.897,-17.7128 696.509,-11.9398 610.334,-11.1173"/>
<polygon fill="midnightblue" stroke="midnightblue" points="610.222,-7.61635 600.194,-11.0367 610.166,-14.6161 610.222,-7.61635"/>
</g>
<!-- Node26&#45;&gt;Node16 -->
<g id="edge49" class="edge"><title>Node26&#45;&gt;Node16</title>
<path fill="none" stroke="midnightblue" d="M1311.41,-195.935C1320.87,-193.866 1331.04,-191.75 1340.5,-190 1446.13,-170.464 1473.46,-171.137 1579.5,-154 1587.8,-152.659 1596.54,-151.2 1605.14,-149.741"/>
<polygon fill="midnightblue" stroke="midnightblue" points="1605.85,-153.17 1615.11,-148.035 1604.67,-146.27 1605.85,-153.17"/>
</g>
<!-- Node26&#45;&gt;Node22 -->
<g id="edge44" class="edge"><title>Node26&#45;&gt;Node22</title>
<path fill="none" stroke="midnightblue" d="M1300.8,-195.941C1319.74,-188.236 1343.92,-174.865 1355.5,-154 1362.19,-141.953 1364.31,-133.594 1355.5,-123 1330.11,-92.4636 1224.03,-80.3059 1152.09,-75.5249"/>
<polygon fill="midnightblue" stroke="midnightblue" points="1151.94,-72.0085 1141.74,-74.8717 1151.5,-78.9946 1151.94,-72.0085"/>
</g>
<!-- Node27 -->
<g id="node27" class="node"><title>Node27</title>
<polygon fill="none" stroke="#bfbfbf" points="1130.5,-129 1130.5,-148 1186.5,-148 1186.5,-129 1130.5,-129"/>
<text text-anchor="middle" x="1158.5" y="-136" font-family="Helvetica,sans-Serif" font-size="10.00">TClass.h</text>
</g>
<!-- Node26&#45;&gt;Node27 -->
<g id="edge45" class="edge"><title>Node26&#45;&gt;Node27</title>
<path fill="none" stroke="midnightblue" d="M1258.86,-195.734C1239.29,-184.769 1205.58,-165.881 1182.68,-153.049"/>
<polygon fill="midnightblue" stroke="midnightblue" points="1184.33,-149.962 1173.9,-148.127 1180.91,-156.069 1184.33,-149.962"/>
</g>
<!-- Node28 -->
<g id="node28" class="node"><title>Node28</title>
<polygon fill="none" stroke="#bfbfbf" points="1205,-129 1205,-148 1264,-148 1264,-129 1205,-129"/>
<text text-anchor="middle" x="1234.5" y="-136" font-family="Helvetica,sans-Serif" font-size="10.00">TROOT.h</text>
</g>
<!-- Node26&#45;&gt;Node28 -->
<g id="edge46" class="edge"><title>Node26&#45;&gt;Node28</title>
<path fill="none" stroke="midnightblue" d="M1269.11,-195.734C1262.99,-185.793 1252.86,-169.338 1245.14,-156.789"/>
<polygon fill="midnightblue" stroke="midnightblue" points="1248.03,-154.81 1239.81,-148.127 1242.07,-158.478 1248.03,-154.81"/>
</g>
<!-- Node29 -->
<g id="node29" class="node"><title>Node29</title>
<polygon fill="none" stroke="#bfbfbf" points="1282,-129 1282,-148 1347,-148 1347,-129 1282,-129"/>
<text text-anchor="middle" x="1314.5" y="-136" font-family="Helvetica,sans-Serif" font-size="10.00">TSystem.h</text>
</g>
<!-- Node26&#45;&gt;Node29 -->
<g id="edge47" class="edge"><title>Node26&#45;&gt;Node29</title>
<path fill="none" stroke="midnightblue" d="M1279.89,-195.734C1286.01,-185.793 1296.14,-169.338 1303.86,-156.789"/>
<polygon fill="midnightblue" stroke="midnightblue" points="1306.93,-158.478 1309.19,-148.127 1300.97,-154.81 1306.93,-158.478"/>
</g>
<!-- Node30 -->
<g id="node30" class="node"><title>Node30</title>
<polygon fill="none" stroke="#bfbfbf" points="1442,-129 1442,-148 1571,-148 1571,-129 1442,-129"/>
<text text-anchor="middle" x="1506.5" y="-136" font-family="Helvetica,sans-Serif" font-size="10.00">boost/filesystem/path.hpp</text>
</g>
<!-- Node26&#45;&gt;Node30 -->
<g id="edge48" class="edge"><title>Node26&#45;&gt;Node30</title>
<path fill="none" stroke="midnightblue" d="M1305.31,-195.869C1346.68,-184.278 1420.26,-163.662 1466.05,-150.834"/>
<polygon fill="midnightblue" stroke="midnightblue" points="1467.25,-154.132 1475.93,-148.064 1465.36,-147.391 1467.25,-154.132"/>
</g>
</g>
</svg>
