<?xml version="1.0" encoding="UTF-8" standalone="no"?>
<!DOCTYPE svg PUBLIC "-//W3C//DTD SVG 1.1//EN"
 "http://www.w3.org/Graphics/SVG/1.1/DTD/svg11.dtd">
<!-- Generated by graphviz version 2.38.0 (20140413.2041)
 -->
<!-- Title: Framework/src/Triggers.cxx Pages: 1 -->
<svg width="416pt" height="140pt"
 viewBox="0.00 0.00 415.50 140.00" xmlns="http://www.w3.org/2000/svg" xmlns:xlink="http://www.w3.org/1999/xlink">
<g id="graph0" class="graph" transform="scale(1 1) rotate(0) translate(4 136)">
<title>Framework/src/Triggers.cxx</title>
<!-- Node1 -->
<g id="node1" class="node"><title>Node1</title>
<polygon fill="#bfbfbf" stroke="black" points="153,-112.5 153,-131.5 292,-131.5 292,-112.5 153,-112.5"/>
<text text-anchor="middle" x="222.5" y="-119.5" font-family="Helvetica,sans-Serif" font-size="10.00">Framework/src/Triggers.cxx</text>
</g>
<!-- Node2 -->
<g id="node2" class="node"><title>Node2</title>
<g id="a_node2"><a xlink:href="Triggers_8h.html" target="_top" xlink:title="QualityControl/Triggers.h">
<polygon fill="none" stroke="black" points="5,-56.5 5,-75.5 130,-75.5 130,-56.5 5,-56.5"/>
<text text-anchor="middle" x="67.5" y="-63.5" font-family="Helvetica,sans-Serif" font-size="10.00">QualityControl/Triggers.h</text>
</a>
</g>
</g>
<!-- Node1&#45;&gt;Node2 -->
<g id="edge1" class="edge"><title>Node1&#45;&gt;Node2</title>
<path fill="none" stroke="midnightblue" d="M197.94,-112.444C171.977,-103.399 130.832,-89.064 101.703,-78.9158"/>
<polygon fill="midnightblue" stroke="midnightblue" points="102.54,-75.5013 91.9453,-75.5164 100.237,-82.1116 102.54,-75.5013"/>
</g>
<!-- Node5 -->
<g id="node5" class="node"><title>Node5</title>
<g id="a_node5"><a xlink:href="QcInfoLogger_8h.html" target="_top" xlink:title="QualityControl/QcInfoLogger.h">
<polygon fill="none" stroke="black" points="148,-56.5 148,-75.5 297,-75.5 297,-56.5 148,-56.5"/>
<text text-anchor="middle" x="222.5" y="-63.5" font-family="Helvetica,sans-Serif" font-size="10.00">QualityControl/QcInfoLogger.h</text>
</a>
</g>
</g>
<!-- Node1&#45;&gt;Node5 -->
<g id="edge4" class="edge"><title>Node1&#45;&gt;Node5</title>
<path fill="none" stroke="midnightblue" d="M222.5,-112.083C222.5,-105.006 222.5,-94.8611 222.5,-85.9865"/>
<polygon fill="midnightblue" stroke="midnightblue" points="226,-85.751 222.5,-75.7511 219,-85.7511 226,-85.751"/>
</g>
<!-- Node7 -->
<g id="node7" class="node"><title>Node7</title>
<polygon fill="none" stroke="#bfbfbf" points="315.5,-56.5 315.5,-75.5 407.5,-75.5 407.5,-56.5 315.5,-56.5"/>
<text text-anchor="middle" x="361.5" y="-63.5" font-family="Helvetica,sans-Serif" font-size="10.00">Common/Timer.h</text>
</g>
<!-- Node1&#45;&gt;Node7 -->
<g id="edge6" class="edge"><title>Node1&#45;&gt;Node7</title>
<path fill="none" stroke="midnightblue" d="M244.525,-112.444C267.604,-103.478 304.062,-89.314 330.141,-79.1827"/>
<polygon fill="midnightblue" stroke="midnightblue" points="331.524,-82.4002 339.578,-75.5164 328.989,-75.8753 331.524,-82.4002"/>
</g>
<!-- Node3 -->
<g id="node3" class="node"><title>Node3</title>
<polygon fill="none" stroke="#bfbfbf" points="0,-0.5 0,-19.5 41,-19.5 41,-0.5 0,-0.5"/>
<text text-anchor="middle" x="20.5" y="-7.5" font-family="Helvetica,sans-Serif" font-size="10.00">string</text>
</g>
<!-- Node2&#45;&gt;Node3 -->
<g id="edge2" class="edge"><title>Node2&#45;&gt;Node3</title>
<path fill="none" stroke="midnightblue" d="M59.7389,-56.083C52.9632,-48.2982 42.9568,-36.8015 34.7449,-27.3665"/>
<polygon fill="midnightblue" stroke="midnightblue" points="37.322,-24.9963 28.1167,-19.7511 32.0419,-29.592 37.322,-24.9963"/>
</g>
<!-- Node4 -->
<g id="node4" class="node"><title>Node4</title>
<polygon fill="none" stroke="#bfbfbf" points="59,-0.5 59,-19.5 118,-19.5 118,-0.5 59,-0.5"/>
<text text-anchor="middle" x="88.5" y="-7.5" font-family="Helvetica,sans-Serif" font-size="10.00">functional</text>
</g>
<!-- Node2&#45;&gt;Node4 -->
<g id="edge3" class="edge"><title>Node2&#45;&gt;Node4</title>
<path fill="none" stroke="midnightblue" d="M70.9677,-56.083C73.8117,-48.77 77.9295,-38.1814 81.4598,-29.1034"/>
<polygon fill="midnightblue" stroke="midnightblue" points="84.7343,-30.3397 85.0968,-19.7511 78.2103,-27.8025 84.7343,-30.3397"/>
</g>
<!-- Node6 -->
<g id="node6" class="node"><title>Node6</title>
<polygon fill="none" stroke="#bfbfbf" points="157.5,-0.5 157.5,-19.5 287.5,-19.5 287.5,-0.5 157.5,-0.5"/>
<text text-anchor="middle" x="222.5" y="-7.5" font-family="Helvetica,sans-Serif" font-size="10.00">InfoLogger/InfoLogger.hxx</text>
</g>
<!-- Node5&#45;&gt;Node6 -->
<g id="edge5" class="edge"><title>Node5&#45;&gt;Node6</title>
<path fill="none" stroke="midnightblue" d="M222.5,-56.083C222.5,-49.0059 222.5,-38.8611 222.5,-29.9865"/>
<polygon fill="midnightblue" stroke="midnightblue" points="226,-29.751 222.5,-19.7511 219,-29.7511 226,-29.751"/>
</g>
</g>
</svg>
