<?xml version="1.0" encoding="UTF-8" standalone="no"?>
<!DOCTYPE svg PUBLIC "-//W3C//DTD SVG 1.1//EN"
 "http://www.w3.org/Graphics/SVG/1.1/DTD/svg11.dtd">
<!-- Generated by graphviz version 2.38.0 (20140413.2041)
 -->
<!-- Title: Framework/include/QualityControl/Triggers.h Pages: 1 -->
<svg width="1457pt" height="240pt"
 viewBox="0.00 0.00 1456.50 240.00" xmlns="http://www.w3.org/2000/svg" xmlns:xlink="http://www.w3.org/1999/xlink">
<g id="graph0" class="graph" transform="scale(1 1) rotate(0) translate(4 236)">
<title>Framework/include/QualityControl/Triggers.h</title>
<!-- Node1 -->
<g id="node1" class="node"><title>Node1</title>
<polygon fill="#bfbfbf" stroke="black" points="709.5,-201.5 709.5,-231.5 842.5,-231.5 842.5,-201.5 709.5,-201.5"/>
<text text-anchor="start" x="717.5" y="-219.5" font-family="Helvetica,sans-Serif" font-size="10.00">Framework/include/Quality</text>
<text text-anchor="middle" x="776" y="-208.5" font-family="Helvetica,sans-Serif" font-size="10.00">Control/Triggers.h</text>
</g>
<!-- Node2 -->
<g id="node2" class="node"><title>Node2</title>
<g id="a_node2"><a xlink:href="PostProcessingInterface_8h.html" target="_top" xlink:title="Framework/include/Quality\lControl/PostProcessingInterface.h">
<polygon fill="none" stroke="black" points="748.5,-134.5 748.5,-164.5 915.5,-164.5 915.5,-134.5 748.5,-134.5"/>
<text text-anchor="start" x="756.5" y="-152.5" font-family="Helvetica,sans-Serif" font-size="10.00">Framework/include/Quality</text>
<text text-anchor="middle" x="832" y="-141.5" font-family="Helvetica,sans-Serif" font-size="10.00">Control/PostProcessingInterface.h</text>
</a>
</g>
</g>
<!-- Node1&#45;&gt;Node2 -->
<g id="edge1" class="edge"><title>Node1&#45;&gt;Node2</title>
<path fill="none" stroke="midnightblue" d="M794.75,-193.736C803.036,-184.119 812.539,-173.089 819.873,-164.577"/>
<polygon fill="midnightblue" stroke="midnightblue" points="792.027,-191.535 788.151,-201.396 797.33,-196.104 792.027,-191.535"/>
</g>
<!-- Node3 -->
<g id="node3" class="node"><title>Node3</title>
<g id="a_node3"><a xlink:href="PostProcessingRunner_8h.html" target="_top" xlink:title="Framework/include/Quality\lControl/PostProcessingRunner.h">
<polygon fill="none" stroke="black" points="433,-67.5 433,-97.5 593,-97.5 593,-67.5 433,-67.5"/>
<text text-anchor="start" x="441" y="-85.5" font-family="Helvetica,sans-Serif" font-size="10.00">Framework/include/Quality</text>
<text text-anchor="middle" x="513" y="-74.5" font-family="Helvetica,sans-Serif" font-size="10.00">Control/PostProcessingRunner.h</text>
</a>
</g>
</g>
<!-- Node1&#45;&gt;Node3 -->
<g id="edge14" class="edge"><title>Node1&#45;&gt;Node3</title>
<path fill="none" stroke="midnightblue" d="M738.742,-196.8C685.425,-170.04 588.557,-121.422 540.943,-97.5247"/>
<polygon fill="midnightblue" stroke="midnightblue" points="737.347,-200.016 747.854,-201.374 740.487,-193.76 737.347,-200.016"/>
</g>
<!-- Node10 -->
<g id="node10" class="node"><title>Node10</title>
<g id="a_node10"><a xlink:href="testTrendingTask_8cxx.html" target="_top" xlink:title="Framework/test/testTrending\lTask.cxx">
<polygon fill="none" stroke="black" points="753,-0.5 753,-30.5 895,-30.5 895,-0.5 753,-0.5"/>
<text text-anchor="start" x="761" y="-18.5" font-family="Helvetica,sans-Serif" font-size="10.00">Framework/test/testTrending</text>
<text text-anchor="middle" x="824" y="-7.5" font-family="Helvetica,sans-Serif" font-size="10.00">Task.cxx</text>
</a>
</g>
</g>
<!-- Node1&#45;&gt;Node10 -->
<g id="edge20" class="edge"><title>Node1&#45;&gt;Node10</title>
<path fill="none" stroke="midnightblue" d="M755.389,-193.729C748.828,-185.395 742.396,-175.382 739,-165 731.634,-142.483 745.771,-70.5638 748,-67 757.996,-51.0171 775.121,-38.9812 790.588,-30.6765"/>
<polygon fill="midnightblue" stroke="midnightblue" points="752.771,-196.054 761.885,-201.455 758.128,-191.549 752.771,-196.054"/>
</g>
<!-- Node15 -->
<g id="node15" class="node"><title>Node15</title>
<g id="a_node15"><a xlink:href="TriggerHelpers_8h.html" target="_top" xlink:title="Framework/include/Quality\lControl/TriggerHelpers.h">
<polygon fill="none" stroke="black" points="166.5,-134.5 166.5,-164.5 299.5,-164.5 299.5,-134.5 166.5,-134.5"/>
<text text-anchor="start" x="174.5" y="-152.5" font-family="Helvetica,sans-Serif" font-size="10.00">Framework/include/Quality</text>
<text text-anchor="middle" x="233" y="-141.5" font-family="Helvetica,sans-Serif" font-size="10.00">Control/TriggerHelpers.h</text>
</a>
</g>
</g>
<!-- Node1&#45;&gt;Node15 -->
<g id="edge15" class="edge"><title>Node1&#45;&gt;Node15</title>
<path fill="none" stroke="midnightblue" d="M699.357,-206.325C592.596,-193.546 400.869,-170.595 299.701,-158.485"/>
<polygon fill="midnightblue" stroke="midnightblue" points="699.072,-209.816 709.418,-207.53 699.904,-202.866 699.072,-209.816"/>
</g>
<!-- Node18 -->
<g id="node18" class="node"><title>Node18</title>
<g id="a_node18"><a xlink:href="Triggers_8cxx.html" target="_top" xlink:title="Framework/src/Triggers.cxx">
<polygon fill="none" stroke="black" points="933.5,-140 933.5,-159 1072.5,-159 1072.5,-140 933.5,-140"/>
<text text-anchor="middle" x="1003" y="-147" font-family="Helvetica,sans-Serif" font-size="10.00">Framework/src/Triggers.cxx</text>
</a>
</g>
</g>
<!-- Node1&#45;&gt;Node18 -->
<g id="edge19" class="edge"><title>Node1&#45;&gt;Node18</title>
<path fill="none" stroke="midnightblue" d="M834.774,-198.671C879.138,-185.967 938.169,-169.064 973.215,-159.029"/>
<polygon fill="midnightblue" stroke="midnightblue" points="833.626,-195.358 824.976,-201.476 835.553,-202.088 833.626,-195.358"/>
</g>
<!-- Node19 -->
<g id="node19" class="node"><title>Node19</title>
<g id="a_node19"><a xlink:href="testTriggers_8cxx.html" target="_top" xlink:title="Framework/test/testTriggers.cxx">
<polygon fill="none" stroke="black" points="1091,-140 1091,-159 1249,-159 1249,-140 1091,-140"/>
<text text-anchor="middle" x="1170" y="-147" font-family="Helvetica,sans-Serif" font-size="10.00">Framework/test/testTriggers.cxx</text>
</a>
</g>
</g>
<!-- Node1&#45;&gt;Node19 -->
<g id="edge21" class="edge"><title>Node1&#45;&gt;Node19</title>
<path fill="none" stroke="midnightblue" d="M853.133,-202.775C931.469,-189.852 1050.6,-170.198 1118.27,-159.035"/>
<polygon fill="midnightblue" stroke="midnightblue" points="852.134,-199.392 842.837,-204.474 853.273,-206.299 852.134,-199.392"/>
</g>
<!-- Node2&#45;&gt;Node3 -->
<g id="edge2" class="edge"><title>Node2&#45;&gt;Node3</title>
<path fill="none" stroke="midnightblue" d="M753.228,-132.449C700.713,-121.749 632.343,-107.818 581.977,-97.5549"/>
<polygon fill="midnightblue" stroke="midnightblue" points="752.677,-135.909 763.174,-134.476 754.075,-129.05 752.677,-135.909"/>
</g>
<!-- Node8 -->
<g id="node8" class="node"><title>Node8</title>
<g id="a_node8"><a xlink:href="TrendingTask_8h.html" target="_top" xlink:title="Framework/include/Quality\lControl/TrendingTask.h">
<polygon fill="none" stroke="black" points="757.5,-67.5 757.5,-97.5 890.5,-97.5 890.5,-67.5 757.5,-67.5"/>
<text text-anchor="start" x="765.5" y="-85.5" font-family="Helvetica,sans-Serif" font-size="10.00">Framework/include/Quality</text>
<text text-anchor="middle" x="824" y="-74.5" font-family="Helvetica,sans-Serif" font-size="10.00">Control/TrendingTask.h</text>
</a>
</g>
</g>
<!-- Node2&#45;&gt;Node8 -->
<g id="edge7" class="edge"><title>Node2&#45;&gt;Node8</title>
<path fill="none" stroke="midnightblue" d="M829.034,-124.403C827.922,-115.37 826.696,-105.408 825.732,-97.5765"/>
<polygon fill="midnightblue" stroke="midnightblue" points="825.569,-124.898 830.264,-134.396 832.516,-124.043 825.569,-124.898"/>
</g>
<!-- Node11 -->
<g id="node11" class="node"><title>Node11</title>
<g id="a_node11"><a xlink:href="PostProcessingInterface_8cxx.html" target="_top" xlink:title="Framework/src/PostProcessing\lInterface.cxx">
<polygon fill="none" stroke="black" points="1103,-67.5 1103,-97.5 1257,-97.5 1257,-67.5 1103,-67.5"/>
<text text-anchor="start" x="1111" y="-85.5" font-family="Helvetica,sans-Serif" font-size="10.00">Framework/src/PostProcessing</text>
<text text-anchor="middle" x="1180" y="-74.5" font-family="Helvetica,sans-Serif" font-size="10.00">Interface.cxx</text>
</a>
</g>
</g>
<!-- Node2&#45;&gt;Node11 -->
<g id="edge10" class="edge"><title>Node2&#45;&gt;Node11</title>
<path fill="none" stroke="midnightblue" d="M917.22,-132.583C974.602,-121.865 1049.58,-107.86 1104.75,-97.5549"/>
<polygon fill="midnightblue" stroke="midnightblue" points="916.27,-129.199 907.082,-134.476 917.555,-136.08 916.27,-129.199"/>
</g>
<!-- Node12 -->
<g id="node12" class="node"><title>Node12</title>
<g id="a_node12"><a xlink:href="testPostProcessingInterface_8cxx.html" target="_top" xlink:title="Framework/test/testPostProcessing\lInterface.cxx">
<polygon fill="none" stroke="black" points="1275.5,-67.5 1275.5,-97.5 1448.5,-97.5 1448.5,-67.5 1275.5,-67.5"/>
<text text-anchor="start" x="1283.5" y="-85.5" font-family="Helvetica,sans-Serif" font-size="10.00">Framework/test/testPostProcessing</text>
<text text-anchor="middle" x="1362" y="-74.5" font-family="Helvetica,sans-Serif" font-size="10.00">Interface.cxx</text>
</a>
</g>
</g>
<!-- Node2&#45;&gt;Node12 -->
<g id="edge11" class="edge"><title>Node2&#45;&gt;Node12</title>
<path fill="none" stroke="midnightblue" d="M925.847,-133.798C1077.26,-114.228 1117.66,-117.001 1266,-98 1269.09,-97.6038 1272.24,-97.1892 1275.42,-96.7608"/>
<polygon fill="midnightblue" stroke="midnightblue" points="925.174,-130.356 915.71,-135.119 926.079,-137.297 925.174,-130.356"/>
</g>
<!-- Node13 -->
<g id="node13" class="node"><title>Node13</title>
<g id="a_node13"><a xlink:href="SkeletonPostProcessing_8h.html" target="_top" xlink:title="Modules/Skeleton/include\l/Skeleton/SkeletonPostProcessing.h">
<polygon fill="none" stroke="black" points="909,-67.5 909,-97.5 1085,-97.5 1085,-67.5 909,-67.5"/>
<text text-anchor="start" x="917" y="-85.5" font-family="Helvetica,sans-Serif" font-size="10.00">Modules/Skeleton/include</text>
<text text-anchor="middle" x="997" y="-74.5" font-family="Helvetica,sans-Serif" font-size="10.00">/Skeleton/SkeletonPostProcessing.h</text>
</a>
</g>
</g>
<!-- Node2&#45;&gt;Node13 -->
<g id="edge12" class="edge"><title>Node2&#45;&gt;Node13</title>
<path fill="none" stroke="midnightblue" d="M877.232,-130.682C903.694,-120.257 936.634,-107.281 961.267,-97.5765"/>
<polygon fill="midnightblue" stroke="midnightblue" points="875.824,-127.474 867.803,-134.396 878.389,-133.987 875.824,-127.474"/>
</g>
<!-- Node4 -->
<g id="node4" class="node"><title>Node4</title>
<polygon fill="none" stroke="#bfbfbf" points="0,-0.5 0,-30.5 154,-30.5 154,-0.5 0,-0.5"/>
<text text-anchor="start" x="8" y="-18.5" font-family="Helvetica,sans-Serif" font-size="10.00">Framework/src/PostProcessing</text>
<text text-anchor="middle" x="77" y="-7.5" font-family="Helvetica,sans-Serif" font-size="10.00">Runner.cxx</text>
</g>
<!-- Node3&#45;&gt;Node4 -->
<g id="edge3" class="edge"><title>Node3&#45;&gt;Node4</title>
<path fill="none" stroke="midnightblue" d="M422.777,-69.0818C352.043,-59.2012 251.164,-44.7908 163,-31 160.158,-30.5554 157.264,-30.0969 154.341,-29.6291"/>
<polygon fill="midnightblue" stroke="midnightblue" points="422.602,-72.5912 432.989,-70.5061 423.569,-65.6583 422.602,-72.5912"/>
</g>
<!-- Node5 -->
<g id="node5" class="node"><title>Node5</title>
<g id="a_node5"><a xlink:href="runPostProcessing_8cxx.html" target="_top" xlink:title="This is a standalone executable to run postprocessing. ">
<polygon fill="none" stroke="black" points="364,-6 364,-25 550,-25 550,-6 364,-6"/>
<text text-anchor="middle" x="457" y="-13" font-family="Helvetica,sans-Serif" font-size="10.00">Framework/src/runPostProcessing.cxx</text>
</a>
</g>
</g>
<!-- Node3&#45;&gt;Node5 -->
<g id="edge4" class="edge"><title>Node3&#45;&gt;Node5</title>
<path fill="none" stroke="midnightblue" d="M494.181,-59.6571C484.022,-47.8646 472.049,-33.9672 464.491,-25.1945"/>
<polygon fill="midnightblue" stroke="midnightblue" points="491.67,-62.1044 500.849,-67.396 496.973,-57.5354 491.67,-62.1044"/>
</g>
<!-- Node6 -->
<g id="node6" class="node"><title>Node6</title>
<g id="a_node6"><a xlink:href="runPostProcessingOCC_8cxx.html" target="_top" xlink:title="This is an OCC executable to run postprocessing. ">
<polygon fill="none" stroke="black" points="567.5,-0.5 567.5,-30.5 734.5,-30.5 734.5,-0.5 567.5,-0.5"/>
<text text-anchor="start" x="575.5" y="-18.5" font-family="Helvetica,sans-Serif" font-size="10.00">Framework/src/runPostProcessing</text>
<text text-anchor="middle" x="651" y="-7.5" font-family="Helvetica,sans-Serif" font-size="10.00">OCC.cxx</text>
</a>
</g>
</g>
<!-- Node3&#45;&gt;Node6 -->
<g id="edge5" class="edge"><title>Node3&#45;&gt;Node6</title>
<path fill="none" stroke="midnightblue" d="M552,-63.1305C573.927,-52.8025 600.874,-40.1103 621.114,-30.5765"/>
<polygon fill="midnightblue" stroke="midnightblue" points="550.499,-59.9684 542.944,-67.396 553.482,-66.3011 550.499,-59.9684"/>
</g>
<!-- Node7 -->
<g id="node7" class="node"><title>Node7</title>
<g id="a_node7"><a xlink:href="testPostProcessingRunner_8cxx.html" target="_top" xlink:title="Framework/test/testPostProcessing\lRunner.cxx">
<polygon fill="none" stroke="black" points="172.5,-0.5 172.5,-30.5 345.5,-30.5 345.5,-0.5 172.5,-0.5"/>
<text text-anchor="start" x="180.5" y="-18.5" font-family="Helvetica,sans-Serif" font-size="10.00">Framework/test/testPostProcessing</text>
<text text-anchor="middle" x="259" y="-7.5" font-family="Helvetica,sans-Serif" font-size="10.00">Runner.cxx</text>
</a>
</g>
</g>
<!-- Node3&#45;&gt;Node7 -->
<g id="edge6" class="edge"><title>Node3&#45;&gt;Node7</title>
<path fill="none" stroke="midnightblue" d="M448.462,-64.9844C406.974,-54.3674 353.645,-40.7201 314.141,-30.6109"/>
<polygon fill="midnightblue" stroke="midnightblue" points="447.643,-68.3875 458.198,-67.476 449.378,-61.606 447.643,-68.3875"/>
</g>
<!-- Node9 -->
<g id="node9" class="node"><title>Node9</title>
<g id="a_node9"><a xlink:href="TrendingTask_8cxx.html" target="_top" xlink:title="Framework/src/TrendingTask.cxx">
<polygon fill="none" stroke="black" points="913.5,-6 913.5,-25 1076.5,-25 1076.5,-6 913.5,-6"/>
<text text-anchor="middle" x="995" y="-13" font-family="Helvetica,sans-Serif" font-size="10.00">Framework/src/TrendingTask.cxx</text>
</a>
</g>
</g>
<!-- Node8&#45;&gt;Node9 -->
<g id="edge8" class="edge"><title>Node8&#45;&gt;Node9</title>
<path fill="none" stroke="midnightblue" d="M870.607,-63.7838C903.763,-51.1807 946.835,-34.8082 972.62,-25.007"/>
<polygon fill="midnightblue" stroke="midnightblue" points="869.208,-60.5712 861.104,-67.396 871.696,-67.1144 869.208,-60.5712"/>
</g>
<!-- Node8&#45;&gt;Node10 -->
<g id="edge9" class="edge"><title>Node8&#45;&gt;Node10</title>
<path fill="none" stroke="midnightblue" d="M824,-57.1081C824,-48.1539 824,-38.3227 824,-30.5765"/>
<polygon fill="midnightblue" stroke="midnightblue" points="820.5,-57.3959 824,-67.396 827.5,-57.396 820.5,-57.3959"/>
</g>
<!-- Node14 -->
<g id="node14" class="node"><title>Node14</title>
<polygon fill="none" stroke="#bfbfbf" points="1095,-0.5 1095,-30.5 1241,-30.5 1241,-0.5 1095,-0.5"/>
<text text-anchor="start" x="1103" y="-18.5" font-family="Helvetica,sans-Serif" font-size="10.00">Modules/Skeleton/src</text>
<text text-anchor="middle" x="1168" y="-7.5" font-family="Helvetica,sans-Serif" font-size="10.00">/SkeletonPostProcessing.cxx</text>
</g>
<!-- Node13&#45;&gt;Node14 -->
<g id="edge13" class="edge"><title>Node13&#45;&gt;Node14</title>
<path fill="none" stroke="midnightblue" d="M1043.52,-63.8185C1071,-53.3707 1105.33,-40.3231 1130.97,-30.5765"/>
<polygon fill="midnightblue" stroke="midnightblue" points="1042.21,-60.5712 1034.1,-67.396 1044.7,-67.1144 1042.21,-60.5712"/>
</g>
<!-- Node15&#45;&gt;Node4 -->
<g id="edge16" class="edge"><title>Node15&#45;&gt;Node4</title>
<path fill="none" stroke="midnightblue" d="M215.609,-126.552C201.246,-109.22 179.754,-85.0347 158,-67 141.032,-52.9332 119.832,-39.8521 103.377,-30.5293"/>
<polygon fill="midnightblue" stroke="midnightblue" points="213.023,-128.918 222.058,-134.452 218.446,-124.492 213.023,-128.918"/>
</g>
<!-- Node16 -->
<g id="node16" class="node"><title>Node16</title>
<g id="a_node16"><a xlink:href="TriggerHelpers_8cxx.html" target="_top" xlink:title="Framework/src/TriggerHelpers.cxx">
<polygon fill="none" stroke="black" points="204.5,-73 204.5,-92 371.5,-92 371.5,-73 204.5,-73"/>
<text text-anchor="middle" x="288" y="-80" font-family="Helvetica,sans-Serif" font-size="10.00">Framework/src/TriggerHelpers.cxx</text>
</a>
</g>
</g>
<!-- Node15&#45;&gt;Node16 -->
<g id="edge17" class="edge"><title>Node15&#45;&gt;Node16</title>
<path fill="none" stroke="midnightblue" d="M251.482,-126.657C261.461,-114.865 273.22,-100.967 280.643,-92.1945"/>
<polygon fill="midnightblue" stroke="midnightblue" points="248.722,-124.501 244.934,-134.396 254.065,-129.023 248.722,-124.501"/>
</g>
<!-- Node17 -->
<g id="node17" class="node"><title>Node17</title>
<g id="a_node17"><a xlink:href="testTriggerHelpers_8cxx.html" target="_top" xlink:title="Framework/test/testTrigger\lHelpers.cxx">
<polygon fill="none" stroke="black" points="15,-67.5 15,-97.5 149,-97.5 149,-67.5 15,-67.5"/>
<text text-anchor="start" x="23" y="-85.5" font-family="Helvetica,sans-Serif" font-size="10.00">Framework/test/testTrigger</text>
<text text-anchor="middle" x="82" y="-74.5" font-family="Helvetica,sans-Serif" font-size="10.00">Helpers.cxx</text>
</a>
</g>
</g>
<!-- Node15&#45;&gt;Node17 -->
<g id="edge18" class="edge"><title>Node15&#45;&gt;Node17</title>
<path fill="none" stroke="midnightblue" d="M190.968,-130.407C166.861,-120.029 137.046,-107.195 114.701,-97.5765"/>
<polygon fill="midnightblue" stroke="midnightblue" points="189.666,-133.657 200.235,-134.396 192.434,-127.227 189.666,-133.657"/>
</g>
</g>
</svg>
